<svg xmlns="http://www.w3.org/2000/svg" width="400" height="400" viewBox="0 0 400 400">
  <g fill="none" fill-rule="evenodd">
    <circle cx="200" cy="200" r="200" fill="#7DC9D9"/>
    <path fill="#13A0BF" fill-rule="nonzero" d="M250.695506,336.666667 C249.097027,336.666667 247.529799,336.034103 246.361018,334.849629 L199.166039,287.086359 L151.972622,334.849629 C150.283515,336.55755 147.769387,337.11895 145.528704,336.287129 C143.28802,335.455308 141.728605,333.382082 141.531724,330.973597 L139.306666,303.632632 L112.2919,301.380707 C109.912151,301.181449 107.86366,299.603204 107.041763,297.335465 C106.219867,295.067726 106.773006,292.521658 108.462113,290.813738 L174.988846,223.483705 C176.138876,222.319788 177.696729,221.666667 179.321771,221.666667 C180.948376,221.666667 182.506229,222.319788 183.654697,223.483705 L199.166039,239.182343 L214.67738,223.483705 C215.82741,222.319788 217.385263,221.666667 219.010305,221.666667 C220.635348,221.666667 222.194763,222.319788 223.343231,223.483705 L289.871527,290.813738 C291.559071,292.52324 292.113773,295.067726 291.291876,297.335465 C290.46998,299.603204 288.421489,301.181449 286.041739,301.380707 L259.025411,303.632632 L256.800353,330.973597 C256.605035,333.382082 255.045619,335.455308 252.804936,336.287129 C252.115855,336.543317 251.403337,336.666667 250.695506,336.666667 Z"/>
    <path fill="#00667F" fill-rule="nonzero" d="M223.343695,223.483705 C222.195235,222.319788 220.637393,221.666667 219.012361,221.666667 C217.385767,221.666667 215.827925,222.319788 214.679465,223.483705 L199.168229,239.182343 L199.166667,239.180762 L199.166667,287.08794 L199.168229,287.086359 L246.361325,334.849629 C247.530098,336.034103 249.097316,336.666667 250.695784,336.666667 C251.402048,336.666667 252.116124,336.543317 252.8052,336.287129 C255.045868,335.455308 256.605273,333.382082 256.800589,330.973597 L259.025632,303.632632 L286.041777,301.380707 C288.421511,301.181449 290.468425,299.603204 291.291879,297.335465 C292.11377,295.067726 291.559071,292.521658 289.871539,290.813738 L223.343695,223.483705 Z"/>
    <path fill="#FFD863" fill-rule="nonzero" d="M199.999161,136.666667 C154.04917,136.666667 116.666667,174.04917 116.666667,220.000839 C116.666667,265.95083 154.04917,303.333333 199.999161,303.333333 C245.95083,303.333333 283.333333,265.95083 283.333333,220.000839 C283.333333,174.04917 245.949152,136.666667 199.999161,136.666667 Z"/>
    <path fill="#000" fill-opacity=".05" fill-rule="nonzero" d="M283.334173,220.000839 C283.334173,174.04917 245.949991,136.666667 200,136.666667 L200,303.333333 C245.949991,303.333333 283.334173,265.95083 283.334173,220.000839 Z"/>
    <path fill="#FCE6A4" fill-rule="nonzero" d="M199.999139,276.666667 C168.75354,276.666667 143.333333,251.246074 143.333333,220 C143.333333,188.752204 168.75354,163.333333 199.999139,163.333333 C231.24646,163.333333 256.666667,188.752204 256.666667,220 C256.666667,251.246074 231.244737,276.666667 199.999139,276.666667 Z"/>
    <path fill="#000" fill-opacity=".05" fill-rule="nonzero" d="M256.666667,220 C256.666667,188.752204 231.245124,163.333333 200,163.333333 L200,276.666667 C231.245124,276.666667 256.666667,251.246074 256.666667,220 Z"/>
    <path fill="#FFD863" fill-rule="nonzero" d="M120.584894 129.239825L125.476324 142.502149C125.660201 143.001458 126.135591 143.332586 126.66704 143.332586 127.19849 143.332586 127.67388 143.001458 127.857757 142.502149L132.749187 129.239825C136.708525 118.503195 145.172104 110.039616 155.907987 106.081026L169.170311 101.189595C169.668872 101.005718 170 100.530329 170 99.9988788 170 99.4674291 169.668872 98.9920395 169.170311 98.8081624L155.907239 93.9167321C145.171357 89.9573943 136.707777 81.4945622 132.749187 70.75868L127.857757 57.4963561C127.67388 56.997795 127.19849 56.6666667 126.66704 56.6666667 126.135591 56.6666667 125.660201 56.997795 125.476324 57.4963561L120.584894 70.75868C116.625556 81.4945622 108.162724 89.9573943 97.4260941 93.9167321L84.1630228 98.8081624C83.6644616 98.9920395 83.3333333 99.4674291 83.3333333 99.9988788 83.3333333 100.530329 83.6644616 101.005718 84.1630228 101.189595L97.4253466 106.081026C108.161976 110.039616 116.625556 118.502448 120.584894 129.239825zM315.789542 283.576289L319.175917 292.757898C319.303216 293.103573 319.632332 293.332816 320.000259 293.332816 320.368185 293.332816 320.697301 293.103573 320.824601 292.757898L324.210976 283.576289C326.952056 276.143238 332.811457 270.283837 340.243991 267.543274L349.4256 264.156899C349.770757 264.0296 350 263.700484 350 263.332557 350 262.96463 349.770757 262.635515 349.4256 262.508215L340.243473 259.12184C332.810939 256.38076 326.951538 250.521876 324.210976 243.089343L320.824601 233.907734C320.697301 233.562576 320.368185 233.333333 320.000259 233.333333 319.632332 233.333333 319.303216 233.562576 319.175917 233.907734L315.789542 243.089343C313.048462 250.521876 307.189578 256.38076 299.756527 259.12184L290.5744 262.508215C290.229243 262.635515 290 262.96463 290 263.332557 290 263.700484 290.229243 264.0296 290.5744 264.156899L299.756009 267.543274C307.189061 270.283837 313.048462 276.14272 315.789542 283.576289zM275.789542 143.576289L279.175917 152.757898C279.303216 153.103573 279.632332 153.332816 280.000259 153.332816 280.368185 153.332816 280.697301 153.103573 280.824601 152.757898L284.210976 143.576289C286.952056 136.143238 292.811457 130.283837 300.243991 127.543274L309.4256 124.156899C309.770757 124.0296 310 123.700484 310 123.332557 310 122.96463 309.770757 122.635515 309.4256 122.508215L300.243473 119.12184C292.810939 116.38076 286.951538 110.521876 284.210976 103.089343L280.824601 93.9077337C280.697301 93.562576 280.368185 93.3333333 280.000259 93.3333333 279.632332 93.3333333 279.303216 93.562576 279.175917 93.9077337L275.789542 103.089343C273.048462 110.521876 267.189578 116.38076 259.756527 119.12184L250.5744 122.508215C250.229243 122.635515 250 122.96463 250 123.332557 250 123.700484 250.229243 124.0296 250.5744 124.156899L259.756009 127.543274C267.189061 130.283837 273.048462 136.14272 275.789542 143.576289zM69.1228751 216.909622L72.5092499 226.091231C72.6365495 226.436907 72.9656653 226.666149 73.3335921 226.666149 73.7015188 226.666149 74.0306347 226.436907 74.1579342 226.091231L77.544309 216.909622C80.285389 209.476571 86.1447903 203.61717 93.5773241 200.876607L102.758933 197.490233C103.104091 197.362933 103.333333 197.033817 103.333333 196.66589 103.333333 196.297964 103.104091 195.968848 102.758933 195.841548L93.5768066 192.455173C86.1442728 189.714094 80.2848715 183.85521 77.544309 176.422676L74.1579342 167.241067C74.0306347 166.895909 73.7015188 166.666667 73.3335921 166.666667 72.9656653 166.666667 72.6365495 166.895909 72.5092499 167.241067L69.1228751 176.422676C66.3817951 183.85521 60.5229113 189.714094 53.08986 192.455173L43.9077337 195.841548C43.562576 195.968848 43.3333333 196.297964 43.3333333 196.66589 43.3333333 197.033817 43.562576 197.362933 43.9077337 197.490233L53.0893425 200.876607C60.5223939 203.61717 66.3817951 209.476054 69.1228751 216.909622z"/>
  </g>
</svg>
