<svg xmlns="http://www.w3.org/2000/svg" width="400" height="400" viewBox="0 0 400 400">
  <g fill="none" fill-rule="evenodd">
    <circle cx="200" cy="200" r="200" fill="#7DC9D9"/>
    <circle cx="99.333" cy="275.583" r="14.667" fill="#BAE8F1"/>
    <circle cx="260.667" cy="275.583" r="14.667" fill="#BAE8F1"/>
    <path fill="#EBF6F8" d="M290,136.380781 L290,242.452553 C290,254.168079 280.836859,263.666667 269.535072,263.666667 L90.4649276,263.666667 C79.1631409,263.666667 70,254.168079 70,242.452553 L70,136.380781 C70,124.665255 79.1631409,115.166667 90.4649276,115.166667 L269.535072,115.166667 C280.836859,115.166667 290,124.665255 290,136.380781 Z"/>
    <path fill="#EBF6F8" d="M224,120.666667 L224,98.6666667 C224,86.517134 216.184816,76.6666667 204.75,76.6666667 L155.25,76.6666667 C143.815184,76.6666667 136,86.517134 136,98.6666667 L136,120.666667 L155.25,120.666667 L155.25,95.9166667 L204.75,95.9166667 L204.75,120.666667 L224,120.666667 Z"/>
    <rect width="22" height="148.5" x="99.333" y="115.167" fill="#BAE8F1"/>
    <rect width="22" height="148.5" x="238.667" y="115.167" fill="#BAE8F1"/>
    <ellipse cx="247.375" cy="212.792" fill="#FCE6A4" rx="26.125" ry="20.625" transform="rotate(-161.875 247.375 212.792)"/>
    <ellipse cx="219.875" cy="196.979" fill="#FCE6A4" rx="26.125" ry="20.625" transform="rotate(-161.875 219.875 196.98)"/>
    <polygon fill="#FCE6A4" points="70 170.167 70 196.417 122.708 227.917 133.25 206.917"/>
    <polygon fill="#FCE6A4" points="160.75 128.917 136 159.167 185.5 159.167"/>
    <path fill="#BAE8F1" fill-rule="nonzero" d="M272.765555,189.338924 C252.400401,189.338924 235.892223,205.365656 235.892223,225.136878 C235.892223,244.906546 252.400401,260.934831 272.765555,260.934831 C293.130709,260.934831 309.638887,244.906546 309.638887,225.136878 C309.638887,205.365656 293.130709,189.338924 272.765555,189.338924 Z" transform="rotate(10 272.766 225.137)"/>
    <path fill="#13A0BF" fill-rule="nonzero" d="M269.65743,189.066998 C290.022584,189.066998 306.530762,205.09373 306.530762,224.864952 C306.530762,244.634621 290.022584,260.662906 269.65743,260.662906 C249.292276,260.662906 232.784098,244.634621 232.784098,224.864952 C232.784098,205.09373 249.292276,189.066998 269.65743,189.066998 Z M314.724836,163.212921 L208.201877,163.212921 L208.201877,322.314937 L314.724836,322.314937 C323.738317,322.314937 331.112984,315.155346 331.112984,306.404735 L331.112984,179.123122 C331.112984,170.372511 323.738317,163.212921 314.724836,163.212921 Z" transform="rotate(10 269.657 242.764)"/>
    <path fill="#00667F" fill-rule="nonzero" d="M272.928817,185.821 C249.99863,185.821 231.343892,203.692082 231.343892,225.659009 C231.343892,247.625935 249.99863,265.497017 272.928817,265.497017 C295.859004,265.497017 314.513741,247.625935 314.513741,225.659009 C314.513741,203.692082 295.859004,185.821 272.928817,185.821 Z M305.927104,221.675208 L296.53151,221.675208 C296.011699,212.654078 293.740772,204.613336 290.272654,198.474236 C298.695226,203.42442 304.643819,211.863542 305.927104,221.675208 Z M268.770324,195.484829 L268.770324,221.675208 L257.659352,221.675208 C258.500798,208.611142 263.400021,198.902184 268.770324,195.484829 Z M268.770324,229.642809 L268.770324,255.831631 C263.400021,252.415833 258.502422,242.705319 257.659352,229.642809 L268.770324,229.642809 Z M277.087309,255.831631 L277.087309,229.642809 L288.198281,229.642809 C287.355212,242.705319 282.457612,252.415833 277.087309,255.831631 Z M277.087309,221.675208 L277.087309,195.484829 C282.457612,198.900627 287.355212,208.611142 288.198281,221.675208 L277.087309,221.675208 Z M255.584979,198.474236 C252.116862,204.613336 249.845935,212.654078 249.326124,221.675208 L239.93053,221.675208 C241.213814,211.863542 247.162408,203.42442 255.584979,198.474236 Z M239.93053,229.642809 L249.326124,229.642809 C249.845935,238.662384 252.116862,246.704682 255.584979,252.843781 C247.162408,247.893597 241.213814,239.454475 239.93053,229.642809 Z M290.272654,252.843781 C293.740772,246.704682 296.011699,238.662384 296.53151,229.642809 L305.927104,229.642809 C304.643819,239.454475 298.695226,247.893597 290.272654,252.843781 Z" transform="rotate(10 272.929 225.659)"/>
    <path fill="#00667F" fill-rule="nonzero" d="M299.831248,275.886871 L224.992713,276.050667 C222.696235,276.055692 220.830803,277.937369 220.825593,280.254064 C220.820405,282.570758 222.677409,284.444289 224.973887,284.439273 L299.812422,284.275477 C302.107275,284.270455 303.974332,282.388775 303.979542,280.07208 C303.98473,277.755385 302.127726,275.881855 299.831248,275.886871 Z" transform="rotate(10 262.403 280.163)"/>
    <path fill="#00667F" fill-rule="nonzero" d="M255.823412,287.984008 L223.708792,288.054301 C221.491503,288.059154 219.690247,289.942329 219.68504,292.257385 C219.679852,294.574079 221.472677,296.44775 223.689966,296.442907 L255.804586,296.372614 C258.020307,296.367765 259.823128,294.486225 259.828338,292.16953 C259.833522,289.854475 258.039133,287.979169 255.823412,287.984008 Z" transform="rotate(10 239.757 292.213)"/>
    <path fill="#00667F" fill-rule="nonzero" d="M296.912244,296.874718 L289.026958,296.891984 C286.849264,296.89675 285.080097,298.779855 285.07489,301.094911 C285.069703,303.411605 286.830438,305.285346 289.008132,305.280589 L296.893418,305.263323 C299.069572,305.258561 300.840275,303.377091 300.845486,301.060396 C300.85067,298.745341 299.089939,296.869961 296.912244,296.874718 Z" transform="rotate(10 292.96 301.078)"/>
    <path fill="#00667F" fill-rule="nonzero" d="M272.378929,293.678655 L272.37557,293.678655 C270.000367,293.683871 268.072807,295.567322 268.067601,297.882378 C268.062412,300.199073 269.984901,302.07246 272.360103,302.067272 C274.733626,302.062067 276.664542,300.180247 276.669752,297.863552 C276.674937,295.548497 274.752452,293.673471 272.378929,293.678655 Z" transform="rotate(10 272.369 297.873)"/>
  </g>
</svg>
