<svg xmlns="http://www.w3.org/2000/svg" width="400" height="400" viewBox="0 0 400 400">
  <g fill="none" fill-rule="evenodd">
    <circle cx="200" cy="200" r="200" fill="#7DC9D9"/>
    <path fill="#13A0BF" fill-rule="nonzero" d="M268.705119,363.333333 C266.573813,363.333333 264.484176,362.489916 262.925802,360.910616 L199.999163,297.226256 L137.074607,360.910616 C134.822464,363.187844 131.470294,363.936377 128.482716,362.827283 C125.495138,361.718188 123.415917,358.953887 123.15341,355.742574 L120.186666,319.287954 L84.1669781,316.285387 C80.9939786,316.01971 78.2626578,313.915383 77.1667957,310.891731 C76.0709335,307.868079 76.808453,304.473322 79.0605949,302.196094 L167.762906,212.422717 C169.296279,210.870829 171.373416,210 173.54014,210 C175.708946,210 177.786084,210.870829 179.317374,212.422717 L199.999163,233.354235 L220.680951,212.422717 C222.214324,210.870829 224.291462,210 226.458185,210 C228.624908,210 230.704129,210.870829 232.235419,212.422717 L320.939813,302.196094 C323.189872,304.475431 323.929475,307.868079 322.833612,310.891731 C321.737751,313.915383 319.00643,316.01971 315.83343,316.285387 L279.811659,319.287954 L276.844915,355.742574 C276.584491,358.953887 274.50527,361.718188 271.517693,362.827283 C270.598918,363.168867 269.648894,363.333333 268.705119,363.333333 Z"/>
    <path fill="#00667F" fill-rule="nonzero" d="M232.236038,212.422717 C230.704758,210.870829 228.627635,210 226.460926,210 C224.292134,210 222.215011,210.870829 220.683732,212.422717 L200.002083,233.354235 L200,233.352127 L200,297.228364 L200.002083,297.226256 L262.926212,360.910616 C264.484576,362.489916 266.574199,363.333333 268.70549,363.333333 C269.647175,363.333333 270.599276,363.168867 271.518044,362.827283 C274.505602,361.718188 276.584809,358.953887 276.84523,355.742574 L279.811954,319.287954 L315.833481,316.285387 C319.006459,316.01971 321.735678,313.915383 322.833616,310.891731 C323.929471,307.868079 323.189873,304.473322 320.939829,302.196094 L232.236038,212.422717 Z"/>
    <path fill="#FFD863" fill-rule="nonzero" d="M199.998758,70 C131.992772,70 76.6666667,125.326105 76.6666667,193.334575 C76.6666667,261.340561 131.992772,316.666666 199.998758,316.666666 C268.007228,316.666666 323.333333,261.340561 323.333333,193.334575 C323.333333,125.326105 268.004745,70 199.998758,70 Z"/>
    <path fill="#000" fill-opacity=".05" fill-rule="nonzero" d="M323.334576,193.334575 C323.334576,125.326105 268.005987,70 200,70 L200,316.666667 C268.005987,316.666667 323.334576,261.340562 323.334576,193.334575 Z"/>
    <path fill="#FCE6A4" fill-rule="nonzero" d="M199.998683,279.997366 C152.211296,279.997366 113.333333,241.119402 113.333333,193.332016 C113.333333,145.541995 152.211296,106.666667 199.998683,106.666667 C247.788703,106.666667 286.666667,145.541995 286.666667,193.332016 C286.666667,241.119402 247.786069,279.997366 199.998683,279.997366 Z"/>
    <path fill="#000" fill-opacity=".05" fill-rule="nonzero" d="M286.669301,193.333333 C286.669301,145.542586 247.788113,106.666667 200,106.666667 L200,280 C247.788113,280 286.669301,241.121446 286.669301,193.333333 Z"/>
  </g>
</svg>
