<svg xmlns="http://www.w3.org/2000/svg" width="400" height="400" viewBox="0 0 400 400">
  <g fill="none" fill-rule="evenodd">
    <circle cx="200" cy="200" r="200" fill="#7DC9D9"/>
    <circle cx="102.222" cy="311.111" r="17.778" fill="#BAE8F1"/>
    <circle cx="297.778" cy="311.111" r="17.778" fill="#BAE8F1"/>
    <path fill="#EBF6F8" d="M333.333333,142.380744 L333.333333,270.952589 C333.333333,285.153227 322.226496,296.666667 308.527361,296.666667 L91.4726395,296.666667 C77.7735041,296.666667 66.6666667,285.153227 66.6666667,270.952589 L66.6666667,142.380744 C66.6666667,128.180107 77.7735041,116.666667 91.4726395,116.666667 L308.527361,116.666667 C322.226496,116.666667 333.333333,128.180107 333.333333,142.380744 Z"/>
    <path fill="#EBF6F8" d="M253.333333,123.333333 L253.333333,96.6666667 C253.333333,81.9399604 243.860383,70 230,70 L170,70 C156.139617,70 146.666667,81.9399604 146.666667,96.6666667 L146.666667,123.333333 L170,123.333333 L170,93.3333333 L230,93.3333333 L230,123.333333 L253.333333,123.333333 Z"/>
    <rect width="26.667" height="180" x="102.222" y="116.667" fill="#BAE8F1"/>
    <rect width="26.667" height="180" x="271.111" y="116.667" fill="#BAE8F1"/>
    <ellipse cx="281.667" cy="235" fill="#FCE6A4" rx="31.667" ry="25" transform="rotate(-161.875 281.667 235)"/>
    <polygon fill="#FCE6A4" points="66.667 183.333 66.667 215.152 130.556 253.333 143.333 227.879"/>
  </g>
</svg>
