<svg xmlns="http://www.w3.org/2000/svg" width="24" height="24" viewBox="0 0 24 24">
  <path fill="#FFF" fill-rule="evenodd" d="M11.9090909,21.4111772 C11.5984775,21.4111772 11.2990168,21.2986506 11.0656405,21.0942383 C10.1842374,20.3235307 9.33446155,19.5992654 8.58472788,18.9603937 L8.58089935,18.9570645 C6.38280139,17.0838956 4.48466355,15.466242 3.16397372,13.872725 C1.68764428,12.0912753 1,10.4022106 1,8.55700685 C1,6.76423783 1.61473499,5.11029607 2.73084608,3.89963601 C3.86027389,2.67466041 5.41001197,2 7.09508168,2 C8.3545144,2 9.50791239,2.39817116 10.5231489,3.1833607 C11.0355114,3.5797008 11.4999334,4.06476385 11.9090909,4.63055976 C12.3184149,4.06476385 12.7826705,3.5797008 13.2951993,3.1833607 C14.3104359,2.39817116 15.4638339,2 16.7232666,2 C18.4081698,2 19.9580744,2.67466041 21.0875022,3.89963601 C22.2036133,5.11029607 22.8181818,6.76423783 22.8181818,8.55700685 C22.8181818,10.4022106 22.130704,12.0912753 20.6543745,13.8725586 C19.3336848,15.466242 17.4357133,17.0837291 15.2379484,18.9567316 C14.486883,19.596602 13.6357755,20.3220326 12.7523748,21.0945712 C12.519165,21.2986506 12.2195379,21.4111772 11.9090909,21.4111772 L11.9090909,21.4111772 Z"/>
</svg>
