<svg xmlns="http://www.w3.org/2000/svg" width="80" height="80" viewBox="0 0 80 80">
  <g fill="none" transform="translate(6 6)">
    <path fill="#464646" d="M51.8181818,43.8646154 C51.8181818,43.8646154 56.9090909,45.0830769 62,40.2092308 C60.6205227,39.7448446 59.2908409,39.1548046 58.0290909,38.4473354 C55.9481818,37.2209538 54.9121818,34.8633831 55.4518182,32.5816615 C56.5387273,27.7504615 57.8878182,13.3348431 50.5454545,7.31076923 C50.5454545,7.31076923 44.1818182,0 34,0 C23.8181818,0 17.4545455,7.31076923 17.4545455,7.31076923 C10.0650909,13.3750523 11.4727273,27.8491569 12.5532727,32.5962831 C13.0924318,34.8674954 12.0618409,37.2154708 9.99,38.4363692 C8.72268182,39.1488646 7.38647727,39.7427123 6,40.2092308 C11.0909091,45.0830769 16.1818182,43.8646154 16.1818182,43.8646154 C27.2900227,39.3765646 39.7990227,39.2641615 50.9934545,43.5514708 L51.8181818,43.8646154 Z"/>
    <path fill="#F0D0B4" d="M52,21 L51.3571429,31.5394545 C50.7657143,42.4556364 43.3728571,49 34.1285714,49 L33.8714286,49 C24.6271429,49 17.2342857,42.4556364 16.6428571,31.5394545 L16,21 L52,21 Z"/>
    <path fill="#00667F" d="M0 70L0 66.5988235C0 56.7823529 7.64748148 50 17.6296296 50L25.1851852 50 34 58.2352941 42.8148148 50 50.3703704 50C60.3525185 50 68 56.7823529 68 66.5988235L68 70M56.3190349 32.6496059C57.7997654 32.6496059 59 31.5169918 59 30.1196847L59 22.5299212C59 21.1326141 57.7997654 20 56.3190349 20L50.9571046 20 50 33 56.3190349 32.6496059z"/>
    <path fill="#666" d="M39.7601398,42 L37.2641957,42 C36.5659553,42 36,41.4180094 36,40.6999857 C36,39.9819621 36.5659553,39.3999715 37.2641957,39.3999715 L39.7601398,39.3999715 C47.3290902,39.3908277 53.4627168,33.0834165 53.4716086,25.3000143 C53.4716086,24.5819906 54.037564,24 54.7358043,24 C55.4340447,24 56,24.5819906 56,25.3000143 C55.9897042,34.5188222 48.724947,41.9894125 39.7601398,42 Z"/>
    <circle cx="35" cy="40" r="4" fill="#00667F"/>
  </g>
</svg>
