<svg xmlns="http://www.w3.org/2000/svg" width="80" height="80" viewBox="0 0 80 80">
  <g fill="none" fill-rule="evenodd" transform="translate(10.625 1.875)">
    <path fill="#00718A" fill-rule="nonzero" d="M35.4397986,0.125 C39.2541594,0.125 42.375,3.03522727 42.375,6.625 C42.375,10.2147727 39.2699212,13.125 35.4397986,13.125 L33.374,13.125 L33.3748075,17.3985845 C47.4982707,19.3469965 58.375,31.4658001 58.375,46.125 C58.375,62.1412577 45.3912577,75.125 29.375,75.125 C13.3587423,75.125 0.375,62.1412577 0.375,46.125 C0.375,31.8140026 10.7411524,19.9241499 24.3743591,17.5545399 L24.374,13.125 L22.3102014,13.125 C18.4958406,13.125 15.375,10.2147727 15.375,6.625 C15.375,3.03522727 18.4800788,0.125 22.3102014,0.125 L35.4397986,0.125 Z M35.2108687,3.125 L22.5391313,3.125 C20.7897318,3.125 19.375,4.70673077 19.375,6.625 C19.375,8.54326923 20.804944,10.125 22.5391313,10.125 L24.374,10.125 L24.375,8.125 L33.375,8.125 L33.374,10.125 L35.2108687,10.125 C36.9602682,10.125 38.375,8.54326923 38.375,6.625 C38.375,4.70673077 36.945056,3.125 35.2108687,3.125 Z"/>
    <path fill="#009E92" fill-rule="nonzero" d="M50.5248708,16.6518248 C49.8360354,17.3302953 49.8211901,18.4453348 50.4917128,19.1423351 L50.7925153,19.4382173 L49.375,20.9036959 C50.5771534,21.8700871 51.6878387,22.9438552 52.680922,24.125 L54.0861927,22.6821135 L54.2858821,22.8803062 C54.9990459,23.5827392 56.1353389,23.5827392 56.8485028,22.8803062 C57.5373382,22.2018356 57.5521835,21.0867961 56.8816608,20.3897958 L53.0874915,16.6518248 C52.3743277,15.9493917 51.2380347,15.9493917 50.5248708,16.6518248 Z"/>
    <path fill="#009E92" fill-rule="nonzero" d="M2.52487079,16.6518248 C1.83603542,17.3302953 1.82119008,18.4453348 2.49171279,19.1423351 L2.79251529,19.4382173 L1.375,20.9036959 C2.57715345,21.8700871 3.6878387,22.9438552 4.68092198,24.125 L6.08619273,22.6821135 L6.28588209,22.8803062 C6.99904595,23.5827392 8.13533895,23.5827392 8.8485028,22.8803062 C9.53733817,22.2018356 9.55218352,21.0867961 8.88166081,20.3897958 L5.08749151,16.6518248 C4.37432765,15.9493917 3.23803465,15.9493917 2.52487079,16.6518248 Z" transform="matrix(-1 0 0 1 10.75 0)"/>
    <path fill="#B0DFE9" fill-rule="nonzero" d="M52.375,46.1401018 C52.375,46.3515266 52.375,46.5629514 52.3447965,46.7743762 C52.2843894,49.4322882 51.7558273,51.9995896 50.8497209,54.3554662 C50.713805,54.7481123 50.5476855,55.1407584 50.3664642,55.5183027 C49.3093401,57.9043828 47.8444682,60.0639363 46.062459,61.9365561 C45.7906271,62.2536934 45.4885916,62.5406271 45.1714544,62.8275607 C43.2988345,64.5944682 41.139281,66.0593401 38.7532009,67.1164642 C38.3756566,67.2976855 37.9830105,67.463805 37.5903644,67.5997209 C35.2344879,68.5209291 32.6671865,69.0494911 30.0092745,69.0947965 C29.7978496,69.125 29.5864248,69.125 29.375,69.125 C29.1635752,69.125 28.9370486,69.125 28.7407255,69.0947965 C26.0828135,69.0343894 23.5155121,68.5058273 21.1596356,67.5997209 C20.7669895,67.4487032 20.3743434,67.2825837 19.9967991,67.1164642 C17.610719,66.0593401 15.4511655,64.5944682 13.5785456,62.8275607 C13.2765102,62.5406271 12.9744747,62.2385916 12.687541,61.9365561 C10.9055318,60.0639363 9.44065988,57.9043828 8.38353578,55.5183027 C8.20231451,55.1407584 8.03619501,54.7481123 7.90027905,54.3554662 C6.97907091,51.9995896 6.45050886,49.4322882 6.40520355,46.7743762 C6.375,46.5629514 6.375,46.3515266 6.375,46.1401018 C6.375,45.928677 6.375,45.7172521 6.40520355,45.5058273 C6.46561064,42.8479153 6.99417269,40.2806139 7.90027905,37.9247374 C8.05129678,37.5320913 8.21741628,37.1394452 8.38353578,36.7619009 C9.45576165,34.3758207 10.9055318,32.2011655 12.7026428,30.3285456 C12.9744747,30.0265102 13.291612,29.7244747 13.5936474,29.437541 C15.4662672,27.6555318 17.6258207,26.1906599 20.0119009,25.1335358 C20.3894452,24.9523145 20.7820913,24.8012968 21.1747374,24.6502791 C23.5306139,23.7441727 26.0979153,23.2005089 28.7558273,23.1552035 C28.9672521,23.125 29.1937787,23.125 29.3901018,23.125 C29.6015266,23.125 29.8129514,23.125 30.0243762,23.1552035 C32.6822882,23.2156106 35.2495896,23.7441727 37.6054662,24.6502791 C37.9981123,24.786195 38.3907584,24.9523145 38.7683027,25.1335358 C41.1543828,26.1906599 43.3139363,27.6555318 45.1865561,29.437541 C45.5036934,29.7093729 45.7906271,30.0265102 46.0775607,30.3285456 C47.8746717,32.2011655 49.3244419,34.3758207 50.3966678,36.7619009 C50.577889,37.1394452 50.7289068,37.5320913 50.8799245,37.9247374 C51.7860309,40.2806139 52.3145929,42.8479153 52.375,45.5058273 C52.375,45.7172521 52.375,45.928677 52.375,46.1401018 Z"/>
    <path fill="#00718A" fill-rule="nonzero" d="M30.375,61.125 L30.375,66.1008454 C30.0458861,66.125 29.7167722,66.125 29.3876582,66.125 C29.0585443,66.125 28.7041139,66.125 28.375,66.1008454 L28.375,61.125 L30.375,61.125 Z M13.375,45.125 L13.375,47.125 L8.39915459,47.125 C8.38305153,46.9027778 8.37768384,46.6805556 8.37589461,46.4583333 L8.375,46.125 C8.375,45.7916667 8.375,45.4583333 8.39915459,45.125 L13.375,45.125 Z M50.3508454,45.125 C50.375,45.4583333 50.375,45.7916667 50.375,46.125 C50.375,46.4583333 50.375,46.7916667 50.3508454,47.125 L45.375,47.125 L45.375,45.125 L50.3508454,45.125 Z M30.375,25.1490385 L30.375,30.125 L28.375,30.125 L28.375,25.1490385 C28.5944093,25.1330128 28.8250703,25.1276709 29.0519808,25.1258903 L29.3876582,25.125 C29.7167722,25.125 30.0458861,25.125 30.375,25.1490385 Z"/>
    <polygon fill="#009E92" points="22.375 30.125 25.375 48.125 19.375 48.125" transform="rotate(-45 22.375 39.125)"/>
    <circle cx="29.375" cy="46.125" r="5" fill="#009E92" fill-rule="nonzero"/>
    <circle cx="29.375" cy="46.125" r="3" fill="#FFF" fill-rule="nonzero"/>
  </g>
</svg>
