<svg xmlns="http://www.w3.org/2000/svg" width="32" height="32" viewBox="0 0 32 32">
  <g fill="none" fill-rule="evenodd" transform="translate(1 11)">
    <path fill="#2890C3" d="M7.74930444,2.58272302 C7.87312767,1.79343335 7.7484362,1.25633169 7.32153321,0.769854626 C6.85148577,0.234289063 6.00235489,0.00480866948 4.91592952,0.00480866948 L1.76224379,0.00480866948 C1.54017676,0.00480866948 1.35116934,0.166366606 1.31657363,0.385695364 L0.0033393538,8.71290837 C-0.0225740317,8.87720458 0.104454987,9.02580582 0.270754806,9.02580582 L2.21766486,9.02580582 L2.08328926,9.87794212 C2.06064844,10.0216679 2.17171535,10.1516356 2.31724439,10.1516356 L3.95826964,10.1516356 C4.15248645,10.1516356 4.31785125,10.0103141 4.3481058,9.81843484 L4.36426827,9.73501778 L4.67335886,7.77468352 L4.6933282,7.66635489 C4.72358274,7.47447562 4.88894754,7.33315416 5.08323115,7.33315416 L5.32867365,7.33315416 C6.91847321,7.33315416 8.16331752,6.68725635 8.52703994,4.81935541 C8.67904732,4.03881485 8.60043893,3.38730692 8.19851431,2.92928116 C8.07696183,2.79076476 7.9256891,2.67615814 7.74930444,2.58272302"/>
    <path fill="#20274F" d="M7.74930444,2.58272302 C7.87312767,1.79343335 7.7484362,1.25633169 7.32153321,0.769854626 C6.85148577,0.234289063 6.00235489,0.00480866948 4.91592952,0.00480866948 L1.76224379,0.00480866948 C1.54017676,0.00480866948 1.35116934,0.166366606 1.31657363,0.385695364 L0.0033393538,8.71290837 C-0.0225740317,8.87720458 0.104454987,9.02580582 0.270754806,9.02580582 L2.21766486,9.02580582 L2.70674662,5.92461473 L2.69158595,6.02185671 C2.72618166,5.80252796 2.91365298,5.64097002 3.13565322,5.64097002 L4.06098816,5.64097002 C5.87833129,5.64097002 7.30129673,4.90270568 7.71704628,2.76745607 C7.72940189,2.70420871 7.73988746,2.64296496 7.74930444,2.58272302"/>
    <path fill="#28346A" d="M3.23209376 2.59320859C3.25293133 2.46130411 3.33761734 2.35324262 3.45155609 2.2986108 3.50338286 2.27383279 3.56128726 2.26000787 3.62199671 2.26000787L6.09405354 2.26000787C6.38691487 2.26000787 6.65994044 2.27917576 6.90959053 2.31938158 6.98091913 2.33086895 7.05037768 2.3440928 7.11783263 2.3590531 7.18522079 2.37401341 7.25067213 2.39071017 7.31405306 2.40927698 7.34577692 2.4184936 7.37696649 2.42824451 7.40755497 2.43839615 7.53017604 2.47906948 7.64431515 2.52708938 7.74930444 2.58272302 7.87312767 1.79343335 7.7484362 1.25633169 7.32153321.769854626 6.85148577.234289063 6.00235489.00480866948 4.91592952.00480866948L1.76224379.00480866948C1.54017676.00480866948 1.35116934.166366606 1.31657363.385695364L.0033393538 8.71290837C-.0225072446 8.87720458.104454987 9.02580582.270754806 9.02580582L2.21766486 9.02580582 3.23209376 2.59320859M21.9272657 8.59576384L22.1902732 8.59576384C22.8896674 8.59576384 23.5471862 8.21320747 23.6906448 7.33448991 23.8161377 6.52750167 23.355908 6.07321597 22.6027502 6.07321597L22.4096687 6.07321597C22.3624503 6.07321597 22.3223112 6.10747774 22.3148979 6.15409512L21.9272657 8.59576384zM21.2897162 5.21967714C21.302339 5.13973301 21.3711965 5.0808936 21.4521424 5.0808936L22.9733516 5.0808936C24.2286147 5.0808936 25.1072655 6.06720514 24.9099765 7.33448991 24.7068102 8.60177467 23.5113215 9.58808621 22.2620693 9.58808621L20.7125423 9.58808621C20.6536361 9.58808621 20.6086216 9.535458 20.6178383 9.47721967L21.2897162 5.21967714 21.2897162 5.21967714zM19.3197646 6.21186594L19.2222555 6.82637383 20.4311684 6.82637383C20.4900078 6.82637383 20.5350223 6.87893526 20.5258724 6.9371068L20.4095961 7.67964551C20.397107 7.75972322 20.3281827 7.81869621 20.24717 7.81869621L19.2068277 7.81869621C19.1261489 7.81869621 19.0573582 7.87720169 19.0445351 7.95687867L18.9413491 8.59576384 20.2219245 8.59576384C20.2808307 8.59576384 20.3257784 8.64832527 20.3166953 8.7065636L20.200419 9.44910231C20.1878631 9.52911322 20.1189388 9.58808621 20.0379929 9.58808621L17.7265589 9.58808621C17.6676527 9.58808621 17.6226383 9.535458 17.6318549 9.47721967L18.3037329 5.21967714C18.3163556 5.13973301 18.3852131 5.0808936 18.466159 5.0808936L20.7778601 5.0808936C20.8367663 5.0808936 20.881714 5.13345503 20.8726309 5.19162657L20.7562879 5.93423207C20.7437987 6.01424299 20.6748076 6.07321597 20.5938617 6.07321597L19.4821908 6.07321597C19.4013117 6.07321597 19.3324542 6.1319886 19.3197646 6.21186594M25.9330209 9.58808621L25.0142311 9.58808621C24.9552581 9.58808621 24.9103104 9.535458 24.9194602 9.47721967L25.591405 5.21967714C25.603961 5.13973301 25.6728852 5.0808936 25.7537644 5.0808936L26.672621 5.0808936C26.7315272 5.0808936 26.7765417 5.13352181 26.7673251 5.19176014L26.0954471 9.44930267C26.0828243 9.5292468 26.0139668 9.58808621 25.9330209 9.58808621"/>
    <path fill="#28346A" d="M1.60910102 2.02551844L1.72263905 2.02551844C2.10519542 2.02551844 2.54525547 1.95345519 2.6251996 1.46363877 2.70521052.973621995 2.44995031.903228417 2.04121341.901759101L1.87524752.901759101C1.825224.901759101 1.78261385.93809127 1.77473297.987513707L1.60910102 2.02551844zM3.62019346 4.51226843L2.41615605 4.51226843C2.36493036 4.51226843 2.3182462 4.48288212 2.29613967 4.43673225L1.50150704 2.77874309 1.48955216 2.77874309 1.23235513 4.39999936C1.2221367 4.46464925 1.1663695 4.51226843 1.10091816 4.51226843L.155213165 4.51226843C.0963069637 4.51226843.0512924744 4.45964022.0605090909 4.40140189L.736527875.11741168C.746746297.052695003.802580293.00507581778.868031628.00507581778L2.50565073.00507581778C3.39625639.00507581778 4.0060224.429440899 3.85655292 1.39190945 3.75496978 2.01356356 3.32459386 2.55153345 2.6670751 2.66513827L3.7021412 4.36653903C3.74101128 4.43038748 3.69499498 4.51226843 3.62019346 4.51226843L3.62019346 4.51226843zM14.7267506 4.51226843L13.8079608 4.51226843C13.7489878 4.51226843 13.7040401 4.45957343 13.7132568 4.40140189L14.2515606.997398194 13.3953503.997398194C13.3364441.997398194 13.2914296.944836765 13.3005794.886598435L13.4169225.144059723C13.4294117.0640488059 13.4983359.00507581778 13.5793487.00507581778L16.4347633.00507581778C16.4936695.00507581778 16.538684.0576372466 16.5295342.11580879L16.4132579.858414289C16.4007019.938425206 16.3317776.997398194 16.2508317.997398194L15.4231395.997398194 14.8891768 4.37355168C14.876554 4.45342902 14.8076298 4.51226843 14.7267506 4.51226843" transform="translate(13.691 5.076)"/>
    <path fill="#28346A" d="M13.8116341,6.36173614 C13.7980763,6.44535356 13.6957585,6.47540775 13.636652,6.41476508 C13.43589,6.20906089 13.1412922,6.10039831 12.8241872,6.10039831 C12.1074951,6.10039831 11.5402057,6.6497888 11.4267344,7.34851519 C11.3191404,8.05926326 11.7252726,8.57285587 12.4538529,8.57285587 C12.7542611,8.57285587 13.0729691,8.45858318 13.3377798,8.26757215 C13.4108449,8.21487714 13.5112258,8.27799093 13.4967998,8.36695131 L13.3300993,9.39827734 C13.320148,9.45965467 13.2756678,9.50987855 13.216027,9.52737676 C12.8592504,9.63216568 12.5852898,9.70770187 12.2508869,9.70770187 C10.3080509,9.70770187 9.99735742,8.04797624 10.0974045,7.34250435 C10.3781773,5.36420437 11.9834047,4.91098728 12.9674455,4.9656191 C13.2845505,4.98318411 13.5685959,5.02532675 13.8468309,5.12991531 C13.9367263,5.16370957 13.9902895,5.25641003 13.9749953,5.3511809 L13.8116341,6.36173614"/>
    <path fill="#2890C3" d="M19.7648337,1.51893847 C19.7094004,1.88326197 19.4311655,1.88326197 19.1620136,1.88326197 L19.0089376,1.88326197 L19.1163312,1.20310239 C19.1228096,1.16196155 19.1582735,1.131707 19.1998818,1.131707 L19.2700751,1.131707 C19.453272,1.131707 19.6263173,1.131707 19.7154781,1.23602842 C19.7689077,1.29854112 19.7850702,1.39104122 19.7648337,1.51893847 Z M19.647756,0.568558378 L18.6327928,0.568558378 C18.563401,0.568558378 18.5043612,0.618982621 18.4935417,0.687572948 L18.0831351,3.28993137 C18.0749871,3.34122384 18.1147254,3.38770765 18.1666858,3.38770765 L18.6874246,3.38770765 C18.7359788,3.38770765 18.77732,3.3523105 18.7849337,3.30435738 L18.9012768,2.56656055 C18.9120963,2.49803701 18.9712029,2.44754598 19.0405947,2.44754598 L19.3617069,2.44754598 C20.0302456,2.44754598 20.4160745,2.12402938 20.516923,1.48280666 C20.5623382,1.20236773 20.5187262,0.982037166 20.3874228,0.827759021 C20.243096,0.658186635 19.9873015,0.568558378 19.647756,0.568558378 L19.647756,0.568558378 Z"/>
    <path fill="#28346A" d="M12.5260497 1.51893847C12.4705496 1.88326197 12.1923147 1.88326197 11.9232295 1.88326197L11.7700868 1.88326197 11.8774804 1.20310239C11.8839587 1.16196155 11.9194227 1.131707 11.961031 1.131707L12.0312242 1.131707C12.2144212 1.131707 12.3874665 1.131707 12.476694 1.23602842 12.5300569 1.29854112 12.5462194 1.39104122 12.5260497 1.51893847zM12.4089052.568558378L11.393942.568558378C11.3245502.568558378 11.2655104.618982621 11.2546909.687572948L10.8442843 3.28993137C10.8362031 3.34122384 10.8758746 3.38770765 10.927835 3.38770765L11.412442 3.38770765C11.4818338 3.38770765 11.5409403 3.33721662 11.5517598 3.26862629L11.6624928 2.56656055C11.6733123 2.49803701 11.7323521 2.44754598 11.8017438 2.44754598L12.1229229 2.44754598C12.7913947 2.44754598 13.1772237 2.12402938 13.2780722 1.48280666 13.3234874 1.20236773 13.2799422.982037166 13.1486388.827759021 13.0042452.658186635 12.7484507.568558378 12.4089052.568558378L12.4089052.568558378zM14.7650864 2.45322288C14.7182019 2.73085675 14.4977377 2.91732627 14.2165642 2.91732627 14.0756434 2.91732627 13.9627733 2.87197784 13.8902425 2.78608966 13.8183796 2.70100293 13.7912641 2.57978439 13.8141052 2.44474092 13.8578508 2.16957817 14.0818546 1.9771646 14.3587538 1.9771646 14.4967359 1.9771646 14.6088047 2.02291375 14.6827379 2.10953658 14.7572055 2.19682729 14.7864583 2.31884728 14.7650864 2.45322288zM15.4424409 1.50731752L14.9564314 1.50731752C14.914823 1.50731752 14.8793591 1.53757207 14.8728808 1.5787129L14.8515089 1.7146246 14.8175143 1.66540253C14.7122578 1.5125937 14.4777016 1.46156837 14.2434793 1.46156837 13.706578 1.46156837 13.2478844 1.86843524 13.1586569 2.43906402 13.1121731 2.72377732 13.1781587 2.99580108 13.3395831 3.18567674 13.4878504 3.36019137 13.6994986 3.43278892 13.9516198 3.43278892 14.3844001 3.43278892 14.6244328 3.15475432 14.6244328 3.15475432L14.602727 3.28986458C14.5946458 3.34122384 14.6343173 3.38770765 14.6863445 3.38770765L15.1240002 3.38770765C15.1933919 3.38770765 15.2524317 3.33721662 15.2632512 3.26869308L15.5259916 1.6050938C15.5340728 1.55373454 15.4944013 1.50731752 15.4424409 1.50731752L15.4424409 1.50731752z"/>
    <path fill="#2890C3" d="M22.0039372,2.45322288 C21.9570527,2.73085675 21.7365886,2.91732627 21.455415,2.91732627 C21.3144275,2.91732627 21.2016241,2.87197784 21.1290933,2.78608966 C21.0571636,2.70100293 21.0301149,2.57978439 21.0529561,2.44474092 C21.0967016,2.16957817 21.3206387,1.9771646 21.5975379,1.9771646 C21.7355868,1.9771646 21.8476555,2.02291375 21.9215888,2.10953658 C21.9959896,2.19682729 22.0253091,2.31884728 22.0039372,2.45322288 Z M22.681225,1.50731752 L22.1952822,1.50731752 C22.1536071,1.50731752 22.1181431,1.53757207 22.1117316,1.5787129 L22.0902929,1.7146246 L22.0563651,1.66540253 C21.9511086,1.5125937 21.7165524,1.46156837 21.4823302,1.46156837 C20.9454289,1.46156837 20.4867352,1.86843524 20.3974409,2.43906402 C20.3510239,2.72377732 20.4169427,2.99580108 20.5783671,3.18567674 C20.7267012,3.36019137 20.9383494,3.43278892 21.1904706,3.43278892 C21.6232509,3.43278892 21.8632836,3.15475432 21.8632836,3.15475432 L21.8415778,3.28986458 C21.8334298,3.34122384 21.8731681,3.38770765 21.9251285,3.38770765 L22.3627842,3.38770765 C22.432176,3.38770765 22.4912825,3.33721662 22.502102,3.26869308 L22.7648424,1.6050938 C22.7729236,1.55373454 22.7332521,1.50731752 22.681225,1.50731752 L22.681225,1.50731752 Z"/>
    <path fill="#28346A" d="M18.0308409,1.50731752 L17.5423602,1.50731752 C17.4956092,1.50731752 17.4519305,1.53049263 17.4256832,1.56916235 L16.7518684,2.56155152 L16.4662868,1.60789886 C16.4484547,1.548258 16.3934889,1.50731752 16.3311766,1.50731752 L15.8510443,1.50731752 C15.7930731,1.50731752 15.7522662,1.56435368 15.7709666,1.61925266 L16.3088029,3.19796556 L15.8028908,3.91178583 C15.7632193,3.96782019 15.8032915,4.0452932 15.8719486,4.0452932 L16.3599618,4.0452932 C16.4061784,4.0452932 16.4495233,4.02265238 16.4758374,3.98465053 L18.1003662,1.64015701 C18.1392363,1.58405587 18.0990973,1.50731752 18.0308409,1.50731752"/>
    <path fill="#2890C3" d="M23.2540577,0.639953763 L22.8375067,3.28993137 C22.8294255,3.34129063 22.869097,3.38770765 22.9210574,3.38770765 L23.3400127,3.38770765 C23.4094045,3.38770765 23.468511,3.33721662 23.4793305,3.26869308 L23.8900043,0.666334658 C23.8981523,0.614975396 23.858414,0.568558378 23.8064536,0.568558378 L23.3376083,0.568558378 C23.296,0.568558378 23.2605361,0.598812924 23.2540577,0.639953763"/>
  </g>
</svg>
