<svg xmlns="http://www.w3.org/2000/svg" width="80" height="80" viewBox="0 0 80 80">
  <g fill="none" fill-rule="evenodd" transform="translate(10 10)">
    <path fill="#8DDFF8" d="M59.3188367,53.9313995 C60.8770378,53.9313995 62.141588,55.1764952 62.1429108,56.7146311 C62.1429108,58.2501623 60.8783605,59.4952579 59.317514,59.4952579 L59.317514,59.4952579 L2.82545048,59.4952579 C1.26460392,59.4952579 5.36582772e-05,58.2501623 5.36582772e-05,56.7146311 C5.36582772e-05,55.1764952 1.26460392,53.9313995 2.82545048,53.9313995 L2.82545048,53.9313995 Z M29.9153976,0.244200244 C30.6534928,-0.0814000814 31.4960854,-0.0814000814 32.2328579,0.244200244 L32.2328579,0.244200244 L60.2619584,12.6625967 C61.3717468,13.0376882 62.1706886,14.0730973 62.1706886,15.2947497 C62.1706886,16.8315832 60.9074611,18.0766789 59.3452918,18.0766789 L59.3452918,18.0766789 L2.82545048,18.0766789 C1.4934399,18.0766789 0.342646251,17.1610908 0.0635457218,15.8795279 C-0.216877559,14.597965 0.451111859,13.2981685 1.66672032,12.7589744 L1.66672032,12.7589744 Z"/>
    <path fill="#005B76" d="M6.35587376,45.0095634 C4.7950272,45.0095634 3.53047694,46.2546591 3.53047694,47.7914926 C3.53047694,49.3283261 4.7950272,50.5747242 6.35587376,50.5747242 L55.7870907,50.5747242 C57.3479373,50.5747242 58.6124875,49.3283261 58.6124875,47.7914926 C58.6124875,46.2546591 57.3479373,45.0095634 55.7870907,45.0095634 L55.0820642,45.0095634 L55.0820642,19.9774104 L55.7870907,19.9774104 C56.5688367,19.9774104 57.1984664,19.3548626 57.1984664,18.5877482 C57.1984664,17.8206338 56.5661912,17.198086 55.7870907,17.198086 L6.35587376,17.198086 C5.57545048,17.198086 4.9444981,17.8206338 4.9444981,18.5877482 C4.9444981,19.3548626 5.57677323,19.9774104 6.35587376,19.9774104 L7.06222297,19.9774104 L7.06222297,45.008261 L6.35587376,45.008261 L6.35587376,45.0095634 Z M49.4312706,19.9774104 L49.4312706,45.008261 L40.9577256,45.008261 L40.9577256,19.9774104 L49.4312706,19.9774104 Z M35.306932,19.9774104 L35.306932,45.008261 L26.833387,45.008261 L26.833387,19.9774104 L35.306932,19.9774104 Z M12.7103711,19.9774104 L21.1839161,19.9774104 L21.1839161,45.008261 L12.7103711,45.008261 L12.7103711,19.9774104 Z"/>
  </g>
</svg>
