<svg xmlns="http://www.w3.org/2000/svg" width="80" height="80" viewBox="0 0 80 80">
  <g fill="none" fill-rule="evenodd">
    <circle cx="40" cy="40" r="40" fill="#8DDFF8"/>
    <path fill="#005B76" d="M62.3055556,59.8257576 C63.4101251,59.8257576 64.3055556,60.7211881 64.3055556,61.8257576 L64.3055556,63.3939394 C64.3055556,64.4985089 63.4101251,65.3939394 62.3055556,65.3939394 L17.6944444,65.3939394 C16.5898749,65.3939394 15.6944444,64.4985089 15.6944444,63.3939394 L15.6944444,61.8257576 C15.6944444,60.7211881 16.5898749,59.8257576 17.6944444,59.8257576 L62.3055556,59.8257576 Z M26.6574074,35.6439394 C27.7619769,35.6439394 28.6574074,36.5393699 28.6574074,37.6439394 L28.6574074,54.3257576 C28.6574074,55.4303271 27.7619769,56.3257576 26.6574074,56.3257576 L24.1759259,56.3257576 C23.0713564,56.3257576 22.1759259,55.4303271 22.1759259,54.3257576 L22.1759259,37.6439394 C22.1759259,36.5393699 23.0713564,35.6439394 24.1759259,35.6439394 L26.6574074,35.6439394 Z M41.2407407,35.6439394 C42.3453102,35.6439394 43.2407407,36.5393699 43.2407407,37.6439394 L43.2407407,54.3257576 C43.2407407,55.4303271 42.3453102,56.3257576 41.2407407,56.3257576 L38.7592593,56.3257576 C37.6546898,56.3257576 36.7592593,55.4303271 36.7592593,54.3257576 L36.7592593,37.6439394 C36.7592593,36.5393699 37.6546898,35.6439394 38.7592593,35.6439394 L41.2407407,35.6439394 Z M55.8240741,35.6439394 C56.9286436,35.6439394 57.8240741,36.5393699 57.8240741,37.6439394 L57.8240741,54.3257576 C57.8240741,55.4303271 56.9286436,56.3257576 55.8240741,56.3257576 L53.3425926,56.3257576 C52.2380231,56.3257576 51.3425926,55.4303271 51.3425926,54.3257576 L51.3425926,37.6439394 C51.3425926,36.5393699 52.2380231,35.6439394 53.3425926,35.6439394 L55.8240741,35.6439394 Z M40.9796192,16.3079437 L65.5017579,30.084927 C66.0314058,30.3824929 66.2195455,31.0530821 65.9219797,31.58273 C65.7272292,31.9293733 65.3605719,32.1439394 64.9629674,32.1439394 L15.0370326,32.1439394 C14.4295194,32.1439394 13.9370326,31.6514526 13.9370326,31.0439394 C13.9370326,30.6463348 14.1515987,30.2796776 14.4982421,30.084927 L39.0203808,16.3079437 C39.6287417,15.9661554 40.3712583,15.9661554 40.9796192,16.3079437 Z"/>
  </g>
</svg>
