<svg xmlns="http://www.w3.org/2000/svg" width="80" height="80" viewBox="0 0 80 80">
  <g fill="none" fill-rule="evenodd">
    <path fill="#005B76" d="M37.180798,55.816636 C39.3409518,58.0183161 40.5719547,58.1035223 42.8191656,55.816636 L59.3380368,38.5593621 C60.8889946,35.8962 59.6199551,33.7187758 56.5196665,33.7187758 L49.0919512,33.7187758 L49.0919512,6.20636869 C49.092358,4.16058917 47.4630895,2.5 45.4558957,2.5 C44.1177665,2.5 40.4812364,2.5 34.5463053,2.5 C32.5389082,2.5 30.909843,4.16058917 30.909843,6.20636869 L30.909843,33.7187758 L23.480297,33.7187758 C20.3802119,33.7187758 19.110969,35.8980659 20.6619269,38.5593621 L37.180798,55.816636 Z"/>
    <path fill="#8DDFF8" d="M69.1666667,41.6666667 C71.8653308,41.6666667 74.0646431,43.8046457 74.1632179,46.4792181 L74.1666667,46.6666667 L74.1666667,71.6666667 C74.1666667,74.3653308 72.0286876,76.5646431 69.3541152,76.6632179 L69.1666667,76.6666667 L10,76.6666667 C7.30133588,76.6666667 5.10202353,74.5286876 5.00344873,71.8541152 L5,71.6666667 L5,46.6666667 C5,43.9052429 7.23857625,41.6666667 10,41.6666667 C12.6986641,41.6666667 14.8979765,43.8046457 14.9965513,46.4792181 L15,46.6666667 L15,66.6666667 L64.1666667,66.6666667 L64.1666667,46.6666667 C64.1666667,43.9680025 66.3046457,41.7686902 68.9792181,41.6701154 L69.1666667,41.6666667 Z"/>
  </g>
</svg>
