<svg xmlns="http://www.w3.org/2000/svg" width="80" height="80" viewBox="0 0 80 80">
  <g fill="none" fill-rule="evenodd">
    <path fill="#005B76" d="M77.7981752,40.4920067 C79.2294479,40.7014612 80.2069024,42.0629158 79.9625388,43.4941885 C77.8679933,56.7945521 69.6294479,67.9654612 58.1792661,74.039643 C52.6985388,76.9370976 45.7865388,79.031643 37.9319933,78.8570976 C37.3036297,78.8570976 37.024357,78.0890976 37.4432661,77.6352794 L49.5916297,65.4520067 L54.2345388,70.0949158 C65.0214479,64.9981885 72.8759933,54.839643 74.7959933,42.6563703 C75.0054479,41.2250976 76.3319933,40.247643 77.7981752,40.4920067 Z M44.160569,1.67682161 C44.7889326,1.67682161 45.0682054,2.44482161 44.6492963,2.89863979 L32.5009326,15.0470034 L27.8580235,10.4040943 C17.0711144,15.5008216 9.21656899,25.6593671 7.29656899,37.8426398 C7.08711445,39.2739125 5.76056899,40.2513671 4.29438717,40.0070034 C2.86311445,39.7975489 1.8856599,38.4360943 2.13002354,37.0048216 C4.22456899,23.7393671 12.4631144,12.568458 23.9132963,6.49427616 C29.3940235,3.59682161 36.3060235,1.50227616 44.160569,1.67682161 Z"/>
    <path fill="#8DDFF8" d="M25.6865188,57.1713673 C16.314414,57.1713673 8.71682185,49.5737752 8.71682185,40.2016703 C8.71682185,30.8295655 16.314414,23.2319734 25.6865188,23.2319734 C33.3737263,23.2319734 39.8671049,28.343362 41.9533857,35.3528701 L72.5047006,35.3531855 C73.4251752,35.3531855 74.1713673,36.0993776 74.1713673,37.0198522 L74.1713673,43.3834885 C74.1713673,44.3039631 73.4251752,45.0501552 72.5047006,45.0501552 L66.8978219,45.0499734 L66.89864,51.0728825 C66.89864,51.7632384 66.338996,52.3228825 65.64864,52.3228825 L60.8759128,52.3228825 C60.1855568,52.3228825 59.6259128,51.7632384 59.6259128,51.0728825 L59.6258219,45.0499734 L41.9533857,45.0504706 C39.8671049,52.0599787 33.3737263,57.1713673 25.6865188,57.1713673 Z M25.6865188,31.7168219 C21.0004664,31.7168219 17.2016703,35.5156179 17.2016703,40.2016703 C17.2016703,44.8877228 21.0004664,48.6865188 25.6865188,48.6865188 C30.3725712,48.6865188 34.1713673,44.8877228 34.1713673,40.2016703 C34.1713673,35.5156179 30.3725712,31.7168219 25.6865188,31.7168219 Z" transform="scale(-1 1) rotate(45 0 -59.853)"/>
  </g>
</svg>
