<svg xmlns="http://www.w3.org/2000/svg" width="80" height="80" viewBox="0 0 80 80">
  <g fill="none" fill-rule="evenodd">
    <g fill-rule="nonzero" transform="translate(.833 .833)">
      <path fill="#8DDFF8" stroke="#8DDFF8" stroke-width="3" d="M72.5,9.83333333 L5.83333333,9.83333333 C4.63671638,9.83333333 3.55338304,10.3183582 2.76920395,11.1025373 C1.98502485,11.8867164 1.5,12.9700497 1.5,14.1666667 L1.5,72.5 C1.5,73.696617 1.98502485,74.7799503 2.76920395,75.5641294 C3.55338304,76.3483085 4.63671638,76.8333333 5.83333333,76.8333333 L43.333361,76.8333333 C45.9201615,76.8333214 48.2611372,75.7799099 49.9500787,74.0460413 C51.6352438,72.3160495 52.6684705,69.9124615 52.6701918,67.1759723 C52.755347,63.2619031 54.3819745,59.5108696 57.1474779,56.8051632 C59.719375,54.2888768 63.274118,52.6666667 67.5,52.6666667 C70.0773408,52.6666667 72.410685,51.6219926 74.0996889,49.9329826 C75.7886887,48.2439767 76.8333508,45.910638 76.833334,43.3333034 L76.833334,14.1666667 C76.833334,12.9700498 76.348309,11.8867165 75.5641298,11.1025374 C74.7799506,10.3183583 73.6966171,9.83333333 72.5,9.83333333 Z"/>
      <path fill="#005B76" stroke="#005B76" stroke-width="3" d="M71.3333333,9.83333333 L7,9.83333333 C5.48121694,9.83333333 4.10621694,10.4489418 3.1109127,11.444246 C2.11560847,12.4395503 1.5,13.8145503 1.5,15.3333333 L1.5,25.9993333 L76.8330411,25.9993333 L76.8333333,15.3332922 C76.8333333,13.8145503 76.2177249,12.4395503 75.2224206,11.444246 C74.2271164,10.4489418 72.8521164,9.83333333 71.3333333,9.83333333 Z"/>
      <g fill="#005B76" stroke="#005B76" stroke-width="3" transform="translate(10.833 37.5)">
        <rect width="8.667" height="8.667" x="1.5" y="1.5" rx="3"/>
        <rect width="8.667" height="8.667" x="31.5" y="1.5" rx="3"/>
        <rect width="8.667" height="8.667" x="16.5" y="1.5" rx="3"/>
        <rect width="8.667" height="8.667" x="46.5" y="1.5" rx="3"/>
      </g>
      <rect width="8.333" height="16.667" x="58.333" y=".833" fill="#005B76" rx="4.167"/>
      <rect width="8.333" height="16.667" x="12.5" y=".833" fill="#005B76" rx="4.167"/>
    </g>
    <g transform="translate(57.5 57.5)">
      <circle cx="10.833" cy="10.833" r="10.833" fill="#005B76"/>
      <g fill="#8DDFF8" transform="translate(9.167 3.333)">
        <path d="M1.66666667,5 C2.58714125,5 3.33333333,5.74619208 3.33333333,6.66666667 L3.33333333,13.3333333 C3.33333333,14.2538079 2.58714125,15 1.66666667,15 C0.746192084,15 1.10656099e-12,14.2538079 1.10578213e-12,13.3333333 L1.10578213e-12,6.66666667 C1.10566941e-12,5.74619208 0.746192084,5 1.66666667,5 Z"/>
        <rect width="3.333" height="3.333" rx="1.667"/>
      </g>
    </g>
  </g>
</svg>
