<svg xmlns="http://www.w3.org/2000/svg" width="80" height="80" viewBox="0 0 80 80">
  <g fill="none" fill-rule="evenodd" transform="translate(.833 1.667)">
    <rect width="78.333" height="70" y="7.5" fill="#8DDFF8" rx="7"/>
    <path fill="#005B76" d="M47.5704733,37.2208814 L56.3424031,49.8164729 C57.2947841,51.1839943 57.2947841,53.0643362 56.3424031,54.4318576 L47.5704733,67.0274491 C46.387006,68.7267868 44.1484297,69.0711831 42.5704733,67.7966799 C40.9925169,66.5221766 40.6727203,64.1114022 41.8561876,62.4120645 L49.0209746,52.1241652 L41.8561876,41.836266 C40.6727203,40.1369283 40.9925169,37.7261539 42.5704733,36.4516506 C44.1484297,35.1771474 46.387006,35.5215437 47.5704733,37.2208814 Z M27.6694387,37.2208814 L36.4413685,49.8164729 C37.3937495,51.1839943 37.3937495,53.0643362 36.4413685,54.4318576 L27.6694387,67.0274491 C26.4859714,68.7267868 24.2473951,69.0711831 22.6694387,67.7966799 C21.0914823,66.5221766 20.7716856,64.1114022 21.955153,62.4120645 L29.1199399,52.1241652 L21.955153,41.836266 C20.7716856,40.1369283 21.0914823,37.7261539 22.6694387,36.4516506 C24.2473951,35.1771474 26.4859714,35.5215437 27.6694387,37.2208814 Z M62.5,0 C64.8011865,-4.22721094e-16 66.6666667,1.86548021 66.6666667,4.16666667 L66.666,7.5 L71.3333333,7.5 C75.1993266,7.5 78.3333333,10.6340068 78.3333333,14.5 L78.333,26.666 L-7.81597009e-14,26.666 L-7.81597009e-14,14.5 C-7.9521327e-14,10.6340068 3.13400675,7.5 7,7.5 L12.5,7.5 L12.5,4.16666667 C12.5,1.86548021 14.3654802,4.22721094e-16 16.6666667,0 C18.9678531,-4.22721094e-16 20.8333333,1.86548021 20.8333333,4.16666667 L20.833,7.5 L58.333,7.5 L58.3333333,4.16666667 C58.3333333,1.86548021 60.1988135,4.22721094e-16 62.5,0 Z"/>
  </g>
</svg>
