<svg xmlns="http://www.w3.org/2000/svg" width="80" height="80" viewBox="0 0 80 80">
  <g fill="none" fill-rule="evenodd" transform="translate(7.5 2.5)">
    <g transform="translate(0 3.333)">
      <rect width="57.5" height="65.833" x="8.333" y="5" fill="#005B76" rx="4"/>
      <rect width="57.5" height="65.833" fill="#8DDFF8" rx="4"/>
      <rect width="46.009" height="3.213" x="5.833" y="27.5" fill="#005B76" rx="1.606"/>
      <rect width="46.009" height="3.213" x="5.833" y="20" fill="#005B76" rx="1.606"/>
      <rect width="46.009" height="3.213" x="5.833" y="34.167" fill="#005B76" rx="1.606"/>
      <rect width="46.009" height="3.213" x="5.833" y="41.667" fill="#005B76" rx="1.606"/>
    </g>
    <path fill="#005B76" fill-rule="nonzero" d="M14.2130286,3.33333333 C14.9015138,2.46259722 15.914881,2.02722916 17.2531302,2.02722916 C19.4916425,2.02722916 21.3065989,3.84218564 21.3065989,6.08069794 L21.3065989,14.6943191 C21.3065989,16.0936367 20.1720038,17.2277371 18.773181,17.2277371 C17.3738634,17.2277371 16.239763,16.0936367 16.239763,14.6943191 L16.239763,7.09406513 C16.239763,6.53443715 16.6935022,6.08069794 17.2531302,6.08069794 C17.8127583,6.08069794 18.2664974,6.53443715 18.2664974,7.09406513 L18.2664974,15.2010027 L20.2932318,15.2010027 L20.2932318,7.09406513 C20.2932318,5.41518094 18.9320144,4.05396355 17.2531302,4.05396355 C15.5737512,4.05396355 14.2130286,5.41518094 14.2130286,7.09406513 L14.2130286,14.6943191 C14.2130286,17.2128929 16.2546073,19.2544714 18.773181,19.2544714 C21.2917548,19.2544714 23.3333333,17.2128929 23.3333333,14.6943191 C23.3333333,9.54875595 23.3333333,6.6775489 23.3333333,6.08069794 C23.3333333,5.18542149 23.3333333,0 17.2531302,0 C13.8016287,0 12.3118074,1.72473451 11.6666667,3.33333333 C12.2222222,3.33333333 13.0710095,3.33333333 14.2130286,3.33333333 Z" transform="matrix(-1 0 0 1 35 0)"/>
  </g>
</svg>
