<svg xmlns="http://www.w3.org/2000/svg" width="80" height="80" viewBox="0 0 80 80">
  <g fill="none" fill-rule="evenodd">
    <g transform="translate(5 1)">
      <g transform="translate(0 3.444)">
        <rect width="60.118" height="68.015" x="8.713" y="5.166" fill="#005B76" rx="2.34"/>
        <rect width="60.118" height="68.015" fill="#8DDFF8" rx="2.34"/>
        <rect width="48.104" height="3.319" x="6.099" y="43.047" fill="#005B76" rx="1.66"/>
        <rect width="48.104" height="3.319" x="6.099" y="35.299" fill="#005B76" rx="1.66"/>
        <rect width="48.104" height="3.319" x="6.099" y="49.935" fill="#005B76" rx="1.66"/>
        <rect width="48.104" height="3.319" x="6.099" y="57.683" fill="#005B76" rx="1.66"/>
      </g>
      <path fill="#00837A" fill-rule="nonzero" d="M6.14740904,3.44377358 C6.86724233,2.54418818 7.92675007,2.09439547 9.32593227,2.09439547 C11.6663683,2.09439547 13.5639632,3.96948522 13.5639632,6.28216408 L13.5639632,15.1811724 C13.5639632,16.6268523 12.3777078,17.7985277 10.9151939,17.7985277 C9.45216269,17.7985277 8.26642453,16.6268523 8.26642453,15.1811724 L8.26642453,7.32910623 C8.26642453,6.75093662 8.74082336,6.28216408 9.32593227,6.28216408 C9.91104132,6.28216408 10.38544,6.75093662 10.38544,7.32910623 L10.38544,15.7046434 L12.5044555,15.7046434 L12.5044555,7.32910623 C12.5044555,5.59459712 11.0812593,4.18827978 9.32593227,4.18827978 C7.57008796,4.18827978 6.14740904,5.59459712 6.14740904,7.32910623 L6.14740904,15.1811724 C6.14740904,17.7831917 8.28194473,19.8924121 10.9151939,19.8924121 C13.5484432,19.8924121 15.6829787,17.7831917 15.6829787,15.1811724 C15.6829787,9.86512605 15.6829787,6.89878996 15.6829787,6.28216408 C15.6829787,5.35722527 15.6829787,-4.58802807e-15 9.32593227,-4.58802807e-15 C5.71727728,-4.58802807e-15 4.15962163,1.78187854 3.48510638,3.44377358 C4.06595745,3.44377358 4.95339167,3.44377358 6.14740904,3.44377358 Z" transform="matrix(-1 0 0 1 19.168 0)"/>
    </g>
    <g fill-rule="nonzero" transform="translate(41.594 11.331)">
      <path fill="#FFF" d="M15.2291889,16.3048282 L11.1764673,14.8485577 L8.270262,15.8058617 L5.36405674,14.8485577 L1.31133509,16.3048862 C0.545661329,16.5800162 0.0359551107,17.2990519 0.0359551107,18.1040984 L0.0359551107,21.0707729 C0.0359551107,21.3350646 0.252800207,21.5493959 0.520322654,21.5493959 L16.0202013,21.5493959 C16.2877238,21.5493959 16.5045689,21.3350646 16.5045689,21.0707729 L16.5045689,18.1040984 C16.5045689,17.298994 15.9949213,16.5799582 15.2291889,16.3048282 Z"/>
      <path fill="#FFF" d="M15.9831905,16.7996217 C16.3102471,17.1465046 16.5045689,17.6084935 16.5045689,18.1040404 L16.5045689,21.0707149 C16.5045689,21.3350646 16.2877238,21.549338 16.0202013,21.549338 L13.5983636,21.549338 L13.5983636,19.9492139 C13.5983636,19.4414377 13.8024807,18.9544686 14.1658444,18.5954723 L15.9831905,16.7996217 Z"/>
      <path fill="#464646" d="M13.5983636,4.97801559 L13.5983636,0.968432076 C13.5983636,0.439732728 13.1646148,0.0111860309 12.6296285,0.0111860309 L6.81715937,0.0111860309 C4.67709711,0.0111860309 2.94216037,1.72548874 2.94216037,3.84022817 L2.94216037,4.97801559 C2.94216037,5.4924571 3.02609473,6.003537 3.19073746,6.49154933 L3.35197825,6.96953481 C3.4013652,7.11593851 3.42652791,7.2692393 3.42652791,7.42358334 L3.42652791,7.66921235 L13.1139374,7.66921235 L13.1139374,7.42358334 C13.1139374,7.2692393 13.1391001,7.11593851 13.1884871,6.96953481 L13.3497279,6.49154933 C13.5144293,6.00347904 13.5983636,5.49239914 13.5983636,4.97801559 Z"/>
      <rect width="5.813" height="4.307" x="5.364" y="11.498" fill="#F0D0B4"/>
      <path fill="#005B76" d="M3.92984081 1.77985401L2.38500279 3.3063705C2.17736643 3.51154433 1.83417988 3.4884188 1.65669185 3.25727947L.0549004626 1.17169327.473868416.299240817C.597511766.0417882295.91999333-.0525685495 1.1655204.0969649209L3.92984081 1.77985401zM3.92984081 1.77985401L5.47467883 3.3063705C5.68231519 3.51154433 6.02550174 3.4884188 6.20298977 3.25727947L7.80478115 1.17169327 7.3858132.299240817C7.26216985.0417882295 6.93968829-.0525685495 6.69416122.0969649209L3.92984081 1.77985401z" transform="translate(4.34 14.026)"/>
      <path fill="#F0D0B4" d="M8.270262,12.9341236 L8.270262,12.9341236 C5.59515484,12.9341236 3.42652791,10.7912162 3.42652791,8.14783537 L3.42652791,7.58708486 C3.42652791,7.33322571 3.52858647,7.08974117 3.71023896,6.91018509 L4.1114933,6.51368956 C4.29314579,6.33419144 4.39520435,6.0907069 4.39520435,5.83678979 L4.39520435,4.68943918 C4.39520435,4.46780508 4.54582869,4.27526624 4.76408149,4.22432054 C5.90965942,3.95695701 9.47449426,3.32364219 11.9004964,5.08674613 C12.058042,5.20121458 12.1451437,5.3892906 12.1451437,5.58252493 L12.1451437,5.83678979 C12.1451437,6.09064894 12.2472022,6.33413348 12.4288547,6.51368956 L12.8301091,6.91018509 C13.0117616,7.08968321 13.1138201,7.33316775 13.1138201,7.58708486 L13.1138201,8.14783537 C13.1139961,10.7912162 10.9453692,12.9341236 8.270262,12.9341236 Z"/>
      <path fill="#FFF" d="M0.557333543,16.7996217 C0.230276941,17.1465046 0.0359551107,17.6084935 0.0359551107,18.1040404 L0.0359551107,21.0707149 C0.0359551107,21.3350646 0.252800207,21.549338 0.520322654,21.549338 L2.94216037,21.549338 L2.94216037,19.9492139 C2.94216037,19.4414377 2.73804327,18.9544686 2.37467963,18.5954723 L0.557333543,16.7996217 Z"/>
    </g>
  </g>
</svg>
