<svg xmlns="http://www.w3.org/2000/svg" width="80" height="80" viewBox="0 0 80 80">
  <g fill="none" fill-rule="evenodd" transform="translate(3.333 5.833)">
    <path fill="#005B76" fill-rule="nonzero" stroke="#005B76" stroke-width="2" d="M23.7177503,6.79751715 C23.7177503,3.44727023 26.4434568,0.721865569 29.7937037,0.721865569 L42.5740741,0.721865569 C45.9241701,0.721865569 48.6498765,3.44742112 48.6498765,6.79751715 L48.6498765,10.108834 L44.861893,10.108834 L44.861893,6.79751715 C44.861893,5.53591221 43.835679,4.50969822 42.5740741,4.50969822 L29.7935528,4.50969822 C28.5319479,4.50969822 27.5057339,5.53591221 27.5057339,6.79751715 L27.5057339,10.108834 L23.7177503,10.108834 L23.7177503,6.79751715 Z"/>
    <path fill="#8DDFF8" stroke="#8DDFF8" stroke-width="3" d="M8.75,11.6666667 L8.75,67.4996667 L7,67.5 C3.13400675,67.5 3.01896098e-15,64.3659932 0,60.5 L0,18.6666667 C-1.36162605e-15,14.8006734 3.13400675,11.6666667 7,11.6666667 L8.75,11.6666667 Z M55.416,11.6666667 L55.416,67.4996667 L16.916,67.4996667 L16.916,11.6666667 L55.416,11.6666667 Z M66.3333333,11.6666667 C70.1993266,11.6666667 73.3333333,14.8006734 73.3333333,18.6666667 L73.3333333,60.5 C73.3333333,64.3659932 70.1993266,67.5 66.3333333,67.5 L62.916,67.4996667 L62.916,11.6666667 L66.3333333,11.6666667 Z"/>
    <path fill="#005B76" fill-rule="nonzero" d="M51.1946639 49.7104115L49.2516324 45.1032373C48.7653086 43.9498217 47.6419204 43.2045679 46.3901235 43.2045679 45.9748697 43.2045679 45.569273 43.2868038 45.1843484 43.4491632L34.8211111 47.820192C33.2438409 48.4854733 32.5016049 50.3100549 33.167037 51.8873251L35.1102195 56.4944993C35.5965432 57.647915 36.7199314 58.3931687 37.9715775 58.3931687L37.9717284 58.3931687C38.3868313 58.3931687 38.7925789 58.3109328 39.1773525 58.1485734L49.5405898 53.7775446C51.1178601 53.1122634 51.8599451 51.2876818 51.1946639 49.7104115zM49.1431413 23.3837449C47.774856 22.397668 45.9747188 21.8546091 44.0745405 21.8546091 42.1743621 21.8546091 40.3743759 22.397668 39.0059396 23.3837449 37.5252401 24.4508505 36.7096708 25.9054458 36.7096708 27.4793964 36.7096708 29.0533471 37.5250892 30.5080933 39.0059396 31.5751989 40.374225 32.5612757 42.1743621 33.1043347 44.0745405 33.1043347 45.9747188 33.1043347 47.7747051 32.5612757 49.1431413 31.5751989 50.6238409 30.5080933 51.4394102 29.0534979 51.4394102 27.4793964 51.4394102 25.9052949 50.6238409 24.4508505 49.1431413 23.3837449zM35.4121536 39.3145816L32.0219204 31.6826337C31.5030041 30.5141289 30.3901783 29.7080658 29.1181619 29.5789026 27.9209877 29.4574348 26.6836763 29.2280796 25.4800137 29.2280796 24.3481756 29.2280796 23.2721674 29.7727984 22.6017558 30.6852401L20.6516324 33.3398765C19.8946091 34.3701646 19.7468861 35.7363374 20.2659534 36.9046914L23.6561866 44.5366392C24.2289712 45.8258573 25.5107956 46.6590809 26.9217833 46.6590809 27.4227435 46.6590809 27.9101235 46.5552675 28.3706447 46.3509602L33.5976818 44.0290398C34.4696845 43.6415501 35.1385871 42.9379424 35.4814129 42.0475309 35.8242387 41.1572702 35.7996433 40.1865844 35.4121536 39.3145816z"/>
    <path fill="#005B76" fill-rule="nonzero" stroke="#005B76" stroke-width="3" d="M15.5730727 67.2916891C15.5730727 67.8013824 15.2076132 68.2160219 14.7587106 68.2160219L11.0844993 68.2160219C10.6354458 68.2160219 10.2701371 67.8013824 10.2701371 67.2916891L10.2701371 10.8070215C10.2699863 10.2973282 10.6354458 9.88268861 11.0844993 9.88268861L14.7587106 9.88268861C15.2077641 9.88268861 15.5730727 10.2973282 15.5730727 10.8070215L15.5730727 67.2916891zM61.7145816 67.2916891C61.7145816 67.8013824 61.3699993 68.2160219 60.9467407 68.2160219L57.4824225 68.2160219C57.0590216 68.2160219 56.7145816 67.8013824 56.7145816 67.2916891L56.7145816 10.8070215C56.7144393 10.2973282 57.0590216 9.88268861 57.4824225 9.88268861L60.9467407 9.88268861C61.3701416 9.88268861 61.7145816 10.2973282 61.7145816 10.8070215L61.7145816 67.2916891z"/>
  </g>
</svg>
