<svg xmlns="http://www.w3.org/2000/svg" width="80" height="80" viewBox="0 0 80 80">
  <g fill="none" transform="translate(9.44 .667)">
    <path fill="#8B0F04" d="M54.7318805,59.2319476 L40.3161509,53.9713566 L29.9786364,57.4294948 L19.6411218,53.9713566 L5.22539227,59.2321569 C2.50185318,60.2260288 0.688803182,62.8234535 0.688803182,65.7315808 L0.688803182,76.4483128 C0.688803182,77.4030328 1.46013182,78.1772773 2.41172227,78.1772773 L57.5455505,78.1772773 C58.4971409,78.1772773 59.2684695,77.4030328 59.2684695,76.4483128 L59.2684695,65.7315808 C59.2684695,62.8232441 57.4556282,60.2258195 54.7318805,59.2319476 Z"/>
    <path fill="#DF2323" d="M57.4139009,61.0193258 C58.5772573,62.2723958 59.2684695,63.9412715 59.2684695,65.7313715 L59.2684695,76.4481035 C59.2684695,77.4030328 58.4971409,78.1770679 57.5455505,78.1770679 L48.930955,78.1770679 L48.930955,72.3968245 C48.930955,70.5625478 49.6570095,68.8034343 50.9495118,67.5066063 L57.4139009,61.0193258 Z"/>
    <path fill="#464646" d="M48.930955,18.3152864 L48.930955,3.83117905 C48.930955,1.92132032 47.3880891,0.373250211 45.4851168,0.373250211 L24.8098791,0.373250211 C17.1975727,0.373250211 11.0263177,6.56594937 11.0263177,14.2051749 L11.0263177,18.3152864 C11.0263177,20.1736405 11.3248764,22.0198513 11.9105186,23.7827334 L12.48406,25.5093947 C12.6597318,26.0382594 12.7492368,26.5920388 12.7492368,27.1495869 L12.7492368,28.0368903 L47.2078273,28.0368903 L47.2078273,27.1495869 C47.2078273,26.5920388 47.2973323,26.0382594 47.4730041,25.5093947 L48.0465455,23.7827334 C48.6323964,22.0196419 48.930955,20.1734312 48.930955,18.3152864 Z"/>
    <rect width="20.676" height="15.56" x="19.641" y="41.869" fill="#F0D0B4"/>
    <path fill="#DF2323" d="M29.9786364 57.4294948L24.4835718 62.9438403C23.7449991 63.6850045 22.5242677 63.6014665 21.8929341 62.7665053L16.1952836 55.232592 17.6855732 52.0809692C18.1253786 51.1509546 19.2724614 50.8101028 20.1458132 51.3502734L29.9786364 57.4294948zM29.9786364 57.4294948L35.4737009 62.9438403C36.2122736 63.6850045 37.433005 63.6014665 38.0643386 62.7665053L43.7619891 55.232592 42.2716995 52.0809692C41.8318941 51.1509546 40.6848114 50.8101028 39.8114595 51.3502734L29.9786364 57.4294948z"/>
    <path fill="#F0D0B4" d="M29.9786364,47.0557083 L29.9786364,47.0557083 C20.4631491,47.0557083 12.7492368,39.3147297 12.7492368,29.7658547 L12.7492368,27.7402153 C12.7492368,26.8231816 13.1122641,25.9436248 13.7584109,25.2950015 L15.1856923,23.8627121 C15.8318391,23.2142981 16.1948664,22.3347414 16.1948664,21.4174983 L16.1948664,17.2728411 C16.1948664,16.4722162 16.7306445,15.7766943 17.5069805,15.5926595 C21.5818573,14.6268429 34.2621495,12.3390742 42.8915582,18.7080616 C43.4519555,19.1215642 43.7617805,19.8009647 43.7617805,20.4989991 L43.7617805,21.4174983 C43.7617805,22.334532 44.1248077,23.2140887 44.7709545,23.8627121 L46.1982359,25.2950015 C46.8443827,25.9434155 47.20741,26.8229722 47.20741,27.7402153 L47.20741,29.7658547 C47.2080359,39.3147297 39.4941236,47.0557083 29.9786364,47.0557083 Z"/>
    <path fill="#DF2323" d="M2.54337182,61.0193258 C1.38001545,62.2723958 0.688803182,63.9412715 0.688803182,65.7313715 L0.688803182,76.4481035 C0.688803182,77.4030328 1.46013182,78.1770679 2.41172227,78.1770679 L11.0263177,78.1770679 L11.0263177,72.3968245 C11.0263177,70.5625478 10.3002632,68.8034343 9.00776091,67.5066063 L2.54337182,61.0193258 Z"/>
  </g>
</svg>
