<svg xmlns="http://www.w3.org/2000/svg" width="80" height="80" viewBox="0 0 80 80">
  <g fill="none" transform="translate(.833 .833)">
    <rect width="75.333" height="67" x="1.5" y="9.833" fill="#8DDFF8" stroke="#8DDFF8" stroke-width="3" rx="7"/>
    <path fill="#005B76" stroke="#005B76" stroke-width="3" d="M71.3333333,9.83333333 L7,9.83333333 C5.48121694,9.83333333 4.10621694,10.4489418 3.1109127,11.444246 C2.11560847,12.4395503 1.5,13.8145503 1.5,15.3333333 L1.5,25.9993333 L76.8330411,25.9993333 L76.8333333,15.3332922 C76.8333333,13.8145503 76.2177249,12.4395503 75.2224206,11.444246 C74.2271164,10.4489418 72.8521164,9.83333333 71.3333333,9.83333333 Z"/>
    <g fill="#005B76" stroke="#005B76" stroke-width="3" transform="translate(11.667 32.5)">
      <rect width="7" height="7" x="1.5" y="1.5" rx="3"/>
      <rect width="7" height="7" x="31.5" y="1.5" rx="3"/>
      <rect width="7" height="7" x="16.5" y="1.5" rx="3"/>
      <rect width="7" height="7" x="46.5" y="1.5" rx="3"/>
      <g transform="translate(0 15)">
        <rect width="7" height="7" x="1.5" y="1.5" rx="3"/>
        <rect width="7" height="7" x="31.5" y="1.5" rx="3"/>
        <rect width="7" height="7" x="16.5" y="1.5" rx="3"/>
        <rect width="7" height="7" x="46.5" y="1.5" rx="3"/>
      </g>
      <g transform="translate(0 30)">
        <rect width="7" height="7" x="1.5" y="1.5" rx="3"/>
        <rect width="7" height="7" x="31.5" y="1.5" rx="3"/>
        <rect width="7" height="7" x="16.5" y="1.5" rx="3"/>
        <rect width="7" height="7" x="46.5" y="1.5" rx="3"/>
      </g>
    </g>
    <rect width="8.333" height="16.667" x="58.333" y=".833" fill="#005B76" rx="4.167"/>
    <rect width="8.333" height="16.667" x="12.5" y=".833" fill="#005B76" rx="4.167"/>
  </g>
</svg>
