<svg xmlns="http://www.w3.org/2000/svg" width="24" height="24" viewBox="0 0 24 24">
  <path fill="#FFF" fill-rule="evenodd" d="M10.8580385,5.97153846 L13.0474615,6.58192308 L13.0940841,6.60214226 C13.1588611,6.62280979 13.2221857,6.65047069 13.282973,6.68529435 L13.3721154,6.74292308 L16.1471538,8.76869231 L17.9991068,7.897 L18,6 L19,6 L19.0001888,7.46417666 C19.3229581,7.37863875 19.6116193,7.41859834 19.8041538,7.78323077 C20.0071754,8.16349333 19.5241714,8.60979044 18.9999687,8.97244209 L19,24 L18,24 L17.9998572,9.6064628 L16.2391538,10.6838846 L16.2391538,10.6838846 C15.9576496,10.805765 15.5845821,10.7354326 15.3075823,10.5760222 L15.2085769,10.5122692 L13.0541068,8.952 L11.9491068,13.488 L14.8166923,16.3356923 C15.1840288,16.7111378 15.1685542,17.2783606 15.0932421,17.7879758 L15.0235598,18.1913635 L15.0235598,18.1913635 L14.2155193,22.3748756 L14.2155193,22.3748756 L14.1733048,22.5621557 L14.1733048,22.5621557 L14.110295,22.796324 C13.9747769,23.2529147 13.7266803,23.816387 13.3234615,23.7744231 C12.8431674,23.7243643 12.6960152,23.3773746 12.6668076,22.7745949 L12.6609183,22.478376 C12.6610713,22.426029 12.6617264,22.372206 12.6627855,22.3169255 L12.6670769,22.1467308 L13.0784231,18.1376538 L9.36215385,15.0087692 C9.34194747,14.9882125 9.32439533,14.9677208 9.30934259,14.9472893 C8.32268889,14.0381165 8.34282847,13.217699 8.57219231,12.1107692 L10.0654231,6.74026923 C10.1432692,6.20773077 10.5563846,5.8875 10.8580385,5.97153846 Z M8.18738462,15.2502692 C8.3102996,15.6684474 8.84148406,16.1872916 9.33871366,16.5993471 L9.62943905,16.8321061 L9.62943905,16.8321061 L9.89078849,17.0292779 L9.89078849,17.0292779 L10.2865769,17.3078846 L9.90884615,18.5445769 L9.87516221,18.6091861 L9.87516221,18.6091861 L9.69276756,18.9290796 L9.69276756,18.9290796 L9.35001672,19.4847289 L9.35001672,19.4847289 L7.77603846,21.9397308 L7.77603846,21.9397308 C7.03119231,23.1012308 6.31996154,23.7319615 5.79096154,23.4506538 C5.50684389,23.2991244 5.61689127,22.7738282 5.94471932,22.0234813 L6.09803633,21.6885591 L6.09803633,21.6885591 L6.4350837,20.9880797 L6.4350837,20.9880797 L6.78814519,20.2204929 L6.78814519,20.2204929 L7.36619781,18.9135608 L7.36619781,18.9135608 L7.81230769,17.8731538 L8.18738462,15.2502692 Z M9.03396154,6.65357692 L7.52215385,11.3756538 L7.52215385,11.3756538 C7.32311538,12.0231923 6.62869231,12.4725769 5.64765385,12.1735769 L5.38008926,12.0885581 C4.49122028,11.7928268 3.6628986,11.3581224 3.80765385,10.3158846 C3.98192308,9.06680769 5.162,7.40815385 6.1855,6.34130769 C7.209,5.27534615 9.54615385,4.90469231 9.03396154,6.65357692 Z M12.9678462,1 C14.1267095,1 15.0661538,1.93944435 15.0661538,3.09830769 C15.0661538,4.25717103 14.1267095,5.19661538 12.9678462,5.19661538 C11.8089828,5.19661538 10.8695385,4.25717103 10.8695385,3.09830769 C10.8695385,1.93944435 11.8089828,1 12.9678462,1 Z"/>
</svg>
