<svg xmlns="http://www.w3.org/2000/svg" width="24" height="24" viewBox="0 0 24 24">
  <path fill="#FFF" fill-rule="evenodd" d="M11.8952155,18.8888729 L11.2692759,18.2629024 C11.1211424,18.1147689 11.1211424,17.8745691 11.2692759,17.7263739 L16.1737046,12.8219761 L5.3793798,12.8219761 C5.16986879,12.8219761 5,12.6521073 5,12.4425963 L5,11.5573767 C5,11.3478657 5.16986879,11.1779969 5.3793798,11.1779969 L16.1737046,11.1779969 L11.2692759,6.27356824 C11.1211424,6.12540388 11.1211424,5.8852041 11.2692759,5.73703974 L11.8952155,5.11110012 C12.0433799,4.96296663 12.2835797,4.96296663 12.4317749,5.11110012 L19.052397,11.7317222 C19.2005305,11.8798866 19.2005305,12.1200864 19.052397,12.2682816 L12.4317749,18.8889037 C12.2836106,19.0370372 12.0434108,19.0370372 11.8952155,18.8888729 Z"/>
</svg>
