<svg xmlns="http://www.w3.org/2000/svg" width="24" height="24" viewBox="0 0 24 24">
  <path fill="#FFF" d="M16.4115469,0 C17.9565739,0 19.2752436,1.11163438 19.5515406,2.61456607 L19.5796406,2.79675 L19.7793281,4.47140625 C19.948875,4.57410937 20.1120469,4.68810937 20.2667344,4.81410938 C20.9709922,5.38774219 21.4780342,6.17418848 21.7121467,7.0487031 L21.7691719,7.28929687 L23.8352813,17.2853906 C23.9427187,17.7091406 24,18.1526719 24,18.609375 C24,21.5817656 21.5817656,24 18.609375,24 C15.7094817,24 13.3370423,21.6982897 13.2230387,18.825851 L13.21875,18.609375 L13.21875,17.4375 L10.78125,17.4375 L10.78125,18.609375 C10.78125,21.5817656 8.36301562,24 5.390625,24 C2.41823437,24 -1.77635684e-15,21.5817656 -1.77635684e-15,18.609375 C-1.77635684e-15,18.2440125 0.03666,17.88708 0.106332,17.5419615 L0.16471875,17.2853906 L2.23082812,7.28929687 C2.43135937,6.3189375 2.9649375,5.43989063 3.73326562,4.81410938 C3.83642187,4.73010938 3.94332812,4.65144271 4.05335937,4.57790104 L4.22067187,4.47140625 L4.41984375,2.80073438 C4.619625,1.20234375 5.981625,0 7.58845312,0 C9.2882764,0 10.6820827,1.33523543 10.7761861,3.01189372 L10.78125,3.19279688 L10.78125,7.59375 L13.21875,7.59375 L13.21875,3.19279687 C13.21875,1.4323125 14.6510156,0 16.4115469,0 Z M5.390625,14.625 C3.60867708,14.625 2.09639892,15.8009149 1.58855156,17.4174813 L1.53445312,17.6059219 L1.52957812,17.6294531 C1.52695312,17.6420625 1.52320312,17.6541094 1.51996875,17.6664375 C1.44623437,17.9689219 1.40625,18.2844844 1.40625,18.609375 C1.40625,20.8063594 3.19364062,22.59375 5.390625,22.59375 C7.58760937,22.59375 9.375,20.8063594 9.375,18.609375 C9.375,16.4123906 7.58760937,14.625 5.390625,14.625 Z M18.609375,14.625 C16.4123906,14.625 14.625,16.4123906 14.625,18.609375 C14.625,20.8063594 16.4123906,22.59375 18.609375,22.59375 C20.8063594,22.59375 22.59375,20.8063594 22.59375,18.609375 C22.59375,18.2844844 22.5537656,17.968875 22.4800312,17.6663437 L22.4655469,17.6059219 C22.0195312,15.8931094 20.4598594,14.625 18.609375,14.625 Z M18.609375,16.03125 C20.0309531,16.03125 21.1875,17.1877969 21.1875,18.609375 C21.1875,20.0309531 20.0309531,21.1875 18.609375,21.1875 C17.1877969,21.1875 16.03125,20.0309531 16.03125,18.609375 C16.03125,17.1877969 17.1877969,16.03125 18.609375,16.03125 Z M5.390625,16.03125 C6.81220312,16.03125 7.96875,17.1877969 7.96875,18.609375 C7.96875,20.0309531 6.81220312,21.1875 5.390625,21.1875 C3.96904687,21.1875 2.8125,20.0309531 2.8125,18.609375 C2.8125,17.1877969 3.96904687,16.03125 5.390625,16.03125 Z M18.609375,17.4375 C17.9632031,17.4375 17.4375,17.9632031 17.4375,18.609375 C17.4375,19.2555469 17.9632031,19.78125 18.609375,19.78125 C19.2555469,19.78125 19.78125,19.2555469 19.78125,18.609375 C19.78125,17.9632031 19.2555469,17.4375 18.609375,17.4375 Z M5.390625,17.4375 C4.74445312,17.4375 4.21875,17.9632031 4.21875,18.609375 C4.21875,19.2555469 4.74445312,19.78125 5.390625,19.78125 C6.03679687,19.78125 6.5625,19.2555469 6.5625,18.609375 C6.5625,17.9632031 6.03679687,17.4375 5.390625,17.4375 Z M13.21875,14.625 L10.78125,14.625 L10.78125,16.03125 L13.21875,16.03125 L13.21875,14.625 Z M17.5387031,5.25 C15.9894425,5.25 14.7187437,6.46536806 14.6299556,7.99271327 L14.625,8.16365625 L14.625,14.9822344 C15.611625,13.899375 17.0325,13.21875 18.609375,13.21875 C19.698851,13.21875 20.7137175,13.5438683 21.562467,14.101897 L21.7711406,14.2462031 L20.3920313,7.57392187 C20.1137344,6.22739062 18.9137344,5.25 17.5387031,5.25 Z M6.46134375,5.25 C5.14605163,5.25 3.99094441,6.14424776 3.64943403,7.40043078 L3.60796875,7.57392187 L2.22885937,14.2462031 C3.11765625,13.6003125 4.21035937,13.21875 5.390625,13.21875 C6.87474265,13.21875 8.22067344,13.8216566 9.19643856,14.7953737 L9.375,14.9822344 L9.375,8.16365625 C9.375,6.5570625 8.0679375,5.25 6.46134375,5.25 Z M13.21875,11.8125 L10.78125,11.8125 L10.78125,13.21875 L13.21875,13.21875 L13.21875,11.8125 Z M13.21875,9 L10.78125,9 L10.78125,10.40625 L13.21875,10.40625 L13.21875,9 Z M16.4115469,1.40625 C15.4756781,1.40625 14.7056014,2.12957555 14.6309334,3.04648946 L14.625,3.19279687 L14.625,4.97714063 C15.39375,4.27364062 16.4169375,3.84375 17.5386562,3.84375 C17.7087187,3.84375 17.8780937,3.85408333 18.0459201,3.87418056 L18.2963906,3.91157813 L18.1837969,2.9671875 C18.0792822,2.13129044 17.3980616,1.48614771 16.5686863,1.41314094 L16.4115469,1.40625 Z M7.58845312,1.40625 C6.73929427,1.40625 6.01234997,2.0063682 5.84025612,2.82459295 L5.81573437,2.97117187 L5.70360937,3.91157813 C5.95270312,3.867 6.20620312,3.84375 6.46129687,3.84375 C7.50293638,3.84375 8.45957741,4.214421 9.20643021,4.83063548 L9.375,4.97714063 L9.375,3.19279688 C9.375,2.20771875 8.57357812,1.40625 7.58845312,1.40625 Z"/>
</svg>
