<svg xmlns="http://www.w3.org/2000/svg" width="24" height="24" viewBox="0 0 24 24">
  <path fill="#FFF" fill-rule="evenodd" d="M19.0646719,0 C21.7860469,0 24,2.1602079 24,4.81557588 C24,7.39284481 21.9143642,9.50373855 19.3034329,9.6256793 L19.0646719,9.63124324 L12.7476562,9.63124324 L12.7476562,11.1030021 L16.5240469,11.5620748 C17.519388,11.6830698 18.2835543,12.4730165 18.3653896,13.4333664 L18.3726562,13.6045073 L18.3726562,23.3139293 C18.3726562,23.6583784 18.1124806,23.943557 17.773431,23.992561 L17.6695312,24 L9.23203125,24 C8.87901989,24 8.58675232,23.7461349 8.53653022,23.415309 L8.52890625,23.3139293 L8.52890625,18.8896299 L5.45657812,16.3741289 C4.54415625,15.6271351 4.48921875,14.3259335 5.32828125,13.5072225 C6.08185478,12.7718408 7.32842485,12.6774526 8.19556972,13.2609699 L8.3535,13.3783326 L8.52895312,13.5219501 L8.52895312,9.63133472 L4.935375,9.63133472 C2.214,9.63133472 0,7.47103534 0,4.81566736 C0,2.23839843 2.08567993,0.127504694 4.69661381,0.00556394529 L4.935375,0 L19.0646719,0 Z M16.9664062,19.2557173 L9.93515625,19.2557173 L9.93515625,22.6159668 L16.9664062,22.6159668 L16.9664062,19.2557173 Z M10.6383281,5.53430353 C10.2858707,5.53430353 9.99314992,5.78865999 9.94284083,6.11912854 L9.93520312,6.22037422 L9.93520312,14.9932058 C9.93520312,15.5390608 9.32109485,15.8517188 8.8682899,15.5808414 L8.78010937,15.5187817 L7.44960937,14.4294387 C7.13742187,14.1738545 6.61082812,14.1962661 6.32264062,14.4774179 C6.09455729,14.7000097 6.082511,15.0154057 6.27761285,15.2423663 L6.36046875,15.3229771 L9.48796875,17.8835759 L16.9664531,17.8835759 L16.9664531,13.6045073 C16.9664531,13.2974729 16.7571198,13.0321064 16.4638852,12.9469234 L16.3502344,12.9236965 L11.9576719,12.3897505 C11.6447969,12.3516965 11.4012552,12.116831 11.3509975,11.8220316 L11.3414531,11.7089397 L11.3414531,6.22037422 C11.3414531,5.84207484 11.0260312,5.53430353 10.6383281,5.53430353 Z M19.0646719,1.37214137 L4.935375,1.37214137 C2.98940625,1.37214137 1.40625,2.91694387 1.40625,4.81566736 C1.40625,6.64891763 2.88210553,8.15219177 4.73536995,8.25368601 L4.93532812,8.25914761 L8.52890625,8.25914761 L8.52890625,6.22037422 C8.52890625,5.08547609 9.47517187,4.16216216 10.6382812,4.16216216 C11.7460045,4.16216216 12.657044,4.99963511 12.7412978,6.05976212 L12.7476562,6.22037422 L12.7476562,8.25914761 L19.0646719,8.25914761 C21.0105937,8.25914761 22.59375,6.71443659 22.59375,4.81566736 C22.59375,2.98237293 21.1178945,1.47909726 19.26463,1.37760298 L19.0646719,1.37214137 Z M18.5294063,2.94525572 C18.8039531,2.67727651 19.2491719,2.67727651 19.5237188,2.94525572 C19.7678021,3.1834188 19.7949225,3.55309063 19.6050799,3.82047788 L19.5237188,3.91549688 L16.7112188,6.65977963 C16.4671354,6.89798337 16.0882373,6.92441431 15.814228,6.73916883 L15.7168594,6.65977963 L14.3106094,5.28763825 C14.0360156,5.01970478 14.0360156,4.58533056 14.3106094,4.31739709 C14.5546927,4.079234 14.9335909,4.05277144 15.2076001,4.23800939 L15.3049688,4.31739709 L16.2140625,5.20439501 L18.5294063,2.94525572 Z"/>
</svg>
