<svg xmlns="http://www.w3.org/2000/svg" width="24" height="24" viewBox="0 0 24 24">
  <path fill="#FFF" fill-rule="evenodd" d="M14.6,1.85333333 C15.0216667,1.67 15.5021528,1.80597222 15.7795718,2.1611169 L15.85,2.26333333 L17.29,4.69333333 L20.05,5.32333333 C20.4930769,5.42487179 20.8168639,5.82463511 20.8247292,6.27879988 L20.82,6.39333333 L20.56,9.20333333 L22.42,11.3233333 C22.7225,11.6716667 22.7477083,12.17125 22.4879225,12.5293866 L22.41,12.6233333 L20.55,14.7433333 L20.81,17.5533333 C20.8561538,18.0148718 20.5785207,18.4423274 20.1501365,18.5918768 L20.04,18.6233333 L17.28,19.2533333 L15.84,21.6833333 C15.6092308,22.0802564 15.1313609,22.2641617 14.6974056,22.1328008 L14.59,22.0933333 L12,20.9833333 L9.41,22.1133333 C8.97916667,22.2966667 8.49791667,22.1606944 8.22043403,21.8055498 L8.15,21.7033333 L6.71,19.2833333 L3.95,18.6533333 C3.50692308,18.5517949 3.18313609,18.1520316 3.17527082,17.6978668 L3.18,17.5833333 L3.44,14.7633333 L1.58,12.6433333 C1.2775,12.295 1.25229167,11.7954167 1.504375,11.421875 L1.58,11.3233333 L3.44,9.19333333 L3.18,6.39333333 C3.13384615,5.9225641 3.42,5.50291913 3.84969504,5.35462601 L3.96,5.32333333 L6.71,4.70333333 L8.16,2.28333333 C8.39076923,1.88641026 8.86863905,1.70250493 9.30259445,1.83386588 L9.41,1.87333333 L12,2.98333333 L14.6,1.85333333 Z M15.2,12.3333333 C13.9849736,12.3333333 13,13.3183069 13,14.5333333 C13,15.7483598 13.9849736,16.7333333 15.2,16.7333333 C16.4150264,16.7333333 17.4,15.7483598 17.4,14.5333333 C17.4,13.3183069 16.4150264,12.3333333 15.2,12.3333333 Z M15.1921253,7.3943338 C14.909372,7.19634785 14.5293798,7.24081955 14.2990024,7.48422193 L14.2346245,7.56316703 L8.72766713,15.4279172 C8.50988259,15.7389457 8.5854718,16.1676334 8.89650036,16.385418 C9.1792536,16.5834039 9.55924582,16.5389322 9.78962326,16.2955299 L9.85400119,16.2165848 L15.3609585,8.35183463 C15.5787431,8.04080607 15.5031539,7.61211834 15.1921253,7.3943338 Z M15.2,13.4333333 C15.8075132,13.4333333 16.3,13.9258201 16.3,14.5333333 C16.3,15.1408466 15.8075132,15.6333333 15.2,15.6333333 C14.5924868,15.6333333 14.1,15.1408466 14.1,14.5333333 C14.1,13.9258201 14.5924868,13.4333333 15.2,13.4333333 Z M8.73333333,7.03333333 C7.51830688,7.03333333 6.53333333,8.01830688 6.53333333,9.23333333 C6.53333333,10.4483598 7.51830688,11.4333333 8.73333333,11.4333333 C9.94835978,11.4333333 10.9333333,10.4483598 10.9333333,9.23333333 C10.9333333,8.01830688 9.94835978,7.03333333 8.73333333,7.03333333 Z M8.73333333,8.13333333 C9.34084656,8.13333333 9.83333333,8.62582011 9.83333333,9.23333333 C9.83333333,9.84084656 9.34084656,10.3333333 8.73333333,10.3333333 C8.12582011,10.3333333 7.63333333,9.84084656 7.63333333,9.23333333 C7.63333333,8.62582011 8.12582011,8.13333333 8.73333333,8.13333333 Z"/>
</svg>
