<svg xmlns="http://www.w3.org/2000/svg" width="24" height="24" viewBox="0 0 24 24">
  <path fill="#FFF" fill-rule="evenodd" d="M19.3847027,5.51618518 C19.5132311,5.19084774 19.925908,5.16373629 20.1017944,5.43485082 L20.1435012,5.51618518 L20.9229193,7.46601897 L22.9188892,7.65004823 C23.2538772,7.67836042 23.4026306,8.09122065 23.2062149,8.35445464 L23.1498279,8.4168368 L21.6363548,9.81020117 L22.0899844,11.8827211 C22.1665712,12.2326271 21.8413508,12.5145281 21.5435609,12.3916375 L21.4755225,12.3559392 L19.764102,11.2561453 L18.8468824,11.843 L18.8470588,15.5 L19.3477647,15.5 C19.4312157,15.5 19.5117386,15.5118519 19.5893333,15.5335802 L19.7035294,15.5733333 L22.6945882,17.08 C23.0437647,17.2266667 23.2941176,17.5866667 23.2941176,18 L23.29,18.0641667 L23.29,18.0641667 L22.7868235,21.6466667 C22.7199276,22.0958974 22.3891904,22.4428797 21.9500667,22.4936034 L21.8381176,22.5 L17.3647059,22.5 C17.1396078,22.5 16.9282353,22.4212963 16.7610893,22.2908951 L16.6663529,22.2066667 L13.4117647,18.9133333 L13.9322353,18.38 C14.0376471,18.2733333 14.1767906,18.1965333 14.3328,18.17008 L14.4609473,18.159997 L14.4609473,18.159997 L14.5397063,18.167953 L14.5397063,18.167953 L16.8705882,18.66 L16.8705882,11.5 C16.8705882,10.9879708 17.2485603,10.5672782 17.7382707,10.5073251 L17.8918492,9.81020117 L16.378376,8.4168368 C16.1233284,8.18225005 16.2302083,7.75352255 16.533594,7.66482856 L16.6134386,7.65004823 L18.6052847,7.47040062 L19.3847027,5.51618518 Z M3.85582994,5.51623073 C3.9843803,5.19083762 4.3971278,5.16372152 4.57304435,5.43488245 L4.6147583,5.51623073 L5.39430971,7.4707806 L7.38649666,7.65045896 C7.72154196,7.678776 7.87383527,8.09170688 7.67792659,8.35498592 L7.62159947,8.41737875 L6.10786736,9.81098158 L6.56157453,11.8794738 C6.63817444,12.2294397 6.31289839,12.5113889 6.0150576,12.3884773 L5.94700754,12.3527729 L4.23529412,11.2527908 L2.52358069,12.3483905 C2.23250103,12.5355815 1.88096214,12.2920007 1.89827529,11.9544921 L1.90901371,11.8750914 L2.36272088,9.80659918 L0.848988766,8.41299635 C0.593897461,8.17836946 0.700795654,7.74956859 1.00423333,7.66085942 L1.08409157,7.64607656 L3.07627852,7.46639821 L3.85582994,5.51623073 Z M11.6205358,5.51623073 C11.7490862,5.19083762 12.1618337,5.16372152 12.3377502,5.43488245 L12.3794642,5.51623073 L13.1590156,7.4707806 L15.1512025,7.65045896 C15.4862478,7.678776 15.6385412,8.09170688 15.4426325,8.35498592 L15.3863054,8.41737875 L13.8725732,9.81098158 L14.3262804,11.8794738 C14.4028803,12.2294397 14.0776043,12.5113889 13.7797635,12.3884773 L13.7117134,12.3527729 L12,11.2527908 L10.2882866,12.3483905 C9.99720691,12.5355815 9.64566803,12.2920007 9.66298117,11.9544921 L9.67371959,11.8750914 L10.1274268,9.80659918 L8.61369465,8.41299635 C8.35860334,8.17836946 8.46550154,7.74956859 8.76893921,7.66085942 L8.84879746,7.64607656 L10.8409844,7.46639821 L11.6205358,5.51623073 Z M19.764102,6.36184343 L19.764102,10.436777 L21.3188141,11.4357929 L20.9064236,9.56044718 L22.2755601,8.29853228 L20.4692897,8.13202962 L19.764102,6.36184343 Z"/>
</svg>
