<svg xmlns="http://www.w3.org/2000/svg" width="24" height="24" viewBox="0 0 24 24">
  <path fill="#FFF" d="M21.0047881,12.5231583 C22.5973805,12.5231583 23.9035897,13.7725328 23.994859,15.3426831 L23.9999531,15.5184171 L23.9999531,16.6326907 C23.9999531,16.9891563 23.7350423,17.2837725 23.3913604,17.3303998 L23.2958159,17.3368279 L18.0253959,17.3368279 L18.0253959,19.0975465 C18.0253959,19.454012 17.7604851,19.7486282 17.4168033,19.7952555 L17.3212587,19.8016837 L6.68470301,19.8016837 C6.32823747,19.8016837 6.03362125,19.5367729 5.986994,19.193091 L5.98056581,19.0975465 L5.98056581,17.3712837 L0.704137197,17.3712837 C0.347671653,17.3712837 0.0530554338,17.106373 0.00642818582,16.7626911 L-5.10524956e-12,16.6671465 L-5.10524956e-12,15.5528259 C-5.10524956e-12,13.9602336 1.24937452,12.6539808 2.81948269,12.5627083 L2.99521187,12.5576141 L5.94104025,12.5576141 C6.80759842,12.5576141 7.61008012,12.9253615 8.16972836,13.5504006 C8.71651436,13.2442522 9.33707308,13.0548271 9.99757812,13.0165122 L10.2470739,13.0092946 L13.7589347,13.0092946 C14.5064468,13.0092946 15.2095512,13.2027915 15.8211648,13.5419509 C16.3479894,12.9563254 17.0854452,12.583771 17.8636193,12.5299202 L18.0589128,12.5231583 L21.0047881,12.5231583 Z M13.7589347,14.417569 L10.2470739,14.417569 C8.72731449,14.417569 7.48079981,15.6098066 7.39370151,17.108068 L7.38884021,17.2757558 L7.38884021,18.3933623 L16.6171684,18.3933623 L16.6171684,17.2757558 C16.6171684,15.7560416 15.4248872,14.5095285 13.9266227,14.4224303 L13.7589347,14.417569 Z M5.94108719,13.9658885 L2.99521187,13.9658885 C2.16877125,13.9658885 1.48787609,14.6008703 1.41477181,15.4085884 L1.40827439,15.5528259 L1.40827439,15.9630093 L6.18753521,15.9630093 C6.37277023,15.3915785 6.67545534,14.8726294 7.06714339,14.434703 C6.81067316,14.1757272 6.47139638,14.0110229 6.10139062,13.9738933 L5.94108719,13.9658885 Z M21.0047881,13.9313857 L18.0589128,13.9313857 C17.6445985,13.9313857 17.2315985,14.1183576 16.9279746,14.4224041 C17.261454,14.7924181 17.5311989,15.2208899 17.7197976,15.6904078 L17.8072542,15.9285066 L22.5917256,15.9285066 L22.5917256,15.5183232 C22.5917256,14.6919269 21.9567438,14.0109924 21.1490257,13.9378836 L21.0047881,13.9313857 Z M12.0030043,4.03032484 C14.1591194,4.03032484 15.9132659,5.78447143 15.9132659,7.94058647 C15.9132659,10.0967015 14.1591194,11.8508481 12.0030043,11.8508481 C9.84688928,11.8508481 8.09269575,10.0967015 8.09269575,7.94058647 C8.09269575,5.78447143 9.84684234,4.03032484 12.0030043,4.03032484 Z M19.531827,5.76315954 C21.1712931,5.76315954 22.5051167,7.09698316 22.5051167,8.73640233 C22.5051167,10.3758215 21.1712931,11.7096451 19.531827,11.7096451 C17.8923609,11.7096451 16.5585842,10.3758215 16.5585842,8.73640233 C16.5585842,7.09698316 17.8923609,5.76315954 19.531827,5.76315954 Z M4.45042874,5.76315954 C6.08989485,5.76315954 7.42367153,7.09698316 7.42367153,8.73640233 C7.42367153,10.3758215 6.08989485,11.7096451 4.45042874,11.7096451 C2.81096263,11.7096451 1.47713901,10.3758215 1.47713901,8.73640233 C1.47713901,7.09698316 2.81096263,5.76315954 4.45042874,5.76315954 Z M12.0030043,5.43859924 C10.6234118,5.43859924 9.50097014,6.56099393 9.50097014,7.94058647 C9.50097014,9.32017901 10.6233648,10.4425737 12.0030043,10.4425737 C13.3825969,10.4425737 14.5049916,9.32017901 14.5049916,7.94058647 C14.5049916,6.61617763 13.4705926,5.52880233 12.1672655,5.44393136 L12.0030043,5.43859924 Z M19.531827,7.17138699 C18.6688834,7.17138699 17.9668586,7.87345872 17.9668586,8.73635539 C17.9668586,9.59925205 18.6688834,10.3013238 19.531827,10.3013238 C20.3947706,10.3013238 21.0968423,9.59925205 21.0968423,8.73635539 C21.0968423,7.87345872 20.3947706,7.17138699 19.531827,7.17138699 Z M4.45042874,7.17138699 C3.58748513,7.17138699 2.88541341,7.87345872 2.88541341,8.73635539 C2.88541341,9.59925205 3.58748513,10.3013238 4.45042874,10.3013238 C5.31337235,10.3013238 6.01539713,9.59925205 6.01539713,8.73635539 C6.01539713,7.87345872 5.31337235,7.17138699 4.45042874,7.17138699 Z"/>
</svg>
