<svg xmlns="http://www.w3.org/2000/svg" width="24" height="24" viewBox="0 0 24 24">
  <path fill="#FFF" d="M23.4707812,15.515625 L23.3773021,15.7876823 L23.3773021,15.7876823 L23.16675,16.3207031 L23.16675,16.3207031 C23.7029531,17.1263906 24,18.0503906 24,19.03125 C24,21.7448906 21.7448906,24 19.03125,24 C18.0503906,24 17.1263906,23.7029531 16.3207031,23.16675 L15.7876823,23.3773021 L15.7876823,23.3773021 L15.515625,23.4707812 L15.515625,17.2568906 C16.1173652,16.8531328 16.6459285,16.3492815 17.0777942,15.7689514 L17.2568906,15.515625 L23.4707812,15.515625 Z M14.109375,17.9393906 L14.109375,23.8021406 C13.4233125,23.925 12.7207969,24 12,24 C11.4233625,24 10.858425,23.95197 10.3042515,23.869878 L9.890625,23.8021406 L9.890625,17.9393906 C10.5536719,18.1757813 11.2567969,18.328125 12,18.328125 C12.6370312,18.328125 13.2446173,18.216199 13.8227583,18.035356 L14.109375,17.9393906 Z M6.74310937,15.515625 C7.14686719,16.1173652 7.65071851,16.6459285 8.23104858,17.0777942 L8.484375,17.2568906 L8.484375,23.4707812 L8.21233854,23.3773021 L8.21233854,23.3773021 L7.67929687,23.16675 L7.67929687,23.16675 C6.87360937,23.7029531 5.94960937,24 4.96875,24 C2.25510937,24 -2.15294449e-12,21.7448906 -2.15294449e-12,19.03125 C-2.15294449e-12,18.0503906 0.297046875,17.1263906 0.83325,16.3207031 L0.622697917,15.7876823 L0.622697917,15.7876823 L0.52921875,15.515625 L6.74310937,15.515625 Z M22.4115937,17.9176406 C21.3511875,19.7679375 19.7679375,21.3511875 17.9175937,22.4116406 C18.2724375,22.53 18.646125,22.59375 19.03125,22.59375 C20.9696719,22.59375 22.59375,20.9696719 22.59375,19.03125 C22.59375,18.646125 22.53,18.2724375 22.4115937,17.9176406 Z M1.58835937,17.9175937 C1.47,18.2724375 1.40625,18.646125 1.40625,19.03125 C1.40625,20.9696719 3.03032812,22.59375 4.96875,22.59375 C5.353875,22.59375 5.7275625,22.53 6.08235937,22.4115937 C4.2320625,21.3511875 2.6488125,19.7679375 1.58835937,17.9175937 Z M23.8021406,9.890625 C23.925,10.5766875 24,11.2792031 24,12 C24,12.5766375 23.95197,13.141575 23.869878,13.6957485 L23.8021406,14.109375 L17.9393906,14.109375 C18.1757812,13.4463281 18.328125,12.7432031 18.328125,12 C18.328125,11.3629687 18.216199,10.7553827 18.035356,10.1772417 L17.9393906,9.890625 L23.8021406,9.890625 Z M6.06060937,9.890625 C5.82421875,10.5536719 5.671875,11.2567969 5.671875,12 C5.671875,12.6370312 5.78380102,13.2446173 5.96464395,13.8227583 L6.06060937,14.109375 L0.197859375,14.109375 C0.075,13.4233125 -4.30677716e-12,12.7207969 -4.30677716e-12,12 C-4.30677716e-12,11.4233625 0.048,10.858425 0.130104,10.3042515 L0.197859375,9.890625 L6.06060937,9.890625 Z M4.96875,-1.0658141e-13 C5.94960937,-1.0658141e-13 6.87360937,0.297046875 7.67929687,0.83325 L8.21231771,0.622697917 L8.21231771,0.622697917 L8.484375,0.52921875 L8.484375,6.74310937 C7.88263477,7.14686719 7.35407153,7.65071851 6.92220584,8.23104858 L6.74310937,8.484375 L0.52921875,8.484375 L0.622697917,8.21231771 L0.622697917,8.21231771 L0.83325,7.67929687 L0.83325,7.67929687 C0.297046875,6.87360937 -2.15294449e-12,5.94960937 -2.15294449e-12,4.96875 C-2.15294449e-12,2.25510937 2.25510937,-1.0658141e-13 4.96875,-1.0658141e-13 Z M19.03125,-1.0658141e-13 C21.7448906,-1.0658141e-13 24,2.25510937 24,4.96875 C24,5.94960937 23.7029531,6.87360937 23.16675,7.67929687 L23.3773021,8.21231771 L23.3773021,8.21231771 L23.4707812,8.484375 L17.2568906,8.484375 C16.8531328,7.88263477 16.3492815,7.35407153 15.7689514,6.92220584 L15.515625,6.74310937 L15.515625,0.52921875 L15.7876615,0.622697917 L15.7876615,0.622697917 L16.3207031,0.83325 L16.3207031,0.83325 C17.1263906,0.297046875 18.0503906,-1.0658141e-13 19.03125,-1.0658141e-13 Z M4.96875,1.40625 C3.03032812,1.40625 1.40625,3.03032812 1.40625,4.96875 C1.40625,5.353875 1.47,5.7275625 1.58840625,6.08235937 C2.6488125,4.2320625 4.2320625,2.6488125 6.08240625,1.58835937 C5.7275625,1.47 5.353875,1.40625 4.96875,1.40625 Z M19.03125,1.40625 C18.646125,1.40625 18.2724375,1.47 17.9176406,1.58840625 C19.7679375,2.6488125 21.3511875,4.2320625 22.4116406,6.08240625 C22.53,5.7275625 22.59375,5.353875 22.59375,4.96875 C22.59375,3.03032812 20.9696719,1.40625 19.03125,1.40625 Z M12,-2.14050999e-13 C12.5766375,-2.14050999e-13 13.141575,0.048 13.6957485,0.130104 L14.109375,0.197859375 L14.109375,6.06060937 C13.4463281,5.82421875 12.7432031,5.671875 12,5.671875 C11.3629687,5.671875 10.7553827,5.78380102 10.1772417,5.96464395 L9.890625,6.06060937 L9.890625,0.197859375 C10.5766875,0.075 11.2792031,-2.14050999e-13 12,-2.14050999e-13 Z"/>
</svg>
