<svg xmlns="http://www.w3.org/2000/svg" width="24" height="24" viewBox="0 0 24 24">
  <path fill="#FFF" fill-rule="evenodd" d="M18,10 L18,19.5235488 C18,20.2897692 17.4147847,20.9215523 16.6689384,20.9932284 L16.5273135,21 L7.47268655,21 C6.70841988,21 6.07824771,20.4132887 6.00675433,19.6655357 L6,19.5235488 L6,10 L18,10 Z M9,12 L8,12 L8,14 L9,14 L9,12 Z M16.5273135,3 C17.2915801,3 17.9217523,3.54632464 17.9932457,4.24260552 L18,4.37481871 L18,9 L6,9 L6,4.37481871 C6,3.66134162 6.5852153,3.07304774 7.33106162,3.00630547 L7.47268655,3 L16.5273135,3 Z M9,5 L8,5 L8,7 L9,7 L9,5 Z"/>
</svg>
