<svg xmlns="http://www.w3.org/2000/svg" width="24" height="24" viewBox="0 0 24 24">
  <path fill="#FFF" d="M10.4862656,5.8483125 C14.5880625,4.89164062 18.328125,7.9644375 18.328125,12 C18.328125,13.6876875 17.6716406,15.2751094 16.4795625,16.4697187 C15.944183,17.0062734 15.5719295,17.94842 15.521482,18.8668068 L15.515625,19.078125 L15.515625,20.484375 C15.515625,21.5969144 14.6498546,22.5110561 13.5566702,22.5884436 L13.40625,22.59375 L12.703125,22.59375 L12.703125,23.296875 C12.703125,23.6851875 12.3883125,24 12,24 C11.6440469,24 11.3498542,23.7354701 11.3032939,23.3922822 L11.296875,23.296875 L11.296875,22.59375 L10.59375,22.59375 C9.4812106,22.59375 8.56706888,21.7279796 8.48968139,20.6347952 L8.484375,20.484375 L8.484375,19.078125 C8.484375,18.0837187 8.1166875,17.055 7.56942188,16.5183281 C5.95007813,14.9302969 5.31473438,12.6417187 5.86982813,10.3965 C6.42314063,8.15864062 8.2351875,6.37335937 10.4862656,5.8483125 Z M14.109375,19.78125 L9.890625,19.78125 L9.890625,20.484375 C9.890625,20.8397695 10.155667,21.1344277 10.4984708,21.1810694 L10.59375,21.1875 L13.40625,21.1875 C13.7616445,21.1875 14.0563027,20.922458 14.1029444,20.5796542 L14.109375,20.484375 L14.109375,19.78125 Z M16.921875,12 C16.921875,8.86570312 14.0200781,6.468 10.8056719,7.2178125 C9.06421875,7.62398437 7.66265625,9.00421875 7.23496875,10.734 C6.80048438,12.4912031 7.29360938,14.2782187 8.55403125,15.5143125 C9.28004567,16.2262644 9.66173021,17.2322208 9.81241851,18.1481229 L9.84534375,18.375 L14.15475,18.375 C14.2881923,17.3355865 14.7092485,16.3453402 15.3259318,15.6452702 L15.484125,15.4764375 C16.4112656,14.5472812 16.921875,13.3126406 16.921875,12 Z M3.5625,12.3203125 C3.9508125,12.3203125 4.265625,12.635125 4.265625,13.0234375 C4.265625,13.3793906 4.00109505,13.6735833 3.65790723,13.7201436 L3.5625,13.7265625 L0.703125,13.7265625 C0.3148125,13.7265625 0,13.41175 0,13.0234375 C0,12.6674844 0.264529948,12.3732917 0.607717773,12.3267314 L0.703125,12.3203125 L3.5625,12.3203125 Z M23.296875,12.3203125 C23.6851875,12.3203125 24,12.635125 24,13.0234375 C24,13.3793906 23.7354701,13.6735833 23.3922822,13.7201436 L23.296875,13.7265625 L20.4375,13.7265625 C20.0491875,13.7265625 19.734375,13.41175 19.734375,13.0234375 C19.734375,12.6674844 19.9989049,12.3732917 20.3420928,12.3267314 L20.4375,12.3203125 L23.296875,12.3203125 Z M21.744,8.98735937 C21.8790852,9.31348153 21.750547,9.6830696 21.4565376,9.85921289 L21.3634687,9.90601562 L20.0642812,10.4441406 C19.9762969,10.4806094 19.8851719,10.4978594 19.7955,10.4978594 C19.5195937,10.4978594 19.2577969,10.3344062 19.145625,10.0636094 C19.0105824,9.73748722 19.1390857,9.36789915 19.4330533,9.19175586 L19.5261094,9.14495312 L20.8252969,8.60682812 C21.1840781,8.4581875 21.5953594,8.62857812 21.744,8.98735937 Z M3.07567287,8.57406518 L3.17460938,8.60678125 L4.47384375,9.14490625 C4.83257813,9.29354687 5.00296875,9.70482812 4.854375,10.0636094 C4.74225,10.3344062 4.48040625,10.4978594 4.2045,10.4978594 C4.14471875,10.4978594 4.0843125,10.4901719 4.02460069,10.4742552 L3.93571875,10.4441406 L2.63648438,9.90601562 C2.27775,9.75742187 2.1073125,9.34609375 2.25590625,8.9873125 C2.37748295,8.6937642 2.67487694,8.52636002 2.97556002,8.55657591 L3.07567287,8.57406518 Z M4.45504458,4.49717219 L4.5421875,4.5713125 L6.53090625,6.56003125 C6.8055,6.834625 6.8055,7.27979687 6.53090625,7.55439062 C6.39365625,7.69173437 6.21365625,7.76035937 6.03375,7.76035937 C5.889825,7.76035937 5.74587,7.71640937 5.623749,7.62853337 L5.53659375,7.55439062 L3.54782812,5.56567187 C3.27323437,5.29107812 3.27323437,4.84590625 3.54782812,4.5713125 C3.76750312,4.3516375 4.09637812,4.3077025 4.35970912,4.4395075 L4.45504458,4.49717219 Z M20.452125,4.5713125 C20.6992594,4.81844687 20.7239728,5.2037875 20.5262653,5.47852895 L20.452125,5.56567187 L18.4633594,7.55439062 C18.3261094,7.6916875 18.1461094,7.76035937 17.9662031,7.76035937 C17.78625,7.76035937 17.6063438,7.6916875 17.469,7.55439062 C17.2218656,7.30725625 17.1971522,6.92191562 17.3948597,6.64717417 L17.469,6.56003125 L19.4577656,4.5713125 C19.7324063,4.29671875 20.177625,4.29671875 20.452125,4.5713125 Z M8.8357743,3.56684355 L8.88257813,3.65992187 L9.42070313,4.95910937 C9.56929688,5.31789062 9.39890625,5.72921875 9.04017188,5.8778125 C8.9521875,5.91428125 8.8610625,5.93153125 8.77139063,5.93153125 C8.52997266,5.93153125 8.29935718,5.80638745 8.17032907,5.59368875 L8.12151563,5.49728125 L7.58334375,4.19809375 C7.43475,3.8393125 7.60514063,3.42798437 7.963875,3.27939062 C8.25738494,3.15785227 8.58613365,3.24975478 8.77736189,3.4836992 L8.8357743,3.56684355 Z M16.0360781,3.27939062 C16.3622003,3.41451847 16.5326665,3.76670467 16.4493244,4.09917944 L16.4166094,4.19809375 L15.8784844,5.49728125 C15.7663594,5.76807812 15.5045156,5.93153125 15.2286094,5.93153125 C15.1389375,5.93153125 15.0478125,5.91423437 14.9598281,5.8778125 C14.6336634,5.74272727 14.4631933,5.3905062 14.546535,5.05802475 L14.57925,4.95910937 L15.117375,3.65992187 C15.2659688,3.30114062 15.6773906,3.13084375 16.0360781,3.27939062 Z M12,1.0234375 C12.3559531,1.0234375 12.6501458,1.28796745 12.6967061,1.63115527 L12.703125,1.7265625 L12.703125,4.5859375 C12.703125,4.97425 12.3883125,5.2890625 12,5.2890625 C11.6440469,5.2890625 11.3498542,5.02453255 11.3032939,4.68134473 L11.296875,4.5859375 L11.296875,1.7265625 C11.296875,1.33825 11.6116875,1.0234375 12,1.0234375 Z"/>
</svg>
