<svg xmlns="http://www.w3.org/2000/svg" width="24" height="24" viewBox="0 0 24 24">
  <path fill="#FFF" d="M23.7939727,0.205945313 C23.5194258,-0.0686484375 23.0741602,-0.0686484375 22.7995664,0.205945313 L20.7515977,2.25391406 C20.6256914,2.19391406 20.4928477,2.14558594 20.3541445,2.11094531 L13.9898789,0.538617187 C13.2752227,0.359976563 12.5075977,0.572554688 11.9866758,1.09347656 L0.616816406,12.4446328 C-0.205605469,13.2671016 -0.205605469,14.6053828 0.616816406,15.4278984 L8.57211328,23.3831484 C9.39458203,24.2056172 10.7328633,24.2056641 11.5553789,23.3831484 L22.9065352,12.0132422 C23.427457,11.4923203 23.640082,10.7246953 23.4613477,10.0099922 L21.8890664,3.64577344 C21.8543789,3.50711719 21.8060977,3.37422656 21.7460977,3.24832031 L23.7940664,1.20035156 C24.0685664,0.925757812 24.0685664,0.480539063 23.7939727,0.205945313 Z M22.096957,10.3511484 C22.1565352,10.5893672 22.0856602,10.8452109 21.9120352,11.0188828 L10.5608789,22.3887422 C10.286707,22.6629141 9.84059766,22.6629141 9.56642578,22.3887422 L1.61117578,14.4334453 C1.33700391,14.1592734 1.33700391,13.7131641 1.61117578,13.4389922 L12.981082,2.08788281 C13.1140664,1.95489844 13.2952852,1.88219531 13.4798789,1.88219531 C13.5363164,1.88219531 13.593082,1.88899219 13.6488164,1.90291406 L19.6267852,3.37867969 L17.9334258,5.07203906 C17.1494414,4.69863281 16.1810508,4.83560156 15.532957,5.48369531 C14.7104414,6.30621094 14.7104414,7.64444531 15.532957,8.46696094 C15.9441445,8.87819531 16.4843789,9.08383594 17.0245664,9.08383594 C17.564707,9.08383594 18.1049414,8.87824219 18.5161289,8.46696094 C19.1643633,7.81877344 19.3012852,6.85042969 18.9277852,6.06644531 L20.6211445,4.37308594 L22.096957,10.3511484 Z M17.5217695,7.47260156 C17.2476445,7.74672656 16.8015352,7.74677344 16.5273633,7.47260156 C16.2532383,7.19847656 16.2532383,6.75232031 16.5273633,6.47819531 C16.6644727,6.34108594 16.8444727,6.27260156 17.0245664,6.27260156 C17.2045664,6.27260156 17.3846602,6.34113281 17.5216758,6.47814844 L17.5217227,6.47819531 L17.5217695,6.47824219 C17.7959414,6.75236719 17.7958945,7.19847656 17.5217695,7.47260156 Z"/>
</svg>
