<svg xmlns="http://www.w3.org/2000/svg" width="24" height="24" viewBox="0 0 24 24">
  <path fill="#FFF" fill-rule="evenodd" d="M18.4174603,8.54753086 C18.959596,8.01234568 19.8737855,8.20123457 20.1607985,8.90432099 C20.5541126,9.85925926 20.7667148,10.908642 20.7667148,12 C20.7667148,16.5539394 17.0982618,20.2581598 12.5180055,20.3913533 L12.2626263,20.3950617 L12.2626263,22.2839506 C12.2626263,22.7148971 11.7625859,22.9447353 11.4279909,22.708977 L11.3590669,22.6512346 L8.39326599,19.7234568 C8.20428625,19.5368999 8.1832885,19.2591373 8.33027275,19.0523125 L8.39326599,18.9783951 L11.3590669,16.0506173 C11.6666314,15.7372016 12.1871761,15.9174156 12.2552151,16.3267713 L12.2626263,16.4179012 L12.2626263,18.2962963 C15.7811929,18.2962963 18.6406926,15.4734568 18.6406926,12 C18.6406926,11.1709877 18.4706109,10.3734568 18.1729678,9.63888889 C18.0135161,9.27160494 18.1304473,8.8308642 18.4174603,8.54753086 Z M12.2626263,1.72654321 C12.2626263,1.28580247 12.7626667,1.05531139 13.0972616,1.29102606 L13.1661857,1.34876543 L16.1319865,4.27654321 C16.3209663,4.46310014 16.341964,4.74086267 16.1949798,4.94768751 L16.1319865,5.02160494 L13.1661857,7.94938272 C12.8586211,8.26279835 12.3380764,8.08258436 12.2700374,7.67322872 L12.2626263,7.58209877 L12.2626263,5.7037037 C8.74405964,5.7037037 5.88455988,8.52654321 5.88455988,12 C5.88455988,12.8290123 6.04401154,13.637037 6.35228475,14.3611111 C6.51173641,14.7388889 6.39480519,15.1691358 6.10779221,15.4524691 C5.56565657,15.9876543 4.65146705,15.7987654 4.36445406,15.095679 C3.97113997,14.1407407 3.75853776,13.091358 3.75853776,12 C3.75853776,7.44606061 7.42699069,3.74184022 12.007247,3.60864673 L12.2626263,3.60493827 L12.2626263,1.72654321 Z"/>
</svg>
