<svg xmlns="http://www.w3.org/2000/svg" width="24" height="24" viewBox="0 0 24 24">
  <path fill="#FFF" fill-rule="evenodd" d="M14.512,12.1471 C17.887,12.1471 20.633,14.8951 20.633,18.2711 L20.633,19.0551 C20.633,19.3261 20.413,19.5441 20.143,19.5441 L16.42,19.5441 L16.42,23.5101 C16.42,23.7811 16.201,24.0001 15.93,24.0001 L7.702,24.0001 C7.431,24.0001 7.212,23.7811 7.212,23.5101 L7.212,19.5441 L3.49,19.5441 C3.219,19.5441 3,19.3261 3,19.0551 L3,18.2701 C3.001,14.8941 5.747,12.1471 9.122,12.1471 L14.512,12.1471 Z M8.192,23.0201 L15.441,23.0201 L15.441,18.1231 L8.192,18.1231 L8.192,23.0201 Z M11.816,18.6121 C12.897,18.6121 13.776,19.4911 13.776,20.5721 C13.776,21.6521 12.897,22.5311 11.816,22.5311 C10.736,22.5311 9.857,21.6521 9.857,20.5721 C9.857,19.4911 10.736,18.6121 11.816,18.6121 L11.816,18.6121 Z M11.816,19.5911 C11.276,19.5911 10.837,20.0311 10.837,20.5721 C10.837,21.1121 11.276,21.5511 11.816,21.5511 C12.356,21.5511 12.796,21.1121 12.796,20.5721 C12.796,20.0311 12.356,19.5911 11.816,19.5911 L11.816,19.5911 Z M14.512,13.1261 L9.122,13.1261 C8.804,13.1261 8.493,13.1561 8.192,13.2101 L8.192,14.5141 C8.192,14.7851 7.972,15.0041 7.702,15.0041 C7.431,15.0041 7.212,14.7851 7.212,14.5141 L7.212,13.4951 C5.32,14.2541 3.98,16.1091 3.979,18.2711 L3.979,18.5651 L7.212,18.5651 L7.212,17.6321 C7.212,17.3621 7.431,17.1431 7.702,17.1431 L15.93,17.1431 C16.201,17.1431 16.42,17.3621 16.42,17.6321 L16.42,18.5651 L19.6530006,18.5651 L19.6530006,18.2701 C19.654,16.1091 18.313,14.2541 16.42,13.4951 L16.42,14.5141 C16.42,14.7851 16.201,15.0041 15.93,15.0041 C15.66,15.0041 15.441,14.7851 15.441,14.5141 L15.441,13.2101 C15.139,13.1561 14.829,13.1261 14.512,13.1261 L14.512,13.1261 Z M15.93,15.6091 C16.201,15.6091 16.42,15.8291 16.42,16.0991 L16.42,16.3181 C16.42,16.5881 16.201,16.8081 15.93,16.8081 C15.66,16.8081 15.441,16.5881 15.441,16.3181 L15.441,16.0991 C15.441,15.8291 15.66,15.6091 15.93,15.6091 L15.93,15.6091 Z M7.702,15.6091 C7.972,15.6091 8.192,15.8291 8.192,16.0991 L8.192,16.3181 C8.192,16.5881 7.972,16.8081 7.702,16.8081 C7.431,16.8081 7.212,16.5881 7.212,16.3181 L7.212,16.0991 C7.212,15.8291 7.431,15.6091 7.702,15.6091 L7.702,15.6091 Z M11.816,0.0001 L12.04,0.0041 C15.233,0.1231 17.792,2.7561 17.792,5.9771 C17.791,9.2711 15.111,11.9511 11.816,11.9511 C10.219,11.9511 8.719,11.3291 7.59,10.2001 C6.462,9.0721 5.841,7.5721 5.841,5.9761 L5.841,5.9751 L5.845,5.7511 C5.964,2.5591 8.597,0.0001 11.816,0.0001 L11.816,0.0001 Z M11.816,2.8571 C10.962,4.8301 9.075,6.2521 6.842,6.4431 C6.949,7.6011 7.451,8.6751 8.283,9.5071 C9.226,10.4521 10.481,10.9711 11.815,10.9711 C14.413,10.9711 16.554,8.9791 16.79,6.4431 C14.556,6.2521 12.67,4.8291 11.816,2.8571 L11.816,2.8571 Z M12.333,1.0061 C12.575,3.3491 14.442,5.2171 16.785,5.4601 C16.544,3.1161 14.676,1.2481 12.333,1.0061 L12.333,1.0061 Z M11.3,1.0061 C8.956,1.2491 7.089,3.1161 6.847,5.4601 C9.19,5.2171 11.058,3.3491 11.3,1.0061 L11.3,1.0061 Z"/>
</svg>
