<svg xmlns="http://www.w3.org/2000/svg" width="24" height="24" viewBox="0 0 24 24">
  <path fill="#FFF" d="M23.296875,4 C23.6528281,4 23.9470208,4.26452995 23.9935811,4.60771777 L24,4.703125 L24,20.171875 C24,20.5278281 23.7354701,20.8220208 23.3922822,20.8685811 L23.296875,20.875 L0.703125,20.875 C0.347171875,20.875 0.0529791667,20.6104701 0.00641894531,20.2672822 L0,20.171875 L0,4.703125 C0,4.34717187 0.264529948,4.05297917 0.607717773,4.00641895 L0.703125,4 L23.296875,4 Z M22.59375,8.21875 L1.40625,8.21875 L1.40625,19.46875 L22.59375,19.46875 L22.59375,8.21875 Z M6.375,13.84375 C8.31351563,13.84375 9.890625,15.4208594 9.890625,17.359375 C9.890625,17.7153281 9.62609505,18.0095208 9.28290723,18.0560811 L9.1875,18.0625 L3.5625,18.0625 C3.1741875,18.0625 2.859375,17.7476875 2.859375,17.359375 C2.859375,15.4208594 4.43648438,13.84375 6.375,13.84375 Z M20.4375,16.65625 C20.8258125,16.65625 21.140625,16.9710625 21.140625,17.359375 C21.140625,17.7153281 20.8760951,18.0095208 20.5329072,18.0560811 L20.4375,18.0625 L12,18.0625 C11.6116875,18.0625 11.296875,17.7476875 11.296875,17.359375 C11.296875,17.0034219 11.5614049,16.7092292 11.9045928,16.6626689 L12,16.65625 L20.4375,16.65625 Z M6.375,15.25 C5.51560547,15.25 4.77457489,15.7665909 4.44618307,16.5055751 L4.38609375,16.65625 L8.36390625,16.65625 C8.07370313,15.8377656 7.2916875,15.25 6.375,15.25 Z M20.4375,13.84375 C20.8258125,13.84375 21.140625,14.1585625 21.140625,14.546875 C21.140625,14.9028281 20.8760951,15.1970208 20.5329072,15.2435811 L20.4375,15.25 L12,15.25 C11.6116875,15.25 11.296875,14.9351875 11.296875,14.546875 C11.296875,14.1909219 11.5614049,13.8967292 11.9045928,13.8501689 L12,13.84375 L20.4375,13.84375 Z M6.375,9.625 C7.53810937,9.625 8.484375,10.5712656 8.484375,11.734375 C8.484375,12.8974844 7.53810937,13.84375 6.375,13.84375 C5.21189062,13.84375 4.265625,12.8974844 4.265625,11.734375 C4.265625,10.5712656 5.21189063,9.625 6.375,9.625 Z M6.375,11.03125 C5.98729688,11.03125 5.671875,11.3466719 5.671875,11.734375 C5.671875,12.1220781 5.98729688,12.4375 6.375,12.4375 C6.76270312,12.4375 7.078125,12.1220781 7.078125,11.734375 C7.078125,11.3466719 6.76270313,11.03125 6.375,11.03125 Z M12,11.03125 C12.3883252,11.03125 12.703125,11.3460498 12.703125,11.734375 C12.703125,12.1227002 12.3883252,12.4375 12,12.4375 C11.6116748,12.4375 11.296875,12.1227002 11.296875,11.734375 C11.296875,11.3460498 11.6116748,11.03125 12,11.03125 Z M14.8125,11.03125 C15.2008252,11.03125 15.515625,11.3460498 15.515625,11.734375 C15.515625,12.1227002 15.2008252,12.4375 14.8125,12.4375 C14.4241748,12.4375 14.109375,12.1227002 14.109375,11.734375 C14.109375,11.3460498 14.4241748,11.03125 14.8125,11.03125 Z M17.625,11.03125 C18.0133252,11.03125 18.328125,11.3460498 18.328125,11.734375 C18.328125,12.1227002 18.0133252,12.4375 17.625,12.4375 C17.2366748,12.4375 16.921875,12.1227002 16.921875,11.734375 C16.921875,11.3460498 17.2366748,11.03125 17.625,11.03125 Z M20.4375,11.03125 C20.8258252,11.03125 21.140625,11.3460498 21.140625,11.734375 C21.140625,12.1227002 20.8258252,12.4375 20.4375,12.4375 C20.0491748,12.4375 19.734375,12.1227002 19.734375,11.734375 C19.734375,11.3460498 20.0491748,11.03125 20.4375,11.03125 Z M22.59375,5.40625 L1.40625,5.40625 L1.40625,6.8125 L22.59375,6.8125 L22.59375,5.40625 Z"/>
</svg>
