<svg xmlns="http://www.w3.org/2000/svg" width="40" height="40" viewBox="0 0 40 40">
  <path fill="#C3E3F0" fill-rule="evenodd" d="M418.625396,205 L419.905,206.279604 L381.279604,244.913474 L380,243.63387 L384.211677,239.422194 L383.245618,239.422194 C381.491459,239.422194 380.059319,237.990054 380.059319,236.235895 L380.059319,236.235895 L380.059319,208.254092 C380.059319,206.491459 381.491459,205.067794 383.245618,205.067794 L383.245618,205.067794 L411.227421,205.067794 C412.98158,205.067794 414.413719,206.499933 414.413719,208.254092 L414.413719,208.254092 L414.413719,209.211677 L418.625396,205 Z M417.964409,210.779403 C419.066054,211.279381 419.837206,212.389501 419.837206,213.677579 L419.837206,213.677579 L419.837206,241.659382 C419.837206,243.422015 418.405067,244.845681 416.650908,244.845681 L416.650908,244.845681 L388.669105,244.845681 C387.381027,244.845681 386.270907,244.074529 385.770929,242.972883 L385.770929,242.972883 L387.296285,241.447527 L387.296285,241.659382 C387.296285,242.413586 387.906427,243.032202 388.669105,243.032202 L388.669105,243.032202 L416.650908,243.032202 C417.405111,243.032202 418.023728,242.413586 418.023728,241.659382 L418.023728,241.659382 L418.023728,213.677579 C418.023728,212.923375 417.413586,212.304759 416.650908,212.304759 L416.650908,212.304759 L416.439053,212.304759 Z M414.413719,214.330092 L414.413719,236.235895 C414.413719,237.998528 412.98158,239.422194 411.227421,239.422194 L411.227421,239.422194 L389.321618,239.422194 L391.126622,237.608715 L411.235895,237.608715 C411.990099,237.608715 412.608715,236.990099 412.608715,236.235895 L412.608715,236.235895 L412.608715,216.135097 L414.413719,214.330092 Z M411.227421,206.881272 L383.245618,206.881272 C382.491414,206.881272 381.872798,207.499889 381.872798,208.254092 L381.872798,208.254092 L381.872798,236.235895 C381.872798,236.990099 382.48294,237.608715 383.245618,237.608715 L383.245618,237.608715 L383.245618,237.617189 L386.016681,237.617189 L391.440168,232.193702 L384.584541,232.193702 C384.084564,232.193702 383.677802,231.786941 383.677802,231.286963 L383.677802,231.286963 L383.677802,209.593016 C383.677802,209.093038 384.084564,208.686276 384.584541,208.686276 L384.584541,208.686276 L409.888498,208.686276 C410.388475,208.686276 410.795237,209.093038 410.795237,209.593016 L410.795237,209.593016 L410.795237,212.830159 L412.600241,211.025155 L412.600241,208.254092 C412.600241,207.499889 411.990099,206.881272 411.227421,206.881272 L411.227421,206.881272 Z M410.803711,217.948575 L410.803711,231.278489 C410.803711,231.778467 410.396949,232.185228 409.896972,232.185228 L409.896972,232.185228 L396.558584,232.185228 L398.363588,230.380224 L408.998707,230.380224 L408.998707,226.168547 L406.151376,222.60091 L407.481825,221.270461 L408.998707,223.151733 L408.998707,219.753579 L410.803711,217.948575 Z M403.066768,218.753624 L394.762054,227.058338 C394.59257,227.236296 394.355292,227.321038 394.126489,227.321038 C393.897685,227.321038 393.668882,227.236296 393.490924,227.058338 C393.143482,226.702422 393.143482,226.126176 393.490924,225.778734 L393.490924,225.778734 L394.660363,224.609295 L391.728291,221.634851 L385.482806,226.312609 L385.482806,230.380224 L393.245172,230.380224 L403.863343,219.753579 L403.066768,218.753624 Z M408.981758,210.499755 L385.482806,210.499755 L385.482806,224.058472 L391.270684,219.719683 C391.6266,219.448508 392.126578,219.482405 392.448597,219.804425 L392.448597,219.804425 L395.939967,223.338165 L402.532893,216.745239 C402.719326,216.558807 402.982026,216.46559 403.236252,216.482539 C403.498952,216.499487 403.73623,216.6266 403.897239,216.838455 L403.897239,216.838455 L405.185317,218.440079 L408.981758,214.643638 L408.981758,210.499755 Z M396.32978,212.296285 C398.329691,212.296285 399.948263,213.914857 399.948263,215.914767 C399.948263,217.914678 398.321217,219.53325 396.32978,219.53325 C394.338344,219.53325 392.711298,217.914678 392.711298,215.914767 C392.711298,213.914857 394.329869,212.296285 396.32978,212.296285 Z M396.32978,214.109763 C395.338299,214.109763 394.524776,214.923286 394.524776,215.914767 C394.524776,216.906249 395.338299,217.719772 396.32978,217.719772 C397.321261,217.719772 398.134784,216.914723 398.134784,215.914767 C398.134784,214.923286 397.329736,214.109763 396.32978,214.109763 Z" transform="translate(-380 -205)"/>
</svg>
