<svg xmlns="http://www.w3.org/2000/svg" width="24" height="24" viewBox="0 0 24 24">
  <path fill="#FFF" fill-rule="evenodd" d="M19.2909013,3.6826669 C23.7178575,7.81087034 23.9603235,14.7541883 19.83212,19.1811445 C15.7039166,23.6081007 8.76059864,23.8505667 4.33364245,19.7223633 C3.15562484,18.6238441 2.27863826,17.317715 1.69851838,15.9183275 C1.69851838,15.9183275 1.69851838,15.9183275 1.69851838,15.9183275 C1.56977963,15.607779 1.7171656,15.2516662 2.02771416,15.1229275 C2.12903325,15.0809254 2.23981867,15.0670795 2.34835859,15.0828535 C2.4178803,15.0929028 2.481379,15.1012759 2.53886239,15.1079198 C5.87873528,15.4939388 9.34400231,14.3494101 11.8122719,11.7025151 C14.2177528,9.12295264 15.1337526,5.69831383 14.6067199,2.46678432 C14.6067199,2.46678432 14.6067199,2.46678432 14.6067199,2.46678432 C14.5278733,1.98333173 14.8558712,1.52749813 15.3393237,1.44865146 C15.4924186,1.42368311 15.6493846,1.43930243 15.7945569,1.49395067 C15.8309644,1.50765254 15.8657327,1.52111376 15.898863,1.53433147 C17.1193741,2.02126904 18.2744202,2.73478299 19.2909013,3.6826669 Z"/>
</svg>
