<svg xmlns="http://www.w3.org/2000/svg" width="24" height="24" viewBox="0 0 24 24">
  <path fill="#FFF" d="M12.4230769,22 C10.6011627,22 9.0260285,20.6544616 8.6579682,18.9236788 L5.32461538,18.9230769 C4.38730769,18.9230769 3.55346154,18.35 3.2,17.4630769 C2.86826923,16.6305048 3.03312049,15.7080138 3.61595928,15.064808 L3.73807692,14.94 C4.50230769,14.2173077 4.94038462,13.1992308 4.94038462,12.1469231 L4.94,10.2519231 C4.94038462,10.0119231 4.95153846,9.77192308 4.97384615,9.53884615 C5.30836106,6.00403444 8.2010049,3.18828472 11.6536347,2.81234605 L11.6538462,2.76923077 C11.6538462,2.34461538 11.9984615,2 12.4230769,2 C12.8476923,2 13.1923077,2.34461538 13.1923077,2.76923077 L13.1925977,2.80891033 C16.8496286,3.19146576 19.7765526,6.3156416 19.9012457,10.0067431 L19.9053846,10.2519231 L19.905,12.1469231 C19.905,13.1237088 20.2827296,14.0716425 20.948269,14.7807059 L21.1073077,14.9392308 C21.7880769,15.5838462 21.9996154,16.5734615 21.6465385,17.46 C21.2926923,18.3488462 20.4580769,18.9230769 19.5207692,18.9230769 L16.1881856,18.9236788 C15.8201253,20.6544616 14.2449911,22 12.4230769,22 Z M14.5932958,18.9237235 L10.2528581,18.9237235 C10.5779066,19.8095445 11.4407019,20.4615385 12.4230769,20.4615385 C13.3476652,20.4615385 14.1663281,19.8839936 14.5304372,19.0775325 L14.5932958,18.9237235 Z M19.5207692,17.3846154 C19.9385769,17.3846154 20.1311423,17.0786846 20.1991235,16.9331027 L20.2312507,16.8531718 L20.2312507,16.8531718 L20.2610161,16.741634 C20.291613,16.5876509 20.2947115,16.3590684 20.133333,16.1492946 L20.0492308,16.0573077 L20.0492308,16.0573077 C19.0428959,15.1045475 18.4402875,13.7858784 18.3728745,12.4062444 L18.3667444,12.131 L18.3669231,10.2519231 C18.3669231,7.12576923 15.8284615,4.46192308 12.7084615,4.31423077 C9.58461538,4.17 6.79961538,6.57576923 6.50538462,9.68384615 L6.48548077,9.96572115 L6.48548077,9.96572115 L6.47774444,10.266 L6.47884615,12.1469231 L6.47884615,12.1469231 C6.47884615,13.5337104 5.93543386,14.8779106 4.98007836,15.8745794 L4.79615385,16.0573077 C4.54346154,16.2967308 4.54995192,16.5826683 4.58846154,16.759351 L4.61638533,16.8592441 L4.61638533,16.8592441 L4.62923077,16.8938462 C4.67042308,16.997 4.82501538,17.312 5.19366577,17.3739685 L5.32461538,17.3846154 L19.5207692,17.3846154 Z"/>
</svg>
