<svg xmlns="http://www.w3.org/2000/svg" width="24" height="24" viewBox="0 0 24 24">
  <path fill="#FFF" d="M12.5305625,0 C12.8865156,0 13.1807083,0.264529948 13.2272686,0.607717773 L13.2336875,0.73246875 C13.2336875,1.129875 13.5569844,1.453125 13.9543437,1.453125 C14.3186328,1.453125 14.62061,1.18150521 14.6684098,0.830131239 L14.675,0.703125 C14.675,0.347171875 14.9395299,0.0529791667 15.2827178,0.00641894531 L15.378125,0 L20.3046875,0 C20.6606406,0 20.9548333,0.264529948 21.0013936,0.607717773 L21.0078125,0.703125 L21.0078125,20.4375 C21.0078125,20.7934531 20.7432826,21.0876458 20.4000947,21.1342061 L20.3046875,21.140625 L17.4921875,21.140625 L17.4921875,21.890625 C17.4921875,23.0031644 16.6264171,23.9173061 15.5332327,23.9946936 L15.3828125,24 L2.7265625,24 C2.37060937,24 2.07641667,23.7354701 2.02985645,23.3922822 L2.0234375,23.296875 L2.0234375,5.015625 C2.0234375,4.65967187 2.28796745,4.36547917 2.63115527,4.31891895 L2.7265625,4.3125 L6.9453125,4.3125 L6.9453125,0.703125 C6.9453125,0.347171875 7.20984245,0.0529791667 7.55303027,0.00641894531 L7.6484375,0 L12.5305625,0 Z M15.3828125,5.71875 L3.4296875,5.71875 L3.4296875,22.59375 L15.3828125,22.59375 C15.738207,22.59375 16.0328652,22.328708 16.0795069,21.9859042 L16.0859375,21.890625 L16.0859375,6.421875 C16.0859375,6.06648047 15.8208955,5.77182227 15.4780917,5.72518058 L15.3828125,5.71875 Z M13.2710938,18.3304687 C13.6594063,18.3304687 13.9742188,18.6452812 13.9742188,19.0335937 C13.9742188,19.3895469 13.7096888,19.6837396 13.366501,19.7302998 L13.2710938,19.7367187 L6.23984375,19.7367187 C5.85153125,19.7367187 5.53671875,19.4219062 5.53671875,19.0335937 C5.53671875,18.6776406 5.8012487,18.3834479 6.14443652,18.3368877 L6.23984375,18.3304687 L13.2710938,18.3304687 Z M19.6015625,9.14676563 L17.4921875,9.14676563 L17.4921875,19.734375 L19.6015625,19.734375 L19.6015625,9.14676563 Z M9.7578125,7.74051563 C12.2904688,7.74051563 14.351,9.801 14.351,12.3336563 C14.351,14.8655625 12.2918281,16.9254375 9.76025,16.92675 C7.28928125,16.9491094 5.16471875,14.9083125 5.16471875,12.3336563 C5.16471875,9.87996429 7.0987038,7.86968089 9.52233784,7.74666945 L9.7578125,7.74051563 Z M7.75592188,13.0417969 L6.65121875,13.0417969 C6.86384375,13.9747969 7.486625,14.7529219 8.3195,15.1761094 C8.06070982,14.5900246 7.88560587,13.976802 7.79448333,13.3539464 L7.75592188,13.0417969 Z M12.8644063,13.0417969 L11.7597031,13.0417969 C11.6860625,13.7716406 11.4980469,14.4923438 11.196125,15.1761094 C11.9695089,14.7831496 12.5617406,14.0841467 12.8126388,13.239282 L12.8644063,13.0417969 Z M10.3438906,13.0417969 L9.17173438,13.0417969 C9.25371875,13.6904063 9.44951563,14.3274844 9.7578125,14.9227969 C10.022067,14.4125692 10.2036339,13.8716221 10.3017754,13.3189954 L10.3438906,13.0417969 Z M11.1960781,9.49120313 C11.4560335,10.0799397 11.6315105,10.696124 11.7222731,11.3219266 L11.7605938,11.6355469 L12.8667031,11.6355469 C12.6562813,10.6980469 12.032,9.91589063 11.1960781,9.49120313 Z M9.7578125,9.74446875 C9.49219196,10.2573884 9.30998214,10.8013029 9.21215716,11.3568775 L9.17028125,11.6355469 L10.3453438,11.6355469 C10.2640625,10.9834219 10.0677031,10.3428281 9.7578125,9.74446875 Z M8.31954688,9.49120313 C7.54333371,9.8855558 6.94960658,10.5881341 6.70027316,11.4371054 L6.64892188,11.6355469 L7.75503125,11.6355469 C7.82796875,10.9022813 8.01626563,10.1781094 8.31954688,9.49120313 Z M11.9367969,1.40625 L8.3515625,1.40625 L8.3515625,4.3125 L15.3828125,4.3125 C16.4953519,4.3125 17.4094936,5.17827044 17.4868811,6.27145477 L17.4921875,6.421875 L17.4921875,7.74051563 L19.6015625,7.74051563 L19.6015625,1.40625 L15.9718906,1.40625 C15.6894688,2.24985937 14.8917969,2.859375 13.9543438,2.859375 C13.0754814,2.859375 12.3194738,2.32366791 11.9956974,1.56159182 L11.9367969,1.40625 Z"/>
</svg>
