<svg xmlns="http://www.w3.org/2000/svg" width="24" height="24" viewBox="0 0 24 24">
  <path fill="#FFF" fill-rule="evenodd" d="M12,1.33333333 C17.8910373,1.33333333 22.6666667,6.10896267 22.6666667,12 C22.6666667,17.8910373 17.8910373,22.6666667 12,22.6666667 C10.9584426,22.6666667 9.95175227,22.5173826 9.00015849,22.2390437 L9,15.6666667 L12.6,15.6666667 L12.8340906,15.6635448 C15.865,15.5824167 18.4,13.9216667 18.4,10.8666667 C18.3350427,7.94358974 16.2447513,6.15976331 13.054158,6.07020685 L12.8,6.06666667 L7.26666667,6.06666667 L7.26659594,21.5615451 C3.75039944,19.8175233 1.33333333,16.1910296 1.33333333,12 C1.33333333,6.10896267 6.10896267,1.33333333 12,1.33333333 Z M12.6666667,7.6 C14.9892473,7.6 16.5626084,8.59895942 16.6616987,10.5968783 L16.6666667,10.8666667 L16.6616965,11.0518658 C16.5658443,12.8235418 15.0904859,14.0494377 12.8359795,14.1291956 L12.6,14.1333333 L8.93333333,14.1333333 L8.93333333,7.6 L12.6666667,7.6 Z"/>
</svg>
