<svg xmlns="http://www.w3.org/2000/svg" width="24" height="24" viewBox="0 0 24 24">
  <path fill="#FFF" fill-rule="evenodd" d="M17.5555556,1.33333333 C18.1259259,1.33333333 18.5995062,1.76888889 18.6601152,2.32381893 L18.6666667,2.44444444 L18.6666667,3.55555556 L19.7777778,3.55555556 C20.9468599,3.55555556 21.9126234,4.47048939 21.9943928,5.61968165 L22,5.77777778 L22,20.4444444 C22,21.6135266 21.0850662,22.5792901 19.9358739,22.6610595 L19.7777778,22.6666667 L4.22222222,22.6666667 C3.04251208,22.6666667 2.08645243,21.7517328 2.00554688,20.6025406 L2,20.4444444 L2.01111111,5.77777778 C2.01111111,4.60869565 2.90571309,3.64293216 4.06286129,3.56116271 L4.22222222,3.55555556 L5.33333333,3.55555556 L5.33333333,2.44444444 C5.33333333,1.83333333 5.83333333,1.33333333 6.44444444,1.33333333 C7.01481481,1.33333333 7.48839506,1.76888889 7.54900412,2.32381893 L7.55555556,2.44444444 L7.55555556,3.55555556 L16.4444444,3.55555556 L16.4444444,2.44444444 C16.4444444,1.83333333 16.9444444,1.33333333 17.5555556,1.33333333 Z M20,8.66666667 L4,8.66666667 L4,19.5872408 C4,20.1413461 4.43076923,20.6014214 4.97960114,20.6603021 L5.0989011,20.6666667 L18.9010989,20.6666667 C19.4652015,20.6666667 19.9335775,20.2435317 19.9935206,19.7044265 L20,19.5872408 L20,8.66666667 Z M14.3849897,10.7607625 L16.6656915,14.0356163 C16.9133105,14.3911719 16.9133105,14.8800607 16.6656915,15.2356163 L14.3849897,18.5104701 C14.0772882,18.9522979 13.4952584,19.0418409 13.0849897,18.7104701 C12.6747211,18.3790992 12.5915739,17.7522979 12.8992754,17.3104701 L14.7621201,14.6356163 L12.8992754,11.9607625 C12.5915739,11.5189347 12.6747211,10.8921333 13.0849897,10.5607625 C13.4952584,10.2293916 14.0772882,10.3189347 14.3849897,10.7607625 Z M9.21072072,10.7607625 L11.4914225,14.0356163 C11.7390415,14.3911719 11.7390415,14.8800607 11.4914225,15.2356163 L9.21072072,18.5104701 C8.90301922,18.9522979 8.3209894,19.0418409 7.91072072,18.7104701 C7.50045205,18.3790992 7.41730493,17.7522979 7.72500644,17.3104701 L9.58785105,14.6356163 L7.72500644,11.9607625 C7.41730493,11.5189347 7.50045205,10.8921333 7.91072072,10.5607625 C8.3209894,10.2293916 8.90301922,10.3189347 9.21072072,10.7607625 Z"/>
</svg>
