<svg xmlns="http://www.w3.org/2000/svg" width="24" height="24" viewBox="0 0 24 24">
  <path fill="#FFF" fill-rule="evenodd" d="M12,0 C18.627417,0 24,5.372583 24,12 C24,18.627417 18.627417,24 12,24 C5.372583,24 0,18.627417 0,12 C0,5.372583 5.372583,0 12,0 Z M12,1 C5.92486775,1 1,5.92486775 1,12 C1,18.0751322 5.92486775,23 12,23 C18.0751322,23 23,18.0751322 23,12 C23,5.92486775 18.0751322,1 12,1 Z M15.64,11 C15.8388225,11 16,11.1611775 16,11.36 L16,12.64 C16,12.8388225 15.8388225,13 15.64,13 L8.36,13 C8.16117749,13 8,12.8388225 8,12.64 L8,11.36 C8,11.1611775 8.16117749,11 8.36,11 L15.64,11 Z"/>
</svg>
