<svg xmlns="http://www.w3.org/2000/svg" width="24" height="24" viewBox="0 0 24 24">
  <path fill="#FFF" fill-rule="evenodd" d="M12.2154249,19.9980288 C10.0971522,20.0547751 7.96067349,19.2743841 6.34314462,17.6568552 C5.35202291,16.6662829 4.64246001,15.4322077 4.28411251,14.081485 L4.20768323,13.7677668 L6.27243503,13.7677668 C6.5411356,14.6728635 7.04318034,15.5284638 7.75735819,16.2426417 C9.64998096,18.1352644 12.4997048,18.4974507 14.7586435,17.3292021 L14.9825108,17.2072757 C15.1335931,17.1207424 15.2816945,17.027107 15.4263255,16.9263696 L15.6406081,16.7699368 L15.8190668,16.6278194 L15.8190668,16.6278194 L15.8927966,16.5659086 C15.9520149,16.5153718 16.010238,16.4637032 16.0674325,16.4109363 L16.2426396,16.2426417 L16.3881109,16.0920356 C17.3880917,15.0201665 18,13.5815427 18,12 C18,11.3846495 17.9073662,10.7909347 17.7352827,10.23204 C17.6504464,9.9659179 17.5497564,9.70397103 17.4304968,9.44862125 L17.3049468,9.19556018 L17.1627256,8.9409878 L17.1627256,8.9409878 L16.9806961,8.65335259 L16.855061,8.47331077 L16.6706521,8.23298121 L16.6706521,8.23298121 L16.4345303,7.95829 L16.4345303,7.95829 L16.2426406,7.7573592 L16.0178443,7.54382202 L15.840749,7.39017936 L15.6412298,7.23080731 C15.4994661,7.12240771 15.3527274,7.02018571 15.2014158,6.92454332 L15.0501768,6.83207398 C12.8238475,5.5177269 9.92629097,5.76417936 7.95168438,7.57143134 L7.75735927,7.7573592 L9.87867961,9.87867955 L4.22182536,9.87867955 L4.22182536,4.2218253 L6.34314571,6.34314564 C7.82783741,4.85845393 9.74974265,4.07904828 11.6934747,4.00492867 L12,4 L12.2843372,4.00495871 L12.2843372,4.00495871 L12.5012124,4.01482197 L12.5012124,4.01482197 L12.8796459,4.04740219 L12.8796459,4.04740219 L13.031051,4.06582742 L13.031051,4.06582742 L13.2390741,4.09517722 L13.2390741,4.09517722 L13.5111642,4.14250356 L13.5111642,4.14250356 L13.8489225,4.21468359 L13.8489225,4.21468359 L14.1700431,4.29781754 L14.1700431,4.29781754 L14.4182991,4.37201354 L14.4182991,4.37201354 C14.5454222,4.41207791 14.6713411,4.45540275 14.7963319,4.50196043 L15.0550085,4.60396326 L15.0550085,4.60396326 L15.1242885,4.63305642 C15.8592542,4.94404141 16.5572453,5.37060526 17.19085,5.91213957 L17.311075,6.01715582 L17.311075,6.01715582 L17.5046513,6.19490786 L17.6824239,6.36881807 L17.6824239,6.36881807 L17.8940769,6.59071388 L17.8940769,6.59071388 L18.1099172,6.83589313 L18.1099172,6.83589313 C19.2892149,8.2295489 20,10.0317681 20,12 C20,14.1039419 19.1878181,16.0181886 17.8598766,17.4463178 L17.632123,17.6814801 L17.632123,17.6814801 L17.429145,17.8759143 L17.429145,17.8759143 L17.29586,17.9962805 L17.29586,17.9962805 C17.0482211,18.2156832 16.7902675,18.4168733 16.5237011,18.6000908 L16.3285341,18.730046 L16.3285341,18.730046 L16.2582681,18.7737665 C15.9755342,18.9527402 15.6838202,19.1118119 15.3852206,19.2513126 L15.0369262,19.4034277 L15.0369262,19.4034277 L14.6520932,19.5501901 L14.6520932,19.5501901 L14.3134112,19.6604121 L14.3134112,19.6604121 L14.1202442,19.7160098 L14.1202442,19.7160098 C13.9400895,19.7654438 13.7582715,19.8084503 13.5754248,19.8450221 L13.3543584,19.8860215 L13.3543584,19.8860215 L12.9659565,19.9422774 L12.9659565,19.9422774 L12.62565,19.9764944 L12.62565,19.9764944 L12.2154249,19.9980288 Z"/>
</svg>
