<svg xmlns="http://www.w3.org/2000/svg" width="24" height="24" viewBox="0 0 24 24">
  <path fill="#FFF" d="M23.7167813,11.1338906 C23.1352969,10.1266875 21.8427188,9.7801875 20.8353281,10.3618125 L12.7040625,15.0563906 L12.7040625,7.21875 C12.7040625,7.21875 18.5097188,7.21045312 20.2690312,7.20473437 C20.4919687,7.20398437 20.7013594,7.09757812 20.8333594,6.91790625 C20.9653594,6.73823437 21.0043125,6.506625 20.9384062,6.29367187 C20.38575,4.50853125 19.2084844,2.90334375 17.6234062,1.77384375 C15.9950156,0.613359375 14.0508281,-1.77635684e-15 12.0009375,-1.77635684e-15 C9.95104687,-1.77635684e-15 8.00685937,0.613359375 6.37846875,1.77379687 C4.7934375,2.90334375 3.616125,4.50848437 3.06346875,6.293625 C2.9975625,6.50653125 3.03651562,6.73814062 3.16846875,6.91776562 C3.300375,7.0974375 3.50971875,7.20389062 3.73265625,7.2046875 C5.4478125,7.21078125 11.2843125,7.21875 11.2843125,7.21875 L11.2978125,7.21875 L11.2978125,15.328125 L2.11026562,15.328125 C0.947203125,15.328125 0.0009375,16.2743906 0.0009375,17.4375 C0.0009375,18.4723125 0.750140625,19.3348125 1.73442187,19.5126563 L1.73442187,23.296875 C1.73442187,23.5480781 1.8684375,23.7802031 2.08598437,23.9057813 C2.19473437,23.9685938 2.31614062,24 2.43754687,24 C2.55895312,24 2.68035937,23.9685938 2.78910937,23.9057813 L10.3390312,19.546875 L11.2978594,19.546875 L11.2978594,22.40625 C11.2978594,22.7945625 11.6126719,23.109375 12.0009844,23.109375 C12.3892969,23.109375 12.7041094,22.7945625 12.7041094,22.40625 L12.7041094,19.546875 L21.1406719,19.546875 L21.1406719,23.2967813 C21.1406719,23.6850938 21.4554844,24 21.8437969,24 C22.2321094,24 22.5469219,23.6850938 22.5469219,23.2967813 L22.5469219,14.2449844 L22.9447031,14.0152969 C23.4313125,13.734375 23.7797344,13.2793125 23.9258906,12.7340625 C24.072,12.1887656 23.9977031,11.6205 23.7167812,11.1338906 L23.7167813,11.1338906 Z M9.75529687,5.81165625 C9.95667187,4.57171875 10.2846562,3.4768125 10.7000625,2.67328125 C11.1162656,1.8680625 11.5904531,1.40625 12.0009375,1.40625 C12.4114219,1.40625 12.8856094,1.8680625 13.3018125,2.67323437 C13.7172187,3.47671875 14.0451562,4.57153125 14.2465312,5.81132812 C13.6215,5.81189875 10.2530156,5.81207813 9.75529687,5.81165625 Z M19.2418594,5.80157813 C18.0352031,5.80504688 16.8456563,5.80771875 15.6696094,5.80954688 C15.4488281,4.32154688 15.0659063,3.02348438 14.5510781,2.02748438 C14.5024688,1.93340625 14.4533906,1.84415625 14.4039844,1.75823438 C16.5413437,2.39732813 18.326625,3.86479688 19.2418594,5.80157813 L19.2418594,5.80157813 Z M9.59798437,1.7581875 C9.548625,1.84410938 9.4995,1.93340625 9.45089062,2.02748438 C8.93601562,3.02357813 8.55309375,4.32178125 8.3323125,5.80996875 C7.13385937,5.8081875 5.94417187,5.80546875 4.76001562,5.8018125 C5.67510937,3.86475 7.4604375,2.39728125 9.59798437,1.7581875 Z M3.14071875,22.0790625 L3.14071875,19.546875 L7.52653125,19.546875 L3.14071875,22.0790625 Z M21.1406719,18.140625 L15.7995469,18.140625 L21.1406719,15.0569062 L21.1406719,18.140625 Z M22.5675469,12.370125 C22.5186562,12.5526094 22.402875,12.7043437 22.2415781,12.7974844 L13.1483438,18.0474844 C13.0036406,18.1310156 12.9173438,18.1403906 12.621,18.1405781 L2.11026563,18.1405781 C1.7225625,18.1405781 1.4071875,17.8251562 1.4071875,17.4374531 C1.4071875,17.04975 1.72260938,16.7343281 2.11026563,16.7343281 L12.4217813,16.7343281 C12.5452031,16.7343281 12.6664688,16.7018438 12.7733438,16.6401094 L21.5384531,11.5795781 C21.8741719,11.3857969 22.3050469,11.5011562 22.4989219,11.8369687 C22.5921854,11.9983125 22.6164375,12.1876406 22.5675469,12.370125 L22.5675469,12.370125 Z"/>
</svg>
