<svg xmlns="http://www.w3.org/2000/svg" width="24" height="24" viewBox="0 0 24 24">
  <path fill="#FFF" d="M12,2 C12.4068359,2 12.8100391,2.0246875 13.2080859,2.07273438 C13.2623438,2.07246094 13.3158203,2.07949219 13.3671094,2.09371094 C15.5115234,2.38785156 17.4973047,3.37128906 19.0629687,4.93703125 C20.9569531,6.83097656 22,9.33933594 22,12 C22,12.7253125 21.9207031,13.4476172 21.7660937,14.1503516 C21.9173828,14.5776563 22,15.0371484 22,15.515625 C22,17.0755774 21.1248086,18.4549019 19.8061229,19.1475816 L19.6235937,19.2377344 L18.4240625,21.6729688 C18.3254687,21.8732031 18.1216406,22 17.8984375,22 C17.7071205,22 17.5300383,21.9068431 17.4212842,21.7541317 L17.3728516,21.6729688 L16.8938672,20.7005859 C15.4900921,21.4914676 13.9424298,21.9339822 12.3647238,21.9931634 L11.9998438,22 L11.6676091,21.9945806 C9.13096558,21.9115896 6.75191243,20.8778874 4.93703125,19.0629688 C3.04304687,17.1690234 2,14.6606641 2,12 C2,6.50152344 6.48542969,2 12,2 Z M14.7462109,18.1394531 C13.9170312,19.0337891 13.3025391,19.9066016 12.8873828,20.7798828 C13.9744492,20.6632695 15.0566746,20.3361195 16.0479174,19.8243465 L16.3748438,19.6469531 L16.1732813,19.2377344 C15.6208594,18.9817969 15.1355078,18.6075781 14.7462109,18.1394531 Z M4.56796875,7.24011719 C3.6846875,8.61445313 3.171875,10.2484375 3.171875,12 C3.171875,16.5386328 6.61480469,20.2877344 11.0259766,20.7741016 C10.5134375,19.7267969 10.2421875,18.5466016 10.2421875,17.3559766 C10.2421875,17.1271354 10.1679416,16.9097418 10.0308205,16.7312614 L9.94109375,16.6290625 L9.24195313,15.9299219 C9.03855035,15.7265191 9.01595004,15.4108015 9.1741522,15.1824399 L9.24195313,15.1012891 L9.59121094,14.7520313 C9.87326953,14.4699375 9.96418711,14.0554277 9.83503148,13.6863381 L9.78378906,13.5652344 L9.20175781,12.4011719 L6.67,10.7133594 C5.92082031,10.2139063 5.66597656,9.21808594 6.08988281,8.44628906 C6.21421875,8.21988281 6.15574219,8.00972656 6.10984375,7.90460938 C6.03845703,7.74116536 5.90538411,7.61119575 5.74344835,7.54252803 L5.64308594,7.50890625 L4.56796875,7.24011719 Z M17.8984375,12.5859375 C16.2830078,12.5859375 14.96875,13.9001953 14.96875,15.515625 C14.96875,16.7076953 15.6803516,17.7888281 16.819375,18.2403906 C16.9544922,18.2939453 17.0648828,18.3957812 17.1291016,18.5261719 L17.8984375,20.0880469 L18.6677734,18.5261328 C18.7319922,18.3957812 18.8423828,18.2939062 18.9775,18.2403516 C20.1016797,17.7947266 20.828125,16.7251953 20.828125,15.515625 C20.828125,13.9001953 19.5138672,12.5859375 17.8984375,12.5859375 Z M10.6898047,12.5859375 L10.6043359,12.5859375 L10.8319531,13.0411719 C11.2149844,13.8071979 11.117067,14.7137247 10.600608,15.376211 L10.4835547,15.5142969 L10.7697266,15.8004687 C11.1852344,16.2159766 11.4140625,16.7683984 11.4140625,17.3560156 C11.4140625,18.2601953 11.6073047,19.1894531 11.9620703,20.0077344 C12.4629687,19.0378516 13.1760156,18.0770312 14.1154297,17.1017187 C13.9060938,16.6032422 13.796875,16.0664844 13.796875,15.515625 C13.796875,15.288125 13.8157813,15.065 13.8516016,14.8475 C13.1463053,14.6721875 12.5281223,14.2263121 12.1568802,13.6070282 L12.061875,13.4339062 C11.8221452,12.9544466 11.3603982,12.641467 10.8346567,12.5926333 L10.6898047,12.5859375 Z M17.8984375,13.7578125 C18.8677344,13.7578125 19.65625,14.5463672 19.65625,15.515625 C19.65625,16.4848828 18.8676953,17.2734375 17.8984375,17.2734375 C16.9291797,17.2734375 16.140625,16.4848828 16.140625,15.515625 C16.140625,14.5463672 16.9291797,13.7578125 17.8984375,13.7578125 Z M17.8984375,14.9296875 C17.5753516,14.9296875 17.3125,15.1925391 17.3125,15.515625 C17.3125,15.8387109 17.5753516,16.1015625 17.8984375,16.1015625 C18.2215625,16.1015625 18.484375,15.8387109 18.484375,15.515625 C18.484375,15.1925391 18.2215234,14.9296875 17.8984375,14.9296875 Z M14.0827344,3.42070313 L14.41125,4.40582031 C14.7862124,5.50730769 13.9679195,6.63620672 12.8433535,6.72141569 L12.7069922,6.7265625 L12,6.7265625 C11.7092227,6.7265625 11.4672352,6.93947227 11.4217454,7.21758387 L11.4140625,7.3125 L11.4140625,7.70753906 C11.4140625,8.34013522 11.1056527,8.92430312 10.6177192,9.2363434 L10.4920703,9.30855469 C9.85339844,9.63609375 9.56182587,10.3318465 9.78803765,10.937831 L9.84023438,11.0576953 L10.0183984,11.4140625 L10.6898047,11.4140625 C11.7213281,11.4140625 12.6487109,11.9872266 13.1099609,12.9098438 C13.3182422,13.3263672 13.7380859,13.6302344 14.2085156,13.7257031 C14.8744531,12.3585156 16.278125,11.4140625 17.8983984,11.4140625 C18.0310286,11.4140625 18.1621484,11.4205208 18.2915495,11.4329745 L18.4843359,11.4560938 L18.4843359,10.828125 C18.4843359,10.5050391 18.2214844,10.2421875 17.8983984,10.2421875 C16.9776035,10.2421875 16.2198932,9.53051689 16.1464241,8.62833242 L16.1405859,8.484375 L16.1405859,7.79792969 C16.1405859,7.38708984 16.2805817,6.9977832 16.5380156,6.68444092 L16.6554688,6.55496094 L17.2884766,5.92195313 C17.3311328,5.87929688 17.367105,5.82988715 17.3948192,5.77624711 L17.43,5.69292969 L17.6006641,5.18097656 C16.6824467,4.42543679 15.6094644,3.85181205 14.4373027,3.51469005 L14.0827344,3.42070313 Z M18.5379688,6.07394531 C18.4689375,6.27669531 18.3622313,6.46689531 18.22537,6.63180531 L18.1171875,6.75054688 L17.4841406,7.38359375 C17.3956094,7.47215625 17.3388781,7.58404375 17.3197269,7.70537625 L17.3125,7.79792969 L17.3125,8.484375 C17.3125,8.80746094 17.5753516,9.0703125 17.8984375,9.0703125 C18.8192324,9.0703125 19.5769428,9.78198311 19.6504118,10.6841676 L19.65625,10.828125 L19.65625,11.7233594 L19.6541797,11.809375 C20.0841797,12.0139063 20.4732031,12.2909766 20.8052734,12.6248828 C20.8198828,12.4171875 20.828125,12.2087891 20.828125,12 C20.828125,9.72140625 19.9603125,7.64175781 18.5379688,6.07394531 Z M12,3.171875 C9.4458375,3.171875 7.141551,4.262207 5.5281261,6.00185084 L5.33007812,6.22265625 L5.92734375,6.37195313 C6.48398437,6.51113281 6.95371094,6.90871094 7.18378906,7.43550781 C7.40847656,7.95 7.38417969,8.52402344 7.11707031,9.01039063 C6.99832031,9.2266059 7.05558883,9.50325328 7.24352607,9.67791849 L7.32003906,9.73832031 L8.53769531,10.5500781 C8.52261719,9.63035156 9.04296875,8.73472656 9.95726562,8.26582031 C10.1033482,8.19088728 10.2083339,8.01536432 10.2353485,7.81147447 L10.2421875,7.7075 L10.2421875,7.31246094 C10.2421875,6.39170313 10.9538581,5.63399463 11.8560426,5.56052567 L12,5.5546875 L12.7069531,5.5546875 C13.078095,5.5546875 13.3799394,5.21768676 13.3226698,4.86757468 L13.3007031,4.77996094 L12.7759766,3.20636719 C12.5201953,3.18398438 12.2615234,3.171875 12,3.171875 Z"/>
</svg>
