<svg xmlns="http://www.w3.org/2000/svg" width="24" height="24" viewBox="0 0 24 24">
  <path fill="#FFF" d="M19.8409174,13.5258716 L17.4024771,11.0877064 C17.2733945,10.9587156 17.0984404,10.8862385 16.9159633,10.8862385 L12.7208257,10.8862385 L12.7208257,9.71981651 L15.4361468,9.71981651 C15.8161468,9.71981651 16.1242202,9.41183486 16.1242202,9.03174312 L16.1242202,4.15431193 C16.1242202,3.77422018 15.8161468,3.46623853 15.4361468,3.46623853 L12.7208257,3.46623853 L12.7208257,2.68807339 C12.7208257,2.30798165 12.4127523,2 12.0327523,2 C11.6527523,2 11.3446789,2.30798165 11.3446789,2.68807339 L11.3446789,3.46623853 L7.14908257,3.46623853 C6.9666055,3.46623853 6.79155963,3.5387156 6.66247706,3.66779817 L4.2240367,6.1066055 C3.95541284,6.3753211 3.95541284,6.81091743 4.2240367,7.07954128 L6.66247706,9.51825688 C6.79155963,9.64733945 6.96651376,9.71981651 7.14908257,9.71981651 L11.3446789,9.71981651 L11.3446789,10.8861468 L8.62889908,10.8861468 C8.24889908,10.8861468 7.94082569,11.1941284 7.94082569,11.5742202 L7.94082569,16.4511009 C7.94082569,16.8311927 8.24889908,17.1391743 8.62889908,17.1391743 L11.3447706,17.1391743 L11.3447706,21.2301835 C11.3447706,21.6102752 11.652844,21.9182569 12.032844,21.9182569 C12.412844,21.9182569 12.7209174,21.6102752 12.7209174,21.2301835 L12.7209174,17.1391743 L16.916055,17.1391743 C17.0985321,17.1391743 17.273578,17.0666972 17.4026606,16.9376147 L19.8411009,14.4988991 C19.9700917,14.3699083 20.0425688,14.1948624 20.0425688,14.0123853 C20.0425688,13.8299083 19.97,13.6548624 19.8409174,13.5258716 Z M5.68366972,6.59302752 L7.43412844,4.84238532 L14.7480734,4.84238532 L14.7480734,8.34366972 L7.43412844,8.34366972 L5.68366972,6.59302752 Z M16.6309174,15.7631193 L9.31697248,15.7631193 L9.31697248,12.2623853 L16.6310092,12.2623853 L18.3813761,14.0125688 L16.6309174,15.7631193 Z"/>
</svg>
