<svg xmlns="http://www.w3.org/2000/svg" width="24" height="24" viewBox="0 0 24 24">
  <path fill="#FFF" fill-rule="evenodd" d="M3.66607463,6.01733333 L3.66666667,22.6666667 L3.5897413,22.6666667 C2.3317413,22.6666667 1.32307463,21.6985965 1.32307463,20.4912281 L1.33440797,8.19298246 C1.33440797,6.98561404 2.3317413,6.01754386 3.5897413,6.01754386 L3.66607463,6.01733333 Z M14.2666667,1.33333333 C15.5246667,1.33333333 16.6666667,2.30140351 16.6666667,3.50877193 L16.6666667,6.01754386 L18.6660746,6.01733333 L18.6666667,22.6666667 L5.33333333,22.6666667 L5.33307463,6.01733333 L7.33333333,6.01754386 L7.33333333,3.50877193 C7.33333333,2.30140351 8.342,1.33333333 9.6,1.33333333 L14.2666667,1.33333333 Z M20.4,6.01754386 C21.658,6.01754386 22.6666667,6.98561404 22.6666667,8.19298246 L22.6666667,20.4912281 C22.6666667,21.6985965 21.658,22.6666667 20.4,22.6666667 L20.3333333,22.6666667 L20.3330746,6.01733333 L20.4,6.01754386 Z M11.7530475,11.3197815 L11.7206117,11.3809565 L11.0529538,13.0879047 C11.0188262,13.1751559 10.9465772,13.2401391 10.8591855,13.2661592 L10.7911615,13.2781079 L8.96143969,13.3856123 C8.8778829,13.3905217 8.80017633,13.4301152 8.74709113,13.4948284 C8.657021,13.6046279 8.65786284,13.7591933 8.74061057,13.867288 L8.78876824,13.9170404 L10.2058547,15.0794969 C10.2782896,15.1389162 10.3177661,15.2277101 10.3155072,15.3188652 L10.3058505,15.3872521 L9.84267817,17.1606417 C9.82152676,17.241626 9.83516974,17.3277644 9.88031145,17.3982489 C9.95690381,17.5178406 10.1041644,17.5648033 10.232539,17.5195086 L10.2947379,17.4890823 L11.8382035,16.5005718 C11.9170983,16.4500437 12.0137451,16.4399381 12.0997407,16.4702549 L12.1617965,16.5005718 L13.7052621,17.4890823 C13.7757466,17.534224 13.861885,17.547867 13.9428693,17.5267156 C14.0802761,17.4908278 14.1704463,17.365287 14.1670385,17.2291986 L14.1573218,17.1606417 L13.6941495,15.3872521 C13.6704743,15.2966047 13.6907288,15.2015653 13.746136,15.129147 L13.7941453,15.0794969 L15.2112318,13.9170404 C15.275945,13.8639553 15.3155385,13.7862487 15.3204478,13.7026919 C15.3287775,13.5609203 15.2372452,13.4363691 15.1067644,13.3975565 L15.0385603,13.3856123 L13.2088385,13.2781079 C13.1153116,13.2726127 13.0311828,13.2239808 12.9794306,13.148907 L12.9470462,13.0879047 L12.2793883,11.3809565 C12.2488988,11.3030064 12.1872305,11.2413381 12.1092803,11.2108486 C11.9770215,11.1591167 11.8302813,11.2076807 11.7530475,11.3197815 Z M14.6666667,3.32220246 L9.33333333,3.32220246 L9.33333333,6 L14.6666667,6 L14.6666667,3.32220246 Z"/>
</svg>
