<svg xmlns="http://www.w3.org/2000/svg" width="24" height="24" viewBox="0 0 24 24">
  <path fill="#FFF" d="M12,18.4453125 C12.2912344,18.4453125 12.5328563,18.6578109 12.5782683,18.9362105 L12.5859375,19.03125 L12.5859375,21.4140625 C12.5859375,21.7376563 12.3235937,22 12,22 C11.7087656,22 11.4671438,21.7875016 11.4217317,21.509102 L11.4140625,21.4140625 L11.4140625,19.03125 C11.4140625,18.7076562 11.6764062,18.4453125 12,18.4453125 Z M16.5575391,16.5575391 C16.7609071,16.3541016 17.0766517,16.3314974 17.3050198,16.4897266 L17.3861719,16.5575391 L20.2153125,19.3866797 C20.4441406,19.6155078 20.4441406,19.9864844 20.2153125,20.2153125 C20.0119097,20.41875 19.6961613,20.4413233 19.4678202,20.2831147 L19.3866797,20.2153125 L16.5575391,17.3861719 C16.3287109,17.1573438 16.3287109,16.7863672 16.5575391,16.5575391 Z M6.61382813,16.5575391 C6.84265625,16.3287109 7.21367188,16.3287109 7.44246094,16.5575391 C7.64586372,16.7609418 7.66846402,17.0766594 7.51026186,17.3050211 L7.44246094,17.3861719 L4.61332031,20.2153125 C4.38449219,20.4441797 4.01347656,20.4441406 3.7846875,20.2153125 C3.58128472,20.0119097 3.55868441,19.6961921 3.71688657,19.4678305 L3.7846875,19.3866797 L6.61382813,16.5575391 Z M14.4665234,17.9546875 C14.7356094,17.8432773 15.0401328,17.9470867 15.1886458,18.1869223 L15.2321094,18.2717969 L15.6805469,19.3544531 C15.804375,19.6534375 15.6624219,19.9962109 15.3634375,20.1200391 C15.0939648,20.2316602 14.7895926,20.1273023 14.6412561,19.8876967 L14.5978516,19.8029297 L14.1494141,18.7202734 C14.0255859,18.4212891 14.1675391,18.0785156 14.4665234,17.9546875 Z M8.76792969,18.2717969 C8.89175781,17.9728125 9.23449219,17.8308984 9.53351563,17.9546875 C9.80260156,18.066168 9.94449219,18.3549309 9.87990875,18.6295282 L9.850625,18.7202734 L9.4021875,19.8029297 C9.27882813,20.1007031 8.93679688,20.2443359 8.63660156,20.1200391 C8.36751563,20.0085586 8.225625,19.7197957 8.29020844,19.4451983 L8.31949219,19.3544531 L8.76792969,18.2717969 Z M12,6.7265625 C14.9077734,6.7265625 17.2734375,9.09222656 17.2734375,12 C17.2734375,14.9077734 14.9077734,17.2734375 12,17.2734375 C9.09222656,17.2734375 6.7265625,14.9077734 6.7265625,12 C6.7265625,9.09222656 9.09222656,6.7265625 12,6.7265625 Z M12,7.8984375 C9.73839844,7.8984375 7.8984375,9.73839844 7.8984375,12 C7.8984375,14.2616016 9.73839844,16.1015625 12,16.1015625 C14.2616016,16.1015625 16.1015625,14.2616016 16.1015625,12 C16.1015625,9.73839844 14.2616016,7.8984375 12,7.8984375 Z M5.27972656,14.149375 C5.57875,14.025625 5.92148438,14.1675391 6.0453125,14.4664844 C6.15675781,14.7355703 6.05292031,15.0401254 5.81307875,15.1886162 L5.72820313,15.2320703 L4.64554688,15.6805078 C4.34613281,15.8045312 4.00363281,15.6619141 3.87996094,15.3633984 C3.76851563,15.0943125 3.87235313,14.7897574 4.11219469,14.6412666 L4.19707031,14.5978125 L5.27972656,14.149375 Z M17.9546875,14.4665234 C18.066168,14.1974375 18.3549309,14.0555785 18.6295282,14.1201398 L18.7202734,14.1494141 L19.8029297,14.5978516 C20.1019141,14.7216797 20.2438672,15.0644531 20.1200391,15.3634375 C20.0090156,15.6314336 19.720868,15.7745758 19.4455063,15.7099118 L19.3544531,15.6805469 L18.2717969,15.2321094 C17.9728125,15.1082422 17.8308594,14.7655078 17.9546875,14.4665234 Z M4.96875,11.4140625 C5.29234375,11.4140625 5.5546875,11.6764062 5.5546875,12 C5.5546875,12.2912344 5.34218906,12.5328563 5.06378953,12.5782683 L4.96875,12.5859375 L2.5859375,12.5859375 C2.26234375,12.5859375 2,12.3235937 2,12 C2,11.7087656 2.21249844,11.4671438 2.49089797,11.4217317 L2.5859375,11.4140625 L4.96875,11.4140625 Z M21.4140625,11.4140625 C21.7376563,11.4140625 22,11.6764062 22,12 C22,12.2912344 21.7875016,12.5328563 21.509102,12.5782683 L21.4140625,12.5859375 L19.03125,12.5859375 C18.7076562,12.5859375 18.4453125,12.3235937 18.4453125,12 C18.4453125,11.7087656 18.6578109,11.4671438 18.9362105,11.4217317 L19.03125,11.4140625 L21.4140625,11.4140625 Z M19.3544531,8.31949219 C19.6534766,8.19570312 19.9962109,8.33761719 20.1200391,8.63660156 C20.2314844,8.9056875 20.1276469,9.21024258 19.8878053,9.35873344 L19.8029297,9.4021875 L18.7202734,9.850625 C18.4208594,9.97460937 18.0783594,9.83203125 17.9546875,9.53351562 C17.8432422,9.26442969 17.9470797,8.95987461 18.1869213,8.81138375 L18.2717969,8.76792969 L19.3544531,8.31949219 Z M3.87996094,8.63660156 C3.99144141,8.36751562 4.2802043,8.225625 4.55480168,8.29020844 L4.64554688,8.31949219 L5.72820313,8.76792969 C6.0271875,8.89175781 6.16914063,9.23453125 6.0453125,9.53351562 C5.93428906,9.80151172 5.64614141,9.94465391 5.37077973,9.87998996 L5.27972656,9.850625 L4.19707031,9.4021875 C3.89808594,9.27832031 3.75613281,8.93558594 3.87996094,8.63660156 Z M3.7846875,3.7846875 C3.98809028,3.58128472 4.30383873,3.55868441 4.53217978,3.71688657 L4.61332031,3.7846875 L7.44246094,6.61382813 C7.67128906,6.84265625 7.67128906,7.21363281 7.44246094,7.44246094 C7.23905816,7.64589844 6.9233097,7.66847174 6.69496865,7.51026315 L6.61382813,7.44246094 L3.7846875,4.61332031 C3.55585938,4.38449219 3.55585938,4.01351563 3.7846875,3.7846875 Z M19.3866797,3.7846875 C19.6155078,3.55585938 19.9865234,3.55585938 20.2153125,3.7846875 C20.4187153,3.98809028 20.4413156,4.30380787 20.2831134,4.5321695 L20.2153125,4.61332031 L17.3861719,7.44246094 C17.1573438,7.67132813 16.7863281,7.67128906 16.5575391,7.44246094 C16.3541363,7.23905816 16.331536,6.92334057 16.4897381,6.69497894 L16.5575391,6.61382813 L19.3866797,3.7846875 Z M8.6365625,3.87996094 C8.90564844,3.76855078 9.21017187,3.87236016 9.35868488,4.11219574 L9.40214844,4.19707031 L9.85058594,5.27972656 C9.97441406,5.57871094 9.83246094,5.92148438 9.53347656,6.0453125 C9.26400391,6.15693359 8.95966328,6.05257578 8.81130461,5.81297012 L8.76789062,5.72820313 L8.31945312,4.64554688 C8.195625,4.3465625 8.33757812,4.00378906 8.6365625,3.87996094 Z M14.5978125,4.19707031 C14.7216797,3.89808594 15.0644141,3.75617187 15.3633984,3.87996094 C15.6324844,3.99144141 15.774375,4.2802043 15.7097916,4.55480168 L15.6805078,4.64554687 L15.2320703,5.72820312 C15.10875,6.02597656 14.7666797,6.16960937 14.4664844,6.0453125 C14.1973984,5.93383203 14.0555078,5.64506914 14.1200912,5.37047176 L14.149375,5.27972656 L14.5978125,4.19707031 Z M12,2 C12.2912344,2 12.5328563,2.21249844 12.5782683,2.49089797 L12.5859375,2.5859375 L12.5859375,4.96875 C12.5859375,5.29234375 12.3235937,5.5546875 12,5.5546875 C11.7087656,5.5546875 11.4671438,5.34218906 11.4217317,5.06378953 L11.4140625,4.96875 L11.4140625,2.5859375 C11.4140625,2.26234375 11.6764062,2 12,2 Z"/>
</svg>
