<svg xmlns="http://www.w3.org/2000/svg" width="24" height="24" viewBox="0 0 24 24">
  <path fill="#FFF" d="M22.3554688,6.7265625 L19.6914062,6.7265625 C19.3354531,6.7265625 19.046875,7.01514063 19.046875,7.37109375 L19.046875,7.53798437 L16.037043,5.78223828 C15.1356016,5.25647266 14.0791719,5.09619922 13.0623594,5.33072266 L9.47094531,6.15950391 C9.09548437,6.03532422 8.70507031,5.94887109 8.30464453,5.90383984 L8.30464453,3.93359375 C8.30464453,2.86741016 7.43723437,2 6.37105078,2 L2.93359375,2 C1.86741016,2 1,2.86741016 1,3.93359375 L1,19.4023438 C1,20.4685273 1.86741016,21.3359375 2.93359375,21.3359375 L6.37109375,21.3359375 C7.43727734,21.3359375 8.3046875,20.4685273 8.3046875,19.4023438 L8.3046875,17.4327422 C9.45152344,17.3042227 10.5400938,16.8350039 11.4228008,16.0796133 C11.4668438,16.0419297 11.5100273,16.0033867 11.5528242,15.9645 L13.4334375,16.6697031 C14.0869063,16.9147539 14.7721289,17.0390195 15.4700703,17.0390195 L19.046875,17.0390625 L19.046875,17.6835938 C19.046875,18.0395469 19.3354531,18.328125 19.6914063,18.328125 L22.3554688,18.328125 C22.7114219,18.328125 23,18.0395469 23,17.6835938 L23,7.37109375 C23,7.01514063 22.7114219,6.7265625 22.3554688,6.7265625 Z M6.37109375,20.046875 L2.93359375,20.046875 C2.57819922,20.046875 2.2890625,19.7577383 2.2890625,19.4023438 L2.2890625,3.93359375 C2.2890625,3.57819922 2.57819922,3.2890625 2.93359375,3.2890625 L6.37109375,3.2890625 C6.72648828,3.2890625 7.015625,3.57819922 7.015625,3.93359375 L7.015625,5.90289453 C6.41969141,5.96928125 5.84180469,6.12860937 5.296875,6.37391797 L5.296875,5.22265625 C5.296875,4.86670312 5.00829688,4.578125 4.65234375,4.578125 C4.29639063,4.578125 4.0078125,4.86670312 4.0078125,5.22265625 L4.0078125,18.1132812 C4.0078125,18.4692344 4.29639063,18.7578125 4.65234375,18.7578125 C5.00829688,18.7578125 5.296875,18.4692344 5.296875,18.1132812 L5.296875,16.9625352 C5.84171875,17.2078867 6.41982031,17.3660547 7.015625,17.4325273 L7.015625,19.4023438 C7.015625,19.7577383 6.72648828,20.046875 6.37109375,20.046875 Z M7.66015625,16.1796875 C6.81998828,16.1796875 6.00946875,15.9473125 5.296875,15.5057656 L5.296875,7.83012891 C6.00946875,7.38858203 6.81994531,7.15625 7.66015625,7.15625 C9.24213672,7.15625 10.6876055,7.99091797 11.4970938,9.3046875 L10.2382812,9.3046875 C9.17209766,9.3046875 8.3046875,10.1720977 8.3046875,11.2382812 C8.3046875,12.3044648 9.17209766,13.171875 10.2382812,13.171875 L11.9098516,13.171875 C11.286332,14.9528008 9.60530859,16.1796875 7.66015625,16.1796875 Z M15.4701133,15.75 C14.9272461,15.75 14.3943477,15.6533203 13.8860703,15.4627109 L12.4539648,14.9256875 C12.8166211,14.3911133 13.0890859,13.7981875 13.2572656,13.171875 L13.7820859,13.171875 C14.4507227,13.9848867 15.4480273,14.4609375 16.514168,14.4609375 L17.1132813,14.4609375 C17.4692344,14.4609375 17.7578125,14.1723594 17.7578125,13.8164063 C17.7578125,13.4604531 17.4692344,13.171875 17.1132813,13.171875 L16.514125,13.171875 C15.7600234,13.171875 15.0600625,12.7972734 14.6417617,12.1698438 C14.5222227,11.9905352 14.321,11.8828125 14.1055117,11.8828125 L10.2383242,11.8828125 C9.88292969,11.8828125 9.59379297,11.5936758 9.59379297,11.2382813 C9.59379297,10.8828867 9.88292969,10.59375 10.2383242,10.59375 L14.1055117,10.59375 C14.4614648,10.59375 14.750043,10.3051719 14.750043,9.94921875 C14.750043,9.59326563 14.4614648,9.3046875 14.1055117,9.3046875 L12.9526602,9.3046875 C12.5560156,8.4164375 11.9489531,7.65885547 11.2043906,7.08251563 L13.3523125,6.58682813 C14.0481055,6.42621094 14.7708828,6.53599609 15.3876133,6.89573047 L19.046875,9.03033203 L19.046875,15.75 L15.4701133,15.75 Z M21.7109375,17.0390625 L20.3359375,17.0390625 L20.3359375,8.015625 L21.7109375,8.015625 L21.7109375,17.0390625 Z"/>
</svg>
