<svg xmlns="http://www.w3.org/2000/svg" width="24" height="24" viewBox="0 0 24 24">
  <path fill="#FFF" d="M21.8583906,0 C22.2143437,0 22.5084971,0.264529948 22.5550507,0.607717773 L22.5614687,0.703125 L22.5614687,23.296875 C22.5614687,23.6528281 22.2969388,23.9470208 21.953751,23.9935811 L21.8583437,24 L4.46982812,24 C4.113875,24 3.81968229,23.7354701 3.77312207,23.3922822 L3.76670312,23.296875 L3.76670312,19.3125469 L3.06385937,19.3125469 C1.97822798,19.3125469 1.08581883,18.4694846 1.00693376,17.4036619 L1.00126562,17.2499531 L1.00126562,17.1563906 C1.00126562,16.0684667 1.84782245,15.1746088 2.91677347,15.0989386 L3.06385937,15.09375 L3.76670312,15.09375 L3.76670312,13.6875469 L3.063625,13.6875469 C1.97570109,13.6875469 1.08184322,12.84099 1.00617301,11.771998 L1.00098437,11.6249062 L1.00098437,11.5313906 C1.00098437,10.4434667 1.8475412,9.54960884 2.91653324,9.47393864 L3.063625,9.46875 L3.76670312,9.46875 L3.76670312,8.06254688 L3.063625,8.06254688 C1.97570109,8.06254688 1.08184322,7.21599005 1.00617301,6.14699801 L1.00098437,5.99990625 L1.00098437,5.90639063 C1.00098437,4.81846671 1.8475412,3.92460884 2.91653324,3.84893864 L3.063625,3.84375 L3.76670312,3.84375 L3.76670312,0.703125 C3.76670312,0.347171875 4.03123307,0.0529791667 4.3744209,0.00641894531 L4.46982812,0 L21.8583906,0 Z M7.65521875,1.40625 L5.17295312,1.40625 L5.17295312,6.65629687 L5.54795312,6.65629687 C5.93626562,6.65629687 6.25107812,6.97110937 6.25107812,7.35942187 C6.25107812,7.715375 5.98654818,8.00956771 5.64336035,8.05612793 L5.54795312,8.06254687 L5.17295312,8.06254687 L5.17295312,12.2812969 L5.54795312,12.2812969 C5.93626562,12.2812969 6.25107812,12.5961094 6.25107812,12.9844219 C6.25107812,13.340375 5.98654818,13.6345677 5.64336035,13.6811279 L5.54795312,13.6875469 L5.17295312,13.6875469 L5.17295312,17.9062969 L5.54795312,17.9062969 C5.93626562,17.9062969 6.25107812,18.2211094 6.25107812,18.6094219 C6.25107812,18.965375 5.98654818,19.2595677 5.64336035,19.3061279 L5.54795312,19.3125469 L5.17295312,19.3125469 L5.17295312,22.59375 L7.65521875,22.59375 L7.65521875,1.40625 Z M21.1552656,1.40625 L9.06151562,1.40625 L9.06151562,22.59375 L21.1552656,22.59375 L21.1552656,1.40625 Z M17.1855625,17.8124063 C17.573875,17.8124063 17.8886875,18.1272188 17.8886875,18.5155313 C17.8886875,18.8714844 17.6241576,19.1656771 17.2809697,19.2122373 L17.1855625,19.2186563 L13.0311719,19.2186563 C12.6428594,19.2186563 12.3280469,18.9038438 12.3280469,18.5155313 C12.3280469,18.1595781 12.5925768,17.8653854 12.9357646,17.8188252 L13.0311719,17.8124063 L17.1855625,17.8124063 Z M3.76670312,16.5 L3.06385937,16.5 C2.73483949,16.5 2.46160473,16.7433239 2.41464485,17.059517 L2.40751562,17.1563906 L2.40751562,17.2499531 C2.40751562,17.578973 2.65083949,17.8522078 2.96699745,17.8991676 L3.06385937,17.9062969 L3.76670312,17.9062969 L3.76670312,16.5 Z M19.0458906,14.9999063 C19.4342031,14.9999063 19.7490156,15.3147188 19.7490156,15.7030313 C19.7490156,16.0589844 19.4844857,16.3531771 19.1412979,16.3997373 L19.0458906,16.4061563 L11.1708906,16.4061563 C10.7825312,16.4061563 10.4677656,16.0913438 10.4677656,15.7030313 C10.4677656,15.3470781 10.7322956,15.0528854 11.0754834,15.0063252 L11.1708906,14.9999063 L19.0458906,14.9999063 Z M15.1084375,5.13276563 C17.0598437,5.13276563 18.6474531,6.720375 18.6474531,8.67178125 C18.6474531,9.59475586 18.0913127,10.6327833 17.6134318,11.3542897 L17.4007383,11.6632463 C17.3669856,11.7104694 17.3342734,11.7554268 17.3028906,11.7979219 C16.969375,12.2494219 16.6029531,12.6703125 16.2709844,12.9831094 C15.8056094,13.4215313 15.4471094,13.6170469 15.1083906,13.6170469 C14.7696719,13.6170469 14.411125,13.4215781 13.9457969,12.9831094 C13.6138281,12.6703125 13.2473125,12.249375 12.9139844,11.7979219 L12.8161284,11.6632545 L12.8161284,11.6632545 L12.6034214,11.3543111 C12.1255154,10.6328286 11.569375,9.59479395 11.569375,8.67178125 C11.569375,6.720375 13.1569844,5.13276563 15.1084375,5.13276563 Z M3.76670312,10.875 L3.063625,10.875 C2.7345625,10.875 2.46132386,11.1183239 2.41436364,11.434517 L2.40723437,11.5313906 L2.40723437,11.6249062 C2.40723437,11.9539687 2.65055824,12.2272074 2.96675142,12.2741676 L3.063625,12.2812969 L3.76670312,12.2812969 L3.76670312,10.875 Z M15.1083906,6.53896875 C13.9323437,6.53896875 12.9755781,7.49573438 12.9755781,8.67173438 C12.9755781,9.14957813 13.3374062,9.96084375 13.9199219,10.7888906 C14.3987031,11.4694688 14.8587344,11.9342344 15.1083906,12.1342031 L15.1894172,12.0663188 L15.1894172,12.0663188 L15.3847192,11.8840675 C15.6357522,11.6359716 15.9616656,11.2653281 16.2968125,10.7888906 C16.8792812,9.96084375 17.2411562,9.14957813 17.2411562,8.67173438 C17.2411562,7.49573438 16.2843906,6.53896875 15.1083906,6.53896875 Z M15.1083437,7.96865625 C15.495625,7.96865625 15.8114687,8.28454688 15.8114687,8.67178125 C15.8114687,9.05901563 15.495625,9.37490625 15.1083437,9.37490625 C14.7211094,9.37490625 14.4052187,9.05901563 14.4052187,8.67178125 C14.4052187,8.2845 14.7211094,7.96865625 15.1083437,7.96865625 Z M3.76670312,5.25 L3.063625,5.25 C2.7345625,5.25 2.46132386,5.49332386 2.41436364,5.80951705 L2.40723437,5.90639063 L2.40723437,5.99990625 C2.40723437,6.32896875 2.65055824,6.60220739 2.96675142,6.64916761 L3.063625,6.65629688 L3.76670312,6.65629688 L3.76670312,5.25 Z"/>
</svg>
