<svg xmlns="http://www.w3.org/2000/svg" width="24" height="24" viewBox="0 0 24 24">
  <path fill="#FFF" d="M21.890625,3 C22.2465781,3 22.5407708,3.26452995 22.5873311,3.60771777 L22.59375,3.703125 L22.59375,10.0328906 L23.296875,10.0328906 C23.6528281,10.0328906 23.9470208,10.2974206 23.9935811,10.6406084 L24,10.7360156 L24,16.3610156 C24,16.7169687 23.7354701,17.0111615 23.3922822,17.0577217 L23.296875,17.0641406 L22.59375,17.0641406 L22.59375,20.578125 C22.59375,20.9340781 22.3292201,21.2282708 21.9860322,21.2748311 L21.890625,21.28125 L0.703125,21.28125 C0.347171875,21.28125 0.0529791667,21.0167201 0.00641894531,20.6735322 L0,20.578125 L0,5.109375 C0,3.9968356 0.86577044,3.08269388 1.95895477,3.00530639 L2.109375,3 L21.890625,3 Z M1.40625,7.0978125 L1.40625,19.875 L21.1875,19.875 L21.1875,17.0641406 L15.60075,17.0641406 C13.6622344,17.0641406 12.085125,15.4870313 12.085125,13.5485156 C12.085125,11.6746172 13.5588461,10.1384328 15.4081482,10.0381026 L15.60075,10.0328906 L21.1875,10.0328906 L21.1875,7.21875 L2.109375,7.21875 C1.92452344,7.21875 1.74523535,7.19462402 1.57429907,7.14963501 L1.40625,7.0978125 Z M22.59375,11.4391406 L15.60075,11.4391406 C14.4375938,11.4391406 13.491375,12.3854062 13.491375,13.5485156 C13.491375,14.661055 14.3571026,15.5751967 15.4503242,15.6525842 L15.60075,15.6578906 L22.59375,15.6578906 L22.59375,11.4391406 Z M15.6333281,12.8451094 C15.8184844,12.8451094 15.999375,12.9205781 16.130625,13.0513594 C16.2614062,13.1821406 16.3364531,13.3635937 16.3364531,13.5482344 C16.3364531,13.7333906 16.2614062,13.9147969 16.130625,14.0455781 C15.9994219,14.1763594 15.8179687,14.2518281 15.6333281,14.2518281 C15.4481719,14.2518281 15.2672344,14.1763594 15.1359844,14.0455781 C15.0052031,13.9147969 14.9302031,13.7333906 14.9302031,13.5482344 C14.9302031,13.3635937 15.0051562,13.1821875 15.1359844,13.0513594 C15.2671875,12.9205781 15.4481719,12.8451094 15.6333281,12.8451094 Z M21.1875,4.40625 L2.109375,4.40625 C1.72167187,4.40625 1.40625,4.72167188 1.40625,5.109375 C1.40625,5.46476953 1.67129199,5.75942773 2.01409578,5.80606942 L2.109375,5.8125 L21.1875,5.8125 L21.1875,4.40625 Z"/>
</svg>
