<svg xmlns="http://www.w3.org/2000/svg" width="24" height="24" viewBox="0 0 24 24">
  <path fill="#FFF" fill-rule="evenodd" d="M14.4222222,3.82222222 L14.12,2.31111111 C14.0066667,1.73185185 13.4903704,1.3037037 12.8859259,1.3037037 L3.84444444,1.3037037 C3.15185185,1.3037037 2.58518519,1.87037037 2.58518519,2.56296296 L2.58518519,21.4518519 C2.58518519,22.1444444 3.15185185,22.7111111 3.84444444,22.7111111 C4.53703704,22.7111111 5.1037037,22.1444444 5.1037037,21.4518519 L5.1037037,13.8962963 L12.1555556,13.8962963 L12.4577778,15.4074074 C12.5711111,15.9992593 13.0874074,16.4148148 13.6918519,16.4148148 L20.2148148,16.4148148 C20.9074074,16.4148148 21.4740741,15.8481481 21.4740741,15.1555556 L21.4740741,5.08148148 C21.4740741,4.38888889 20.9074074,3.82222222 20.2148148,3.82222222 L14.4222222,3.82222222 Z"/>
</svg>
