<svg xmlns="http://www.w3.org/2000/svg" xmlns:xlink="http://www.w3.org/1999/xlink" width="80" height="80" viewBox="0 0 80 80">
  <defs>
    <path id="all-inclusive-a" d="M35.5317885,0.772430185 C37.6559715,0.772430185 39.5870469,1.62210339 40.9774213,3.01247772 L40.9774213,3.01247772 L75.7367796,37.771836 C77.1271539,39.1622103 78.0154486,41.1319073 78.0154486,43.2560903 C78.0154486,45.3802733 77.1657754,47.3113488 75.7367796,48.7017231 L75.7367796,48.7017231 L48.7017231,75.7367796 C47.3113488,77.1657754 45.3802733,78.0154486 43.2560903,78.0154486 C41.1319073,78.0154486 39.2008318,77.1657754 37.8104575,75.7754011 L37.8104575,75.7754011 L3.05109923,41.0160428 C1.62210339,39.5870469 0.772430184,37.6559715 0.772430184,35.5317885 L0.772430184,35.5317885 L0.772430184,8.49673203 C0.772430184,4.24836601 4.24836601,0.772430185 8.49673203,0.772430185 L8.49673203,0.772430185 Z M41.8183229,32.7272727 C41.6176356,32.7272727 41.4381179,32.8523153 41.3686818,33.0405847 L41.3686818,33.0405847 L39.5215682,38.0487782 L39.3852527,38.4042478 C37.8377054,42.2894386 34.7114321,45.3426798 30.7762873,46.7938523 L30.7762873,46.7938523 L25.7678547,48.6409818 L25.6912198,48.6772209 C25.5464126,48.7621418 25.4545455,48.9186077 25.4545455,49.0906268 C25.4545455,49.2913159 25.5795869,49.4708352 25.7678547,49.5402719 L25.7678547,49.5402719 L30.776005,51.3874013 L31.1314965,51.5236939 C35.0169275,53.0709967 38.0704083,56.197305 39.5215682,60.1327577 L39.5215682,60.1327577 L41.3686818,65.1409512 L41.4049206,65.2176914 C41.4898407,65.3626775 41.6463053,65.4545455 41.8183229,65.4545455 C42.0190103,65.4545455 42.198528,65.3295029 42.2679641,65.1409512 L42.2679641,65.1409512 L44.1150777,60.1327577 L44.251394,59.7772632 C45.7989566,55.891799 48.9254878,52.8382999 52.8603586,51.3874013 L52.8603586,51.3874013 L57.8685089,49.5402719 L57.9451439,49.5040328 C58.089951,49.4191119 58.1818182,49.262646 58.1818182,49.0906268 C58.1818182,48.8899378 58.0567767,48.7104185 57.8685089,48.6409818 L57.8685089,48.6409818 L52.8600764,46.7938523 L52.5046091,46.6575356 C48.6194364,45.1099752 45.5659637,41.983683 44.1150777,38.0487782 L44.1150777,38.0487782 L42.2679641,33.0405847 L42.2317253,32.9639491 C42.1468052,32.8191407 41.9903406,32.7272727 41.8183229,32.7272727 Z M34.545533,14.5454545 C34.43404,14.5454545 34.3343079,14.6149226 34.2957323,14.7195168 L34.2957323,14.7195168 L33.2695581,17.5018465 L33.1608424,17.7808667 C32.290148,19.9004615 30.5696568,21.5641934 28.4110687,22.360221 L28.4110687,22.360221 L25.6286062,23.386404 L25.5703401,23.4164933 C25.4990046,23.4653436 25.4545455,23.5470117 25.4545455,23.6362068 C25.4545455,23.7477007 25.5240129,23.8474337 25.6286062,23.8860096 L25.6286062,23.8860096 L28.4109119,24.9121927 L28.6899493,25.0208905 C30.8096758,25.8914546 32.4735374,27.611967 33.2695581,29.770724 L33.2695581,29.770724 L34.2957323,32.5530537 L34.3258213,32.6113968 C34.3746712,32.6828132 34.4563386,32.7272727 34.545533,32.7272727 C34.6570259,32.7272727 34.756758,32.6578047 34.7953336,32.5530537 L34.7953336,32.5530537 L35.8215078,29.770724 L35.9302243,29.4916841 C36.8009304,27.3719396 38.5215594,25.70807 40.6799972,24.9121927 L40.6799972,24.9121927 L43.4623029,23.8860096 L43.520569,23.8559204 C43.5919045,23.8070701 43.6363636,23.725402 43.6363636,23.6362068 C43.6363636,23.5247129 43.5668962,23.42498 43.4623029,23.386404 L43.4623029,23.386404 L40.6798404,22.360221 L40.4008218,22.2515043 C38.2812335,21.3808027 36.6173782,19.6603029 35.8215078,17.5018465 L35.8215078,17.5018465 L34.7953336,14.7195168 L34.7652446,14.6612501 C34.7163947,14.5899141 34.6347273,14.5454545 34.545533,14.5454545 Z"/>
  </defs>
  <use fill="#FFF" fill-rule="evenodd" xlink:href="#all-inclusive-a"/>
</svg>
