<?xml version="1.0" encoding="UTF-8"?>
<svg width="80px" height="80px" viewBox="0 0 80 80" version="1.1" xmlns="http://www.w3.org/2000/svg" xmlns:xlink="http://www.w3.org/1999/xlink">
    <title>contents / product / promo / exchange-plus</title>
    <g id="contents-/-product-/-promo-/-exchange-plus" stroke="none" stroke-width="1" fill="none" fill-rule="evenodd">
        <path d="M44.7501661,37.2507617 C45.0922533,37.3917741 45.4470405,37.4997528 45.8096839,37.5732236 L45.8096839,80 L44.7501661,80 L44.7501661,37.2507617 Z M35.5369682,37.2507617 L35.5369682,79.907868 L34.2471205,79.907868 L34.2471205,37.5732236 C34.6880017,37.515496 35.1207894,37.4072991 35.5369682,37.2507617 Z M40.1435671,35.3620561 L40.742425,35.77665 L40.742425,79.907868 L39.4986433,79.907868 L39.4986433,35.77665 L40.1435671,35.3620561 Z M52.0746584,78.3876904 L52.0746584,79.6314721 L47.0534656,79.6314721 L47.0534656,78.3876904 L52.0746584,78.3876904 Z M57.1419173,73.3204315 L57.1419173,74.5642132 L47.0534656,74.5642132 L47.0534656,73.3204315 L57.1419173,73.3204315 Z M57.1419173,68.2531727 L57.1419173,69.4969544 L47.0534656,69.4969544 L47.0534656,68.2531727 L57.1419173,68.2531727 Z M52.0746584,63.2319798 L52.0746584,64.4757615 L47.0534656,64.4757615 L47.0534656,63.2319798 L52.0746584,63.2319798 Z M50.3241508,11.5920054 L51.6139985,11.9144674 L52.9499122,12.3751273 L54.193694,13.0200511 C57.9367925,15.3090025 60.2352394,19.3661096 60.2744891,23.7534267 C60.2866444,27.1010175 58.9685461,30.3163595 56.6100809,32.6921028 C54.2516157,35.0678461 51.0459804,36.4093786 47.6983894,36.4217641 C45.4088928,36.4342599 43.160642,35.8124033 41.2030849,34.6250002 L42.2165367,33.7497464 C43.900615,34.6587181 45.7846639,35.1336884 47.6983894,35.1317261 C52.7460153,35.1571849 57.2070438,31.8540924 58.6555325,27.0186963 C60.0744603,22.2819817 58.2702528,17.1841686 54.2194553,14.389416 L53.963364,14.2177669 C53.5749338,13.9432066 53.1579079,13.7115256 52.7195823,13.526777 C52.3336496,13.3149539 51.9334444,13.1302438 51.5218666,12.9739851 L50.2320189,12.6054572 L45.256892,12.6054572 L43.9670443,12.9739851 C44.0108844,12.622173 44.0108844,12.2662795 43.9670443,11.9144674 L45.210826,11.5920054 L50.3241508,11.5920054 Z M35.3066382,11.3156095 L36.504354,11.6380714 C36.4595426,11.9898226 36.4595426,12.3458381 36.504354,12.6975892 L35.2145063,12.3290613 L30.2393794,12.3290613 L28.9495317,12.6975892 L27.7057499,13.2503811 C27.2123456,13.5233357 26.749121,13.8475929 26.3237703,14.2177669 C22.144775,16.9823063 20.2661165,22.1552059 21.6971631,26.9571623 C23.1282097,31.7591187 27.5320893,35.0597387 32.5426789,35.0856601 C34.4564044,35.0876224 36.3404533,34.6126521 38.0245316,33.7036805 L39.0379834,34.5789343 C37.0804263,35.7663373 34.8321755,36.3881939 32.5426789,36.3756981 C26.8352557,36.3184758 21.8707914,32.4517309 20.4182179,26.9319517 C18.9656444,21.4121725 21.3837234,15.6026531 26.3237703,12.7436552 L27.567552,12.0987313 L28.8573997,11.6380714 L30.1933134,11.3156095 L35.3066382,11.3156095 Z M43.0457245,27.9914977 L44.0591763,28.9128175 C44.0591763,29.2813455 43.6906483,29.6498734 43.4603184,30.0184013 C43.2727143,30.3875241 43.0571089,30.741733 42.8153945,31.077919 C42.5644193,31.4357604 42.287264,31.7745057 41.9862067,32.0913708 C41.7184527,32.4204146 41.4258424,32.7284255 41.1109529,33.0126906 L40.1435671,33.8418784 L39.1301154,32.9666246 L38.2087956,32.0453048 L37.4256738,31.0318531 L36.7346839,29.9723353 L36.181892,28.8667515 L37.1953438,27.9914977 C37.3323474,28.4108971 37.5178683,28.812859 37.7481357,29.1892135 L38.4391255,30.2947972 L39.2222473,31.262183 L40.0975011,32.1835028 C40.4199631,31.8610409 40.742425,31.5846449 41.0188209,31.262183 L41.8019428,30.2947972 L42.4929326,29.1892135 C42.7047558,28.8032808 42.8894659,28.4030756 43.0457245,27.9914977 Z M53.0420442,18.2255079 C54.5140433,19.6816179 55.3149284,21.6838305 55.2532117,23.7534267 C55.2532885,27.9333571 51.8782431,31.3289821 47.6983894,31.354315 C46.6803645,31.3156634 45.6793459,31.0810497 44.7501661,30.6633251 C44.9766134,30.293999 45.1767292,29.9091609 45.349024,29.5116754 C46.1485975,29.8619941 47.0098254,30.0498984 47.8826534,30.0644673 C50.384518,30.0292312 52.6330275,28.5296876 53.6270491,26.2334975 C54.6210708,23.9373075 54.1757069,21.2715849 52.4892524,19.4232237 L53.0420442,18.2255079 Z M27.383288,18.2255079 C27.383288,18.5940359 27.7518159,19.0086298 27.9360799,19.4232237 C26.8540964,20.60088 26.2754651,22.1549183 26.3237703,23.7534267 C26.3115081,25.4272321 26.9646878,27.0373491 28.1396081,28.2295476 C29.3145283,29.4217461 30.9149388,30.0983603 32.5887448,30.1105333 C33.4615729,30.0959644 34.3228008,29.9080601 35.1223743,29.5577414 C35.2367905,29.9347551 35.3752728,30.3040412 35.5369682,30.6633251 C34.5474978,31.088989 33.4816258,31.3084332 32.4044809,31.3082491 C28.2965942,31.208703 25.0115542,27.8624511 24.9878566,23.7534267 C24.9740265,21.6560362 25.8434617,19.6496473 27.383288,18.2255079 Z M51.6139985,20.5748734 C52.3306188,21.4792928 52.7202603,22.5995123 52.7195823,23.7534267 C52.7318733,25.0930935 52.2082873,26.3821199 51.2652955,27.333763 C50.3223037,28.2854061 49.0381126,28.8206856 47.6983894,28.8206856 C46.9830869,28.8112035 46.2774158,28.6543877 45.6254199,28.3600257 C45.3164274,28.1524174 45.0238175,27.9214096 44.7501661,27.6690358 C44.3811509,27.3613646 44.0557052,27.004924 43.7827803,26.6095181 L43.5524504,26.2870561 L43.8749123,26.2870561 L44.7962321,26.0106602 L45.118694,26.3791881 C45.43448,26.7196865 45.8089792,27.000561 46.2242778,27.2083759 C46.7494486,27.4852634 47.3350455,27.6277059 47.9287194,27.6229698 C49.9495989,27.4767177 51.5054975,25.7793739 51.4758006,23.7534267 C51.459317,23.0012887 51.2361991,22.2681869 50.8308767,21.6343912 C51.1072727,21.3119293 51.3376026,20.9434013 51.6139985,20.5748734 Z M28.6270697,20.5288074 C28.9034657,20.8973353 29.1337956,21.2658633 29.4101916,21.5883252 C28.976659,22.2260468 28.7513553,22.9824236 28.7652677,23.7534267 C28.7651157,25.847215 30.4490426,27.5516775 32.5426789,27.5769038 C33.1363527,27.5816399 33.7219496,27.4391974 34.2471205,27.1623099 C34.7319901,26.9610743 35.170842,26.663282 35.5369682,26.2870561 L35.5369682,25.9185282 L36.504354,26.1949241 L36.9189479,26.2870561 L36.6886179,26.6095181 C36.4156931,27.004924 36.0902473,27.3613646 35.7212321,27.6690358 C35.4608957,27.8662402 35.1876798,28.0456236 34.9034628,28.2060122 L34.6156484,28.3600257 C33.9602898,28.6385571 33.2547528,28.7796645 32.5426789,28.7746196 C31.2109757,28.7746196 29.9338157,28.2456026 28.9921593,27.3039462 C28.050503,26.3622899 27.521486,25.0851298 27.521486,23.7534267 C27.5103273,22.5837361 27.9005521,21.4455804 28.6270697,20.5288074 Z M44.1513082,23.7073607 L44.1513082,23.7534267 C44.0953098,24.0027052 44.0638883,24.256665 44.0573748,24.5116657 L44.0591763,24.7668785 L43.0457245,25.0432744 L37.6560037,25.0432744 L36.6425519,24.7668785 C36.6785541,24.5032224 36.6875546,24.2368138 36.6695535,23.9717814 L36.6425519,23.7073607 L37.9323996,24.0758886 L42.9075265,24.0758886 L44.1513082,23.7073607 Z M51.1072727,14.4020308 C51.6016049,14.4915969 52.08183,14.6465083 52.5353183,14.8626907 C52.4652465,15.2970728 52.372994,15.7275849 52.2589224,16.1525384 L51.8443285,17.3963201 C51.6980795,17.7973193 51.5129329,18.1830414 51.2915366,18.5479699 C51.2915366,18.9164978 50.9230087,19.2850257 50.6926788,19.6535536 C50.4575708,20.0106376 50.195783,20.3494218 49.9095569,20.6670054 C49.5621324,20.4039635 49.1727722,20.2014962 48.7579072,20.0681475 C49.0555088,19.78081 49.3325849,19.4729476 49.587095,19.1468277 L50.2320189,18.041244 C50.2320189,17.6727161 50.5544808,17.2581222 50.7387447,16.8895943 C50.8826716,16.4815413 51.0056743,16.0664072 51.1072727,15.6458125 C51.1291512,15.2315073 51.1291512,14.8163361 51.1072727,14.4020308 Z M28.9034657,14.5402288 C28.8815871,14.954534 28.8815871,15.3697052 28.9034657,15.7840105 C29.005064,16.2046052 29.1280667,16.6197393 29.2719936,17.0277922 C29.4215096,17.4199191 29.5906314,17.8042868 29.7787195,18.179442 C29.7787195,18.5479699 30.1933134,18.9164978 30.4236433,19.2389597 C30.7439638,19.5360755 31.082433,19.8130048 31.4370951,20.0681475 C31.0308493,20.2214521 30.6442565,20.4224803 30.2854454,20.6670054 C30.2854454,20.3445435 29.7787195,20.0220815 29.5483895,19.6535536 L28.9034657,18.5479699 C28.7153776,18.1728147 28.5462558,17.788447 28.3967398,17.3963201 L27.9821459,16.1525384 C27.8461695,15.7331664 27.7535532,15.3009569 27.7057499,14.8626907 C28.0919851,14.7116971 28.4936296,14.6035621 28.9034657,14.5402288 Z M47.6523234,13.618909 C47.5822393,14.0380966 47.4899778,14.4532733 47.3759275,14.8626907 C47.2349441,15.3180927 47.0657073,15.7642626 46.8692016,16.1986044 C46.6460161,16.6220666 46.3836868,17.0234023 46.0857877,17.3974129 L45.8557498,17.6727161 L45.302958,18.2715739 C44.9887513,18.5895951 44.6498768,18.8822595 44.2895062,19.1468277 L43.1839225,19.7917516 L37.0571458,19.7917516 L35.9515621,19.1468277 C35.5944781,18.9117198 35.2556939,18.649932 34.9381103,18.3637059 C34.7817269,18.2318625 34.6381719,18.0857374 34.5092693,17.927307 L34.3853184,17.7648481 C33.9909926,17.3148192 33.6508485,16.8200642 33.3718667,16.2907364 C33.175361,15.8563946 33.0061242,15.4102247 32.8651408,14.9548227 C32.7293767,14.5511437 32.6367285,14.1342267 32.5887448,13.711041 C33.0173799,13.6635001 33.4499575,13.6635001 33.8785926,13.711041 C33.9583906,14.1671152 34.0817996,14.6144729 34.2471205,15.0469547 C34.4655824,15.5924886 34.7602644,16.1043047 35.1223743,16.5671323 C35.2298251,16.7467159 35.3531616,16.9163035 35.4909022,17.0738582 C35.8077673,17.3749155 36.1465126,17.6520708 36.504354,17.903046 L37.5638717,18.5479699 L38.8076534,18.5479699 L40.1435671,19.1468277 L42.5850646,19.1468277 C42.9743506,18.9695947 43.3447555,18.7535252 43.6906483,18.5019039 C44.1162003,18.0841145 44.4737035,17.6022623 44.7501661,17.0738582 L45.16476,16.5671323 C45.5268698,16.1043047 45.8215518,15.5924886 46.0400138,15.0469547 C46.2053346,14.6144729 46.3287437,14.1671152 46.4085417,13.711041 C46.8186685,13.6361 47.2356311,13.6052139 47.6523234,13.618909 Z M45.026562,13.9413709 C44.8724089,14.508353 44.639833,15.0510303 44.3355722,15.5536806 L44.0591763,15.9222085 C43.7798677,16.2583737 43.4541402,16.5530794 43.0917905,16.7974623 C42.7666294,17.0553997 42.4107422,17.2720267 42.0322727,17.4423861 L38.2087956,17.4423861 C37.8209846,17.2623165 37.4508478,17.0464034 37.1032118,16.7974623 C36.7632129,16.5424142 36.4540294,16.2486898 36.181892,15.9222085 L35.9054961,15.5536806 C35.5823471,15.0609514 35.3484488,14.5151885 35.2145063,13.9413709 L36.7807499,14.5402288 L36.7807499,14.8626907 C37.0426546,15.211897 37.3528634,15.5221058 37.7020697,15.7840105 C38.0383675,16.0642052 38.4312026,16.2684795 38.8537194,16.3828684 L41.0188209,16.3828684 C41.4370923,16.2578034 41.8278712,16.0545984 42.1704707,15.7840105 C42.5188775,15.536188 42.8160829,15.2233402 43.0457245,14.8626907 L43.4603184,14.5402288 L45.026562,13.9413709 Z M40.0975011,1.77635684e-15 C46.3249877,1.77635684e-15 51.6146341,4.55769903 52.5353183,10.7167516 L51.1994046,10.2560917 C50.0764658,5.03515529 45.4608683,1.30674379 40.1205341,1.30674379 C34.7802,1.30674379 30.1646025,5.03515529 29.0416636,10.2560917 L27.659684,10.7167516 C28.5803682,4.55769903 33.8700146,1.77635684e-15 40.0975011,1.77635684e-15 Z M40.1205341,7.69024067 C41.9061,7.69024067 43.5598765,8.62999639 44.4737702,10.1639598 L43.2299884,10.5324877 C42.5001988,9.54722246 41.346642,8.96612887 40.1205341,8.96612887 C38.8944263,8.96612887 37.7408694,9.54722246 37.0110798,10.5324877 L35.7672981,10.1639598 C36.6811918,8.62999639 38.3349683,7.69024067 40.1205341,7.69024067 Z M40.0514352,5.43309033 C43.0425778,5.43309033 45.7520668,7.19782859 46.9613336,9.93362982 L45.7636179,9.93362982 C44.6939108,7.79739848 42.5096255,6.44833502 40.1205341,6.44833502 C37.7314428,6.44833502 35.5471575,7.79739848 34.4774504,9.93362982 L33.1415367,9.93362982 C34.3508035,7.19782859 37.0602925,5.43309033 40.0514352,5.43309033 Z" id="Combined-Shape" stroke="#221F1F" stroke-width="0.05" fill="#221F1F" fill-rule="nonzero"></path>
    </g>
</svg>