<svg xmlns="http://www.w3.org/2000/svg" width="80" height="80" viewBox="0 0 80 80">
  <g fill="none" fill-rule="evenodd" transform="translate(6.667 6.667)">
    <path fill="#005B76" d="M44.2421875,14.7161748 C46.714974,12.2401331 50.9114583,14.0463831 50.9114583,17.4768519 L50.9114583,17.4768519 L50.9114583,25.2893519 L62.7604167,25.2893519 C64.9175781,25.2893519 66.6666667,27.0384404 66.6666667,29.1956019 C66.6666667,31.3527633 64.9175781,33.1018519 62.7604167,33.1018519 L62.7604167,33.1018519 L47.0052083,33.1018519 C44.8480469,33.1018519 43.0989583,31.3527633 43.0989583,29.1956019 L43.0989583,29.1956019 L43.0989583,26.9067998 L36.9039062,33.1018519 L45.8608073,42.0587529 C47.3867187,43.5846644 47.3867187,46.0565394 45.8608073,47.5824508 L45.8608073,47.5824508 L32.1889323,61.2543258 C30.6630208,62.7802373 28.1910156,62.7801071 26.6652344,61.2543258 C25.1393229,59.7284144 25.1393229,57.2565394 26.6652344,55.7306279 L26.6652344,55.7306279 L37.5752604,44.8206019 L28.6183594,35.8637008 C27.0924479,34.3377894 27.0924479,31.8659144 28.6183594,30.3400029 L28.6183594,30.3400029 Z M16.8356079,24.0089699 C17.6946102,24.0089699 18.3897068,24.8825376 18.3897068,25.9620949 C18.3897068,27.0416522 17.6946102,27.9152199 16.8356079,27.9152199 L16.8356079,27.9152199 L8.96150638,27.9152199 C8.10250408,27.9152199 7.40740741,27.0416522 7.40740741,25.9620949 C7.40740741,24.8825376 8.10250408,24.0089699 8.96150638,24.0089699 L8.96150638,24.0089699 Z M13.1319041,15.5237269 C13.9909065,15.5237269 14.6860031,16.3972946 14.6860031,17.4768519 C14.6860031,18.5564091 13.9909065,19.4299769 13.1319041,19.4299769 L13.1319041,19.4299769 L5.25780268,19.4299769 C4.39880037,19.4299769 3.7037037,18.5564091 3.7037037,17.4768519 C3.7037037,16.3972946 4.39880037,15.5237269 5.25780268,15.5237269 L5.25780268,15.5237269 Z M16.8356079,7.34230324 C17.6946102,7.34230324 18.3897068,8.21587095 18.3897068,9.29542824 C18.3897068,10.3749855 17.6946102,11.2485532 16.8356079,11.2485532 L16.8356079,11.2485532 L8.96150638,11.2485532 C8.10250408,11.2485532 7.40740741,10.3749855 7.40740741,9.29542824 C7.40740741,8.21587095 8.10250408,7.34230324 8.96150638,7.34230324 L8.96150638,7.34230324 Z"/>
    <path fill="#8DDFF8" d="M21.7745117,35.120081 C22.122819,36.4372685 22.7834961,37.6553675 23.7732096,38.645081 L23.7732096,38.645081 L26.5350586,41.40693 L6.66813151,61.2738571 C5.14222005,62.7997685 2.67021484,62.7996383 1.14443359,61.2738571 C-0.381477865,59.7479456 -0.381477865,57.2760706 1.14443359,55.7501591 L1.14443359,55.7501591 Z M30.4051396,4.78230474 C31.7212854,3.46628912 33.7811813,3.26212245 35.3337854,4.29402349 L35.3337854,4.29402349 L42.5512334,9.29076828 C41.7279261,9.67761724 40.9750615,10.17306 40.3367802,10.8113412 L40.3367802,10.8113412 L36.5208948,14.6272266 L33.6649052,12.569935 L25.1867802,21.04806 C23.6608688,22.5739714 21.1888636,22.5741016 19.6629521,21.0481902 C18.1370407,19.5222787 18.1370407,17.0504037 19.6629521,15.5244922 L19.6629521,15.5244922 Z M54.7164352,1.94130426e-14 C57.9524786,1.94130426e-14 60.5758102,2.62333154 60.5758102,5.859375 C60.5758102,9.09541846 57.9524786,11.71875 54.7164352,11.71875 C51.4803917,11.71875 48.8570602,9.09541846 48.8570602,5.859375 C48.8570602,2.62333154 51.4803917,1.94130426e-14 54.7164352,1.94130426e-14 Z"/>
  </g>
</svg>
