<svg xmlns="http://www.w3.org/2000/svg" width="80" height="80" viewBox="0 0 80 80">
  <g fill="none" fill-rule="evenodd" transform="translate(-5 -5)">
    <path fill="#8DDFF8" fill-rule="nonzero" d="M30.7534985,24.375 L11.25,61.3749838 L28.3924287,78.4083227 L31.4098495,76.8370801 C31.6431269,77.0997541 31.8819254,77.3576271 32.1310765,77.6052127 C35.4149029,80.8684042 39.7270816,82.5 44.0413309,82.5 C48.3535096,82.4993142 52.668449,80.8677184 55.951585,77.6052127 C60.175422,73.407917 61.8042219,67.3924791 60.3955861,61.7501343 L65.625,59.0280645 L30.7534985,24.375 Z M52.203965,73.8804557 C49.9533223,76.1169558 46.9973267,77.234863 44.0413309,77.234863 C41.2703005,77.2341773 38.49858,76.2520649 36.3093625,74.2864686 L55.4940026,64.3007457 C55.9481342,67.7751738 54.7796772,71.3209283 52.203965,73.8804557 L52.203965,73.8804557 Z"/>
    <path fill="#005B76" d="M44.3804372 13.6759084C42.8158363 12.1114927 40.7356513 11.25 38.5229663 11.25 36.3102812 11.25 34.2300962 12.1114927 32.6654951 13.6759084 31.9144317 14.4268829 31.33912 15.2876892 30.9375 16.206157L73.7989197 59.0625C74.7298539 58.6540632 75.5866429 58.073328 76.3274085 57.3326502 79.5575305 54.1035972 79.5575305 48.8488351 76.3274085 45.6190956L44.3804372 13.6759084zM2.44623631 63.6220667C-.815527652 66.8832577-.815527652 72.1903194 2.44692966 75.4522037L14.5474915 87.5499469C16.1270617 89.129933 18.2280704 90 20.4629058 90 22.6977411 90 24.7987497 89.129933 26.3790133 87.5499469 27.1375953 86.7914982 27.7193598 85.9221247 28.125 84.9945154L5.00003666 61.875C4.05978327 62.2875019 3.19441733 62.874017 2.44623631 63.6220667z"/>
    <path fill="#8DDFF8" d="M72.981164 19.6875C73.6644474 19.6875 74.3477311 19.426835 74.8690563 18.9062004L89.2180121 4.55642285C90.2606626 3.51445824 90.2606626 1.82395936 89.2180121.781994753 88.1760567-.260664918 86.486268-.260664918 85.4436175.781994753L71.0939666 15.1310772C70.0520111 16.1730418 70.0520111 17.8635407 71.0939666 18.9062004 71.6152917 19.4275301 72.2985754 19.6875 72.981164 19.6875L72.981164 19.6875zM56.5005155 13.6430469C56.9439147 13.9269125 57.4441075 14.0625 57.9374577 14.0625 58.7941487 14.0625 59.6337334 13.6537336 60.1380317 12.9029932L66.1321328 3.97091662C66.9279248 2.78602898 66.5885328 1.19571466 65.374659.419593074 64.1601008-.356528511 62.5315665-.0252408489 61.7364587 1.15964696L55.7423577 10.0917234C54.9472497 11.2766112 55.2866417 12.8662576 56.5005155 13.6430469L56.5005155 13.6430469zM89.5799265 24.6247859C88.8037757 23.4116769 87.2140695 23.0723074 86.0291372 23.8673625L77.0967253 29.8617488C75.9117931 30.6574881 75.5811609 32.285914 76.3573115 33.499707 76.8495862 34.2694463 77.6691532 34.6875 78.5047507 34.6875 78.9870062 34.6875 79.4746051 34.548605 79.9081007 34.2571303L88.8398446 28.2627441C90.0254448 27.467689 90.3567449 25.8392632 89.5799265 24.6247859L89.5799265 24.6247859z"/>
  </g>
</svg>
