<svg xmlns="http://www.w3.org/2000/svg" width="80" height="80" viewBox="0 0 80 80">
  <g fill="none" fill-rule="evenodd" transform="translate(6.667 6.667)">
    <path fill="#005B76" d="M22.9237102,17.9612421 L48.5724674,43.6105069 L44.7261184,45.6253096 C45.762201,49.8016213 44.5641828,54.2540864 41.4574577,57.3608115 C39.0426388,59.7756304 35.8689059,60.9832936 32.6972035,60.9838013 C29.5239781,60.9838013 26.3522757,59.776138 23.9369492,57.3608115 C23.753693,57.1775554 23.5780514,56.9866847 23.4064708,56.7922605 L23.4064708,56.7922605 L21.1870913,57.9552519 L8.57845754,45.3476334 L22.9237102,17.9612421 Z M41.1208957,47.5132035 L27.0101705,54.9043666 C28.6203881,56.359248 30.6590496,57.0861811 32.6972035,57.0866887 C34.8714035,57.0866887 37.0456034,56.2592439 38.7010006,54.6038467 C40.5954937,52.7093536 41.4549195,50.0848816 41.1208957,47.5132035 L41.1208957,47.5132035 Z M63.5162214,17.4241643 C64.4167657,16.8342926 65.6249366,17.0860795 66.2148083,17.9861161 C66.8051875,18.887168 66.5534006,20.0953387 65.6523488,20.6852105 L65.6523488,20.6852105 L58.864256,25.1325992 C58.5348009,25.3488517 58.1642275,25.4519014 57.7977151,25.4519014 C57.162664,25.4519014 56.5397961,25.1417367 56.1656691,24.5706474 C55.5757975,23.6701033 55.8270768,22.4619324 56.7276209,21.871553 L56.7276209,21.871553 Z M63.2060566,0.571195663 C63.9675089,-0.190256578 65.201569,-0.190256578 65.9625137,0.571195663 C66.7239659,1.3321403 66.7239659,2.5667082 65.9625137,3.32765284 L65.9625137,3.32765284 L55.4834079,13.8072662 C55.1026818,14.1874847 54.6036768,14.3778478 54.1046718,14.3778478 C53.6061744,14.3778478 53.1071693,14.1879923 52.7264432,13.8072662 C51.9654986,13.045814 51.9654986,11.8112461 52.7264432,11.0503014 L52.7264432,11.0503014 Z M45.848499,0.881360576 C46.4383706,-0.0191836738 47.6465415,-0.270970548 48.5475933,0.318901187 C49.4481375,0.908772921 49.6999243,2.11745141 49.1095451,3.01799553 L49.1095451,3.01799553 L44.662664,9.80659618 C44.2885371,10.3771776 43.6656691,10.6878502 43.0301104,10.6878502 C42.6641056,10.6878502 42.2930245,10.5848003 41.9640772,10.3690554 C41.063533,9.77867624 40.8117462,8.57050535 41.4016179,7.6699611 L41.4016179,7.6699611 Z"/>
    <path fill="#8DDFF8" d="M3.66049133,45.943089 L20.5901128,62.8716952 C20.2931464,63.5509107 19.8672408,64.1874847 19.3118883,64.7428371 C18.1549885,65.8997369 16.6168551,66.5368187 14.980748,66.5368187 C13.3446409,66.5368187 11.8065073,65.8997369 10.6501152,64.7428371 L10.6501152,64.7428371 L1.79137983,55.8846094 C-0.597042003,53.4961876 -0.597042003,49.610243 1.79087223,47.2223287 C2.33861024,46.6745907 2.9721385,46.2451317 3.66049133,45.943089 L3.66049133,45.943089 Z M28.2680896,8.51821893 C29.9041966,8.51821893 31.4423302,9.15530067 32.5992299,10.3122003 L32.5992299,10.3122003 L56.221509,33.9344795 C58.6099308,36.3229013 58.6099308,40.208846 56.221509,42.5967602 C55.673771,43.1444982 55.0402427,43.5739572 54.3518899,43.876 L54.3518899,43.876 L22.6592323,12.1833424 C22.9561988,11.504127 23.3815967,10.8675529 23.9369492,10.3122003 C25.093849,9.15530067 26.6319826,8.51821893 28.2680896,8.51821893 Z"/>
  </g>
</svg>
