<svg xmlns="http://www.w3.org/2000/svg" width="80" height="80" viewBox="0 0 80 80">
  <g fill="none" fill-rule="evenodd" transform="translate(6.667 6.667)">
    <path fill="#005B76" d="M45.0467082,19.5565239 L36.909651,2.31907227 C35.4517096,-0.753464421 31.2274181,-0.792522091 29.7570157,2.31907227 L21.6199585,19.5565239 L3.41438333,22.3296184 C0.149591619,22.8243489 -1.15881727,27.029558 1.20877977,29.4381143 L14.380096,42.8479143 L11.2648367,61.7908842 C10.70409,65.2149399 14.1557973,67.7797269 17.0467579,66.1783624 L33.3333333,57.234156 L49.6199088,66.1783624 C52.5108694,67.7667076 55.9625767,65.2149399 55.40183,61.7908842 L52.2865707,42.8479143 L65.4578869,29.4381143 C67.8254839,27.029558 66.517075,22.8243489 63.2522833,22.3296184 C57.1837583,21.4052536 51.1152332,20.4808887 45.0467082,19.5565239 Z"/>
    <path fill="#8DDFF8" d="M42.2643523,23.5132831 L36.0601444,10.3703581 C34.9485176,8.02766154 31.7276501,7.99788149 30.6065222,10.3703581 L24.4023144,23.5132831 L10.5212307,25.6276661 C8.03194669,26.0048799 7.03433287,29.2111977 8.83953883,31.0476336 L18.8821846,41.2721145 L16.5069136,55.7154347 C16.0793648,58.3261516 18.7111651,60.2817077 20.9154166,59.060726 L33.3333333,52.2410965 L45.7512501,59.060726 C47.9555016,60.271781 50.5873018,58.3261516 50.1597531,55.7154347 L47.7844821,41.2721145 L57.8271278,31.0476336 C59.6323338,29.2111977 58.63472,26.0048799 56.145436,25.6276661 C51.5184081,24.9228717 46.8913802,24.2180774 42.2643523,23.5132831 Z"/>
  </g>
</svg>
