<svg xmlns="http://www.w3.org/2000/svg" width="64" height="64" viewBox="0 0 64 64">
  <g fill="none" fill-rule="evenodd">
    <polygon fill="#5CD999" points="19.962 21.767 21.382 20.348 35.239 23.496 30.602 28.125"/>
    <polygon fill="#5CD999" points="43.68 42.646 42.26 44.065 35.861 33.359 40.512 28.715"/>
    <path fill="#037092" d="M30.7376887,1.25409697 C29.2885869,-0.195004766 26.9417089,-0.196454382 25.4916407,1.25361381 L20.7911199,5.94592029 L18.6889801,5.46828206 L19.3705266,4.78649391 C19.7329229,4.42458089 19.7329229,3.83725737 19.3705266,3.47486113 C19.008372,3.11270647 18.4212901,3.11294812 18.0588938,3.47486113 L16.5513254,4.98267113 L14.4134292,4.49706014 L15.1077805,3.80295056 C15.4699351,3.44055432 15.4699351,2.85347238 15.1077805,2.49131778 C14.7456258,2.12892148 14.1583023,2.12892148 13.7961477,2.49131778 L12.2757746,4.01144915 L10.13812,3.52583822 L10.8447927,2.81916556 C11.2071889,2.4570109 11.2071889,1.86968738 10.8447927,1.50753279 C10.4826381,1.14537813 9.89555612,1.14537813 9.53315988,1.50753279 L8.00046538,3.04022729 L5.29336548,2.42512004 C4.98267113,2.35481515 4.65723929,2.44855498 4.43207043,2.67372384 L1.80880481,5.29698946 C1.38214367,5.7236506 1.47032674,6.43926241 1.98879499,6.74899036 L13.2474798,13.4767558 L9.85641735,16.8620199 L3.71718343,16.8620199 C3.47123721,16.8620199 3.23543806,16.9596252 3.06148786,17.1335754 L0.438222249,19.7568411 C-0.0116322526,20.206454 0.115447998,20.9665197 0.686584473,21.2458064 L6.64993542,24.1614049 L4.94522351,25.8661168 C4.58282727,26.2282715 4.58282727,26.815595 4.94522351,27.1777496 C5.30737816,27.5399043 5.89446004,27.5401459 6.25685628,27.1777496 L7.95432024,25.4800441 L10.7510528,31.307134 C11.0267156,31.8814113 11.7896805,32.0150146 12.2429174,31.5617778 L14.8582102,28.9385121 C15.0319188,28.7645619 15.1297659,28.5285212 15.1297659,28.282575 L15.1297659,22.073761 L18.5072988,18.7102407 L25.2780686,30.0382639 C25.5890045,30.5584234 26.3043747,30.6439489 26.7300695,30.2182541 L29.3533351,27.5949885 C29.5787455,27.369578 29.6724854,27.0443878 29.6019389,26.7336934 L28.9865901,24.0268351 L30.5195261,22.493899 C30.8819224,22.1317444 30.8819224,21.5444209 30.5195261,21.1822662 C30.1573715,20.8201116 29.5702896,20.8201116 29.2078934,21.1822662 L28.5004959,21.8896637 L28.0146433,19.7522507 L29.5359828,18.2309112 C29.8981374,17.8687566 29.8981374,17.2816747 29.5359828,16.9192784 C29.1738281,16.5571238 28.5865046,16.5571238 28.22435,16.9192784 L27.5285492,17.6150792 L27.0426967,15.4776663 L28.5521978,13.9681651 C28.9143524,13.6057688 28.9143524,13.0186869 28.5521978,12.6565323 C28.1900431,12.2943777 27.6027196,12.294136 27.240565,12.6565323 L26.5566025,13.3402532 L26.0625356,11.1678085 L30.7376887,6.50062814 C32.1841329,5.05418399 32.1841329,2.70054118 30.7376887,1.25409697 Z M3.96192168,5.76713815 L5.38179013,4.34751128 L19.2390976,7.49552665 L14.6016337,12.1250178 L3.96192168,5.76713815 Z M27.6795476,26.6455104 L26.2596791,28.0651372 L19.8607279,17.3589859 L24.5122045,12.7154821 L27.6795476,26.6455104 Z M29.4265391,5.18851214 L13.5470607,21.0327174 C13.3728689,21.2066676 13.2747803,21.4427083 13.2747803,21.6891378 L13.2747803,27.8984349 L11.8570862,29.324585 L9.34471383,24.0898921 L11.5033875,21.9312185 C11.8655421,21.5690638 11.8655421,20.9817403 11.5033875,20.6195857 C11.1412328,20.2574311 10.5539093,20.2574311 10.1917547,20.6195857 L8.03670503,22.7746353 L2.66840873,20.1499201 L4.10156506,18.7167638 L10.2400742,18.7167638 C10.4857788,18.7167638 10.721578,18.6194 10.8955282,18.4456914 C11.4321162,17.9100698 25.8922094,3.47461955 26.8027903,2.56572975 C27.5275828,1.84093727 28.7010218,1.84069568 29.4260559,2.56572975 C30.1491572,3.28883109 30.1491572,4.46565243 29.4265391,5.18851214 Z" transform="translate(16 16)"/>
  </g>
</svg>
