<svg xmlns="http://www.w3.org/2000/svg" width="64" height="64" viewBox="0 0 64 64">
  <path fill-rule="evenodd" d="M33.7376887,4.25409697 C32.2885869,2.80499523 29.9417089,2.80354562 28.4916407,4.25361381 L23.7911199,8.94592029 L21.6889801,8.46828206 L22.3705266,7.78649391 C22.7329229,7.42458089 22.7329229,6.83725737 22.3705266,6.47486113 C22.008372,6.11270647 21.4212901,6.11294812 21.0588938,6.47486113 L19.5513254,7.98267113 L17.4134292,7.49706014 L18.1077805,6.80295056 C18.4699351,6.44055432 18.4699351,5.85347238 18.1077805,5.49131778 C17.7456258,5.12892148 17.1583023,5.12892148 16.7961477,5.49131778 L15.2757746,7.01144915 L13.13812,6.52583822 L13.8447927,5.81916556 C14.2071889,5.4570109 14.2071889,4.86968738 13.8447927,4.50753279 C13.4826381,4.14537813 12.8955561,4.14537813 12.5331599,4.50753279 L11.0004654,6.04022729 L8.29336548,5.42512004 C7.98267113,5.35481515 7.65723929,5.44855498 7.43207043,5.67372384 L4.80880481,8.29698946 C4.38214367,8.7236506 4.47032674,9.43926241 4.98879499,9.74899036 L16.2474798,16.4767558 L12.8564174,19.8620199 L6.71718343,19.8620199 C6.47123721,19.8620199 6.23543806,19.9596252 6.06148786,20.1335754 L3.43822225,22.7568411 C2.98836775,23.206454 3.115448,23.9665197 3.68658447,24.2458064 L9.64993542,27.1614049 L7.94522351,28.8661168 C7.58282727,29.2282715 7.58282727,29.815595 7.94522351,30.1777496 C8.30737816,30.5399043 8.89446004,30.5401459 9.25685628,30.1777496 L10.9543202,28.4800441 L13.7510528,34.307134 C14.0267156,34.8814113 14.7896805,35.0150146 15.2429174,34.5617778 L17.8582102,31.9385121 C18.0319188,31.7645619 18.1297659,31.5285212 18.1297659,31.282575 L18.1297659,25.073761 L21.5072988,21.7102407 L28.2780686,33.0382639 C28.5890045,33.5584234 29.3043747,33.6439489 29.7300695,33.2182541 L32.3533351,30.5949885 C32.5787455,30.369578 32.6724854,30.0443878 32.6019389,29.7336934 L31.9865901,27.0268351 L33.5195261,25.493899 C33.8819224,25.1317444 33.8819224,24.5444209 33.5195261,24.1822662 C33.1573715,23.8201116 32.5702896,23.8201116 32.2078934,24.1822662 L31.5004959,24.8896637 L31.0146433,22.7522507 L32.5359828,21.2309112 C32.8981374,20.8687566 32.8981374,20.2816747 32.5359828,19.9192784 C32.1738281,19.5571238 31.5865046,19.5571238 31.22435,19.9192784 L30.5285492,20.6150792 L30.0426967,18.4776663 L31.5521978,16.9681651 C31.9143524,16.6057688 31.9143524,16.0186869 31.5521978,15.6565323 C31.1900431,15.2943777 30.6027196,15.294136 30.240565,15.6565323 L29.5566025,16.3402532 L29.0625356,14.1678085 L33.7376887,9.50062814 C35.1841329,8.05418399 35.1841329,5.70054118 33.7376887,4.25409697 Z M6.96192168,8.76713815 L8.38179013,7.34751128 L22.2390976,10.4955266 L17.6016337,15.1250178 L6.96192168,8.76713815 Z M30.6795476,29.6455104 L29.2596791,31.0651372 L22.8607279,20.3589859 L27.5122045,15.7154821 L30.6795476,29.6455104 Z M32.4265391,8.18851214 L16.5470607,24.0327174 C16.3728689,24.2066676 16.2747803,24.4427083 16.2747803,24.6891378 L16.2747803,30.8984349 L14.8570862,32.324585 L12.3447138,27.0898921 L14.5033875,24.9312185 C14.8655421,24.5690638 14.8655421,23.9817403 14.5033875,23.6195857 C14.1412328,23.2574311 13.5539093,23.2574311 13.1917547,23.6195857 L11.036705,25.7746353 L5.66840873,23.1499201 L7.10156506,21.7167638 L13.2400742,21.7167638 C13.4857788,21.7167638 13.721578,21.6194 13.8955282,21.4456914 C14.4321162,20.9100698 28.8922094,6.47461955 29.8027903,5.56572975 C30.5275828,4.84093727 31.7010218,4.84069568 32.4260559,5.56572975 C33.1491572,6.28883109 33.1491572,7.46565243 32.4265391,8.18851214 Z" transform="translate(13 13)"/>
</svg>
