<svg xmlns="http://www.w3.org/2000/svg" xmlns:xlink="http://www.w3.org/1999/xlink" width="40" height="40" viewBox="0 0 40 40">
  <defs>
    <path id="close-a" d="M37.45766,2.54233997 C38.18078,3.26545992 38.18078,4.43786902 37.45766,5.16098897 L22.618,20 L37.45766,34.839011 C38.18078,35.562131 38.18078,36.7345401 37.45766,37.45766 C36.7345401,38.18078 35.562131,38.18078 34.839011,37.45766 L20,22.618 L5.16098897,37.45766 C4.43786902,38.18078 3.26545992,38.18078 2.54233997,37.45766 C1.81922001,36.7345401 1.81922001,35.562131 2.54233997,34.839011 L17.382,20 L2.54233997,5.16098897 C1.81922001,4.43786902 1.81922001,3.26545992 2.54233997,2.54233997 C3.26545992,1.81922001 4.43786902,1.81922001 5.16098897,2.54233997 L20,17.382 L34.839011,2.54233997 C35.562131,1.81922001 36.7345401,1.81922001 37.45766,2.54233997 Z"/>
  </defs>
  <use fill="#4E4848" fill-rule="evenodd" xlink:href="#close-a"/>
</svg>
