<svg xmlns="http://www.w3.org/2000/svg" width="32" height="32" viewBox="0 0 32 32">
  <g fill="#B00020">
    <path d="M16,2.58379177e-15 C7.1776,2.58379177e-15 -2.58379177e-15,7.17769697 -2.58379177e-15,16.000097 C-2.58379177e-15,24.822497 7.1776,32 16,32 C24.8224,32 32,24.822497 32,16.000097 C32,7.17769697 24.8224,2.58379177e-15 16,2.58379177e-15 Z M16,29.0909091 C8.78157576,29.0909091 2.90909091,23.2184242 2.90909091,16.000097 C2.90909091,8.7817697 8.78157576,2.90909091 16,2.90909091 C23.2184242,2.90909091 29.0909091,8.7817697 29.0909091,16.000097 C29.0909091,23.2184242 23.2183273,29.0909091 16,29.0909091 Z" transform="rotate(180 16 16)"/>
    <path d="M16.0001939,21.3333333 C14.9310061,21.3333333 14.0611879,22.2037333 14.0611879,23.2736 C14.0611879,24.342497 14.9310061,25.2121212 16.0001939,25.2121212 C17.0693818,25.2121212 17.9392,24.342497 17.9392,23.2736 C17.9392,22.2037333 17.0693818,21.3333333 16.0001939,21.3333333 Z" transform="rotate(180 16 23.273)"/>
    <path d="M16,6.78787879 C15.196703,6.78787879 14.5454545,7.43912727 14.5454545,8.24242424 L14.5454545,16.969697 C14.5454545,17.7729939 15.196703,18.4242424 16,18.4242424 C16.803297,18.4242424 17.4545455,17.7729939 17.4545455,16.969697 L17.4545455,8.24242424 C17.4545455,7.43912727 16.803297,6.78787879 16,6.78787879 Z" transform="rotate(180 16 12.606)"/>
  </g>
</svg>
