<svg xmlns="http://www.w3.org/2000/svg" width="32" height="32" viewBox="0 0 32 32">
  <g fill="#1063E9">
    <path d="M16,0 C7.1776,0 0,7.17769697 0,16.000097 C0,24.822497 7.1776,32 16,32 C24.8224,32 32,24.822497 32,16.000097 C32,7.17769697 24.8224,0 16,0 Z M16,29.0909091 C8.78157576,29.0909091 2.90909091,23.2184242 2.90909091,16.000097 C2.90909091,8.7817697 8.78157576,2.90909091 16,2.90909091 C23.2184242,2.90909091 29.0909091,8.7817697 29.0909091,16.000097 C29.0909091,23.2184242 23.2183273,29.0909091 16,29.0909091 Z"/>
    <path d="M15.9998061 6.78787879C14.9306182 6.78787879 14.0608 7.65827879 14.0608 8.72814545 14.0608 9.79704242 14.9306182 10.6666667 15.9998061 10.6666667 17.0689939 10.6666667 17.9388121 9.79704242 17.9388121 8.72814545 17.9388121 7.65827879 17.0689939 6.78787879 15.9998061 6.78787879zM16 13.5757576C15.196703 13.5757576 14.5454545 14.2270061 14.5454545 15.030303L14.5454545 23.7575758C14.5454545 24.5608727 15.196703 25.2121212 16 25.2121212 16.803297 25.2121212 17.4545455 24.5608727 17.4545455 23.7575758L17.4545455 15.030303C17.4545455 14.2270061 16.803297 13.5757576 16 13.5757576z"/>
  </g>
</svg>
