<svg xmlns="http://www.w3.org/2000/svg" width="32" height="32" viewBox="0 0 32 32">
  <g fill="#76B143">
    <path d="M16,0 C7.1776,0 0,7.1776 0,16 C0,24.8224 7.1776,32 16,32 C24.8224,32 32,24.8224 32,16 C32,7.1776 24.8224,0 16,0 Z M16,29.0909091 C8.78157576,29.0909091 2.90909091,23.2183273 2.90909091,16 C2.90909091,8.78167273 8.78157576,2.90909091 16,2.90909091 C23.2184242,2.90909091 29.0909091,8.78167273 29.0909091,16 C29.0909091,23.2183273 23.2183273,29.0909091 16,29.0909091 Z"/>
    <path d="M21.9997091,10.3431758 L13.7714424,18.5713455 L10.0002909,14.800097 C9.43233939,14.2321455 8.51132121,14.2320485 7.94327273,14.8 C7.37522424,15.3680485 7.37522424,16.2889697 7.94327273,16.8570182 L12.7428848,21.6568242 C13.0156606,21.9296 13.3856,22.0829091 13.7713455,22.0829091 C13.7714424,22.0829091 13.7713455,22.0829091 13.7714424,22.0829091 C14.1571879,22.0829091 14.5271273,21.9296 14.799903,21.6569212 L24.0567273,12.4002909 C24.6247758,11.8322424 24.6247758,10.9113212 24.0567273,10.3432727 C23.4886788,9.77522424 22.5677576,9.77512727 21.9997091,10.3431758 Z"/>
  </g>
</svg>
