<svg xmlns="http://www.w3.org/2000/svg" width="32" height="28" viewBox="0 0 32 28">
  <g fill="#FFC107">
    <path d="M31.5876875,23.212125 L18.4618125,1.443875 C17.9446875,0.5863125 17.001375,0.0535625 15.9999375,0.0535625 C14.9985,0.0535625 14.0551875,0.5863125 13.538,1.4439375 L0.4121875,23.212125 C-0.12225,24.0985 -0.1380625,25.209 0.370875,26.11025 C0.8799375,27.0115 1.8390625,27.571375 2.8740625,27.571375 L29.1258125,27.571375 C30.1608125,27.571375 31.12,27.0115 31.6290625,26.1101875 C32.138,25.208875 32.1221875,24.098375 31.5876875,23.212125 Z M29.8149375,25.08575 C29.6748125,25.3338125 29.41075,25.488 29.1258125,25.488 L2.8740625,25.488 C2.589125,25.488 2.3250625,25.333875 2.185,25.0858125 C2.044875,24.8376875 2.04925,24.5319375 2.1963125,24.288 L15.32225,2.51975 C15.464625,2.2836875 15.7243125,2.137 16,2.137 C16.275625,2.137 16.5353125,2.2836875 16.6776875,2.51975 L29.8035,24.288 C29.9506875,24.532 29.9550625,24.8376875 29.8149375,25.08575 Z"/>
    <path d="M16.009625 8.6253125C15.217125 8.6253125 14.598625 9.0505625 14.598625 9.8044375 14.598625 12.1045625 14.8691875 15.4098125 14.8691875 17.71 14.86925 18.3091875 15.3911875 18.5604375 16.0096875 18.5604375 16.4735625 18.5604375 17.13075 18.3091875 17.13075 17.71 17.13075 15.409875 17.4013125 12.104625 17.4013125 9.8044375 17.4013125 9.050625 16.7635 8.6253125 16.009625 8.6253125zM16.0290625 19.894125C15.178625 19.894125 14.5406875 20.570625 14.5406875 21.3825 14.5406875 22.175 15.1785625 22.870875 16.0290625 22.870875 16.8215625 22.870875 17.498125 22.175 17.498125 21.3825 17.498125 20.570625 16.8215 19.894125 16.0290625 19.894125z"/>
  </g>
</svg>
