<svg xmlns="http://www.w3.org/2000/svg" xmlns:xlink="http://www.w3.org/1999/xlink" width="64" height="64" viewBox="0 0 64 64">
  <defs>
    <rect id="hover@3x-b" width="60" height="60" x="0" y="0" rx="30"/>
    <filter id="hover@3x-a" width="126.7%" height="126.7%" x="-13.3%" y="-11.7%" filterUnits="objectBoundingBox">
      <feOffset dy="1" in="SourceAlpha" result="shadowOffsetOuter1"/>
      <feGaussianBlur in="shadowOffsetOuter1" result="shadowBlurOuter1" stdDeviation="2.5"/>
      <feComposite in="shadowBlurOuter1" in2="SourceAlpha" operator="out" result="shadowBlurOuter1"/>
      <feColorMatrix in="shadowBlurOuter1" result="shadowMatrixOuter1" values="0 0 0 0 0   0 0 0 0 0   0 0 0 0 0  0 0 0 0.2 0"/>
      <feMorphology in="SourceAlpha" radius="1" result="shadowSpreadOuter2"/>
      <feOffset dy="3" in="shadowSpreadOuter2" result="shadowOffsetOuter2"/>
      <feGaussianBlur in="shadowOffsetOuter2" result="shadowBlurOuter2" stdDeviation=".5"/>
      <feComposite in="shadowBlurOuter2" in2="SourceAlpha" operator="out" result="shadowBlurOuter2"/>
      <feColorMatrix in="shadowBlurOuter2" result="shadowMatrixOuter2" values="0 0 0 0 0   0 0 0 0 0   0 0 0 0 0  0 0 0 0.12 0"/>
      <feOffset dy="2" in="SourceAlpha" result="shadowOffsetOuter3"/>
      <feGaussianBlur in="shadowOffsetOuter3" result="shadowBlurOuter3" stdDeviation="1"/>
      <feComposite in="shadowBlurOuter3" in2="SourceAlpha" operator="out" result="shadowBlurOuter3"/>
      <feColorMatrix in="shadowBlurOuter3" result="shadowMatrixOuter3" values="0 0 0 0 0   0 0 0 0 0   0 0 0 0 0  0 0 0 0.14 0"/>
      <feMerge>
        <feMergeNode in="shadowMatrixOuter1"/>
        <feMergeNode in="shadowMatrixOuter2"/>
        <feMergeNode in="shadowMatrixOuter3"/>
      </feMerge>
    </filter>
  </defs>
  <g fill="none" fill-rule="evenodd">
    <g transform="translate(2 2)">
      <use fill="#000" filter="url(#hover@3x-a)" xlink:href="#hover@3x-b"/>
      <use fill="#FF00B9" fill-opacity="0" xlink:href="#hover@3x-b"/>
      <rect width="60" height="60" fill="#FFF" rx="30"/>
      <rect width="59" height="59" x=".5" y=".5" stroke="#000" opacity="0" rx="29.5"/>
    </g>
    <g transform="translate(14 20)">
      <g transform="matrix(-1 0 0 1 9.5 14.012)">
        <rect width="6.5" height="6.5" rx="3.25"/>
        <rect width="6.5" height="6.5" fill="#5CD999" rx="3.25"/>
        <rect width="5.5" height="5.5" x=".5" y=".5" stroke="#000" opacity="0" rx="2.75"/>
      </g>
      <g transform="matrix(-1 0 0 1 33.5 14.012)">
        <rect width="6.5" height="6.5" rx="3.25"/>
        <rect width="6.5" height="6.5" fill="#5CD999" rx="3.25"/>
        <rect width="5.5" height="5.5" x=".5" y=".5" stroke="#000" opacity="0" rx="2.75"/>
      </g>
      <path fill="#037092" d="M30.3579219,10.7136145 C29.9774434,10.7136145 29.6044805,10.7462892 29.2412734,10.8081687 L26.252873,2.18074699 L31.239707,2.18074699 C31.8467383,2.18074699 32.3406738,2.67484337 32.3406738,3.28207229 C32.3406738,3.8893012 31.8467383,4.38339759 31.239707,4.38339759 L30.5801387,4.38339759 C29.9814902,4.38339759 29.4961543,4.86889157 29.4961543,5.46773494 C29.4961543,6.06657831 29.9814902,6.55207229 30.5801387,6.55207229 L31.239707,6.55207229 C33.0421563,6.55207229 34.5086426,5.08510843 34.5086426,3.28207229 C34.5086426,1.47903614 33.0421563,0.0120722892 31.239707,0.0120722892 L24.7300918,0.0120722892 C24.7279238,0.0120722892 24.7259727,0.0127228916 24.7238047,0.0127951807 C24.6081074,0.0134457831 24.4906035,0.0318072289 24.3751953,0.0718554217 C23.8095723,0.267903614 23.5098145,0.885542169 23.7058711,1.45142169 L25.198084,5.75949398 L13.9825313,5.75949398 L13.0224824,3.1706747 L14.7762969,3.1706747 C15.3749453,3.1706747 15.8602813,2.68518072 15.8602813,2.08633735 C15.8602813,1.48749398 15.3749453,1.002 14.7762969,1.002 L8.12598047,1.002 C7.52733203,1.002 7.04199609,1.48749398 7.04199609,2.08633735 C7.04199609,2.68518072 7.52733203,3.1706747 8.12598047,3.1706747 L10.7181484,3.1706747 C10.7279043,3.21021687 10.7394668,3.24968675 10.7539922,3.28879518 L12.0262285,6.71942169 L9.19095898,11.2295422 C8.40210742,10.8974458 7.53607617,10.7136145 6.62791406,10.7136145 C2.97329687,10.7136145 0,13.6878072 0,17.3436867 C0,20.9995663 2.97329688,23.9738313 6.62791406,23.9738313 C9.9134707,23.9738313 12.6478574,21.5698554 13.1667246,18.4280241 L16.3682363,18.4280241 L17.5085879,21.5030602 C17.6662715,21.9281928 18.0716094,22.2102651 18.5249316,22.2102651 L20.8357695,22.2102651 C21.434418,22.2102651 21.9197539,21.7247711 21.9197539,21.1259277 C21.9197539,20.5270843 21.434418,20.0415904 20.8357695,20.0415904 L19.2790234,20.0415904 L18.3681152,17.5853494 L26.2812734,8.88657831 L27.1932656,11.5194217 C25.1316719,12.644747 23.7299355,14.8335181 23.7299355,17.3436867 C23.7299355,20.9995663 26.7031602,23.9738313 30.3579219,23.9738313 C34.0126113,23.9738313 36.9859082,20.9995663 36.9859082,17.3436867 C36.9859082,13.6878072 34.0126113,10.7136145 30.3579219,10.7136145 Z M9.84669727,14.2603373 C10.3743809,14.8113253 10.7628086,15.4963373 10.9540234,16.2593494 L8.59007031,16.2593494 L9.84669727,14.2603373 Z M6.45994531,21.9349398 C4.00074609,21.9349398 2,19.9336145 2,17.4734699 C2,15.0134699 4.00074609,13.0120723 6.45994531,13.0120723 C6.94333008,13.0120723 7.40857617,13.0904337 7.84484375,13.2333494 L5.54224414,16.8961687 C5.33224023,17.2303614 5.32024414,17.652241 5.51102539,17.9977831 C5.70187891,18.343253 6.06523047,18.5577349 6.45987305,18.5577349 L10.7859824,18.5577349 C10.3005742,20.4955181 8.54538672,21.9349398 6.45994531,21.9349398 L6.45994531,21.9349398 Z M13.1667969,16.2593494 C12.914084,14.7292771 12.136,13.3744337 11.0244824,12.3868193 L12.9764492,9.28171084 L15.5640645,16.2592771 L13.1667969,16.2592771 L13.1667969,16.2593494 Z M17.5192109,15.296241 L14.7867754,7.92816867 L24.2219922,7.92816867 L17.5192109,15.296241 Z M30.3579219,21.8050843 C27.8986504,21.8050843 25.8979043,19.803759 25.8979043,17.3436145 C25.8979043,15.7839759 26.7026543,14.4095422 27.9180176,13.611759 L29.3336289,17.6986265 C29.4888555,18.1469639 29.9087188,18.428241 30.3577773,18.428241 C30.475498,18.428241 30.5952422,18.4088675 30.7127461,18.3681687 C31.2783691,18.1721205 31.578127,17.5544819 31.3820703,16.9886024 L29.9660254,12.900506 C30.0953086,12.8892289 30.225748,12.8822892 30.3579219,12.8822892 C32.8171934,12.8822892 34.8179395,14.8836145 34.8179395,17.3436867 C34.8179395,19.803759 32.8171934,21.8050843 30.3579219,21.8050843 L30.3579219,21.8050843 Z"/>
    </g>
  </g>
</svg>
