<svg xmlns="http://www.w3.org/2000/svg" xmlns:xlink="http://www.w3.org/1999/xlink" width="64" height="64" viewBox="0 0 64 64">
  <defs>
    <rect id="hover-b" width="60" height="60" x="0" y="0" rx="30"/>
    <filter id="hover-a" width="126.7%" height="126.7%" x="-13.3%" y="-11.7%" filterUnits="objectBoundingBox">
      <feOffset dy="1" in="SourceAlpha" result="shadowOffsetOuter1"/>
      <feGaussianBlur in="shadowOffsetOuter1" result="shadowBlurOuter1" stdDeviation="2.5"/>
      <feComposite in="shadowBlurOuter1" in2="SourceAlpha" operator="out" result="shadowBlurOuter1"/>
      <feColorMatrix in="shadowBlurOuter1" result="shadowMatrixOuter1" values="0 0 0 0 0   0 0 0 0 0   0 0 0 0 0  0 0 0 0.2 0"/>
      <feMorphology in="SourceAlpha" radius="1" result="shadowSpreadOuter2"/>
      <feOffset dy="3" in="shadowSpreadOuter2" result="shadowOffsetOuter2"/>
      <feGaussianBlur in="shadowOffsetOuter2" result="shadowBlurOuter2" stdDeviation=".5"/>
      <feComposite in="shadowBlurOuter2" in2="SourceAlpha" operator="out" result="shadowBlurOuter2"/>
      <feColorMatrix in="shadowBlurOuter2" result="shadowMatrixOuter2" values="0 0 0 0 0   0 0 0 0 0   0 0 0 0 0  0 0 0 0.12 0"/>
      <feOffset dy="2" in="SourceAlpha" result="shadowOffsetOuter3"/>
      <feGaussianBlur in="shadowOffsetOuter3" result="shadowBlurOuter3" stdDeviation="1"/>
      <feComposite in="shadowBlurOuter3" in2="SourceAlpha" operator="out" result="shadowBlurOuter3"/>
      <feColorMatrix in="shadowBlurOuter3" result="shadowMatrixOuter3" values="0 0 0 0 0   0 0 0 0 0   0 0 0 0 0  0 0 0 0.14 0"/>
      <feMerge>
        <feMergeNode in="shadowMatrixOuter1"/>
        <feMergeNode in="shadowMatrixOuter2"/>
        <feMergeNode in="shadowMatrixOuter3"/>
      </feMerge>
    </filter>
  </defs>
  <g fill="none" fill-rule="evenodd" transform="translate(2 2)">
    <use fill="#000" filter="url(#hover-a)" xlink:href="#hover-b"/>
    <use fill="#FF00B9" fill-opacity="0" xlink:href="#hover-b"/>
    <rect width="60" height="60" fill="#FFF" rx="30"/>
    <rect width="59" height="59" x=".5" y=".5" stroke="#000" opacity="0" rx="29.5"/>
    <g transform="translate(12 19)">
      <path fill="#037092" d="M18.6389719,0.00515827484 C19.4740546,0.00515827484 20.2515454,0.130246823 20.9282504,0.38042392 C21.6193534,0.630601016 22.2096705,1.04756284 22.6992017,1.60351195 C23.188733,2.15946105 23.5630804,2.89609361 23.822244,3.81340963 C24.0958056,4.71682693 24.2253874,5.82872513 24.2253874,7.13520553 L24.2253874,7.13520553 L24.2253874,9.80376122 C24.2253874,11.1102416 24.0814076,12.2221398 23.822244,13.1255571 C23.5630804,14.0428731 23.188733,14.7795057 22.6992017,15.3493535 C22.2096705,15.9192014 21.6337513,16.3361632 20.9426484,16.5863403 C20.2659434,16.8504161 19.5028506,16.9755047 18.6533699,16.9755047 C17.8182871,16.9755047 17.0551943,16.8365174 16.3640913,16.5863403 C15.6729884,16.3361632 15.0826713,15.9192014 14.59314,15.3493535 C14.0892108,14.7795057 13.7148634,14.0428731 13.4413018,13.1255571 C13.1677402,12.2221398 13.0381584,11.1102416 13.0381584,9.80376122 L13.0381584,9.80376122 L13.0381584,7.13520553 C13.0381584,5.82872513 13.1821382,4.71682693 13.4413018,3.81340963 C13.7148634,2.89609361 14.0892108,2.17335978 14.5787421,1.60351195 C15.0682733,1.03366412 15.6585904,0.630601016 16.3496934,0.38042392 C17.0407963,0.130246823 17.8038892,0.00515827484 18.6389719,0.00515827484 Z M5.80016642,0 C7.52221313,0 8.85288559,0.411805633 9.7921838,1.2354169 C10.731482,2.05902817 11.2011311,3.16976997 11.2011311,4.5676423 C11.2011311,5.26280044 11.0484951,5.94662447 10.7432232,6.6191144 C10.4379513,7.29160434 10.0191809,7.96220525 9.48691188,8.63091715 C8.9546429,9.29962905 8.34409906,9.9853421 7.65528038,10.6880563 L7.65528038,10.6880563 L4.0037586,14.4736457 L11.8468986,14.4736457 L11.8468986,16.7291316 L0.328754372,16.7291316 L0.328754372,14.7910005 L5.89409624,8.953939 L6.11690438,8.71432905 C6.62244984,8.16474326 7.02761392,7.68168628 7.33239662,7.2651581 C7.68071971,6.7891259 7.92532861,6.36031912 8.06622334,5.97873775 C8.20711808,5.59715639 8.27756544,5.2250201 8.27756544,4.8623289 C8.27756544,4.09916617 8.06035273,3.47390165 7.62592731,2.98653535 C7.19150189,2.49916905 6.5711737,2.2554859 5.76494274,2.2554859 C5.13874394,2.2554859 4.61234557,2.38582805 4.18574763,2.64651235 C3.7591497,2.90719665 3.44017968,3.2642208 3.22883758,3.7175848 C3.01749549,4.1709488 2.91182444,4.6923174 2.91182444,5.2816906 L2.91182444,5.2816906 L0,5.2816906 L0.00840729876,4.96237682 C0.0532462255,4.11908247 0.277440859,3.34146059 0.680991199,2.6295112 C1.13498533,1.82856813 1.79640782,1.1900805 2.66525866,0.7140483 C3.5341095,0.2380161 4.57907875,0 5.80016642,0 Z M21.3745877,10.1790269 C21.3745877,11.0129505 21.3169958,11.7217856 21.201812,12.3055322 C21.0866282,12.8892787 20.9138524,13.3618355 20.6834848,13.7232024 C20.4531171,14.0845693 20.1651576,14.3486451 19.8340041,14.5154299 C19.5028506,14.6822146 19.0997072,14.765607 18.6533699,14.765607 C18.2214305,14.765607 17.8182871,14.6822146 17.4727357,14.5154299 C17.1271842,14.3486451 16.8392246,14.0845693 16.608857,13.7232024 C16.3784893,13.3618355 16.1913156,12.8892787 16.0617338,12.3055322 C15.932152,11.7217856 15.8745601,11.0129505 15.8745601,10.1790269 L15.8745601,6.70434497 C15.8745601,5.87042132 15.932152,5.16158621 16.0617338,4.59173838 C16.1913156,4.02189055 16.3640913,3.56323254 16.608857,3.20186562 C16.8392246,2.85439743 17.1271842,2.60422033 17.4727357,2.4374356 C17.8182871,2.2845496 18.2070325,2.20115723 18.6389719,2.20115723 C19.0853092,2.20115723 19.4740546,2.2845496 19.8052081,2.4374356 C20.1507596,2.59032161 20.4387192,2.8404987 20.6690868,3.20186562 C20.8994544,3.54933381 21.0866282,4.00799182 21.201812,4.57783965 C21.3169958,5.14768748 21.3889857,5.85652259 21.3889857,6.69044624 L21.3889857,10.1790269 L21.3745877,10.1790269 L21.3745877,10.1790269 Z M37,16.8492789 L33.5007337,16.8492789 L30.6837143,12.8977393 L29.4072524,14.2149192 L29.4072524,16.8492789 L26.612241,16.8492789 L26.612241,2.67897274 L29.4072524,2.67897274 L29.4072524,11.1556627 L33.4347098,6.58802273 L36.8679522,6.58802273 L32.6644311,11.240642 L37,16.8492789 Z"/>
      <path fill="#5CD999" d="M18.838698,20.4707 L26.4856618,25.3919033 C26.7178737,25.5413432 26.7849735,25.8507331 26.6355336,26.0829449 C26.5435105,26.2259379 26.3851218,26.31236 26.215077,26.31236 L10.3799795,26.31236 C10.1038372,26.31236 9.87997955,26.0885024 9.87997955,25.81236 C9.87997955,25.6423151 9.96640165,25.4839265 10.1093947,25.3919033 L17.7563585,20.4707 C18.0859607,20.2585844 18.5090958,20.2585844 18.838698,20.4707 Z" transform="matrix(1 0 0 -1 0 46.435)"/>
    </g>
  </g>
</svg>
