<svg xmlns="http://www.w3.org/2000/svg" width="80" height="80" viewBox="0 0 80 80">
  <g fill="none" transform="translate(1.667 1.667)">
    <path fill="#005B76" d="M67.5325521,2.24609375 L67.5325521,11.2304688 C67.5325521,12.4880474 66.5446218,13.4765625 65.2864583,13.4765625 C64.0282948,13.4765625 63.0403646,12.4880474 63.0403646,11.2304688 L63.0403646,7.68175757 L39.905599,30.921224 C39.501419,31.3704427 38.9170838,31.5950521 38.3333333,31.5950521 C37.7495829,31.5950521 37.1652476,31.3704427 36.7610677,30.921224 L29.3489583,23.5541534 L12.952474,39.905599 C12.548294,40.3548177 11.9639588,40.5794271 11.3802083,40.5794271 C10.7964579,40.5794271 10.2121226,40.3548177 9.80794271,39.905599 C8.90950521,39.0522003 8.90950521,37.6144664 9.80794271,36.7610677 L27.7766927,18.7923177 C28.6300914,17.8938802 30.0678253,17.8938802 30.921224,18.7923177 L38.3333333,26.1593883 L59.8507945,4.4921875 L56.3020833,4.4921875 C55.0439198,4.4921875 54.0559896,3.50367236 54.0559896,2.24609375 C54.0559896,0.98793026 55.0439198,0 56.3020833,0 L65.2864583,0 C66.5446218,0 67.5325521,0.98793026 67.5325521,2.24609375 Z"/>
    <g fill="#005B76" transform="translate(0 55.853)">
      <path d="M22.4609375,5.09114583 L22.4609375,11.8294271 C22.4609375,11.8294271 14.3299612,16.0519664 13.8807424,16.0519664 C13.7011719,16.0519664 12.5330862,16.0970052 11.2304688,16.142044 C9.34410099,16.142044 7.14246118,16.186498 7.14246118,16.186498 L0,11.8294271 L0,5.09114583 C0,3.83298234 0.98793026,2.84505208 2.24609375,2.84505208 L20.2148438,2.84505208 C21.4730072,2.84505208 22.4609375,3.83298234 22.4609375,5.09114583 Z"/>
      <polygon points="49.564 2.845 49.564 11.829 46.195 16.591 31.999 16.591 27.103 11.829 27.103 2.845 31.056 .464 45.476 .464"/>
      <polygon points="76.667 2.845 76.667 11.829 74.151 15.333 58.563 15.333 54.206 11.829 54.206 2.845 57.171 .06 72.893 .06"/>
    </g>
    <path fill="#8DDFF8" d="M76.6666667 67.6822917L76.6666667 74.4205729C76.6666667 75.6781515 75.6787364 76.6666667 74.4205729 76.6666667L56.4518229 76.6666667C55.1936594 76.6666667 54.2057292 75.6781515 54.2057292 74.4205729L54.2057292 67.6822917 76.6666667 67.6822917zM49.5638021 67.6822917L49.5638021 74.4205729C49.5638021 75.6781515 48.5758718 76.6666667 47.3177083 76.6666667L29.3489583 76.6666667C28.0907948 76.6666667 27.1028646 75.6781515 27.1028646 74.4205729L27.1028646 67.6822917 49.5638021 67.6822917zM22.4609375 67.6822917L22.4609375 74.4205729C22.4609375 75.6781515 21.4730072 76.6666667 20.2148438 76.6666667L2.24609375 76.6666667C.98793026 76.6666667 0 75.6781515 0 74.4205729L0 67.6822917 22.4609375 67.6822917z"/>
    <polygon fill="#8DDFF8" points="54.206 49.714 76.667 49.714 76.667 58.698 54.206 58.698"/>
    <polygon fill="#005B76" points="54.206 40.651 76.667 40.651 76.667 49.818 54.206 49.818"/>
    <path fill="#8DDFF8" d="M49.5638021 51.9596354L49.5638021 58.6979167 27.1028646 58.6979167 27.1028646 51.9596354C27.1028646 50.7014719 28.0907948 49.7135417 29.3489583 49.7135417L47.3177083 49.7135417C48.5758718 49.7135417 49.5638021 50.7014719 49.5638021 51.9596354zM76.6666667 31.7447917L76.6666667 40.7291667 54.2057292 40.7291667 54.2057292 31.7447917C54.2057292 30.4866282 55.1936594 29.4986979 56.4518229 29.4986979L74.4205729 29.4986979C75.6787364 29.4986979 76.6666667 30.4866282 76.6666667 31.7447917z"/>
  </g>
</svg>
