<svg xmlns="http://www.w3.org/2000/svg" width="80" height="80" viewBox="0 0 80 80">
  <g fill="none" fill-rule="evenodd" transform="translate(.833 .833)">
    <rect width="40.967" height="49.971" x="17.557" y="13.056" fill="#005B76"/>
    <path fill="#8DDFF8" d="M39.2858006,57.6445024 L22.3159067,57.6445024 C22.3159067,45.409611 33.0614607,45.4122221 35.4457713,42.2132313 L35.718637,40.7549015 C32.3691784,39.0566718 30.0041251,34.9636869 30.0041251,30.1764613 C30.0041251,23.8688909 34.1069018,18.7549445 39.1660139,18.7549445 C44.225126,18.7549445 48.3279027,23.8688909 48.3279027,30.1764613 C48.3279027,34.9228876 46.0049542,38.9900873 42.7002117,40.7154078 L43.0099599,42.3728382 C45.6263368,45.4161389 56.0148155,45.614913 56.0148155,57.6445024 L39.2858006,57.6445024 Z M0,39.1660139 C0,60.796166 17.5361881,78.3333333 39.1660139,78.3333333 C60.7958397,78.3333333 78.3333333,60.796166 78.3333333,39.1660139 C78.3333333,17.5361881 60.7958397,0 39.1660139,0 C17.5361881,0 0,17.5361881 0,39.1660139 Z"/>
  </g>
</svg>
