<svg xmlns="http://www.w3.org/2000/svg" width="80" height="80" viewBox="0 0 80 80">
  <g fill="none" fill-rule="evenodd" transform="translate(6.667 6.667)">
    <path fill="#005B76" d="M0,32.8199658 C0,50.9453961 14.9244154,65.6410256 33.3327778,65.6410256 C51.7411401,65.6410256 66.6666667,50.9453961 66.6666667,32.8199658 C66.6666667,14.694809 51.7411401,9.86864911e-14 33.3327778,9.86864911e-14 C14.9244154,9.86864911e-14 0,14.694809 0,32.8199658 Z"/>
    <path fill="#8DDFF8" d="M33.4347239,48.3043948 L18.992261,48.3043948 C18.992261,38.0519162 28.1374134,38.0541043 30.1666139,35.3734443 L30.39884,34.1514068 C27.5482369,32.7283403 25.5354256,29.2985396 25.5354256,25.2869856 C25.5354256,20.0014274 29.0271505,15.716091 33.3327778,15.716091 C37.6384051,15.716091 41.1301299,20.0014274 41.1301299,25.2869856 C41.1301299,29.264351 39.1531526,32.6725445 36.3406057,34.1183122 L36.6042212,35.5071901 C38.830925,38.0573864 47.6721834,38.2239533 47.6721834,48.3043948 L33.4347239,48.3043948 Z"/>
  </g>
</svg>
