<svg xmlns="http://www.w3.org/2000/svg" width="80" height="80" viewBox="0 0 80 80">
  <g fill="none" transform="translate(.833 2.5)">
    <path fill="#8DDFF8" d="M58,5 L63.6666667,5 C65.3235209,5 66.6666667,6.34314575 66.6666667,8 L66.6666667,20.3333333 L66.6666667,20.3333333 L55,20.3333333 L55,8 C55,6.34314575 56.3431458,5 58,5 Z"/>
    <path fill="#8DDFF8" d="M6.66666667,28.687575 L6.66666667,72.8333333 C6.66666667,74.4901876 8.00981242,75.8333333 9.66666667,75.8333333 L68.6666667,75.8333333 C70.3235209,75.8333333 71.6666667,74.4901876 71.6666667,72.8333333 L71.6666667,28.687575 L71.6666667,28.687575 L39.4983255,5 L6.66666667,28.687575 Z"/>
    <rect width="11.667" height="11.667" fill="#005B76" rx="4" transform="translate(25.833 34.167)"/>
    <rect width="11.667" height="11.667" fill="#005B76" rx="4" transform="translate(25.833 49.167)"/>
    <rect width="11.667" height="11.667" fill="#005B76" rx="4" transform="translate(40.833 34.167)"/>
    <rect width="11.667" height="11.667" fill="#005B76" rx="4" transform="translate(40.833 49.167)"/>
    <path fill="#005B76" d="M35.5112068,12.7549904 L7.79236515,34.0511737 L7.79236515,34.0511737 C5.78508235,35.5933544 2.90767367,35.2163146 1.36549298,33.2090318 C-0.176687713,31.201749 0.200352046,28.3243403 2.20763485,26.7821596 L33.0670267,3.02846707 C36.662544,0.26085547 41.6707894,0.26085547 45.2663066,3.02846707 L76.1256985,26.7821596 L76.1256985,26.7821596 C78.1329813,28.3243403 78.510021,31.201749 76.9678404,33.2090318 C75.4256597,35.2163146 72.548251,35.5933544 70.5409682,34.0511737 L42.8221265,12.7549904 C40.6665246,11.0988573 37.6668088,11.0988573 35.5112068,12.7549904 Z"/>
  </g>
</svg>
