<svg xmlns="http://www.w3.org/2000/svg" width="64" height="64" viewBox="0 0 64 64">
  <g fill-rule="evenodd" transform="translate(18 15)">
    <path d="M16,26 C16.5522667,26 17,26.4477333 17,27 C17,27.5522667 16.5522667,28 16,28 L16,28 L6,28 C5.44773333,28 5,27.5522667 5,27 C5,26.4477333 5.44773333,26 6,26 L6,26 Z M11.4999337,11 C15.0840316,11 18,13.9158592 18,17.4999044 C18,21.0828882 15.0859553,23.9978851 11.5033831,23.9997425 C8.00658251,24.031384 5,21.1433852 5,17.4999044 C5,13.9254777 7.90024697,11.0159866 11.4710778,11.0003317 L11.4710778,11.0003317 Z M8.66695072,18.5020175 L7.10362599,18.5020175 C7.40452305,19.8223365 8.28585425,20.9234868 9.46450039,21.5223533 C9.03723453,20.5547341 8.77116352,19.5348434 8.66695072,18.5020175 L8.66695072,18.5020175 Z M15.8962413,18.5020175 L14.3329166,18.5020175 C14.2287038,19.5348434 13.9626328,20.5547341 13.5353669,21.5223533 C14.7140131,20.9234868 15.5953443,19.8223365 15.8962413,18.5020175 L15.8962413,18.5020175 Z M12.3293243,18.5020175 L10.670543,18.5020175 C10.7865635,19.419886 11.0636462,20.3214362 11.4999337,21.1638825 C11.9362211,20.3215025 12.2132375,19.4199523 12.3293243,18.5020175 L12.3293243,18.5020175 Z M13.5353006,13.4774555 C13.9644902,14.4494528 14.2309592,15.4743186 14.334177,16.5119869 L14.334177,16.5119869 L15.8994918,16.5119869 C15.6017125,15.1852998 14.7182585,14.0784447 13.5353006,13.4774555 Z M11.4999337,13.83586 C11.0613908,14.6826844 10.7835121,15.5892097 10.6684866,16.5119869 L10.6684866,16.5119869 L12.3313807,16.5119869 C12.2163552,15.5891433 11.9384765,14.682618 11.4999337,13.83586 Z M9.46456673,13.4774555 C8.28160878,14.0784447 7.39815486,15.1852998 7.10037556,16.5119869 L7.10037556,16.5119869 L8.66569035,16.5119869 C8.76890812,15.4743186 9.03537714,14.4495191 9.46456673,13.4774555 Z"/>
    <path d="M26.962963,0 L19.6967901,0 C19.1240691,0 18.6597531,0.445984375 18.6597531,0.99609375 L18.6597531,1.03766406 C18.6597531,1.60065625 18.1829926,2.05859375 17.5968593,2.05859375 C17.0107951,2.05859375 16.5339654,1.60065625 16.5339654,1.03766406 L16.5339654,0.99609375 C16.5339654,0.445984375 16.0696494,0 15.4969284,0 L8.2962963,0 C7.72357531,0 7.25925926,0.445984375 7.25925926,0.99609375 L7.25925926,6.109375 L1.03703704,6.109375 C0.464316049,6.109375 0,6.55535937 0,7.10546875 L0,33.0039062 C0,33.5540156 0.464316049,34 1.03703704,34 L19.7037037,34 C21.4191704,34 22.8148148,32.659457 22.8148148,31.0117188 L22.8148148,29.9492188 L26.962963,29.9492188 C27.535684,29.9492188 28,29.5032344 28,28.953125 L28,0.99609375 C28,0.445984375 27.535684,0 26.962963,0 L26.962963,0 Z M9.33333333,1.9921875 L14.6211852,1.9921875 C15.0377284,3.18730078 16.2142123,4.05078125 17.5968593,4.05078125 C18.9795062,4.05078125 20.1559901,3.18730078 20.5725333,1.9921875 L25.9259259,1.9921875 L25.9259259,10.9657305 L22.8148148,10.9657305 L22.8148148,9.09765625 C22.8148148,7.44991797 21.4191704,6.109375 19.7037037,6.109375 L9.33333333,6.109375 L9.33333333,1.9921875 Z M20.7407407,31.0117188 C20.7407407,31.5609648 20.2755259,32.0078125 19.7037037,32.0078125 L2.07407407,32.0078125 L2.07407407,8.1015625 L19.7037037,8.1015625 C20.2755259,8.1015625 20.7407407,8.54841016 20.7407407,9.09765625 L20.7407407,31.0117188 Z M22.8148148,27.9570312 L22.8148148,12.957918 L25.9259259,12.957918 L25.9259259,27.9570312 L22.8148148,27.9570312 Z"/>
  </g>
</svg>
