<svg xmlns="http://www.w3.org/2000/svg" width="64" height="64" viewBox="0 0 64 64">
  <g fill="none" fill-rule="evenodd" transform="translate(16 16)">
    <path fill="#037092" d="M24.9753247 2.75386515L26.6022778 2.38203896C27.1210766 2.26363078 27.4457836 1.74678509 27.3271313 1.22774209 27.2087231.708943275 26.6918773.384236275 26.1728344.502888588L22.2443676 1.40059365C21.7253247 1.5190019 21.4008617 2.03584759 21.5195141 2.5546464L22.416975 6.48335734C22.5190258 6.93013465 22.9159985 7.2326249 23.3556957 7.2326249 23.4267407 7.2326249 23.4990063 7.2248124 23.5712719 7.20821084 24.0900707 7.08980265 24.4147778 6.57295696 24.2961254 6.05415815L23.9089184 4.35982215C28.2043285 7.27632609 30.5654125 12.3307695 29.9824047 17.5590409 29.1227856 25.2694902 22.1501293 30.8424882 14.4399242 29.9836015 13.9103832 29.9242753 13.434309 30.3058671 13.375227 30.8346757 13.3163891 31.3637284 13.6972485 31.8405351 14.2263012 31.899373 14.8298168 31.9667558 15.4313793 31.9999589 16.029768 31.9999589 19.6428051 31.9999589 23.1244946 30.7851152 25.98802 28.4958085 29.3256665 25.8275957 31.4245434 22.0194902 31.8981762 17.7724198 32.5617504 11.8210038 29.8701 6.06758584 24.9753247 2.75386515zM9.4150219 25.3263749C9.29661371 24.807332 8.77976796 24.4831132 8.26072503 24.6012773 7.74192621 24.7199296 7.41721915 25.2367753 7.53587153 25.7555742L7.94383046 27.5404863C3.74046134 24.609578 1.43894771 19.6103105 2.01536371 14.441121 2.87473871 6.73042765 9.84763909 1.15694134 17.5578442 2.01631634 18.0868969 2.07564253 18.5634594 1.69429484 18.6222973 1.16524209 18.6813793.6361894 18.3002758.1596269 17.7714672.100788963 13.5248852-.3733321 9.34739496.8358964 6.00974846 3.50410928 2.67185784 6.17232215.572980901 9.98067178.0995922131 14.227498-.552751537 20.0775957 2.03684809 25.7360429 6.77415278 29.0746659L5.22971915 29.4274492C4.71067621 29.5461015 4.38621334 30.062703 4.50486565 30.581746 4.60667228 31.0285233 5.00388909 31.3310136 5.44334221 31.3310136 5.51438715 31.3310136 5.58665278 31.3232011 5.6589184 31.3065995L9.58762934 30.4091386C9.8368969 30.3522538 10.0532055 30.1986894 10.1891918 29.9821367 10.3251782 29.7655839 10.3693676 29.5041093 10.3124828 29.2548417L9.4150219 25.3263749z"/>
    <path fill="#5CD999" d="M24.5816731,15.3114278 L9.96026059,9.05553627 C9.70128259,8.94477794 9.40099494,9.0027548 9.20184472,9.20206462 C9.0026945,9.40137443 8.94479665,9.70187939 9.05558372,9.96095917 L15.3079081,24.5816103 C15.4171329,24.8370119 15.66761,25 15.9412922,25 C15.9620619,25 15.9829695,24.9990805 16.0039689,24.9971494 C16.3014536,24.970115 16.5477032,24.7543915 16.6137803,24.462898 L18.0634322,18.0687539 L24.4629825,16.618183 C24.7544017,16.5521142 24.9700942,16.3057241 24.9971591,16.0080237 C25.0241781,15.7102314 24.8564122,15.4289907 24.5816731,15.3114278 Z"/>
  </g>
</svg>
