<svg xmlns="http://www.w3.org/2000/svg" width="64" height="64" viewBox="0 0 64 64">
  <path fill-rule="evenodd" d="M24.2974849,6.33333333 C26.1143154,6.33333333 27.7005383,7.22199154 28.6492023,8.7715306 L32.5862943,15.1968927 L32.5862943,15.1968927 C34.5618119,15.8719716 36.0079389,17.6516295 36.1353233,19.7710823 L36.1444648,20.0760902 L36.1444648,25.6548391 C36.1444648,26.5519706 35.7472821,27.3597472 35.1160751,27.9201219 L34.9198555,28.0806542 L34.9198555,29.796849 C34.9198555,31.186974 33.8483596,32.3316343 32.4879237,32.4482741 L32.2586432,32.4580612 L29.2131758,32.4580612 C27.8228703,32.4580612 26.6781516,31.3865653 26.5615062,30.0261295 L26.5517186,29.796849 L26.5517186,28.7163625 L11.1760948,28.7163625 L11.1760948,29.796849 C11.1760948,31.186974 10.1045256,32.3316343 8.74403579,32.4482741 L8.51474649,32.4580612 L5.46922461,32.4580612 C4.07903001,32.4580612 2.93436842,31.3865653 2.81772868,30.0261295 L2.80794162,29.796849 L2.80794162,28.0806542 C2.13162326,27.5713898 1.67290168,26.7988289 1.59508717,25.921141 L1.58333333,25.6548391 L1.58333333,20.0760902 C1.58333333,17.9275687 2.937615,16.0819281 4.8588968,15.3023663 L5.13713777,15.198335 L9.07548152,8.77104076 L9.07548152,8.77104076 C9.9649051,7.31867955 11.4145157,6.44697932 13.0890407,6.34369007 L13.4268452,6.33333333 L24.2974849,6.33333333 Z M9.13507917,28.7163625 L4.84894636,28.7163625 L4.84894636,29.796849 C4.84894636,30.1329362 5.13300131,30.4170456 5.46922461,30.4170456 L8.51474649,30.4170456 C8.8509698,30.4170456 9.13507917,30.1329362 9.13507917,29.796849 L9.13507917,28.7163625 Z M32.8788398,28.7163625 L28.5927342,28.7163625 L28.5927342,29.796849 C28.5927342,30.1329362 28.8768164,30.4170456 29.2131758,30.4170456 L32.2586432,30.4170456 C32.5947305,30.4170456 32.8788398,30.1332083 32.8788398,29.796849 L32.8788398,28.7163625 Z M30.8302044,16.9465329 L6.89766342,16.9465329 C5.56357396,16.9465329 4.4141556,17.7138732 3.90484873,18.810851 C4.16065602,18.758601 4.42686433,18.7401775 4.7011224,18.7582745 C7.30192058,18.9297198 9.33918073,21.1064493 9.33918073,23.7139148 L9.33918073,23.8499826 C9.33918073,24.413575 8.88226537,24.8704904 8.31867292,24.8704904 L3.62434515,24.8704904 L3.62434515,25.6548391 C3.62434515,26.2175607 4.1137807,26.6753469 4.71546394,26.6753469 L33.0121862,26.6753469 C33.6138776,26.6753469 34.1034492,26.2175607 34.1034492,25.6548391 L34.1034492,24.8704904 L29.4091133,24.8704904 C28.8455208,24.8704904 28.3886327,24.413575 28.3886327,23.8499826 L28.3886327,23.7139148 C28.3886327,21.1064493 30.4258112,18.9297198 33.0266094,18.7582745 C33.3006497,18.7400958 33.5670703,18.758465 33.8228776,18.8107966 C33.3137122,17.7138732 32.1642122,16.9465329 30.8302044,16.9465329 Z M26.7558474,18.7154948 C27.1037725,18.7154948 27.4276953,18.8927094 27.615251,19.1857448 C27.802834,19.478753 27.8282787,19.8471699 27.6826046,20.1631191 L26.3231521,23.1203331 L26.3231521,23.1203331 C25.8543988,24.1433776 24.9013334,24.8065903 23.7972137,24.8961154 L23.5398871,24.9064939 L14.1846335,24.9064939 C13.0598025,24.9064939 12.0601091,24.3167781 11.5186367,23.3510282 L11.4019672,23.1215849 L10.0443652,20.1613503 C9.89945313,19.845401 9.92536042,19.477474 10.1130794,19.1849284 C10.2739581,18.934175 10.5347649,18.7683946 10.8248424,18.7261462 L10.9719932,18.7154948 L26.7558474,18.7154948 Z M25.1624945,20.7565104 L12.5627064,20.7565104 L13.2570599,22.2705358 C13.4088604,22.6014014 13.6866524,22.808755 14.0324433,22.8554236 L14.1846335,22.8654783 L23.5398871,22.8654783 C23.9561182,22.8654783 24.2943281,22.6485319 24.4676784,22.2701276 L25.1624945,20.7565104 Z M4.566878,20.7948543 C4.30298829,20.7777642 4.09799684,20.8504243 3.90430446,21.0317482 C3.71061208,21.2129904 3.62434515,21.4121118 3.62434515,21.6773895 L3.62434515,22.8295292 L7.16087279,22.8295292 C6.80451146,21.7120867 5.79184115,20.8755969 4.566878,20.7948543 Z M33.1607721,20.7947727 C31.9358906,20.8755424 30.9232747,21.7120051 30.5670495,22.8294747 L34.1034492,22.8294747 L34.1034492,21.6773078 C34.1034492,21.4121118 34.0171823,21.2129904 33.8234219,21.0316665 C33.6299336,20.8503699 33.4252878,20.7774376 33.1607721,20.7947727 Z M24.2974849,8.37426732 L13.4268452,8.37426732 C12.3208869,8.37426732 11.3936671,8.8937194 10.8160596,9.83694076 L7.71036862,14.9055173 L7.71036862,14.9055173 L30.0140703,14.9055173 L26.9084882,9.83721289 C26.3309352,8.89385547 25.4036337,8.37426732 24.2974849,8.37426732 Z" transform="translate(13 13)"/>
</svg>
