<svg xmlns="http://www.w3.org/2000/svg" xmlns:xlink="http://www.w3.org/1999/xlink" width="64" height="64" viewBox="0 0 64 64">
  <defs>
    <rect id="hover@3x-b" width="60" height="60" x="0" y="0" rx="30"/>
    <filter id="hover@3x-a" width="126.7%" height="126.7%" x="-13.3%" y="-11.7%" filterUnits="objectBoundingBox">
      <feOffset dy="1" in="SourceAlpha" result="shadowOffsetOuter1"/>
      <feGaussianBlur in="shadowOffsetOuter1" result="shadowBlurOuter1" stdDeviation="2.5"/>
      <feComposite in="shadowBlurOuter1" in2="SourceAlpha" operator="out" result="shadowBlurOuter1"/>
      <feColorMatrix in="shadowBlurOuter1" result="shadowMatrixOuter1" values="0 0 0 0 0   0 0 0 0 0   0 0 0 0 0  0 0 0 0.2 0"/>
      <feMorphology in="SourceAlpha" radius="1" result="shadowSpreadOuter2"/>
      <feOffset dy="3" in="shadowSpreadOuter2" result="shadowOffsetOuter2"/>
      <feGaussianBlur in="shadowOffsetOuter2" result="shadowBlurOuter2" stdDeviation=".5"/>
      <feComposite in="shadowBlurOuter2" in2="SourceAlpha" operator="out" result="shadowBlurOuter2"/>
      <feColorMatrix in="shadowBlurOuter2" result="shadowMatrixOuter2" values="0 0 0 0 0   0 0 0 0 0   0 0 0 0 0  0 0 0 0.12 0"/>
      <feOffset dy="2" in="SourceAlpha" result="shadowOffsetOuter3"/>
      <feGaussianBlur in="shadowOffsetOuter3" result="shadowBlurOuter3" stdDeviation="1"/>
      <feComposite in="shadowBlurOuter3" in2="SourceAlpha" operator="out" result="shadowBlurOuter3"/>
      <feColorMatrix in="shadowBlurOuter3" result="shadowMatrixOuter3" values="0 0 0 0 0   0 0 0 0 0   0 0 0 0 0  0 0 0 0.14 0"/>
      <feMerge>
        <feMergeNode in="shadowMatrixOuter1"/>
        <feMergeNode in="shadowMatrixOuter2"/>
        <feMergeNode in="shadowMatrixOuter3"/>
      </feMerge>
    </filter>
  </defs>
  <g fill="none" fill-rule="evenodd">
    <g transform="translate(2 2)">
      <use fill="#000" filter="url(#hover@3x-a)" xlink:href="#hover@3x-b"/>
      <use fill="#FF00B9" fill-opacity="0" xlink:href="#hover@3x-b"/>
      <rect width="60" height="60" fill="#FFF" rx="30"/>
      <rect width="59" height="59" x=".5" y=".5" stroke="#000" opacity="0" rx="29.5"/>
    </g>
    <g transform="translate(14 19)">
      <path fill="#5CD999" d="M25.7558474,12.7154948 C26.1037725,12.7154948 26.4276953,12.8927094 26.615251,13.1857448 C26.802834,13.478753 26.8282787,13.8471699 26.6826046,14.1631191 L25.3231521,17.1203331 L25.3231521,17.1203331 C24.8543988,18.1433776 23.9013334,18.8065903 22.7972137,18.8961154 L22.5398871,18.9064939 L13.1846335,18.9064939 C12.0598025,18.9064939 11.0601091,18.3167781 10.5186367,17.3510282 L10.4019672,17.1215849 L9.04436524,14.1613503 C8.89945313,13.845401 8.92536042,13.477474 9.11307943,13.1849284 C9.27395812,12.934175 9.53476492,12.7683946 9.82484239,12.7261462 L9.97199323,12.7154948 L25.7558474,12.7154948 Z"/>
      <path fill="#5CD999" d="M24.1624945,14.7565104 L11.5627064,14.7565104 L12.2570599,16.2705358 C12.4088604,16.6014014 12.6866524,16.808755 13.0324433,16.8554236 L13.1846335,16.8654783 L22.5398871,16.8654783 C22.9561182,16.8654783 23.2943281,16.6485319 23.4676784,16.2701276 L24.1624945,14.7565104 Z"/>
      <path fill="#037092" d="M23.2974849,0.333333333 C25.1143154,0.333333333 26.7005383,1.22199154 27.6492023,2.7715306 L31.5862943,9.19689271 L31.5862943,9.19689271 C33.5618119,9.87197161 35.0079389,11.6516295 35.1353233,13.7710823 L35.1444648,14.0760902 L35.1444648,19.6548391 C35.1444648,20.5519706 34.7472821,21.3597472 34.1160751,21.9201219 L33.9198555,22.0806542 L33.9198555,23.796849 C33.9198555,25.186974 32.8483596,26.3316343 31.4879237,26.4482741 L31.2586432,26.4580612 L28.2131758,26.4580612 C26.8228703,26.4580612 25.6781516,25.3865653 25.5615062,24.0261295 L25.5517186,23.796849 L25.5517186,22.7163625 L10.1760948,22.7163625 L10.1760948,23.796849 C10.1760948,25.186974 9.10452564,26.3316343 7.74403579,26.4482741 L7.51474649,26.4580612 L4.46922461,26.4580612 C3.07903001,26.4580612 1.93436842,25.3865653 1.81772868,24.0261295 L1.80794162,23.796849 L1.80794162,22.0806542 C1.13162326,21.5713898 0.672901681,20.7988289 0.595087166,19.921141 L0.583333333,19.6548391 L0.583333333,14.0760902 C0.583333333,11.9275687 1.937615,10.0819281 3.8588968,9.30236634 L4.13713777,9.19833503 L8.07548152,2.77104076 L8.07548152,2.77104076 C8.9649051,1.31867955 10.4145157,0.446979316 12.0890407,0.343690072 L12.4268452,0.333333333 L23.2974849,0.333333333 Z M8.13507917,22.7163625 L3.84894636,22.7163625 L3.84894636,23.796849 C3.84894636,24.1329362 4.13300131,24.4170456 4.46922461,24.4170456 L7.51474649,24.4170456 C7.8509698,24.4170456 8.13507917,24.1329362 8.13507917,23.796849 L8.13507917,22.7163625 Z M31.8788398,22.7163625 L27.5927342,22.7163625 L27.5927342,23.796849 C27.5927342,24.1329362 27.8768164,24.4170456 28.2131758,24.4170456 L31.2586432,24.4170456 C31.5947305,24.4170456 31.8788398,24.1332083 31.8788398,23.796849 L31.8788398,22.7163625 Z M29.8302044,10.9465329 L5.89766342,10.9465329 C4.56357396,10.9465329 3.4141556,11.7138732 2.90484873,12.810851 C3.16065602,12.758601 3.42686433,12.7401775 3.7011224,12.7582745 C6.30192058,12.9297198 8.33918073,15.1064493 8.33918073,17.7139148 L8.33918073,17.8499826 C8.33918073,18.413575 7.88226537,18.8704904 7.31867292,18.8704904 L2.62434515,18.8704904 L2.62434515,19.6548391 C2.62434515,20.2175607 3.1137807,20.6753469 3.71546394,20.6753469 L32.0121862,20.6753469 C32.6138776,20.6753469 33.1034492,20.2175607 33.1034492,19.6548391 L33.1034492,18.8704904 L28.4091133,18.8704904 C27.8455208,18.8704904 27.3886327,18.413575 27.3886327,17.8499826 L27.3886327,17.7139148 C27.3886327,15.1064493 29.4258112,12.9297198 32.0266094,12.7582745 C32.3006497,12.7400958 32.5670703,12.758465 32.8228776,12.8107966 C32.3137122,11.7138732 31.1642122,10.9465329 29.8302044,10.9465329 Z M3.566878,14.7948543 C3.30298829,14.7777642 3.09799684,14.8504243 2.90430446,15.0317482 C2.71061208,15.2129904 2.62434515,15.4121118 2.62434515,15.6773895 L2.62434515,16.8295292 L6.16087279,16.8295292 C5.80451146,15.7120867 4.79184115,14.8755969 3.566878,14.7948543 Z M32.1607721,14.7947727 C30.9358906,14.8755424 29.9232747,15.7120051 29.5670495,16.8294747 L33.1034492,16.8294747 L33.1034492,15.6773078 C33.1034492,15.4121118 33.0171823,15.2129904 32.8234219,15.0316665 C32.6299336,14.8503699 32.4252878,14.7774376 32.1607721,14.7947727 Z M23.2974849,2.37426732 L12.4268452,2.37426732 C11.3208869,2.37426732 10.3936671,2.8937194 9.81605964,3.83694076 L6.71036862,8.90551732 L6.71036862,8.90551732 L29.0140703,8.90551732 L25.9084882,3.83721289 C25.3309352,2.89385547 24.4036337,2.37426732 23.2974849,2.37426732 Z"/>
    </g>
  </g>
</svg>
