<svg version="1.1" xmlns="http://www.w3.org/2000/svg" xmlns:xlink="http://www.w3.org/1999/xlink" x="0px" y="0px"
	 viewBox="0 0 102 102">
<g>
	<path id="Fill-1" class="st0" d="M20.5,75.9H13V64.7h7.4c3.8,0,6.6,1.6,6.6,5.6C27.1,74.2,24.3,75.9,20.5,75.9z M36.5,70
		c0-8.6-5.6-13.5-15.4-13.5H3.7v44.3H13V84h6.9l8.8,16.8h10.5L28.9,82.2C33.7,80,36.5,75.5,36.5,70L36.5,70z"/>
	<path id="Fill-2" class="st0" d="M62.7,64.1c5.4,0,8.6,3.7,9.5,9.8h9.6c-1.1-11-8.3-18.2-19.1-18.2c-12.5,0-19.7,9.5-19.7,23.1
		s7.3,23.1,19.7,23.1c10.8,0,18-7.3,19.1-18.2h-9.6c-0.9,6.1-4.2,9.8-9.5,9.8c-6.6,0-10.2-5.6-10.2-14.6S56.1,64.1,62.7,64.1"/>
	<polygon id="Fill-3" class="st0" points="89.4,100.8 98.7,100.8 98.7,56.5 89.4,56.5 	"/>
	<path id="Fill-4" class="st0" d="M0,0c5.7,22.8,26.2,39.8,50.7,39.8c24.5,0,45-16.9,50.7-39.8H0"/>
</g>
</svg>
