<svg xmlns="http://www.w3.org/2000/svg" width="76" height="32" viewBox="0 0 76 32">
  <path fill="#8B0F04" fill-rule="evenodd" d="M20.8669565,1.63515585 C23.4548913,3.32079058 25.032343,6.16462946 25.08,9.23045478 C25.0874216,11.5671827 24.0902028,13.7967318 22.3373913,15.3622892 C21.4998653,16.0689584 20.5547202,16.6401378 19.5369565,17.0546755 C21.2469565,17.8722534 22.6678261,19.7281553 24.1795652,23.0556975 L25.46,25.7700562 L26.286087,27.5523761 L27.2773913,29.7107818 L28.1034783,31.4849259 L28.3347826,32 L19.5534783,31.9591211 L19.3634783,31.6320899 L18.7521739,30.3239653 L18.173913,28.8686765 L17.2321739,26.8083802 L16.0013043,24.0858457 C14.7704348,21.3224323 13.2091304,19.5401124 11.6891304,19.1231477 C10.9314111,18.9325568 10.1467751,18.8689954 9.36782609,18.9351048 L8.14521739,18.9351048 L8.14521739,31.9591211 L5.32907052e-15,31.9591211 L5.32907052e-15,0 L12.3913043,0 C17.0752174,0 18.7852174,0.32703117 20.8669565,1.63515585 Z M68.9947826,0 L68.9947826,32 L60.8495652,32 L60.8495652,0 L68.9947826,0 Z M54.6952174,1.51163662 C55.6329096,1.8035042 56.5274223,2.21822458 57.3552174,2.74488482 L57.3552174,9.92238932 C54.2200716,7.73041049 50.4887032,6.54032016 46.6573913,6.51040264 C39.9495652,6.51040264 35.3069565,10.3910236 35.3069565,15.9735271 C35.3069565,21.5560307 39.9,25.5599765 46.426087,25.5599765 C49.7500582,25.4646179 52.9933413,24.5189037 55.8434783,22.8139438 L57.4047826,21.9013401 L57.7269565,21.7204637 L57.7269565,28.8979683 C53.9748577,30.9893232 49.7347922,32.0584875 45.4347826,31.9975321 C34.6956522,31.9975321 27.1782609,25.4695383 27.1782609,16.096852 C27.2143104,10.1830716 30.6131727,4.80001151 35.9513043,2.20225561 C39.1096979,0.670917679 42.5918107,-0.0819795099 46.103913,0.00707381738 C49.0395329,-0.062563248 51.9598103,0.44885395 54.6952174,1.51163662 Z M12.2178261,5.79662749 L8.14521739,5.79662749 L8.14521739,13.1057741 L11.5073913,13.1057741 L12.1186957,13.0567195 L13.1182609,13.0158406 C14.0817101,13.0457699 15.0146787,12.6795526 15.6954927,12.0042023 C16.3763067,11.328852 16.7441921,10.4046549 16.7117391,9.45120082 C16.7117391,7.03117016 15.2,5.81297905 12.2178261,5.81297905 L12.2178261,5.79662749 Z M73.3234783,0.163586948 L73.5286146,0.171685593 C74.1405657,0.220145442 74.717421,0.484436552 75.151911,0.920171949 C75.6346776,1.40432239 75.9014465,2.05977904 75.8926087,2.74008152 C75.9466907,3.68479514 75.4684007,4.581588 74.6499394,5.07008413 C73.8314782,5.55858027 72.8072175,5.55858027 71.9887562,5.07008413 C71.170295,4.581588 70.692005,3.68479514 70.746087,2.74008152 C70.7416924,2.05967659 71.0110335,1.40552809 71.4946271,0.922102787 C71.9782207,0.438677488 72.6362813,0.165746906 73.3234783,0.163586948 L73.3234783,0.163586948 Z M73.3069565,0.564375 L73.1545417,0.574270813 C72.0480886,0.684876094 71.1986371,1.62247047 71.2252174,2.74008152 C71.2074484,3.3061528 71.4193387,3.85570002 71.8135815,4.26603086 C72.2078242,4.6763617 72.7515903,4.91330744 73.3234783,4.92396739 L73.3234783,4.92396739 L73.3234783,4.9076087 C73.8873479,4.89479734 74.4226868,4.6594952 74.8105011,4.2540047 C75.1983155,3.8485142 75.4064697,3.30643559 75.3886957,2.74826087 C75.4064773,2.18496127 75.1968354,1.63786383 74.8061516,1.22800993 C74.4154677,0.81815604 73.8759477,0.57933167 73.3069565,0.564375 L73.3069565,0.564375 Z M73.1830435,1.3005163 C73.4980432,1.27912827 73.8121446,1.35331215 74.0834783,1.51317935 C74.2662213,1.65643269 74.3652601,1.88013548 74.3478261,2.11027174 C74.3635254,2.45392352 74.1258992,2.75840507 73.786087,2.83005435 L73.786087,2.83005435 L73.868333,2.85310014 C74.0791948,2.93244767 74.2211594,3.15541063 74.2652174,3.53347826 C74.2874642,3.77869358 74.3488041,4.01887132 74.4469565,4.24508152 L74.4469565,4.24508152 L73.9595652,4.24508152 C73.8562909,4.01102969 73.7894447,3.76283004 73.7613043,3.50894022 C73.7560546,3.35685476 73.6852375,3.21428673 73.5667814,3.11732936 C73.4483253,3.02037199 73.2935864,2.97832043 73.1417391,3.00182065 L73.1417391,3.00182065 L72.8113043,3.00182065 L72.8113043,4.24508152 L72.3569565,4.24508152 L72.3569565,1.36595109 C72.6301974,1.32303593 72.9063871,1.30115879 73.1830435,1.3005163 Z M72.988913,1.6690079 L72.8195652,1.6767663 L72.8195652,2.6501087 L73.1582609,2.6501087 C73.5217391,2.6501087 73.8686957,2.43744565 73.8686957,2.18388587 C73.8686957,1.93032609 73.6786957,1.6767663 73.1582609,1.6767663 C73.045604,1.66642177 72.9322221,1.66642177 72.8195652,1.6767663 Z"/>
</svg>
