<svg xmlns="http://www.w3.org/2000/svg" width="64" height="64" viewBox="0 0 64 64">
  <g fill="none" fill-rule="evenodd" transform="translate(15.5 18)">
    <g transform="translate(8.5 12)">
      <rect width="4" height="4" rx="2"/>
      <rect width="4" height="4" fill="#5CD999" rx="2"/>
      <rect width="3" height="3" x=".5" y=".5" stroke="#000" opacity="0" rx="1.5"/>
    </g>
    <path fill="#037092" d="M32.0332031,7.08984375 L28.0371094,7.08984375 C27.5031797,7.08984375 27.0703125,7.52271094 27.0703125,8.05664062 L27.0703125,8.30697656 L22.5555645,5.67335742 C21.2034023,4.88470898 19.6187578,4.64429883 18.0935391,4.99608398 L12.706418,6.23925586 C12.1432266,6.05298633 11.5576055,5.92330664 10.9569668,5.85575977 L10.9569668,2.90039062 C10.9569668,1.30111523 9.65585156,0 8.05657617,0 L2.90039062,0 C1.30111523,0 0,1.30111523 0,2.90039062 L0,26.1035156 C0,27.702791 1.30111523,29.0039062 2.90039062,29.0039062 L8.05664062,29.0039062 C9.65591602,29.0039062 10.9570312,27.702791 10.9570312,26.1035156 L10.9570312,23.1491133 C12.6772852,22.956334 14.3101406,22.2525059 15.6342012,21.1194199 C15.7002656,21.0628945 15.765041,21.0050801 15.8292363,20.94675 L18.6501563,22.0045547 C19.6303594,22.3721309 20.6581934,22.5585293 21.7051055,22.5585293 L27.0703125,22.5585938 L27.0703125,23.5253906 C27.0703125,24.0593203 27.5031797,24.4921875 28.0371094,24.4921875 L32.0332031,24.4921875 C32.5671328,24.4921875 33,24.0593203 33,23.5253906 L33,8.05664062 C33,7.52271094 32.5671328,7.08984375 32.0332031,7.08984375 Z M8.05664063,27.0703125 L2.90039062,27.0703125 C2.36729883,27.0703125 1.93359375,26.6366074 1.93359375,26.1035156 L1.93359375,2.90039062 C1.93359375,2.36729883 2.36729883,1.93359375 2.90039062,1.93359375 L8.05664063,1.93359375 C8.58973242,1.93359375 9.0234375,2.36729883 9.0234375,2.90039062 L9.0234375,5.8543418 C8.12953711,5.95392188 7.26270703,6.19291406 6.4453125,6.56087695 L6.4453125,4.83398438 C6.4453125,4.30005469 6.01244531,3.8671875 5.47851563,3.8671875 C4.94458594,3.8671875 4.51171875,4.30005469 4.51171875,4.83398438 L4.51171875,24.1699219 C4.51171875,24.7038516 4.94458594,25.1367188 5.47851563,25.1367188 C6.01244531,25.1367188 6.4453125,24.7038516 6.4453125,24.1699219 L6.4453125,22.4438027 C7.26257813,22.8118301 8.12973047,23.049082 9.0234375,23.148791 L9.0234375,26.1035156 C9.0234375,26.6366074 8.58973242,27.0703125 8.05664063,27.0703125 Z M9.99023438,21.2695312 C8.72998242,21.2695312 7.51420313,20.9209688 6.4453125,20.2586484 L6.4453125,8.74519336 C7.51420313,8.08287305 8.72991797,7.734375 9.99023438,7.734375 C12.3632051,7.734375 14.5314082,8.98637695 15.7456406,10.9570312 L13.8574219,10.9570312 C12.2581465,10.9570312 10.9570313,12.2581465 10.9570313,13.8574219 C10.9570313,15.4566973 12.2581465,16.7578125 13.8574219,16.7578125 L16.3647773,16.7578125 C15.429498,19.4292012 12.9079629,21.2695312 9.99023438,21.2695312 Z M21.7051699,20.625 C20.8908691,20.625 20.0915215,20.4799805 19.3291055,20.1940664 L17.1809473,19.3885313 C17.7249316,18.5866699 18.1336289,17.6972813 18.3858984,16.7578125 L19.1731289,16.7578125 C20.176084,17.9773301 21.672041,18.6914062 23.271252,18.6914062 L24.1699219,18.6914062 C24.7038516,18.6914062 25.1367188,18.2585391 25.1367188,17.7246094 C25.1367188,17.1906797 24.7038516,16.7578125 24.1699219,16.7578125 L23.2711875,16.7578125 C22.1400352,16.7578125 21.0900938,16.1959102 20.4626426,15.2547656 C20.283334,14.9858027 19.9815,14.8242188 19.6582676,14.8242188 L13.8574863,14.8242188 C13.3243945,14.8242188 12.8906895,14.3905137 12.8906895,13.8574219 C12.8906895,13.3243301 13.3243945,12.890625 13.8574863,12.890625 L19.6582676,12.890625 C20.1921973,12.890625 20.6250645,12.4577578 20.6250645,11.9238281 C20.6250645,11.3898984 20.1921973,10.9570312 19.6582676,10.9570312 L17.9289902,10.9570312 C17.3340234,9.62465625 16.4234297,8.4882832 15.3065859,7.62377344 L18.5284687,6.88024219 C19.5721582,6.63931641 20.6563242,6.80399414 21.5814199,7.3435957 L27.0703125,10.545498 L27.0703125,20.625 L21.7051699,20.625 Z M31.0664063,22.5585938 L29.0039062,22.5585938 L29.0039062,9.0234375 L31.0664063,9.0234375 L31.0664063,22.5585938 Z"/>
  </g>
</svg>
