<svg xmlns="http://www.w3.org/2000/svg" xmlns:xlink="http://www.w3.org/1999/xlink" width="64" height="64" viewBox="0 0 64 64">
  <defs>
    <rect id="hover-b" width="60" height="60" x="0" y="0" rx="30"/>
    <filter id="hover-a" width="126.7%" height="126.7%" x="-13.3%" y="-11.7%" filterUnits="objectBoundingBox">
      <feOffset dy="1" in="SourceAlpha" result="shadowOffsetOuter1"/>
      <feGaussianBlur in="shadowOffsetOuter1" result="shadowBlurOuter1" stdDeviation="2.5"/>
      <feComposite in="shadowBlurOuter1" in2="SourceAlpha" operator="out" result="shadowBlurOuter1"/>
      <feColorMatrix in="shadowBlurOuter1" result="shadowMatrixOuter1" values="0 0 0 0 0   0 0 0 0 0   0 0 0 0 0  0 0 0 0.2 0"/>
      <feMorphology in="SourceAlpha" radius="1" result="shadowSpreadOuter2"/>
      <feOffset dy="3" in="shadowSpreadOuter2" result="shadowOffsetOuter2"/>
      <feGaussianBlur in="shadowOffsetOuter2" result="shadowBlurOuter2" stdDeviation=".5"/>
      <feComposite in="shadowBlurOuter2" in2="SourceAlpha" operator="out" result="shadowBlurOuter2"/>
      <feColorMatrix in="shadowBlurOuter2" result="shadowMatrixOuter2" values="0 0 0 0 0   0 0 0 0 0   0 0 0 0 0  0 0 0 0.12 0"/>
      <feOffset dy="2" in="SourceAlpha" result="shadowOffsetOuter3"/>
      <feGaussianBlur in="shadowOffsetOuter3" result="shadowBlurOuter3" stdDeviation="1"/>
      <feComposite in="shadowBlurOuter3" in2="SourceAlpha" operator="out" result="shadowBlurOuter3"/>
      <feColorMatrix in="shadowBlurOuter3" result="shadowMatrixOuter3" values="0 0 0 0 0   0 0 0 0 0   0 0 0 0 0  0 0 0 0.14 0"/>
      <feMerge>
        <feMergeNode in="shadowMatrixOuter1"/>
        <feMergeNode in="shadowMatrixOuter2"/>
        <feMergeNode in="shadowMatrixOuter3"/>
      </feMerge>
    </filter>
  </defs>
  <g fill="none" fill-rule="evenodd">
    <g transform="translate(2 2)">
      <use fill="#000" filter="url(#hover-a)" xlink:href="#hover-b"/>
      <use fill="#FF00B9" fill-opacity="0" xlink:href="#hover-b"/>
      <rect width="60" height="60" fill="#FFF" rx="30"/>
      <rect width="59" height="59" x=".5" y=".5" stroke="#000" opacity="0" rx="29.5"/>
    </g>
    <g transform="translate(16 16)">
      <path fill="#037092" d="M3.81770152,30.4621582 C3.1996116,29.535141 2.0991346,28.9749527 0.947045231,28.9973603 C0.413297532,29.0084381 -0.0104275974,29.4500427 0.000195456906,29.9837952 C0.0112243997,30.5110016 0.441747275,30.930954 0.96668315,30.930954 C0.97322908,30.930954 0.980026826,30.9307022 0.986824572,30.9307022 C1.36221029,30.9226456 1.90351105,31.0767288 2.20890536,31.5346985 C2.82044928,32.4521484 3.84388537,33 4.94688,33 C6.05919003,33 7.07985666,32.4418259 7.68460284,31.5346985 C7.94090247,31.1507492 8.35229106,30.9304504 8.81403314,30.9304504 C9.27552347,30.9304504 9.68716381,31.1507492 9.94321163,31.5346985 C10.5547556,32.4521484 11.5781916,33 12.6811863,33 C13.7836774,33 14.8073652,32.4521484 15.4189091,31.5346985 C15.6752087,31.1507492 16.0865973,30.9304504 16.5483394,30.9304504 C17.0098297,30.9304504 17.4214701,31.1507492 17.6775179,31.5346985 C18.2890618,32.4521484 19.3124979,33 20.4154926,33 C21.5179837,33 22.5416715,32.4521484 23.1532154,31.5346985 C23.409515,31.1507492 23.8209036,30.9304504 24.2826457,30.9304504 C24.744136,30.9304504 25.1557764,31.1507492 25.4118242,31.5346985 C26.0117868,32.4347763 27.0324534,33 28.1497988,33 C29.25229,33 30.2759777,32.4521484 30.8875217,31.5346985 C31.1259458,31.1774368 31.5831561,30.9402695 32.052703,30.9307022 C32.5867025,30.9196243 33.0104276,30.4780197 32.9998045,29.9442673 C32.9887756,29.4170608 32.5580009,28.9971084 32.0333169,28.9971084 C32.0265192,28.9971084 32.0199732,28.9973603 32.0131754,28.9973603 C30.9139573,29.0200195 29.8660998,29.5812149 29.2787256,30.4621582 C29.0226777,30.8461075 28.6112892,31.0664062 28.1495471,31.0664062 C28.0881157,31.0664062 28.0274397,31.0621262 27.9677707,31.0543213 L30.9640591,20.6343155 C31.0987548,20.1660232 30.8636038,19.6705398 30.4157089,19.4784394 L27.1346711,18.0723038 L27.1346711,10.6992188 C27.1346711,10.1652146 26.7016305,9.73242188 26.1678828,9.73242188 L23.267518,9.73242188 L23.267518,4.83398438 C23.267518,4.29998018 22.8344774,3.8671875 22.3007297,3.8671875 L19.4003649,3.8671875 L19.4003649,0.966796875 C19.4003649,0.43279268 18.9673243,0 18.4335766,0 L14.5664234,0 C14.032424,0 13.5996351,0.43279268 13.5996351,0.966796875 L13.5996351,3.8671875 L10.6992703,3.8671875 C10.1652708,3.8671875 9.73248201,4.29998018 9.73248201,4.83398438 L9.73248201,9.73242188 L6.83211716,9.73242188 C6.29811771,9.73242188 5.86532887,10.1652146 5.86532887,10.6992188 L5.86532887,18.0723038 L2.58403938,19.4786911 C2.13614448,19.6705398 1.90099341,20.1660232 2.03568912,20.6343155 L5.03449519,31.0636368 C5.00554188,31.0653992 4.97633682,31.0664062 4.94688,31.0664062 C4.48513792,31.0664062 4.07374934,30.8461075 3.81770152,30.4621582 Z M28.8701064,20.9198227 L26.340092,29.7186814 C25.7642991,29.2569351 25.0422291,28.9968567 24.2826457,28.9968567 C23.1799028,28.9968567 22.156215,29.5447083 21.544671,30.4621582 C21.2886232,30.8461075 20.8769829,31.0664062 20.4154926,31.0664062 C19.9537505,31.0664062 19.5423619,30.8463593 19.2860622,30.4621582 C18.8494969,29.8070526 18.202202,29.3417816 17.4667883,29.1285324 L17.4667883,16.0324631 C18.8472311,16.6241226 28.4214563,20.7274704 28.8701064,20.9198227 Z M15.5332117,1.93359375 L17.4667883,1.93359375 L17.4667883,3.8671875 L15.5332117,3.8671875 L15.5332117,1.93359375 Z M11.6660586,5.80078125 L21.3339414,5.80078125 L21.3339414,9.73242187 L11.6660586,9.73242187 L11.6660586,5.80078125 Z M7.79890544,11.6660156 L25.2010946,11.6660156 L25.2010946,17.2437286 L16.8809246,13.6779099 C16.6427523,13.5756912 16.3668149,13.5714111 16.1190754,13.6779099 L7.79890544,17.2437286 L7.79890544,11.6660156 Z M4.12964175,20.9198227 C4.57854372,20.7274704 14.1527689,16.6241226 15.5332117,16.0324631 L15.5332117,29.1569824 C14.8375773,29.3820649 14.2277958,29.8357544 13.8103648,30.4621582 C13.5543169,30.8461075 13.1426766,31.0664062 12.6811863,31.0664062 C12.2194442,31.0664062 11.8080556,30.8461075 11.551756,30.4621582 C10.940212,29.5444565 9.91652428,28.9968567 8.81403314,28.9968567 C8.01920227,28.9968567 7.26666838,29.2823639 6.6787906,29.7846451 L4.12964175,20.9198227 Z"/>
      <path fill="#5CD999" d="M21 20C21 20.5523437 20.5523437 21 20 21 19.4476563 21 19 20.5523437 19 20 19 19.4476563 19.4476563 19 20 19 20.5523437 19 21 19.4476563 21 20zM14 20C14 20.5523437 13.5523437 21 13 21 12.4476563 21 12 20.5523437 12 20 12 19.4476563 12.4476563 19 13 19 13.5523437 19 14 19.4476563 14 20z"/>
    </g>
  </g>
</svg>
