<svg xmlns="http://www.w3.org/2000/svg" width="64" height="64" viewBox="0 0 64 64">
  <defs>
    <filter id="enable-a">
      <feColorMatrix in="SourceGraphic" values="0 0 0 0 0.000000 0 0 0 0 0.000000 0 0 0 0 0.000000 0 0 0 1.000000 0"/>
    </filter>
  </defs>
  <g fill="none" fill-rule="evenodd" filter="url(#enable-a)" transform="translate(12 12)">
    <rect width="40" height="40"/>
    <path fill="#037092" d="M30.1998141,22.6900788 L30.1978446,21.4512909 L32.2762772,21.4512909 L32.2795596,22.6900788 L30.1998141,22.6900788 Z M11.8710717,21.4906801 C11.4788217,20.9208508 10.874527,20.507265 10.1737289,20.3628383 C10.1704464,20.3648077 10.1678205,20.3667772 10.1648663,20.3667772 L10.1648663,20.3608688 C10.1678205,20.3608688 10.1704464,20.3628383 10.1737289,20.3628383 C10.874527,20.2203809 11.4768523,19.802528 11.8658198,19.2287598 C12.1976732,19.5041554 12.4120156,19.8980466 12.4133286,20.3608688 C12.4159545,20.8250039 12.2002991,21.2195516 11.8710717,21.4906801 Z M9.63147199,24.7104277 C8.69893457,24.7143513 7.93872455,23.9574237 7.93642685,23.0225886 C7.93642685,22.9385585 7.94266346,22.8568261 7.95513668,22.7747654 C8.66545382,22.5522169 9.27729815,22.0116012 9.56089981,21.3285129 C9.58190735,21.3285129 9.60521257,21.3285129 9.62556362,21.3285129 C10.5600705,21.3245893 11.3209374,22.0841428 11.3209374,23.0166802 C11.3215935,23.9495459 10.5672918,24.7104277 9.63147199,24.7104277 Z M7.21856013,21.8616116 C6.39335807,21.8655332 5.72472775,21.1959181 5.72340706,20.3707161 C5.72078884,19.5451858 6.38810618,18.8736013 7.21429298,18.8736013 C8.03883856,18.8736013 8.71075179,19.5432163 8.71075179,20.3667772 C8.71140779,21.1919792 8.04277747,21.8616116 7.21856013,21.8616116 Z M4.81385435,24.7163361 C3.87934747,24.7202597 3.12373285,23.9633321 3.11979223,23.0304664 C3.11848097,22.0972725 3.87606504,21.336406 4.80728949,21.336406 C4.83125121,21.336406 4.85357171,21.336406 4.87457924,21.336406 C5.16211982,22.019479 5.77363591,22.5581252 6.48559426,22.7787043 C6.49642626,22.8584673 6.50299794,22.9405279 6.50299794,23.0245581 C6.50561706,23.9574237 5.74967419,24.7163361 4.81385435,24.7163361 Z M2.5663768,21.5084052 C2.23550819,21.2353073 2.02049982,20.8387901 2.02049982,20.3782657 C2.01886803,19.9157717 2.23189752,19.5195828 2.56243789,19.2464849 C2.95403139,19.8182837 3.55635668,20.2299 4.25682654,20.3743268 C4.26076545,20.3743268 4.26273491,20.3726855 4.26601733,20.3707161 L4.26601733,20.3782657 C4.26273491,20.3782657 4.26076545,20.3743268 4.25682654,20.3743268 C3.55635668,20.5210512 2.95600084,20.9326675 2.5663768,21.5084052 Z M4.80006815,16.02839 C5.73457503,16.0264244 6.49576978,16.7817107 6.49576978,17.7162176 C6.49576978,17.8002477 6.48953317,17.8823084 6.47837292,17.9623996 C5.76936875,18.1869176 5.15818091,18.727205 4.87260978,19.4102819 C4.84831983,19.4102819 4.82632757,19.4102819 4.80532004,19.4102819 C3.87081316,19.4122475 3.11322908,18.6549917 3.11125792,17.7181871 C3.10994666,16.7872909 3.86621776,16.02839 4.80006815,16.02839 Z M9.61702931,16.0185465 C10.5521927,16.0185465 11.3110897,16.7738329 11.3124044,17.708668 C11.3137157,18.6415337 10.558101,19.400759 9.62293768,19.4046979 C9.60061718,19.4046979 9.5792814,19.400759 9.5569609,19.400759 C9.27138978,18.7193272 8.65757599,18.1790398 7.94660237,17.9604302 C7.93412915,17.8823084 7.9292038,17.7963088 7.9292038,17.7162176 C7.92789254,16.7817107 8.6838354,16.020516 9.61702931,16.0185465 Z M37.9079366,19.2678207 L13.1827294,19.2678207 C12.9802037,18.850296 12.6650907,18.5026871 12.2761232,18.2551921 C12.3135428,18.0772846 12.3315962,17.8941251 12.3315962,17.7066986 C12.329955,16.2118815 11.1121747,14.9960706 9.61505985,15 C8.77869754,15.0039485 8.03424316,15.3961984 7.54023795,15.9932719 C7.43126138,15.9814551 7.3206436,15.9739055 7.2090411,15.9739055 C7.09776683,15.9755468 6.98813378,15.9814551 6.87948546,15.9952413 C6.38022836,15.3998091 5.6351175,15.0078874 4.7980987,15.0078874 C3.30098389,15.0118263 2.0894402,16.2253394 2.09305087,17.7240954 C2.09305087,17.9098808 2.11208894,18.0950097 2.14885212,18.2689783 C1.46184022,18.7193272 0.998689814,19.4962776 1,20.3802351 C1.00262873,21.270101 1.4670921,22.054601 2.16821844,22.5016675 L2.16821844,22.513156 C2.13375296,22.6907353 2.10092869,22.8450093 2.10092869,23.0344053 C2.10552409,24.527253 3.31969372,25.7410944 4.81779326,25.737165 C5.65284261,25.737165 6.39664049,25.3409666 6.89458462,24.7438932 C7.00159173,24.7576793 7.11286599,24.7635877 7.22315553,24.7635877 C7.33508628,24.7635877 7.44471933,24.7576793 7.55271117,24.7438932 C8.05196827,25.3389971 8.79773561,25.7312471 9.63278496,25.7292776 C11.1312127,25.7273082 12.3414435,24.5114973 12.339474,23.0147108 C12.3388175,22.8276125 12.3201077,22.6460943 12.2833445,22.4681867 C12.6729686,22.2167528 12.9844708,21.8711133 13.1853554,21.4512909 L28.6025852,21.4512909 L28.6025852,22.6900788 L26.9308453,22.6900788 L26.9387232,24.7931296 L29.2613683,24.7891906 L29.2613683,23.8720806 L30.472912,23.8720806 L30.472912,24.8535262 L32.7368016,24.8515567 L32.7348322,24.2935442 L33.5209734,24.2935442 L33.5242558,25.7007205 L35.4914141,25.6967816 L35.4848493,22.6900788 L34.0090702,22.6900788 L34.0077573,21.4512909 L37.9118756,21.4512909 C38.5132161,21.4496497 39,20.9110035 39,20.3119606 C39,19.70504 38.5092772,19.2678207 37.9079366,19.2678207 L37.9079366,19.2678207 Z"/>
  </g>
</svg>
