<svg xmlns="http://www.w3.org/2000/svg" width="24" height="24" viewBox="0 0 24 24">
  <path fill="#FFF" fill-rule="evenodd" d="M12.8654345,0.726757862 C12.9529242,0.726873642 13.0376673,0.727010179 13.1198069,0.727168447 L13.5825483,0.728386619 C15.2454132,0.734115636 15.6825431,0.75237069 16.63625,0.795 C17.5702228,0.814176526 18.4941704,0.991696203 19.36875,1.32 C20.8798119,1.90549714 22.0745029,3.10018815 22.66,4.61125 C22.9939145,5.49721922 23.1711404,6.43452865 23.18375,7.38125 C23.241681,8.37125 23.2516691,8.80733799 23.2548083,10.6584803 L23.2554741,11.1518856 C23.2555693,11.2394131 23.2556584,11.329682 23.2557446,11.422835 L23.2557048,12.8832837 C23.253353,14.5462472 23.2430824,15.2171786 23.2189166,15.8786369 L23.2108164,16.0883496 C23.2036697,16.2647577 23.1955172,16.4476724 23.18625,16.655 C23.1675,17.59125 22.99125,18.51375 22.6625,19.38875 C22.0763394,20.8993794 20.8818794,22.0938394 19.37125,22.68 C18.4967013,23.0082516 17.5726913,23.1853605 16.63875,23.20375 C16.3506034,23.2206466 16.1092137,23.2334646 15.8658677,23.2431887 L15.65567,23.2507888 C15.1942804,23.2657136 14.6781401,23.2709373 13.7952293,23.2727655 L10.8814398,23.2727668 C9.40291243,23.2697334 8.7678458,23.2593105 8.1407998,23.2364166 L7.93093551,23.2283164 C7.75438615,23.2211697 7.5712931,23.2130172 7.36375,23.20375 C6.42796479,23.1729762 5.50429205,22.9827461 4.6325,22.64125 C3.12121575,22.0563268 1.92607099,20.8620895 1.34,19.35125 C1.01125,18.475 0.835,17.5525 0.81625,16.6175 C0.799353448,16.3290517 0.786535375,16.0875059 0.776811319,15.8440967 L0.769211171,15.6338665 C0.756582527,15.2434373 0.750899637,14.8140003 0.748342337,14.1563208 L0.746608768,13.3392106 C0.746537015,13.2620564 0.746479612,13.1824471 0.746433689,13.1002407 L0.746488837,11.3854176 C0.746569611,11.2922911 0.74667145,11.2020544 0.746795225,11.1145641 L0.748525001,10.3974406 C0.75457937,8.73453329 0.77362069,8.29719828 0.81625,7.3425 C0.83390396,6.4088879 1.01103888,5.48516522 1.34,4.61125 C1.92509818,3.09992821 3.11992821,1.90509818 4.63125,1.32 C5.50543508,0.991834927 6.42894834,0.814317505 7.3625,0.795 C8.18577586,0.747586207 8.62736326,0.732871581 9.82343013,0.728304974 L10.4164222,0.726858881 C10.4888209,0.726757401 10.5635319,0.726672834 10.6406971,0.726602362 Z M11.9925,6.195 C8.8,6.195 6.21375,8.78125 6.21375,11.97375 C6.21375,15.16625 8.8,17.7525 11.9925,17.7525 C15.1840155,17.7525 17.7712499,15.1652655 17.7712499,11.97375 C17.7712499,8.78223454 15.1840155,6.195 11.9925,6.195 Z M11.9925,8.22 C14.0656389,8.22 15.74625,9.90061112 15.74625,11.97375 C15.74625,14.0468889 14.0656389,15.7275 11.9925,15.7275 C9.91936112,15.7275 8.23875,14.0468889 8.23875,11.97375 C8.23875,9.90061112 9.91936112,8.22 11.9925,8.22 Z M18.6740625,4.81482199 C18.2573379,4.57422593 17.7439121,4.57422593 17.3271875,4.81482199 C16.9104629,5.05541805 16.65375,5.5000579 16.65375,5.98125 C16.65375,6.72625 17.255,7.32875 18.00125,7.32875 C18.745,7.32875 19.3475,6.72625 19.3475,5.98125 C19.3475,5.5000579 19.0907871,5.05541805 18.6740625,4.81482199 Z"/>
</svg>
