<svg xmlns="http://www.w3.org/2000/svg" xmlns:xlink="http://www.w3.org/1999/xlink" width="40" height="24" viewBox="0 0 40 24">
  <defs>
    <polygon id="paypal-a" points=".413 .09 31.962 .09 31.962 10.817 .413 10.817"/>
  </defs>
  <g fill="none" fill-rule="evenodd">
    <rect width="39" height="23" x=".5" y=".5" fill="#FFF" stroke="#CCC"/>
    <path fill="#2890C3" d="M26.0969799,11.7652275 C25.9643638,12.6379001 25.2991021,12.6379001 24.6556522,12.6379001 L24.2895402,12.6379001 L24.5463748,11.0085907 C24.5618612,10.910146 24.6466003,10.8375962 24.7461714,10.8375962 L24.9140137,10.8375962 C25.3518868,10.8375962 25.7656577,10.8375962 25.9789777,11.0875869 C26.1065771,11.237166 26.1451841,11.4588579 26.0969799,11.7652275 Z M25.8169156,9.48854289 L23.3902372,9.48854289 C23.2243581,9.48854289 23.0831263,9.60949552 23.0572792,9.77371575 L22.0760728,16.0074195 C22.0566602,16.1303389 22.1515418,16.2415672 22.2758694,16.2415672 L23.5208903,16.2415672 C23.6370384,16.2415672 23.7359552,16.1568895 23.75395,16.0419462 L24.0322693,14.2747486 C24.0581164,14.1105284 24.1993481,13.9895758 24.3652273,13.9895758 L25.1331138,13.9895758 C26.7314868,13.9895758 27.6539103,13.214583 27.8950404,11.6786923 C28.0035544,11.0069518 27.8994028,10.4791088 27.5854211,10.109586 C27.2403575,9.70335126 26.628753,9.48854289 25.8169156,9.48854289 L25.8169156,9.48854289 Z"/>
    <path fill="#28346A" d="M8.78959708 11.7652275C8.65698098 12.6379001 7.99171928 12.6379001 7.34837851 12.6379001L6.98226646 12.6379001 7.23899204 11.0085907C7.25458752 10.910146 7.33932659 10.8375962 7.43878866 10.8375962L7.60663092 10.8375962C8.04461304 10.8375962 8.458384 10.8375962 8.67159492 11.0875869 8.79930336 11.237166 8.83791035 11.4588579 8.78959708 11.7652275zM8.50964187 9.48854289L6.08296352 9.48854289C5.91708433 9.48854289 5.77585255 9.60949552 5.75000549 9.77371575L4.76868997 16.0074195C4.74938647 16.1303389 4.84426806 16.2415672 4.96848659 16.2415672L6.12713253 16.2415672C6.29301172 16.2415672 6.43435256 16.1206146 6.46019962 15.9565036L6.72499558 14.2747486C6.75073358 14.1105284 6.89207442 13.9895758 7.05795361 13.9895758L7.8258401 13.9895758C9.42410405 13.9895758 10.3466366 13.214583 10.5877667 11.6786923 10.6962807 11.0069518 10.5921291 10.4791088 10.2781474 10.109586 9.93297472 9.70335126 9.3213702 9.48854289 8.50964187 9.48854289L8.50964187 9.48854289zM14.1430997 14.0031242C14.0308777 14.668309 13.5037941 15.1148613 12.8315526 15.1148613 12.4945594 15.1148613 12.2247467 15.0062552 12.0513424 14.8006248 11.879465 14.5967426 11.8147928 14.3063252 11.8692134 13.9829108 11.9739103 13.3237354 12.5093915 12.8627606 13.1713814 12.8627606 13.5013948 12.8627606 13.7692444 12.9724592 13.9461386 13.1799471 14.1241234 13.3889646 14.1940304 13.6813487 14.1430997 14.0031242zM15.7624121 11.7373658L14.6004944 11.7373658C14.5009232 11.7373658 14.4161842 11.8098062 14.4006978 11.9084695L14.3495489 12.2339599 14.2682998 12.1159573C14.0167 11.7500401 13.4559171 11.6277764 12.8958976 11.6277764 11.6121607 11.6277764 10.5155695 12.6023901 10.3021404 13.9693624 10.191009 14.6512642 10.3487087 15.3029006 10.7346696 15.7577567 11.0892214 16.1756825 11.5952565 16.349627 12.1981363 16.349627 13.2328908 16.349627 13.8067608 15.6836773 13.8067608 15.6836773L13.7548486 16.007201C13.7354361 16.1302296 13.8303176 16.2415672 13.9546452 16.2415672L15.0010692 16.2415672C15.1669484 16.2415672 15.3081801 16.1207239 15.3340272 15.9565036L15.9622087 11.9715134C15.9816213 11.8484848 15.8867397 11.7373658 15.7624121 11.7373658L15.7624121 11.7373658z"/>
    <path fill="#2890C3" d="M31.4503734,14.0031242 C31.3381514,14.668309 30.8111769,15.1148613 30.1389354,15.1148613 C29.8018331,15.1148613 29.5321295,15.0062552 29.3586162,14.8006248 C29.1867387,14.5967426 29.1220666,14.3063252 29.1765962,13.9829108 C29.2811841,13.3237354 29.8166652,12.8627606 30.4787642,12.8627606 C30.8086685,12.8627606 31.0766272,12.9724592 31.2534123,13.1799471 C31.4313971,13.3889646 31.5013041,13.6813487 31.4503734,14.0031242 Z M33.0696858,11.7373658 L31.9077681,11.7373658 C31.808197,11.7373658 31.7234579,11.8098062 31.7079715,11.9084695 L31.6568227,12.2339599 L31.5756826,12.1159573 C31.3239737,11.7500401 30.7631908,11.6277764 30.2031713,11.6277764 C28.9195435,11.6277764 27.8228432,12.6023901 27.6094142,13.9693624 C27.4983918,14.6512642 27.6560915,15.3029006 28.0419433,15.7577567 C28.3966041,16.1756825 28.9025302,16.349627 29.50541,16.349627 C30.5401646,16.349627 31.1140346,15.6836773 31.1140346,15.6836773 L31.0622314,16.007201 C31.0427098,16.1302296 31.1375914,16.2415672 31.262028,16.2415672 L32.3083429,16.2415672 C32.4742221,16.2415672 32.6154539,16.1207239 32.64141,15.9565036 L33.2694825,11.9715134 C33.288895,11.8484848 33.1940134,11.7373658 33.0696858,11.7373658 L33.0696858,11.7373658 Z"/>
    <g transform="translate(4 7)">
      <mask id="paypal-b" fill="#fff">
        <use xlink:href="#paypal-a"/>
      </mask>
      <path fill="#28346A" d="M17.9509817,4.73736577 L16.7830658,4.73736577 C16.671389,4.73736577 16.5669102,4.79287068 16.5042011,4.88541528 L14.8931773,7.26262057 L14.210357,4.97828767 C14.1677148,4.83537345 14.0364074,4.73736577 13.8874324,4.73736577 L12.7393653,4.73736577 C12.6007509,4.73736577 12.5031428,4.87394281 12.5478571,5.00538455 L13.8338843,8.7871481 L12.6243077,10.4970926 C12.5293171,10.6312659 12.6251802,10.8169014 12.7893144,10.8169014 L13.9561398,10.8169014 C14.0667259,10.8169014 14.1702232,10.7625984 14.2332595,10.6714742 L18.1172972,5.05553564 C18.2102157,4.92114383 18.1142435,4.73736577 17.9509817,4.73736577" mask="url(#paypal-b)"/>
      <path fill="#2890C3" d="M30.4392524,2.65975587 L29.443323,9.00741955 C29.4240195,9.13044814 29.5189011,9.24156722 29.6431196,9.24156722 L30.6448292,9.24156722 C30.8107084,9.24156722 30.9519402,9.1206146 30.9777872,8.95650363 L31.9597571,2.72279983 C31.9791697,2.59977123 31.8842881,2.48854289 31.7599605,2.48854289 L30.6390491,2.48854289 C30.5394779,2.48854289 30.4547389,2.56120188 30.4392524,2.65975587" mask="url(#paypal-b)"/>
    </g>
  </g>
</svg>
