<svg xmlns="http://www.w3.org/2000/svg" xmlns:xlink="http://www.w3.org/1999/xlink" width="40" height="24" viewBox="0 0 40 24">
  <defs>
    <polygon id="paypal-credit-a" points=".005 .006 10.232 .006 10.232 12 .005 12"/>
  </defs>
  <g fill="none" fill-rule="evenodd">
    <rect width="39" height="23" x=".5" y=".5" fill="#FFF" stroke="#CCC"/>
    <g transform="translate(2 6)">
      <mask id="paypal-credit-b" fill="#fff">
        <use xlink:href="#paypal-credit-a"/>
      </mask>
      <path fill="#2890C3" d="M9.22092715,3.05297368 C9.3682649,2.11997368 9.21989404,1.48507895 8.71192053,0.910026316 C8.15260927,0.276947368 7.14222517,0.00568421053 5.84948344,0.00568421053 L2.09690066,0.00568421053 C1.83266225,0.00568421053 1.60776159,0.196657895 1.56659603,0.455921053 L0.00397350993,10.2993158 C-0.0268609272,10.4935263 0.124291391,10.6691842 0.322172185,10.6691842 L2.63880795,10.6691842 L2.47891391,11.6764737 C2.45197351,11.8463684 2.58413245,12 2.75729801,12 L4.70996026,12 C4.9410596,12 5.13782781,11.8329474 5.17382781,11.6061316 L5.1930596,11.5075263 L5.56084768,9.19026316 L5.58460927,9.06221053 C5.62060927,8.83539474 5.81737748,8.66834211 6.04855629,8.66834211 L6.34060927,8.66834211 C8.23231788,8.66834211 9.71356291,7.90484211 10.1463576,5.69684211 C10.3272318,4.77418421 10.2336954,4.00405263 9.75544371,3.46263158 C9.61080795,3.29889474 9.43080795,3.16342105 9.22092715,3.05297368" mask="url(#paypal-credit-b)"/>
      <path fill="#20274F" d="M9.22092715,3.05297368 C9.3682649,2.11997368 9.21989404,1.48507895 8.71192053,0.910026316 C8.15260927,0.276947368 7.14222517,0.00568421053 5.84948344,0.00568421053 L2.09690066,0.00568421053 C1.83266225,0.00568421053 1.60776159,0.196657895 1.56659603,0.455921053 L0.00397350993,10.2993158 C-0.0268609272,10.4935263 0.124291391,10.6691842 0.322172185,10.6691842 L2.63880795,10.6691842 L3.22076821,7.00334211 L3.20272848,7.11828947 C3.24389404,6.85902632 3.46696689,6.66805263 3.73112583,6.66805263 L4.83218543,6.66805263 C6.99464901,6.66805263 8.68784106,5.79536842 9.18254305,3.27134211 C9.19724503,3.19657895 9.20972185,3.12418421 9.22092715,3.05297368" mask="url(#paypal-credit-b)"/>
      <path fill="#28346A" d="M3.84588079,3.06536842 C3.8706755,2.90944737 3.97144371,2.78171053 4.10701987,2.71713158 C4.16868874,2.68784211 4.2375894,2.6715 4.30982781,2.6715 L7.25133775,2.6715 C7.59981457,2.6715 7.92468874,2.69415789 8.22174834,2.74168421 C8.30662252,2.75526316 8.38927152,2.77089474 8.46953642,2.78857895 C8.54972185,2.80626316 8.62760265,2.826 8.70301987,2.84794737 C8.74076821,2.85884211 8.77788079,2.87036842 8.81427815,2.88236842 C8.96018543,2.93044737 9.096,2.98721053 9.22092715,3.05297368 C9.3682649,2.11997368 9.21989404,1.48507895 8.71192053,0.910026316 C8.15260927,0.276947368 7.14222517,0.00568421053 5.84948344,0.00568421053 L2.09690066,0.00568421053 C1.83266225,0.00568421053 1.60776159,0.196657895 1.56659603,0.455921053 L0.00397350993,10.2993158 C-0.026781457,10.4935263 0.124291391,10.6691842 0.322172185,10.6691842 L2.63880795,10.6691842 L3.84588079,3.06536842" mask="url(#paypal-credit-b)"/>
    </g>
    <path fill="#28346A" d="M28.0913377 16.1608421L28.4042914 16.1608421C29.2365033 16.1608421 30.0188874 15.7086316 30.1895894 14.6699211 30.3389139 13.716 29.7912848 13.179 28.8950993 13.179L28.665351 13.179C28.6091656 13.179 28.561404 13.2195 28.5525828 13.2746053L28.0913377 16.1608421zM27.3327152 12.1700526C27.3477351 12.0755526 27.4296689 12.006 27.5259868 12.006L29.3360795 12.006C30.8297219 12.006 31.8752318 13.1718947 31.6404768 14.6699211 31.3987285 16.1679474 29.9762119 17.3338421 28.4897219 17.3338421L26.6459338 17.3338421C26.5758411 17.3338421 26.5222781 17.2716316 26.533245 17.2027895L27.3327152 12.1700526 27.3327152 12.1700526zM24.9886623 13.3428947L24.8726358 14.0692895 26.3111258 14.0692895C26.3811391 14.0692895 26.434702 14.1314211 26.4238146 14.2001842L26.285457 15.0779211C26.270596 15.1725789 26.1885828 15.2422895 26.0921854 15.2422895L24.8542781 15.2422895C24.7582781 15.2422895 24.6764238 15.3114474 24.6611656 15.4056316L24.5383841 16.1608421 26.0621457 16.1608421C26.1322384 16.1608421 26.1857219 16.2229737 26.1749139 16.2918158L26.0365563 17.1695526C26.0216159 17.2641316 25.9396026 17.3338421 25.8432848 17.3338421L23.0929007 17.3338421C23.0228079 17.3338421 22.969245 17.2716316 22.9802119 17.2027895L23.7796821 12.1700526C23.794702 12.0755526 23.8766358 12.006 23.9729536 12.006L26.7236556 12.006C26.7937483 12.006 26.8472318 12.0681316 26.8364238 12.1368947L26.6979868 13.0147105C26.6831258 13.1092895 26.6010331 13.179 26.5047152 13.179L25.1819338 13.179C25.0856954 13.179 25.0037616 13.2484737 24.9886623 13.3428947M32.8578013 17.3338421L31.7645298 17.3338421C31.6943576 17.3338421 31.6408742 17.2716316 31.6517616 17.2027895L32.4513113 12.1700526C32.4662517 12.0755526 32.5482649 12.006 32.6445033 12.006L33.7378543 12.006C33.807947 12.006 33.8615099 12.0682105 33.850543 12.1370526L33.0510728 17.1697895C33.036053 17.2642895 32.9541192 17.3338421 32.8578013 17.3338421"/>
    <path fill="#28346A" d="M1.9146755 2.39431579L2.04977483 2.39431579C2.50498013 2.39431579 3.02860927 2.30913158 3.1237351 1.73013158 3.2189404 1.15089474 2.9152053 1.06768421 2.42884768 1.06594737L2.23136424 1.06594737C2.17184106 1.06594737 2.12113907 1.10889474 2.11176159 1.16731579L1.9146755 2.39431579zM4.30768212 5.33384211L2.87499338 5.33384211C2.81403974 5.33384211 2.75849007 5.29910526 2.73218543 5.24455263L1.78664901 3.28468421 1.77242384 3.28468421 1.46638411 5.20113158C1.45422517 5.27755263 1.38786755 5.33384211 1.30998675 5.33384211L.184688742 5.33384211C.114596026 5.33384211.0610331126 5.27163158.072 5.20278947L.876397351.138789474C.888556291.0622894737.954993377.006 1.03287417.006L2.98148344.006C4.04121854.006 4.76678146.507631579 4.58892715 1.64534211 4.46805298 2.38018421 3.95594702 3.01610526 3.17356291 3.15039474L4.40519205 5.16157895C4.45144371 5.23705263 4.39668874 5.33384211 4.30768212 5.33384211L4.30768212 5.33384211zM17.5234172 5.33384211L16.4301457 5.33384211C16.3599735 5.33384211 16.3064901 5.27155263 16.317457 5.20278947L16.9579868 1.179 15.9391788 1.179C15.8690861 1.179 15.8155232 1.11686842 15.8264106 1.04802632L15.9648477.170289474C15.9797086.0757105263 16.0617219.006 16.1581192.006L19.5557881.006C19.6258808.006 19.6794437.0681315789 19.6685563.136894737L19.5301987 1.01471053C19.5152583 1.10928947 19.433245 1.179 19.3369272 1.179L18.352053 1.179 17.7166887 5.16986842C17.7016689 5.26428947 17.6196556 5.33384211 17.5234172 5.33384211" transform="translate(18.291 12)"/>
    <path fill="#28346A" d="M18.4345166,13.5200526 C18.4183841,13.6188947 18.2966358,13.6544211 18.2263046,13.5827368 C17.9874172,13.3395789 17.6368742,13.2111316 17.2595497,13.2111316 C16.406755,13.2111316 15.7317351,13.8605526 15.5967152,14.6865 C15.4686887,15.5266579 15.951947,16.1337632 16.8188874,16.1337632 C17.1763444,16.1337632 17.5555762,15.9986842 17.8706755,15.7728947 C17.9576159,15.7106053 18.0770596,15.7852105 18.059894,15.8903684 L17.8615364,17.1094737 C17.8496954,17.1820263 17.7967682,17.2413947 17.7258013,17.2620789 C17.3012715,17.3859474 16.9752848,17.4752368 16.5773775,17.4752368 C14.2655894,17.4752368 13.895894,15.5133158 14.0149404,14.6793947 C14.3490331,12.3408947 16.2590993,11.8051579 17.4300132,11.8697368 C17.8073377,11.8905 18.1453245,11.9403158 18.4763974,12.0639474 C18.5833642,12.1038947 18.6470993,12.2134737 18.6289007,12.3255 L18.4345166,13.5200526"/>
    <path fill="#2890C3" d="M25.5182517,7.7955 C25.4522914,8.22615789 25.1212185,8.22615789 24.8009536,8.22615789 L24.6188079,8.22615789 L24.746596,7.42215789 C24.7543046,7.37352632 24.7965033,7.33776316 24.8460132,7.33776316 L24.9295364,7.33776316 C25.1475232,7.33776316 25.3534305,7.33776316 25.4595232,7.46107895 C25.5230993,7.53497368 25.5423311,7.64431579 25.5182517,7.7955 Z M25.3789404,6.67207895 L24.1712318,6.67207895 C24.0886623,6.67207895 24.0184106,6.73168421 24.0055364,6.81276316 L23.5171921,9.88894737 C23.5074967,9.94957895 23.5547815,10.0045263 23.6166093,10.0045263 L24.2362384,10.0045263 C24.2940132,10.0045263 24.3432053,9.96268421 24.3522649,9.906 L24.490702,9.03386842 C24.5035762,8.95286842 24.5739073,8.89318421 24.6564768,8.89318421 L25.0385695,8.89318421 C25.8340662,8.89318421 26.2931656,8.51076316 26.4131656,7.75278947 C26.4672053,7.42128947 26.4153113,7.16084211 26.2590728,6.97847368 C26.0873377,6.77802632 25.7829669,6.67207895 25.3789404,6.67207895 L25.3789404,6.67207895 Z"/>
    <path fill="#28346A" d="M16.9047947 7.7955C16.838755 8.22615789 16.5076821 8.22615789 16.1874967 8.22615789L16.0052715 8.22615789 16.1330596 7.42215789C16.1407682 7.37352632 16.1829669 7.33776316 16.2324768 7.33776316L16.316 7.33776316C16.5339868 7.33776316 16.739894 7.33776316 16.8460662 7.46107895 16.9095629 7.53497368 16.9287947 7.64431579 16.9047947 7.7955zM16.765404 6.67207895L15.5576954 6.67207895C15.4751258 6.67207895 15.4048742 6.73168421 15.392 6.81276316L14.9036556 9.88894737C14.8940397 9.94957895 14.941245 10.0045263 15.0030728 10.0045263L15.5797086 10.0045263C15.6622781 10.0045263 15.7326093 9.94484211 15.7454834 9.86376316L15.877245 9.03386842C15.8901192 8.95286842 15.9603709 8.89318421 16.0429404 8.89318421L16.4251126 8.89318421C17.2205298 8.89318421 17.6796291 8.51076316 17.7996291 7.75278947 17.8536689 7.42128947 17.8018543 7.16084211 17.6456159 6.97847368 17.4738013 6.77802632 17.1694305 6.67207895 16.765404 6.67207895L16.765404 6.67207895zM19.5690331 8.89989474C19.513245 9.22807895 19.2509139 9.4485 18.9163444 9.4485 18.7486623 9.4485 18.6143576 9.39489474 18.528053 9.29336842 18.442543 9.19278947 18.4102781 9.0495 18.437457 8.88986842 18.4895099 8.56460526 18.756053 8.33715789 19.0855364 8.33715789 19.2497219 8.33715789 19.3830728 8.39123684 19.4710464 8.49363158 19.5596556 8.59681579 19.5944636 8.74105263 19.5690331 8.89989474zM20.3750199 7.78176316L19.7967152 7.78176316C19.7472053 7.78176316 19.7050066 7.81752632 19.697298 7.86615789L19.6718675 8.02681579 19.6314172 7.96863158C19.5061722 7.788 19.2270728 7.72768421 18.9483709 7.72768421 18.3095099 7.72768421 17.7637086 8.20863158 17.6575364 8.88315789 17.6022252 9.21971053 17.6807417 9.54126316 17.8728212 9.76571053 18.049245 9.972 18.3010861 10.0578158 18.6010861 10.0578158 19.116053 10.0578158 19.4016689 9.72915789 19.4016689 9.72915789L19.3758411 9.88886842C19.3662252 9.94957895 19.4134305 10.0045263 19.4753377 10.0045263L19.996106 10.0045263C20.0786755 10.0045263 20.1489272 9.94484211 20.1618013 9.86384211L20.4744371 7.89734211C20.484053 7.83663158 20.4368477 7.78176316 20.3750199 7.78176316L20.3750199 7.78176316z"/>
    <path fill="#2890C3" d="M28.1825695,8.89989474 C28.1267815,9.22807895 27.8644503,9.4485 27.5298808,9.4485 C27.3621192,9.4485 27.227894,9.39489474 27.1415894,9.29336842 C27.056,9.19278947 27.0238146,9.0495 27.0509934,8.88986842 C27.1030464,8.56460526 27.3695099,8.33715789 27.6989934,8.33715789 C27.8632583,8.33715789 27.9966093,8.39123684 28.0845828,8.49363158 C28.1731126,8.59681579 28.208,8.74105263 28.1825695,8.89989474 Z M28.9884768,7.78176316 L28.4102517,7.78176316 C28.3606623,7.78176316 28.3184636,7.81752632 28.3108344,7.86615789 L28.2853245,8.02681579 L28.2449536,7.96863158 C28.1197086,7.788 27.8406093,7.72768421 27.5619073,7.72768421 C26.9230464,7.72768421 26.377245,8.20863158 26.2709934,8.88315789 C26.2157616,9.21971053 26.2941987,9.54126316 26.4862781,9.76571053 C26.6627815,9.972 26.9146225,10.0578158 27.2146225,10.0578158 C27.7295894,10.0578158 28.0152053,9.72915789 28.0152053,9.72915789 L27.9893775,9.88886842 C27.9796821,9.94957895 28.0269669,10.0045263 28.0887947,10.0045263 L28.6095629,10.0045263 C28.6921325,10.0045263 28.7624636,9.94484211 28.7753377,9.86384211 L29.0879735,7.89734211 C29.0975894,7.83663158 29.0503841,7.78176316 28.9884768,7.78176316 L28.9884768,7.78176316 Z"/>
    <path fill="#28346A" d="M23.4549669,7.78176316 L22.8737219,7.78176316 C22.8180927,7.78176316 22.7661192,7.80915789 22.7348874,7.85486842 L21.9331126,9.02794737 L21.593298,7.90065789 C21.5720795,7.83015789 21.5066755,7.78176316 21.4325298,7.78176316 L20.8612185,7.78176316 C20.7922384,7.78176316 20.7436821,7.84918421 20.7659338,7.91407895 L21.4059073,9.78023684 L20.8039205,10.6240263 C20.7567152,10.6902632 20.8043974,10.7818421 20.8860927,10.7818421 L21.4667815,10.7818421 C21.5217748,10.7818421 21.573351,10.7550789 21.6046623,10.7101579 L23.5376954,7.93878947 C23.583947,7.87247368 23.5361854,7.78176316 23.4549669,7.78176316"/>
    <path fill="#2890C3" d="M29.6700927,6.75647368 L29.1744371,9.88894737 C29.1648212,9.94965789 29.2120265,10.0045263 29.2738543,10.0045263 L29.7723709,10.0045263 C29.8549404,10.0045263 29.9252715,9.94484211 29.9381457,9.86384211 L30.4268079,6.78765789 C30.4365033,6.72694737 30.3892185,6.67207895 30.3273907,6.67207895 L29.7695099,6.67207895 C29.72,6.67207895 29.6778013,6.70784211 29.6700927,6.75647368"/>
  </g>
</svg>
