<svg xmlns="http://www.w3.org/2000/svg" width="80" height="80" viewBox="0 0 80 80">
  <g fill="none" transform="translate(11.667 5)">
    <g transform="translate(2.5 .469)">
      <path fill="#525468" d="M45.7797629,1.19772572 C46.9048969,1.19772572 47.8169982,2.13044848 47.8169982,3.28102032 C47.8169982,4.43159215 46.9048969,5.36431491 45.7797629,5.36431491 L39.7244662,5.36431491 C38.4790708,5.36431491 37.3776758,6.19064237 37.0038543,7.40546851 L30.1314065,29.739201 C29.793683,30.8367177 28.6498616,31.4464619 27.5766099,31.1011029 C26.5033581,30.755744 25.9070946,29.5860622 26.2448181,28.4885456 L33.1172659,6.15481303 C34.0251182,3.20452097 36.6999345,1.19772572 39.7244662,1.19772572 L45.7797629,1.19772572 Z"/>
      <path fill="#005B76" d="M13.2851979,26.6188554 C13.2851979,25.9167985 13.844842,25.3476689 14.5351979,25.3476689 C15.2255539,25.3476689 15.7851979,25.9167985 15.7851979,26.6188554 L15.7851979,27.6302658 C15.7851979,27.6373827 15.7851979,27.6373827 13.2851979,27.6388701 L13.2851979,3.91005656 C13.2851979,3.20799966 13.844842,2.63887008 14.5351979,2.63887008 C15.2255539,2.63887008 15.7851979,3.20799966 15.7851979,3.91005656 L15.7851979,27.6388701 L13.2851979,27.6388701 L13.2851979,26.6188554 Z" transform="rotate(-18 14.535 15.139)"/>
      <path fill="#13A0BF" d="M26.0563185,12.158101 C24.1039646,7.0945059 17.4973979,4.26673851 10.9414493,5.80632673 C4.38550086,7.34591494 0.277432085,12.6901074 1.47495275,17.9311677 L1.62947167,18.5176589 C1.70539892,18.7651761 2.09436004,18.7935862 2.2120253,18.559301 C2.81145162,17.3660811 3.99875992,16.4129842 5.54750008,16.0491028 C7.05405834,15.69534 8.58192955,15.9763265 9.76879375,16.7009759 C9.92464463,16.7963245 10.1408822,16.7453423 10.2212497,16.5943412 C10.8344406,15.4470444 11.9951078,14.5348112 13.501222,14.1810483 C15.0082243,13.8272855 16.5356515,14.1082721 17.7225157,14.8329215 C17.8783666,14.9282701 18.0946041,14.8772878 18.1749717,14.7262868 C18.7881626,13.57899 19.9492737,12.6667567 21.455388,12.3129938 C23.0041282,11.9491125 24.5759573,12.2546172 25.7756982,13.0251896 C26.0114726,13.1765799 26.3324986,12.9812126 26.2565714,12.7340845 L26.0789635,12.1530417 L26.0563185,12.158101 Z" transform="rotate(-4 13.768 12.053)"/>
      <path fill="#13A0BF" d="M10.2469211 17.0035228L10.2306953 17.0045795C10.1869192 17.0013559 10.1432616 16.9896814 10.102731 16.9686202 8.86820897 16.3285275 7.32445895 16.1548043 5.84624783 16.6127975 4.32666342 17.0838272 3.20873202 18.1174249 2.69400068 19.349552 2.59296495 19.5914744 2.20296954 19.5902661 2.10996131 19.3486482L2.10996131 19.3486482 1.91490724 18.7743644C.354705788 13.6296059 4.07997549 8.01186721 10.5125577 6.01870951 10.6977039 5.96134134 10.8831443 5.9075795 11.0687634 5.85738112 9.45383161 8.68390218 9.07004236 12.7951463 10.2469211 17.0035228zM12.1526648 5.60467181C18.0633783 4.44390651 23.9278531 6.80211154 26.0336853 11.3006512L26.0336853 11.3006512 26.0559222 11.2940246 26.2736289 11.8612627C26.36661 12.1024924 26.0599941 12.3197774 25.8142335 12.1852028 24.5636628 11.5001971 22.9743516 11.3050818 21.4547672 11.7761114 19.976999 12.2340738 18.8823504 13.2250799 18.3506845 14.412356 18.3233898 14.4735939 18.2742012 14.5209599 18.2147125 14.550848 17.1065344 10.4785901 14.7892553 7.23897163 12.066688 5.62157656z"/>
    </g>
    <g transform="translate(0 20.475)">
      <g transform="translate(1.667)">
        <path fill="#00837A" d="M26.6666667,47.8582871 C39.9791023,47.8582871 53.3333333,36.701931 53.3333333,22.9398682 C53.3333333,20.2467786 53.3333333,17.553689 53.3333333,14.8605994 C53.3333333,13.5490877 52.8180308,12.2900837 51.898487,11.3549355 L42.4946601,1.791529 C42.1174056,1.40787262 41.6014771,1.19240659 41.0634146,1.19380126 L12.2598225,1.26846075 C11.7277198,1.26983997 11.2181019,1.48320167 10.8437346,1.86133429 L1.44682006,11.3527591 C0.519939502,12.2889618 -1.93769369e-15,13.5531431 0,14.8705584 C0,17.5603284 0,20.2500983 0,22.9398682 C0,36.701931 13.354231,47.8582871 26.6666667,47.8582871 Z"/>
        <path fill="#005B76" d="M41.0634146,1.19380126 C41.6014771,1.19240659 42.1174056,1.40787262 42.4946601,1.791529 L42.4946601,1.791529 L51.898487,11.3549355 C52.8180308,12.2900837 53.3333333,13.5490877 53.3333333,14.8605994 L53.3333333,14.8605994 L53.3333333,22.9398682 C53.3333333,36.701931 39.9791023,47.8582871 26.6666667,47.8582871 C26.440789,47.8582871 26.2148993,47.8550753 25.989063,47.8486934 C33.9345308,44.092105 39.5010369,37.6252893 42.6892355,28.4475342 C43.1657705,27.0757497 43.4090908,25.6338152 43.4090909,24.1816175 L43.4090909,24.1816175 L43.4090909,14.5803058 C43.4090909,13.4644552 43.0358316,12.380671 42.3487257,11.5014622 L42.3487257,11.5014622 L34.3062589,1.21124391 Z"/>
      </g>
      <g transform="translate(.408)">
        <path fill="#D1D0CF" d="M42.3223737,1.19380126 C42.8604362,1.19240659 43.3763647,1.40787262 43.7536192,1.791529 L43.7536192,1.791529 L53.1574462,11.3549355 C53.8139492,12.0225792 54.2644038,12.8552974 54.4683938,13.7543442 L46.892396,17.5415687 C46.4758297,17.7498519 46.0164905,17.8582871 45.5507552,17.8582871 L10.3004964,17.8582871 C9.83476113,17.8582871 9.37542194,17.7498519 8.95885563,17.5415687 L1.3848007,13.7557728 C1.59097092,12.8544316 2.04494771,12.020237 2.70577922,11.3527591 L2.70577922,11.3527591 L12.1026937,1.86133429 C12.4770611,1.48320167 12.9866789,1.26983997 13.5187817,1.26846075 L13.5187817,1.26846075 Z"/>
        <path fill="#BCBBB9" d="M42.3223737,1.19380126 C42.8006515,1.19256156 43.2614407,1.36266857 43.6228915,1.66993958 L43.7536192,1.791529 L53.1574462,11.3549355 C53.8139492,12.0225792 54.2644038,12.8552974 54.4683938,13.7543442 L46.892396,17.5415687 C46.4758297,17.7498519 46.0164905,17.8582871 45.5507552,17.8582871 L44.6678845,17.8582439 L44.6680501,14.5803058 C44.6680501,13.5502899 44.3500066,12.5475967 43.7606494,11.7079095 L43.6076848,11.5014622 L35.5668845,1.21124391 L42.3223737,1.19380126 Z"/>
      </g>
    </g>
  </g>
</svg>
