<svg xmlns="http://www.w3.org/2000/svg" xmlns:xlink="http://www.w3.org/1999/xlink" width="80" height="80" viewBox="0 0 80 80">
  <defs>
    <path id="anniversary-a" d="M42.7584396,36.75 C39.2524381,36.75 38.0528882,38.4687365 36,40.9507789 C33.9471118,38.4687365 32.7524381,36.75 29.2415604,36.75 C25.4771193,36.75 23,39.3722415 23,43.2926222 C23,45.5929251 23.9752438,48.1684336 26.2475619,50.5102769 L36,60.75 L45.7524381,50.5102769 C48.01988,48.1684336 49,45.5929251 49,43.2926222 C49,39.3722415 46.5228807,36.75 42.7584396,36.75"/>
  </defs>
  <g fill="none" fill-rule="evenodd" transform="translate(4 3.25)">
    <path fill="#EFEDF2" fill-rule="nonzero" d="M69.1024275,8.75 L62.0689655,8.75 L62.0689655,12.4781553 C62.0689655,14.342233 60.8275862,15.5849515 58.9655172,15.5849515 C57.1034483,15.5849515 55.862069,14.342233 55.862069,12.4781553 L55.862069,8.75 L16.137931,8.75 L16.137931,12.4781553 C16.137931,14.4112054 14.8965517,15.5849515 13.0344828,15.5849515 C11.1724138,15.5849515 9.93103448,14.4112054 9.93103448,12.4781553 L9.93103448,8.75 L2.89743184,8.75 C1.29726309,8.75 0,10.0439353 0,11.6401723 L0,69.8596874 C0,71.4559244 1.29726309,72.75 2.89743184,72.75 L69.1025682,72.75 C70.7027369,72.75 72,71.4559244 72,69.8596874 L72,11.6401723 C72,10.0439353 70.7025963,8.75 69.1024275,8.75 Z"/>
    <path fill="#53CAEA" d="M69.1024275,8.75 L2.89743184,8.75 C1.29726309,8.75 0,10.0393386 0,11.6299049 L0,23.8699553 C0,25.4605216 1.29726309,26.75 2.89743184,26.75 L69.1025682,26.75 C70.7027369,26.75 72,25.4605216 72,23.8699553 L72,11.6299049 C72,10.0393386 70.7025963,8.75 69.1024275,8.75 Z"/>
    <path fill="#4C4C4C" d="M52.8876957 18.75L21.1123043 18.75C20.4978447 18.75 20 18.302291 20 17.75 20 17.197709 20.4979887 16.75 21.1123043 16.75L52.8876957 16.75C53.5021553 16.75 54 17.197709 54 17.75 54 18.302291 53.5020113 18.75 52.8876957 18.75zM13 15.75C11.2 15.75 10 14.5 10 12.7334562L10 3.76654385C10 2 11.2.75 13 .75 14.8.75 16 2 16 3.76654385L16 12.7336026C16 14.5 14.8 15.75 13 15.75zM59 15.75C57.2 15.75 56 14.5 56 12.7334562L56 3.76654385C56 2 57.2.75 59 .75 60.8.75 62 2 62 3.76654385L62 12.7336026C62 14.5 60.8 15.75 59 15.75z"/>
    <use fill="#DC3545" xlink:href="#anniversary-a"/>
  </g>
</svg>
