<svg xmlns="http://www.w3.org/2000/svg" width="80" height="80" viewBox="0 0 80 80">
  <g fill="none" transform="translate(6.667 5)">
    <path fill="#525468" d="M33.3333333,5 C15.6259117,5 0.833333333,28.495935 0.833333333,31.6666667 C0.833333333,31.9052818 0.833333333,34.5678834 0.833333333,37.5 C0.833333333,55.4472222 15.3861111,70 33.3333333,70 C36.3305556,70 38.8821138,68.2411247 38.8821138,65.2439024 C38.8821138,62.0731707 38.8821138,61.5853659 38.8821138,60 C37.9480536,58.829888 35.9694444,58.7333333 35.9694444,57.3611111 C35.9694444,54.3638889 38.3888889,51.9444444 41.3861111,51.9444444 L47.7777778,51.9444444 C57.7444444,51.9444444 65.8333333,43.8555556 65.8333333,33.8888889 C65.8333333,33.5137821 65.8333333,33.8888889 65.8333333,27.631783 C59.1666667,27.631783 50.8587726,5 33.3333333,5 Z"/>
    <path fill="#13A0BF" d="M33.3333333,0 C15.3861111,0 0.833333333,14.5527778 0.833333333,32.5 C0.833333333,50.4472222 15.3861111,65 33.3333333,65 C36.3305556,65 38.8821138,63.2411247 38.8821138,60.2439024 C38.8821138,58.8355691 38.8821138,57.8658537 37.3416667,55.9361111 C36.4076065,54.7659991 35.9694444,53.7333333 35.9694444,52.3611111 C35.9694444,49.3638889 38.3888889,46.9444444 41.3861111,46.9444444 L47.7777778,46.9444444 C57.7444444,46.9444444 65.8333333,38.8555556 65.8333333,28.8888889 C65.8333333,12.9277778 51.2805556,0 33.3333333,0 Z"/>
    <path fill="#EBECEE" d="M12.9780362,33.372093 C9.9003876,33.372093 7.41602067,30.8877261 7.41602067,27.8100775 C7.41602067,24.7324289 9.9003876,22.248062 12.9780362,22.248062 C16.0556848,22.248062 18.5400517,24.7324289 18.5400517,27.8100775 C18.5400517,30.8877261 16.0556848,33.372093 12.9780362,33.372093 Z"/>
    <path fill="#8DDFF8" d="M24.1020672,18.5400517 C21.0244186,18.5400517 18.5400517,16.0556848 18.5400517,12.9780362 C18.5400517,9.9003876 21.0244186,7.41602067 24.1020672,7.41602067 C27.1797158,7.41602067 29.6640827,9.9003876 29.6640827,12.9780362 C29.6640827,16.0556848 27.1797158,18.5400517 24.1020672,18.5400517 Z"/>
    <path fill="#D1D0CF" d="M42.6421189,18.5400517 C39.5644703,18.5400517 37.0801034,16.0556848 37.0801034,12.9780362 C37.0801034,9.9003876 39.5644703,7.41602067 42.6421189,7.41602067 C45.7197674,7.41602067 48.2041344,9.9003876 48.2041344,12.9780362 C48.2041344,16.0556848 45.7197674,18.5400517 42.6421189,18.5400517 Z"/>
    <path fill="#005B76" d="M53.7661499,33.372093 C50.6885013,33.372093 48.2041344,30.8877261 48.2041344,27.8100775 C48.2041344,24.7324289 50.6885013,22.248062 53.7661499,22.248062 C56.8437984,22.248062 59.3281654,24.7324289 59.3281654,27.8100775 C59.3281654,30.8877261 56.8437984,33.372093 53.7661499,33.372093 Z"/>
  </g>
</svg>
