<svg xmlns="http://www.w3.org/2000/svg" width="80" height="80" viewBox="0 0 80 80">
  <g fill="none" fill-rule="evenodd" transform="translate(5 5)">
    <path fill="#13A0BF" fill-rule="nonzero" d="M6.8359375,25.9765625 L9.5703125,25.9765625 L9.5703125,56.0546875 L6.8359375,56.0546875 L6.8359375,25.9765625 Z M60.8398438,25.9765625 L60.8398438,56.0546875 L63.5742188,56.0546875 L63.5742188,25.9765625 L60.8398438,25.9765625 Z M17.0898438,46.484375 L19.8242188,46.484375 L19.8242188,16.40625 L17.0898438,16.40625 L17.0898438,46.484375 Z M51.2695312,46.484375 L54.0039062,46.484375 L54.0039062,16.40625 L51.2695312,16.40625 L51.2695312,46.484375 Z"/>
    <path fill="#005B76" fill-rule="nonzero" d="M44.0378523,57.421875 L25.7716874,57.421875 L28.8568715,36.7928314 C16.1444642,36.2779998 5.96985252,34.1700745 2.77976986,31.4453125 C6.46186326,28.3002472 19.4490299,25.9765625 34.9047699,25.9765625 C50.3605098,25.9765625 63.3476765,28.3002472 67.0297699,31.4453125 C63.8396872,34.1700745 53.6650755,36.2779998 40.9526682,36.7928314 L44.0378523,57.421875 Z"/>
    <path fill="#00837A" fill-rule="nonzero" d="M53.59375,31.4453125 C53.4212494,31.8266296 53.214035,32.1999359 52.9737091,32.5636292 C51.462326,34.8504639 48.9426422,36.2747956 46.2104035,36.4894867 C44.5526886,36.6192627 42.8324889,36.7201996 41.0658265,36.7917633 L44.1601562,57.421875 L25.8398438,57.421875 L28.9181519,36.9017791 C25.648117,36.8622589 26.740799,36.7212677 23.7895965,36.4894867 C21.0573578,36.2747956 18.537674,34.8504639 17.0262909,32.5636292 C16.785965,32.1999359 16.5787506,31.8266296 16.40625,31.4453125 C17.2329712,29.6156312 18.8703919,27.9712677 21.087265,26.6436004 C25.3202057,26.2152863 30.0327301,25.9765625 35,25.9765625 C39.9672699,25.9765625 44.6797943,26.2152863 48.912735,26.6436004 C51.1296081,27.9712677 52.7670288,29.615097 53.59375,31.4453125 Z"/>
    <path fill="#005B76" fill-rule="nonzero" d="M64.53125,21.875 C61.1463929,25.0200653 49.2080688,27.34375 35,27.34375 C20.7919312,27.34375 8.85360711,25.0200653 5.46875,21.875 C8.70140072,18.87146 19.733963,7.89070133 33.0944824,6.90750129 C33.0015563,6.67358398 32.9492188,6.41937256 32.9492188,6.15234375 C32.1192933,5.52856445 31.5820312,4.53628547 31.5820312,3.41796875 C31.5820312,1.53007504 33.1121063,0 35,0 C36.8878937,0 38.4179688,1.53007504 38.4179688,3.41796875 C38.4179688,4.53628547 37.8807067,5.52856445 37.0507812,6.15234375 C37.0507812,6.41937256 36.9984437,6.67358398 36.9055176,6.90750129 C50.266037,7.89070133 61.2985993,18.87146 64.53125,21.875 Z"/>
    <path fill="#00837A" fill-rule="nonzero" d="M36.9044495,27.2529603 C37.3776245,27.2716522 37.8540039,27.287674 38.3341217,27.3004914 C37.2393036,27.3287964 36.1268616,27.34375 35,27.34375 C20.7919312,27.34375 25.620346,26.3274383 30.430603,26.8086243 C26.9052887,25.9477233 24.2045593,24.1212464 23.2421875,21.875 C24.5896149,18.7299347 29.3432617,6.8359375 35,6.8359375 C40.6567383,6.8359375 45.4103851,18.7299347 46.7578125,21.875 C45.5647279,24.6595765 41.700821,26.7990112 36.9044495,27.2529603 Z"/>
    <path fill="#13A0BF" fill-rule="nonzero" d="M62.7560425,19.1448975 C67.9727173,19.3206024 70.973053,25.184021 68.1954193,29.6033478 L67.0375824,31.4453125 L2.77976986,31.4453125 L1.66893002,29.5013428 C-0.893478359,25.0163268 2.17254639,19.3184662 7.33474738,19.1448975 C7.42126465,19.1422272 7.50778191,19.140625 7.59429932,19.140625 C9.93453973,19.140625 12.0248413,20.2017975 13.4091187,21.8669891 C13.9538574,22.5222778 14.960556,22.5222778 15.5052948,21.8669891 C16.8895721,20.2017975 18.9798737,19.140625 21.3201141,19.140625 C23.6902619,19.140625 25.80513,20.2295685 27.1888734,21.9321442 C27.7378845,22.6077271 28.7648773,22.6077271 29.3138885,21.9321442 C30.6976318,20.2295685 32.811966,19.140625 35.1826478,19.140625 C37.4919128,19.140625 39.5587158,20.1734925 40.9429932,21.800766 C41.4834595,22.4357604 42.4698639,22.4357604 43.0103302,21.800766 C44.3951416,20.1734925 46.4619446,19.140625 48.7712096,19.140625 C51.1109162,19.140625 53.2012176,20.2017975 54.585495,21.8669891 C55.1302337,22.5222778 56.1374665,22.5222778 56.6822052,21.8669891 C58.0659486,20.2017975 60.15625,19.140625 62.4964905,19.140625 C62.5835418,19.140625 62.6700592,19.1422272 62.7560425,19.1448975 Z"/>
    <g fill="#EBECEE" transform="translate(3.333 21.667)">
      <rect width="6.667" height="6.667" x="42.5" rx="2"/>
      <rect width="6.667" height="6.667" x="56.667" rx="2"/>
      <rect width="6.667" height="6.667" x="28.333" rx="2"/>
      <rect width="6.667" height="6.667" x="14.167" rx="2"/>
      <rect width="6.667" height="6.667" rx="2"/>
    </g>
    <path fill="#005B76" fill-rule="nonzero" d="M47.9882812,58.7890625 L47.9882812,69 C47.9882812,69.5522847 47.540566,70 46.9882812,70 L23.0117187,70 C22.459434,70 22.0117187,69.5522847 22.0117187,69 L22.0117187,58.7890625 L22.0117187,58.7890625 C22.0117187,57.2787476 23.2357788,56.0546875 24.7460937,56.0546875 L45.2539063,56.0546875 C46.7642212,56.0546875 47.9882812,57.2787476 47.9882812,58.7890625 Z"/>
    <path fill="#0080A6" d="M18.2954545 51.7045455C22.8192381 51.7045455 25.2002524 48.9618008 25.4384975 43.4763116 25.4505518 43.2003934 25.2365882 42.9670002 24.9606669 42.9550164 24.9534383 42.9547025 24.9462038 42.9545455 24.9389684 42.9545455L11.6519721 42.9545455C11.3758107 42.9545111 11.1519377 43.1783841 11.1519377 43.4545455 11.1519377 43.4617797 11.1520947 43.4690132 11.1524085 43.4762407 11.3906362 48.9617772 13.7716515 51.7045455 18.2954545 51.7045455zM7.95454545 64.4318182C12.478329 64.4318182 14.8593433 61.6890736 15.0975884 56.2035843 15.1096427 55.9276661 14.8956791 55.6942729 14.6197578 55.6822892 14.6125293 55.6819752 14.6052947 55.6818182 14.5980593 55.6818182L1.31106297 55.6818182C1.0349016 55.6817838.811028573 55.9056568.811028573 56.1818182.811028573 56.1890525.811185567 56.1962859.811499445 56.2035134 1.04972707 61.6890499 3.43074241 64.4318182 7.95454545 64.4318182zM62.0454545 64.4318182C66.5692381 64.4318182 68.9502524 61.6890736 69.1884975 56.2035843 69.2005518 55.9276661 68.9865882 55.6942729 68.7106669 55.6822892 68.7034383 55.6819752 68.6962038 55.6818182 68.6889684 55.6818182L55.4019721 55.6818182C55.1258107 55.6817838 54.9019377 55.9056568 54.9019377 56.1818182 54.9019377 56.1890525 54.9020947 56.1962859 54.9024085 56.2035134 55.1406362 61.6890499 57.5216515 64.4318182 62.0454545 64.4318182zM52.5 51.7045455C57.0237836 51.7045455 59.4047979 48.9618008 59.6430429 43.4763116 59.6550973 43.2003934 59.4411337 42.9670002 59.1652124 42.9550164 59.1579838 42.9547025 59.1507493 42.9545455 59.1435138 42.9545455L45.8565175 42.9545455C45.5803561 42.9545111 45.3564831 43.1783841 45.3564831 43.4545455 45.3564831 43.4617797 45.3566401 43.4690132 45.356954 43.4762407 45.5951816 48.9617772 47.976197 51.7045455 52.5 51.7045455z"/>
  </g>
</svg>
