<svg xmlns="http://www.w3.org/2000/svg" width="80" height="80" viewBox="0 0 80 80">
  <g fill="none" transform="translate(7.125 1.875)">
    <path fill="#00667F" d="M19.8543819 75.5848301C19.6176021 75.2458752 19.5536409 74.8104386 19.6809483 74.4143564L21.0315158 70.2307379C21.6514483 68.3284007 21.3796127 66.2362741 20.2959607 64.5694282L19.363602 63.1253784C17.8445213 60.7914131 17.4638285 57.8601507 18.3334562 55.1954822L19.6852534 51.016307C19.904813 50.3339538 20.6188424 49.9651657 21.2793657 50.1917704 21.9405041 50.41901 22.2978263 51.1559514 22.0782669 51.8376697L20.7276995 56.0187493C20.107152 57.9210864 20.3796024 60.0138477 21.4644845 61.6800591L22.387003 63.1253784C23.9060838 65.4593436 24.2861614 68.390606 23.4159189 71.0552745L22.0641215 75.2382583C21.8925332 75.7663679 21.4146684 76.122461 20.8753025 76.125 20.4706244 76.125 20.0905467 75.9237852 19.8543819 75.5848301zM46.637173 75.125C46.1814424 75.1256092 45.7615626 74.8759875 45.5434195 74.4737854 45.4571346 74.317543 45.3653808 74.1625213 45.2657277 74.012382L44.3457595 72.6251203C42.8448866 70.3809667 42.4687569 67.5625 43.3279611 65.0003687L44.6635556 60.9820093C44.8804835 60.3259132 45.5859544 59.9713162 46.2385606 60.1892011 46.8917745 60.4076964 47.2448138 61.1162801 47.0278861 61.7717657L45.6935068 65.7919562C45.0803973 67.6210909 45.349582 69.6333222 46.4214606 71.2354174L47.3329217 72.6251203C47.4720716 72.8375124 47.6039296 73.0535664 47.7236348 73.2738926 48.0517609 73.8799422 47.8287566 74.6385724 47.2253693 74.9687565 47.0455076 75.0694596 46.8431633 75.1231679 46.637173 75.125L46.637173 75.125z"/>
    <path fill="#007C73" d="M42.6217448,56.125 L41.875,62.125 L49.875,62.125 L49.1282552,56.125 C47.0091147,56.8027654 44.7408853,56.8027654 42.6217448,56.125 L42.6217448,56.125 Z"/>
    <path fill="#009E92" d="M44.8137475,11.125 C41.8665748,11.1337881 38.9663276,11.8346219 36.3645778,13.1660809 C37.5500944,15.7606708 38.167945,18.5614988 38.1796763,21.3955507 C37.7619104,29.9190196 34.0939123,37.9949077 27.875,44.0805028 C30.9277546,50.6882756 35.9800505,56.6428561 41.8704853,58.2112696 C42.19049,58.2965231 42.5137535,58.3654782 42.8409276,58.4244035 C43.0168977,58.4557467 43.1915641,58.4927317 43.3747035,58.5159256 C43.8204943,58.5767314 44.2708472,58.6105821 44.7212002,58.6162238 C44.7733395,58.6162238 44.8241754,58.625 44.8763146,58.625 C45.3911899,58.6224924 45.9054136,58.5842537 46.415075,58.5109107 L46.5793137,58.4889704 C47.0987512,58.4106125 47.6123231,58.2977769 48.1154671,58.1510907 C57.6393576,55.4254865 64.886717,41.2163615 64.875,31.6278508 C64.8482644,20.997492 55.8653188,11.1124746 44.8137475,11.125 L44.8137475,11.125 Z"/>
    <path fill="#95D7E5" d="M17.6217448,47.125 L16.875,51.125 L24.875,51.125 L24.1282552,47.125 C22.0091147,47.7109172 19.7408853,47.7109172 17.6217448,47.125 Z"/>
    <path fill="#B0DFE9" d="M38.1071778,12.5658373 C35.0387207,5.48266806 28.2397462,0.125 20.375,0.125 C9.61127934,0.125 0.875,10.1403809 0.875,20.8816883 C0.875,30.5467746 7.94692379,44.8689403 17.2030762,47.6446912 C19.2692382,48.2851029 21.4807618,48.2851029 23.5469238,47.6446912 C25.9152344,46.8706229 28.0696288,45.5555934 29.8387207,43.8047546 C35.8956543,37.6552816 39.4681153,29.4946244 39.875,20.8816883 C39.8635743,18.0178887 39.2618163,15.1876615 38.1071778,12.5658373 Z"/>
    <path fill="#F1F2F2" d="M32.0831816 15.2882805C32.8785846 17.0442366 33.2941779 18.9429835 33.3035947 20.8645029 33.3035947 21.5606076 33.879273 22.125 34.5892973 22.125 35.2993217 22.125 35.875 21.5606076 35.875 20.8645029 35.8662109 18.5977008 35.3784224 16.3573642 34.4430236 14.2844374 33.2508608 11.5511037 31.3518127 9.16982287 28.9323312 7.37693816 28.3641862 6.95964462 27.5581109 7.07227696 27.132473 7.62928369 26.7062074 8.18629041 26.8210918 8.97656299 27.3892369 9.39385653 29.451509 10.923317 31.0699373 12.9556225 32.0831816 15.2882805zM21.0748828 6.51681905C22.1687214 6.52090667 23.2543575 6.70484772 24.2884362 7.06105131 24.915914 7.27360554 25.5972929 6.93900785 25.8105533 6.31360786 26.0243996 5.68820787 25.6886902 5.00850148 25.0606265 4.79594725 23.7781346 4.35565642 22.4317816 4.12908762 21.0748828 4.125 20.4122522 4.125 19.875 4.66047312 19.875 5.32090952 19.875 5.98134592 20.4122522 6.51681905 21.0748828 6.51681905z"/>
    <path fill="#F1F2F2" d="M10.1823312 3.64373404C9.61418623 3.19862093 8.80811093 3.3187621 8.38247296 3.9129026 7.9562074 4.5070431 8.07109185 5.35000052 8.63923694 5.79511363 10.6996256 7.42522525 12.3167985 9.58973502 13.3306705 12.0739647 14.1279567 13.9496105 14.5441779 15.9782229 14.5535947 18.0304698 14.5535947 18.7729814 15.129273 19.375 15.8392973 19.375 16.5493217 19.375 17.125 18.7729814 17.125 18.0304698 17.1162109 15.6125475 16.6284224 13.2228551 15.6930236 11.0117332 14.5008608 8.09617725 12.6018127 5.5561444 10.1823312 3.64373404zM5.31062651 1.04594725C4.02813459.605656415 2.6817816.379087619 1.32488284.375.662252191.375.125.910473123.125 1.57090952.125 2.23134592.662252191 2.76681905 1.32488284 2.76681905 2.41872139 2.77090667 3.50435753 2.95484772 4.53843621 3.31105131 5.16591404 3.52360554 5.84729286 3.18900785 6.06055329 2.56360786 6.27439956 1.93820787 5.93869019 1.25850148 5.31062651 1.04594725z" transform="translate(44.75 13.75)"/>
  </g>
</svg>
