<svg xmlns="http://www.w3.org/2000/svg" width="80" height="80" viewBox="0 0 80 80">
  <g fill="none" transform="translate(1.25 1.875)">
    <path fill="#009E92" d="M41.1787184,12.5350582 C37.7908216,11.4403595 33.75,12.4810249 33.75,16.3395917 L33.75,24.125 L43.75,24.125 L43.75,16.3395917 C43.7501837,14.2301972 42.5975529,13.1185345 41.1787184,12.5350582 Z"/>
    <path fill="#B0DFE9" d="M10.75,47.125 L10.75,25.7306323 C10.75,23.7391602 12.4036388,22.125 14.4434338,22.125 L14.4434338,22.125 L65.0557985,22.125 C67.0959773,22.125 68.75,23.7391602 68.75,25.7306323 L68.75,25.7306323 L68.75,47.125 L10.75,47.125 Z"/>
    <path fill="#FFD863" d="M38.5277597,0.150500906 C36.2326144,1.09402278 34.75,3.23951359 34.75,5.61608651 C34.75,9.26266076 38.0830354,11.125 38.7485236,11.125 C39.374654,11.125 42.7470472,9.30503848 42.7470472,5.61608651 C42.7466477,1.90243003 39.2080322,-0.129040015 38.5277597,0.150500906 Z"/>
    <path fill="#D4F7FF" d="M65.929048,21.125 L13.5748975,21.125 C11.8436961,21.125 10.3815059,22.2833346 9.91217565,23.8715995 C9.71046687,24.5568509 9.75394543,24.7238684 9.75394543,27.9169801 L16.8635845,32.565302 C19.3726353,34.20571 21.5693949,33.2185883 22.3446634,32.7604888 L27.2085054,29.5801631 C27.2089025,29.5801631 27.2089025,29.5801631 27.2089025,29.5799634 C29.4320669,28.1263514 31.3939627,29.0295646 32.057259,29.423734 C40.6052644,35.0124287 38.8589746,35.0384003 47.4466864,29.423734 C48.1099827,29.0295646 50.0718786,28.1263514 52.2950429,29.5799634 L57.159282,32.7604888 C57.934352,33.2185883 60.1313101,34.2055102 62.6403609,32.565302 L69.75,27.9169801 L69.75,24.9697997 C69.75,22.84592 68.0390489,21.125 65.929048,21.125 Z"/>
    <path fill="#B0DFE9" d="M75.75,62.1192594 L75.75,53.1221155 C75.75,50.3620624 73.640131,48.125 71.0371938,48.125 L6.4624328,48.125 C3.85949559,48.125 1.75,50.3620624 1.75,53.1221155 L1.75,76.125 L75.75,76.125 L75.75,67.4022185"/>
    <path fill="#D4F7FF" d="M55.8671707,56.0521009 L50.7002475,59.450766 C50.0069015,59.8620843 49.1287144,60.1155914 48.2476511,60.0734696 L48.042605,60.0627811 C46.5675308,59.9538482 45.6588916,59.1508413 41.1784366,56.2037005 C40.308878,55.6320477 39.4813113,55.4358029 38.7611211,55.4297855 C37.6321969,55.4297855 36.7319653,55.9370815 36.4299787,56.1303371 L33.2563731,58.2436902 C28.5682359,61.3317221 28.5934156,60.629812 21.6324458,56.0519068 L21.4879635,55.9695755 C20.7651687,55.5768133 19.0799951,54.9335228 17.1633592,56.0701722 L16.9494843,56.2038946 L12.2519502,59.2939254 L12.0957308,59.3826231 C11.2654371,59.833224 9.36259592,60.548821 7.1845486,59.2461396 L6.95828435,59.1040862 L0.75,55.0204083 L0.75,52.0251029 C0.75,49.3898556 2.80398773,47.2408095 5.37984167,47.129706 L5.58980805,47.1251941 L71.9098085,47.125 C73.7389041,47.125 75.3309336,48.1519361 76.154023,49.6673721 L76.2455522,49.8446311 C76.5280657,50.4192745 76.7023984,51.058034 76.7415673,51.7335966 L76.75,52.0252971 L76.75,55.0206024 L70.5417157,59.1042804 C68.2693706,60.5986817 66.2626207,59.8489561 65.4038521,59.3828172 L65.2476663,59.2941196 L60.5497487,56.2038946 C59.762461,55.686036 59.0090468,55.4760694 58.3389508,55.4367003 L58.1583003,55.4297016 L57.9820041,55.4313198 C56.9957508,55.4593354 56.2299693,55.8351899 55.8671707,56.0521009 Z"/>
    <circle cx="18.25" cy="41.625" r="2.5" fill="#009E92"/>
    <circle cx="43.25" cy="36.625" r="2.5" fill="#00667F"/>
    <circle cx="61.25" cy="41.625" r="2.5" fill="#009E92"/>
    <path fill="#FFD863" d="M47.8999777 44.1150724C47.529565 43.2372139 47.8689681 42.1913624 48.6572532 41.7793794L51.5021887 40.291862C52.2908519 39.879879 53.2302139 40.256916 53.6002484 41.1351955 53.9702829 42.0126329 53.6308798 43.0582739 52.8429729 43.470678L49.9976591 44.9581954C49.2054034 45.371231 48.2688777 44.9899836 47.8999777 44.1150724zM32.2833246 41.8836743L29.5262832 40.1744361C28.7623822 39.7010175 28.5211605 38.6884936 28.9878593 37.9128762 29.4545582 37.1376533 30.4522946 36.8926592 31.2161956 37.3664723L33.9736257 39.0757105C34.7379155 39.5491291 34.9787485 40.5618503 34.5120496 41.3370732 34.0457395 42.1119015 33.0491694 42.3574874 32.2833246 41.8836743z"/>
    <ellipse cx="54.903" cy="70.313" fill="#009E92" rx="2.153" ry="2.188"/>
    <circle cx="30.25" cy="64.625" r="2.5" fill="#009E92"/>
    <circle cx="10.25" cy="67.625" r="2.5" fill="#00667F"/>
    <path fill="#FFD863" d="M21.5020885,72.9581539 L18.6571046,71.4707188 C17.8688062,71.0584898 17.5297755,70.0127587 17.8998163,69.1348247 C18.269857,68.2571011 19.2092349,67.8800316 19.9975333,68.291629 L22.8428954,69.7792746 C23.6311938,70.1912931 23.9702245,71.2370241 23.6001837,72.1149582 C23.2295757,72.9928923 22.2909542,73.3701724 21.5020885,72.9581539 Z"/>
    <path fill="#00667F" d="M68.5025055,67.9581327 L65.657114,66.4708746 C64.8688074,66.0584258 64.5297732,65.0128816 64.8998178,64.1349278 C65.2698624,63.2571844 66.20925,62.8801064 66.9975566,63.2915025 L69.8429481,64.7789711 C70.6308765,65.1912094 70.9702889,66.2367536 70.6002443,67.114918 C70.2317124,67.9890821 69.2953502,68.3716342 68.5025055,67.9581327 Z"/>
    <path fill="#FFD863" d="M40.9877723,70.3369211 C40.5212693,69.5617302 40.7622958,68.5492482 41.5261946,68.0756519 L44.2836163,66.3662871 C45.0475151,65.8928881 46.0454429,66.1374776 46.5123347,66.9126684 C46.9788377,67.6878593 46.7374224,68.7003413 45.9735236,69.1743321 L43.2161019,70.8834997 C42.4520088,71.3572931 41.4542754,71.1125064 40.9877723,70.3369211 Z"/>
  </g>
</svg>
