<svg xmlns="http://www.w3.org/2000/svg" width="80" height="80" viewBox="0 0 80 80">
  <g fill="none" fill-rule="evenodd" transform="translate(6.667 5)">
    <polygon fill="#525468" points="1.795 3.59 43.077 3.59 43.077 43.077 1.795 43.077"/>
    <path fill="#13A0BF" fill-rule="nonzero" d="M41.4814815,0 L5.18518519,0 C2.33333333,0 0,2.33333333 0,5.18518519 L0,41.4814815 C0,44.3333333 2.33333333,46.6666667 5.18518519,46.6666667 L41.4814815,46.6666667 C44.3333333,46.6666667 46.6666667,44.3333333 46.6666667,41.4814815 L46.6666667,5.18518519 C46.6666667,2.33333333 44.3333333,0 41.4814815,0 Z M11.6666667,38.8888889 C9.51481481,38.8888889 7.77777778,37.1518519 7.77777778,35 C7.77777778,32.8481481 9.51481481,31.1111111 11.6666667,31.1111111 C13.8185185,31.1111111 15.5555556,32.8481481 15.5555556,35 C15.5555556,37.1518519 13.8185185,38.8888889 11.6666667,38.8888889 Z M11.6666667,15.5555556 C9.51481481,15.5555556 7.77777778,13.8185185 7.77777778,11.6666667 C7.77777778,9.51481481 9.51481481,7.77777778 11.6666667,7.77777778 C13.8185185,7.77777778 15.5555556,9.51481481 15.5555556,11.6666667 C15.5555556,13.8185185 13.8185185,15.5555556 11.6666667,15.5555556 Z M35,38.8888889 C32.8481481,38.8888889 31.1111111,37.1518519 31.1111111,35 C31.1111111,32.8481481 32.8481481,31.1111111 35,31.1111111 C37.1518519,31.1111111 38.8888889,32.8481481 38.8888889,35 C38.8888889,37.1518519 37.1518519,38.8888889 35,38.8888889 Z M35,15.5555556 C32.8481481,15.5555556 31.1111111,13.8185185 31.1111111,11.6666667 C31.1111111,9.51481481 32.8481481,7.77777778 35,7.77777778 C37.1518519,7.77777778 38.8888889,9.51481481 38.8888889,11.6666667 C38.8888889,13.8185185 37.1518519,15.5555556 35,15.5555556 Z"/>
    <g transform="translate(16.667 18.333)">
      <polygon fill="#525468" points="3.333 3.333 48.333 3.333 48.333 46.667 3.333 46.667"/>
      <path fill="#00837A" fill-rule="nonzero" d="M46.1111111,1.66666667 L7.22222222,1.66666667 C4.16666667,1.66666667 1.66666667,4.16666667 1.66666667,7.22222222 L1.66666667,46.1111111 C1.66666667,49.1666667 4.16666667,51.6666667 7.22222222,51.6666667 L46.1111111,51.6666667 C49.1666667,51.6666667 51.6666667,49.1666667 51.6666667,46.1111111 L51.6666667,7.22222222 C51.6666667,4.16666667 49.1666667,1.66666667 46.1111111,1.66666667 Z M14.1666667,43.3333333 C11.8611111,43.3333333 10,41.4722222 10,39.1666667 C10,36.8611111 11.8611111,35 14.1666667,35 C16.4722222,35 18.3333333,36.8611111 18.3333333,39.1666667 C18.3333333,41.4722222 16.4722222,43.3333333 14.1666667,43.3333333 Z M14.1666667,18.3333333 C11.8611111,18.3333333 10,16.4722222 10,14.1666667 C10,11.8611111 11.8611111,10 14.1666667,10 C16.4722222,10 18.3333333,11.8611111 18.3333333,14.1666667 C18.3333333,16.4722222 16.4722222,18.3333333 14.1666667,18.3333333 Z M26.6666667,30.8333333 C24.3611111,30.8333333 22.5,28.9722222 22.5,26.6666667 C22.5,24.3611111 24.3611111,22.5 26.6666667,22.5 C28.9722222,22.5 30.8333333,24.3611111 30.8333333,26.6666667 C30.8333333,28.9722222 28.9722222,30.8333333 26.6666667,30.8333333 Z M39.1666667,43.3333333 C36.8611111,43.3333333 35,41.4722222 35,39.1666667 C35,36.8611111 36.8611111,35 39.1666667,35 C41.4722222,35 43.3333333,36.8611111 43.3333333,39.1666667 C43.3333333,41.4722222 41.4722222,43.3333333 39.1666667,43.3333333 Z M39.1666667,18.3333333 C36.8611111,18.3333333 35,16.4722222 35,14.1666667 C35,11.8611111 36.8611111,10 39.1666667,10 C41.4722222,10 43.3333333,11.8611111 43.3333333,14.1666667 C43.3333333,16.4722222 41.4722222,18.3333333 39.1666667,18.3333333 Z"/>
    </g>
  </g>
</svg>
