<svg xmlns="http://www.w3.org/2000/svg" width="80" height="80" viewBox="0 0 80 80">
  <g fill="none" transform="matrix(-1 0 0 1 76.667 11.667)">
    <path fill="#525468" d="M26.6666667,2.5 L26.6666667,15 L16.6666667,15 L16.6666667,2.5 C16.6666667,1.11925 18.159,0 20,0 L23.3333333,0 C25.1743333,0 26.6666667,1.11925 26.6666667,2.5 Z"/>
    <polygon fill="#C4AC8E" points="26.667 15 16.667 15 16.667 6.667 26.667 6.667"/>
    <path fill="#13A0BF" d="M11.6666667,28.3333333 L13.9606763,13.0798333 C14.0828714,12.2668333 14.7668381,11.6666667 15.5710449,11.6666667 L45.1482906,11.6666667 C45.9524973,11.6666667 46.6363012,12.2668333 46.7586592,13.0798333 L51.6666667,28.3333333 L11.6666667,28.3333333 Z"/>
    <path fill="#0F8099" d="M5,46.6666667 L8.61801932,28.0351667 C8.7579164,27.2426667 9.42764335,26.6666667 10.209288,26.6666667 L55.787595,26.6666667 C56.5692397,26.6666667 57.2389666,27.2426667 57.3788637,28.0351667 L63.3333333,46.6666667 L5,46.6666667 Z"/>
    <rect width="5" height="5" x="41.667" y="31.667" fill="#525468" rx="1.5"/>
    <rect width="5" height="5" x="33.333" y="31.667" fill="#525468" rx="1.5"/>
    <rect width="5" height="5" x="25" y="31.667" fill="#525468" rx="1.5"/>
    <rect width="5" height="5" x="16.667" y="31.667" fill="#525468" rx="1.5"/>
    <rect width="5" height="5" x="20" y="16.667" fill="#525468" rx="1.5"/>
    <rect width="5" height="5" x="28.333" y="16.667" fill="#525468" rx="1.5"/>
    <rect width="5" height="5" x="36.667" y="16.667" fill="#525468" rx="1.5"/>
    <path fill="#525468" d="M56.1785942,35 L71.7386522,35 C72.7445942,35 73.4991304,35.9203333 73.3019275,36.9068261 L69.4131884,57.4368406 C69.1150725,58.9272609 67.8065507,60 66.2867971,60 L5.13349275,60 C3.61357971,60 2.30505797,58.9272609 2.00694203,57.4368406 L0.0315652174,46.9053767 C-0.165797101,45.9188839 0.58873913,44.99855 1.59468116,44.99855 L51.6515362,44.99855 C52.4114928,44.99855 53.0657536,44.4621021 53.2148116,43.7169717 L54.6151594,36.2815797 C54.7643768,35.5364493 55.4186377,35 56.1785942,35 Z"/>
  </g>
</svg>
