<?xml version="1.0" encoding="UTF-8"?>
<svg width="80px" height="80px" viewBox="0 0 80 80" version="1.1" xmlns="http://www.w3.org/2000/svg" xmlns:xlink="http://www.w3.org/1999/xlink">
    <title>contents/product/vacation/Exchange-vacation</title>
    <g id="contents/product/vacation/Exchange-vacation" stroke="none" stroke-width="1" fill="none" fill-rule="evenodd">
        <g id="hand" transform="translate(3.333333, 56.666667)" fill-rule="nonzero">
            <path d="M34.2857143,2.51348837 L23.4733333,2.51348837 C21.4526984,2.51348837 19.5147619,3.29751938 18.085873,4.69317829 L15.2380952,7.47472868 L21.5873016,13.6762791 L24.6530159,10.6818605 C25.1293651,10.2165891 25.7752381,9.95534884 26.4488889,9.95534884 L34.2857143,9.95534884 C36.3896825,9.95534884 38.0952381,8.28945736 38.0952381,6.2344186 C38.0952381,4.17937984 36.3896825,2.51348837 34.2857143,2.51348837 Z" id="Path" fill="#C4AC8E"></path>
            <path d="M52.5893651,0.759379845 C51.597619,-0.209457364 49.9895238,-0.209457364 48.9977778,0.759379845 L39.5828571,9.95534884 L26.4487302,9.95534884 C25.7752381,9.95534884 25.1292063,10.2167442 24.6528571,10.6818605 L21.5873016,13.6762791 L25.3968254,17.3972093 L27.9365079,14.9165891 L40.1090476,14.9165891 C41.1266667,14.9165891 42.0833333,14.5294574 42.8026984,13.8266667 L52.5895238,4.26744186 C53.5812698,3.29875969 53.5812698,1.72806202 52.5893651,0.759379845 L52.5893651,0.759379845 Z" id="Path" fill="#C4AC8E"></path>
            <path d="M34.2857143,8.30155039 L33.4392063,8.30155039 C32.7379365,8.30155039 32.1693651,7.74620155 32.1693651,7.06124031 L32.1693651,5.40744186 C32.1693651,4.72248062 32.7379365,4.16713178 33.4392063,4.16713178 L34.2857143,4.16713178 C35.4546032,4.16713178 36.4020635,5.09271318 36.4020635,6.23426357 C36.4020635,7.37612403 35.4546032,8.30155039 34.2857143,8.30155039 L34.2857143,8.30155039 Z" id="Path" fill="#C4AC8E"></path>
            <path d="M8.8817842e-15,20 L13.3333333,7.03567362 C13.8391849,6.54366435 14.6594934,6.54366435 15.165345,7.03567362 L26.287278,17.8498014 C26.7931296,18.3416532 26.7931296,19.1392593 26.287278,19.6311111 L25.9078894,20 L8.8817842e-15,20 Z" id="Path" fill="#13A0BF"></path>
        </g>
        <g id="architecture-and-city" transform="translate(22.500000, 11.666667)" fill-rule="nonzero">
            <polygon id="Path" fill="#EBECEE" points="17.4848054 1.18510569 2.82934132 10.0967545 2.82934132 28.8759675 32.1402695 28.8759675 32.1402695 10.0966634"></polygon>
            <polygon id="Path" fill="#E0DFE2" points="17.4848054 1.18510569 16.4630988 1.80638699 30.0968563 10.0966634 30.0968563 28.8759675 32.1402695 28.8759675 32.1402695 10.0966634"></polygon>
            <path d="M13.9126048,19.5059382 L13.9126048,28.8759675 L21.057006,28.8759675 L21.057006,19.5059382 C21.057006,19.3047935 20.8693263,19.1417106 20.6378443,19.1417106 L14.3317665,19.1417106 C14.1002844,19.1417106 13.9126048,19.3047935 13.9126048,19.5059382 Z" id="Path" fill="#33C0E3"></path>
            <path d="M15.8792066,24.7915187 C15.4450599,24.7915187 15.0932784,24.4858407 15.0932784,24.1085919 L15.0932784,23.937678 C15.0932784,23.5604293 15.4450599,23.2547512 15.8792066,23.2547512 C16.3133533,23.2547512 16.6651347,23.5604293 16.6651347,23.937678 L16.6651347,24.1085919 C16.6651347,24.4857496 16.3133533,24.7915187 15.8792066,24.7915187 Z" id="Path" fill="#1FA5C7"></path>
            <path d="M1.47282934,11.9873234 C1.04046407,11.9873234 0.615434132,11.8089886 0.350943114,11.4765398 C-0.0769161677,10.9388488 0.0780688623,10.2014699 0.696961078,9.82977561 L16.4592216,0.362133333 C17.0726647,-0.00637398374 17.8968413,-0.00628292683 18.5101796,0.362042276 L34.2725449,9.82968455 C34.8914371,10.2014699 35.0464222,10.9388488 34.6185629,11.4765398 C34.1909132,12.014322 33.3424251,12.1489951 32.7234281,11.7772098 L17.7661677,2.79326179 C17.5967216,2.69155122 17.3725749,2.69155122 17.2031287,2.79326179 L2.24607784,11.7772098 C2.00988024,11.9191675 1.73994012,11.9873234 1.47282934,11.9873234 Z" id="Path" fill="#937352"></path>
            <path d="M27.1730988,23.937678 L28.6987425,23.937678 C28.9880689,23.937678 29.2226946,23.7338016 29.2226946,23.4823935 L29.2226946,19.5970862 C29.2226946,19.345678 28.9880689,19.1418016 28.6987425,19.1418016 L27.1730988,19.1418016 C26.8837725,19.1418016 26.6491467,19.345678 26.6491467,19.5970862 L26.6491467,23.4823935 C26.6491467,23.7338016 26.8837725,23.937678 27.1730988,23.937678 Z" id="Path" fill="#33C0E3"></path>
            <path d="M6.27086826,23.937678 L7.79651198,23.937678 C8.08583832,23.937678 8.32046407,23.7338016 8.32046407,23.4823935 L8.32046407,19.5970862 C8.32046407,19.345678 8.08583832,19.1418016 7.79651198,19.1418016 L6.27086826,19.1418016 C5.98154192,19.1418016 5.74691617,19.345678 5.74691617,19.5970862 L5.74691617,23.4823935 C5.74691617,23.7338016 5.98154192,23.937678 6.27086826,23.937678 Z" id="Path" fill="#33C0E3"></path>
            <path d="M30.3608234,33.5289756 C29.4401567,33.5289756 28.6941567,33.2232976 28.6941567,32.8460488 L28.6941567,28.8759675 C28.6941567,28.4987187 29.4401567,28.1930407 30.3608234,28.1930407 C31.28149,28.1930407 32.02749,28.4987187 32.02749,28.8759675 L32.02749,32.8460488 C32.02749,33.2232065 31.28149,33.5289756 30.3608234,33.5289756 Z" id="Path" fill="#A3847E"></path>
            <path d="M4.59870259,33.5289756 C3.67825815,33.5289756 2.93203593,33.2232976 2.93203593,32.8460488 L2.93203593,28.8759675 C2.93203593,28.4987187 3.67825815,28.1930407 4.59870259,28.1930407 C5.51914704,28.1930407 6.26536926,28.4987187 6.26536926,28.8759675 L6.26536926,32.8460488 C6.26536926,33.2232065 5.51914704,33.5289756 4.59870259,33.5289756 Z" id="Path" fill="#A3847E"></path>
            <path d="M10.9778443,14.2221789 C10.544012,14.2221789 10.1919162,14.5272195 10.1919162,14.9051057 L10.1919162,28.8759675 L11.7637725,28.8759675 L11.7637725,14.9051057 C11.7637725,14.5272195 11.4127246,14.2221789 10.9778443,14.2221789 Z M23.9917665,14.2221789 C23.5568862,14.2221789 23.2058383,14.5272195 23.2058383,14.9051057 L23.2058383,28.8759675 L24.7776946,28.8759675 L24.7776946,14.9051057 C24.7776946,14.5272195 24.4255988,14.2221789 23.9917665,14.2221789 Z" id="Shape" fill="#5F6C75"></path>
            <path d="M24.7677146,28.8759675 L24.7677146,32.8460488 C24.7677146,33.2230244 24.0210479,33.5289756 23.1010479,33.5289756 C22.1788257,33.5289756 21.4343812,33.2230244 21.4343812,32.8460488 L21.4343812,28.8759675 L24.7677146,28.8759675 Z" id="Path" fill="#A3847E"></path>
            <path d="M13.5252495,28.8759675 L13.5252495,32.8460488 C13.5252495,33.2230244 12.7808051,33.5289756 11.8585828,33.5289756 C10.9385828,33.5289756 10.1919162,33.2230244 10.1919162,32.8460488 L10.1919162,28.8759675 L13.5252495,28.8759675 Z" id="Path" fill="#A3847E"></path>
            <path d="M9.52911677,17.0339252 C9.11770958,17.0339252 8.71112275,16.8726634 8.44317365,16.5658927 C7.98817365,16.0452293 8.10511976,15.3026602 8.70431138,14.9072911 L16.812994,9.55715122 C17.3073952,9.23098537 17.9929341,9.23644878 18.480524,9.57053659 L26.2852096,14.9206764 C26.8759132,15.3255154 26.9770359,16.0699057 26.5109281,16.5831935 C26.0452395,17.0965724 25.1886826,17.1844423 24.5976647,16.7793301 L17.6207186,11.996748 L10.3519311,16.7928065 C10.1056737,16.9553431 9.81624251,17.0339252 9.52911677,17.0339252 L9.52911677,17.0339252 Z" id="Path" fill="#937352"></path>
            <path d="M34.125524,31.1068618 L0.843982036,31.1068618 C0.40994012,31.1068618 0.0580538922,30.4547486 0.0580538922,29.6499512 C0.0580538922,28.8451538 0.40994012,28.1930407 0.843982036,28.1930407 L34.125524,28.1930407 C34.5596707,28.1930407 34.9114521,28.8451538 34.9114521,29.6499512 C34.9114521,30.4547486 34.5596707,31.1068618 34.125524,31.1068618 Z" id="Path" fill="#C4AC8E"></path>
        </g>
        <path d="M65.1593567,30.1554718 C66.1391674,30.3001716 66.8083065,31.2407202 66.6410217,32.2295022 C65.2071523,41.4179393 59.567266,49.1352618 51.72878,53.3315559 C47.9768217,55.3332364 43.2450527,56.7802344 37.8680424,56.6596512 C37.4378816,56.6596512 37.246699,56.1290853 37.5334729,55.8155691 L45.8499154,47.3988642 L49.0283259,50.6063764 C56.4127533,47.085348 61.7897636,40.0674078 63.1041439,31.650703 C63.2475308,30.661921 64.1556481,29.9866553 65.1593567,30.1554718 Z M42.1319576,3.34034879 C42.5621184,3.34034879 42.753301,3.87091471 42.4665271,4.18443093 L34.1500846,12.5770192 L30.9716741,9.36950699 C23.5872467,12.8905354 18.2102364,19.9084755 16.8958561,28.3251804 C16.7524692,29.3139623 15.8443519,29.989228 14.8406433,29.8204116 C13.8608326,29.6757118 13.1916935,28.7351631 13.3589783,27.7463812 C14.7928477,18.5820607 20.432734,10.8647382 28.27122,6.66844411 C32.0231783,4.66676359 36.7549473,3.21976562 42.1319576,3.34034879 Z" id="Combined-Shape" fill="#00AFA3"></path>
    </g>
</svg>