<?xml version="1.0" encoding="UTF-8"?>
<svg width="80px" height="80px" viewBox="0 0 80 80" version="1.1" xmlns="http://www.w3.org/2000/svg" xmlns:xlink="http://www.w3.org/1999/xlink">
    <title>contents/product/vacation/Extra-vacation</title>
    <g id="contents/product/vacation/Extra-vacation" stroke="none" stroke-width="1" fill="none" fill-rule="evenodd">
        <g id="beach" transform="translate(4.166667, 2.500000)">
            <g id="Group-2" transform="translate(0.814815, 0.000000)">
                <polygon id="Path" fill="#937352" fill-rule="nonzero" points="46.5638389 65.3056898 23.3544987 23.3837189 28.6322365 20.4618852 53.728826 65.7926307"></polygon>
                <g id="Group" transform="translate(0.000000, 0.000000)">
                    <path d="M10.7455013,7.82498715 C3.62882432,14.0261142 -0.283243557,23.1259726 0.11311054,32.5569837 L0.335372751,37.8514996 L3.3933162,35.2610797 C5.24321084,33.6932298 7.41821986,32.5557914 9.76125107,31.9309169 L12.2119794,31.277515 L13.2716367,30.2891174 C15.5493668,28.1645563 18.3857436,26.7336156 21.4480206,26.1641645 L22.9991431,24.7155955 C24.9649317,22.8819248 27.3519307,21.5604255 29.9494087,20.8677635 L32.001611,20.3210626 C34.1096458,18.0281158 36.8278418,16.3838574 39.8373436,15.5811654 L41.2374636,15.2077121 L43.0917224,13.4784404 C44.8649517,11.8244182 46.9833496,10.5848013 49.2939503,9.84910026 L53.1123736,8.63353899 L48.7432905,5.63460154 C40.9605792,0.292788443 31.1716234,-1.22161906 22.1385604,1.51869751 C17.9380939,2.79252321 14.0551576,4.94180733 10.7455013,7.82498715 L10.7455013,7.82498715 Z" id="Path" fill="#A5F1FF"></path>
                    <path d="M21.4457584,26.164353 C18.383609,26.7337384 15.5473523,28.1646191 13.2697515,30.2891174 L12.2102828,31.2769494 C8.99760382,25.474562 8.75514411,18.4852753 11.558012,12.4742074 L15.2473008,4.56212511 C15.4301628,4.45278492 15.61491,4.34532991 15.7996572,4.24164524 L16.1276778,12.0387318 C16.2618726,15.2544058 17.1435708,18.3945679 18.7028278,21.2101114 L21.4457584,26.164353 Z" id="Path" fill="#FBB540" fill-rule="nonzero"></path>
                    <path d="M41.2382177,15.2077121 L39.8375321,15.5809769 C36.8285926,16.3853124 34.1105727,18.0290704 32.0008569,20.3203085 L29.2579263,15.3660668 C27.6994771,12.5506686 25.5069562,10.1367657 22.8539846,8.31550985 L16.4179949,3.89854327 C16.6046272,3.79674379 16.7931448,3.69871465 16.9835476,3.60257069 L25.6478149,4.67335047 C32.2302945,5.48936946 38.0252345,9.40498307 41.2382177,15.2077121 L41.2382177,15.2077121 Z" id="Path" fill="#FBB540" fill-rule="nonzero"></path>
                </g>
                <path d="M21.4457584,26.164353 C18.383609,26.7337384 15.5473523,28.1646191 13.2697515,30.2891174 L12.2102828,31.2769494 C8.99760382,25.474562 8.75514411,18.4852753 11.558012,12.4742074 L15.2473008,4.56212511 C15.4301628,4.45278492 15.61491,4.34532991 15.7996572,4.24164524 L16.1276778,12.0387318 C16.2618726,15.2544058 17.1435708,18.3945679 18.7028278,21.2101114 L21.4457584,26.164353 Z" id="Path" fill="#13A0BF"></path>
                <path d="M41.2382177,15.2077121 L39.8375321,15.5809769 C36.8285926,16.3853124 34.1105727,18.0290704 32.0008569,20.3203085 L29.2579263,15.3660668 C27.6994771,12.5506686 25.5069562,10.1367657 22.8539846,8.31550985 L16.4179949,3.89854327 C16.6046272,3.79674379 16.7931448,3.69871465 16.9835476,3.60257069 L25.6478149,4.67335047 C32.2302945,5.48936946 38.0252345,9.40498307 41.2382177,15.2077121 L41.2382177,15.2077121 Z" id="Path" fill="#13A0BF"></path>
            </g>
            <g id="Group-3" transform="translate(0.833333, 32.500000)" fill-rule="nonzero">
                <polygon id="Path" fill="#0F8099" points="51.2280702 23.3333333 61.6666667 36.6666667 54.2105263 36.6666667 48.245614 29.2592593 18.4210526 29.2592593 12.4561404 36.6666667 5 36.6666667 15.4385965 23.3333333"></polygon>
                <path d="M26.4902399,20.8333333 C25.9735061,20.8330159 25.4937783,20.583568 25.2223305,20.1740479 C24.9508826,19.7645278 24.9264092,19.2533121 25.1576477,18.8229164 L28.1400894,13.2673611 C28.392797,12.7970056 28.9090903,12.5 29.4738,12.5 L51.8421125,12.5 C52.665691,12.5 53.3333333,13.1218267 53.3333333,13.8888888 C53.3333333,14.6559509 52.665691,15.2777777 51.8421125,15.2777777 L30.3953745,15.2777777 L27.825069,20.0656247 C27.5722854,20.5364508 27.0554354,20.8337098 26.4902399,20.8333333 L26.4902399,20.8333333 Z" id="Path" fill="#7E869A"></path>
                <path d="M58.268059,1.1579215e-14 C56.9807836,1.1579215e-14 55.8039707,0.733655738 55.2282661,1.8952 L47.0481833,18.4 L13.5872827,18.4 C12.6435079,18.4000161 11.7532745,18.8422694 11.1778668,19.5969583 L0.625795614,33.4352917 C-0.0750096984,34.3540223 -0.197395904,35.594691 0.310184854,36.6347403 C0.817765612,37.6747896 1.86709767,38.3333333 3.01621278,38.3333333 C3.9467881,38.3333333 4.82522467,37.8998315 5.39656063,37.1588 L15.1303576,24.5333333 L49.7290907,24.5333333 C50.8805083,24.5333302 51.933096,23.8770206 52.4479955,22.8380417 L54.6476657,18.4 L61.307852,4.96186667 C61.8346274,3.89904222 61.7783369,2.63682722 61.1590848,1.62601929 C60.5398326,0.615211362 59.4459288,1.1579215e-14 58.268059,1.1579215e-14 L58.268059,1.1579215e-14 Z" id="Path" fill="#1FA5C7"></path>
            </g>
        </g>
        <g id="extra" transform="translate(52.500000, 52.500000)">
            <path d="M12.333252,24.6710449 C16.5618164,24.6710449 20.2875,22.5481934 22.5134766,19.307959 C23.8756348,17.3269043 24.6706055,14.924707 24.6706055,12.3376465 C24.6706055,9.74633789 23.8756348,7.34838867 22.5133301,5.36308594 C21.2499023,3.52382813 19.5010254,2.04125977 17.451123,1.10874023 C15.8912109,0.395361328 14.1594727,8.8817842e-15 12.3331055,8.8817842e-15 C11.765918,8.8817842e-15 11.2029785,0.038671875 10.6529297,0.111767578 C10.1973633,0.176220703 9.75043945,0.262207031 9.3121582,0.373974609 C5.88295898,1.23779297 3.0253418,3.53686523 1.41386719,6.59663086 C0.511376953,8.31123047 2.96059473e-15,10.2622559 2.96059473e-15,12.3379395 C2.96059473e-15,12.4710938 2.96059473e-15,12.6043945 0.00424804688,12.7375488 C0.0815917969,15.1183594 0.833642578,17.3314453 2.07128906,19.1835938 C4.284375,22.4923828 8.05737305,24.6710449 12.333252,24.6710449 Z" id="Path" fill="#00AFA3"></path>
            <path d="M16.1920898,11.2059082 L13.4649902,11.2059082 L13.4649902,8.47866211 C13.4649902,7.85361328 12.9583008,7.34692383 12.333252,7.34692383 C11.7082031,7.34692383 11.2015137,7.85361328 11.2015137,8.47866211 L11.2015137,11.2059082 L8.47866211,11.2059082 C7.85361328,11.2059082 7.34692383,11.7125977 7.34692383,12.3376465 C7.34692383,12.9626953 7.85361328,13.4693848 8.47866211,13.4693848 L11.2015137,13.4693848 L11.2015137,16.1923828 C11.2015137,16.8174316 11.7082031,17.3241211 12.333252,17.3241211 C12.9583008,17.3241211 13.4649902,16.8174316 13.4649902,16.1923828 L13.4649902,13.4693848 L16.1920898,13.4693848 C16.8171387,13.4693848 17.3238281,12.9626953 17.3238281,12.3376465 C17.3238281,11.7125977 16.8171387,11.2059082 16.1920898,11.2059082 Z" id="Path" fill="#DCF6FB" fill-rule="nonzero"></path>
        </g>
    </g>
</svg>