<svg xmlns="http://www.w3.org/2000/svg" width="80" height="80" viewBox="0 0 80 80">
  <g fill="none" fill-rule="evenodd" transform="translate(4 4)">
    <path fill="#EBECEE" d="M12,46 C11.4473151,46 11,45.5226678 11,44.932895 L11,10.0671049 C11,9.47787274 11.4478218,9 12,9 C12.5521782,9 13,9.47787274 13,10.0671049 L13,44.932895 C13,45.5226678 12.5521782,46 12,46 Z"/>
    <path fill="#13A0BF" d="M19,45 L19,38 L7.44900979,38 C6.10222659,38 5,39.0359374 5,40.3023831 L5,45 L19,45 Z"/>
    <path fill="#0F8099" d="M10,38 L7.23819521,38 C6.00734521,38 5,39.0359374 5,40.3023831 L5,45 L7.76232955,45 L7.76232955,40.3023831 C7.76232955,39.0359374 8.76915,38 10,38 Z"/>
    <path fill="#13A0BF" d="M27,60 L33,60 L33,51.9343656 C33,50.8703449 32.1884812,50 31.1963771,50 L27,50 L27,60 Z"/>
    <polygon fill="#00667F" points="27 50 31 50 31 60 27 60"/>
    <path fill="#13A0BF" d="M23,45 L23,33.3098827 C23,32.5864168 22.4422517,32 21.7541545,32 L19.2458455,32 C18.5577483,32 18,32.5864168 18,33.3098827 L18,45 L23,45 Z"/>
    <path fill="#00667F" d="M22,32.0060062 C21.9618587,32.00273 21.922643,32 21.8834274,32 L19.2887456,32 C18.5769541,32 18,32.5864168 18,33.3098827 L18,45 L20.827827,45 L20.827827,33.3098827 C20.827827,32.6268218 21.3430029,32.0660674 22,32.0060062 Z"/>
    <path fill="#13A0BF" d="M25.4272593,44 C26.2958286,44 27,44.7573302 27,45.6914691 L27,45.6914691 L27,59.9964639 C26.8283834,59.4669978 26.6285391,58.9517646 26.4024043,58.4528563 C26.6284116,58.9734038 26.8281711,59.5101139 27,60.0614753 L27,60.0614753 L21.9849405,60.0614753 C20.4576041,57.1094139 17.6061322,55.1223299 14.3377101,55.1223299 C9.4603385,55.1223299 5.50625292,59.5448335 5.50625292,65 L5.50625292,65 L2.34775922,65 C1.55050187,65 0.920912789,64.228142 1.00807819,63.3420268 C1.15408993,61.856014 1.49421556,60.4353167 1.99947831,59.1123444 L2,45.6914691 C2,44.7573302 2.70417143,44 3.57274069,44 L3.57274069,44 Z"/>
    <path fill="#0F8099" d="M5.23580029,45.5857522 C5.23580029,44.709997 6.02569467,44 7,44 L3.76419971,44 C2.78989438,44 2,44.709997 2,45.5857522 L2,59 C2.69707408,57.2009724 3.81030252,55.5776485 5.23580029,54.2228526 L5.23580029,45.5857522 Z"/>
    <path fill="#D1D0CF" d="M51.1612675,47.779482 L40.4721607,40.0571808 C39.9577212,39.6851677 39.8465226,38.9728634 40.2234271,38.4653106 C40.6009171,37.9583345 41.3237075,37.8487493 41.8387324,38.2201857 L52.5278392,45.9430636 C53.0422788,46.3150767 53.1534775,47.027381 52.7765728,47.5343569 C52.3996684,48.0407563 51.6768778,48.1520719 51.1612675,47.779482 L51.1612675,47.779482 Z"/>
    <path fill="#EBECEE" d="M56.6528303,37.1806367 L49.0351968,9.33746835 C48.877137,8.75958708 49.2662536,8.17515153 49.9051284,8.03204666 C50.5434002,7.88839563 51.1889111,8.24124188 51.3469709,8.81912301 L58.9646044,36.6622913 C59.1232673,37.2407188 58.7335476,37.8251544 58.0952759,37.9682592 C57.4533845,38.111364 56.8102867,37.7568793 56.6528303,37.1806367 L56.6528303,37.1806367 Z"/>
    <path fill="#13A0BF" d="M69,57 L69,48.0156254 C69,41.3798517 63.6774766,36 57.111744,36 L51.3323982,36 C50.5965881,36 50,36.6029523 50,37.3471614 L50,52.4940718 C52.1242235,50.9990578 54.7047256,50.120737 57.4902539,50.120737 C62.4494947,50.120737 66.76429,52.8997042 69,57 Z"/>
    <path fill="#0F8099" d="M52.7292288,37.4701588 C52.7292288,36.6580026 53.297991,36 54,36 L51.2702527,36 C50.5687621,36 50,36.6580026 50,37.4701588 L50,54 C50.8399221,53.3228032 51.7560596,52.7637708 52.7292288,52.3390983 L52.7292288,37.4701588 Z"/>
    <path fill="#EBECEE" d="M38.4348134,41.7578861 C37.9453887,41.3666259 37.8556796,40.6392455 38.2343878,40.1330122 L40.9926544,36.4497692 C41.3713626,35.9435361 42.0754076,35.8508537 42.5648325,36.2421139 C43.0542573,36.6333742 43.1445341,37.3607546 42.765826,37.8664012 L40.0075593,41.5502307 C39.6288511,42.056464 38.9242382,42.1491463 38.4348134,41.7578861 L38.4348134,41.7578861 Z"/>
    <path fill="#0F8099" d="M60,5 L4,5 L4,2.12327149 C4,1.879277 4.05674764,1.6456652 4.15576638,1.42857143 L4.15576638,1.42857143 L4.21562078,1.42808749 C4.60272412,0.588328793 5.4691365,1.0658141e-14 6.46967703,1.0658141e-14 L6.46967703,1.0658141e-14 L57.5303228,1.0658141e-14 C58.5308635,1.0658141e-14 59.3972759,0.588328793 59.7843792,1.42808749 L59.8442336,1.42857143 C59.9432524,1.6456652 60,1.879277 60,2.12327149 L60,2.12327149 L60,5 Z"/>
    <path fill="#13A0BF" d="M70.991928,62.4525583 C70.2540762,55.449081 64.5672315,50 57.6617377,50 C51.8027831,50 46.8254755,53.9236629 45,59.3907103 L50.0150609,59.3907103 C51.5423975,56.6354529 54.3933149,54.7808413 57.6617377,54.7808413 C62.5391106,54.7808413 66.4931971,58.9085113 66.4931971,64 L69.6516915,64 C70.4489491,64 71.0790933,63.2795992 70.991928,62.4525583 L70.991928,62.4525583 Z"/>
    <path fill="#0F8099" d="M59 50.0794298C58.5293654 50.0288837 58.0526688 50 57.5688081 50 51.7531097 50 46.8119981 53.7604148 45 59L47.8662415 59C49.5272398 54.1975561 53.8175091 50.6398815 59 50.0794298L59 50.0794298zM2.97561276 63.3419487C3.66966263 56.3744078 8.68605771 50.8469495 15 50.09058 7.44531695 49.1814463.816408713 55.2243288.00818362047 63.3419487-.0801194098 64.2281057.557686691 65 1.36534935 65L4.33334086 65C3.5256782 65 2.88787225 64.2281057 2.97561276 63.3419487z"/>
    <path fill="#13A0BF" d="M51.1461863,66 C50.3023809,63.7213612 50.5569612,61.1728838 52,59 L21,59 C22.4417877,61.1717934 22.697619,63.720271 21.8538135,66 L51.1461863,66 Z"/>
    <path fill="#13A0BF" d="M24.6229547 59L21 59C22.4878955 61.1717934 22.7511485 63.7197259 21.8807361 66L25.5036908 66C26.3728128 63.7240869 26.1134313 61.1756094 24.6229547 59L24.6229547 59zM62.5464491 4L3.45355109 4C2.10395416 4 1 5.09064351 1 6.42327361L1 8.57672639C1 9.90935649 2.10395416 11 3.45355109 11L62.5464491 11C63.896046 11 65 9.90935649 65 8.57672639L65 6.42327361C65 5.09064351 63.896046 4 62.5464491 4z"/>
    <path fill="#0F8099" d="M62.5464491,8.00670995 L3.45355109,8.00670995 C2.24892364,8.00670995 1.24161595,7.13613106 1.0391189,6 C1.01495724,6.13647219 1,6.27578766 1,6.41851472 L1,8.57477533 C1,9.90879107 2.10395416,11 3.45355109,11 L62.5464491,11 C63.896046,11 65,9.90879107 65,8.57477533 L65,6.41908346 C65,6.27578766 64.9850429,6.13647219 64.9608813,6 C64.7583842,7.13613106 63.7510764,8.00670995 62.5464491,8.00670995 Z"/>
    <path fill="#525468" d="M14,54 C9.03747677,54 5,58.0374767 5,63 C5,67.9625231 9.03747677,72 14,72 C18.9630798,72 23,67.9625231 23,63 C23,58.0374767 18.9630798,54 14,54 Z"/>
    <path fill="#E4E3E1" d="M19,63 C19,65.7618509 16.7613629,68 13.9996857,68 C11.2386371,68 9,65.7618509 9,63 C9,60.2381491 11.2386371,58 13.9996857,58 C16.7613629,58 19,60.2381491 19,63 L19,63 Z"/>
    <path fill="#525468" d="M58,54 C53.0374769,54 49,58.0374767 49,63 C49,67.9625231 53.0374769,72 58,72 C62.9625233,72 67,67.9625231 67,63 C67,58.0374767 62.9625233,54 58,54 Z"/>
    <path fill="#E4E3E1" d="M63,63 C63,65.7618509 60.761363,68 58.0003144,68 C55.238637,68 53,65.7618509 53,63 C53,60.2381491 55.238637,58 58.0003144,58 C60.761363,58 63,60.2381491 63,63 L63,63 Z"/>
  </g>
</svg>
