<svg xmlns="http://www.w3.org/2000/svg" width="80" height="80" viewBox="0 0 80 80">
  <g fill="none" fill-rule="evenodd" transform="translate(1.667 3.333)">
    <g transform="translate(3.333)">
      <path fill="#13A0BF" d="M58.7412435,1.98007367 L64.7412435,1.98007367 C65.2935283,1.98007367 65.7412435,2.42778892 65.7412435,2.98007367 L65.7412435,29.313407 C65.7412435,29.8656918 65.2935283,30.313407 64.7412435,30.313407 L58.7412435,30.313407 C58.1889588,30.313407 57.7412435,29.8656918 57.7412435,29.313407 L57.7412435,2.98007367 C57.7412435,2.42778892 58.1889588,1.98007367 58.7412435,1.98007367 Z" transform="rotate(19 61.741 16.147)"/>
      <path fill="#0F8099" d="M63.4439458,26.2402318 L51.2307922,69.4390476 C50.8655508,70.7309329 49.6864711,71.62288 48.3439478,71.62288 L4,71.62288 C1.790861,71.62288 -4.54720297e-12,69.832019 -4.54747351e-12,67.62288 L-4.54747351e-12,44 C-4.52287505e-12,41.790861 1.790861,40 4,40 L45.0027558,40 C46.2223602,40 47.3205812,39.2616632 47.7808834,38.1322577 L53.9942821,22.8869531 C54.1963283,22.3912091 54.75295,22.1425121 55.2570282,22.3227617 L62.8183679,25.0265652 C63.3136142,25.2036567 63.5870354,25.7341135 63.4439458,26.2402318 Z"/>
      <path fill="#EBECEE" d="M1.5 15.1351351L31.8333333 15.1351351C32.6617605 15.1351351 33.3333333 15.806708 33.3333333 16.6351351L33.3333333 16.9684685C33.3333333 17.7968956 32.6617605 18.4684685 31.8333333 18.4684685L1.5 18.4684685C.671572875 18.4684685 1.01453063e-16 17.7968956 0 16.9684685L0 16.6351351C-1.01453063e-16 15.806708.671572875 15.1351351 1.5 15.1351351zM1.5 7.5L31.8333333 7.5C32.6617605 7.5 33.3333333 8.17157288 33.3333333 9L33.3333333 9.33333333C33.3333333 10.1617605 32.6617605 10.8333333 31.8333333 10.8333333L1.5 10.8333333C.671572875 10.8333333 3.23497668e-16 10.1617605 0 9.33333333L0 9C1.20591542e-16 8.17157288.671572875 7.5 1.5 7.5zM1.5 0L31.8333333 0C32.6617605-1.52179594e-16 33.3333333.671572875 33.3333333 1.5L33.3333333 1.83333333C33.3333333 2.66176046 32.6617605 3.33333333 31.8333333 3.33333333L1.5 3.33333333C.671572875 3.33333333 1.01453063e-16 2.66176046 0 1.83333333L0 1.5C-1.01453063e-16.671572875.671572875 1.52179594e-16 1.5 0z" transform="translate(10 46.667)"/>
    </g>
    <path fill="#D1D0CF" fill-rule="nonzero" d="M73.42397,61.711985 C73.42397,67.2599632 68.92663,71.7573033 63.3786517,71.7573033 C57.8306733,71.7573033 53.3333333,67.2599632 53.3333333,61.711985 C53.3333333,56.1640067 57.8306733,51.6666667 63.3786517,51.6666667 C68.92663,51.6666667 73.42397,56.1640067 73.42397,61.711985 Z"/>
    <path fill="#BCBBB9" fill-rule="nonzero" d="M73.42397,61.711985 C73.42397,67.2599632 68.92663,71.7573033 63.3786517,71.7573033 C60.2214564,71.7573033 57.404502,70.300875 55.5629789,68.0232086 C56.455962,68.2843139 57.4009941,68.42397 58.3786517,68.42397 C63.92663,68.42397 68.42397,63.9266299 68.42397,58.3786517 C68.42397,55.987473 67.5885396,53.791462 66.1936321,52.0665718 C70.3712399,53.2833564 73.42397,57.1410916 73.42397,61.711985 Z"/>
  </g>
</svg>
