<?xml version="1.0" encoding="UTF-8"?>
<svg width="80px" height="80px" viewBox="0 0 80 80" version="1.1" xmlns="http://www.w3.org/2000/svg" xmlns:xlink="http://www.w3.org/1999/xlink">
    <title>contents/product/vacation/Last-call</title>
    <g id="contents/product/vacation/Last-call" stroke="none" stroke-width="1" fill="none" fill-rule="evenodd">
        <g id="Megaphone" transform="translate(3.333333, 23.333333)" fill-rule="nonzero">
            <path d="M29.3527724,51.7904204 L29.3527724,51.7904204 C28.0115948,53.1288308 25.8370998,53.1288308 24.4960333,51.7904204 L12.3539633,39.6734031 L17.2107024,34.826574 L29.3527724,46.9435913 C30.6940611,48.2820017 30.6940611,50.4520101 29.3527724,51.7904204 Z" id="Path" fill="#937352"></path>
            <path d="M14.7860627,27.559997 L22.3142639,35.0726653 L22.1685417,39.7740729 L13.6690816,48.2559961 C11.653536,50.2673831 8.35083339,50.2190201 6.33528779,48.2074114 L1.47843756,43.3605823 C-0.512876594,41.3733768 -0.48864514,38.1502548 1.52712277,36.1388679 L10.0265829,27.6569447 L14.7860627,27.559997 Z" id="Path" fill="#13A0BF"></path>
            <path d="M18.5259318,31.2922607 L22.3142639,35.0727763 L22.1685417,39.7741838 L13.6690816,48.256107 C11.653536,50.267494 8.35083339,50.2191311 6.33528779,48.2075223 L3.95538116,45.8325261 L18.5259318,31.2922607 Z" id="Path" fill="#0F8099"></path>
            <path d="M27.025392,5.84638015 L44.0243122,22.8102265 C44.5100528,23.2949649 45.1170618,28.4082337 45.7484134,28.5052923 L40.964591,29.4989505 C33.8735563,30.90447 27.1468827,34.8062256 22.5814768,39.3622117 L22.1686529,39.7741838 L10.0263606,27.6570556 L10.4391845,27.2450835 C15.2475718,22.4466173 18.7929224,16.0972102 20.2499219,8.8271329 L21.2455234,3.85917467 L27.025392,5.84638015 Z" id="Path" fill="#EBECEE"></path>
            <path d="M35.5248521,14.3283033 L44.0243122,22.8102265 C44.5100528,23.2949649 45.1170618,28.4082337 45.7484134,28.5052923 L40.964591,29.4989505 C33.8735563,30.90447 27.1468827,34.8062256 22.5814768,39.3622117 L22.1686529,39.7741838 L16.0975623,33.7156197 L35.5248521,14.3283033 Z" id="Path" fill="#C7C6C8"></path>
            <path d="M27.025392,0.999661969 L48.8811624,22.8103375 C50.2167823,24.1432016 50.2167823,26.3243024 48.8811624,27.6571666 C48.7354402,27.8025881 48.541144,27.8994248 48.3467366,27.9963725 C47.5696628,28.5296956 46.646978,28.7234801 45.7483023,28.5052923 C45.1170618,28.4084556 44.5099416,28.1419049 44.024201,27.6571666 L22.1684306,5.84638015 C21.6097733,5.28887556 21.3427827,4.5861713 21.2455234,3.85917467 C21.1484865,3.13217803 21.2943198,2.40495955 21.6584585,1.75084006 C21.8284122,1.48417849 21.9497917,1.21773877 22.1684306,0.999551045 C23.5040505,-0.333202168 25.689772,-0.333202168 27.025392,0.999661969 Z" id="Path" fill="#13A0BF"></path>
            <path d="M37.9532216,11.9049443 L48.8810513,22.8102265 C50.2166712,24.1430907 50.2166712,26.3241915 48.8810513,27.6570556 C48.7353291,27.8024771 48.5410328,27.8993139 48.3466254,27.9962616 C47.5695516,28.5295847 46.6468668,28.7233691 45.7481911,28.5051814 C45.1169506,28.4083446 44.5098305,28.141794 44.0240899,27.6570556 L33.0962602,16.7517734 L37.9532216,11.9049443 Z" id="Path" fill="#0F8099"></path>
        </g>
        <g id="Group" transform="translate(20.000000, 6.666667)" fill="#00837A" fill-rule="nonzero">
            <path d="M2.19429878,8.3727579 C1.02498476,8.3741113 0.0751829268,7.43614255 0.0751829268,6.28004153 L0.0738109161,2.09298588 C0.0735365854,0.936613891 1.02196646,-1.46593355e-06 2.19292683,-1.46593355e-06 C3.36224085,-0.0013548588 4.31204268,0.936613891 4.31204268,2.09271491 L4.31341463,6.27977056 C4.31355183,7.43614255 3.36525915,8.3727579 2.19429878,8.3727579 Z" id="Path"></path>
            <path d="M46.358996,46.6867847 L42.119118,46.6854298 C40.9482948,46.6854298 39.9983558,45.7474611 40,44.5927149 C40,43.4364784 40.948432,42.5 42.119118,42.5 L46.358996,42.5013549 C47.5298192,42.5013549 48.4797582,43.4393236 48.478114,44.5940698 C48.478114,45.7501708 47.5298192,46.6867847 46.358996,46.6867847 Z" id="Path"></path>
            <path d="M46.4527974,28.3841307 C47.0489235,29.401865 46.7119634,30.6599472 45.6867034,31.2432325 L40.1947217,34.3682948 C39.1694267,34.9517109 37.895544,34.6102348 37.2995505,33.592536 C36.703327,32.5746352 37.0403845,31.3167194 38.0656445,30.7334341 L43.5576262,27.6083719 C44.5827887,27.0249202 45.856574,27.36623 46.4527974,28.3841307 Z" id="Path"></path>
        </g>
        <path d="M76.6666667,5.94202899 L76.6666667,24.2028986 C76.6622736,25.6418575 75.4709358,26.8072966 74,26.8115942 L55.3333333,26.8115942 L48.6666667,33.3333333 L48.6666667,26.8115942 L39.3333333,26.8115942 C37.8623975,26.8072966 36.6710597,25.6418575 36.6666667,24.2028986 L36.6666667,5.94202899 C36.6710597,4.50307003 37.8623975,3.3376309 39.3333333,3.33333333 L74,3.33333333 C75.4709358,3.3376309 76.6622736,4.50307003 76.6666667,5.94202899 L76.6666667,5.94202899 Z" id="Path" fill="#00AFA3" fill-rule="nonzero"></path>
        <g id="%" transform="translate(49.166667, 6.666667)" fill="#DCF6FB" fill-rule="nonzero">
            <path d="M2.79310345,7.38916256 C1.25051506,7.38916256 0,6.14857223 0,4.6182266 L0,2.77093596 C0,1.24059033 1.25051506,2.69625592e-14 2.79310345,2.69625592e-14 C4.33569184,2.69625592e-14 5.5862069,1.24059033 5.5862069,2.77093596 L5.5862069,4.6182266 C5.5862069,6.14857223 4.33569184,7.38916256 2.79310345,7.38916256 Z M2.79310345,1.84729064 C2.27890735,1.84729064 1.86206897,2.26082078 1.86206897,2.77093596 L1.86206897,4.6182266 C1.86206897,5.12834178 2.27890735,5.54187192 2.79310345,5.54187192 C3.30729955,5.54187192 3.72413793,5.12834178 3.72413793,4.6182266 L3.72413793,2.77093596 C3.72413793,2.26082078 3.30729955,1.84729064 2.79310345,1.84729064 Z" id="Shape"></path>
            <path d="M12.1034483,16.6256158 C10.5608599,16.6256158 9.31034483,15.3850254 9.31034483,13.8546798 L9.31034483,12.0073892 C9.31034483,10.4770435 10.5608599,9.2364532 12.1034483,9.2364532 C13.6460367,9.2364532 14.8965517,10.4770435 14.8965517,12.0073892 L14.8965517,13.8546798 C14.8965517,15.3850254 13.6460367,16.6256158 12.1034483,16.6256158 Z M12.1034483,11.0837438 C11.5892522,11.0837438 11.1724138,11.497274 11.1724138,12.0073892 L11.1724138,13.8546798 C11.1724138,14.364795 11.5892522,14.7783251 12.1034483,14.7783251 C12.6176444,14.7783251 13.0344828,14.364795 13.0344828,13.8546798 L13.0344828,12.0073892 C13.0344828,11.497274 12.6176444,11.0837438 12.1034483,11.0837438 Z" id="Shape"></path>
            <path d="M0.931034483,15.7019704 C0.554527955,15.7019704 0.215130321,15.4768527 0.0710584138,15.1317623 C-0.0730134931,14.7866717 0.00660298966,14.3894652 0.272793103,14.1253079 L13.3072759,1.1942734 C13.6725941,0.8442375 14.2532858,0.849243473 14.6124173,1.20552469 C14.9715488,1.56180591 14.9765948,2.13788895 14.6237586,2.50030788 L1.58927586,15.4313424 C1.41471369,15.6045715 1.17793999,15.7019704 0.931034483,15.7019704 Z" id="Shape"></path>
        </g>
    </g>
</svg>