<svg xmlns="http://www.w3.org/2000/svg" width="80" height="80" viewBox="0 0 80 80">
  <g fill="none" fill-rule="evenodd" transform="translate(3.333 10)">
    <path fill="#0F8099" fill-rule="nonzero" d="M15.9652778,11.9930556 L6.1875,11.9930556 L6.1875,5.27083333 C6.1875,4.25808381 7.00808381,3.4375 8.02083333,3.4375 L14.1319444,3.4375 C15.144694,3.4375 15.9652778,4.25808381 15.9652778,5.27083333 L15.9652778,11.9930556 Z"/>
    <path fill="#005B76" fill-rule="nonzero" d="M55,10 L18.3333333,10 L22.6015626,2.35002786 C23.417346,0.887974286 24.8477694,0 26.3871716,0 L46.9461617,0 C48.484941,0 49.9159873,0.887974286 50.7311481,2.35002786 L55,10 Z"/>
    <rect width="73.333" height="56.667" y="8.333" fill="#13A0BF" rx="2"/>
    <polygon fill="#005B76" fill-rule="nonzero" points="0 21.667 73.333 21.667 73.333 60 0 60"/>
    <path fill="#525468" fill-rule="nonzero" d="M56.6666667,35 C56.6666667,46.0454545 47.7121212,55 36.6666667,55 C25.6212121,55 16.6666667,46.0454545 16.6666667,35 C16.6666667,23.9545455 25.6212121,15 36.6666667,15 C47.7121212,15 56.6666667,23.9545455 56.6666667,35 Z"/>
    <path fill="#E4E3E1" fill-rule="nonzero" d="M51.6666667,35 C51.6666667,43.2844239 44.9510905,50 36.6666667,50 C28.3822428,50 21.6666667,43.2844239 21.6666667,35 C21.6666667,26.7155761 28.3822428,20 36.6666667,20 C44.9510905,20 51.6666667,26.7155761 51.6666667,35 Z"/>
    <path fill="#525468" fill-rule="nonzero" d="M47.5,35 C47.5,40.9833272 42.6499939,45.8333333 36.6666667,45.8333333 C30.6833395,45.8333333 25.8333333,40.9833272 25.8333333,35 C25.8333333,29.0166728 30.6833395,24.1666667 36.6666667,24.1666667 C42.6499939,24.1666667 47.5,29.0166728 47.5,35 Z"/>
    <path fill="#FFF" fill-rule="nonzero" d="M39.6403421,37.2286582 C40.1539804,36.5749678 40.4238666,35.7946941 40.4238666,34.9635525 C40.4238666,32.93753 38.7741015,31.2878707 36.7481849,31.2878707 C36.3992232,31.2878707 36.0540809,31.3367831 35.7247895,31.4326133 C34.9410095,31.6617776 34.1202416,31.2107572 33.8923464,30.4270673 C33.6642052,29.6434936 34.1152795,28.8229256 34.8983701,28.5958874 C35.4973969,28.4216512 36.1200919,28.3333333 36.7481849,28.3333333 C40.4052434,28.3333333 43.3788233,31.3069132 43.3788233,34.9639718 C43.3788233,36.4602491 42.8885959,37.877807 41.9636337,39.054857 C41.6802507,39.414931 41.251462,39.6189806 40.8021887,39.6189806 C40.4736977,39.6189806 40.1524663,39.5099486 39.8890738,39.3027166 C39.2476781,38.7985435 39.1361787,37.8694459 39.6403421,37.2286582 Z"/>
    <path fill="#EBECEE" fill-rule="nonzero" d="M66.7638889,18.2951389 L57.5972222,18.2951389 C56.7533636,18.2951389 56.0694444,17.6112197 56.0694444,16.7673611 L56.0694444,13.7118056 C56.0694444,12.867947 56.7533636,12.1840278 57.5972222,12.1840278 L66.7638889,12.1840278 C67.6077475,12.1840278 68.2916667,12.867947 68.2916667,13.7118056 L68.2916667,16.7673611 C68.2916667,17.6112197 67.6077475,18.2951389 66.7638889,18.2951389 Z"/>
  </g>
</svg>
