<svg xmlns="http://www.w3.org/2000/svg" width="80" height="80" viewBox="0 0 80 80">
  <g fill="none" fill-rule="evenodd" transform="translate(1 7)">
    <g fill="#8DDFF8" transform="translate(0 11.989)">
      <rect width="17.075" height="52.986" x=".201" y=".164"/>
      <rect width="17.075" height="52.986" x="60.446" y=".164"/>
    </g>
    <path fill="#009E92" d="M0.393505779,13.1874242 L0.393505779,13.1874242 L77.5206384,13.1874242 L77.5206384,13.1874242 C77.5206384,11.2256586 75.9138232,9.59085399 73.9856448,9.59085399 L3.92849936,9.59085399 C2.00032104,9.59085399 0.393505779,11.2256586 0.393505779,13.1874242 Z"/>
    <rect width="43.286" height="61.541" x="17.314" y="3.597" fill="#C2F1FF"/>
    <path fill="#009E92" d="M62.762942,1.36581779e-13 L14.7576964,1.36581779e-13 C13.7911478,1.36581779e-13 12.9856907,0.817402329 12.9856907,1.79828512 C12.9856907,2.77916792 13.7911478,3.59657025 14.7576964,3.59657025 L62.762942,3.59657025 C63.7294906,3.59657025 64.5349477,2.77916792 64.5349477,1.79828512 C64.5349477,0.817402329 63.7294906,1.36581779e-13 62.762942,1.36581779e-13 Z"/>
    <g fill="#00667F" transform="translate(5.116 17.184)">
      <rect width="7.407" height="8.286" y=".213"/>
      <rect width="7.407" height="8.286" y="11.749"/>
      <rect width="7.407" height="8.286" y="23.285"/>
      <rect width="7.407" height="8.286" y="34.822"/>
      <rect width="7.407" height="8.286" x="60.225" y=".213"/>
      <rect width="7.407" height="8.286" x="60.225" y="11.749"/>
      <rect width="7.407" height="8.286" x="60.225" y="23.285"/>
      <rect width="7.407" height="8.286" x="60.225" y="34.822"/>
    </g>
    <rect width="7.87" height="8.392" x="22.036" y="31.97" fill="#00667F"/>
    <rect width="17.314" height="20.381" x="29.906" y="44.757" fill="#009E92"/>
    <rect width="77.127" height="3.597" x=".394" y="62.365" fill="#009E92"/>
    <g fill="#00667F" transform="translate(21.643 8.392)">
      <rect width="8.082" height="8.348" x=".212" y=".235"/>
      <rect width="8.082" height="8.348" x=".212" y="11.857"/>
      <rect width="8.082" height="8.348" x="12.981" y=".235"/>
      <rect width="8.082" height="8.348" x="12.981" y="11.857"/>
      <rect width="8.082" height="8.348" x="12.981" y="23.478"/>
      <rect width="8.082" height="8.348" x="25.75" y=".235"/>
      <rect width="8.082" height="8.348" x="25.75" y="11.857"/>
      <rect width="8.082" height="8.348" x="25.75" y="23.478"/>
    </g>
  </g>
</svg>
