<svg xmlns="http://www.w3.org/2000/svg" width="80" height="80" viewBox="0 0 80 80">
  <g fill="none" fill-rule="evenodd" transform="translate(5 5)">
    <rect width="6.667" height="5" x="5" y="31.667" fill="#D1D0CF" fill-rule="nonzero"/>
    <g fill-rule="nonzero" transform="translate(10 15)">
      <path fill="#13A0BF" d="M60,19.8275862 L60,13.4378161 C60,6.01701149 54.3100554,0 47.2926237,0 L42.2939224,0 L17.6929119,0 L12.7079604,0 C5.6905287,0 0,6.01701149 0,13.4378161 L0,15.7444253 C0,15.7840805 -0.00691583316,15.821092 0.0318337896,16.4397126 L0.0318337896,26.8875287 C0.0318337896,27.4609869 0.114332986,30.7697701 2.62305856,33.7016092 C5.25303296,36.7748851 9.41174248,38.3333333 15.0804373,38.3333333 C15.0816873,38.3333333 15.0841873,38.3333333 15.0854372,38.3333333 C20.3916356,38.228908 25.9728313,36.2435057 28.9878019,32.1801724 C29.5102968,31.476954 30.4752874,31.476954 30.9965323,32.1801724 C34.012753,36.2421839 39.5939487,38.228908 44.900147,38.3333333 C44.9301467,38.3333333 44.9626464,38.3333333 44.9926461,38.3333333 C50.5700918,38.3333333 54.7325513,36.7748851 57.3625257,33.702931 C59.8712513,30.771092 60,27.4609869 59.9925001,26.3112069 L59.9925001,19.8275862 L60,19.8275862 Z"/>
      <path fill="#8DDFF8" d="M55.8333333,19.6551724 L55.8333333,14.9322989 C55.8333333,9.44735632 50.9336588,5 44.8908704,5 L40.5864332,5 L31.1056666,5 L28.7571818,5 L19.4022297,5 L15.1096326,5 C9.06684416,5 4.16666667,9.44735632 4.16666667,14.9322989 L4.16666667,16.6371839 C4.16666667,16.6664943 4.16071137,16.6938506 4.1940791,17.151092 L4.1940791,24.8733908 C4.1241145,25.3589655 4.26512007,27.7428736 6.42541154,29.9098851 C8.69011172,32.1814368 12.2712227,33.3333333 17.1525988,33.3333333 C21.7261306,33.2561494 26.5321602,30.0539843 29.128385,27.050651 C29.5783111,26.5308808 30.4092753,26.5308808 30.8581251,27.050651 C33.4554262,30.0530073 38.2614558,33.2561494 42.8306821,33.3333333 C42.8565152,33.3333333 42.8845011,33.3333333 42.9103341,33.3333333 C47.7131346,33.3333333 51.2974747,32.1814368 53.5621749,29.9108621 C55.7224664,27.7438506 55.8645483,25.3599425 55.8268751,24.4474138 L55.8268751,19.6551724 L55.8333333,19.6551724 Z"/>
    </g>
    <path fill="#005B76" fill-rule="nonzero" d="M1.66666667,5.83333333 L6.66666667,5.83333333 L6.66666667,55.8333333 C6.66666667,59.975469 10.024531,63.3333333 14.1666667,63.3333333 L35.3036102,63.3333333 L35.3036102,68.3333333 L14.1666667,68.3333333 C7.26310729,68.3333333 1.66666667,62.7368927 1.66666667,55.8333333 L1.66666667,5.83333333 Z"/>
    <rect width="8.333" height="13.333" fill="#00837A" rx="1"/>
    <rect width="23.333" height="8.333" x="28.333" y="61.667" fill="#00837A" rx="1"/>
  </g>
</svg>
