<svg xmlns="http://www.w3.org/2000/svg" width="80" height="80" viewBox="0 0 80 80">
  <g fill="none" fill-rule="evenodd">
    <g fill-rule="nonzero" transform="translate(3.333 3.333)">
      <path fill="#0F8099" d="M15.4678703,32.8914939 C5.15768817,51.2583909 -10.5180565,23.3332992 10.1023077,23.3332992 C-10.5180565,23.3332992 5.15759955,-4.59179261 15.4678703,13.7751044 C5.15768817,-4.59170146 36.5090003,-4.59170146 26.1988182,13.7751044 C36.5090003,-4.59179261 52.184745,23.3332992 31.5643808,23.3332992 C52.184745,23.3332992 36.5090003,51.2583909 26.1988182,32.8914939 C36.5090003,51.2583909 5.15768817,51.2583909 15.4678703,32.8914939 Z"/>
      <path fill="#0F8099" d="M31.5520659,22.808451 L21.0912029,22.6669744 L21.0964334,22.658238 L21.0880114,22.6584162 L26.1846225,13.4730429 C36.4985889,-4.49101429 5.13576943,-4.49101429 15.4497358,13.4730429 L20.5471448,22.6597535 L20.5373044,22.6596643 L20.5425349,22.6684007 L10.0823811,22.8575711 C-10.5453743,22.9263928 5.2260173,50.1865442 15.4805868,32.1882545 L20.8131012,23.1391872 L20.8171792,23.1465864 L20.8219664,23.1379392 L26.19597,32.163739 C36.5314788,50.1151373 52.17991,22.7833115 31.5520659,22.808451 Z"/>
      <circle cx="20.833" cy="24.167" r="5.833" fill="#D1D0CF"/>
      <path fill="#BCBBB9" d="M17.6962147,24.1665712 C17.6962147,21.4557942 19.3822625,19.1775048 21.6666667,18.5228568 C21.2360624,18.3993707 20.784402,18.3333333 20.3185593,18.3333333 C17.3811575,18.3333333 15,20.9449589 15,24.1666667 C15,27.3883745 17.3811575,30 20.3185593,30 C20.784402,30 21.2360624,29.9338672 21.6666667,29.8104765 C19.3822625,29.1557331 17.6962147,26.8773483 17.6962147,24.1665712 Z"/>
    </g>
    <g fill-rule="nonzero" transform="translate(18.333 26.667)">
      <path fill="#C4AC8E" d="M44.3338739,46.665274 C41.2849687,46.7041041 38.2061994,45.930869 35.4743176,44.3525947 C34.3069821,43.6763626 33.2039162,42.8547595 32.194964,41.8870719 L29.1666633,38.9826244 L26.2313972,41.7978423 C19.9217543,47.8494298 9.53362146,47.6960856 3.02830068,41.4568231 L0,38.5523756 L2.9364509,35.7360213 C4.79693552,33.9516278 7.01435179,32.711415 9.37831706,32.0034688 C6.27121647,28.5701665 4.35256529,24.1291137 4.27499584,19.2988133 L4.20687153,15.043859 L8.64467164,15.108064 C11.6114792,15.1530872 14.4367241,15.8087788 16.9908931,16.9505092 C17.4529136,12.8296606 19.3030783,8.86050419 22.5567185,5.73993327 L28.5414173,0 L34.7131974,5.91936311 C38.0684857,9.13742492 40.0495901,13.162993 40.6439191,17.2995291 C43.1612664,16.2337644 45.9682171,15.6600017 48.9336918,15.7037466 L53.3701995,15.7691913 L53.4397677,20.0255304 C53.5021853,23.9178022 52.3579706,27.5271171 50.3384559,30.5310069 C49.8546065,31.2515836 49.3193522,31.9377328 48.7403771,32.5844285 C51.1309051,33.3624053 53.3877568,34.6699833 55.3063655,36.5101236 L58.3333333,39.4132928 L55.3980672,42.2285108 C52.3600444,45.1418567 48.3747554,46.6173723 44.3338739,46.665274 Z"/>
      <path fill="#928471" d="M32.5654926,34.3955274 L39.7760136,36.3528889 C40.6536278,36.5911252 41.1744431,37.5050201 40.9392871,38.3941303 C40.7041311,39.2832405 39.8020526,39.810878 38.9244383,39.5726416 L31.0912447,37.4462501 L31.0912447,45 C31.0912447,45.9204746 30.3547007,46.6666667 29.4461276,46.6666667 C28.5375545,46.6666667 27.8010105,45.9204746 27.8010105,45 L27.8010105,37.5252488 L20.2588321,39.5726416 C19.3812179,39.810878 18.4791394,39.2832405 18.2439834,38.3941303 C18.0088273,37.5050201 18.5296426,36.5911252 19.4072568,36.3528889 L26.03726,34.5531143 L17.4894999,29.553418 C16.7026525,29.0931807 16.4330587,28.0738634 16.8873453,27.276709 C17.3416318,26.4795546 18.3477697,26.2064294 19.1346171,26.6666667 L27.8010105,31.7357531 L27.8010105,21.6666667 C27.8010105,20.7461921 28.5375545,20 29.4461276,20 C30.3547007,20 31.0912447,20.7461921 31.0912447,21.6666667 L31.0912447,31.4088324 L39.1987163,26.6666667 C39.9855637,26.2064294 40.9917015,26.4795546 41.4459881,27.276709 C41.9002746,28.0738634 41.6306808,29.0931807 40.8438334,29.553418 L32.5654926,34.3955274 Z"/>
    </g>
  </g>
</svg>
