<svg xmlns="http://www.w3.org/2000/svg" width="80" height="80" viewBox="0 0 80 80">
  <g fill="none" transform="matrix(-1 0 0 1 76.667 3.333)">
    <g transform="translate(0 20)">
      <path fill="#525468" d="M55,51.6666667 L1.11388541,51.6666667 C0.561600659,51.6666667 0.113885409,51.2189514 0.113885409,50.6666667 C0.113885409,50.6307761 0.115817609,50.5949115 0.119673623,50.5592287 L5.39037391,1.785124 C5.50011108,0.769636138 6.35739755,1.96398496e-15 7.37879749,0 L47.6196061,0 C48.6409819,7.00554737e-16 49.4982562,0.769600751 49.6080229,1.78506109 L55,51.6666667 L55,51.6666667 Z"/>
      <path fill="#0F8099" d="M60,51.6666667 L6.11388541,51.6666667 C5.56160066,51.6666667 5.11388541,51.2189514 5.11388541,50.6666667 C5.11388541,50.6307761 5.11581761,50.5949115 5.11967362,50.5592287 L10.3903739,1.785124 C10.5001111,0.769636138 11.3573975,1.96398496e-15 12.3787975,0 L52.6196061,0 C53.6409819,-6.31712892e-16 54.4982562,0.769600751 54.6080229,1.78506109 L60,51.6666667 L60,51.6666667 Z"/>
      <g transform="translate(28.333 15)">
        <path fill="#525468" d="M5.72214096,0 L33.7130734,0 L33.7130734,0 L38.3333333,36.6666667 L0.918972252,36.6666667 C0.366687502,36.6666667 -0.0810277478,36.2189514 -0.0810277478,35.6666667 C-0.0810277478,35.6292226 -0.0789246649,35.5918081 -0.0747284351,35.5546 L3.73473959,1.77586661 C3.84880572,0.764436804 4.70429946,1.86974452e-16 5.72214096,0 Z"/>
        <path fill="#13A0BF" d="M10.6906515,0 L37.6421561,0 C38.6650009,-1.87893544e-16 39.5230116,0.771751659 39.6309821,1.78888187 L43.2159759,35.5611076 C43.2742745,36.1103068 42.8763211,36.602781 42.3271219,36.6610797 C42.2920587,36.6648017 42.2568231,36.6666667 42.2215628,36.6666667 L6.11175382,36.6666667 C5.55946907,36.6666667 5.11175382,36.2189514 5.11175382,35.6666667 C5.11175382,35.6314114 5.11361822,35.5961808 5.11733921,35.5611224 L8.70182226,1.78891152 C8.80977884,0.77176836 9.66779527,6.31984848e-16 10.6906515,0 Z"/>
      </g>
    </g>
    <path fill="#525468" d="M26.8824393 27.3333333C25.896764 27.3333333 25.0913364 26.5480001 25.0913364 25.5706668L25.0913364 14.6628063C25.0913364 9.0773143 20.4212507 4.52533298 14.6735423 4.52533298 8.9258337 4.52533298 4.25574818 9.07731427 4.25574818 14.6628063L4.25574818 25.5706668C4.25574818 26.5478621 3.44989727 27.3333333 2.46464522 27.3333333 1.47939307 27.3333333.673542266 26.5478621.673542266 25.5706668L.673542266 14.6628063C.673542266 7.12458781 6.95703662 1 14.6735423 1 22.3900478 1 28.6735423 7.12458784 28.6735423 14.6628063L28.6735423 25.5706668C28.6735423 26.5478621 27.8676915 27.3333333 26.8824393 27.3333333zM26.6735423 46.6669485L26.6735423 39.4467359C26.6735423 38.5558226 27.3955508 37.8333333 28.286419 37.8333333 29.1777243 37.8333333 29.8998592 38.5556963 29.8998592 39.4467359L29.8998592 46.6669485C29.8998592 49.7575728 32.4157267 52.273195 35.5068756 52.273195 38.5979031 52.273195 41.1133286 49.7576943 41.1133286 46.6669485L41.1133286 39.4467359C41.1133286 38.5558519 41.8358716 37.8333333 42.7267688 37.8333333 43.6180742 37.8333333 44.3402089 38.5556963 44.3402089 39.4467359L44.3402089 46.6669485C44.3402089 51.5381338 40.3782088 55.5 35.5068756 55.5 30.6355424 55.5 26.6735423 51.5381338 26.6735423 46.6669485z" transform="translate(17.826)"/>
  </g>
</svg>
