<svg xmlns="http://www.w3.org/2000/svg" width="80" height="80" viewBox="0 0 80 80">
  <g fill="none" fill-rule="evenodd" transform="translate(5 4.167)">
    <path fill="#13A0BF" d="M29.0266002,13.7979737 L45.8061735,12.8642811 C49.9514062,12.6336213 53.5458206,15.7020393 53.9684538,19.8321167 L54.2325751,22.4131752 C54.4855742,24.8855455 52.6864184,27.0948939 50.2140481,27.3478931 C50.1103732,27.3585022 50.0063611,27.3655065 49.9021998,27.3688935 L31.1364496,27.9790911 L31.1364496,27.9790911 L29.0266002,13.7979737 Z" transform="rotate(-46 41.875 20.216)"/>
    <circle cx="58.333" cy="10" r="6.667" fill="#C4AC8E"/>
    <path fill="#00837A" d="M58.1072065,0.947735768 L58.1781077,0.947735768 C61.2250388,0.947735768 64.0192777,2.64176744 65.4283912,5.3432833 L67.0945137,8.53753023 C67.3499287,9.02720524 67.1600235,9.63122004 66.6703485,9.88663505 C66.5275685,9.96110924 66.3689145,10 66.2078787,10 L51.0228766,10 C50.4705918,10 50.0228766,9.55228475 50.0228766,9 C50.0228766,8.87075348 50.0479314,8.7427325 50.0966545,8.62302152 L51.3783809,5.47386788 C52.492223,2.73719941 55.1525494,0.947735768 58.1072065,0.947735768 Z"/>
    <path fill="#D1D0CF" fill-rule="nonzero" d="M0.374608357,3.55278825 C-0.206830539,2.83920415 -0.0997056853,1.78938059 0.613878415,1.20794169 C1.32746251,0.626502794 2.37728608,0.733627648 2.95872498,1.44721175 L21.2920583,23.9472117 C21.8734972,24.6607958 21.7663724,25.7106194 21.0527883,26.2920583 C20.3392042,26.8734972 19.2893806,26.7663724 18.7079417,26.0527883 L0.374608357,3.55278825 Z"/>
    <path stroke="#0F8099" stroke-linecap="round" stroke-linejoin="round" stroke-width="5" d="M45.8333333,13.3368491 L31.8323884,13.3368491 C30.9818999,13.3368491 30.1713797,13.6978378 29.6024504,14.3300166 L20,25 L20,25"/>
    <path fill="#0F8099" fill-rule="nonzero" d="M23.3215976,30.5685953 L28.3333333,25 L28.3333333,25 L52.9066808,34.5563018 C54.9656087,35.356996 55.9856086,37.6751777 55.1849145,39.7341055 C55.0070952,40.191355 54.7466751,40.6119907 54.4166561,40.9750117 L42.827182,53.7234332 C42.1604047,54.4568882 42.1314596,55.5680803 42.7591475,56.3352544 L46.7100879,61.1641815 C47.0598155,61.5916263 46.9968132,62.221649 46.5693684,62.5713766 C46.287589,62.8019233 45.902776,62.8611104 45.5647399,62.725896 L29.6552097,56.3620839 C29.1424262,56.1569705 28.8930103,55.575 29.0981237,55.0622165 C29.1410815,54.9548219 29.2023458,54.8556943 29.2791911,54.7692434 L40.6847657,41.9379719 C41.0516837,41.5251891 41.014503,40.8931168 40.6017202,40.5261987 C40.5064893,40.4415491 40.3959587,40.3758785 40.2760759,40.3327206 L24.3330343,34.5932257 C23.0339398,34.1255517 22.3599404,32.6933029 22.8276144,31.3942085 C22.9372675,31.0896165 23.1050347,30.8092207 23.3215976,30.5685953 Z"/>
    <path stroke="#005B76" stroke-linecap="round" stroke-width="3" d="M0.833333333,48 L56.5925657,69.0266411 C60.4590538,70.4846823 64.7785787,70.1069726 68.3333333,68 L68.3333333,68 L68.3333333,68"/>
  </g>
</svg>
