<svg xmlns="http://www.w3.org/2000/svg" width="80" height="80" viewBox="0 0 80 80">
  <g fill="none" fill-rule="evenodd" transform="translate(3 1)">
    <g fill="#C3CACA" transform="translate(12.782 3.51)">
      <rect width="2.669" height="15.306" x=".042" y=".076"/>
      <rect width="2.669" height="15.306" x="10.718" y=".076"/>
    </g>
    <g fill="#00667F" transform="translate(12.782 4.213)">
      <rect width="2.669" height="4.132" x=".042" y=".075"/>
      <rect width="2.669" height="4.132" x="10.718" y=".075"/>
    </g>
    <path fill="#009E92" d="M11.496112 0L26.8243095 0C28.2357116 0 29.378985 1.19726434 29.378985 2.67531982L29.378985 2.67531982C29.378985 4.1533753 28.2357116 5.35063963 26.8243095 5.35063963L11.496112 5.35063963C10.0847098 5.35063963 8.9414365 4.1533753 8.9414365 2.67531982L8.9414365 2.67531982C8.9414365 1.19726434 10.0847098 0 11.496112 0zM5.10935094 17.3898061L33.2110705 17.3898061C36.0327172 17.3898061 38.3204215 19.785547 38.3204215 22.7404457L38.3204215 65.5460174C38.3204215 68.5009161 36.0327172 70.896657 33.2110705 70.896657L5.10935094 70.896657C2.28770429 70.896657 0 68.5009161 0 65.5460174L0 22.7404457C0 19.785547 2.28770429 17.3898061 5.10935094 17.3898061z"/>
    <ellipse cx="3.798" cy="3.732" fill="#009E92" rx="3.193" ry="3.328" transform="translate(.673 70.215)"/>
    <g fill="#005467" transform="translate(5.382 23.873)">
      <rect width="2.617" height="38.468" x="7.871" y=".135"/>
      <rect width="2.617" height="38.468" x=".02" y=".135"/>
      <rect width="2.617" height="38.468" x="15.722" y=".135"/>
      <rect width="2.617" height="38.468" x="23.573" y=".135"/>
    </g>
    <ellipse cx="33.973" cy="74.077" fill="#009E92" rx="3.027" ry="3.16"/>
    <path fill="#B0DFE9" d="M74.1636364,40.1428155 L74.1636364,65.8571845 C74.1636364,68.697312 71.8660356,71 69.0321826,71 L24.1314537,71 C21.2976008,71 19,68.697312 19,65.8571845 L19,40.1428155 C19,37.302688 21.2976008,35 24.1314537,35 L69.0321826,35 C71.8660356,35 74.1636364,37.302688 74.1636364,40.1428155 Z"/>
    <path fill="#00667F" d="M57,35 L57,29.5 C57,26.4626168 54.8929552,24 52.2941333,24 L41.7058667,24 C39.1070448,24 37,26.4626168 37,29.5 L37,35 L41.7058667,35 L41.7058667,29.5 L52.2941333,29.5 L52.2941333,35 L57,35 Z"/>
    <g fill="#B0DFE9" transform="translate(20.182 70.918)">
      <ellipse cx="3.225" cy="3.22" rx="3.19" ry="3.099"/>
      <ellipse cx="49.163" cy="3.22" rx="3.19" ry="3.099"/>
    </g>
    <polygon fill="#FCE6A4" points="11.436 36.122 0 41.427 0 33.469 8.895 29.49"/>
    <polygon fill="#FCE6A4" points="38.345 48.449 44.736 39.321 51.127 48.449"/>
    <g fill="#00667F" transform="translate(26 35)">
      <rect width="5" height="36"/>
      <rect width="5" height="36" x="37"/>
    </g>
    <ellipse cx="62.593" cy="57.458" fill="#FCE6A4" rx="6.405" ry="5.306" transform="rotate(-161.875 62.593 57.458)"/>
    <polygon fill="#FCE6A4" points="19 45 19 52.022 31.894 60.447 34.473 54.83"/>
  </g>
</svg>
