<svg xmlns="http://www.w3.org/2000/svg" width="80" height="80" viewBox="0 0 80 80">
  <g fill="none" fill-rule="evenodd">
    <path fill="#8DDFF8" d="M44.5207532,49.1764657 L49.3959105,44.3297224 L71.3511648,66.1671818 L66.486235,71.0037571 L44.5207532,49.1764657 Z M59.1564529,29.7555992 L68.9067677,20.0621126 C55.4404239,6.67425523 33.6215377,6.64036192 20.1551938,19.994326 C33.5533536,15.5881957 48.4856539,19.1469932 59.1564529,29.7555992 L59.1564529,29.7555992 Z M20.0529178,20.0960059 C6.620666,33.4838632 6.65475801,55.1755815 20.1211018,68.5634388 L29.8714166,58.8699522 C19.2006176,48.2613463 15.6209566,33.4160766 20.0529178,20.0960059 L20.0529178,20.0960059 Z"/>
    <path fill="#005B76" d="M20.1940245,20.2196097 C18.8879822,30.1669458 24.2152599,42.956378 34.9729239,53.3333333 L54.6666667,34.3970423 C43.9090027,24.0531346 30.5736236,18.9307522 20.2283941,20.186562 L20.1940245,20.2196097 Z"/>
  </g>
</svg>
