<svg xmlns="http://www.w3.org/2000/svg" xmlns:xlink="http://www.w3.org/1999/xlink" width="80" height="80" viewBox="0 0 80 80">
  <defs>
    <path id="beach-a" d="M2.04166667,0.384210442 L76.7083333,0.384210442 C77.2606181,0.384210442 77.7083333,0.831925692 77.7083333,1.38421044 L77.7083333,30.5667431 C77.7083333,31.1190278 77.2606181,31.5667431 76.7083333,31.5667431 L2.04166667,31.5667431 C1.48938192,31.5667431 1.04166667,31.1190278 1.04166667,30.5667431 L1.04166667,1.38421044 C1.04166667,0.831925692 1.48938192,0.384210442 2.04166667,0.384210442 Z"/>
  </defs>
  <g fill="none" fill-rule="evenodd" transform="translate(1.042 3.333)">
    <g transform="matrix(-1 0 0 1 78.333 40.1)">
      <mask id="beach-b" fill="#fff">
        <use xlink:href="#beach-a"/>
      </mask>
      <use fill="#FFF" fill-opacity="0" xlink:href="#beach-a"/>
      <g fill="#C4AC8E" mask="url(#beach-b)">
        <path d="M40,31.2824562 C61.1709154,31.2824562 78.3333333,38.5624577 78.3333333,30 C78.3333333,21.4375423 53.7143223,15.9446649 40,15.9446649 C26.2856777,15.9446649 1.66666667,21.4375423 1.66666667,30 C1.66666667,38.5624577 18.8290846,31.2824562 40,31.2824562 Z" transform="translate(-.625 .384)"/>
      </g>
    </g>
    <g transform="scale(-1 1) rotate(-1 84.02 4391.829)">
      <path fill="#D1D0CF" d="M31.235736,17.226549 L33.5805635,17.226549 C34.4089907,17.226549 35.0805635,17.8981219 35.0805635,18.726549 L35.0805635,60.726549 C35.0805635,61.5549761 34.4089907,62.226549 33.5805635,62.226549 L31.235736,62.226549 C30.4073088,62.226549 29.735736,61.5549761 29.735736,60.726549 L29.735736,18.726549 C29.735736,17.8981219 30.4073088,17.226549 31.235736,17.226549 Z" transform="rotate(-16 32.408 39.727)"/>
      <g fill-rule="nonzero" transform="translate(.383 .527)">
        <path fill="#0F8099" d="M56.0578549,17.4322722 C51.6426927,4.39642481 36.7022331,-2.88345106 21.8762442,1.08010378 C7.05025564,5.04365861 -2.23996088,18.8018828 0.468179347,32.294601 L0.817617061,33.8044788 C0.989323204,34.4416934 1.86894163,34.514833 2.13503644,33.9116832 C3.49061265,30.8398279 6.17565806,28.386151 9.67806568,27.4493654 C13.0850808,26.5386295 16.5402942,27.2620085 19.2243353,29.1275642 C19.5767852,29.373032 20.0657969,29.2417821 20.2475445,28.8530411 C21.6342488,25.8994113 24.2590464,23.5509349 27.6650575,22.6401988 C31.0730767,21.7294629 34.527286,22.4528418 37.2113271,24.3183976 C37.563777,24.5638654 38.0527887,24.4326154 38.2345363,24.0438745 C39.6212406,21.0902446 42.2470422,18.7417682 45.6530533,17.8310321 C49.1554609,16.8942467 52.7100833,17.6807458 55.4232444,19.664527 C55.9564378,20.0542698 56.6824241,19.5513113 56.5107179,18.9150986 L56.1090657,17.4192474 L56.0578549,17.4322722 Z"/>
        <path fill="#13A0BF" d="M21.8762442 1.08010378C36.7022331-2.88345106 51.6426927 4.39642481 56.0578549 17.4322722L56.0578549 17.4322722 56.1090657 17.4192474 56.5107179 18.9150986C56.6824241 19.5513113 55.9564378 20.0542698 55.4232444 19.664527 52.7100833 17.6807458 49.1554609 16.8942467 45.6530533 17.8310321 42.2470422 18.7417682 39.6212406 21.0902446 38.2345363 24.0438745 38.1147621 24.30006 37.8615435 24.4444176 37.6019074 24.4428233 36.074444 11.9212279 30.2378229 4.31126319 20.0924365 1.61256979 20.6778691 1.41917391 21.2724662 1.24151677 21.8762442 1.08010378zM20.1972818 28.9422633C19.9852433 29.261041 19.5474144 29.3525764 19.2243353 29.1275642 16.5402942 27.2620085 13.0850808 26.5386295 9.67806568 27.4493654 6.17565806 28.386151 3.49061265 30.8398279 2.13503644 33.9116832 1.86894163 34.514833.989323204 34.4416934.817617061 33.8044788L.817617061 33.8044788.468179347 32.294601C-2.11941715 19.4024657 6.24698249 6.26793448 19.9299313 1.6667075 17.2492312 8.69440501 17.6633678 19.1130451 20.1972818 28.9422633z"/>
      </g>
    </g>
  </g>
</svg>
