<svg xmlns="http://www.w3.org/2000/svg" width="80" height="80" viewBox="0 0 80 80">
  <g fill="none" fill-rule="evenodd" transform="translate(3.333 6.667)">
    <path fill="#525468" fill-rule="nonzero" d="M40.9523519,1.77525835 C40.9523519,4.1418966 39.0333049,6.06094357 36.6666667,6.06094357 C34.3000284,6.06094357 32.3809814,4.1418966 32.3809814,1.77525835 C32.3809814,-0.591379766 40.9523519,-0.591379766 40.9523519,1.77525835 Z"/>
    <path fill="#13A0BF" fill-rule="nonzero" d="M36.6666667,5 C19.1778374,5 5,18.4316354 5,35 C4.25925926,36.1111111 4.25925926,36.6666667 5,36.6666667 C18.0184607,36.6666667 42.6038486,36.6666667 68.3333333,36.6666667 C68.7482062,36.6666667 68.7482062,36.1111111 68.3333333,35 C68.3333333,18.4316354 54.155496,5 36.6666667,5 Z"/>
    <path fill="#0F8099" fill-rule="nonzero" d="M36.6666667,5 C54.155496,5 68.3333333,18.4316354 68.3333333,35 L68.3333333,35 L59.94973,35.0004634 C59.0948781,20.7962262 47.4468226,7.57718641 33.4060496,5.15682381 C34.4780488,5.05322043 35.5657981,5 36.6666667,5 Z"/>
    <rect width="73.333" height="5" y="35" fill="#525468" rx="1.5"/>
    <g transform="translate(3.333 42.5)">
      <path fill="#D1D0CF" d="M5.34741203,11.2448899 C10.9029676,3.76558743 17.0140787,0.0259361747 23.6807454,0.0259361747 C33.6807454,0.0259361747 28.6807454,1.69260284 42.0140787,0.0259361747 C45.586914,-0.420668239 47.2535807,5.02593617 35.347412,6.69260284 C33.6807454,6.69260284 41.9852396,8.95699175 48.6663258,5.3247973 C55.347412,1.69260284 57.0140894,0.0259361747 60.0610965,0.0259361747 C63.3333333,0.0259361747 61.4122347,4.16666667 58.6807454,6.69260284 C55.949256,9.21853902 48.6663258,15.0259362 33.6807454,15.0259362 C23.6807454,15.0259362 20.8817248,13.3592695 17.0140787,18.3592695"/>
      <path fill="#BCBBB9" d="M58.6807454,6.69260284 C55.949256,9.21853902 48.6663258,15.0259362 33.6807454,15.0259362 C23.6807454,15.0259362 20.8817248,13.3592695 17.0140787,18.3592695 L5.34741203,11.2448899 C5.62754375,10.8677558 5.90908799,10.5001298 6.19204476,10.1420122 L13.7998148,15.2413903 C17.6674609,10.2413903 23.6807454,11.991464 33.6807454,11.991464 C43.6711323,11.991464 52.0044657,9.21368619 58.6807454,3.65813063 C60.0702434,2.55371705 61.0703056,1.62194378 61.6809319,0.862810815 C62.2020728,2.20424358 60.6525629,4.8691708 58.6807454,6.69260284 Z"/>
      <path fill="#00837A" fill-rule="nonzero" d="M19.2235005,18.9261845 L5.10479721,9.33486565 C4.21465043,8.73005815 3.00279733,8.96224595 2.39854928,9.85295233 L0.335713697,12.8960127 C-0.267415444,13.7856 -0.0357869541,14.9952151 0.853240923,15.5994632 L14.9719442,25.190782 C15.8620909,25.7955895 17.073944,25.5634016 17.6781921,24.6726952 L19.7410277,21.6301944 C20.3441568,20.740607 20.1125283,19.5304325 19.2235005,18.9261845 L19.2235005,18.9261845 Z"/>
      <path fill="#005B76" fill-rule="nonzero" d="M19.2235005,18.9261845 L13.7998148,15.2413903 L9.55105579,21.5082258 L14.9719442,25.190782 C15.8307596,25.774329 16.9872232,25.5768293 17.6099344,24.762773 L19.7997741,21.5328433 C20.3245747,20.6544457 20.081197,19.5086124 19.2235005,18.9261845 L19.2235005,18.9261845 Z"/>
    </g>
  </g>
</svg>
