<svg xmlns="http://www.w3.org/2000/svg" xmlns:xlink="http://www.w3.org/1999/xlink" width="80" height="80" viewBox="0 0 80 80">
  <defs>
    <path id="done-a" d="M36.1703868,54.2496915 C35.3856331,55.0280486 34.3578844,55.4166667 33.3309232,55.4166667 C32.3047821,55.4166667 31.2787148,55.0286087 30.4951145,54.249405 L22.4195022,46.2448351 C21.6404034,45.4701054 21.25,44.4558446 21.25,43.4411458 C21.25,42.426447 21.6404034,41.4121862 22.4172296,40.6397106 C23.2022975,39.8630333 24.2305252,39.4755209 25.2578302,39.4755209 C26.2843148,39.4755209 27.3108608,39.8624734 28.0933499,40.6385843 L33.3328952,45.8354213 L51.9038418,27.4158473 C52.6860175,26.638058 53.7120848,26.25 54.7382259,26.25 C55.7651872,26.25 56.7929358,26.6386181 57.5788265,27.4181014 C58.3589885,28.1899252 58.75,29.2019623 58.75,30.214973 C58.75,31.2288014 58.3584281,32.2425078 57.5776895,33.0168825 L36.1703868,54.2496915 L36.1703868,54.2496915 Z"/>
  </defs>
  <g fill="none" fill-rule="evenodd">
    <rect width="75" height="75" x="2.5" y="2.5" stroke="#0F8099" stroke-width="5" rx="37.5"/>
    <use fill="#0F8099" xlink:href="#done-a"/>
  </g>
</svg>
