<svg xmlns="http://www.w3.org/2000/svg" width="80" height="80" viewBox="0 0 80 80">
  <g fill="none" transform="translate(5 5)">
    <path fill="#525468" d="M44.8022809,33.4279304 L38.6934449,33.4279304 C37.768647,33.4279304 37.0120804,32.6712284 37.0120804,31.7464305 L36.1714658,17.4995629 C36.1714658,17.4995629 34.8111346,5.69847636 41.8669646,4.14771771 C41.8669646,4.14771771 44.7358275,-1.43490515 53.9237138,0.353650929 C54.049312,0.37814799 54.1700379,0.423217167 54.2919818,0.460977828 C56.408609,1.11752611 58.3763591,2.279174 60.0123837,3.9068074 C65.0160098,8.88580104 64.0098708,14.7683437 64.1353337,15.5000073 C64.1353337,19.5869561 64.1998922,15.0443078 63.2947191,31.7465659 C63.2947191,32.6713637 62.5381524,33.4279304 61.6133546,33.4279304 L55.1143251,33.4279304"/>
    <path fill="#C4AC8E" d="M34.647505,39.7837671 C34.1614888,39.1928601 33.4677212,38.6417439 33.0102623,38.3623962 L32.9599147,38.3499447 C31.2583841,37.3306775 29.8257798,37.2880445 26.6638996,36.4180605 L23.4305583,34.8704147 L23.4305583,31.0081352 C20.7216707,32.2059196 17.6067545,32.1640986 14.9991033,31.030196 L14.985163,34.8863852 L11.7656267,36.4181959 C8.62404792,37.2826308 7.17452575,37.3287827 5.46961156,38.35008 L5.41926401,38.3625316 C5.27580057,38.4500984 5.12421655,38.5556659 4.97479802,38.6739555 C2.53849094,40.4229915 2.49991822,42.6951277 2.29000143,44.3741914 L1.32243522,53.0208415 C-0.0403321764,65.3953758 0.000947400117,64.399929 0.000947400117,65.3538256 C-0.020436774,66.9243443 0.943069145,69.4308943 3.87012948,69.4308943 C24.2342694,69.4334207 34.4933946,69.4334207 34.647505,69.4308943 C32.0253722,69.3870432 33.0738734,41.6931844 34.647505,39.7837671 Z"/>
    <path fill="#C4AC8E" d="M69.2676708,64.59374 C66.8056486,42.7913564 66.944375,43.4066251 66.7239015,42.3409354 C66.3661903,40.6111181 65.3233734,39.2464559 63.875746,38.3623962 L63.8255338,38.3499447 C63.2094531,37.9808647 62.522588,37.6900128 61.7851047,37.4775245 L54.6865063,35.7103526 C54.4557467,35.6058679 54.2960421,35.2622324 54.2960421,34.8704147 L54.2960421,31.4465107 C51.6205842,32.6133016 48.5024197,32.5947597 45.8645871,31.4286455 L45.8645871,34.8705501 C45.8645871,35.2623677 45.7048825,35.6060033 45.4741229,35.710488 C39.4690949,37.3102407 38.1335314,37.2728861 36.3350953,38.35008 L36.2848831,38.3625316 C34.2983204,39.5757451 33.5305203,41.2200257 33.2657896,43.3906547 C30.5863084,60.7520776 30.1210181,69.4327891 31.8699187,69.4327891 C36.0445696,69.4327891 62.1104113,69.4308943 65.4471545,69.4308943 C68.3742148,69.4308943 69.3155822,66.9243443 69.294198,65.3538256 C69.294198,65.3522015 69.294198,65.3505773 69.294198,65.3489532 C69.298935,65.0645979 69.2859421,64.8063637 69.2676708,64.59374 Z"/>
    <path fill="#0F8099" d="M67.9721688,53.0181347 C66.8532893,43.0858625 66.9016067,43.2010393 66.7239015,42.3408 C66.3641601,40.6012381 65.3098391,39.2377939 63.875746,38.3622609 C63.861535,38.358742 63.8111875,38.3462904 63.8255338,38.3498093 C63.2094531,37.9807293 62.522588,37.6898775 61.7851047,37.4773892 L54.6865063,35.7102173 C54.4557467,35.6057326 54.2960421,35.262097 54.2960421,34.8702794 L54.2960421,31.4463754 L54.2960421,31.4285101 C51.5989293,32.6200688 48.4964646,32.5913761 45.8645871,31.4285101 L45.8645871,31.4463754 L45.8645871,34.8702794 C45.8645871,35.262097 45.7048825,35.6057326 45.4741229,35.7102173 C39.4690949,37.30997 38.1335314,37.2724801 36.3350953,38.3498093 C36.3208843,38.3533283 36.2705368,38.3657798 36.2848831,38.3622609 C34.3161857,39.5641056 33.5301143,41.2231386 33.2657896,43.390384 L32.188325,53.0179993 L34.6338354,69.4308943 C42.9467301,69.4308943 52.9290791,69.4308943 61.2384548,69.4308943 L60.5744627,54.5023046 C60.5536199,54.1077802 60.8454191,53.7659041 61.2384548,53.7246245 L67.9721688,53.0181347 Z"/>
    <path fill="#00837A" d="M32.9849532,38.3623962 C32.9707422,38.3588773 32.9203946,38.3464258 32.9346056,38.3499447 C31.2292854,37.3283767 29.7738081,37.2804653 26.6606514,36.4236096 L26.6636289,36.4180605 L23.4302876,34.8704147 L23.4068733,34.9057392 C23.406738,34.9014083 23.4064673,34.8972126 23.4061966,34.893017 L19.1893187,38.8633002 L14.984757,34.8863852 L11.7652207,36.4181959 C8.62350655,37.2826308 7.17411972,37.3287827 5.46920553,38.35008 L5.41885799,38.3625316 C3.43215994,39.5756098 2.66449516,41.220567 2.3997645,43.3906547 L1.32202919,53.0208415 L7.98333476,53.7197521 C8.4033037,53.7638739 8.71553971,54.128623 8.69442622,54.5503514 L7.9541007,69.4308943 C14.7981191,69.4308943 26.9565612,69.4308943 34.2143228,69.4308943 C33.4405792,50.9669683 33.580913,41.0897356 34.6353242,39.7991962 C34.2884404,39.3743549 33.3633718,38.5934265 32.9849532,38.3623962 Z"/>
    <path fill="#C4AC8E" d="M57.529248,36.4180605 L54.6863709,35.7103526 C54.4556113,35.6058679 54.2959067,35.2622324 54.2959067,34.8704147 L54.2959067,31.0281659 L54.2959067,31.0103006 C51.576327,32.2118747 48.4700727,32.1615271 45.8644517,31.0103006 L45.8644517,31.0281659 L45.8644517,34.8704147 C45.8644517,35.2622324 45.7047471,35.6058679 45.4739875,35.7103526 L42.5883421,36.4287526 C46.0565033,42.2617598 54.0637937,42.2640606 57.529248,36.4180605 Z"/>
    <path fill="#525468" d="M5.97389911,16.8500525 L5.97389911,13.2155549 C5.97389911,2.5175128 18.0681383,-3.67198751 26.7451053,2.37269592 C33.5512278,7.12471957 32.2549137,14.1127428 32.4046029,16.8500525"/>
    <path fill="#C4AC8E" d="M20.3052207,0.166705085 C21.1447525,0.0359638685 22.0150072,0.614960683 22.0534446,1.67171784 C22.1628016,4.70948865 24.451585,5.5212752 24.4911051,5.55077995 L24.4911051,5.55077995 L24.4691749,5.55077995 C26.2877771,5.55077995 27.762067,6.73746627 27.762067,8.26034429 C27.762067,9.76870245 26.3160133,10.994036 24.5215767,11.0174779 C24.5006845,13.0376232 24.3527382,14.3374473 23.7524037,15.8540269 C20.6963616,23.576556 10.3895957,24.8475609 5.46676936,18.3371626 C4.61695146,17.2138168 3.96730566,15.8897574 3.61595556,14.408565 C3.38918696,13.4497128 3.33379631,12.9086298 3.32456621,11.0183738 C1.50879549,11.0150926 0.0377606618,9.78167538 0.0377606618,8.26034429 C0.0377606618,6.73746627 1.51205059,5.55077995 3.33078813,5.55077995 L3.33078813,5.55077995 L3.34353715,5.54548331 C3.40693609,5.52033593 3.69176111,5.40907596 4.06461719,5.13622473 C5.05898128,4.40916281 5.71160462,3.24183052 5.76885466,1.67185319 C5.80675066,0.606569425 6.68390783,0.0369112686 7.51707856,0.166705085 C11.6167496,0.803357963 15.5821604,0.840712597 19.7534278,0.248587523 C19.8922896,0.228962807 20.1089735,0.197157231 20.3052207,0.166705085 Z" transform="translate(5.278 9.772)"/>
    <g fill="#EBECEE" transform="translate(6.593 1.293)">
      <path d="M16.837095,33.5772358 L12.5961261,37.5701212 L14.8854508,39.8771759 C15.3226083,40.3177169 16.0470987,40.2748132 16.429307,39.7856841 L20.0704363,35.1248815 L16.837095,33.5772358 Z"/>
      <path d="M8.39169971,33.5932062 L12.5962614,37.5701212 L10.3069367,39.8771759 C9.86977924,40.3177169 9.14528883,40.2748132 8.76308056,39.7856841 L5.12195122,35.1248815 L8.39169971,33.5932062 Z"/>
    </g>
    <path fill="#C4AC8E" d="M59.6165058,18.2718293 C60.2118791,18.29971 60.6809775,18.7897865 60.6809775,19.3858365 L60.6809775,20.1858483 C60.6781353,21.6065424 60.777071,22.9860923 60.2316392,24.7934611 C59.6822824,26.6153115 58.6471801,28.2890968 57.0915492,29.6729777 C50.5282318,35.5178951 39.9819091,31.105582 39.5351422,22.2736474 C39.5331121,22.2337213 39.5346009,22.2850162 39.5291872,22.1498087 C39.5237734,22.011353 39.5202545,21.8726265 39.5202545,21.7328173 C39.5202545,20.4727752 39.5202545,17.5970098 39.5202545,16.365931 L39.5202545,15.8299732 C39.5202545,15.207396 39.9589008,14.6750925 40.5679437,14.5462461 C41.6485212,14.3177873 43.3945796,13.6969695 44.9784973,12.0111387 C45.3765407,11.5875155 46.0555559,11.6095764 46.4255833,12.057832 C47.962537,13.9201499 52.1128262,17.921156 59.6165058,18.2718293 Z"/>
    <g fill="#EBECEE" transform="translate(40.468 36.407)">
      <path d="M19.1013458,0.518633893 L17.0617287,0.0109627728 C15.4998719,2.64581784 12.7375239,4.39823737 9.58809522,4.39823737 C9.58809522,4.39810203 19.1435728,13.9546624 19.1013458,0.518633893 Z"/>
      <path d="M0.119778443,0.518633893 L2.15939555,0.0109627728 C3.72125232,2.64581784 6.48360037,4.39823737 9.63302905,4.39823737 C9.63302905,4.39810203 0.0775514667,13.9546624 0.119778443,0.518633893 Z"/>
    </g>
    <path fill="#525468" d="M19.2538773 3.49222116C15.2456981-1.5606697 7.50516842-1.01239572 4.17586907 4.37357395 2.2276084 7.52110783 2.96265555 10.388888 2.8011915 11.2663158L21.2477485 11.2663158C21.1892804 9.46436081 21.6861241 6.55570711 19.2538773 3.49222116zM23.9935847 18.9862734C23.1832869 16.4722795 22.1326202 14.9029789 21.3316611 14.0846958 20.8693298 14.54026 20.2282106 14.8641354 19.4987125 14.980395 20.8367122 16.9097076 20.5435595 18.8352307 20.4768355 19.9809081 20.4463833 20.5036023 20.9168352 20.9139619 21.4293786 20.8075824L23.137135 20.4533901C23.8015332 20.3156111 24.2017421 19.6318589 23.9935847 18.9862734zM.0552199298 18.9862734C.865517716 16.4722795 1.91618445 14.9029789 2.71714357 14.0846958 3.17947483 14.54026 3.82059402 14.8641354 4.55009211 14.980395 3.21209246 16.9097076 3.50524513 18.8352307 3.57196917 19.9809081 3.60242131 20.5036023 3.13196948 20.9139619 2.61929068 20.8075824L.911534293 20.4533901C.247406811 20.3156111-.152802067 19.6318589.0552199298 18.9862734z" transform="translate(22.623 34.036)"/>
    <path fill="#C4AC8E" d="M46.5070597,69.2954161 L45.7797271,62.7955746 C45.6137967,61.4344313 45.135089,60.29119 43.778412,59.462621 L43.7451177,59.454365 C42.55789,58.7431382 41.6964326,58.7727783 37.6871706,57.7046524 C37.2439227,57.5039389 37.5012095,56.6439703 37.4283951,54.4599423 C35.6371321,55.2438482 33.5636793,55.2112306 31.8395464,54.4480321 C31.7686268,56.5813065 32.0257782,57.5029915 31.5807709,57.7046524 C27.5792234,58.7707482 26.7115403,58.7423262 25.5229592,59.454365 L25.4896648,59.462621 C24.5333321,60.0467608 23.8395645,60.9493624 23.6017671,62.0997769 C23.4599277,62.7856945 23.4970117,62.8413205 22.7610171,69.2954161 L46.5070597,69.2954161 L46.5070597,69.2954161 Z"/>
    <path fill="#8DDFF8" d="M22.7607464,69.4308943 C28.519315,69.4308943 40.7447015,69.4308943 46.5069244,69.4308943 L45.7795918,62.7955746 C45.6139321,61.4360554 45.1331942,60.2898366 43.7782767,59.462621 L43.7449823,59.454365 C42.5679054,58.7492287 41.6190165,58.7474692 38.4406244,57.8922376 C38.4406244,57.9221484 38.4406244,58.7476046 38.4406244,58.7332582 C38.4406244,59.3358047 38.2990558,59.9096585 38.0482654,60.4154348 C38.0068505,60.499212 37.9395851,60.6230508 37.8752972,60.7267234 C37.8723197,60.7314604 37.8307694,60.7969664 37.8276565,60.8017034 C37.7612032,60.9036165 37.6901482,61.0016048 37.6205819,61.0891716 C37.5876936,61.1305865 37.5431658,61.1841823 37.508112,61.2237024 C37.5024276,61.2300636 37.4968786,61.2364247 37.4911942,61.2427858 C37.4688626,61.2683656 37.4462603,61.2935394 37.4231167,61.3184424 C37.4206805,61.321014 37.418109,61.3237208 37.4156728,61.3264277 C37.4108005,61.331706 37.4072816,61.3353603 37.4037627,61.3391499 C37.3769648,61.3674366 37.3496255,61.3950465 37.3220156,61.4223858 C37.3129476,61.4314537 37.304015,61.4407924 37.294947,61.449725 C37.2592165,61.4845082 37.2228092,61.5186146 37.1858606,61.5520442 C37.1753039,61.5615182 37.1643411,61.5705862 37.1537844,61.5800602 C37.1306407,61.6007677 37.1065497,61.6203924 37.0831354,61.6408292 C37.0794811,61.6440774 37.0758269,61.6471903 37.0721726,61.6503032 C37.0579616,61.662078 37.0434799,61.6735821 37.0289982,61.6852216 C37.0042305,61.705117 36.9794627,61.7250124 36.954289,61.7442311 C36.9384539,61.756412 36.9223481,61.7683222 36.9062423,61.7803677 C36.8816099,61.798639 36.8568421,61.8166396 36.8318037,61.8343695 C36.8194875,61.8430314 36.8070359,61.8516934 36.7945844,61.86022 C36.7903888,61.8630622 36.7863285,61.8660397 36.7821328,61.8688819 C36.7562823,61.8864765 36.7300258,61.9038004 36.703634,61.9208536 C36.6995737,61.9234251 36.6956487,61.9259966 36.6915885,61.9285681 C36.6795429,61.936418 36.6674974,61.9442679 36.6553166,61.9518471 C36.632985,61.9657874 36.6103827,61.9791864 36.5876451,61.9925853 C36.5800659,61.9970516 36.5726221,62.0017886 36.5650429,62.0061196 C36.5617946,62.0080144 36.5584111,62.0100445 36.5551628,62.0119393 C36.5452828,62.0178944 36.5355381,62.0238495 36.5255227,62.0295339 C36.4819423,62.054437 36.4378206,62.078528 36.3931574,62.1016717 C36.387067,62.1047845 36.3809766,62.1077621 36.3747508,62.1107396 C36.3727206,62.111687 36.3706905,62.1127698 36.3686604,62.1138525 C36.3612165,62.1176421 36.3537726,62.121161 36.3463288,62.1248153 C36.3166887,62.139703 36.2870486,62.1545907 36.2570025,62.1688017 C36.2407613,62.1763809 36.2243849,62.1835541 36.2081437,62.1908626 C36.1780976,62.2043969 36.1479161,62.2177958 36.117464,62.2306534 C36.0990574,62.238368 36.0805154,62.2458118 36.0619734,62.2532557 C36.0328747,62.2650305 36.0036406,62.2763993 35.9742712,62.2873621 C35.9551879,62.2945353 35.9359692,62.3015731 35.9167505,62.3083402 C35.8868397,62.3190323 35.8566583,62.329183 35.8263415,62.3390631 C35.8113184,62.3439354 35.7962953,62.3488077 35.7812723,62.3536801 C35.7774827,62.3548982 35.7738284,62.3561163 35.7700388,62.3573343 C35.7616476,62.3599059 35.7529856,62.3622067 35.7445944,62.3647782 C35.7198266,62.3722221 35.6950589,62.3795306 35.6701558,62.3864331 C35.6579749,62.3898166 35.6459294,62.3933356 35.6336132,62.3967191 C35.6295529,62.3978019 35.6254926,62.39902 35.6214324,62.4001027 C35.5716262,62.4133663 35.521414,62.4256825 35.4707957,62.436916 C35.4633519,62.4385401 35.4557727,62.4400288 35.4483288,62.441653 C35.4258619,62.4465253 35.4035303,62.4512623 35.3809281,62.4557286 C35.3208358,62.4675034 35.2602022,62.4777895 35.1990272,62.4867221 C35.0768126,62.5045874 34.9527032,62.5164976 34.8269697,62.5223173 C34.8119466,62.5231294 34.7970589,62.5234001 34.7821712,62.5238061 C34.774186,62.5240768 34.7660654,62.5243475 34.7579448,62.5246181 C34.7360193,62.5252949 34.7142291,62.5257009 34.6924389,62.5259716 C34.6863484,62.5259716 34.680258,62.5259716 34.6743029,62.5261069 C34.6622574,62.5261069 34.6546782,62.5262423 34.647099,62.5262423 C34.6395198,62.5262423 34.6319406,62.5261069 34.6243614,62.5261069 C34.6228726,62.5261069 34.6213839,62.5261069 34.6197597,62.5261069 C34.6136693,62.5261069 34.6077142,62.5261069 34.6016238,62.5259716 C34.5798336,62.5257009 34.5580434,62.5252949 34.5361178,62.5246181 C34.5279973,62.5243475 34.520012,62.5240768 34.5118915,62.5238061 C34.4970038,62.5232647 34.4819807,62.522994 34.467093,62.5223173 C34.3413595,62.5164976 34.21725,62.5044521 34.0950354,62.4867221 C34.0338604,62.4777895 33.9732268,62.4675034 33.9131346,62.4557286 C33.8905323,62.4512623 33.8682008,62.4465253 33.8457338,62.441653 C33.83829,62.4400288 33.8307108,62.4386754 33.8232669,62.436916 C33.7726487,62.4256825 33.7224365,62.413231 33.6726303,62.4001027 C33.66857,62.39902 33.6645097,62.3978019 33.6604495,62.3967191 C33.6482686,62.3933356 33.6360877,62.3898166 33.6239069,62.3864331 C33.5992745,62.3795306 33.5747774,62.3723574 33.5502804,62.3650489 C33.5416184,62.362342 33.5326858,62.3600412 33.5240238,62.3573343 C33.5202342,62.3561163 33.51658,62.3548982 33.5127904,62.3536801 C33.4977673,62.3489431 33.4827443,62.3440707 33.4677212,62.3390631 C33.4374044,62.329183 33.4073583,62.3190323 33.3773122,62.3083402 C33.3580935,62.3015731 33.3388748,62.2945353 33.3197914,62.2873621 C33.290422,62.2763993 33.2610526,62.2650305 33.2320893,62.2532557 C33.2135473,62.2458118 33.1950053,62.238368 33.1765987,62.2306534 C33.1461465,62.2177958 33.1159651,62.2043969 33.085919,62.1908626 C33.0696778,62.1835541 33.053166,62.1763809 33.0370602,62.1688017 C33.0070141,62.1547261 32.977374,62.1398383 32.9477339,62.1248153 C32.94029,62.121161 32.9328462,62.1176421 32.9254023,62.1138525 C32.9233722,62.1127698 32.921342,62.1118224 32.9193119,62.1107396 C32.9132214,62.1077621 32.9069957,62.1047845 32.9009052,62.1016717 C32.8562421,62.078528 32.8121203,62.054437 32.7685399,62.0295339 C32.7586599,62.0238495 32.7487799,62.0178944 32.7388998,62.0119393 C32.7356516,62.0100445 32.732268,62.0080144 32.7290198,62.0061196 C32.7214406,62.0016533 32.7139967,61.9970516 32.7065529,61.9925853 C32.6838153,61.9791864 32.661213,61.9657874 32.6388814,61.9518471 C32.6267006,61.9442679 32.6146551,61.936418 32.6026096,61.9285681 C32.5985493,61.9259966 32.594489,61.9234251 32.590564,61.9208536 C31.8325086,61.430777 31.2734072,60.6890981 31.0146316,59.8307536 C30.7831953,59.0634948 30.873875,58.5169803 30.8535736,57.8857411 L30.0482835,58.0861839 C27.5222441,58.7756205 26.6498239,58.7790041 25.5221471,59.4545004 L25.4888528,59.4627563 C24.5447009,60.0394523 23.8401059,60.9438134 23.600955,62.0999122 C23.4593864,62.7840704 23.4875377,63.0532674 22.7607464,69.4308943 Z"/>
    <path fill="#C4AC8E" d="M17.1790798,7.94381045 C16.7964878,11.5214148 13.7405641,14.2418101 10.1221582,14.1966385 C7.0168513,14.1621261 4.3588526,12.0921922 3.49062806,9.21317854 C3.36009021,8.78156146 3.28147146,8.39444646 3.23524377,7.94394154 C1.48037652,7.86692027 0.0870210304,6.70146638 0.0870210304,5.27456557 C0.0870210304,3.8594641 1.4579304,2.70134917 3.19273831,2.60754209 L3.1927384,2.60140846 C3.1927384,2.37497984 3.39954231,2.20444781 3.62150462,2.24924631 C4.80778491,2.48893854 8.14885909,2.89171893 9.72276137,0.273646376 C9.94215217,-0.0912380125 10.469854,-0.0912380125 10.6893802,0.273781718 C12.2632825,2.89171893 15.6043566,2.48907388 16.7906369,2.24938165 C17.0124639,2.20458316 17.2194032,2.37511518 17.2194032,2.60154381 L17.2194032,2.60758439 C18.9538415,2.70169673 20.3243395,3.85967644 20.3243395,5.27456557 C20.3243395,6.70066322 18.9325522,7.86560817 17.1790798,7.94381045 Z" transform="translate(24.441 41.255)"/>
  </g>
</svg>
