<svg xmlns="http://www.w3.org/2000/svg" width="80" height="80" viewBox="0 0 80 80">
  <g fill="none" fill-rule="evenodd" transform="matrix(-1 0 0 1 75 6.667)">
    <path fill="#0F8099" fill-rule="nonzero" d="M1.66666667,33.3333333 L48.3333333,31.6666667 L48.3333333,68.3333333 L2.66666667,68.3333333 C2.11438192,68.3333333 1.66666667,67.8856181 1.66666667,67.3333333 L1.66666667,33.3333333 L1.66666667,33.3333333 Z"/>
    <g transform="translate(.615)">
      <path fill="#525468" d="M6.8592296,21.6666667 L47.718776,21.6666667 L47.718776,21.6666667 L47.718776,33.3333333 C25.8669242,33.3333333 10.3113686,33.3333333 1.05210937,33.3333333 C1.05210937,33.1037271 1.05210937,32.8741208 1.05210937,32.6445145 C1.05210937,32.002075 1.20685093,31.3690868 1.50324217,30.7991036 L5.9720128,22.2053139 C6.14412549,21.874328 6.48616865,21.6666667 6.8592296,21.6666667 Z"/>
      <path fill="#13A0BF" fill-rule="nonzero" d="M46.0521094,10.8333333 L62.718776,10.8333333 L62.718776,67.3333333 C62.718776,67.8856181 62.2710608,68.3333333 61.718776,68.3333333 L46.0521094,68.3333333 L46.0521094,68.3333333 L46.0521094,10.8333333 Z"/>
      <path fill="#525468" fill-rule="nonzero" d="M42.718776,11.0199885 L42.718776,0.590892984 C42.718776,0.264587763 43.0086968,0 43.3662441,0 L47.071308,0 C47.4288553,0 47.718776,0.264587763 47.718776,0.590892984 L47.718776,5 L51.8854427,5 L51.8854427,0.590892984 C51.8854427,0.264587763 52.1753634,0 52.5329108,0 L56.2379747,0 C56.595522,0 56.8854427,0.264587763 56.8854427,0.590892984 L56.8854427,5 L61.0521094,5 L61.0521094,0.590892984 C61.0521094,0.264587763 61.3420301,0 61.6995774,0 L65.4046413,0 C65.7621887,0 66.0521094,0.264587763 66.0521094,0.590892984 L66.0521094,11.0198269 C66.0521094,11.3770996 65.7984323,11.6666667 65.4855829,11.6666667 L43.2853026,11.6666667 C42.9724531,11.6666667 42.718776,11.3770996 42.718776,11.0199885 Z"/>
    </g>
    <g fill="#525468" transform="translate(50.833 21.667)">
      <rect width="6.667" height="6.667" x=".833" y="18.333" rx="2"/>
      <rect width="6.667" height="6.667" x=".833" rx="2"/>
    </g>
    <g fill="#525468" transform="translate(10 40)">
      <rect width="6.667" height="6.667" x="23.333" rx="2"/>
      <rect width="6.667" height="6.667" x="11.667" rx="2"/>
      <rect width="6.667" height="6.667" rx="2"/>
    </g>
  </g>
</svg>
