<svg xmlns="http://www.w3.org/2000/svg" width="80" height="80" viewBox="0 0 80 80">
  <g fill="none" fill-rule="evenodd" transform="translate(3.333 6.667)">
    <g fill-rule="nonzero">
      <path fill="#EBECEE" d="M0,18.3034748 L73.3333333,18.3034748 L73.3333333,66.3034748 C73.3333333,67.4080443 72.4379028,68.3034748 71.3333333,68.3034748 L2,68.3034748 C0.8954305,68.3034748 1.3527075e-16,67.4080443 0,66.3034748 L0,18.3034748 L0,18.3034748 Z"/>
      <path fill="#13A0BF" d="M2,5 L71.3333333,5 C72.4379028,5 73.3333333,5.8954305 73.3333333,7 L73.3333333,18.3333333 L73.3333333,18.3333333 L0,18.3333333 L0,7 C-1.3527075e-16,5.8954305 0.8954305,5 2,5 Z"/>
      <path fill="#525468" d="M7.35677083 8.36824327C7.35677083 10.189843 5.86431671 11.6666667 4.0234375 11.6666667 2.18255829 11.6666667.690104167 10.189843.690104167 8.36824327L.690104167 3.2984234C.690104167 1.47682368 2.18255829 0 4.0234375 0 5.86431671 0 7.35677083 1.47682368 7.35677083 3.2984234L7.35677083 8.36824327zM24.0234375 8.36824327C24.0234375 10.189843 22.5309834 11.6666667 20.6901042 11.6666667 18.849225 11.6666667 17.3567708 10.189843 17.3567708 8.36824327L17.3567708 3.2984234C17.3567708 1.47682368 18.849225 0 20.6901042 0 22.5309834 0 24.0234375 1.47682368 24.0234375 3.2984234L24.0234375 8.36824327zM57.3567708 8.36824327C57.3567708 10.189843 55.8643167 11.6666667 54.0234375 11.6666667 52.1825583 11.6666667 50.6901042 10.189843 50.6901042 8.36824327L50.6901042 3.2984234C50.6901042 1.47682368 52.1825583 0 54.0234375 0 55.8643167 0 57.3567708 1.47682368 57.3567708 3.2984234L57.3567708 8.36824327zM40.6901042 8.36824327C40.6901042 10.189843 39.19765 11.6666667 37.3567708 11.6666667 35.5158916 11.6666667 34.0234375 10.189843 34.0234375 8.36824327L34.0234375 3.2984234C34.0234375 1.47682368 35.5158916 0 37.3567708 0 39.19765 0 40.6901042 1.47682368 40.6901042 3.2984234L40.6901042 8.36824327z" transform="translate(7.643)"/>
    </g>
    <g transform="translate(18.333 23.333)">
      <path fill="#928471" d="M36.556,15.2653333 C36.421,14.852 36.1676667,14.4986667 35.841,14.2336667 C35.801,14.1936667 35.766,14.1486667 35.7226667,14.1153333 C35.681,14.0753333 35.646,14.0303333 35.6026667,13.9936667 C35.561,13.957 35.5276667,13.912 35.4843333,13.8753333 C35.4426667,13.837 35.4093333,13.792 35.3643333,13.757 C35.3243333,13.717 35.2893333,13.6736667 35.246,13.637 C35.2043333,13.5986667 35.171,13.5553333 35.1276667,13.5186667 C35.086,13.4803333 35.0526667,13.4353333 35.0076667,13.4003333 C34.9676667,13.3603333 34.9326667,13.3153333 34.8893333,13.282 C34.8476667,13.242 34.8126667,13.197 34.7693333,13.1603333 C34.7276667,13.1236667 34.6943333,13.0786667 34.651,13.042 C34.6093333,13.0036667 34.576,12.9586667 34.531,12.9236667 C34.491,12.8836667 34.456,12.8403333 34.4126667,12.8036667 C34.371,12.7653333 34.3376667,12.722 34.2943333,12.6853333 C34.2876667,12.6786667 34.2776667,12.6753333 34.2693333,12.6686667 C34.2343333,12.637 34.211,12.5953333 34.1743333,12.567 C34.1343333,12.527 34.0993333,12.482 34.056,12.4486667 C34.0143333,12.4086667 33.9793333,12.3636667 33.936,12.327 C33.8943333,12.2903333 33.861,12.2453333 33.8176667,12.2086667 C33.776,12.1703333 33.7426667,12.1253333 33.6976667,12.0903333 C33.6576667,12.0503333 33.6226667,12.007 33.5793333,11.9703333 C33.5376667,11.932 33.5043333,11.8886667 33.461,11.852 C33.4193333,11.8136667 33.386,11.7686667 33.341,11.7336667 C33.301,11.6936667 33.266,11.6486667 33.2226667,11.6153333 C33.181,11.5753333 33.146,11.5303333 33.1026667,11.4936667 C33.061,11.457 33.0276667,11.4103333 32.9843333,11.3753333 C32.9426667,11.337 32.9093333,11.292 32.8643333,11.257 C32.8243333,11.217 32.7893333,11.1736667 32.746,11.137 C32.7043333,11.0986667 32.671,11.0553333 32.6276667,11.0186667 C32.2943333,10.7053333 31.8776667,10.482 31.406,10.4136667 L24.421,9.40533333 L22.0176667,4.577 C21.906,4.352 21.751,4.162 21.5776667,3.99033333 C21.5393333,3.94866667 21.4993333,3.912 21.4576667,3.872 C21.421,3.82866667 21.381,3.792 21.3393333,3.75366667 C21.3026667,3.70866667 21.2593333,3.67366667 21.221,3.63366667 C21.1826667,3.59033333 21.141,3.55533333 21.101,3.51366667 C21.0643333,3.472 21.0226667,3.43366667 20.981,3.39533333 C20.9443333,3.35366667 20.9026667,3.317 20.8626667,3.277 C20.826,3.23366667 20.7843333,3.197 20.7443333,3.157 C20.706,3.11533333 20.666,3.07866667 20.6243333,3.03866667 C20.5876667,2.99533333 20.5476667,2.95866667 20.506,2.92033333 C20.4693333,2.87533333 20.426,2.84033333 20.3876667,2.80033333 C20.3493333,2.757 20.3076667,2.722 20.2676667,2.68033333 C20.231,2.63866667 20.1893333,2.60033333 20.1476667,2.562 C20.111,2.52033333 20.0693333,2.48366667 20.0293333,2.44366667 C19.9993333,2.40866667 19.9626667,2.38366667 19.931,2.352 C19.9243333,2.34366667 19.9193333,2.332 19.911,2.32366667 C19.8726667,2.282 19.8326667,2.24533333 19.791,2.20533333 C19.7543333,2.162 19.7143333,2.12533333 19.6726667,2.087 C19.636,2.042 19.5926667,2.007 19.5543333,1.967 C19.516,1.92366667 19.4743333,1.88866667 19.4343333,1.847 C19.3976667,1.80533333 19.356,1.767 19.3143333,1.72866667 C19.2776667,1.687 19.236,1.65033333 19.196,1.61033333 C19.1593333,1.567 19.1176667,1.53033333 19.0776667,1.49033333 C19.0393333,1.44866667 18.9993333,1.41033333 18.9576667,1.372 C18.921,1.32866667 18.881,1.292 18.8393333,1.25366667 C18.8026667,1.20866667 18.7593333,1.17366667 18.721,1.13366667 C18.6826667,1.09033333 18.641,1.05533333 18.601,1.01366667 C18.5643333,0.972 18.5226667,0.933666667 18.481,0.895333333 C18.4443333,0.853666667 18.4026667,0.817 18.3626667,0.777 C17.941,0.293666667 17.3293333,0.000333333333 16.666,0.000333333333 C15.811,0.000333333333 15.0276667,0.482 14.6476667,1.24366667 L10.7176667,9.14533333 L1.92766667,10.4136667 C1.07933333,10.5353333 0.374333333,11.1253333 0.111,11.9336667 C-0.154,12.7403333 0.066,13.6286667 0.681,14.222 L0.786,14.3253333 C0.791,14.3286667 0.794333333,14.3353333 0.799333333,14.3403333 L0.904333333,14.4436667 C0.909333333,14.4486667 0.912666667,14.4553333 0.917666667,14.4603333 L1.02433333,14.562 C1.02933333,14.567 1.03266667,14.5736667 1.036,14.5786667 L1.14266667,14.6803333 C1.14933333,14.6853333 1.151,14.692 1.156,14.697 L1.26266667,14.802 C1.26766667,14.8053333 1.26933333,14.812 1.27433333,14.8153333 L1.38266667,14.9186667 C1.386,14.9253333 1.38766667,14.932 1.39266667,14.9353333 L1.501,15.0386667 C1.506,15.0436667 1.50933333,15.0503333 1.51433333,15.0553333 L1.61933333,15.1586667 C1.62433333,15.162 1.62766667,15.1686667 1.63266667,15.1736667 L1.73766667,15.277 C1.74266667,15.282 1.746,15.2886667 1.751,15.2936667 L1.85766667,15.3953333 C1.86266667,15.4003333 1.866,15.407 1.86933333,15.412 L1.976,15.5136667 C1.98266667,15.5186667 1.98433333,15.5253333 1.98933333,15.5303333 L2.096,15.6353333 C2.101,15.6386667 2.10266667,15.6453333 2.10766667,15.6486667 L2.216,15.752 C2.21933333,15.7586667 2.221,15.7653333 2.226,15.7686667 L2.33433333,15.872 C2.33933333,15.877 2.34266667,15.8836667 2.34766667,15.8886667 L2.45266667,15.992 C2.45766667,15.9953333 2.461,16.002 2.466,16.007 L2.571,16.1103333 C2.576,16.1153333 2.57933333,16.122 2.58433333,16.127 L2.691,16.2286667 C2.696,16.2336667 2.69933333,16.2403333 2.70266667,16.2453333 L2.80933333,16.347 C2.816,16.352 2.81766667,16.3586667 2.82266667,16.3636667 L2.92933333,16.4686667 C2.93433333,16.472 2.936,16.4786667 2.941,16.482 L3.04933333,16.5853333 C3.05266667,16.592 3.05433333,16.5986667 3.05933333,16.602 L3.16766667,16.7053333 C3.17266667,16.7103333 3.176,16.717 3.181,16.722 L3.286,16.8253333 C3.291,16.8286667 3.29433333,16.8353333 3.29933333,16.8403333 L3.40433333,16.9436667 C3.40933333,16.9486667 3.41266667,16.9553333 3.41766667,16.9603333 L3.52433333,17.062 C3.52933333,17.067 3.53266667,17.0736667 3.536,17.0786667 L3.64266667,17.1803333 C3.64933333,17.1853333 3.651,17.192 3.656,17.197 L3.76266667,17.302 C3.76766667,17.3053333 3.76933333,17.312 3.77433333,17.3153333 L3.88266667,17.4186667 C3.886,17.4253333 3.88766667,17.432 3.89266667,17.4353333 L4.001,17.5386667 C4.006,17.5436667 4.00933333,17.5503333 4.01433333,17.5553333 L7.02433333,20.4653333 L5.53933333,29.057 C5.421,29.737 5.641,30.4136667 6.09433333,30.9153333 C6.12766667,30.9586667 6.17433333,30.992 6.21266667,31.0336667 C6.246,31.077 6.29433333,31.1103333 6.331,31.152 C6.36766667,31.197 6.41266667,31.2303333 6.45266667,31.272 C6.486,31.3153333 6.53266667,31.3486667 6.571,31.3903333 C6.60433333,31.4336667 6.65266667,31.4686667 6.68933333,31.5086667 C6.72433333,31.552 6.771,31.587 6.80766667,31.627 C6.84266667,31.6736667 6.88933333,31.7053333 6.92766667,31.7486667 C6.961,31.792 7.00766667,31.8253333 7.046,31.867 C7.07933333,31.9103333 7.12766667,31.9436667 7.16433333,31.9853333 C7.201,32.0303333 7.246,32.0636667 7.286,32.1053333 C7.31933333,32.1486667 7.366,32.182 7.40433333,32.2236667 C7.43766667,32.267 7.486,32.302 7.52266667,32.342 C7.55766667,32.3853333 7.60433333,32.4203333 7.641,32.4603333 C7.67266667,32.502 7.71766667,32.5303333 7.75266667,32.5686667 C7.756,32.572 7.75766667,32.577 7.761,32.582 C7.79433333,32.6253333 7.841,32.6586667 7.87933333,32.7003333 C7.91266667,32.7436667 7.961,32.777 7.99766667,32.8186667 C8.03433333,32.8636667 8.07933333,32.897 8.11933333,32.9386667 C8.15266667,32.982 8.19933333,33.0153333 8.23766667,33.057 C8.271,33.1003333 8.31933333,33.1353333 8.356,33.1753333 C8.391,33.2186667 8.43766667,33.2536667 8.47433333,33.2936667 C8.50933333,33.3403333 8.556,33.372 8.59433333,33.4153333 C8.62766667,33.4586667 8.67433333,33.492 8.71266667,33.5336667 C8.746,33.577 8.79433333,33.6103333 8.831,33.652 C8.86766667,33.697 8.91266667,33.7303333 8.95266667,33.772 C8.986,33.8153333 9.03266667,33.8486667 9.071,33.8903333 C9.10433333,33.9336667 9.15266667,33.9686667 9.18933333,34.0086667 C9.22433333,34.052 9.271,34.087 9.30766667,34.127 C9.43766667,34.2953333 9.58933333,34.447 9.76766667,34.5736667 C10.461,35.0736667 11.3793333,35.1386667 12.1376667,34.7453333 L19.9993333,30.6436667 L27.861,34.7453333 C28.191,34.9153333 28.551,35.0003713 28.9093333,35.0003713 C29.3743333,35.0003713 29.841,34.857 30.2326667,34.5736667 C30.9243333,34.0736667 31.2726667,33.227 31.1276667,32.3903333 L29.626,23.7053333 L35.986,17.5553333 C36.5993333,16.962 36.821,16.0736667 36.556,15.2653333"/>
      <path fill="#C4AC8E" d="M33.2226667,11.932 C32.9576667,11.1253333 32.2543333,10.5353333 31.406,10.4136667 L22.616,9.14533333 L18.6843333,1.24366667 C18.306,0.482 17.5226667,0.000333333333 16.666,0.000333333333 C15.811,0.000333333333 15.0276667,0.482 14.6476667,1.24366667 L10.7176667,9.14533333 L1.92766667,10.4136667 C1.07933333,10.5353333 0.374333333,11.1253333 0.111,11.9336667 C-0.154,12.7403333 0.066,13.6286667 0.681,14.222 L7.041,20.372 L5.53933333,29.057 C5.39433333,29.8936667 5.741,30.7403333 6.43433333,31.2403333 C7.12766667,31.7403333 8.046,31.8053333 8.80433333,31.412 L16.666,27.3103333 L24.5293333,31.412 C24.8576667,31.582 25.2176667,31.6670379 25.576,31.6670379 C26.041,31.6670379 26.5076667,31.5236667 26.8993333,31.2403333 C27.591,30.7403333 27.9393333,29.8936667 27.7943333,29.057 L26.2926667,20.372 L32.6526667,14.222 C33.266,13.6286667 33.4876667,12.7403333 33.2226667,11.932"/>
    </g>
  </g>
</svg>
