<svg xmlns="http://www.w3.org/2000/svg" xmlns:xlink="http://www.w3.org/1999/xlink" width="80" height="80" viewBox="0 0 80 80">
  <defs>
    <path id="lakes-a" d="M2,0 L74.6666667,0 C75.7712362,-4.2495073e-16 76.6666667,0.8954305 76.6666667,2 L76.6666667,21.3333333 C76.6666667,22.4379028 75.7712362,23.3333333 74.6666667,23.3333333 L2,23.3333333 C0.8954305,23.3333333 7.58047522e-13,22.4379028 7.57912251e-13,21.3333333 L7.57912251e-13,2 C7.57776981e-13,0.8954305 0.8954305,2.02906125e-16 2,0 Z"/>
  </defs>
  <g fill="none" fill-rule="evenodd">
    <g transform="translate(1.042 18.333)">
      <g transform="translate(.625 35)">
        <mask id="lakes-b" fill="#fff">
          <use xlink:href="#lakes-a"/>
        </mask>
        <use fill="#00837A" xlink:href="#lakes-a"/>
        <path fill="#C4AC8E" d="M43.3333333,23.3333333 C43.3333333,21.0367138 43.3333333,19.3402377 43.3333333,11.6666667 C18.3333333,11.6666667 -1.18423789e-14,15 -1.18423789e-14,23.3333333 C3.43215634,23.3333333 39.7095988,23.3333333 43.3333333,23.3333333 Z" mask="url(#lakes-b)" transform="matrix(-1 0 0 1 43.333 0)"/>
      </g>
      <g transform="translate(2.292)">
        <rect width="48.333" height="3.333" x="3.333" y="40" fill="#FFF" rx="1.667"/>
        <rect width="13.333" height="3.333" x="56.667" y="40" fill="#FFF" rx="1.667" transform="matrix(-1 0 0 1 126.667 0)"/>
        <rect width="21.667" height="3.333" x="48.333" y="48.333" fill="#FFF" rx="1.667" transform="matrix(-1 0 0 1 118.333 0)"/>
        <g fill-rule="nonzero">
          <path fill="#C4AC8E" d="M11.3666954,50 L8.63330408,50 C8.46766169,50 8.33333333,49.8593352 8.33333333,49.6858793 L8.33333333,28.3333333 L11.6666667,28.3333333 L11.6666667,49.6855728 C11.6669588,49.8593352 11.5326305,50 11.3666954,50 L11.3666954,50 Z"/>
          <path fill="#13A0BF" d="M19.9280379,28.6306819 L12.6648514,7.01972313 L10.8390483,0.843058676 C10.5089874,-0.274928736 9.54774676,-0.282728594 9.21091221,0.830058766 L7.35370403,6.96252388 L0.0720440004,28.6306819 C-0.132396688,29.2390753 0.122538308,30 0.531419686,30 L19.4686623,30 C19.8769277,30 20.1324786,29.2390753 19.9280379,28.6306819 L19.9280379,28.6306819 Z"/>
        </g>
        <g transform="translate(13.333 8.333)">
          <rect width="3.333" height="25" x="6.667" y="18.333" fill="#C4AC8E" rx="1.667"/>
          <path fill="#0F8099" fill-rule="nonzero" d="M10.5540428,5.84976928 L9.03254025,0.702548897 C8.75748952,-0.22910728 7.95645563,-0.235607161 7.67576018,0.691715638 L6.12808669,5.80210323 L0.060036667,23.8589016 C-0.110330574,24.3658961 0.102115257,25 0.442849738,25 L16.2238852,25 C16.5641064,25 16.7770655,24.3658961 16.6066983,23.8589016 L10.5540428,5.84976928 Z"/>
        </g>
      </g>
    </g>
    <g fill-rule="nonzero" transform="translate(33.333 3.333)">
      <path fill="#C4AC8E" d="M21.6666667,10.0003811 C21.6666667,15.5228089 17.1894756,20 11.6662855,20 C6.14385765,20 1.66666667,15.5228089 1.66666667,10.0003811 C1.66666667,4.47719105 6.14385765,0 11.6662855,0 C17.1894756,0 21.6666667,4.47719105 21.6666667,10.0003811 L21.6666667,10.0003811 Z"/>
      <path fill="#EBECEE" d="M43.3333333,23.7935924 C43.3333333,28.16619 39.8001901,31.6666667 35.5076263,31.6666667 L5.78822131,31.6666667 C2.59355505,31.6666667 0,29.0599642 0,25.8446425 C0,22.6276551 2.59156786,20.0209526 5.78822131,20.0209526 L9.05045057,20.0209526 C9.05045057,20.0149564 9.04978815,20.0069614 9.04978815,20.000632 C9.04978815,13.1915586 14.8363535,7.78460807 21.6665011,8.37790353 C26.5336808,8.80397032 30.5381086,12.2531458 31.8174986,16.8482709 C32.917052,16.2563079 34.1719338,15.9198517 35.5059704,15.9198517 C39.8293348,15.9198517 43.3333333,19.4449796 43.3333333,23.7935924 L43.3333333,23.7935924 Z" transform="matrix(-1 0 0 1 43.333 0)"/>
    </g>
  </g>
</svg>
