<svg xmlns="http://www.w3.org/2000/svg" width="80" height="80" viewBox="0 0 80 80">
  <g fill="none" transform="translate(13.333 6.667)">
    <path fill="#13A0BF" d="M25,15 L20,15 C17.2387275,15 15,17.0352068 15,19.5454545 L15,40 L30,40 L30,19.5454545 C30,17.0352068 27.7612725,15 25,15 Z"/>
    <path fill="#C4AC8E" d="M29.9553938,3.33333333 L18.5163839,4.49994693 C18.3942951,4.88138831 18.3333333,5.27344372 18.3333333,5.66656053 L18.3333333,10.3332803 C18.3333333,12.9104973 20.9351959,15 24.1443636,15 C27.3535312,15 29.9553938,12.9104973 29.9553938,10.3332803 L29.9553938,5.6666932 C30.0148687,4.88961418 30.0148687,4.11027968 29.9553938,3.33333333 Z"/>
    <path fill="#005B76" d="M33.3625261,62.8769779 L23.9927522,46.8227816 L23.1360815,52.0551995 C23.1360815,53.419487 22.7077169,54.7183713 21.9447555,55.806537 C21.2228056,56.8362105 20.1998758,57.6774048 18.9590874,58.1957566 L9.46342987,63.3564323 L5,56.6666667 L14.976916,51.6666003 L14.976916,40.0283017 L15,40 L22.488458,40 L29.976916,40 L40.3605759,57.912858 L33.3625261,62.8769779 Z"/>
    <path fill="#13A0BF" d="M35.9227308,2.69419767 L31.1355489,5.19646292 L28.6810422,6.49064229 L20.3686935,10.8418344 L19.0801932,11.5097531 C18.8908248,11.6083441 18.6822546,11.6618053 18.4703738,11.6666667 C17.9519279,11.6673598 17.4778446,11.3583953 17.2500728,10.8703008 C17.1997511,10.7717098 17.1633342,10.6661758 17.1414839,10.5571704 C16.8236627,9.68582127 16.6627656,8.76031625 16.6666667,7.82717405 C16.6700491,4.55839912 18.612069,1.63677532 21.5353621,0.501591117 C24.4586551,-0.632898647 27.7467804,0.258585423 29.7795118,2.73655006 L34.7017678,0.148885759 C35.3725029,-0.20034831 36.1855955,0.0857042109 36.5193078,0.788338073 C36.6828533,1.12368592 36.7113247,1.51388386 36.5994252,1.87144956 C36.4875257,2.22970951 36.2438628,2.52548218 35.9227308,2.69419767 L35.9227308,2.69419767 Z"/>
    <path fill="#C4AC8E" d="M46.0867483,21.5553432 C45.1246787,20.2304825 43.3039376,19.9614025 42.0216674,20.9552892 C41.9113316,21.0402038 41.8082003,21.1335272 41.7108059,21.2340186 L35.8659429,27.2730181 L30,20 L30,29.6973574 L30.5127213,30.491364 C32.406308,33.4235368 36.2415116,34.2163028 39.0806242,32.2599587 C39.4196367,32.02603 39.7353012,31.7592934 40.0226813,31.4611274 L45.8171127,25.4742346 C46.8376189,24.4184539 46.9526243,22.7493858 46.0867483,21.5553432 Z"/>
    <g fill="#005B76" transform="translate(3.356 13.1)">
      <path d="M15.9072789,0.297153996 L6.64358264,0.297153996 L6.64358264,2.67809993 L15.9072789,2.67809993 C17.7050185,2.67931836 19.161025,4.07577354 19.1597525,5.79714317 C19.1597525,6.26732144 19.0479151,6.73167832 18.8339961,7.15433785 L9.77672533,22.4958371 L6.64358264,22.8529722 L6.64358264,25.2339181 L10.1868899,24.7446511 C11.0036844,24.631608 11.707369,24.1386857 12.068048,23.4279354 L21.0656533,8.19595939 C22.4506834,5.46505353 21.2609092,2.17570098 18.4087031,0.849508543 C17.6292349,0.486416657 16.7738417,0.298372425 15.9072789,0.297153996 Z"/>
      <path d="M0.0128367703,23.1505493 C0.0128367703,25.2218824 1.75384427,26.9005848 3.90172566,26.9005848 L7.79061455,26.9005848 C9.93864336,26.9005848 11.6795034,25.2217402 11.6795034,23.1505493 L11.6795034,21.9005848 L0.0128367703,21.9005848 C0.0128367703,21.9005848 0.0128367703,23.1505493 0.0128367703,23.1505493 Z"/>
    </g>
    <path fill="#00837A" d="M5.4513869,67.6862573 L1.00850023,58.5228735 L5.77474934,56.62171 L10.1206847,65.2663737 C10.8222484,66.6618804 10.5539105,67.8433432 9.31567109,68.8107618 C8.07743165,69.7781805 6.78933692,69.4033457 5.4513869,67.6862573 Z" transform="rotate(-7 5.755 62.978)"/>
    <path fill="#00837A" d="M33.3124102,62.0074693 L41.508103,57.7483566 C42.903885,57.1126871 44.6001688,57.6274825 45.2974134,58.899869 C45.9948016,60.1723865 45.428847,61.7189988 44.0343578,62.3546682 L35.5748603,66.8136251 L33.3124102,62.0074693 Z" transform="rotate(-8 39.454 62.145)"/>
    <path fill="#005B76" d="M14.8156731,16.0784417 C14.2661054,14.4328135 12.7960709,13.3319299 11.1470732,13.3333333 L7.25823341,13.3333333 C5.11023174,13.3333333 3.36939366,15.1767255 3.36939366,17.4509172 L3.36939366,36.6666667 L15.0360603,36.6666667 L15.0360603,17.4509172 L14.8156731,16.0784417 Z"/>
    <polygon fill="#525468" points="44.306 14.618 46.757 14.63 47.02 67.665 44.569 67.653" transform="rotate(166.909 45.663 41.142)"/>
    <path fill="#C4AC8E" d="M22.47125,20.6377519 L15.522126,24.9979373 L23.66945,31.0289148 C25.0449138,31.9758605 25.4138842,33.8896642 24.4937745,35.305245 C24.4650253,35.3496966 24.4350499,35.392746 24.4038482,35.4359356 L24.4038482,35.4359356 C23.4500843,36.7417196 21.6733583,37.0549843 20.351714,36.1510879 L10.3222051,28.8328363 C9.07849697,27.9770374 8.33210857,26.5380388 8.33333333,24.9979373 L8.33333333,24.9979373 C8.33333333,23.4578358 9.08094951,22.0188372 10.3269739,21.1643003 L19.1584191,15.5155788 C20.4799272,14.6116824 22.2567894,14.9249471 23.2105533,16.2307311 L23.2105533,16.2307311 C24.1990615,17.5956904 23.9258762,19.5267418 22.5994631,20.5452028 C22.5574975,20.5773145 22.5144419,20.6081642 22.47125,20.6377519 Z"/>
  </g>
</svg>
