<svg xmlns="http://www.w3.org/2000/svg" width="80" height="80" viewBox="0 0 80 80">
  <g fill="none" fill-rule="evenodd">
    <rect width="75" height="75" x="2.5" y="2.5" stroke="#0F8099" stroke-width="5" rx="37.5"/>
    <path fill="#0F8099" fill-rule="nonzero" d="M49.2592593,23.3333333 L27.037037,23.3333333 C24.9814815,23.3333333 23.3333333,25 23.3333333,27.037037 L23.3333333,52.962963 C23.3333333,55 24.9814815,56.6666667 27.037037,56.6666667 L52.962963,56.6666667 C55,56.6666667 56.6666667,55 56.6666667,52.962963 L56.6666667,30.7407407 L49.2592593,23.3333333 Z M40,52.962963 C36.9259259,52.962963 34.4444444,50.4814815 34.4444444,47.4074074 C34.4444444,44.3333333 36.9259259,41.8518519 40,41.8518519 C43.0740741,41.8518519 45.5555556,44.3333333 45.5555556,47.4074074 C45.5555556,50.4814815 43.0740741,52.962963 40,52.962963 Z M45.5555556,34.4444444 L27.037037,34.4444444 L27.037037,27.037037 L45.5555556,27.037037 L45.5555556,34.4444444 Z"/>
  </g>
</svg>
