<svg xmlns="http://www.w3.org/2000/svg" width="80" height="80" viewBox="0 0 80 80">
  <g fill="none" fill-rule="evenodd">
    <rect width="75" height="75" x="2.5" y="2.5" stroke="#0F8099" stroke-width="5" rx="37.5"/>
    <path fill="#0F8099" d="M42.9166667,47.2200874 L49.4427203,40.5184409 C49.9916751,39.9547157 50.8817066,39.9547157 51.4306614,40.5184409 L52.9216172,42.0495131 C53.470572,42.6132383 53.470572,43.5272174 52.9216172,44.0909426 L40.9939706,56.3395198 C40.4450158,56.903245 39.5549842,56.903245 39.0060294,56.3395198 L27.0783828,44.0909426 C26.529428,43.5272174 26.529428,42.6132383 27.0783828,42.0495131 L28.5693386,40.5184409 C29.1182934,39.9547157 30.0083249,39.9547157 30.5572797,40.5184409 L37.0833333,47.2200874 L37.0833333,25 C37.0833333,24.0795254 37.8295254,23.3333333 38.75,23.3333333 L41.25,23.3333333 C42.1704746,23.3333333 42.9166667,24.0795254 42.9166667,25 L42.9166667,47.2200874 Z"/>
  </g>
</svg>
