<svg xmlns="http://www.w3.org/2000/svg" width="80" height="80" viewBox="0 0 80 80">
  <g fill="none" fill-rule="evenodd">
    <rect width="75" height="75" x="2.5" y="2.5" stroke="#0F8099" stroke-width="5" rx="37.5"/>
    <path fill="#0F8099" d="M56.555504,35.265 C56.290504,34.4583333 55.5871707,33.8683333 54.7388374,33.7466667 L45.9488374,32.4783333 L42.0171707,24.5766667 C41.6388374,23.815 40.855504,23.3333333 39.9988374,23.3333333 C39.1438374,23.3333333 38.360504,23.815 37.980504,24.5766667 L34.050504,32.4783333 L25.260504,33.7466667 C24.4121707,33.8683333 23.7071707,34.4583333 23.4438374,35.2666667 C23.1788374,36.0733333 23.3988374,36.9616667 24.0138374,37.555 L30.3738374,43.705 L28.8721707,52.39 C28.7271707,53.2266667 29.0738374,54.0733333 29.7671707,54.5733333 C30.460504,55.0733333 31.3788374,55.1383333 32.1371707,54.745 L39.9988374,50.6433333 L47.8621707,54.745 C48.190504,54.915 48.550504,55.0000379 48.9088374,55.0000379 C49.3738374,55.0000379 49.840504,54.8566667 50.2321707,54.5733333 C50.9238374,54.0733333 51.2721707,53.2266667 51.1271707,52.39 L49.625504,43.705 L55.985504,37.555 C56.5988374,36.9616667 56.820504,36.0733333 56.555504,35.265"/>
  </g>
</svg>
