<svg xmlns="http://www.w3.org/2000/svg" width="80" height="80" viewBox="0 0 80 80">
  <g fill="none" fill-rule="evenodd">
    <path fill="#00837A" d="M17,25 L21.3317325,25 C23.0300468,25 24.5432165,26.0724341 25.1058496,27.6748433 L32.5949102,49.0040883 C32.9608421,50.046282 32.4126236,51.1877933 31.37043,51.5537252 C31.1575232,51.6284804 30.933501,51.6666667 30.7078516,51.6666667 L10,51.6666667 L10,51.6666667 L10,32 C10,28.1340068 13.1340068,25 17,25 Z"/>
    <path fill="#197670" d="M4.93838369,-0.150768448 L5.93838369,-0.150768448 C6.35259725,-0.150768448 6.68838369,0.18501799 6.68838369,0.599231552 L6.68838369,19.0992316 C6.68838369,19.5134451 6.35259725,19.8492316 5.93838369,19.8492316 L4.93838369,19.8492316 C4.52417013,19.8492316 4.18838369,19.5134451 4.18838369,19.0992316 L4.18838369,0.599231552 C4.18838369,0.18501799 4.52417013,-0.150768448 4.93838369,-0.150768448 Z" transform="rotate(-20 102.734 -16.852)"/>
    <path fill="#AC9981" d="M45.3387913,32.2671796 L64.3175108,46.2514992 C65.6513709,47.2343435 65.9359255,49.1124036 64.9530812,50.4462638 C64.3876302,51.2136615 63.4911367,51.6666667 62.5379136,51.6666667 L17.4620864,51.6666667 C15.8052321,51.6666667 14.4620864,50.3235209 14.4620864,48.6666667 C14.4620864,47.7134436 14.9150915,46.8169501 15.6824892,46.2514992 L34.6612087,32.2671796 C37.8360136,29.9278496 42.1639864,29.9278496 45.3387913,32.2671796 Z"/>
    <rect width="26.667" height="1.667" x="26.667" y="43.333" fill="#928471" rx=".833"/>
    <rect width="10" height="8.333" x="35" y="43.333" fill="#928471"/>
    <rect width="11.667" height="6.667" x="41.667" y="45" fill="#AC9981" rx="2"/>
    <rect width="11.667" height="6.667" x="26.667" y="45" fill="#AC9981" rx="2"/>
    <g fill-rule="nonzero" transform="translate(8.333 3.333)">
      <path fill="#525468" d="M0.490960256,11.8941163 L0.490960256,9.32858863 C0.490960256,1.77702948 9.02807029,-2.59202956 15.1529882,1.6748058 C19.9573099,5.02917544 19.0422647,9.96189774 19.1479277,11.8941163"/>
      <path fill="#C4AC8E" d="M5.19568886,0.106246366 L5.3061731,0.117674177 C8.20005851,0.56707621 10.9991721,0.593444186 13.9435961,0.175473546 C14.0416162,0.161620805 14.1945695,0.13916981 14.333097,0.117674177 C14.9257077,0.0253862601 15.5400051,0.434089894 15.5671374,1.18003612 C15.6443306,3.32434493 17.2599423,3.89737073 17.2878389,3.91819761 L17.2878389,3.91819761 L17.2723587,3.91819761 C18.5560779,3.91819761 19.5967532,4.75585854 19.5967532,5.83083126 C19.5967532,6.8954811 18.5761504,7.7603765 17.3096109,7.77703981 C17.2945964,9.20306706 17.1901591,10.1205738 16.7664026,11.1910778 C14.6091964,16.6422748 7.33383227,17.5394547 3.85889602,12.9438795 C3.25902456,12.1509295 2.80045106,11.2162994 2.55243922,10.1707518 C2.3923703,9.49392773 2.35326947,9.11198847 2.34675299,7.77775148 C1.0651504,7.77545864 0.0266545848,6.9047732 0.0266545848,5.83083126 C0.0266545848,4.75585854 1.06732983,3.91819761 2.35114456,3.91819761 L2.35114456,3.91819761 L2.36187265,3.91377346 C2.4098698,3.89475116 2.60919831,3.81579348 2.86914155,3.6255704 C3.57104561,3.11235022 4.03172091,2.28835096 4.0721327,1.18013166 C4.09888282,0.428166653 4.71805258,0.0260550131 5.3061731,0.117674177 Z" transform="translate(0 6.898)"/>
    </g>
    <path fill="#525468" d="M3.33333333 63.3333333L11.6666667 63.3333333 11.6666667 74.6666667C11.6666667 75.7712362 10.7712362 76.6666667 9.66666667 76.6666667L5.33333333 76.6666667C4.22876383 76.6666667 3.33333333 75.7712362 3.33333333 74.6666667L3.33333333 63.3333333 3.33333333 63.3333333zM68.3333333 63.3333333L76.6666667 63.3333333 76.6666667 74.6666667C76.6666667 75.7712362 75.7712362 76.6666667 74.6666667 76.6666667L70.3333333 76.6666667C69.2287638 76.6666667 68.3333333 75.7712362 68.3333333 74.6666667L68.3333333 63.3333333 68.3333333 63.3333333z"/>
    <g fill-rule="nonzero" transform="translate(29.167 23.333)">
      <path fill="#525468" d="M21.4629292,14.1402186 C21.5259309,13.4904079 21.5584528,12.8687251 21.5584528,12.2861885 C21.5584528,5.17143958 16.7079802,1.46549439e-13 10.7243571,1.46549439e-13 C4.740734,1.46549439e-13 0.0011938999,5.17143958 0.0011938999,12.2861885 C0.0011938999,12.8923847 -0.0187667079,13.5486386 0.104544594,14.2195376 C0.778971678,17.8888889 7.35404546,21.4419711 10.7789717,21.4419711 C14.2038979,21.4419711 21.1664377,17.1982839 21.4629292,14.1402186 Z"/>
      <path fill="#C4AC8E" d="M18.0830531,11.8568878 C18.0829987,11.5300574 17.8613451,11.244624 17.5446737,11.1638942 C14.7555319,10.4529727 12.6001674,9.2156781 11.1350259,8.14766604 C9.80771163,7.23953797 8.96276572,6.25573257 8.98129119,6.27572486 C8.92484556,6.21487876 8.82559036,6.22617875 8.78489953,6.29854215 C8.42118109,6.94535794 6.82234112,9.47112307 3.79807257,9.94648324 C3.71886398,9.9807635 3.66757941,10.0585596 3.66671018,10.1448307 C3.66611258,10.2061114 3.6657323,10.2660883 3.6657323,10.3284012 C3.66551499,11.4035844 3.66508037,14.5283033 3.66508037,14.5341706 C3.66508037,18.3682356 6.93773141,21.4905642 10.9533025,21.4413984 C14.8498434,21.4073354 18.083542,18.3687246 18.083542,14.5263476 C18.083542,14.3911823 18.0832704,13.0580551 18.0830531,11.8568878 Z"/>
    </g>
    <path fill="#0F8099" d="M5.33333333,51.6666667 L74.6666667,51.6666667 C75.7712362,51.6666667 76.6666667,52.5620972 76.6666667,53.6666667 L76.6666667,63.3333333 L76.6666667,63.3333333 L3.33333333,63.3333333 L3.33333333,53.6666667 C3.33333333,52.5620972 4.22876383,51.6666667 5.33333333,51.6666667 Z"/>
  </g>
</svg>
