<svg xmlns="http://www.w3.org/2000/svg" xmlns:xlink="http://www.w3.org/1999/xlink" width="64" height="64" viewBox="0 0 64 64">
  <defs>
    <rect id="hover-b" width="60" height="60" x="0" y="0" rx="30"/>
    <filter id="hover-a" width="126.7%" height="126.7%" x="-13.3%" y="-11.7%" filterUnits="objectBoundingBox">
      <feOffset dy="1" in="SourceAlpha" result="shadowOffsetOuter1"/>
      <feGaussianBlur in="shadowOffsetOuter1" result="shadowBlurOuter1" stdDeviation="2.5"/>
      <feComposite in="shadowBlurOuter1" in2="SourceAlpha" operator="out" result="shadowBlurOuter1"/>
      <feColorMatrix in="shadowBlurOuter1" result="shadowMatrixOuter1" values="0 0 0 0 0   0 0 0 0 0   0 0 0 0 0  0 0 0 0.2 0"/>
      <feMorphology in="SourceAlpha" radius="1" result="shadowSpreadOuter2"/>
      <feOffset dy="3" in="shadowSpreadOuter2" result="shadowOffsetOuter2"/>
      <feGaussianBlur in="shadowOffsetOuter2" result="shadowBlurOuter2" stdDeviation=".5"/>
      <feComposite in="shadowBlurOuter2" in2="SourceAlpha" operator="out" result="shadowBlurOuter2"/>
      <feColorMatrix in="shadowBlurOuter2" result="shadowMatrixOuter2" values="0 0 0 0 0   0 0 0 0 0   0 0 0 0 0  0 0 0 0.12 0"/>
      <feOffset dy="2" in="SourceAlpha" result="shadowOffsetOuter3"/>
      <feGaussianBlur in="shadowOffsetOuter3" result="shadowBlurOuter3" stdDeviation="1"/>
      <feComposite in="shadowBlurOuter3" in2="SourceAlpha" operator="out" result="shadowBlurOuter3"/>
      <feColorMatrix in="shadowBlurOuter3" result="shadowMatrixOuter3" values="0 0 0 0 0   0 0 0 0 0   0 0 0 0 0  0 0 0 0.14 0"/>
      <feMerge>
        <feMergeNode in="shadowMatrixOuter1"/>
        <feMergeNode in="shadowMatrixOuter2"/>
        <feMergeNode in="shadowMatrixOuter3"/>
      </feMerge>
    </filter>
  </defs>
  <g fill="none" fill-rule="evenodd">
    <g transform="translate(2 2)">
      <use fill="#000" filter="url(#hover-a)" xlink:href="#hover-b"/>
      <use fill="#FF00B9" fill-opacity="0" xlink:href="#hover-b"/>
      <rect width="60" height="60" fill="#FFF" rx="30"/>
      <rect width="59" height="59" x=".5" y=".5" stroke="#000" opacity="0" rx="29.5"/>
    </g>
    <g transform="translate(15 15)">
      <path fill="#037092" d="M33.0039062,14.936957 L22.2638242,14.936957 L22.2638242,11.1318789 C22.2638242,9.2596875 21.2804805,7.61374219 19.8040039,6.68033594 C20.4999414,5.97091797 20.9301875,5.00005859 20.9301875,3.93012109 C20.9301211,1.76308594 19.1671016,0 17,0 C14.8328984,0 13.0698789,1.76308594 13.0698789,3.9301875 C13.0698789,5.00005859 13.500125,5.97098437 14.1960625,6.68040234 C12.7195859,7.61380859 11.7362422,9.2596875 11.7362422,11.1319453 L11.7362422,14.9370234 L0.99609375,14.9370234 C0.445984375,14.9370234 0,15.3830078 0,15.9331172 C0,16.4832266 0.445984375,16.9292109 0.99609375,16.9292109 L2.13383203,16.9292109 L2.13383203,33.0039062 C2.13383203,33.5540156 2.57981641,34 3.12992578,34 L30.8700078,34 C31.4201172,34 31.8661016,33.5540156 31.8661016,33.0039062 L31.8661016,16.9291445 L33.0039062,16.9291445 C33.5540156,16.9291445 34,16.4831602 34,15.9330508 C34,15.3829414 33.5540156,14.936957 33.0039062,14.936957 Z M15.0620664,3.9301875 C15.0620664,2.86157812 15.9313906,1.9921875 17,1.9921875 C18.0686094,1.9921875 18.9379336,2.86157812 18.9379336,3.9301875 C18.9379336,4.99879687 18.0686094,5.86812109 17,5.86812109 C15.9313906,5.86812109 15.0620664,4.99873047 15.0620664,3.9301875 Z M13.7283633,11.1318789 C13.7283633,9.32788672 15.1960078,7.86024219 17,7.86024219 C18.8039922,7.86024219 20.2716367,9.32788672 20.2716367,11.1318789 L20.2716367,14.936957 L13.7284297,14.936957 L13.7284297,11.1318789 L13.7283633,11.1318789 Z M29.8739805,32.0078125 L4.12601953,32.0078125 L4.12601953,16.9291445 L29.8739805,16.9291445 L29.8739805,32.0078125 L29.8739805,32.0078125 Z"/>
      <path fill="#5CD999" d="M16.0322658,19.3048482 C15.6329245,18.8983839 14.985333,18.8983839 14.5859236,19.3048482 C14.1865141,19.7113125 14.1865141,20.3702731 14.5859236,20.7767373 L17.221835,23.4592072 L13.5417863,23.4592072 L12.7458993,22.6492623 C12.346558,22.242798 11.6989665,22.242798 11.2995571,22.6492623 C10.9001476,23.0557266 10.9001476,23.7146872 11.2995571,24.1211514 L11.6718301,24.5 L11.2995571,24.8788486 C10.9001476,25.2853128 10.9001476,25.9442734 11.2995571,26.3507377 C11.6988983,26.757202 12.3464898,26.757202 12.7458993,26.3507377 L13.5417863,25.5407928 L17.221835,25.5407928 L14.5859236,28.2232627 C14.1865141,28.6297269 14.1865141,29.2886875 14.5859236,29.6951518 C14.9852648,30.1016161 15.6328563,30.1016161 16.0322658,29.6951518 L20.1145193,25.5407928 L22.9772718,25.5407928 C23.5420905,25.5407928 24,25.0747952 24,24.5 C24,23.9252048 23.5420905,23.4592072 22.9772718,23.4592072 L20.1145193,23.4592072 L16.0322658,19.3048482 Z"/>
    </g>
  </g>
</svg>
