<svg xmlns="http://www.w3.org/2000/svg" width="90" height="90" viewBox="0 0 90 90">
  <path fill="#037092" fill-rule="evenodd" d="M87.114037,0 L90,2.88535032 L2.88596305,90 L0,87.1146497 L9.49883202,77.6178344 L7.32002548,77.6178344 C3.3637715,77.6178344 0.133786367,74.388535 0.133786367,70.433121 L0.133786367,70.433121 L0.133786367,7.33757962 C0.133786367,3.36305732 3.3637715,0.152866242 7.32002548,0.152866242 L7.32002548,0.152866242 L70.4289658,0.152866242 C74.3852198,0.152866242 77.6152049,3.38216561 77.6152049,7.33757962 L77.6152049,7.33757962 L77.6152049,9.49681529 L87.114037,0 Z M85.6232746,13.0318471 C88.1078785,14.1592357 89.8471013,16.6624204 89.8471013,19.566879 L89.8471013,19.566879 L89.8471013,82.6624204 C89.8471013,86.6369427 86.6171162,89.8471338 82.6608622,89.8471338 L82.6608622,89.8471338 L19.5519219,89.8471338 C16.6468465,89.8471338 14.1431302,88.1082803 13.0155022,85.6242038 L13.0155022,85.6242038 L16.4557231,82.1847134 L16.4557231,82.6624204 C16.4557231,84.3630573 17.8318114,85.7579618 19.5519219,85.7579618 L19.5519219,85.7579618 L82.6608622,85.7579618 C84.3618603,85.7579618 85.7570609,84.3630573 85.7570609,82.6624204 L85.7570609,82.6624204 L85.7570609,19.566879 C85.7570609,17.866242 84.3809726,16.4713376 82.6608622,16.4713376 L82.6608622,16.4713376 L82.1830537,16.4713376 Z M77.6152049,21.0382166 L77.6152049,70.433121 C77.6152049,74.4076433 74.3852198,77.6178344 70.4289658,77.6178344 L70.4289658,77.6178344 L21.0235719,77.6178344 L25.0944999,73.5286624 L70.4480781,73.5286624 C72.1490762,73.5286624 73.5442769,72.133758 73.5442769,70.433121 L73.5442769,70.433121 L73.5442769,25.1082803 L77.6152049,21.0382166 Z M70.4289658,4.24203822 L7.32002548,4.24203822 C5.61902739,4.24203822 4.22382671,5.63694268 4.22382671,7.33757962 L4.22382671,7.33757962 L4.22382671,70.433121 C4.22382671,72.133758 5.59991506,73.5286624 7.32002548,73.5286624 L7.32002548,73.5286624 L7.32002548,73.5477707 L13.56976,73.5477707 L25.8016564,61.3184713 L10.3397749,61.3184713 C9.21214695,61.3184713 8.29475472,60.4012739 8.29475472,59.2738854 L8.29475472,59.2738854 L8.29475472,10.3566879 C8.29475472,9.22929936 9.21214695,8.31210191 10.3397749,8.31210191 L10.3397749,8.31210191 L67.4092164,8.31210191 C68.5368443,8.31210191 69.4542366,9.22929936 69.4542366,10.3566879 L69.4542366,10.3566879 L69.4542366,17.656051 L73.5251646,13.5859873 L73.5251646,7.33757962 C73.5251646,5.63694268 72.1490762,4.24203822 70.4289658,4.24203822 L70.4289658,4.24203822 Z M69.4733489,29.1974522 L69.4733489,59.2547771 C69.4733489,60.3821656 68.5559567,61.2993631 67.4283287,61.2993631 L67.4283287,61.2993631 L37.3455086,61.2993631 L41.4164366,57.2292994 L65.4024209,57.2292994 L65.4024209,47.7324841 L58.9806753,39.6878981 L61.9813124,36.6878981 L65.4024209,40.9299363 L65.4024209,33.2675159 L69.4733489,29.1974522 Z M52.0237842,31.0127389 L33.2936929,49.7388535 C32.9114462,50.1401274 32.3763007,50.3312102 31.8602676,50.3312102 C31.3442344,50.3312102 30.8282013,50.1401274 30.4268422,49.7388535 C29.6432364,48.9363057 29.6432364,47.6369427 30.4268422,46.8535032 L30.4268422,46.8535032 L33.0643449,44.2165605 L26.4514759,37.5095541 L12.3656827,48.0573248 L12.3656827,57.2292994 L29.8725844,57.2292994 L53.820344,33.2675159 L52.0237842,31.0127389 Z M65.3641962,12.4012739 L12.3656827,12.4012739 L12.3656827,42.9745223 L25.4194096,33.1910828 C26.2221278,32.5796178 27.3497558,32.656051 28.0760246,33.3821656 L28.0760246,33.3821656 L35.9503079,41.3503185 L50.8197069,26.4840764 C51.2401784,26.0636943 51.8326609,25.8535032 52.406031,25.8917197 C52.9985135,25.9299363 53.533659,26.2165605 53.8967934,26.6942675 L53.8967934,26.6942675 L56.8018688,30.3057325 L65.3641962,21.7452229 L65.3641962,12.4012739 Z M36.8294755,16.4522293 C41.3399873,16.4522293 44.9904438,20.1019108 44.9904438,24.611465 C44.9904438,29.1210191 41.3208749,32.7707006 36.8294755,32.7707006 C32.338076,32.7707006 28.6685071,29.1210191 28.6685071,24.611465 C28.6685071,20.1019108 32.3189637,16.4522293 36.8294755,16.4522293 Z M36.8294755,20.5414013 C34.5933319,20.5414013 32.7585475,22.3757962 32.7585475,24.611465 C32.7585475,26.8471338 34.5933319,28.6815287 36.8294755,28.6815287 C39.065619,28.6815287 40.9004035,26.866242 40.9004035,24.611465 C40.9004035,22.3757962 39.0847314,20.5414013 36.8294755,20.5414013 Z"/>
</svg>
