<svg xmlns="http://www.w3.org/2000/svg" width="24" height="24" viewBox="0 0 24 24">
  <path fill="#FFF" fill-rule="evenodd" d="M8,18 C6.9,18 6.01,18.9 6.01,20 C6.01,21.1 6.9,22 8,22 C9.1,22 10,21.1 10,20 C10,18.9 9.1,18 8,18 Z M2,2 L2,4 L4,4 L7.6,11.59 L6.25,14.03 C5.52,15.37 6.48,17 8,17 L20,17 L20,15 L8,15 L9.1,13 L16.55,13 C17.3,13 17.96,12.59 18.3,11.97 L21.88,5.48 C22.25,4.82 21.77,4 21.01,4 L6.21,4 L5.27,2 L2,2 Z M18,18 C16.9,18 16.01,18.9 16.01,20 C16.01,21.1 16.9,22 18,22 C19.1,22 20,21.1 20,20 C20,18.9 19.1,18 18,18 Z"/>
</svg>
