<?xml version="1.0" encoding="UTF-8"?>
<svg width="40px" height="40px" viewBox="0 0 40 40" version="1.1" xmlns="http://www.w3.org/2000/svg" xmlns:xlink="http://www.w3.org/1999/xlink">
    <title>components/interactions/delete</title>
    <g id="components/interactions/delete" stroke="none" stroke-width="1" fill="none" fill-rule="evenodd">
        <rect id="Rectangle" fill="#016E84" x="0" y="0" width="40" height="40" rx="20"></rect>
        <g id="delete-a-link" transform="translate(10.000000, 10.000000)" fill="#FFFFFF" fill-rule="nonzero">
            <path d="M12.9630828,9.9996856 L18.1361138,4.82707368 C18.9546288,4.00855876 18.9546288,2.68166768 18.1361138,1.86357186 C17.318437,1.04547604 15.9907078,1.04547604 15.173031,1.86357186 L10,7.037022 L4.8269689,1.86357186 C4.00929218,1.04547604 2.6815629,1.04547604 1.8638862,1.86357186 C1.04537126,2.6820868 1.04537126,4.00897786 1.8638862,4.82707368 L7.0364982,9.9996856 L1.8638862,15.1722976 C1.04537126,15.9908126 1.04537126,17.3177036 1.8638862,18.1357994 C2.272515,18.5452664 2.80939038,18.7493714 3.34542754,18.7493714 C3.88104562,18.7493714 4.4183401,18.5452664 4.8269689,18.1357994 L10,12.9631874 L15.173031,18.1362186 C15.582079,18.5456856 16.1185352,18.7497904 16.6545724,18.7497904 C17.1906096,18.7497904 17.727485,18.5456856 18.1361138,18.1362186 C18.9546288,17.3177036 18.9546288,15.9908126 18.1361138,15.1727168 L12.9630828,9.9996856 Z" id="delete-a"></path>
        </g>
    </g>
</svg>