<svg xmlns="http://www.w3.org/2000/svg" width="64" height="64" viewBox="0 0 64 64">
  <path fill-rule="evenodd" d="M22.0326457,0.135988113 C21.6717489,0.252527683 20.8652915,0.713456624 20.5682511,0.886771882 C21.1099552,2.07756723 21.4600897,3.79652589 21.4600897,5.28912885 C21.4600897,5.36084551 21.4593722,5.43106807 21.4579372,5.50129063 C21.3596413,9.69820925 20.5840359,13.6373961 19.1519283,17.2105292 C17.8324664,20.4781195 16.5983857,22.256095 15.3772197,22.6423191 C15.0973991,22.7289767 14.8484305,22.687142 14.6346188,22.5168149 C13.9867265,21.9998573 13.7061883,20.2435462 13.7765022,17.1470301 C13.7765022,17.145536 13.8109417,16.0862212 13.8109417,16.0862212 C13.8109417,16.0839801 13.8956054,14.3015223 13.8956054,14.3015223 C13.9365022,12.5280291 14.0383857,10.0523103 14.4667265,6.66444518 C14.5169507,6.3013796 14.5528251,5.84642705 14.558565,5.61708315 C14.56,5.53266667 14.5341704,5.47439688 14.4717489,5.43032102 C14.141704,5.19798893 13.1207175,5.44302084 12.8624215,5.53864305 C10.910852,10.1225328 8.34511211,16.4888804 5.23264574,24.4673586 L4.9406278,24.4105829 C4.78636771,18.1525574 4.42475336,13.2541602 3.86224215,9.85359534 C3.41524664,7.10669791 3.11390135,6.0735298 2.94026906,5.69104095 C2.71139013,5.20919465 2.36269058,5.06127905 1.84394619,5.22562972 C1.46008969,5.34665158 0.835156951,5.66190606 0,6.1489817 C0.274080717,6.76753788 0.799282511,8.2765759 0.82367713,8.34679847 C1.26421525,9.85434239 1.63013453,11.7481104 1.94367713,14.1461362 C2.33973094,17.2247232 2.53991031,20.5117367 2.53991031,23.9414365 C2.53991031,24.6317093 2.53130045,25.3287056 2.51479821,26.0309312 C2.47964126,27.5840451 2.34403587,28.9085621 2.12161435,30 C3.31910314,29.4352313 4.11479821,28.9481557 4.45345291,28.5559552 C4.81578475,28.1398492 5.33452915,27.0715698 5.99390135,25.3847342 C5.99318386,25.3877224 6.45811659,24.119234 6.45811659,24.119234 C7.65847534,20.9524953 9.40197309,16.8272933 11.6419731,11.8564324 L12.0021525,11.0212322 L11.9304036,11.9363666 C11.7302242,14.5465542 11.6089686,16.6278314 11.5766816,17.9530955 C11.5013453,21.1527043 11.6570404,23.3602327 12.0380269,24.5159168 C12.3946188,25.6178133 13.021704,26.0070256 13.9544395,25.7074592 C14.8391031,25.4303042 15.9088789,24.4486824 17.1350673,22.7902347 C18.3791928,21.1033991 19.5207175,19.0796446 20.5273543,16.7749999 C22.7343498,11.7466163 23.901704,7.05963385 24,2.84553312 L23.9921076,2.03498547 C23.9641256,1.21846143 23.8285202,0.646969305 23.5910314,0.33993236 C23.3104933,-0.0291096116 22.7867265,-0.0985851246 22.0326457,0.135988113 L22.0326457,0.135988113 Z" transform="translate(20 17)"/>
</svg>
