<svg xmlns="http://www.w3.org/2000/svg" xmlns:xlink="http://www.w3.org/1999/xlink" width="64" height="64" viewBox="0 0 64 64">
  <defs>
    <rect id="hover-b" width="60" height="60" x="0" y="0" rx="30"/>
    <filter id="hover-a" width="126.7%" height="126.7%" x="-13.3%" y="-11.7%" filterUnits="objectBoundingBox">
      <feOffset dy="1" in="SourceAlpha" result="shadowOffsetOuter1"/>
      <feGaussianBlur in="shadowOffsetOuter1" result="shadowBlurOuter1" stdDeviation="2.5"/>
      <feComposite in="shadowBlurOuter1" in2="SourceAlpha" operator="out" result="shadowBlurOuter1"/>
      <feColorMatrix in="shadowBlurOuter1" result="shadowMatrixOuter1" values="0 0 0 0 0   0 0 0 0 0   0 0 0 0 0  0 0 0 0.2 0"/>
      <feMorphology in="SourceAlpha" radius="1" result="shadowSpreadOuter2"/>
      <feOffset dy="3" in="shadowSpreadOuter2" result="shadowOffsetOuter2"/>
      <feGaussianBlur in="shadowOffsetOuter2" result="shadowBlurOuter2" stdDeviation=".5"/>
      <feComposite in="shadowBlurOuter2" in2="SourceAlpha" operator="out" result="shadowBlurOuter2"/>
      <feColorMatrix in="shadowBlurOuter2" result="shadowMatrixOuter2" values="0 0 0 0 0   0 0 0 0 0   0 0 0 0 0  0 0 0 0.12 0"/>
      <feOffset dy="2" in="SourceAlpha" result="shadowOffsetOuter3"/>
      <feGaussianBlur in="shadowOffsetOuter3" result="shadowBlurOuter3" stdDeviation="1"/>
      <feComposite in="shadowBlurOuter3" in2="SourceAlpha" operator="out" result="shadowBlurOuter3"/>
      <feColorMatrix in="shadowBlurOuter3" result="shadowMatrixOuter3" values="0 0 0 0 0   0 0 0 0 0   0 0 0 0 0  0 0 0 0.14 0"/>
      <feMerge>
        <feMergeNode in="shadowMatrixOuter1"/>
        <feMergeNode in="shadowMatrixOuter2"/>
        <feMergeNode in="shadowMatrixOuter3"/>
      </feMerge>
    </filter>
  </defs>
  <g fill="none" fill-rule="evenodd" transform="translate(2 2)">
    <use fill="#000" filter="url(#hover-a)" xlink:href="#hover-b"/>
    <use fill="#FF00B9" fill-opacity="0" xlink:href="#hover-b"/>
    <rect width="60" height="60" fill="#FFF" rx="30"/>
    <rect width="59" height="59" x=".5" y=".5" stroke="#000" opacity="0" rx="29.5"/>
    <path fill="#037092" d="M40.0326457,15.1359881 C39.6717489,15.2525277 38.8652915,15.7134566 38.5682511,15.8867719 C39.1099552,17.0775672 39.4600897,18.7965259 39.4600897,20.2891288 C39.4600897,20.3608455 39.4593722,20.4310681 39.4579372,20.5012906 C39.3596413,24.6982092 38.5840359,28.6373961 37.1519283,32.2105292 C35.8324664,35.4781195 34.5983857,37.256095 33.3772197,37.6423191 C33.0973991,37.7289767 32.8484305,37.687142 32.6346188,37.5168149 C31.9867265,36.9998573 31.7061883,35.2435462 31.7765022,32.1470301 C31.7765022,32.145536 31.8109417,31.0862212 31.8109417,31.0862212 C31.8109417,31.0839801 31.8956054,29.3015223 31.8956054,29.3015223 C31.9365022,27.5280291 32.0383857,25.0523103 32.4667265,21.6644452 C32.5169507,21.3013796 32.5528251,20.846427 32.558565,20.6170832 C32.56,20.5326667 32.5341704,20.4743969 32.4717489,20.430321 C32.141704,20.1979889 31.1207175,20.4430208 30.8624215,20.5386431 C28.910852,25.1225328 26.3451121,31.4888804 23.2326457,39.4673586 L22.9406278,39.4105829 C22.7863677,33.1525574 22.4247534,28.2541602 21.8622422,24.8535953 C21.4152466,22.1066979 21.1139013,21.0735298 20.9402691,20.691041 C20.7113901,20.2091947 20.3626906,20.061279 19.8439462,20.2256297 C19.4600897,20.3466516 18.835157,20.6619061 18,21.1489817 C18.2740807,21.7675379 18.7992825,23.2765759 18.8236771,23.3467985 C19.2642152,24.8543424 19.6301345,26.7481104 19.9436771,29.1461362 C20.3397309,32.2247232 20.5399103,35.5117367 20.5399103,38.9414365 C20.5399103,39.6317093 20.5313004,40.3287056 20.5147982,41.0309312 C20.4796413,42.5840451 20.3440359,43.9085621 20.1216143,45 C21.3191031,44.4352313 22.1147982,43.9481557 22.4534529,43.5559552 C22.8157848,43.1398492 23.3345291,42.0715698 23.9939013,40.3847342 C23.9931839,40.3877224 24.4581166,39.119234 24.4581166,39.119234 C25.6584753,35.9524953 27.4019731,31.8272933 29.6419731,26.8564324 L30.0021525,26.0212322 L29.9304036,26.9363666 C29.7302242,29.5465542 29.6089686,31.6278314 29.5766816,32.9530955 C29.5013453,36.1527043 29.6570404,38.3602327 30.0380269,39.5159168 C30.3946188,40.6178133 31.021704,41.0070256 31.9544395,40.7074592 C32.8391031,40.4303042 33.9088789,39.4486824 35.1350673,37.7902347 C36.3791928,36.1033991 37.5207175,34.0796446 38.5273543,31.7749999 C40.7343498,26.7466163 41.901704,22.0596339 42,17.8455331 L41.9921076,17.0349855 C41.9641256,16.2184614 41.8285202,15.6469693 41.5910314,15.3399324 C41.3104933,14.9708904 40.7867265,14.9014149 40.0326457,15.1359881 L40.0326457,15.1359881 Z"/>
  </g>
</svg>
