<svg xmlns="http://www.w3.org/2000/svg" width="347" height="195" viewBox="0 0 347 195">
  <g fill="none" fill-rule="evenodd">
    <path fill="#5CD999" d="M270.839991,47.9534404 C270.405677,41.2899939 264.755,36 257.871517,36 C255.401408,36 252.997801,36.6847502 250.920671,37.9803837 C249.361197,38.9530734 248.035864,40.235345 247.025718,41.7383703 C245.816068,41.0995399 244.454758,40.7579646 243.067038,40.7579646 C240.853174,40.7579646 238.766667,41.6004228 237.191788,43.1299837 C235.893151,44.3912715 235.06471,46.0006273 234.798132,47.7464251 C233.048436,48.2533303 231.469155,49.2546257 230.270222,50.63363 C228.806242,52.3173231 228,54.466142 228,56.684217 C228,61.8209255 232.249562,66 237.473006,66 L267.52709,66 C272.750438,66 277,61.8209255 277,56.6841229 C277,52.7422691 274.516974,49.2942409 270.839991,47.9534404 Z M267.52709,63.177064 L237.473006,63.177064 C233.832383,63.177064 230.87055,60.2643586 230.87055,56.6841229 C230.87055,53.4973104 233.186223,50.8043235 236.376743,50.2806688 C237.061369,50.168316 237.566203,49.5902728 237.575676,48.907781 C237.616534,45.970516 240.079944,43.5808065 243.067038,43.5808065 C244.350174,43.5808065 245.598959,44.0256072 246.58327,44.8332492 C246.920943,45.1103674 247.369036,45.2198032 247.799427,45.1305043 C248.229722,45.0411114 248.594569,44.7626758 248.789479,44.3748985 C250.510661,40.9503006 253.990724,38.8230301 257.871517,38.8230301 C263.454353,38.8230301 267.996233,43.2896677 267.996233,48.779902 C267.996233,48.8452059 267.994894,48.9101334 267.99365,48.9750609 C267.980254,49.6367571 268.436288,50.2186584 269.0902,50.3746726 C272.057296,51.0825709 274.12945,53.6772255 274.12945,56.6843111 C274.12945,60.2643586 271.167617,63.177064 267.52709,63.177064 Z"/>
    <g transform="translate(136 55)">
      <rect width="36" height="12.6" x="4.05" y="28.35" fill="#5CD999" transform="rotate(90 22.05 34.65)"/>
      <path fill="#037092" d="M74.304,36.288 L71.173296,36.288 L70.846056,29.254608 L67.393944,29.415312 L67.55292,32.832 L65.664,32.832 C65.0095284,32.8320222 64.4112324,33.2017867 64.11852,33.787152 L62.868096,36.288 L46.449936,36.288 C46.5857257,35.3835069 46.6546006,34.4702282 46.656,33.5556 C46.664578,30.4222153 45.4202645,27.4154096 43.2,25.204392 L43.2,22.170456 C45.2722643,21.4378003 46.6572438,19.4779677 46.656,17.28 L46.656,10.070784 C49.0352763,9.22844068 50.4620884,6.79494286 50.0352472,4.30731251 C49.6084061,1.81968217 47.4519844,0 44.928,0 L36.288,0 C33.4262882,0.00321400519 31.107214,2.3222882 31.104,5.184 L31.104,15.552 L34.56,15.552 L34.56,12.811824 L37.003608,10.368 L43.2,10.368 L43.2,17.28 C43.2013245,17.7386988 43.0196932,18.1789924 42.6953428,18.5033428 C42.3709924,18.8276932 41.9306988,19.0093245 41.472,19.008 L38.016,19.008 L38.016,22.464 L39.744,22.464 L39.744,24.192 L31.104,24.192 L31.104,19.07928 C31.1006671,16.1782506 28.7497494,13.8273329 25.84872,13.824 L19.07928,13.824 C16.1782506,13.8273329 13.8273329,16.1782506 13.824,19.07928 L13.824,24.192 L10.368,24.192 C8.46024141,24.1942614 6.91426144,25.7402414 6.912,27.648 L6.912,32.832 C6.91238442,33.6799576 7.22600163,34.4978855 7.792632,35.128728 C7.21753787,35.9817071 6.91083921,36.9872604 6.912,38.016 L6.912,43.2 C6.91521401,46.0617118 9.2342882,48.380786 12.096,48.384 L13.824,48.384 L13.824,50.112 C13.8236328,51.586035 14.452274,52.9901837 15.552,53.971704 L15.552,57.319704 C15.5444435,59.98949 14.4844839,62.5486208 12.602088,64.441872 L15.045912,66.885696 C17.5740975,64.3428282 18.9977372,60.9056965 19.008,57.31992 L19.008,55.296 L20.736,55.296 L20.736,59.048568 C20.7433435,61.7210852 19.6811911,64.2854647 17.786304,66.170088 L20.229696,68.613912 C22.7750279,66.0826593 24.2018217,62.6382557 24.192,59.048568 L24.192,55.296 L32.3352,55.296 C31.7405022,57.2215407 30.0274977,58.5865965 28.017792,58.736448 L26.40384,58.33296 L22.67352,73.253592 L0.744336,88.435152 C0.135652947,88.8565838 -0.136939337,89.6189388 0.066528,90.330768 L2.910168,100.2834 C3.55199511,102.528653 5.74982529,103.957969 8.06244266,103.634082 C10.37506,103.310195 12.0956737,101.332092 12.096,98.996904 L12.096,94.27752 L31.720032,82.201392 C33.3524721,81.1929301 34.604901,79.6721507 35.281656,77.87664 L38.691648,68.78304 L50.166216,80.257392 L51.446448,96.900192 L51.446448,96.900192 L51.844968,102.084192 C51.914056,102.984656 52.6648895,103.68005 53.568,103.68 L63.6552,103.68 C65.4868845,103.67869 67.0476065,102.349896 67.3410593,100.541871 C67.634512,98.7338455 66.5741785,96.9796393 64.836936,96.399072 L62.208,95.522544 L62.208,76.80636 C62.2065845,74.7854274 61.4981447,72.8286788 60.205464,71.275248 L44.928,52.9416 L44.928,48.384 L68.276304,48.384 L70.849944,103.760352 L74.302056,103.599648 L71.735976,48.384 L74.304,48.384 C75.258348,48.384 76.032,47.610348 76.032,46.656 L76.032,38.016 C76.032,37.061652 75.258348,36.288 74.304,36.288 Z M36.288,6.912 C35.8296995,6.9119833 35.3901637,7.09402897 35.066088,7.418088 L34.56,7.924392 L34.56,5.184 C34.5610713,4.23009607 35.3340961,3.45707134 36.288,3.456 L44.928,3.456 C45.882348,3.456 46.656,4.22965197 46.656,5.184 C46.656,6.13834803 45.882348,6.91199998 44.928,6.912 L36.288,6.912 Z M40.683816,44.928 C39.5679707,44.9268462 38.5210425,44.3881044 37.871496,43.4808 L31.8006,34.981416 C31.3463006,34.3478917 31.1026175,33.5876002 31.1039941,32.808024 L31.1039941,31.387176 C31.1039941,29.6916075 32.2447644,28.2082195 33.8835418,27.7730633 C35.5223192,27.3379071 37.248779,28.0599197 38.089872,29.532168 L43.427664,38.873304 C43.735318,39.4117186 44.3078861,39.7439993 44.928,39.744 L55.296,39.744 L55.296,44.928 L40.683816,44.928 Z M17.28,44.928 L17.28,27.269136 L20.736,26.405136 L20.736,44.928 L17.28,44.928 Z M27.648,25.92 L27.648,34.56 L24.192,34.56 L24.192,25.541136 L27.648,24.677136 L27.648,25.92 Z M24.192,38.016 L27.648,38.016 L27.648,44.928 L24.192,44.928 L24.192,38.016 Z M31.104,39.952008 L34.2576,44.3664 L31.104,43.578 L31.104,39.952008 Z M25.848072,17.28 C26.8417006,17.2810714 27.6469286,18.0862994 27.648,19.079928 L27.648,21.114864 L17.28,23.706864 L17.28,19.079928 C17.2810714,18.0862994 18.0862994,17.2810714 19.079928,17.28 L25.848072,17.28 Z M10.368,27.648 L13.824,27.648 L13.824,32.832 L10.368,32.832 L10.368,27.648 Z M10.368,43.2 L10.368,38.016 C10.3690713,37.0620961 11.1420961,36.2890713 12.096,36.288 L13.824,36.288 L13.824,44.928 L12.096,44.928 C11.1420961,44.9269287 10.3690713,44.1539039 10.368,43.2 L10.368,43.2 Z M17.28,50.112 L17.28,48.384 L27.648,48.384 L27.648,51.84 L19.008,51.84 C18.0540961,51.8389287 17.2810713,51.0659039 17.28,50.112 L17.28,50.112 Z M31.104,47.141136 L34.56,48.005136 L34.56,51.84 L31.104,51.84 L31.104,47.141136 Z M8.64,98.996904 C8.63987604,99.6087398 8.18906228,100.127003 7.58314306,100.211885 C6.97722384,100.296767 6.40135349,99.9223298 6.233112,99.33408 L3.729888,90.571824 L4.90752,89.75664 L8.64,93.96864 L8.64,98.996904 Z M63.936,99.9432 C63.936,100.098282 63.8102816,100.224 63.6552,100.224 L55.168128,100.224 L55.035288,98.496 L60.1992,98.496 L63.74376,99.67752 C63.8582684,99.7155759 63.9356608,99.8225339 63.936,99.9432 L63.936,99.9432 Z M58.752,76.80636 L58.752,81.216 L56.16,81.216 L56.16,84.672 L58.752,84.672 L58.752,95.04 L54.769392,95.04 L53.563032,79.355376 C53.5313566,78.9441074 53.3536087,78.5577355 53.061912,78.266088 L39.237912,64.442088 C38.8224681,64.0267015 38.2244377,63.8508443 37.6502696,63.9752249 C37.0761014,64.0996054 36.604459,64.507183 36.39816,65.057256 L35.0136,68.748264 L29.794608,67.443624 L28.956528,70.796376 L33.79212,72.005976 L32.045328,76.6638 C31.6392321,77.7410446 30.8878211,78.6534778 29.90844,79.258608 L22.303728,83.9376 L19.512144,81.439776 L17.207856,84.01536 L19.233072,85.827168 L10.69848,91.07964 L7.76952,87.77484 L25.175664,75.724632 C25.5204318,75.4857659 25.7666211,75.1297242 25.868376,74.722824 L29.025432,62.094168 C32.3123313,61.5488323 34.9610848,59.1028562 35.765928,55.869696 L35.909352,55.295784 L42.390648,55.295784 L49.281048,63.564696 L45.69696,65.954088 L47.614176,68.82948 L51.506064,66.234888 L57.54996,73.48752 C58.3257643,74.4195691 58.7510126,75.5936824 58.752,76.80636 Z M41.472,51.84 L38.016,51.84 L38.016,48.384 L41.472,48.384 L41.472,51.84 Z M58.752,39.744 L62.208,39.744 L62.208,44.928 L58.752,44.928 L58.752,39.744 Z M72.576,44.928 L65.664,44.928 L65.664,38.424024 L66.731904,36.288 L67.392,36.288 L67.392,38.016 C67.392,38.970348 68.165652,39.744 69.12,39.744 L72.576,39.744 L72.576,44.928 Z"/>
    </g>
    <path fill="#5CD999" d="M122.682295,86.5162904 L102.811867,60.6209274 C102.511804,60.2299501 102.041275,60 101.541311,60 C101.041348,60 100.570607,60.2299501 100.270756,60.6209274 L92.0324746,71.357383 L88.7614297,67.0945094 C88.4615786,66.7035321 87.9908378,66.473582 87.4908743,66.473582 C86.9909107,66.473582 86.5203817,66.7035321 86.2203189,67.0945094 L71.3175509,86.5162904 C70.9567132,86.9865394 70.8986912,87.6161598 71.1676254,88.1420853 C71.4365596,88.6678038 71.9864983,89 72.5881063,89 L121.411739,89 C122.013347,89 122.563286,88.6678038 122.83222,88.1420853 C123.101366,87.6159528 123.043344,86.9865394 122.682295,86.5162904 Z M75.7644949,85.895363 L87.4908743,70.613098 L90.7617074,74.8759715 C91.0615585,75.2669488 91.5322993,75.4968989 92.0322628,75.4968989 C92.5322264,75.4968989 93.0027554,75.2669488 93.3028183,74.8759715 L101.5411,64.139516 L118.235351,85.895363 L75.7644949,85.895363 Z"/>
  </g>
</svg>
