<svg xmlns="http://www.w3.org/2000/svg" width="1212" height="294" viewBox="0 0 1212 294">
  <g fill="none" fill-rule="evenodd">
    <rect width="137" height="48" x="560" y="237" fill="#5CD999"/>
    <path fill="#037092" d="M746.6,0 C749.306195,0 751.5,2.19380473 751.5,4.9 L751.5,4.9 L751.5,24.5 C751.5,27.2061953 749.306195,29.4 746.6,29.4 L746.6,29.4 L741.7,29.4 L741.7,44.1 C741.7,46.8061953 739.506195,49 736.8,49 L736.8,49 L736.8,176.4 L746.6,176.4 L746.6,186.2 L736.8,186.2 L736.8,284.2 L752.305437,284.2 L752.305437,274.4 L750.345438,274.4 C746.769794,274.399972 743.416218,272.665887 741.349251,269.748203 C739.282285,266.83052 738.758653,263.091625 739.944575,259.718375 L739.944575,259.718375 L752.58045,223.775037 C753.270066,221.813209 755.122871,220.500335 757.202375,220.5 L757.202375,220.5 L757.282612,220.5 C759.392729,220.534783 761.243528,221.916713 761.876362,223.93 L761.876362,223.93 L773.262737,260.061375 C774.318233,263.410819 773.714895,267.062738 771.638161,269.894702 C769.561428,272.726666 766.259765,274.399852 762.74795,274.4 L762.74795,274.4 L762.1036,274.4 L762.1036,284.2 L776,284.2 L776,294 L482,294 L482,284.2 L496.7,284.2 L496.7,274.4 L495.25205,274.4 C491.740568,274.399863 488.439173,272.727003 486.362385,269.895492 C484.285596,267.063982 483.68184,263.412523 484.73665,260.063213 L484.73665,260.063213 L496.123025,223.93 C496.755859,221.916713 498.606658,220.534783 500.716775,220.5 L500.716775,220.5 L500.797012,220.5 C502.876517,220.500335 504.729322,221.813209 505.418937,223.775037 L505.418937,223.775037 L518.054813,259.718375 C519.240699,263.091523 518.717136,266.830301 516.650313,269.747954 C514.58349,272.665607 511.230098,274.399774 507.654562,274.4 L507.654562,274.4 L506.5,274.4 L506.5,284.2 L521.2,284.2 L521.2,186.2 L511.4,186.2 L511.4,176.4 L521.2,176.4 L521.2,49 C518.493805,49 516.3,46.8061953 516.3,44.1 L516.3,44.1 L516.3,29.4 L511.4,29.4 C508.693805,29.4 506.5,27.2061953 506.5,24.5 L506.5,24.5 L506.5,4.9 C506.5,2.19380473 508.693805,0 511.4,0 L511.4,0 Z M668.2,264.6 C665.493805,264.6 663.3,266.793805 663.3,269.5 L663.3,269.5 L663.3,284.2 L673.1,284.2 L673.1,269.5 C673.1,266.793805 670.906195,264.6 668.2,264.6 Z M629,264.6 C626.293805,264.6 624.1,266.793805 624.1,269.5 L624.1,269.5 L624.1,284.2 L633.9,284.2 L633.9,269.5 C633.9,266.793805 631.706195,264.6 629,264.6 Z M589.8,264.6 C587.093805,264.6 584.9,266.793805 584.9,269.5 L584.9,269.5 L584.9,284.2 L594.7,284.2 L594.7,269.5 C594.7,266.793805 592.506195,264.6 589.8,264.6 Z M727,274.4 L702.5,274.4 L702.5,284.2 L727,284.2 L727,274.4 Z M692.7,245 L565.3,245 L565.3,284.2 L575.1,284.2 L575.1,269.5 C575.1,261.381414 581.681414,254.8 589.8,254.8 C597.918586,254.8 604.5,261.381414 604.5,269.5 L604.5,269.5 L604.5,284.2 L614.3,284.2 L614.3,269.5 C614.3,261.381414 620.881414,254.8 629,254.8 C637.118586,254.8 643.7,261.381414 643.7,269.5 L643.7,269.5 L643.7,284.2 L653.5,284.2 L653.5,269.5 C653.5,261.381414 660.081414,254.8 668.2,254.8 C676.318586,254.8 682.9,261.381414 682.9,269.5 L682.9,269.5 L682.9,284.2 L692.7,284.2 L692.7,245 Z M555.5,274.4 L531,274.4 L531,284.2 L555.5,284.2 L555.5,274.4 Z M756.95125,240.89625 L749.190263,262.968913 C749.058604,263.343614 749.116772,263.75889 749.346313,264.082998 C749.575855,264.407107 749.948279,264.6 750.345437,264.6 L750.345437,264.6 L762.7504,264.6 C763.14039,264.6 763.506995,264.413974 763.737648,264.099503 C763.9683,263.785032 764.035435,263.379527 763.918437,263.0075 L763.918437,263.0075 L756.95125,240.89625 Z M727,186.2 L531,186.2 L531,264.6 L555.5,264.6 L555.5,245 L550.6,245 C547.893805,245 545.7,242.806195 545.7,240.1 L545.7,240.1 L545.7,220.5 C545.7,217.793805 547.893805,215.6 550.6,215.6 L550.6,215.6 L567.1718,215.6 L575.617563,198.708475 C576.447592,197.048585 578.144149,196.000063 580,196 L580,196 L678,196 C679.855851,196.000063 681.552408,197.048585 682.382437,198.708475 L682.382437,198.708475 L690.8282,215.6 L707.4,215.6 C710.106195,215.6 712.3,217.793805 712.3,220.5 L712.3,220.5 L712.3,240.1 C712.3,242.806195 710.106195,245 707.4,245 L707.4,245 L702.5,245 L702.5,264.6 L727,264.6 L727,186.2 Z M501.04875,240.89625 L494.084013,263.0075 C493.967015,263.379527 494.03415,263.785032 494.264802,264.099503 C494.495455,264.413974 494.86206,264.6 495.25205,264.6 L495.25205,264.6 L507.654562,264.6 C508.051594,264.599165 508.423598,264.405961 508.652627,264.081646 C508.881656,263.757331 508.939302,263.34213 508.807287,262.967688 L508.807287,262.967688 L501.04875,240.89625 Z M702.5,225.4 L555.5,225.4 L555.5,235.2 L702.5,235.2 L702.5,225.4 Z M674.9718,205.8 L583.0282,205.8 L578.1282,215.6 L679.8718,215.6 L674.9718,205.8 Z M727,49 L531,49 L531,176.4 L727,176.4 L727,49 Z M606.996505,138.833333 C614.634811,138.841928 620.824738,145.031856 620.833333,152.670162 L620.833333,152.670162 L620.833333,163.787037 C620.833333,166.543347 618.598903,168.777778 615.842593,168.777778 L615.842593,168.777778 L595.87963,168.777778 C593.12332,168.777778 590.888889,166.543347 590.888889,163.787037 L590.888889,163.787037 L590.888889,152.670162 C590.897484,145.031856 597.087411,138.841928 604.725718,138.833333 L604.725718,138.833333 Z M653.274282,138.833333 C660.912589,138.841928 667.102516,145.031856 667.111111,152.670162 L667.111111,152.670162 L667.111111,163.787037 C667.111111,166.543347 664.87668,168.777778 662.12037,168.777778 L662.12037,168.777778 L642.157407,168.777778 C639.401097,168.777778 637.166667,166.543347 637.166667,163.787037 L637.166667,163.787037 L637.166667,152.670162 C637.175262,145.031856 643.365189,138.841928 651.003495,138.833333 L651.003495,138.833333 Z M702.274282,138.833333 C709.912589,138.841928 716.102516,145.031856 716.111111,152.670162 L716.111111,152.670162 L716.111111,163.787037 C716.111111,166.543347 713.87668,168.777778 711.12037,168.777778 L711.12037,168.777778 L691.157407,168.777778 C688.401097,168.777778 686.166667,166.543347 686.166667,163.787037 L686.166667,163.787037 L686.166667,152.670162 C686.175262,145.031856 692.365189,138.841928 700.003495,138.833333 L700.003495,138.833333 Z M555.274282,138.833333 C562.912589,138.841928 569.102516,145.031856 569.111111,152.670162 L569.111111,152.670162 L569.111111,163.787037 C569.111111,166.543347 566.87668,168.777778 564.12037,168.777778 L564.12037,168.777778 L544.157407,168.777778 C541.401097,168.777778 539.166667,166.543347 539.166667,163.787037 L539.166667,163.787037 L539.166667,152.670162 C539.175262,145.031856 545.365189,138.841928 553.003495,138.833333 L553.003495,138.833333 Z M653.274282,148.814815 L651.003495,148.814815 C648.875244,148.817221 647.150555,150.54191 647.148148,152.670162 L647.148148,152.670162 L647.148148,158.796296 L657.12963,158.796296 L657.12963,152.670162 C657.127223,150.54191 655.402534,148.817221 653.274282,148.814815 L653.274282,148.814815 Z M702.274282,148.814815 L700.003495,148.814815 C697.875244,148.817221 696.150555,150.54191 696.148148,152.670162 L696.148148,152.670162 L696.148148,158.796296 L706.12963,158.796296 L706.12963,152.670162 C706.127223,150.54191 704.402534,148.817221 702.274282,148.814815 L702.274282,148.814815 Z M555.274282,148.814815 L553.003495,148.814815 C550.875244,148.817221 549.150555,150.54191 549.148148,152.670162 L549.148148,152.670162 L549.148148,158.796296 L559.12963,158.796296 L559.12963,152.670162 C559.127223,150.54191 557.402534,148.817221 555.274282,148.814815 L555.274282,148.814815 Z M606.996505,148.814815 L604.725718,148.814815 C602.597466,148.817221 600.872777,150.54191 600.87037,152.670162 L600.87037,152.670162 L600.87037,158.796296 L610.851852,158.796296 L610.851852,152.670162 C610.849445,150.54191 609.124756,148.817221 606.996505,148.814815 L606.996505,148.814815 Z M653.274282,98 C660.912589,98.0085949 667.102516,104.198522 667.111111,111.836829 L667.111111,111.836829 L667.111111,122.953704 C667.111111,125.710014 664.87668,127.944444 662.12037,127.944444 L662.12037,127.944444 L642.157407,127.944444 C639.401097,127.944444 637.166667,125.710014 637.166667,122.953704 L637.166667,122.953704 L637.166667,111.836829 C637.175262,104.198522 643.365189,98.0085949 651.003495,98 L651.003495,98 Z M702.274282,98 C709.912589,98.0085949 716.102516,104.198522 716.111111,111.836829 L716.111111,111.836829 L716.111111,122.953704 C716.111111,125.710014 713.87668,127.944444 711.12037,127.944444 L711.12037,127.944444 L691.157407,127.944444 C688.401097,127.944444 686.166667,125.710014 686.166667,122.953704 L686.166667,122.953704 L686.166667,111.836829 C686.175262,104.198522 692.365189,98.0085949 700.003495,98 L700.003495,98 Z M555.274282,98 C562.912589,98.0085949 569.102516,104.198522 569.111111,111.836829 L569.111111,111.836829 L569.111111,122.953704 C569.111111,125.710014 566.87668,127.944444 564.12037,127.944444 L564.12037,127.944444 L544.157407,127.944444 C541.401097,127.944444 539.166667,125.710014 539.166667,122.953704 L539.166667,122.953704 L539.166667,111.836829 C539.175262,104.198522 545.365189,98.0085949 553.003495,98 L553.003495,98 Z M606.996505,98 C614.634811,98.0085949 620.824738,104.198522 620.833333,111.836829 L620.833333,111.836829 L620.833333,122.953704 C620.833333,125.710014 618.598903,127.944444 615.842593,127.944444 L615.842593,127.944444 L595.87963,127.944444 C593.12332,127.944444 590.888889,125.710014 590.888889,122.953704 L590.888889,122.953704 L590.888889,111.836829 C590.897484,104.198522 597.087411,98.0085949 604.725718,98 L604.725718,98 Z M653.274282,107.981481 L651.003495,107.981481 C648.875244,107.983888 647.150555,109.708577 647.148148,111.836829 L647.148148,111.836829 L647.148148,117.962963 L657.12963,117.962963 L657.12963,111.836829 C657.127223,109.708577 655.402534,107.983888 653.274282,107.981481 L653.274282,107.981481 Z M702.274282,107.981481 L700.003495,107.981481 C697.875244,107.983888 696.150555,109.708577 696.148148,111.836829 L696.148148,111.836829 L696.148148,117.962963 L706.12963,117.962963 L706.12963,111.836829 C706.127223,109.708577 704.402534,107.983888 702.274282,107.981481 L702.274282,107.981481 Z M555.274282,107.981481 L553.003495,107.981481 C550.875244,107.983888 549.150555,109.708577 549.148148,111.836829 L549.148148,111.836829 L549.148148,117.962963 L559.12963,117.962963 L559.12963,111.836829 C559.127223,109.708577 557.402534,107.983888 555.274282,107.981481 L555.274282,107.981481 Z M606.996505,107.981481 L604.725718,107.981481 C602.597466,107.983888 600.872777,109.708577 600.87037,111.836829 L600.87037,111.836829 L600.87037,117.962963 L610.851852,117.962963 L610.851852,111.836829 C610.849445,109.708577 609.124756,107.983888 606.996505,107.981481 L606.996505,107.981481 Z M702.274282,59.8888889 C709.912589,59.8974838 716.102516,66.0874111 716.111111,73.7257176 L716.111111,73.7257176 L716.111111,84.8425926 C716.111111,87.5989026 713.87668,89.8333333 711.12037,89.8333333 L711.12037,89.8333333 L691.157407,89.8333333 C688.401097,89.8333333 686.166667,87.5989026 686.166667,84.8425926 L686.166667,84.8425926 L686.166667,73.7257176 C686.175262,66.0874111 692.365189,59.8974838 700.003495,59.8888889 L700.003495,59.8888889 Z M555.274282,59.8888889 C562.912589,59.8974838 569.102516,66.0874111 569.111111,73.7257176 L569.111111,73.7257176 L569.111111,84.8425926 C569.111111,87.5989026 566.87668,89.8333333 564.12037,89.8333333 L564.12037,89.8333333 L544.157407,89.8333333 C541.401097,89.8333333 539.166667,87.5989026 539.166667,84.8425926 L539.166667,84.8425926 L539.166667,73.7257176 C539.175262,66.0874111 545.365189,59.8974838 553.003495,59.8888889 L553.003495,59.8888889 Z M606.996505,59.8888889 C614.634811,59.8974838 620.824738,66.0874111 620.833333,73.7257176 L620.833333,73.7257176 L620.833333,84.8425926 C620.833333,87.5989026 618.598903,89.8333333 615.842593,89.8333333 L615.842593,89.8333333 L595.87963,89.8333333 C593.12332,89.8333333 590.888889,87.5989026 590.888889,84.8425926 L590.888889,84.8425926 L590.888889,73.7257176 C590.897484,66.0874111 597.087411,59.8974838 604.725718,59.8888889 L604.725718,59.8888889 Z M653.274282,59.8888889 C660.912589,59.8974838 667.102516,66.0874111 667.111111,73.7257176 L667.111111,73.7257176 L667.111111,84.8425926 C667.111111,87.5989026 664.87668,89.8333333 662.12037,89.8333333 L662.12037,89.8333333 L642.157407,89.8333333 C639.401097,89.8333333 637.166667,87.5989026 637.166667,84.8425926 L637.166667,84.8425926 L637.166667,73.7257176 C637.175262,66.0874111 643.365189,59.8974838 651.003495,59.8888889 L651.003495,59.8888889 Z M653.274282,69.8703704 L651.003495,69.8703704 C648.875244,69.8727769 647.150555,71.5974657 647.148148,73.7257176 L647.148148,73.7257176 L647.148148,79.8518519 L657.12963,79.8518519 L657.12963,73.7257176 C657.127223,71.5974657 655.402534,69.8727769 653.274282,69.8703704 L653.274282,69.8703704 Z M702.274282,69.8703704 L700.003495,69.8703704 C697.875244,69.8727769 696.150555,71.5974657 696.148148,73.7257176 L696.148148,73.7257176 L696.148148,79.8518519 L706.12963,79.8518519 L706.12963,73.7257176 C706.127223,71.5974657 704.402534,69.8727769 702.274282,69.8703704 L702.274282,69.8703704 Z M555.274282,69.8703704 L553.003495,69.8703704 C550.875244,69.8727769 549.150555,71.5974657 549.148148,73.7257176 L549.148148,73.7257176 L549.148148,79.8518519 L559.12963,79.8518519 L559.12963,73.7257176 C559.127223,71.5974657 557.402534,69.8727769 555.274282,69.8703704 L555.274282,69.8703704 Z M606.996505,69.8703704 L604.725718,69.8703704 C602.597466,69.8727769 600.872777,71.5974657 600.87037,73.7257176 L600.87037,73.7257176 L600.87037,79.8518519 L610.851852,79.8518519 L610.851852,73.7257176 C610.849445,71.5974657 609.124756,69.8727769 606.996505,69.8703704 L606.996505,69.8703704 Z M731.9,29.4 L526.1,29.4 L526.1,39.2 L731.9,39.2 L731.9,29.4 Z M741.7,9.8 L516.3,9.8 L516.3,19.6 L741.7,19.6 L741.7,9.8 Z"/>
    <path fill="#5CD999" d="M355.205734 78.0944648C356.207316 62.9906529 369.23847 51 385.112625 51 390.808997 51 396.352009 52.5521004 401.142125 55.4888698 404.738464 57.693633 407.794844 60.6001154 410.124365 64.0069727 412.913966 62.558957 416.053314 61.7847198 419.253565 61.7847198 424.359006 61.7847198 429.170747 63.6942917 432.802612 67.1612963 435.797427 70.0202154 437.707913 73.6680886 438.322675 77.6252301 442.357688 78.7742153 445.999703 81.0438182 448.76459 84.1695612 452.140708 87.9859324 454 92.8565886 454 97.8842251 454 109.527431 444.199989 119 432.154088 119L362.845691 119C350.800011 119 341 109.527431 341 97.8840118 341 88.9491432 346.726161 81.1336127 355.205734 78.0944648zM363.262433 113L432.737346 113C441.153239 113 448 106.422084 448 98.3366484 448 91.1397016 442.646945 85.0579871 435.271537 83.8753902 433.688912 83.6216579 432.521906 82.3162324 432.5 80.774925 432.405559 74.1415446 426.710985 68.7447376 419.805829 68.7447376 416.839652 68.7447376 413.952882 69.7492543 411.677485 71.5731949 410.8969 72.1990256 409.861061 72.4461703 408.866142 72.2445019 407.871444 72.042621 407.02804 71.4138152 406.577473 70.5380772 402.598681 62.8041273 394.553947 58 385.582864 58 372.677226 58 362.177931 68.0872434 362.177931 80.4861291L362.183903 80.926867 362.183903 80.926867C362.21487 82.4212104 361.160671 83.7353487 359.649049 84.0876839 352.790122 85.6863679 348 91.5460134 348 98.3370734 348 106.422084 354.846761 113 363.262433 113zM1193.51997 104.397131C1192.21703 84.6621308 1175.265 68.994858 1154.61455 68.994858 1147.20422 68.994858 1139.9934 71.0228694 1133.76201 74.8601222 1129.08359 77.7409184 1125.10759 81.5385975 1122.07715 85.9900783 1118.4482 84.0980666 1114.36427 83.0864298 1110.20111 83.0864298 1103.55952 83.0864298 1097.3 85.581522 1092.57536 90.1115928 1088.67945 93.8471245 1086.19413 98.6135226 1085.3944 103.784018 1080.14531 105.285309 1075.40747 108.250827 1071.81067 112.334997 1067.41873 117.321558 1065 123.685674 1065 130.254904 1065 145.468194 1077.74869 157.845278 1093.41902 157.845278L1183.58127 157.845278C1199.25131 157.845278 1212 145.468194 1212 130.254625 1212 118.580113 1204.55092 108.368154 1193.51997 104.397131zM1183.58127 149.484643L1093.41902 149.484643C1082.49715 149.484643 1073.61165 140.85814 1073.61165 130.254625 1073.61165 120.816304 1080.55867 112.840537 1090.13023 111.289639 1092.18411 110.956886 1093.69861 109.244906 1093.72703 107.223583 1093.8496 98.5243425 1101.23983 91.4467862 1110.20111 91.4467862 1114.05052 91.4467862 1117.79688 92.7641436 1120.74981 95.1561213 1121.76283 95.976857 1123.10711 96.3009709 1124.39828 96.0364962 1125.68917 95.7717427 1126.78371 94.9471054 1127.36844 93.7986329 1132.53198 83.6560677 1142.97217 77.3557718 1154.61455 77.3557718 1171.36306 77.3557718 1184.9887 90.584526 1184.9887 106.844847 1184.9887 107.038256 1184.98468 107.230551 1184.98095 107.422845 1184.94076 109.382578 1186.30887 111.105984 1188.2706 111.568048 1197.17189 113.664617 1203.38835 121.349155 1203.38835 130.255182 1203.38835 140.85814 1194.50285 149.484643 1183.58127 149.484643zM888.302839 81.3053288C887.40762 67.756321 875.760305 57 861.571901 57 856.480454 57 851.52608 58.3923254 847.244649 61.0267803 844.030223 63.0045826 841.298414 65.6118683 839.216275 68.6680196 836.722916 67.3690644 833.916949 66.674528 831.056548 66.674528 826.493278 66.674528 822.192518 68.3875264 818.946338 71.4976334 816.269556 74.062252 814.561954 77.3346089 814.012476 80.8843976 810.40596 81.9151049 807.150708 83.9510722 804.679438 86.7550476 801.661845 90.178557 800 94.5478221 800 99.0579078 800 109.502548 808.759301 118 819.525992 118L881.474205 118C892.240699 118 901 109.502548 901 99.0577165 901 91.0426138 895.881927 84.0316232 888.302839 81.3053288zM881.474205 112.26003L819.525992 112.26003C812.021851 112.26003 805.916848 106.337529 805.916848 99.0577165 805.916848 92.5778644 810.689969 87.1021244 817.266348 86.03736 818.677516 85.8089092 819.718092 84.6335547 819.737618 83.2458213 819.821835 77.2733825 824.899476 72.4143066 831.056548 72.4143066 833.701379 72.4143066 836.275405 73.3187346 838.304292 74.96094 839.00031 75.5244137 839.92393 75.7469332 840.811063 75.5653588 841.697999 75.3835931 842.45003 74.8174407 842.851784 74.0289602 846.399526 67.0656113 853.572718 62.7401613 861.571901 62.7401613 873.079381 62.7401613 882.441215 71.8223244 882.441215 82.9858006 882.441215 83.1185853 882.438454 83.2506046 882.43589 83.3826239 882.408278 84.7280728 883.348268 85.911272 884.696126 86.228501 890.811977 87.6678941 895.083152 92.9436918 895.083152 99.0580992 895.083152 106.337529 888.978149 112.26003 881.474205 112.26003zM128.519974 105.397131C127.217031 85.6621308 110.264999 69.994858 89.6145496 69.994858 82.204225 69.994858 74.9934036 72.0228694 68.7620138 75.8601222 64.0835916 78.7409184 60.1075929 82.5385975 57.0771534 86.9900783 53.4482041 85.0980666 49.3642728 84.0864298 45.2011142 84.0864298 38.5595229 84.0864298 32.3000018 86.581522 27.5753637 91.1115928 23.6794533 94.8471245 21.1941312 99.6135226 20.394396 104.784018 15.1453084 106.285309 10.4074658 109.250827 6.81066673 113.334997 2.41872536 118.321558 0 124.685674 0 131.254904 0 146.468194 12.7486863 158.845278 28.4190183 158.845278L118.581269 158.845278C134.251314 158.845278 147 146.468194 147 131.254625 147 119.580113 139.550923 109.368154 128.519974 105.397131zM118.581269 150.484643L28.4190183 150.484643C17.49715 150.484643 8.61164975 141.85814 8.61164975 131.254625 8.61164975 121.816304 15.5586676 113.840537 25.1302292 112.289639 27.1841077 111.956886 28.6986098 110.244906 28.7270283 108.223583 28.8496008 99.5243425 36.2398315 92.4467862 45.2011142 92.4467862 49.0505217 92.4467862 52.7968764 93.7641436 55.7498111 96.1561213 56.7628281 96.976857 58.1071067 97.3009709 59.39828 97.0364962 60.6891663 96.7717427 61.783707 95.9471054 62.368438 94.7986329 67.5319832 84.6560677 77.9721732 78.3557718 89.6145496 78.3557718 106.36306 78.3557718 119.988699 91.584526 119.988699 107.844847 119.988699 108.038256 119.984681 108.230551 119.980949 108.422845 119.940761 110.382578 121.308865 112.105984 123.270599 112.568048 132.171887 114.664617 138.38835 122.349155 138.38835 131.255182 138.38835 141.85814 129.50285 150.484643 118.581269 150.484643z"/>
    <path fill="#037092" d="M1027.20574,221.630729 L977.529667,155.583697 C976.77951,154.586496 975.603187,154 974.353278,154 C973.103369,154 971.926517,154.586496 971.17689,155.583697 L950.581186,182.967404 L942.403574,172.094795 C941.653947,171.097594 940.477095,170.511098 939.227186,170.511098 C937.977277,170.511098 936.800954,171.097594 936.050797,172.094795 L898.793877,221.630729 C897.891783,222.830115 897.746728,224.435984 898.419063,225.777376 C899.091399,227.118239 900.466246,227.965517 901.970266,227.965517 L1024.02935,227.965517 C1025.53337,227.965517 1026.90821,227.118239 1027.58055,225.777376 C1028.25342,224.435456 1028.10836,222.830115 1027.20574,221.630729 Z M909.911237,220.047032 L939.227186,181.069079 L947.404269,191.941687 C948.153896,192.938888 949.330748,193.525384 950.580657,193.525384 C951.830566,193.525384 953.006889,192.938888 953.757046,191.941687 L974.352749,164.557981 L1016.08838,220.047032 L909.911237,220.047032 Z"/>
    <g transform="translate(136 157)">
      <rect width="12" height="102" x="59" y="3" fill="#5CD999"/>
      <rect width="12" height="102" x="170" y="3" fill="#5CD999"/>
      <path fill="#037092" d="M236,64 L220,64 L220,54.5998535 C223.853638,55.5136719 227.870911,56 232,56 L236,56 L236,48 L232,48 C207.738281,48 188,28.2617188 188,4 C188,1.7910156 186.209228,0 184,0 L168,0 C165.790772,0 164,1.79101565 164,4 C164,28.2617188 144.261719,48 120,48 C95.7382812,48 76,28.2617188 76,4 C76,1.7910156 74.2092285,0 72,0 L56,0 C53.7907715,0 52,1.79101565 52,4 C52,28.2617188 32.2617188,48 8,48 L4,48 L4,56 L8,56 C12.1290894,56 16.1463318,55.5136718 20,54.5998535 L20,64 L4,64 C1.7907715,64 0,65.7910157 0,68 L0,84 C0,86.2089844 1.7907715,88 4,88 L52,88 L52,104 C50.2783203,104 48.7497558,105.101562 48.2053223,106.734863 L40.2053223,130.734863 C39.798584,131.955078 40.0031738,133.295898 40.755127,134.338867 C41.506836,135.381836 42.7141114,136 44,136 L84,136 C85.2858887,136 86.4931641,135.381836 87.244873,134.338867 C87.9968262,133.295898 88.201416,131.955078 87.7946777,130.734863 L79.7946777,106.734863 C79.2502441,105.101562 77.7216797,104 76,104 L76,88 L164,88 L164,104 C162.27832,104 160.749756,105.101562 160.205322,106.734863 L152.205322,130.734863 C151.798584,131.955078 152.003174,133.295898 152.755127,134.338867 C153.506836,135.381836 154.714111,136 156,136 L196,136 C197.285889,136 198.493164,135.381836 199.244873,134.338867 C199.996826,133.295898 200.201416,131.955078 199.794678,130.734863 L191.794678,106.734863 C191.250244,105.101562 189.72168,104 188,104 L188,88 L236,88 C238.209228,88 240,86.2089844 240,84 L240,68 C240,65.7910157 238.209228,64 236,64 Z M212,64 L204,64 L204,47.8009033 C206.526123,49.4213867 209.201904,50.8273925 212,51.9976807 L212,64 Z M196,41.4869385 L196,64 L188,64 L188,31.6813965 C190.26477,35.2684326 192.954468,38.5610351 196,41.4869385 Z M164,31.6813965 L164,64 L156,64 L156,41.4869385 C159.045532,38.5610351 161.73523,35.2684326 164,31.6813965 Z M92,64 L92,47.8009033 C94.5261231,49.4213867 97.2019348,50.8273925 100,51.9976807 L100,64 L92,64 Z M108,54.5998535 C110.597687,55.2158203 113.269196,55.638916 116,55.8476562 L116,64 L108,64 L108,54.5998535 Z M124,55.8476562 C126.730835,55.638916 129.402344,55.2158203 132,54.5998535 L132,64 L124,64 L124,55.8476562 Z M140,51.9976807 C142.798035,50.8273926 145.473877,49.4213867 148,47.8009033 L148,64 L140,64 L140,51.9976807 Z M84,41.4869385 L84,64 L76,64 L76,31.6813965 C78.2647705,35.2684326 80.9544677,38.5610351 84,41.4869385 Z M52,31.6813965 L52,64 L44,64 L44,41.4869385 C47.0455323,38.5610351 49.7352295,35.2684326 52,31.6813965 Z M28,51.9976807 C30.7980346,50.8273926 33.4738769,49.4213867 36,47.8009033 L36,64 L28,64 L28,51.9976807 Z M8,80 L8,72 L52,72 L52,80 L8,80 Z M78.4501953,128 L49.5498047,128 L54.8830566,112 L56,112 L72,112 L73.1169434,112 L78.4501953,128 Z M60,104 L60,8 L68,8 L68,104 L60,104 Z M76,80 L76,72 L164,72 L164,80 L76,80 Z M190.450195,128 L161.549805,128 L166.883057,112 L168,112 L184,112 L185.116943,112 L190.450195,128 Z M172,104 L172,8 L180,8 L180,104 L172,104 Z M232,80 L188,80 L188,72 L232,72 L232,80 Z"/>
    </g>
  </g>
</svg>
