<svg xmlns="http://www.w3.org/2000/svg" width="347" height="195" viewBox="0 0 347 195">
  <g fill="none" fill-rule="evenodd">
    <g transform="translate(121 44)">
      <rect width="50" height="18" x="29" y="87" fill="#5CD999"/>
      <path fill="#037092" d="M97.2,0 C98.1941125,0 99,0.80588745 99,1.8 L99,1.8 L99,9 C99,9.99411255 98.1941125,10.8 97.2,10.8 L97.2,10.8 L95.4,10.8 L95.4,16.2 C95.4,17.1941125 94.5941125,18 93.6,18 L93.6,18 L93.6,64.8 L97.2,64.8 L97.2,68.4 L93.6,68.4 L93.6,104.4 L99.295875,104.4 L99.295875,100.8 L98.575875,100.8 C97.2623731,100.79999 96.0304474,100.162979 95.2711536,99.0911768 C94.5118597,98.0193746 94.3195052,96.6459032 94.75515,95.40675 L94.75515,95.40675 L99.3969,82.203075 C99.6502282,81.4824035 100.33085,81.0001232 101.09475,81 L101.09475,81 L101.124225,81 C101.89937,81.0127776 102.579255,81.5204253 102.811725,82.26 L102.811725,82.26 L106.994475,95.53275 C107.382208,96.7631579 107.160574,98.1046791 106.397692,99.1449926 C105.63481,100.185306 104.421954,100.799946 103.1319,100.8 L103.1319,100.8 L102.8952,100.8 L102.8952,104.4 L108,104.4 L108,108 L0,108 L0,104.4 L5.4,104.4 L5.4,100.8 L4.8681,100.8 C3.57816801,100.79995 2.36541035,100.18543 1.60250861,99.1452829 C0.839606863,98.1051361 0.617818762,96.7637838 1.0053,95.533425 L1.0053,95.533425 L5.18805,82.26 C5.42051976,81.5204253 6.10040509,81.0127776 6.87555,81 L6.87555,81 L6.905025,81 C7.6689246,81.0001232 8.3495468,81.4824035 8.602875,82.203075 L8.602875,82.203075 L13.244625,95.40675 C13.6802566,96.6458658 13.4879276,98.0192941 12.7286865,99.091085 C11.9694454,100.162876 10.7375871,100.799917 9.424125,100.8 L9.424125,100.8 L9,100.8 L9,104.4 L14.4,104.4 L14.4,68.4 L10.8,68.4 L10.8,64.8 L14.4,64.8 L14.4,18 C13.4058875,18 12.6,17.1941125 12.6,16.2 L12.6,16.2 L12.6,10.8 L10.8,10.8 C9.80588745,10.8 9,9.99411255 9,9 L9,9 L9,1.8 C9,0.80588745 9.80588745,0 10.8,0 L10.8,0 Z M77.4,90 L30.6,90 L30.6,104.4 L34.2,104.4 L34.2,99 C34.2,96.0176624 36.6176624,93.6 39.6,93.6 C42.5823376,93.6 45,96.0176624 45,99 L45,99 L45,104.4 L48.6,104.4 L48.6,99 C48.6,96.0176624 51.0176624,93.6 54,93.6 C56.9823376,93.6 59.4,96.0176624 59.4,99 L59.4,99 L59.4,104.4 L63,104.4 L63,99 C63,96.0176624 65.4176624,93.6 68.4,93.6 C71.3823376,93.6 73.8,96.0176624 73.8,99 L73.8,99 L73.8,104.4 L77.4,104.4 L77.4,90 Z M68.4,97.2 C67.4058875,97.2 66.6,98.0058875 66.6,99 L66.6,99 L66.6,104.4 L70.2,104.4 L70.2,99 C70.2,98.0058875 69.3941125,97.2 68.4,97.2 Z M54,97.2 C53.0058875,97.2 52.2,98.0058875 52.2,99 L52.2,99 L52.2,104.4 L55.8,104.4 L55.8,99 C55.8,98.0058875 54.9941125,97.2 54,97.2 Z M39.6,97.2 C38.6058875,97.2 37.8,98.0058875 37.8,99 L37.8,99 L37.8,104.4 L41.4,104.4 L41.4,99 C41.4,98.0058875 40.5941125,97.2 39.6,97.2 Z M90,100.8 L81,100.8 L81,104.4 L90,104.4 L90,100.8 Z M27,100.8 L18,100.8 L18,104.4 L27,104.4 L27,100.8 Z M90,68.4 L18,68.4 L18,97.2 L27,97.2 L27,90 L25.2,90 C24.2058875,90 23.4,89.1941125 23.4,88.2 L23.4,88.2 L23.4,81 C23.4,80.0058875 24.2058875,79.2 25.2,79.2 L25.2,79.2 L31.2876,79.2 L34.390125,72.99495 C34.6950338,72.3851945 35.3182587,72.0000232 36,72 L36,72 L72,72 C72.6817413,72.0000232 73.3049662,72.3851945 73.609875,72.99495 L73.609875,72.99495 L76.7124,79.2 L82.8,79.2 C83.7941125,79.2 84.6,80.0058875 84.6,81 L84.6,81 L84.6,88.2 C84.6,89.1941125 83.7941125,90 82.8,90 L82.8,90 L81,90 L81,97.2 L90,97.2 L90,68.4 Z M6.9975,88.4925 L4.439025,96.615 C4.39604646,96.751663 4.42070815,96.900624 4.50543756,97.0161439 C4.59016698,97.1316639 4.72483827,97.2 4.8681,97.2 L4.8681,97.2 L9.424125,97.2 C9.5699733,97.1996934 9.70662788,97.1287205 9.7907609,97.0095842 C9.87489392,96.890448 9.89606999,96.7379252 9.847575,96.600375 L9.847575,96.600375 L6.9975,88.4925 Z M101.0025,88.4925 L98.151525,96.600825 C98.1031608,96.7384705 98.1245286,96.891021 98.2088498,97.0100811 C98.293171,97.1291412 98.4299799,97.2 98.575875,97.2 L98.575875,97.2 L103.1328,97.2 C103.276062,97.2 103.410733,97.1316639 103.495462,97.0161439 C103.580192,96.900624 103.604854,96.751663 103.561875,96.615 L103.561875,96.615 L101.0025,88.4925 Z M81,82.8 L27,82.8 L27,86.4 L81,86.4 L81,82.8 Z M70.8876,75.6 L37.1124,75.6 L35.3124,79.2 L72.6876,79.2 L70.8876,75.6 Z M90,18 L18,18 L18,64.8 L90,64.8 L90,18 Z M45.9170833,51 C48.7229918,51.0031573 50.9968427,53.2770082 51,56.0829167 L51,56.0829167 L51,60.1666667 C51,61.1791887 50.1791887,62 49.1666667,62 L49.1666667,62 L41.8333333,62 C40.8208113,62 40,61.1791887 40,60.1666667 L40,60.1666667 L40,56.0829167 C40.0031573,53.2770082 42.2770082,51.0031573 45.0829167,51 L45.0829167,51 Z M62.9170833,51 C65.7229918,51.0031573 67.9968427,53.2770082 68,56.0829167 L68,56.0829167 L68,60.1666667 C68,61.1791887 67.1791887,62 66.1666667,62 L66.1666667,62 L58.8333333,62 C57.8208113,62 57,61.1791887 57,60.1666667 L57,60.1666667 L57,56.0829167 C57.0031573,53.2770082 59.2770082,51.0031573 62.0829167,51 L62.0829167,51 Z M80.9170833,51 C83.7229918,51.0031573 85.9968427,53.2770082 86,56.0829167 L86,56.0829167 L86,60.1666667 C86,61.1791887 85.1791887,62 84.1666667,62 L84.1666667,62 L76.8333333,62 C75.8208113,62 75,61.1791887 75,60.1666667 L75,60.1666667 L75,56.0829167 C75.0031573,53.2770082 77.2770082,51.0031573 80.0829167,51 L80.0829167,51 Z M26.9170833,51 C29.7229918,51.0031573 31.9968427,53.2770082 32,56.0829167 L32,56.0829167 L32,60.1666667 C32,61.1791887 31.1791887,62 30.1666667,62 L30.1666667,62 L22.8333333,62 C21.8208113,62 21,61.1791887 21,60.1666667 L21,60.1666667 L21,56.0829167 C21.0031573,53.2770082 23.2770082,51.0031573 26.0829167,51 L26.0829167,51 Z M62.9170833,54.6666667 L62.0829167,54.6666667 C61.3011099,54.6675507 60.6675507,55.3011099 60.6666667,56.0829167 L60.6666667,56.0829167 L60.6666667,58.3333333 L64.3333333,58.3333333 L64.3333333,56.0829167 C64.3324493,55.3011099 63.6988901,54.6675507 62.9170833,54.6666667 L62.9170833,54.6666667 Z M80.9170833,54.6666667 L80.0829167,54.6666667 C79.3011099,54.6675507 78.6675507,55.3011099 78.6666667,56.0829167 L78.6666667,56.0829167 L78.6666667,58.3333333 L82.3333333,58.3333333 L82.3333333,56.0829167 C82.3324493,55.3011099 81.6988901,54.6675507 80.9170833,54.6666667 L80.9170833,54.6666667 Z M26.9170833,54.6666667 L26.0829167,54.6666667 C25.3011099,54.6675507 24.6675507,55.3011099 24.6666667,56.0829167 L24.6666667,56.0829167 L24.6666667,58.3333333 L28.3333333,58.3333333 L28.3333333,56.0829167 C28.3324493,55.3011099 27.6988901,54.6675507 26.9170833,54.6666667 L26.9170833,54.6666667 Z M45.9170833,54.6666667 L45.0829167,54.6666667 C44.3011099,54.6675507 43.6675507,55.3011099 43.6666667,56.0829167 L43.6666667,56.0829167 L43.6666667,58.3333333 L47.3333333,58.3333333 L47.3333333,56.0829167 C47.3324493,55.3011099 46.6988901,54.6675507 45.9170833,54.6666667 L45.9170833,54.6666667 Z M62.9170833,36 C65.7229918,36.0031573 67.9968427,38.2770082 68,41.0829167 L68,41.0829167 L68,45.1666667 C68,46.1791887 67.1791887,47 66.1666667,47 L66.1666667,47 L58.8333333,47 C57.8208113,47 57,46.1791887 57,45.1666667 L57,45.1666667 L57,41.0829167 C57.0031573,38.2770082 59.2770082,36.0031573 62.0829167,36 L62.0829167,36 Z M80.9170833,36 C83.7229918,36.0031573 85.9968427,38.2770082 86,41.0829167 L86,41.0829167 L86,45.1666667 C86,46.1791887 85.1791887,47 84.1666667,47 L84.1666667,47 L76.8333333,47 C75.8208113,47 75,46.1791887 75,45.1666667 L75,45.1666667 L75,41.0829167 C75.0031573,38.2770082 77.2770082,36.0031573 80.0829167,36 L80.0829167,36 Z M26.9170833,36 C29.7229918,36.0031573 31.9968427,38.2770082 32,41.0829167 L32,41.0829167 L32,45.1666667 C32,46.1791887 31.1791887,47 30.1666667,47 L30.1666667,47 L22.8333333,47 C21.8208113,47 21,46.1791887 21,45.1666667 L21,45.1666667 L21,41.0829167 C21.0031573,38.2770082 23.2770082,36.0031573 26.0829167,36 L26.0829167,36 Z M45.9170833,36 C48.7229918,36.0031573 50.9968427,38.2770082 51,41.0829167 L51,41.0829167 L51,45.1666667 C51,46.1791887 50.1791887,47 49.1666667,47 L49.1666667,47 L41.8333333,47 C40.8208113,47 40,46.1791887 40,45.1666667 L40,45.1666667 L40,41.0829167 C40.0031573,38.2770082 42.2770082,36.0031573 45.0829167,36 L45.0829167,36 Z M62.9170833,39.6666667 L62.0829167,39.6666667 C61.3011099,39.6675507 60.6675507,40.3011099 60.6666667,41.0829167 L60.6666667,41.0829167 L60.6666667,43.3333333 L64.3333333,43.3333333 L64.3333333,41.0829167 C64.3324493,40.3011099 63.6988901,39.6675507 62.9170833,39.6666667 L62.9170833,39.6666667 Z M80.9170833,39.6666667 L80.0829167,39.6666667 C79.3011099,39.6675507 78.6675507,40.3011099 78.6666667,41.0829167 L78.6666667,41.0829167 L78.6666667,43.3333333 L82.3333333,43.3333333 L82.3333333,41.0829167 C82.3324493,40.3011099 81.6988901,39.6675507 80.9170833,39.6666667 L80.9170833,39.6666667 Z M26.9170833,39.6666667 L26.0829167,39.6666667 C25.3011099,39.6675507 24.6675507,40.3011099 24.6666667,41.0829167 L24.6666667,41.0829167 L24.6666667,43.3333333 L28.3333333,43.3333333 L28.3333333,41.0829167 C28.3324493,40.3011099 27.6988901,39.6675507 26.9170833,39.6666667 L26.9170833,39.6666667 Z M45.9170833,39.6666667 L45.0829167,39.6666667 C44.3011099,39.6675507 43.6675507,40.3011099 43.6666667,41.0829167 L43.6666667,41.0829167 L43.6666667,43.3333333 L47.3333333,43.3333333 L47.3333333,41.0829167 C47.3324493,40.3011099 46.6988901,39.6675507 45.9170833,39.6666667 L45.9170833,39.6666667 Z M80.9170833,22 C83.7229918,22.0031573 85.9968427,24.2770082 86,27.0829167 L86,27.0829167 L86,31.1666667 C86,32.1791887 85.1791887,33 84.1666667,33 L84.1666667,33 L76.8333333,33 C75.8208113,33 75,32.1791887 75,31.1666667 L75,31.1666667 L75,27.0829167 C75.0031573,24.2770082 77.2770082,22.0031573 80.0829167,22 L80.0829167,22 Z M26.9170833,22 C29.7229918,22.0031573 31.9968427,24.2770082 32,27.0829167 L32,27.0829167 L32,31.1666667 C32,32.1791887 31.1791887,33 30.1666667,33 L30.1666667,33 L22.8333333,33 C21.8208113,33 21,32.1791887 21,31.1666667 L21,31.1666667 L21,27.0829167 C21.0031573,24.2770082 23.2770082,22.0031573 26.0829167,22 L26.0829167,22 Z M45.9170833,22 C48.7229918,22.0031573 50.9968427,24.2770082 51,27.0829167 L51,27.0829167 L51,31.1666667 C51,32.1791887 50.1791887,33 49.1666667,33 L49.1666667,33 L41.8333333,33 C40.8208113,33 40,32.1791887 40,31.1666667 L40,31.1666667 L40,27.0829167 C40.0031573,24.2770082 42.2770082,22.0031573 45.0829167,22 L45.0829167,22 Z M62.9170833,22 C65.7229918,22.0031573 67.9968427,24.2770082 68,27.0829167 L68,27.0829167 L68,31.1666667 C68,32.1791887 67.1791887,33 66.1666667,33 L66.1666667,33 L58.8333333,33 C57.8208113,33 57,32.1791887 57,31.1666667 L57,31.1666667 L57,27.0829167 C57.0031573,24.2770082 59.2770082,22.0031573 62.0829167,22 L62.0829167,22 Z M62.9170833,25.6666667 L62.0829167,25.6666667 C61.3011099,25.6675507 60.6675507,26.3011099 60.6666667,27.0829167 L60.6666667,27.0829167 L60.6666667,29.3333333 L64.3333333,29.3333333 L64.3333333,27.0829167 C64.3324493,26.3011099 63.6988901,25.6675507 62.9170833,25.6666667 L62.9170833,25.6666667 Z M80.9170833,25.6666667 L80.0829167,25.6666667 C79.3011099,25.6675507 78.6675507,26.3011099 78.6666667,27.0829167 L78.6666667,27.0829167 L78.6666667,29.3333333 L82.3333333,29.3333333 L82.3333333,27.0829167 C82.3324493,26.3011099 81.6988901,25.6675507 80.9170833,25.6666667 L80.9170833,25.6666667 Z M26.9170833,25.6666667 L26.0829167,25.6666667 C25.3011099,25.6675507 24.6675507,26.3011099 24.6666667,27.0829167 L24.6666667,27.0829167 L24.6666667,29.3333333 L28.3333333,29.3333333 L28.3333333,27.0829167 C28.3324493,26.3011099 27.6988901,25.6675507 26.9170833,25.6666667 L26.9170833,25.6666667 Z M45.9170833,25.6666667 L45.0829167,25.6666667 C44.3011099,25.6675507 43.6675507,26.3011099 43.6666667,27.0829167 L43.6666667,27.0829167 L43.6666667,29.3333333 L47.3333333,29.3333333 L47.3333333,27.0829167 C47.3324493,26.3011099 46.6988901,25.6675507 45.9170833,25.6666667 L45.9170833,25.6666667 Z M91.8,10.8 L16.2,10.8 L16.2,14.4 L91.8,14.4 L91.8,10.8 Z M95.4,3.6 L12.6,3.6 L12.6,7.2 L95.4,7.2 L95.4,3.6 Z"/>
    </g>
    <path fill="#5CD999" d="M277.211419 72.1487844C276.732787 64.8189933 270.50551 59 262.91963 59 260.19747 59 257.548597 59.7532252 255.259515 61.1784221 253.540911 62.2483807 252.08034 63.6588795 250.967118 65.3122073 249.634034 64.6094938 248.133814 64.2337611 246.604491 64.2337611 244.164723 64.2337611 241.865307 65.1604651 240.129725 66.842982 238.698575 68.2303986 237.785599 70.0006901 237.491819 71.9210676 235.563583 72.4786633 233.823151 73.5800883 232.501878 75.0969929 230.888511 76.9490554 230 79.3127562 230 81.7526387 230 87.403018 234.683191 92 240.439639 92L273.560466 92C279.316809 92 284 87.403018 284 81.7525352 284 77.416496 281.263604 73.623665 277.211419 72.1487844zM273.560466 88.8947704L240.439639 88.8947704C236.427524 88.8947704 233.163463 85.6907944 233.163463 81.7525352 233.163463 78.2470414 235.715429 75.2847558 239.231513 74.7087357 239.985999 74.5851476 240.542346 73.9493001 240.552786 73.198559 240.597813 69.9675676 243.312591 67.3388872 246.604491 67.3388872 248.018559 67.3388872 249.394771 67.8281679 250.479522 68.7165741 250.851651 69.0214041 251.345468 69.1417835 251.819776 69.0435548 252.293979 68.9452225 252.696056 68.6389433 252.910855 68.2123883 254.807667 64.4453307 258.642839 62.1053332 262.91963 62.1053332 269.072145 62.1053332 274.077481 67.0186345 274.077481 73.0578921 274.077481 73.1297265 274.076005 73.2011467 274.074634 73.272567 274.059871 74.0004329 274.56244 74.6405242 275.283077 74.8121399 278.552938 75.590828 280.836537 78.444948 280.836537 81.7527422 280.836537 85.6907944 277.572476 88.8947704 273.560466 88.8947704zM69.7885811 72.1487844C70.267213 64.8189933 76.4944903 59 84.0803695 59 86.8025296 59 89.4514028 59.7532252 91.7404847 61.1784221 93.4590888 62.2483807 94.9196598 63.6588795 96.0328824 65.3122073 97.3659658 64.6094938 98.8661855 64.2337611 100.395509 64.2337611 102.835277 64.2337611 105.134693 65.1604651 106.870275 66.842982 108.301425 68.2303986 109.214401 70.0006901 109.508181 71.9210676 111.436417 72.4786633 113.176849 73.5800883 114.498122 75.0969929 116.111489 76.9490554 117 79.3127562 117 81.7526387 117 87.403018 112.316809 92 106.560361 92L73.4395339 92C67.6831909 92 63 87.403018 63 81.7525352 63 77.416496 65.7363956 73.623665 69.7885811 72.1487844zM73.4395339 88.8947704L106.560361 88.8947704C110.572476 88.8947704 113.836537 85.6907944 113.836537 81.7525352 113.836537 78.2470414 111.284571 75.2847558 107.768487 74.7087357 107.014001 74.5851476 106.457654 73.9493001 106.447214 73.198559 106.402187 69.9675676 103.687409 67.3388872 100.395509 67.3388872 98.981441 67.3388872 97.6052291 67.8281679 96.5204776 68.7165741 96.1483488 69.0214041 95.6545322 69.1417835 95.1802237 69.0435548 94.7060205 68.9452225 94.3039444 68.6389433 94.0891452 68.2123883 92.1923327 64.4453307 88.3571609 62.1053332 84.0803695 62.1053332 77.9278555 62.1053332 72.9225186 67.0186345 72.9225186 73.0578921L72.9253657 73.272567 72.9253657 73.272567C72.9401285 74.0004329 72.4375597 74.6405242 71.7169228 74.8121399 68.4470618 75.590828 66.1634632 78.444948 66.1634632 81.7527422 66.1634632 85.6907944 69.4275245 88.8947704 73.4395339 88.8947704z"/>
  </g>
</svg>
