<svg xmlns="http://www.w3.org/2000/svg" width="347" height="195" viewBox="0 0 347 195">
  <g fill="none" fill-rule="evenodd">
    <g fill="#5CD999" transform="translate(148 47)">
      <rect width="45" height="14" y="8"/>
      <rect width="32" height="10" x="6"/>
    </g>
    <path fill="#037092" d="M183.595078,46.6484375 C185.834686,46.6484375 187.656815,48.4520266 187.656815,50.6688485 L187.656815,50.6688485 L187.656815,55.0482552 C187.656815,55.2144094 187.645508,55.3797026 187.625503,55.5424129 L187.625503,55.5424129 L189.518951,55.5424129 C192.333466,55.5424129 194.62265,57.8083062 194.62265,60.594184 L194.62265,60.594184 L194.62265,66.88221 C194.62265,67.4073599 194.538284,67.9213184 194.380859,68.4068667 L194.380859,68.4068667 L202.254715,68.4068667 C204.983994,68.4068667 207.321015,70.2414483 207.944626,72.8697811 L207.944626,72.8697811 L213.685852,94.9493268 C214.500809,94.2020641 215.587997,93.7543953 216.750854,93.7543953 L216.750854,93.7543953 L223.187881,93.7543953 C225.290069,93.7543953 227,95.447789 227,97.5285883 L227,97.5285883 L227,100.903323 C227,102.984122 225.290069,104.676655 223.187881,104.676655 L223.187881,104.676655 L219.044388,104.676655 L219.774109,105.195779 C222.342483,107.023473 223.875854,109.984975 223.875854,113.116074 L223.875854,113.116074 L223.875854,125.937483 C223.875854,130.357352 220.709091,134.05923 216.502976,134.935628 L216.502976,134.935628 L216.502976,141.357954 C216.502976,145.929342 212.745651,149.648438 208.127274,149.648438 L208.127274,149.648438 L203.67067,149.648438 C199.052292,149.648438 195.294968,145.929342 195.294968,141.357954 L195.294968,141.357954 L195.294968,135.132774 L144.705032,135.132774 L144.705032,141.357954 C144.705032,145.929342 140.947708,149.648438 136.32933,149.648438 L136.32933,149.648438 L131.872726,149.648438 C127.254349,149.648438 123.497024,145.929342 123.497024,141.357954 L123.497024,141.357954 L123.497024,134.935628 C119.290909,134.05923 116.124146,130.357352 116.124146,125.937483 L116.124146,125.937483 L116.124146,113.116074 C116.124146,109.984975 117.657517,107.023473 120.225891,105.195779 L120.225891,105.195779 L120.955612,104.676655 L116.812119,104.676655 C114.709931,104.676655 113,102.984122 113,100.903323 L113,100.903323 L113,97.5285883 C113,95.447789 114.709931,93.7543953 116.812119,93.7543953 L116.812119,93.7543953 L123.249146,93.7543953 C124.412003,93.7543953 125.499191,94.2020641 126.314148,94.9493268 L126.314148,94.9493268 L132.055374,72.8689202 C132.678985,70.2405874 135.016006,68.4068667 137.745285,68.4068667 L137.745285,68.4068667 L145.619141,68.4068667 C145.461716,67.9213184 145.37735,67.4073599 145.37735,66.88221 L145.37735,66.88221 L145.37735,60.5933232 C145.37735,57.8083062 147.666534,55.5424129 150.481049,55.5424129 L150.481049,55.5424129 L152.374497,55.5424129 C152.354492,55.3797026 152.343185,55.2144094 152.343185,55.0482552 L152.343185,55.0482552 L152.343185,50.6688485 C152.343185,48.4520266 154.165314,46.6484375 156.404922,46.6484375 L156.404922,46.6484375 Z M141.365189,135.132774 L126.836868,135.132774 L126.836868,141.357954 C126.836868,144.106813 129.095611,146.342575 131.872726,146.342575 L131.872726,146.342575 L136.32933,146.342575 C139.106445,146.342575 141.365189,144.106813 141.365189,141.357954 L141.365189,141.357954 L141.365189,135.132774 Z M213.163132,135.132774 L198.634811,135.132774 L198.634811,141.357954 C198.634811,144.106813 200.893555,146.342575 203.670669,146.342575 L203.670669,146.342575 L208.127274,146.342575 C210.904389,146.342575 213.163132,144.106813 213.163132,141.357954 L213.163132,141.357954 L213.163132,135.132774 Z M202.253845,71.7135903 L137.745285,71.7135903 C136.571991,71.7135903 135.568298,72.5038979 135.304764,73.6351229 C135.301285,73.6488973 135.297806,73.6618106 135.294327,73.6755851 L135.294327,73.6755851 L127.837952,102.350499 C127.560501,103.515299 126.868179,104.541494 125.885361,105.240546 L125.885361,105.240546 L122.175873,107.88007 C120.477249,109.088776 119.463989,111.045606 119.463989,113.116074 L119.463989,113.116074 L119.463989,125.937483 C119.463989,129.184804 122.133255,131.826912 125.413956,131.826912 L125.413956,131.826912 L214.586044,131.826912 L214.586044,131.826912 L214.702591,131.82519 C214.746079,131.822607 214.789566,131.820886 214.833054,131.820886 L214.833054,131.820886 L214.853928,131.820886 C218.011124,131.681419 220.536011,129.096131 220.536011,125.937483 L220.536011,125.937483 L220.536011,113.116074 C220.536011,111.045606 219.521881,109.088776 217.824127,107.88007 L217.824127,107.88007 L214.114639,105.240546 C213.131821,104.541494 212.438629,103.515299 212.161179,102.349638 L212.161179,102.349638 L204.704804,73.6755851 C204.701324,73.6618106 204.698715,73.6488973 204.695236,73.6351229 C204.430832,72.5038979 203.428009,71.7135903 202.253845,71.7135903 L202.253845,71.7135903 Z M137.765324,111.648438 C140.099825,111.648438 142,113.314016 142,115.36201 L142,115.36201 L142,119.934865 C142,121.982091 140.100701,123.648438 137.765324,123.648438 L137.765324,123.648438 L128.235552,123.648438 C125.900175,123.648438 124,121.982859 124,119.934865 L124,119.934865 L124,115.36201 C124,113.314016 125.900175,111.648438 128.235552,111.648438 L128.235552,111.648438 Z M211.764448,111.648438 C214.099825,111.648438 216,113.314016 216,115.36201 L216,115.36201 L216,119.934865 C216,121.982091 214.099825,123.648438 211.764448,123.648438 L211.764448,123.648438 L202.234676,123.648438 C199.900175,123.648438 198,121.982859 198,119.934865 L198,119.934865 L198,115.36201 C198,113.314016 199.900175,111.648438 202.234676,111.648438 L202.234676,111.648438 Z M137.765324,114.59718 L128.235552,114.59718 C127.75394,114.59718 127.362522,114.940432 127.362522,115.36201 L127.362522,115.36201 L127.362522,119.934865 C127.362522,120.356443 127.75394,120.699695 128.235552,120.699695 L128.235552,120.699695 L137.765324,120.699695 C138.24606,120.699695 138.637478,120.356443 138.637478,119.934865 L138.637478,119.934865 L138.637478,115.36201 C138.637478,114.940432 138.24606,114.59718 137.765324,114.59718 L137.765324,114.59718 Z M211.764448,114.59718 L202.234676,114.59718 C201.75394,114.59718 201.362522,114.940432 201.362522,115.36201 L201.362522,115.36201 L201.362522,119.934865 C201.362522,120.356443 201.75394,120.699695 202.234676,120.699695 L202.234676,120.699695 L211.764448,120.699695 C212.24606,120.699695 212.637478,120.356443 212.637478,119.934865 L212.637478,119.934865 L212.637478,115.36201 C212.637478,114.940432 212.24606,114.59718 211.764448,114.59718 L211.764448,114.59718 Z M185.272128,80.6492915 C189.874369,80.6492915 193.619087,84.2771814 193.619087,88.7377439 C193.619087,91.0615406 192.602928,93.1598752 190.977778,94.6364813 C193.328252,95.7877042 195.178138,97.7801401 196.091183,100.276449 C198.906112,100.733352 201.218689,102.735182 202.018925,105.368989 C202.805942,105.368989 203.62733,105.33312 204.171984,104.700289 C204.495428,104.325373 204.649658,103.858222 204.610881,103.372283 L204.610881,103.372283 L201.663754,92.3775901 C201.428443,91.5005086 201.971334,90.6054924 202.875566,90.3783222 C203.78156,90.150298 204.7043,90.6763762 204.938731,91.552604 L204.938731,91.552604 L207.917584,102.66686 C207.936092,102.735182 207.950193,102.805212 207.959006,102.875242 C208.211944,104.833516 207.283917,106.809726 205.464877,107.896043 C204.609999,108.406749 203.612347,108.648438 202.608527,108.648438 L202.608527,108.648438 L135.449481,108.648438 C134.467693,108.648438 133.483261,108.351237 132.62662,107.844802 C130.815512,106.773857 129.573736,104.769465 130.136898,102.66686 C130.136898,102.666433 130.84085,100.008713 131.544803,97.3511002 L131.706933,96.7390163 C132.35289,94.3003649 132.952708,92.0359809 132.952708,92.0359809 C133.186257,91.1571912 134.110759,90.6285509 135.017635,90.8565751 C135.920104,91.0837453 136.462996,91.9761994 136.231209,92.851573 L136.231209,92.851573 L133.444483,103.371429 C133.354589,104.491053 134.31875,105.368989 135.430092,105.368989 L135.430092,105.368989 L136.035557,105.368989 C136.835793,102.734328 139.148371,100.733352 141.963299,100.275595 C142.877225,97.7792862 144.727111,95.7868502 147.077585,94.6364813 C145.452435,93.1598752 144.435395,91.0615406 144.435395,88.7377439 C144.435395,84.2771814 148.180113,80.6484375 152.783235,80.6484375 C157.385476,80.6484375 161.130195,84.2771814 161.130195,88.7377439 C161.130195,91.0615406 160.113154,93.1598752 158.488004,94.6364813 C159.818794,95.2881007 160.989184,96.2095917 161.919855,97.33861 C162.507694,96.3991849 163.307931,95.5972572 164.254466,94.9951708 C163.402231,93.8430937 162.890186,92.5432707 162.890186,91.1298625 C162.890186,87.8512679 165.643422,85.1832998 169.027682,85.1832998 C172.411941,85.1832998 175.165178,87.8504139 175.165178,91.1298625 C175.165178,92.5432707 174.654013,93.8430937 173.800898,94.9951708 C174.747433,95.5972572 175.54767,96.3991849 176.135508,97.3394642 C177.06618,96.2095917 178.235688,95.2881007 179.566478,94.6364813 C177.941328,93.1598752 176.925169,91.0615406 176.925169,88.7377439 C176.925169,84.2771814 180.669887,80.6492915 185.272128,80.6492915 Z M194.86527,103.456831 L143.190093,103.456831 C141.723581,103.456831 140.420112,104.221182 139.703601,105.368989 L139.703601,105.368989 L198.351763,105.368989 C197.635252,104.221182 196.331783,103.456831 194.86527,103.456831 L194.86527,103.456831 Z M123.249146,97.0602578 L116.812119,97.0602578 C116.552063,97.0602578 116.339844,97.2703178 116.339844,97.5277274 L116.339844,97.5277274 L116.339844,100.903323 C116.339844,101.160733 116.552063,101.370793 116.812119,101.370793 L116.812119,101.370793 L124.644226,101.370793 L124.983429,100.067387 L124.374603,97.9065242 C124.233704,97.408062 123.771866,97.0602578 123.249146,97.0602578 L123.249146,97.0602578 Z M223.187881,97.0611188 L216.750854,97.0611188 C216.228134,97.0611188 215.766296,97.4089229 215.625397,97.9065242 L215.625397,97.9065242 L215.017441,100.067387 L215.355774,101.370793 L223.187881,101.370793 C223.447937,101.370793 223.660156,101.161593 223.660156,100.903323 L223.660156,100.903323 L223.660156,97.5285883 C223.660156,97.2703178 223.447937,97.0611188 223.187881,97.0611188 L223.187881,97.0611188 Z M186.223951,96.8261962 L184.320305,96.8261962 C181.796211,96.8261962 179.49421,98.1550563 178.234807,100.177383 L178.234807,100.177383 L192.309449,100.177383 C191.050046,98.1550563 188.748045,96.8261962 186.223951,96.8261962 L186.223951,96.8261962 Z M169.663112,97.0772791 L168.392252,97.0772791 C166.425151,97.0772791 164.771799,98.4010149 164.330259,100.177383 L164.330259,100.177383 L173.725105,100.177383 C173.283564,98.4010149 171.630213,97.0772791 169.663112,97.0772791 L169.663112,97.0772791 Z M153.735058,96.8261962 L151.831412,96.8261962 C149.307319,96.8261962 147.005317,98.1550563 145.745914,100.177383 L145.745914,100.177383 L159.820557,100.177383 C158.561154,98.1550563 156.259152,96.8261962 153.735058,96.8261962 L153.735058,96.8261962 Z M169.027682,88.4627484 C167.509171,88.4627484 166.274445,89.6592347 166.274445,91.1298625 C166.274445,92.6013443 167.510053,93.7978305 169.027682,93.7978305 C170.545311,93.7978305 171.780918,92.6013443 171.780918,91.1298625 C171.780918,89.6592347 170.546192,88.4627484 169.027682,88.4627484 Z M185.272128,83.9278861 C182.535637,83.9278861 180.309428,86.0860022 180.309428,88.7377439 C180.309428,91.3894855 182.535637,93.5467476 185.272128,93.5467476 C188.008619,93.5467476 190.234828,91.3894855 190.234828,88.7377439 C190.234828,86.0851482 188.008619,83.9278861 185.272128,83.9278861 Z M152.783235,83.9278861 C150.046744,83.9278861 147.820536,86.0851482 147.820536,88.7377439 C147.820536,91.3894855 150.046744,93.5467476 152.783235,93.5467476 C155.519727,93.5467476 157.745935,91.3894855 157.745935,88.7377439 C157.745935,86.0851482 155.519727,83.9278861 152.783235,83.9278861 Z M197.457917,75.6484375 C199.318058,75.6484375 200.943509,76.8999618 201.411151,78.6911899 L201.411151,78.6911899 L202.946202,84.5682518 C203.177416,85.4565139 202.641973,86.3629393 201.750149,86.5930054 C200.859194,86.8239364 199.946508,86.291152 199.715294,85.4037545 L199.715294,85.4037545 L198.181112,79.5266926 C198.095059,79.198892 197.797784,78.969691 197.457917,78.969691 L197.457917,78.969691 L141.542432,78.969691 C141.202565,78.969691 140.905291,79.198892 140.819237,79.5266926 L140.819237,79.5266926 L139.285056,85.4063493 C139.05558,86.2825028 138.131595,86.8239364 137.249331,86.5964651 C136.357507,86.3655341 135.822065,85.4591087 136.054147,84.5717114 L136.054147,84.5717114 L137.589198,78.6911899 C138.056841,76.8999618 139.682291,75.6484375 141.542432,75.6484375 L141.542432,75.6484375 Z M183.595078,49.9543 L156.404922,49.9543 C156.006577,49.9543 155.683029,50.2745554 155.683029,50.6688485 L155.683029,50.6688485 L155.683029,55.0482552 C155.683029,55.2350711 155.758697,55.4115559 155.886551,55.5424129 L155.886551,55.5424129 L159.479492,55.5424129 C160.401428,55.5424129 161.149414,56.2827884 161.149414,57.1953442 C161.149414,58.1079 160.401428,58.8482754 159.479492,58.8482754 L159.479492,58.8482754 L150.481049,58.8482754 C149.508667,58.8482754 148.717193,59.630835 148.717193,60.594184 L148.717193,60.594184 L148.717193,66.88221 C148.717193,67.5175553 149.075531,68.1029685 149.630432,68.4068667 L149.630432,68.4068667 L190.369568,68.4068667 C190.924469,68.1029685 191.282807,67.5184162 191.282807,66.88221 L191.282807,66.88221 L191.282807,60.5933232 C191.282807,59.630835 190.491333,58.8482754 189.518951,58.8482754 L189.518951,58.8482754 L167.248978,58.8482754 C166.327042,58.8482754 165.579056,58.1079 165.579056,57.1953442 C165.579056,56.2819275 166.327042,55.5424129 167.248978,55.5424129 L167.248978,55.5424129 L184.113449,55.5424129 C184.241303,55.4115559 184.316101,55.2350711 184.316101,55.0482552 L184.316101,55.0482552 L184.316101,50.6688485 C184.316101,50.2745554 183.992554,49.9543 183.595078,49.9543 L183.595078,49.9543 Z"/>
    <path fill="#5CD999" d="M118.645636 79.8221473L96.4824667 50.3550101C96.1477812 49.9101049 95.6229604 49.6484375 95.0653088 49.6484375 94.5076571 49.6484375 93.9826001 49.9101049 93.6481508 50.3550101L84.4592986 62.5723561 80.8108254 57.7215C80.4763761 57.2765948 79.9513191 57.0149274 79.3936675 57.0149274 78.8360158 57.0149274 78.311195 57.2765948 77.9765095 57.7215L61.3541914 79.8221473C60.9517186 80.3572582 60.8870017 81.0737228 61.1869668 81.6721898 61.4869319 82.2704212 62.1003251 82.6484375 62.7713494 82.6484375L117.228478 82.6484375C117.899503 82.6484375 118.512896 82.2704212 118.812861 81.6721898 119.113062 81.0734873 119.048345 80.3572582 118.645636 79.8221473zM66.3142443 79.1155747L79.3936675 61.7254111 83.0419044 66.5762672C83.3763537 67.0211724 83.9014107 67.2828397 84.4590624 67.2828397 85.0167141 67.2828397 85.5415349 67.0211724 85.8762204 66.5762672L95.0650726 54.3589212 113.685583 79.1155747 66.3142443 79.1155747zM285.682295 110.164728L265.811867 84.2693649C265.511804 83.8783876 265.041275 83.6484375 264.541311 83.6484375 264.041348 83.6484375 263.570607 83.8783876 263.270756 84.2693649L255.032475 95.0058205 251.76143 90.7429469C251.461579 90.3519696 250.990838 90.1220195 250.490874 90.1220195 249.990911 90.1220195 249.520382 90.3519696 249.220319 90.7429469L234.317551 110.164728C233.956713 110.634977 233.898691 111.264597 234.167625 111.790523 234.43656 112.316241 234.986498 112.648438 235.588106 112.648438L284.411739 112.648438C285.013347 112.648438 285.563286 112.316241 285.83222 111.790523 286.101366 111.26439 286.043344 110.634977 285.682295 110.164728zM238.764495 109.543801L250.490874 94.2615355 253.761707 98.524409C254.061559 98.9153863 254.532299 99.1453364 255.032263 99.1453364 255.532226 99.1453364 256.002755 98.9153863 256.302818 98.524409L264.5411 87.7879535 281.235351 109.543801 238.764495 109.543801z"/>
  </g>
</svg>
