<svg xmlns="http://www.w3.org/2000/svg" width="347" height="195" viewBox="0 0 347 195">
  <path fill="#037092" fill-rule="evenodd" d="M216.114037,53 L219,55.8853503 L131.885963,143 L129,140.11465 L138.498832,130.617834 L136.320025,130.617834 C132.363772,130.617834 129.133786,127.388535 129.133786,123.433121 L129.133786,123.433121 L129.133786,60.3375796 C129.133786,56.3630573 132.363772,53.1528662 136.320025,53.1528662 L136.320025,53.1528662 L199.428966,53.1528662 C203.38522,53.1528662 206.615205,56.3821656 206.615205,60.3375796 L206.615205,60.3375796 L206.615205,62.4968153 L216.114037,53 Z M214.623275,66.0318471 C217.107879,67.1592357 218.847101,69.6624204 218.847101,72.566879 L218.847101,72.566879 L218.847101,135.66242 C218.847101,139.636943 215.617116,142.847134 211.660862,142.847134 L211.660862,142.847134 L148.551922,142.847134 C145.646846,142.847134 143.14313,141.10828 142.015502,138.624204 L142.015502,138.624204 L145.455723,135.184713 L145.455723,135.66242 C145.455723,137.363057 146.831811,138.757962 148.551922,138.757962 L148.551922,138.757962 L211.660862,138.757962 C213.36186,138.757962 214.757061,137.363057 214.757061,135.66242 L214.757061,135.66242 L214.757061,72.566879 C214.757061,70.866242 213.380973,69.4713376 211.660862,69.4713376 L211.660862,69.4713376 L211.183054,69.4713376 Z M206.615205,74.0382166 L206.615205,123.433121 C206.615205,127.407643 203.38522,130.617834 199.428966,130.617834 L199.428966,130.617834 L150.023572,130.617834 L154.0945,126.528662 L199.448078,126.528662 C201.149076,126.528662 202.544277,125.133758 202.544277,123.433121 L202.544277,123.433121 L202.544277,78.1082803 L206.615205,74.0382166 Z M199.428966,57.2420382 L136.320025,57.2420382 C134.619027,57.2420382 133.223827,58.6369427 133.223827,60.3375796 L133.223827,60.3375796 L133.223827,123.433121 C133.223827,125.133758 134.599915,126.528662 136.320025,126.528662 L136.320025,126.528662 L136.320025,126.547771 L142.56976,126.547771 L154.801656,114.318471 L139.339775,114.318471 C138.212147,114.318471 137.294755,113.401274 137.294755,112.273885 L137.294755,112.273885 L137.294755,63.3566879 C137.294755,62.2292994 138.212147,61.3121019 139.339775,61.3121019 L139.339775,61.3121019 L196.409216,61.3121019 C197.536844,61.3121019 198.454237,62.2292994 198.454237,63.3566879 L198.454237,63.3566879 L198.454237,70.656051 L202.525165,66.5859873 L202.525165,60.3375796 C202.525165,58.6369427 201.149076,57.2420382 199.428966,57.2420382 L199.428966,57.2420382 Z M198.473349,82.1974522 L198.473349,112.254777 C198.473349,113.382166 197.555957,114.299363 196.428329,114.299363 L196.428329,114.299363 L166.345509,114.299363 L170.416437,110.229299 L194.402421,110.229299 L194.402421,100.732484 L187.980675,92.6878981 L190.981312,89.6878981 L194.402421,93.9299363 L194.402421,86.2675159 L198.473349,82.1974522 Z M181.023784,84.0127389 L162.293693,102.738854 C161.911446,103.140127 161.376301,103.33121 160.860268,103.33121 C160.344234,103.33121 159.828201,103.140127 159.426842,102.738854 C158.643236,101.936306 158.643236,100.636943 159.426842,99.8535032 L159.426842,99.8535032 L162.064345,97.2165605 L155.451476,90.5095541 L141.365683,101.057325 L141.365683,110.229299 L158.872584,110.229299 L182.820344,86.2675159 L181.023784,84.0127389 Z M194.364196,65.4012739 L141.365683,65.4012739 L141.365683,95.9745223 L154.41941,86.1910828 C155.222128,85.5796178 156.349756,85.656051 157.076025,86.3821656 L157.076025,86.3821656 L164.950308,94.3503185 L179.819707,79.4840764 C180.240178,79.0636943 180.832661,78.8535032 181.406031,78.8917197 C181.998513,78.9299363 182.533659,79.2165605 182.896793,79.6942675 L182.896793,79.6942675 L185.801869,83.3057325 L194.364196,74.7452229 L194.364196,65.4012739 Z M165.829475,69.4522293 C170.339987,69.4522293 173.990444,73.1019108 173.990444,77.611465 C173.990444,82.1210191 170.320875,85.7707006 165.829475,85.7707006 C161.338076,85.7707006 157.668507,82.1210191 157.668507,77.611465 C157.668507,73.1019108 161.318964,69.4522293 165.829475,69.4522293 Z M165.829475,73.5414013 C163.593332,73.5414013 161.758547,75.3757962 161.758547,77.611465 C161.758547,79.8471338 163.593332,81.6815287 165.829475,81.6815287 C168.065619,81.6815287 169.900403,79.866242 169.900403,77.611465 C169.900403,75.3757962 168.084731,73.5414013 165.829475,73.5414013 Z"/>
</svg>
