<svg xmlns="http://www.w3.org/2000/svg" xmlns:xlink="http://www.w3.org/1999/xlink" width="800" height="450" viewBox="0 0 800 450">
  <defs>
    <linearGradient id="tile-b" x1="50%" x2="50%" y1="0%" y2="100%">
      <stop offset="0%" stop-color="#C0EEFF"/>
      <stop offset="100%" stop-color="#F1FDFF"/>
    </linearGradient>
    <rect id="tile-a" width="800" height="450" x="0" y="0"/>
  </defs>
  <g fill="none" fill-rule="evenodd">
    <mask id="tile-c" fill="#fff">
      <use xlink:href="#tile-a"/>
    </mask>
    <use fill="url(#tile-b)" xlink:href="#tile-a"/>
    <path fill="#D4F3FF" d="M5.1159077e-13,450 L5.1159077e-13,410 C3,410 4.8610616,409.206663 9,409 L11.5925372,398.72051 L11.8935271,397.988017 C16.8857066,385.791143 25.5189575,362.420471 25.5189575,362.420471 L25.9757609,362.3887 L26.4868632,362.364386 C28.2140246,362.29759 32.0492852,362.294196 36.3248512,363.226708 C38.5407777,366.438187 41.7803109,373.076397 44.9676179,380.129333 L45.6810226,381.716594 L45.9423558,381.249547 L46.1668943,380.852943 C47.9616614,377.700778 49.7108938,375.066557 50.7984919,374.52381 L63.3690584,368.124479 L65.6062411,372.503104 L66.6151273,374.502799 C68.2670598,377.791798 70.0945063,381.508475 70.9075878,383.434224 L71.0107254,383.682243 L71.8239199,381.20776 L90.5396575,375.195907 L112.068033,379.782575 L125.028694,388.260578 L126.850095,383.536021 L128.771656,378.496102 C132.057049,369.837887 134.797082,362.420471 134.797082,362.420471 L135.253886,362.3887 L135.764988,362.364386 C137.49215,362.29759 141.32741,362.294196 145.602976,363.226708 C146.674398,364.779489 147.985119,367.133375 149.413546,369.947901 L149.414706,349.716851 C148.638073,349.905152 147.755499,350.208899 146.929452,350.664451 L146.135106,351.099642 L145.591699,351.390371 C142.103413,353.229562 137.738758,354.946582 133.133956,351.842867 L133.371527,351.62028 C134.311874,350.763898 137.942016,347.685341 142.433599,346.798421 L142.027677,346.732102 L141.675893,346.669275 C137.91875,345.970053 134.026604,344.316589 131.737983,339.397142 L132.110966,339.330066 C133.767627,339.058886 140.616013,338.220584 146.026176,341.774648 L145.793263,341.474886 L145.590914,341.206431 C143.477544,338.359636 141.748845,334.621338 143.152114,329.142857 L143.390473,329.289951 L143.557503,329.398893 C145.009489,330.362655 149.925094,334.041995 151.076313,340.348144 C152.862337,334.766175 157.891946,331.851146 157.891946,331.851146 C159.021041,336.626831 157.337662,339.893317 155.387406,342.394867 C162.962612,337.55716 172.878125,340.885667 172.878125,340.885667 C169.65507,346.240224 164.933397,347.459987 160.540188,347.666727 C165.302919,349.775471 168.505446,354.075655 168.505446,354.075655 C162.695735,356.742596 158.117765,353.186675 154.668891,350.49906 C153.993714,349.966131 153.286097,349.563882 152.618129,349.248753 L152.49247,349.191 L152.492815,374.435385 L151.611656,374.435556 C152.826906,376.992136 154.07906,379.736351 155.305398,382.492576 L155.314248,382.476472 L155.358734,382.24206 L155.38753,382.112294 C155.392268,382.092473 155.396974,382.073563 155.401646,382.055576 L155.422447,381.980903 L155.471966,381.828208 C156.404712,379.113789 163.322519,365.763117 163.322519,365.763117 L170.842594,369.593572 L173.309435,368.334545 L175.047577,371.720033 L175.868955,372.131237 C177.12291,372.755148 179.258076,376.156375 181.326557,379.921147 L182.04375,378.31742 L182.662658,376.947274 C185.759978,370.124001 188.877116,363.773912 191.028978,360.655279 L191.447459,360.566665 C197.07626,359.410177 201.834872,359.849043 201.834872,359.849043 L205.674133,370.136154 L206.767783,373.038501 C208.277145,377.035233 209.970719,381.482186 211.60326,385.68915 L213.694683,384.319929 L213.695956,343.28828 C212.919323,343.47658 212.036749,343.780327 211.210702,344.23588 L210.416356,344.671071 L210.010188,344.889147 C206.499481,346.754971 202.080597,348.558849 197.415206,345.414296 L197.652777,345.191708 L197.889851,344.980113 C199.10686,343.914042 202.538465,341.19453 206.714849,340.369849 L206.308927,340.303531 L205.957143,340.240704 C202.2,339.541482 198.307854,337.888018 196.019233,332.968571 L196.392216,332.901495 C198.048877,332.630314 204.897263,331.792012 210.307426,335.346076 L210.074513,335.046314 L209.872164,334.777859 C207.758794,331.931065 206.030095,328.192767 207.433364,322.714286 L207.671723,322.86138 L207.90308,323.013288 C209.430417,324.039743 214.22279,327.703511 215.357563,333.919573 C217.143587,328.337603 222.173196,325.422575 222.173196,325.422575 C223.302291,330.19826 221.618912,333.464746 219.668656,335.966295 C227.243862,331.128588 237.159375,334.457096 237.159375,334.457096 C233.93632,339.811652 229.214647,341.031416 224.821438,341.238156 C229.584169,343.3469 232.786696,347.647084 232.786696,347.647084 C226.976985,350.314025 222.399015,346.758103 218.950141,344.070488 C218.274964,343.53756 217.567347,343.135311 216.899379,342.820182 L216.77372,342.762429 L216.773755,382.3065 L224.563922,377.211146 L246.092297,372.624479 L264.808034,378.636331 L265.621229,381.110814 L265.724367,380.862795 L265.88477,380.48962 C267.730522,376.261708 273.262896,365.55305 273.262896,365.55305 L284.486873,371.275451 C285.011349,371.540369 285.46952,371.770804 285.833462,371.952381 C287.019071,372.544039 288.990935,375.621107 290.950932,379.145166 L291.664336,377.557905 L292.435914,375.861221 C295.367492,369.456576 298.26988,363.607769 300.307103,360.655279 L300.725584,360.566665 C306.354385,359.410177 311.112997,359.849043 311.112997,359.849043 L314.086501,367.829846 C316.00309,372.943803 318.582549,379.771639 321.01177,386.024966 L334.485299,377.211146 L356.012786,372.624479 L374.729049,378.636331 L382.974855,403.707857 L390.571003,404.021794 C393.741441,404.154215 396.920576,404.284622 400.107907,404.41299 L400.111581,375.431137 C399.334948,375.619437 398.452374,375.923184 397.626327,376.378737 L396.831981,376.813928 C393.25906,378.749755 388.677991,380.824221 383.830831,377.557153 L384.068402,377.334566 L384.305476,377.12297 C385.522485,376.056899 388.95409,373.337387 393.130474,372.512706 L392.724552,372.446388 C388.860451,371.784491 384.794998,370.184608 382.434858,365.111428 L382.70301,365.061904 C384.152468,364.813545 391.18993,363.854095 396.723051,367.488934 L396.490138,367.189171 L396.287789,366.920716 C394.174419,364.073922 392.44572,360.335624 393.848989,354.857143 L394.087348,355.004237 L394.387147,355.202435 C395.984183,356.289333 400.654861,359.936456 401.773188,366.06243 C403.559212,360.48046 408.588821,357.565432 408.588821,357.565432 C409.717916,362.341117 408.034537,365.607603 406.084281,368.109152 C413.659487,363.271445 423.575,366.599953 423.575,366.599953 C420.351945,371.954509 415.630272,373.174273 411.237063,373.381013 C415.999794,375.489757 419.202321,379.789941 419.202321,379.789941 C413.39261,382.456882 408.81464,378.90096 405.365766,376.213345 C404.690589,375.680417 403.982972,375.278168 403.315004,374.963039 L403.189345,374.905286 L403.188526,404.536323 C446.112374,406.244532 490.488666,407.582502 535.100898,408.486401 L535.102206,375.431137 C534.325573,375.619437 533.442999,375.923184 532.616952,376.378737 L531.822606,376.813928 C528.249685,378.749755 523.668616,380.824221 518.821456,377.557153 L519.059027,377.334566 C519.999374,376.478184 523.629516,373.399627 528.121099,372.512706 L527.715177,372.446388 C523.851076,371.784491 519.785623,370.184608 517.425483,365.111428 L517.798466,365.044352 C519.455127,364.773172 526.303513,363.93487 531.713676,367.488934 L531.480763,367.189171 L531.278414,366.920716 C529.165044,364.073922 527.436345,360.335624 528.839614,354.857143 L529.077973,355.004237 L529.245003,355.113179 C530.696989,356.07694 535.612594,359.75628 536.763813,366.06243 C538.549837,360.48046 543.579446,357.565432 543.579446,357.565432 C544.708541,362.341117 543.025162,365.607603 541.074906,368.109152 C548.650112,363.271445 558.565625,366.599953 558.565625,366.599953 C555.34257,371.954509 550.620897,373.174273 546.227688,373.381013 C550.990419,375.489757 554.192946,379.789941 554.192946,379.789941 C548.383235,382.456882 543.805265,378.90096 540.356391,376.213345 C539.681214,375.680417 538.973597,375.278168 538.305629,374.963039 L538.17997,374.905286 L538.179894,408.548088 C545.521866,408.69352 552.869468,408.827161 560.217281,408.948727 L559.457741,399.398193 L567.241558,394.272643 L567.242831,350.359708 C566.466198,350.548009 565.583624,350.851756 564.757577,351.307309 L563.963231,351.742499 C560.39031,353.678326 555.809241,355.752793 550.962081,352.485724 L551.199652,352.263137 L551.308492,352.164975 C552.395806,351.193414 555.927741,348.297078 560.261724,347.441278 L559.855802,347.374959 L559.504018,347.312132 C555.746875,346.61291 551.854729,344.959447 549.566108,340.039999 L549.83426,339.990476 C551.283718,339.742116 558.32118,338.782667 563.854301,342.417505 L563.621388,342.117743 C561.418584,339.238092 559.532422,335.438116 560.980239,329.785714 L561.218598,329.932808 L561.385628,330.04175 C562.837614,331.005512 567.753219,334.684852 568.904438,340.991002 C570.690462,335.409032 575.720071,332.494003 575.720071,332.494003 C576.849166,337.269688 575.165787,340.536174 573.215531,343.037724 C580.790737,338.200017 590.70625,341.528525 590.70625,341.528525 C587.483195,346.883081 582.761522,348.102844 578.368313,348.309584 C583.131044,350.418328 586.333571,354.718512 586.333571,354.718512 C580.52386,357.385453 575.94589,353.829532 572.497016,351.141917 C571.821839,350.608988 571.114222,350.206739 570.446254,349.89161 L570.320595,349.833857 L570.32063,392.245071 L585.640137,382.158693 L605.571824,377.884336 L622.899478,383.486836 L630.87421,407.89355 C652.649595,409.254989 674.81039,409.870405 697.356593,409.739797 L697.35583,375.431137 C696.579197,375.619437 695.696622,375.923184 694.870576,376.378737 L694.076229,376.813928 C690.503309,378.749755 685.922239,380.824221 681.075079,377.557153 L681.312651,377.334566 L681.42149,377.236403 C682.508805,376.264843 686.040739,373.368507 690.374722,372.512706 L689.968801,372.446388 L689.617017,372.383561 C685.859874,371.684339 681.967727,370.030875 679.679106,365.111428 L679.947258,365.061904 C681.396717,364.813545 688.434179,363.854095 693.9673,367.488934 L693.734386,367.189171 C691.531583,364.309521 689.64542,360.509544 691.093238,354.857143 L691.331597,355.004237 L691.498626,355.113179 C692.950613,356.07694 697.866217,359.75628 699.017437,366.06243 C700.803461,360.48046 705.833069,357.565432 705.833069,357.565432 C706.962165,362.341117 705.278786,365.607603 703.32853,368.109152 C710.903736,363.271445 720.819249,366.599953 720.819249,366.599953 C717.596194,371.954509 712.874521,373.174273 708.481312,373.381013 C713.244043,375.489757 716.446569,379.789941 716.446569,379.789941 C710.636858,382.456882 706.058888,378.90096 702.610014,376.213345 C701.934838,375.680417 701.22722,375.278168 700.559253,374.963039 L700.433593,374.905286 L700.436531,409.72108 C712.808127,409.642376 725.075447,409.521779 737.210145,409.357802 L737.210205,381.859708 C736.433572,382.048009 735.550997,382.351756 734.724951,382.807309 L733.930604,383.242499 C730.357684,385.178326 725.776614,387.252793 720.929454,383.985724 L721.167026,383.763137 C722.107373,382.906755 725.737515,379.828198 730.229097,378.941278 L729.823176,378.874959 C725.959074,378.213062 721.893622,376.613179 719.533481,371.539999 L719.906465,371.472923 C721.563125,371.201743 728.411512,370.363441 733.821675,373.917505 L733.588761,373.617743 L733.386413,373.349288 C731.273043,370.502493 729.544344,366.764196 730.947613,361.285714 L731.185972,361.432808 L731.353001,361.54175 C732.804988,362.505512 737.720592,366.184852 738.871812,372.491002 C740.657836,366.909032 745.687444,363.994003 745.687444,363.994003 C746.81654,368.769688 745.133161,372.036174 743.182905,374.537724 C750.758111,369.700017 760.673624,373.028525 760.673624,373.028525 C757.450569,378.383081 752.728896,379.602844 748.335687,379.809584 C751.625758,381.266294 754.171303,383.768755 755.430937,385.177028 L755.948026,384.189411 C758.299481,379.735899 760.945781,375.251259 762.4035,374.52381 L774.974067,368.124479 L776.945566,371.979241 C779.136578,376.295 782.429011,382.887275 782.889333,384.421749 L782.924469,384.554358 C783.490936,386.930269 784.596918,402.806239 785,409 C790.788942,408.860718 795.788942,409.194051 800,410 L800,450 L5.1159077e-13,450 Z M1756.78797,381.333857 L1756.79185,409.315185 L1760.46145,409.26188 C1760.49687,405.356756 1766.16824,396.192946 1767.46688,394.145086 L1767.72966,393.734376 C1767.72966,393.734376 1769.17584,390.59268 1771.07592,386.84355 C1766.07642,388.174788 1762.06432,385.057607 1758.96439,382.641917 C1758.28921,382.108988 1757.5816,381.706739 1756.91363,381.39161 L1756.78797,381.333857 Z M740.287968,381.333857 L740.291847,409.315185 L743.961451,409.26188 C743.996871,405.356756 749.668243,396.192946 750.966876,394.145086 L751.229663,393.734376 C751.229663,393.734376 752.675837,390.59268 754.575921,386.84355 C749.576422,388.174788 745.564317,385.057607 742.464389,382.641917 C741.789213,382.108988 741.081595,381.706739 740.413628,381.39161 L740.287968,381.333857 Z" mask="url(#tile-c)"/>
    <path fill="#E2F7FF" fill-rule="nonzero" d="M280.396172,74.5714286 L207.653999,74.5714286 C199.834631,74.5714286 193.486562,68.1796877 193.486562,60.2955876 C193.486562,52.4074032 199.829767,46.0156623 207.653999,46.0156623 L215.638737,46.0156623 C215.638737,46.0009594 215.637115,45.9813553 215.637115,45.9658354 C215.637115,29.2697096 229.800499,16.0116461 246.518188,17.4664308 C258.431254,18.511164 268.232621,26.968683 271.364097,38.2361172 C274.055399,36.7845999 277.126888,35.9595955 280.392119,35.9595955 C290.974125,35.9595955 299.550625,44.6033531 299.550625,55.266329 C299.550625,65.9881169 290.90279,74.5714286 280.396172,74.5714286 Z" mask="url(#tile-c)" transform="matrix(-1 0 0 1 493.037 0)"/>
    <path fill="#E2F7FF" fill-rule="nonzero" d="M508.435215,205.071429 L459.499571,205.071429 C454.239269,205.071429 449.96875,200.76239 449.96875,195.447266 C449.96875,190.129389 454.235997,185.82035 459.499571,185.82035 L464.871122,185.82035 C464.871122,185.810438 464.870031,185.797222 464.870031,185.786759 C464.870031,174.530944 474.398126,165.592924 485.644571,166.573677 C493.658815,167.277992 500.252462,172.97969 502.359091,180.575713 C504.169604,179.597162 506.235878,179.040979 508.432488,179.040979 C515.551292,179.040979 521.320938,184.868232 521.320938,192.056755 C521.320938,199.284926 515.503303,205.071429 508.435215,205.071429 Z" mask="url(#tile-c)" transform="matrix(-1 0 0 1 971.29 0)"/>
    <path fill="#E2F7FF" fill-rule="nonzero" d="M107.748175,166.5 L48.2318518,166.5 C41.834187,166.5 36.6403125,161.257336 36.6403125,154.790602 C36.6403125,148.320519 41.8302075,143.077855 48.2318518,143.077855 L54.7648188,143.077855 C54.7648188,143.065795 54.7634922,143.049715 54.7634922,143.036985 C54.7634922,129.34241 66.3517153,118.467819 80.0298246,119.661069 C89.7768786,120.517985 97.7961784,127.455051 100.358295,136.696879 C102.56027,135.506309 105.073306,134.82962 107.744859,134.82962 C116.402864,134.82962 123.42,141.919444 123.42,150.66548 C123.42,159.459756 116.344498,166.5 107.748175,166.5 Z" mask="url(#tile-c)" transform="matrix(-1 0 0 1 160.06 0)"/>
    <path fill="#E2F7FF" fill-rule="nonzero" d="M107.748175,166.5 L48.2318518,166.5 C41.834187,166.5 36.6403125,161.257336 36.6403125,154.790602 C36.6403125,148.320519 41.8302075,143.077855 48.2318518,143.077855 L54.7648188,143.077855 C54.7648188,143.065795 54.7634922,143.049715 54.7634922,143.036985 C54.7634922,129.34241 66.3517153,118.467819 80.0298246,119.661069 C89.7768786,120.517985 97.7961784,127.455051 100.358295,136.696879 C102.56027,135.506309 105.073306,134.82962 107.744859,134.82962 C116.402864,134.82962 123.42,141.919444 123.42,150.66548 C123.42,159.459756 116.344498,166.5 107.748175,166.5 Z" mask="url(#tile-c)" transform="matrix(-1 0 0 1 160.06 0)"/>
    <path fill="#E2F7FF" fill-rule="nonzero" d="M721.199216,92.3571429 L676.672189,92.3571429 C671.885788,92.3571429 668,88.4071906 668,83.534994 C668,78.6602732 671.88281,74.710321 676.672189,74.710321 L681.559816,74.710321 C681.559816,74.7012349 681.558823,74.6891201 681.558823,74.6795291 C681.558823,64.3616986 690.228531,56.1685132 700.461783,57.0675375 C707.754024,57.7131591 713.753648,62.9397158 715.670491,69.902737 C717.317894,69.0057319 719.198018,68.4958977 721.196735,68.4958977 C727.674205,68.4958977 732.924063,73.8375457 732.924063,80.4270252 C732.924063,87.0528492 727.630539,92.3571429 721.199216,92.3571429 Z" mask="url(#tile-c)" transform="matrix(-1 0 0 1 1400.924 0)"/>
  </g>
</svg>
