<svg xmlns="http://www.w3.org/2000/svg" width="120" height="120" viewBox="0 0 120 120">
  <defs>
    <filter id="expanded-search-a">
      <feColorMatrix in="SourceGraphic" values="0 0 0 0 0.360784 0 0 0 0 0.850980 0 0 0 0 0.600000 0 0 0 1.000000 0"/>
    </filter>
  </defs>
  <g fill="none" fill-rule="evenodd" transform="translate(6 6)">
    <path fill="#037092" d="M8.89745625,5.21193375 L33.7366125,30.0513375 C34.7544,31.0689 34.7545125,32.71905 33.7366125,33.7368375 C33.2276625,34.2459 32.5629,34.5000375 31.893975,34.5000375 C31.2251625,34.5000375 30.5602875,34.2459 30.0513375,33.7368375 L5.2119225,8.89745625 L5.2119225,26.29755 C5.2119225,27.736875 4.0452525,28.9035 2.60596125,28.9035 C1.16667,28.9035 0,27.736875 0,26.29755 L0,10.067895 C0,4.51744875 4.51744875,0 10.0678838,0 L26.29755,0 C27.736875,0 28.9035,1.16667 28.9035,2.60596125 C28.9035,4.0452525 27.736875,5.21193375 26.29755,5.21193375 L8.89745625,5.21193375 Z M5.2119225,81.70245 L5.2119225,99.1026 L30.0513375,74.26305 C31.0687875,73.2456 32.718825,73.2456 33.736725,74.2633875 C34.7544,75.28095 34.7545125,76.9309875 33.7366125,77.948775 L8.897445,102.7881 L26.29755,102.7881 C27.736875,102.7881 28.9035,103.954725 28.9035,105.39405 C28.9035,106.833375 27.736875,108.000005 26.29755,108.000005 L10.0678837,108.000005 C4.51744875,108.000005 0,103.482562 0,97.93215 L0,81.70245 C0,80.263125 1.16667,79.0965 2.60596125,79.0965 C4.04524125,79.0965 5.2119225,80.263125 5.2119225,81.70245 Z M77.94855,74.2633875 L102.7881,99.1026 L102.7881,81.7025625 C102.7881,80.26335 103.954725,79.0966125 105.39405,79.0966125 C106.833262,79.0966125 108,80.26335 108,81.7025625 L108,97.93215 C108,103.482562 103.482562,107.999991 97.9320375,107.999991 L81.7023375,107.999991 C80.263125,107.999991 79.0963875,106.833375 79.0963875,105.39405 C79.0963875,103.954837 80.263125,102.7881 81.7023375,102.7881 L99.1024875,102.7881 L74.2631625,77.948775 C73.2456,76.931325 73.2454875,75.281175 74.263275,74.263275 C75.2808375,73.2456 76.9307625,73.2454875 77.94855,74.2633875 Z M74.263275,30.051225 L99.1024875,5.21193375 L81.70245,5.21193375 C80.263125,5.21193375 79.0965,4.04526375 79.0965,2.60596125 C79.0965,1.16667 80.263125,0 81.70245,0 L97.93215,0 C103.482562,0 108,4.51744875 108,10.067895 L108,26.29755 C108,27.736875 106.833262,28.9035 105.39405,28.9035 C103.954725,28.9035 102.7881,27.736875 102.7881,26.29755 L102.7881,8.89745625 L77.9486625,33.7368375 C77.4397125,34.2459 76.7748375,34.5000375 76.106025,34.5000375 C75.4371,34.5000375 74.772225,34.245675 74.263275,33.7366125 C73.2456,32.71905 73.2454875,31.0690125 74.263275,30.051225 Z"/>
    <g filter="url(#expanded-search-a)">
      <g transform="translate(33.75 31.5)">
        <path fill="#5CD999" d="M19.9356984,28.5891608 C15.2811619,28.5891608 11.4944568,24.7741364 11.4944568,20.0847902 C11.4944568,15.3954441 15.2811619,11.5804196 19.9356984,11.5804196 C24.590235,11.5804196 28.3769401,15.3954441 28.3769401,20.0847902 C28.3769401,24.7741364 24.590235,28.5891608 19.9356984,28.5891608 Z M19.9356984,17.0087413 C18.2521197,17.0087413 16.8824834,18.3886206 16.8824834,20.0847902 C16.8824834,21.7809598 18.2521197,23.1608392 19.9356984,23.1608392 C21.6192772,23.1608392 22.9889135,21.7809598 22.9889135,20.0847902 C22.9889135,18.3886206 21.6192772,17.0087413 19.9356984,17.0087413 Z"/>
        <path fill="#5CD999" d="M19.9356984,51.75 C19.1705987,51.75 18.4415987,51.4221294 17.9306341,50.8487177 C17.7506741,50.6466031 13.4731197,45.8302343 9.12767627,39.7425524 C2.98568514,31.1379388 0,24.7079108 0,20.0847902 C0,9.00992832 8.94304656,0 19.9356984,0 C30.9283503,0 39.8713969,9.00992832 39.8713969,20.0847902 C39.8713969,24.7079108 36.8857118,31.1379388 30.7437206,39.7425524 C26.3984568,45.8302343 22.1207228,50.6466031 21.9407627,50.8487177 C21.4297982,51.4221294 20.7007982,51.75 19.9356984,51.75 Z M19.9356984,5.42832168 C11.9140044,5.42832168 5.38802661,12.0031049 5.38802661,20.0847902 C5.38802661,25.6973129 13.6234457,37.3846705 19.9351596,44.9009056 C26.2472328,37.3814135 34.4833703,25.690799 34.4833703,20.0847902 C34.4833703,12.0031049 27.9572129,5.42832168 19.9356984,5.42832168 Z"/>
      </g>
    </g>
  </g>
</svg>
