<svg xmlns="http://www.w3.org/2000/svg" xmlns:xlink="http://www.w3.org/1999/xlink" width="120" height="120" viewBox="0 0 120 120">
  <defs>
    <path id="favorite-search-a" d="M28.0842,5.9262 C25.0335,2.3172 20.3595,0.0333 15.4899,0.0333 L15.4899,0.0333 C6.8694,0.0333 0.0966,6.8571 0.0966,15.5415 L0.0966,15.5415 C0.0966,26.2005 9.6123,34.8849 24.0261,48.0531 L24.0261,48.0531 L28.0842,51.7752 L32.1426,48.0813 C46.5564,34.8849 56.0721,26.2005 56.0721,15.5415 L56.0721,15.5415 C56.0721,6.8571 49.299,0.0333 40.6788,0.0333 L40.6788,0.0333 C35.8089,0.0333 31.1349,2.3172 28.0842,5.9262 L28.0842,5.9262 Z"/>
  </defs>
  <g fill="none" fill-rule="evenodd" transform="translate(1.8 1.8)">
    <g transform="translate(21.3 24.9)">
      <mask id="favorite-search-b" fill="#fff">
        <use xlink:href="#favorite-search-a"/>
      </mask>
      <polygon fill="#FA5454" points="-2.255 54.127 58.424 54.127 58.424 -2.319 -2.255 -2.319" mask="url(#favorite-search-b)"/>
    </g>
    <path fill="#FFF" d="M85.92978,75.69636 C84.48498,77.60286 82.89948,79.42236 81.17808,81.14256 C79.44828,82.87146 77.62578,84.45306 75.72648,85.88736 L79.00998,89.16816 C83.81118,93.96726 87.48198,100.07556 89.62488,106.83336 C90.29268,108.93846 91.42998,110.80356 93.00468,112.37856 C95.55768,114.93036 98.93028,116.35146 102.52938,116.39886 L102.81438,116.40006 C106.51908,116.37456 109.98348,114.89616 112.56888,112.23966 C117.59568,107.07276 117.68778,98.58546 112.77408,93.31836 C111.15618,91.58376 109.11918,90.29226 106.88268,89.58426 C100.12248,87.44196 94.01088,83.77326 89.21028,78.97416 L85.92978,75.69636 Z"/>
    <path stroke="#037092" stroke-width="8" d="M85.92978,75.69636 C84.48498,77.60286 82.89948,79.42236 81.17808,81.14256 C79.44828,82.87146 77.62578,84.45306 75.72648,85.88736 L79.00998,89.16816 C83.81118,93.96726 87.48198,100.07556 89.62488,106.83336 C90.29268,108.93846 91.42998,110.80356 93.00468,112.37856 C95.55768,114.93036 98.93028,116.35146 102.52938,116.39886 L102.81438,116.40006 C106.51908,116.37456 109.98348,114.89616 112.56888,112.23966 C117.59568,107.07276 117.68778,98.58546 112.77408,93.31836 C111.15618,91.58376 109.11918,90.29226 106.88268,89.58426 C100.12248,87.44196 94.01088,83.77326 89.21028,78.97416 L85.92978,75.69636 Z"/>
    <path fill="#FFF" d="M77.72607,77.69061 C61.62477,93.78441 35.51967,93.78441 19.41837,77.69061 C3.31707,61.59681 3.31707,35.50311 19.41837,19.40931 C35.51967,3.31551 61.62477,3.31551 77.72607,19.40931 C93.82737,35.50311 93.82737,61.59681 77.72607,77.69061 M14.22657,14.21991 C-4.74243,33.17991 -4.74243,63.92031 14.22657,82.88001 C33.19497,101.84001 63.94917,101.84001 82.91787,82.88001 C101.88627,63.92031 101.88627,33.17991 82.91787,14.21991 C63.94917,-4.74009 33.19497,-4.74009 14.22657,14.21991"/>
    <path stroke="#037092" stroke-width="8" d="M77.72607,77.69061 C61.62477,93.78441 35.51967,93.78441 19.41837,77.69061 C3.31707,61.59681 3.31707,35.50311 19.41837,19.40931 C35.51967,3.31551 61.62477,3.31551 77.72607,19.40931 C93.82737,35.50311 93.82737,61.59681 77.72607,77.69061 Z M14.22657,14.21991 C-4.74243,33.17991 -4.74243,63.92031 14.22657,82.88001 C33.19497,101.84001 63.94917,101.84001 82.91787,82.88001 C101.88627,63.92031 101.88627,33.17991 82.91787,14.21991 C63.94917,-4.74009 33.19497,-4.74009 14.22657,14.21991 Z"/>
  </g>
</svg>
