<svg xmlns="http://www.w3.org/2000/svg" width="120" height="120" viewBox="0 0 120 120">
  <g fill="none" fill-rule="evenodd">
    <path fill="#037092" d="M116.484353,52.7187059 L78.5782353,52.7187059 L78.5782353,39.2889412 C78.5782353,32.6812941 75.1075294,26.872 69.8964706,23.5776471 C72.3527059,21.0738824 73.8712941,17.6472941 73.8712941,13.8710588 C73.8710588,6.22265882 67.6485882,0 60,0 C52.3514118,0 46.1289412,6.22265882 46.1289412,13.8712941 C46.1289412,17.6472941 47.6475294,21.0741176 50.1037647,23.5778824 C44.8927059,26.8722353 41.422,32.6812941 41.422,39.2891765 L41.422,52.7189412 L3.51562353,52.7189412 C1.57405882,52.7189412 0,54.2929412 0,56.2345882 C0,58.1761176 1.57405882,59.7501176 3.51562353,59.7501176 L7.53117647,59.7501176 L7.53117647,116.484353 C7.53117647,118.425882 9.10523529,120 11.0468,120 L108.952941,120 C110.894588,120 112.468588,118.425882 112.468588,116.484353 L112.468588,59.7498824 L116.484353,59.7498824 C118.425882,59.7498824 120,58.1758824 120,56.2343529 C120,54.2927059 118.425882,52.7187059 116.484353,52.7187059 Z M53.1602353,13.8712941 C53.1602353,10.0996824 56.2284706,7.03124706 60,7.03124706 C63.7715294,7.03124706 66.8397647,10.0996824 66.8397647,13.8712941 C66.8397647,17.6428235 63.7715294,20.7110588 60,20.7110588 C56.2284706,20.7110588 53.1602353,17.6425882 53.1602353,13.8712941 Z M48.4530588,39.2889412 C48.4530588,32.922 53.6329412,27.742 60,27.742 C66.3670588,27.742 71.5469412,32.922 71.5469412,39.2889412 L71.5469412,52.7187059 L48.4532941,52.7187059 L48.4532941,39.2889412 L48.4530588,39.2889412 Z M105.437529,112.968706 L14.5624706,112.968706 L14.5624706,59.7498824 L105.437529,59.7498824 L105.437529,112.968706 Z M77.4017647,53.8951765 L77.4017647,39.2889412 C77.4017647,33.1034118 74.154,27.6610588 69.2678824,24.5721176 L68.0364706,23.7936471 L69.0567059,22.7537647 C71.3070588,20.4597647 72.6948235,17.3252941 72.6948235,13.8710588 C72.6945882,6.87238824 66.9988235,1.17647059 60,1.17647059 C53.0011765,1.17647059 47.3054118,6.87237647 47.3054118,13.8712941 C47.3054118,17.3252941 48.6931765,20.46 50.9435294,22.754 L51.9637647,23.7938824 L50.7323529,24.5723529 C45.8462353,27.6612941 42.5984706,33.1034118 42.5984706,39.2891765 L42.5984706,53.8954118 L3.51562353,53.8954118 C2.22381176,53.8954118 1.17647059,54.9427059 1.17647059,56.2345882 C1.17647059,57.5263529 2.22381176,58.5736471 3.51562353,58.5736471 L8.70764706,58.5736471 L8.70764706,116.484353 C8.70764706,117.776471 9.75497647,118.823529 11.0468,118.823529 L108.952941,118.823529 C110.244824,118.823529 111.292118,117.776471 111.292118,116.484353 L111.292118,58.5734118 L116.484353,58.5734118 C117.776471,58.5734118 118.823529,57.5261176 118.823529,56.2343529 C118.823529,54.9424706 117.776471,53.8951765 116.484353,53.8951765 L77.4017647,53.8951765 Z M47.2765882,40.4654118 L47.2765882,39.2889412 C47.2765882,32.2722353 52.9831765,26.5655294 60,26.5655294 C67.0168235,26.5655294 72.7234118,32.2722353 72.7234118,39.2889412 L72.7234118,53.8951765 L47.2765882,53.8951765 L47.2765882,40.4654118 Z M48.5124706,38.1124706 C49.1037647,32.296 54.0301176,27.742 60,27.742 C66.3670588,27.742 71.5469412,32.922 71.5469412,39.2889412 L71.5469412,52.7187059 L48.4532418,52.7187059 L48.4532418,39.2889412 C48.4532418,39.2643529 48.4532418,39.2396471 48.4532418,39.2149412 C48.4556471,38.8430588 48.4756471,38.4754118 48.5124706,38.1124706 Z M106.614,114.145176 L13.386,114.145176 L13.386,58.5734118 L106.614,58.5734118 L106.614,114.145176 Z M49.1151765,24.248 C44.4583529,27.6268235 41.422,33.1084706 41.422,39.2891765 L41.422,52.7189412 L3.51562353,52.7189412 C1.57405882,52.7189412 0,54.2929412 0,56.2345882 C0,58.1761176 1.57405882,59.7501176 3.51562353,59.7501176 L7.53117647,59.7501176 L7.53117647,116.484353 C7.53117647,118.425882 9.10523529,120 11.0468,120 L108.952941,120 C110.894588,120 112.468588,118.425882 112.468588,116.484353 L112.468588,59.7498824 L116.484353,59.7498824 C118.425882,59.7498824 120,58.1758824 120,56.2343529 C120,54.2927059 118.425882,52.7187059 116.484353,52.7187059 L78.5782353,52.7187059 L78.5782353,39.2889412 C78.5782353,33.1084706 75.5418824,27.6265882 70.8850588,24.2477647 C70.5630588,24.0142353 70.2334118,23.7907059 69.8964706,23.5776471 C70.1748235,23.2938824 70.4411765,22.9982353 70.6947059,22.6916471 C72.6774118,20.2925882 73.8712941,17.2192941 73.8712941,13.8710588 C73.8710588,6.22265882 67.6485882,0 60,0 C52.3514118,0 46.1289412,6.22265882 46.1289412,13.8712941 C46.1289412,17.2192941 47.3228235,20.2928235 49.3055294,22.6918824 C49.5590588,22.9984706 49.8254118,23.2941176 50.1037647,23.5778824 C49.7668235,23.7909412 49.4371765,24.0144706 49.1151765,24.248 Z M51.9837647,13.8712941 C51.9837647,9.44998824 55.5785882,5.85477647 60,5.85477647 C64.4214118,5.85477647 68.0162353,9.44998824 68.0162353,13.8712941 C68.0162353,18.2925882 64.4212941,21.8875294 60,21.8875294 C55.5787059,21.8875294 51.9837647,18.2923529 51.9837647,13.8712941 Z M60,7.03124706 C56.2284706,7.03124706 53.1602353,10.0996824 53.1602353,13.8712941 C53.1602353,17.6425882 56.2284706,20.7110588 60,20.7110588 C63.7715294,20.7110588 66.8397647,17.6428235 66.8397647,13.8712941 C66.8397647,10.0996824 63.7715294,7.03124706 60,7.03124706 Z M105.437529,112.968706 L105.437529,59.7498824 L14.5624706,59.7498824 L14.5624706,112.968706 L105.437529,112.968706 Z"/>
    <path fill="#5CD999" d="M55.7452941,68.9592941 C54.7969412,67.994 53.2675294,67.9938824 52.3188235,68.9592941 C51.3589412,69.9362353 51.3589412,71.5282353 52.3188235,72.5050588 L63.5883529,83.9736471 L47.3011765,83.9736471 L44.1463529,80.7631765 C43.198,79.7978824 41.6685882,79.7977647 40.7198824,80.7631765 C39.76,81.74 39.76,83.332 40.7198824,84.3089412 L42.8441176,86.4705882 L40.7198824,88.6322353 C39.76,89.6091765 39.76,91.2011765 40.7198824,92.178 C41.6682353,93.1432941 43.1977647,93.1434118 44.1463529,92.178 L47.3011765,88.9675294 L63.5883529,88.9675294 L52.3188235,100.436118 C51.3589412,101.412941 51.3589412,103.004941 52.3188235,103.981882 C53.2671765,104.947059 54.7967059,104.947294 55.7452941,103.981882 L70.4990588,88.9675294 L81.0962353,88.9675294 C82.4207059,88.9675294 83.5294118,87.8690588 83.5294118,86.4705882 C83.5294118,85.0721176 82.4207059,83.9736471 81.0962353,83.9736471 L70.4990588,83.9736471 L55.7452941,68.9592941 Z"/>
  </g>
</svg>
