<svg xmlns="http://www.w3.org/2000/svg" width="120" height="120" viewBox="0 0 120 120">
  <g fill="none" fill-rule="evenodd" transform="translate(6 6)">
    <path fill="#037092" d="M107.073141,0.926859375 C105.83768,-0.3088125 103.833984,-0.3088125 102.598313,0.926859375 L93.3824531,10.1427187 C92.815875,9.87271875 92.2180781,9.65524219 91.5939141,9.49935937 L62.9547188,2.42388281 C59.7387656,1.62 56.2844531,2.57660156 53.9403047,4.92075 L2.7759375,56.0009531 C-0.924960937,59.7020625 -0.924960937,65.7243281 2.7759375,69.4256484 L38.5747734,105.224273 C42.2758828,108.925383 48.2981484,108.925594 51.9994688,105.224273 L103.079672,54.0596953 C105.42382,51.7155469 106.380633,48.2612344 105.576328,45.0450703 L98.5010625,16.4060859 C98.3449688,15.7821328 98.1277031,15.184125 97.8577031,14.6175469 L107.073563,5.4016875 C108.308813,4.16601562 108.308813,2.16253125 107.073141,0.926859375 Z M99.4365703,46.5802734 C99.7046719,47.6522578 99.3857344,48.8035547 98.6044219,49.5850781 L47.5242188,100.749445 C46.2904453,101.983219 44.2829531,101.983219 43.0491797,100.749445 L7.25055469,64.9506094 C6.01678125,63.7168359 6.01678125,61.7093438 7.25055469,60.4755703 L58.4151328,9.39557813 C59.0135625,8.79714844 59.8290469,8.46998438 60.6597187,8.46998438 C60.9136875,8.46998438 61.1691328,8.50057031 61.4199375,8.56321875 L88.3207969,15.2041641 L80.7006797,22.8242813 C77.17275,21.1439531 72.8149922,21.7603125 69.8985703,24.6767344 C66.19725,28.3780547 66.19725,34.4001094 69.8985703,38.1014297 C71.7489141,39.9519844 74.1799688,40.8773672 76.6108125,40.8773672 C79.0414453,40.8773672 81.4725,39.9521953 83.3228438,38.1014297 C86.2398984,35.1845859 86.8560469,30.8270391 85.1752969,27.2991094 L92.7954141,19.6789922 L99.4365703,46.5802734 Z M78.8482266,33.6268125 C77.6146641,34.860375 75.6071719,34.8605859 74.3733984,33.6268125 C73.1398359,32.39325 73.1398359,30.3855469 74.3733984,29.1519844 C74.9903906,28.5349922 75.8003906,28.2268125 76.6108125,28.2268125 C77.4208125,28.2268125 78.2312344,28.5352031 78.8478047,29.1517734 L78.8480156,29.1519844 L78.8482266,29.1521953 C80.082,30.3857578 80.0817891,32.39325 78.8482266,33.6268125 Z"/>
    <path fill="#5CD999" d="M51.9990469 38.1016406C48.2979375 34.4005312 42.2756719 34.4005312 38.5743516 38.1016406 34.8734531 41.80275 34.8734531 47.8250156 38.5743516 51.5263359 42.2754609 55.2274453 48.2979375 55.2274453 51.9990469 51.5263359 55.7003672 47.8250156 55.7003672 41.8029609 51.9990469 38.1016406zM47.5244297 47.0512969C46.2906562 48.2850703 44.2831641 48.2850703 43.0496016 47.0512969 41.8160391 45.8175234 41.8156172 43.8100312 43.0493906 42.5764687 44.2831641 41.3429062 46.2904453 41.3426953 47.5244297 42.5764687 48.7579922 43.8100312 48.7579922 45.8175234 47.5244297 47.0512969zM56.473875 69.4254375C52.7641172 65.7156797 46.7597813 65.7152578 43.0493906 69.4254375 39.3480703 73.1267578 39.3480703 79.1488125 43.0493906 82.8501328 46.7593594 86.5598906 52.7636953 86.5605234 56.473875 82.8501328 60.1751953 79.1488125 60.1751953 73.1267578 56.473875 69.4254375zM51.9990469 78.3753047C50.7627422 79.6118203 48.7607344 79.6120313 47.5242188 78.3753047 46.2906563 77.1417422 46.2906563 75.1340391 47.5242188 73.9004766 48.7607344 72.6639609 50.7625313 72.66375 51.9990469 73.9004766 53.2326094 75.1340391 53.2326094 77.1413203 51.9990469 78.3753047zM70.8060234 57.8890547C70.6130156 56.1521953 69.0482813 54.9004922 67.3116328 55.0935L27.0381797 59.5683281C25.3013203 59.7613359 24.0496172 61.3256484 24.242625 63.0627188 24.4225547 64.6808203 25.7923828 65.8778906 27.3836953 65.8778906 27.5003438 65.8778906 27.6184688 65.8713516 27.7370156 65.8582734L68.0106797 61.3834453C69.7475391 61.1902266 70.9992422 59.6259141 70.8060234 57.8890547z"/>
  </g>
</svg>
