<svg xmlns="http://www.w3.org/2000/svg" width="120" height="120" viewBox="0 0 120 120">
  <defs>
    <filter id="on-going-search-a">
      <feColorMatrix in="SourceGraphic" values="0 0 0 0 0.360784 0 0 0 0 0.850980 0 0 0 0 0.600000 0 0 0 1.000000 0"/>
    </filter>
  </defs>
  <g fill="none" fill-rule="evenodd">
    <path fill="#037092" fill-rule="nonzero" d="M105.837632,14.1483947 C86.9842105,-4.70122105 56.3082632,-4.70122105 37.4551579,14.1483947 C28.3220526,23.2796053 23.2923158,35.4202895 23.2923158,48.3336316 C23.2923158,57.3598421 25.7499474,66.0085263 30.3481579,73.5157895 L26.6748158,77.1875526 C22.7406316,81.1207895 17.7161053,84.1334211 12.1449474,85.8994737 C9.29897368,86.8010526 6.70983158,88.4415789 4.65670263,90.6426316 C1.60490526,93.915 -0.048375,98.205 -3.79388123e-09,102.723158 C0.0502968947,107.238947 1.79568947,111.493421 4.91591842,114.700263 C8.20089474,118.077632 12.6026842,119.955789 17.3108684,119.988947 C17.3527895,119.988947 17.3940789,119.988947 17.436,119.988947 C22.0979211,119.988947 26.4761053,118.176316 29.7758684,114.877105 C31.7481316,112.905 33.2338421,110.466316 34.0717105,107.823158 C35.8376842,102.252632 38.8508684,97.2292105 42.7848158,93.2960526 L46.4685,89.6147368 C54.1683947,94.3089474 62.9073158,96.6568421 71.6462368,96.6568421 C84.0284211,96.6568421 96.4105263,91.9444737 105.837632,82.5197368 C114.970263,73.3878158 120,61.2472105 120,48.3336316 C120,35.4200526 114.970263,23.2796053 105.837632,14.1483947 L105.837632,14.1483947 Z M39.471,89.9810526 C35.0077895,94.4431579 31.5957632,100.122632 29.6036053,106.406053 C28.9829211,108.363158 27.9256579,110.097632 26.4618158,111.562105 C24.0479211,113.975526 20.8454211,115.301053 17.4350526,115.301053 C17.4043421,115.301053 17.3736316,115.301053 17.3431579,115.301053 C13.8995526,115.277368 10.6792105,113.902895 8.27589474,111.432632 C3.60341842,106.628684 3.51764211,98.7371053 8.08515789,93.84 C9.58910526,92.2271053 11.4826579,91.0263158 13.5615789,90.3678947 C19.8456316,88.3760526 25.5263684,84.9647368 29.9891053,80.5026316 L33.0383684,77.4549474 C34.3815789,79.2276316 35.8552895,80.9194737 37.4553947,82.5189474 C39.0633947,84.1263158 40.7574474,85.5971053 42.5227895,86.9305263 L39.471,89.9810526 Z M102.523421,79.2039474 C85.4976316,96.2265789 57.7949211,96.2265789 40.7694474,79.2039474 C32.5222895,70.9582895 27.9800526,59.9949474 27.9800526,48.3336316 C27.9800526,36.6725526 32.5222895,25.7088947 40.7694474,17.4631579 C49.2821842,8.95207895 60.4642105,4.69650789 71.6462368,4.69650789 C82.8284211,4.69650789 94.0105263,8.95207895 102.523421,17.4633947 C110.770263,25.7088947 115.312895,36.6725526 115.312895,48.3336316 C115.312895,59.9949474 110.770263,70.9582895 102.523421,79.2039474 L102.523421,79.2039474 Z"/>
    <path fill="#037092" fill-rule="nonzero" d="M97.3555263,22.6278947 C83.1789474,8.45455263 60.1128158,8.45431579 45.9359211,22.6281316 C39.0788684,29.4840789 35.3023421,38.6132368 35.3023421,48.3337105 C35.3023421,58.0541842 39.0788684,67.1833421 45.9359211,74.0392895 C53.0241316,81.1263158 62.3351842,84.6694737 71.6456842,84.6694737 C80.9565789,84.6694737 90.2676316,81.1263158 97.3555263,74.0392895 C104.212895,67.1833421 107.988947,58.0541842 107.988947,48.3337105 C107.988947,38.613 104.212895,29.4838421 97.3555263,22.6278947 L97.3555263,22.6278947 Z M94.0413158,70.7242105 C81.6923684,83.0707895 61.5994737,83.0707895 49.2504474,70.7242105 C43.2788684,64.7538158 39.9900789,56.8019211 39.9900789,48.3337105 C39.9900789,39.8652632 43.2788684,31.9136053 49.2504474,25.9428947 C61.5994737,13.5963158 81.6923684,13.5963158 94.0413158,25.9426579 C100.012895,31.9133684 103.301842,39.8650263 103.301842,48.3334737 C103.301842,56.8019211 100.012895,64.7538158 94.0413158,70.7242105 Z"/>
    <g filter="url(#on-going-search-a)">
      <g transform="translate(55.263 27.632)">
        <path fill="#5CD999" d="M15.9330144,22.6794258 C12.2130144,22.6794258 9.18660287,19.6530144 9.18660287,15.9330144 C9.18660287,12.2130144 12.2130144,9.18660287 15.9330144,9.18660287 C19.6530144,9.18660287 22.6794258,12.2130144 22.6794258,15.9330144 C22.6794258,19.6530144 19.6530144,22.6794258 15.9330144,22.6794258 Z M15.9330144,13.492823 C14.5874641,13.492823 13.492823,14.5874641 13.492823,15.9330144 C13.492823,17.2785646 14.5874641,18.3732057 15.9330144,18.3732057 C17.2785646,18.3732057 18.3732057,17.2785646 18.3732057,15.9330144 C18.3732057,14.5874641 17.2785646,13.492823 15.9330144,13.492823 Z"/>
        <path fill="#5CD999" d="M15.9330144,41.0526316 C15.3215311,41.0526316 14.7388995,40.7925359 14.3305263,40.3376555 C14.1866986,40.1773206 10.7679904,36.356555 7.29502392,31.5272727 C2.3862201,24.7013397 0,19.6004785 0,15.9330144 C0,7.14746411 7.14746411,0 15.9330144,0 C24.7185646,0 31.8660287,7.14746411 31.8660287,15.9330144 C31.8660287,19.6004785 29.4798086,24.7013397 24.5710048,31.5272727 C21.0981818,36.356555 17.6793301,40.1773206 17.5355024,40.3376555 C17.1271292,40.7925359 16.5444976,41.0526316 15.9330144,41.0526316 Z M15.9330144,4.3062201 C9.52191388,4.3062201 4.3062201,9.52191388 4.3062201,15.9330144 C4.3062201,20.3853589 10.888134,29.6567943 15.9325837,35.6193301 C20.9773206,29.6542105 27.5598086,20.3801914 27.5598086,15.9330144 C27.5598086,9.52191388 22.3439713,4.3062201 15.9330144,4.3062201 Z"/>
      </g>
    </g>
  </g>
</svg>
