<svg xmlns="http://www.w3.org/2000/svg" width="120" height="120" viewBox="0 0 120 120">
  <g fill="none" fill-rule="evenodd" transform="translate(8 8)">
    <path fill="#037092" d="M81.9502842 9.03612002L87.288724 7.81606534C88.9910326 7.4275385 90.0564774 5.73163858 89.6671496 4.02852873 89.2786227 2.32622012 87.5827224 1.26077528 85.8796129 1.65010318L72.9893312 4.59569791C71.2862217 4.98422498 70.2215775 6.6801249 70.6109056 8.3824335L73.5556992 21.2735163C73.8905534 22.7395043 75.1931201 23.7320505 76.6358765 23.7320505 76.8689929 23.7320505 77.1061144 23.7064157 77.3432359 23.6519418 79.0455445 23.2634149 80.1109897 21.567515 79.7216615 19.8652064L78.4511385 14.3056664C92.5454529 23.875445 100.29276 40.4603374 98.3797654 57.615603 95.5591403 82.9155147 72.6801118 101.201914 47.3810013 98.3836924 45.6434449 98.1890283 44.0813264 99.4411264 43.8874636 101.17628 43.6944017 102.912234 44.9440966 104.476756 46.6800508 104.669818 48.6603364 104.890917 50.6342133 104.999865 52.5976763 104.999865 64.4529542 104.999865 75.8772479 101.013659 85.2731906 93.5018716 96.2248432 84.7467984 103.111783 72.2514522 104.665891 58.3157525 106.843243 38.7876687 98.0112656 19.909266 81.9502842 9.03612002zM30.8930406 83.1021676C30.5045137 81.3990581 28.8086136 80.3352152 27.105504 80.7229411 25.4031954 81.112269 24.3377503 82.808169 24.7270785 84.5104778L26.0656937 90.3672207C12.2733888 80.7501778 4.72154717 64.3463313 6.61291217 47.3849283 9.43273639 22.0842157 32.3125658 3.79621377 57.6116763 6.61603799 59.3476305 6.81070205 60.9113512 5.55940494 61.104413 3.82345061 61.2982758 2.08749647 60.04778.523775766 58.3126267.330713785 44.3785296-1.22499595 30.6711397 2.74278506 19.7194871 11.4978586 8.76703354 20.2529321 1.88009358 32.7490793.326786949 46.6839778-1.81371598 65.8796109 6.6834078 84.4463908 22.2276888 95.4012475L17.160016 96.5588177C15.4569063 96.9481455 14.3922625 98.6432442 14.7815904 100.346354 15.1156434 101.812342 16.4190111 102.804888 17.8609666 102.804888 18.0940828 102.804888 18.3312044 102.779254 18.568326 102.72478L31.4594088 99.779986C32.277318 99.5933328 32.9870805 99.0894496 33.4332856 98.378886 33.879491 97.6683222 34.0244874 96.8103586 33.8378342 95.9924493L30.8930406 83.1021676z"/>
    <path fill="#5CD999" d="M80.6586149,50.2406225 L32.6821051,29.7134785 C31.8323335,29.3500525 30.8470145,29.5402892 30.1935529,30.1942745 C29.5400913,30.8482598 29.3501138,31.8342918 29.713634,32.6843974 L50.2290735,80.6584088 C50.5874673,81.4964453 51.4093453,82.03125 52.307365,82.03125 C52.3755156,82.03125 52.4441187,82.0282329 52.513023,82.0218965 C53.4891446,81.9331898 54.2971511,81.2253471 54.5139666,80.2688841 L59.2706369,59.2880987 L80.2691613,54.528413 C81.2253806,54.3116247 81.9331216,53.5031572 82.0219283,52.5263278 C82.1105844,51.5491968 81.5601025,50.6263757 80.6586149,50.2406225 Z M56.7233028,55.0432608 C55.8801902,55.2344477 55.2217093,55.8930468 55.0304941,56.7366945 L51.5278736,72.1875 L36.09375,36.09375 L72.1875,51.5376684 L56.7233028,55.0432608 Z"/>
  </g>
</svg>
