<svg xmlns="http://www.w3.org/2000/svg" width="120" height="120" viewBox="0 0 120 120">
  <g fill="none" fill-rule="evenodd">
    <rect width="119.757" height="119.757"/>
    <circle cx="38.22" cy="59.879" r="8.918" fill="#5CD999"/>
    <path fill="#037092" d="M81.6897706,27.8743472 L100.216792,38.6965142 L100.216792,35.6666455 C100.216792,34.3540457 101.279337,33.289817 102.590238,33.289817 L117.383885,33.289817 C118.694786,33.289817 119.757331,34.3540457 119.757331,35.6666455 L119.757331,93.0105695 C119.757331,94.3232497 118.694786,95.387237 117.383885,95.387237 L102.590238,95.387237 C101.279337,95.387237 100.216792,94.3232497 100.216792,93.0105695 L100.216792,88.2194075 L79.1483432,88.2194075 C75.4172192,88.2194075 71.7554579,87.5546166 68.262,86.2427412 L57.129471,82.0624463 L56.5846957,82.5582225 C56.3520129,82.7698932 56.1217412,82.9759301 55.8895406,83.1747235 C51.1723074,87.2165874 45.3540301,89.7284666 39.2239015,90.4165975 L38.1525958,90.5365174 L38.1525958,102.567944 C38.1525958,107.829932 33.8754909,112.113246 28.620716,112.113246 L9.53187978,112.113246 C4.27705671,112.113246 0,107.829932 0,102.567944 L0,16.5518968 C0,11.2899083 4.27705671,7.00707786 9.53187978,7.00707786 L28.6204749,7.00707786 C33.8752498,7.00707786 38.1523547,11.2899083 38.1523547,16.5518968 L38.1523547,28.586784 L39.2231781,28.7074283 C41.362896,28.9483948 43.4492455,29.411012 45.4559444,30.0755614 L45.7765565,30.1817991 L66.0491417,25.4971968 C71.3965878,24.2621828 76.948827,25.1057267 81.6897706,27.8743472 Z M32.333354,28.7022773 L33.4054635,28.5826794 L33.4054635,16.5518968 C33.4054635,13.9089106 31.2601194,11.7605738 28.620716,11.7605738 L9.53187978,11.7605738 C6.8924684,11.7605738 4.74709217,13.9089106 4.74709217,16.5518968 L4.74709217,102.567944 C4.74709217,105.211011 6.8924684,107.359911 9.53187978,107.359911 L28.620716,107.359911 C31.2601194,107.359911 33.4054635,105.211011 33.4054635,102.567944 L33.4054635,90.5349078 L32.3335148,90.4149879 C29.1495773,90.0592523 26.0612849,89.2133744 23.1504584,87.9006942 L21.4498239,87.1336897 L21.4498239,95.4001143 C21.4498239,96.7127945 20.3871182,97.7767818 19.0762979,97.7767818 C17.7654776,97.7767818 16.7026915,96.7127945 16.7026915,95.4001143 L16.7026915,23.7198873 C16.7026915,22.4072876 17.7654776,21.3431394 19.0762979,21.3431394 C20.3871182,21.3431394 21.4498239,22.4072876 21.4498239,23.7198873 L21.4498239,31.9890483 L23.1502976,31.2225268 C26.0631335,29.9095246 29.150381,29.057369 32.333354,28.7022773 Z M21.4498239,37.5469734 L21.4498239,81.5731088 L22.0203993,81.9272346 C26.1671375,84.4994762 30.8877464,85.8556173 35.7789894,85.8556173 C47.0989507,85.8556173 56.8861788,78.7032405 60.5159511,68.3217187 L61.0775246,66.7155164 L50.0956166,66.7155164 C44.8408418,66.7155164 40.5638172,62.432686 40.5638172,57.1706975 C40.5638172,51.9087895 44.8408418,47.625959 50.0956166,47.625959 L59.244916,47.625959 L58.1123653,45.7853898 C53.4023657,38.1307981 44.9911413,33.2647063 35.7789894,33.2647063 C30.8875857,33.2647063 26.1671375,34.6199621 22.0203993,37.192928 L21.4498239,37.5469734 Z M61.4019143,76.9973196 L60.5418316,78.2668609 L69.9288773,81.7920229 C72.886803,82.9026904 75.989402,83.4660725 79.1485843,83.4660725 L100.216792,83.4660725 L100.216792,44.1997107 L79.2979193,31.9805171 C75.6081075,29.8253392 71.2802062,29.1669871 67.117152,30.1292436 L52.7119526,33.4581073 L54.7225898,35.0165831 C58.7038379,38.1025486 61.9483774,42.1576922 64.0680822,46.9109467 L64.386926,47.625959 L71.5708387,47.625959 C72.8816591,47.625959 73.9443647,48.6901072 73.9443647,50.002707 C73.9443647,51.3153067 72.8816591,52.3794549 71.5708387,52.3794549 L50.0958578,52.3794549 C47.4564544,52.3794549 45.3111103,54.5277112 45.3111103,57.1706975 C45.3111103,59.8136837 47.4564544,61.96194 50.0958578,61.96194 L71.5708387,61.96194 C72.364211,61.96194 73.1052597,62.3591244 73.5455487,63.0204544 C76.0920397,66.8452553 80.3554006,69.130011 84.9457232,69.130011 L88.2732088,69.130011 C89.5841095,69.130011 90.6466544,70.1941592 90.6466544,71.506759 C90.6466544,72.8193587 89.5841095,73.8835874 88.2732088,73.8835874 L84.946527,73.8835874 C79.3879382,73.8835874 74.1908719,71.3990725 70.7059336,67.1559202 L70.3442504,66.7155164 L65.9358143,66.7155164 L65.6960585,67.6096843 C64.7972355,70.9614051 63.3408578,74.1353387 61.4019143,76.9973196 Z M104.963683,90.633902 L115.010439,90.633902 L115.010439,38.0433934 L104.963683,38.0433934 L104.963683,90.633902 Z"/>
    <rect width="7.007" height="36.309" x="105.106" y="47.139" fill="#5CD999"/>
  </g>
</svg>
