<svg xmlns="http://www.w3.org/2000/svg" xmlns:xlink="http://www.w3.org/1999/xlink" width="64" height="64" viewBox="0 0 64 64">
  <defs>
    <rect id="hover-b" width="60" height="60" x="0" y="0" rx="30"/>
    <filter id="hover-a" width="126.7%" height="126.7%" x="-13.3%" y="-11.7%" filterUnits="objectBoundingBox">
      <feOffset dy="1" in="SourceAlpha" result="shadowOffsetOuter1"/>
      <feGaussianBlur in="shadowOffsetOuter1" result="shadowBlurOuter1" stdDeviation="2.5"/>
      <feComposite in="shadowBlurOuter1" in2="SourceAlpha" operator="out" result="shadowBlurOuter1"/>
      <feColorMatrix in="shadowBlurOuter1" result="shadowMatrixOuter1" values="0 0 0 0 0   0 0 0 0 0   0 0 0 0 0  0 0 0 0.2 0"/>
      <feMorphology in="SourceAlpha" radius="1" result="shadowSpreadOuter2"/>
      <feOffset dy="3" in="shadowSpreadOuter2" result="shadowOffsetOuter2"/>
      <feGaussianBlur in="shadowOffsetOuter2" result="shadowBlurOuter2" stdDeviation=".5"/>
      <feComposite in="shadowBlurOuter2" in2="SourceAlpha" operator="out" result="shadowBlurOuter2"/>
      <feColorMatrix in="shadowBlurOuter2" result="shadowMatrixOuter2" values="0 0 0 0 0   0 0 0 0 0   0 0 0 0 0  0 0 0 0.12 0"/>
      <feOffset dy="2" in="SourceAlpha" result="shadowOffsetOuter3"/>
      <feGaussianBlur in="shadowOffsetOuter3" result="shadowBlurOuter3" stdDeviation="1"/>
      <feComposite in="shadowBlurOuter3" in2="SourceAlpha" operator="out" result="shadowBlurOuter3"/>
      <feColorMatrix in="shadowBlurOuter3" result="shadowMatrixOuter3" values="0 0 0 0 0   0 0 0 0 0   0 0 0 0 0  0 0 0 0.14 0"/>
      <feMerge>
        <feMergeNode in="shadowMatrixOuter1"/>
        <feMergeNode in="shadowMatrixOuter2"/>
        <feMergeNode in="shadowMatrixOuter3"/>
      </feMerge>
    </filter>
  </defs>
  <g fill="none" fill-rule="evenodd">
    <g transform="translate(2 2)">
      <use fill="#000" filter="url(#hover-a)" xlink:href="#hover-b"/>
      <use fill="#FF00B9" fill-opacity="0" xlink:href="#hover-b"/>
      <rect width="60" height="60" fill="#FFF" rx="30"/>
      <rect width="59" height="59" x=".5" y=".5" stroke="#000" opacity="0" rx="29.5"/>
    </g>
    <g transform="translate(15 15)">
      <path fill="#037092" d="M22.0984727,2.04219141 C21.7097305,2.43086719 21.7094648,3.06192578 22.0984727,3.45086719 L25.6201953,6.97258984 L24.2556797,8.33710547 C22.4431875,7.10686328 20.304043,6.32346875 17.9976211,6.14722656 L17.9976211,4.11712109 L18.9937148,4.11712109 C19.5438242,4.11712109 19.9898086,3.67113672 19.9898086,3.12102734 C19.9898086,2.57091797 19.5438242,2.12493359 18.9937148,2.12493359 L15.0093398,2.12493359 C14.4592305,2.12493359 14.0132461,2.57091797 14.0132461,3.12102734 C14.0132461,3.67113672 14.4592305,4.11712109 15.0093398,4.11712109 L16.0054336,4.11712109 L16.0054336,6.14722656 C13.6990117,6.32353516 11.5598008,7.10686328 9.747375,8.33710547 L8.38285937,6.97258984 L11.904582,3.45086719 C12.2933242,3.06219141 12.2935898,2.43113281 11.904582,2.04219141 C9.18597656,-0.676414062 4.76239062,-0.676414062 2.04378516,2.04219141 C-0.681128906,4.76710547 -0.681527344,9.17774219 2.04378516,11.9030547 C2.43272656,12.2919961 3.06345312,12.2920625 3.45246094,11.9030547 L6.97418359,8.38133203 L8.18065234,9.58780078 C5.64247266,11.9533906 4.05230859,15.3235078 4.05230859,19.0585938 C4.05230859,23.7979414 6.61207031,27.9499258 10.4210664,30.206875 L8.32840625,32.2995352 C7.93939844,32.688543 7.93939844,33.3192031 8.32840625,33.7082109 C8.71734766,34.0972188 9.34807422,34.0972188 9.73708203,33.7082109 L12.3153047,31.1299883 C15.3186602,32.2999336 18.6790156,32.3019922 21.6876172,31.1299883 L24.2658398,33.7082109 C24.6547148,34.0972188 25.2854414,34.0972188 25.6745156,33.7082109 C26.0635234,33.3192031 26.0635234,32.688543 25.6745156,32.2995352 L23.5818555,30.206875 C27.390918,27.9499258 29.9506133,23.7979414 29.9506133,19.0585938 C29.9506133,15.3235078 28.3604492,11.9533906 25.8222695,9.58780078 L27.0287383,8.38133203 L30.5504609,11.9030547 C30.9394023,12.2919961 31.5701289,12.2920625 31.9591367,11.9030547 C34.6840508,9.17814063 34.6844492,4.76750391 31.9591367,2.04219141 C29.2406641,-0.676414062 24.8171445,-0.676414062 22.0984727,2.04219141 L22.0984727,2.04219141 Z M2.81821484,9.71994922 C1.5693125,7.83932422 1.70710547,5.19615625 3.45252734,3.45086719 C5.16235547,1.74103906 7.79835156,1.54580469 9.72094531,2.81728516 C9.42656641,3.11159766 3.11186328,9.42630078 2.81821484,9.71994922 Z M27.958625,19.0585273 C27.958625,25.1002344 23.0433008,30.0155586 17.0015937,30.0155586 C10.9598867,30.0155586 6.0445625,25.1002344 6.0445625,19.0585273 C6.0445625,13.0168203 10.9598867,8.10149609 17.0015937,8.10149609 C23.0433008,8.10149609 27.958625,13.0167539 27.958625,19.0585273 Z M31.1849727,9.71994922 C30.891457,9.42643359 24.5766211,3.11159766 24.2823086,2.81728516 C26.2151289,1.53903125 28.8500625,1.75020313 30.5507266,3.45086719 C32.2953516,5.19549219 32.4344727,7.83846094 31.1849727,9.71994922 L31.1849727,9.71994922 Z"/>
      <circle cx="17" cy="25.5" r="1.7" fill="#5CD999"/>
      <path fill="#5CD999" d="M16.6188425,11.9 L17.4814398,11.9 C18.0337246,11.9 18.4814398,12.3477153 18.4814398,12.9 L18.4814398,21.1 C18.4814398,21.6522847 18.0337246,22.1 17.4814398,22.1 L16.6188425,22.1 C16.0665578,22.1 15.6188425,21.6522847 15.6188425,21.1 L15.6188425,12.9 C15.6188425,12.3477153 16.0665578,11.9 16.6188425,11.9 Z"/>
    </g>
  </g>
</svg>
