<svg xmlns="http://www.w3.org/2000/svg" width="265" height="166" viewBox="0 0 265 166">
  <g fill="none" fill-rule="evenodd">
    <g fill="#FFF" fill-rule="nonzero" transform="translate(0 9)">
      <path d="M237.39624,21.9824421 C237.39624,28.1148488 232.262754,33.0241379 226.025866,33.0241379 L182.845006,33.0241379 C178.20331,33.0241379 174.435,29.368334 174.435,24.8589641 C174.435,20.3472581 178.200423,16.6914542 182.845006,16.6914542 L187.584868,16.6914542 C187.584868,16.6830448 187.583905,16.6718321 187.583905,16.6629553 C187.583905,7.11348152 195.991505,-0.469566915 205.91538,0.362508047 C212.987157,0.960050983 218.805397,5.79739213 220.664289,12.2418853 C222.261887,11.4116791 224.085169,10.9398117 226.02346,10.9398117 C232.3051,10.9398117 237.39624,15.8836734 237.39624,21.9824421 L237.39624,21.9824421 Z" transform="matrix(-1 0 0 1 411.831 0)"/>
      <path d="M41.985,76.1892882 C41.985,80.2495574 38.5848932,83.5 34.453961,83.5 L5.85360585,83.5 C2.77923106,83.5 0.283333333,81.0794906 0.283333333,78.0938347 C0.283333333,75.1066321 2.7773187,72.6861226 5.85360585,72.6861226 L8.99299963,72.6861226 C8.99299963,72.6805547 8.99236215,72.6731308 8.99236215,72.6672535 C8.99236215,66.3445426 14.5610411,61.3238027 21.1340073,61.8747199 C25.817919,62.2703534 29.6715647,65.4731592 30.9027807,69.740061 C31.9609317,69.1903812 33.1685624,68.8779575 34.4523674,68.8779575 C38.6129405,68.8779575 41.985,72.1512906 41.985,76.1892882 L41.985,76.1892882 Z" transform="matrix(-1 0 0 1 42.268 0)"/>
      <path d="M78.7266667,18.443859 C78.7266667,21.5296636 76.1276321,24 72.9699562,24 L51.1079046,24 C48.757859,24 46.85,22.1604128 46.85,19.8913144 C46.85,17.6210404 48.7563972,15.7814532 51.1079046,15.7814532 L53.5076507,15.7814532 C53.5076507,15.7772216 53.5071634,15.7715794 53.5071634,15.7671127 C53.5071634,10.9618523 57.7638499,7.14609007 62.7882115,7.56478715 C66.3685838,7.86546858 69.3143025,10.299601 70.2554414,13.5424464 C71.0642898,13.1246897 71.9874002,12.8872477 72.9687381,12.8872477 C76.1490715,12.8872477 78.7266667,15.3749809 78.7266667,18.443859 L78.7266667,18.443859 Z" transform="matrix(-1 0 0 1 125.577 0)"/>
      <path d="M264.388458,82.682387 C264.388458,85.9166015 261.665318,88.5057471 258.356862,88.5057471 L235.450886,88.5057471 C232.988624,88.5057471 230.989664,86.5776862 230.989664,84.1994568 C230.989664,81.8199954 232.987093,79.8919345 235.450886,79.8919345 L237.965221,79.8919345 C237.965221,79.8874994 237.96471,79.8815858 237.96471,79.8769042 C237.96471,74.8405379 242.424656,70.841259 247.688934,71.280093 C251.44027,71.5952355 254.526649,74.146436 255.512728,77.545244 C256.360199,77.1073956 257.327388,76.858534 258.355586,76.858534 C261.687782,76.858534 264.388458,79.4659131 264.388458,82.682387 L264.388458,82.682387 Z" transform="matrix(-1 0 0 1 495.378 0)"/>
    </g>
    <g fill-rule="nonzero" transform="translate(73 46)">
      <path fill="#0C92B9" d="M82.4691067,10.8918611 C82.2386126,49.8817301 50.3756087,81.4323517 10.9997013,81.660586 C23.1541873,96.8784624 43.0537841,103.832394 62.1616468,99.5409119 C81.2703667,95.2485815 96.1916368,80.4735984 100.526465,61.5522189 C104.860437,42.6316882 97.8376551,22.9271855 82.4691067,10.8918611 Z"/>
      <path fill="#21B5D6" d="M82.4691067,10.8918611 C62.2224835,-4.99290024 33.1665361,-3.33162682 14.9009615,14.7548737 C-3.36461323,32.841374 -5.04233489,61.6124592 10.9997013,81.660586 C50.3756087,81.4323517 82.2386126,49.8817301 82.4691067,10.8918611 L82.4691067,10.8918611 Z"/>
      <path fill="#6ED3CC" d="M75.4617477,20.85526 C71.5836228,22.5928944 69.4431993,20.5430288 66.6875542,22.5928944 C63.2832699,25.1297727 61.9148726,31.698506 64.9327155,36.4939697 C67.0688545,39.8725146 70.8989958,40.7201205 75.2235422,41.6551172 C79.6003565,32.7641646 82.0509615,23.0663318 82.4185522,13.1818393 C81.1426952,16.5069318 78.6629574,19.2423484 75.4617477,20.85526 Z"/>
      <path fill="#4FC3BA" d="M83.0234916 11.3228759C82.8649735 11.9566713 82.6601852 12.5777398 82.4108403 13.1818393 82.0441067 23.0663318 79.5926448 32.7641646 75.2166873 41.6551172L75.4617477 41.7068729C81.4811529 43.0100987 83.8152255 40.2475315 89.5004574 41.7068729 92.0367477 42.4272105 94.4162335 43.6057135 96.5198122 45.1821417 98.9575642 47.173464 100.75953 49.8231866 101.705498 52.8088974 101.744056 52.0079565 101.784349 51.2070156 101.784349 50.3950449 101.798038 35.2365603 94.9046409 20.8815621 83.0234916 11.3228759L83.0234916 11.3228759zM49.1391671 71.2466578C52.6137135 75.0519753 53.5262638 81.4815621 50.8940058 85.1477331 48.7535823 88.1368377 45.823139 87.1110565 43.8746509 90.3606363 42.4008606 93.0731447 42.4008606 96.3371484 43.8746509 99.0488084 44.1454171 99.5392151 44.4684513 99.9982288 44.8386126 100.419911 46.8479371 100.660023 48.8701145 100.782201 50.8940058 100.786445 69.451768 100.791533 86.5391671 90.7899543 95.4830178 74.6888369 92.2912335 72.5744888 87.3051952 69.777135 82.4811026 69.5090234 77.53705 69.0304952 72.5775744 70.2582086 68.4423929 72.9842922 63.2661328 76.7378541 62.2481893 82.0551172 59.6681993 81.6724643 57.8430984 81.4119888 56.843149 78.4924576 56.1585219 76.4595611 54.5913345 71.8303944 55.4413345 68.6979011 55.426768 66.101631 53.2837739 67.799388 51.0448122 69.3741191 48.7201651 70.8173399 48.9009615 70.99297 49.0500542 71.1482371 49.1391671 71.2466578z"/>
      <path fill="#6ED3CC" d="M54.4036832,62.5584858 C52.5965764,60.0563941 49.2274232,59.5871989 45.6294896,59.083217 C38.084026,58.0404667 35.1184513,61.25526 31.59078,59.083217 C28.7160319,57.18777 27.3193587,53.7320156 28.0811026,50.3950449 C29.5557497,46.0339898 35.9958706,47.5111487 43.8746509,41.7068729 C46.4195099,39.8479095 52.4731893,35.3824946 52.6488445,29.543432 C52.8244997,23.8265468 47.1915361,22.1932724 45.6294896,15.6423568 C44.9508606,12.8203979 46.217292,6.33057076 49.4270703,0.0562511465 C30.5359916,0.58483823 13.49829,11.439114 5.18080024,28.2419032 L5.18080024,28.2580237 C4.05489288,34.4313772 4.08488285,40.7574525 5.26819933,46.9197761 C6.33926799,53.9229178 7.32122352,60.2820829 12.2875542,66.0337546 C14.4639655,68.5706329 17.8151248,72.4285546 22.8165864,72.9842922 C28.3621509,73.5926339 35.6796913,70.0825785 36.8552961,69.5090234 C38.4276248,68.4866361 40.2424432,67.8876272 42.1198122,67.771389 C44.6286832,67.93005 46.9850339,69.0169199 48.7201651,70.8173399 C51.0448122,69.3741191 53.2837739,67.799388 55.426768,66.101631 C55.4858909,64.8416764 55.1268687,63.5969939 54.4036832,62.5584858 Z"/>
      <g transform="translate(13.6)">
        <path fill="#E1B951" d="M17.5449597,8.8264332 C17.5449597,13.5848232 8.88044355,24.9751008 8.88044355,24.9751008 C8.88044355,24.9751008 3.47622658,17.869582 1.20168536,12.5408371 C0.641643663,11.3748948 0.307416722,10.1148572 0.215927419,8.8264332 C0.215927419,4.07014595 4.09549836,0.213810484 8.88044355,0.213810484 C13.6659175,0.213810484 17.5449597,4.07014595 17.5449597,8.8264332 Z"/>
        <path fill="#F1F2F2" d="M12.2804435,7.81596102 C12.2804435,9.61521439 10.8071887,11.0740255 8.99012097,11.0740255 C7.17305321,11.0740255 5.69979839,9.61521439 5.69979839,7.81596102 C5.69979839,6.01670765 7.17305321,4.55789651 8.99012097,4.55789651 C10.8071887,4.55789651 12.2804435,6.01670765 12.2804435,7.81596102 Z"/>
      </g>
      <g transform="translate(63.174 36.49)">
        <path fill="#E1B951" d="M17.5449597,8.8264332 C17.3069816,10.8455423 16.6464603,12.7926342 15.6062318,14.5431247 C13.6188508,18.1760492 11.3712803,21.6623111 8.88044355,24.9751008 C8.88044355,24.9751008 6.04268766,21.23967 3.6057925,17.1483589 C2.70782195,15.6643846 1.90451381,14.1252148 1.20168536,12.5408371 C0.641643663,11.3748948 0.307416722,10.1148572 0.215927419,8.8264332 C0.215927419,4.07014595 4.09549836,0.213810484 8.88044355,0.213810484 C13.6659175,0.213810484 17.5449597,4.07014595 17.5449597,8.8264332 L17.5449597,8.8264332 Z"/>
        <path fill="#F1F2F2" d="M12.2804435,7.81596102 C12.2804435,9.61521439 10.8071887,11.0740255 8.99012097,11.0740255 C7.17305321,11.0740255 5.69979839,9.61521439 5.69979839,7.81596102 C5.69979839,6.01670765 7.17305321,4.55789651 8.99012097,4.55789651 C10.8071887,4.55789651 12.2804435,6.01670765 12.2804435,7.81596102 Z"/>
      </g>
    </g>
    <g fill-rule="nonzero" transform="scale(-1 1) rotate(-50 -56.56 205.514)">
      <path fill="#35829A" d="M36.4137958,37.5977805 L36.4074148,37.5941289 C35.2320519,38.1766193 33.8434965,38.1361164 32.709676,37.4862692 L1.6467239,19.7101665 C0.237061777,18.9034711 -0.242763647,17.1114066 0.575003424,15.7074768 L9.45920393,0.455244882 C9.66364593,0.104262574 10.1150683,-0.0167760475 10.4674839,0.184897555 L12.4838957,1.33881061 C12.7944103,1.51739043 12.9309987,1.89160555 12.8083744,2.22779439 L8.64124423,13.5446988 L35.0587914,28.6624204 C36.7438024,29.6273783 37.97098,31.2197156 38.4701396,33.0888517 C38.9513658,34.8821917 38.090851,36.7690357 36.4137958,37.5977805 Z"/>
      <path fill="#F0DFB2" d="M8.69957543,13.4201057 L6.09177479,11.9459369 C5.73171281,11.7423964 5.60366528,11.2995412 5.8057725,10.9567919 C6.00788016,10.6140428 6.46360866,10.5011916 6.82367078,10.7047318 L9.20328874,12.0499111 L8.69957543,13.4201057 Z"/>
      <path fill="#33A6C9" d="M14.9915881 23.7627131L8.35586146 35.1491715C7.94866076 35.8479015 8.19244492 36.7425837 8.90036881 37.1475009L10.6545262 38.1508389C11.1489275 38.4337366 11.7628764 38.4107416 12.2322633 38.0917459L24.6510922 29.6504122C24.8595795 29.5087254 24.979838 29.2711084 24.9697702 29.0207413 24.9597022 28.7703741 24.8207101 28.5421257 24.6014492 28.4158963L16.0011446 23.4967154C15.6607964 23.3020439 15.2298124 23.4046631 15.0161631 23.7234289L14.9915881 23.7627131zM18.2054154 19.2500569L24.054379 9.17934212C24.4597275 8.48614851 25.3454945 8.2446667 26.037062 8.6388141L27.7517056 9.62289582C28.2343384 9.89865112 28.5109791 10.4303692 28.4613705 10.9869192L27.3230491 24.482955 18.2054154 19.2500569z"/>
      <path fill="#D7ECF0" d="M8.07448069 18.2448089L6.7457753 17.4979762C6.37886362 17.2917437 6.24170186 16.8542926 6.43941583 16.5209015 6.63713022 16.1875106 7.09485006 16.084428 7.46176189 16.2906602L8.79046728 17.0374929C9.15737892 17.2437253 9.29454071 17.6811765 9.09682674 18.0145676 8.89911235 18.3479585 8.44139248 18.4510411 8.07448069 18.2448089zM12.0520912 20.5894402L10.7233858 19.8426076C10.3564741 19.6363751 10.2193123 19.198924 10.4170263 18.8655329 10.6147407 18.532142 11.0724606 18.4290594 11.4393724 18.6352916L12.7680778 19.3821243C13.1349894 19.5883567 13.2721512 20.0258078 13.0744372 20.359199 12.8767228 20.6925898 12.419003 20.7956724 12.0520912 20.5894402zM19.7266282 24.9467504L18.3979228 24.1999177C18.0310112 23.9936853 17.8938494 23.5562342 18.0915634 23.2228431 18.2892777 22.8894522 18.7469976 22.7863696 19.1139094 22.9926018L20.4426148 23.7394344C20.8095265 23.9456669 20.9466882 24.383118 20.7489743 24.7165091 20.5512599 25.0499 20.09354 25.1529826 19.7266282 24.9467504zM23.3966437 27.2646761L22.0679383 26.5178435C21.7010267 26.311611 21.5638649 25.8741599 21.7615789 25.5407688 21.9592932 25.2073779 22.4170131 25.1042953 22.7839249 25.3105275L24.1126303 26.0573602C24.4795419 26.2635926 24.6167037 26.7010437 24.4189898 27.0344349 24.2212754 27.3678257 23.7635555 27.4709083 23.3966437 27.2646761zM31.2384338 31.4827157L29.9097284 30.735883C29.5428168 30.5296505 29.405655 30.0921994 29.6033689 29.7588083 29.8010833 29.4254174 30.2588032 29.3223348 30.625715 29.528567L31.9544204 30.2753997C32.321332 30.4816321 32.4584938 30.9190833 32.2607798 31.2524744 32.0630655 31.5858653 31.6053456 31.6889479 31.2384338 31.4827157zM38.3028801 35.5175892L33.9391696 32.9754276C33.5924056 32.7734134 33.4725811 32.3277727 33.6715339 31.980061 33.8704872 31.6323495 34.3128785 31.5142382 34.6596426 31.7162522L38.5964 34.0096845C38.605588 34.4882911 38.5210323 34.9631268 38.347983 35.4072216L38.3028801 35.5175892z"/>
    </g>
    <g fill-rule="nonzero" transform="translate(151 77)">
      <path fill="#A3ACC1" d="M70.3772455,55.9133127 L70.3772455,68.8430067 C70.3772455,69.3624402 69.9546895,69.7832817 69.4334812,69.7832817 L57.3476473,69.7832817 L15.6525054,69.7832817 L3.56651883,69.7832817 C3.04515775,69.7832817 2.62275449,69.3622881 2.62275449,68.8430067 L2.62275449,55.9133127 L70.3772455,55.9133127 Z"/>
      <rect width="67.754" height="4.118" x="2.623" y="55.913" fill="#929CB4"/>
      <path fill="#29829D" d="M57.3570119,56.7801858 L72.0558014,56.7801858 C72.5774024,56.7801858 73,56.3620083 73,55.8462007 L73,31.9246971 C73,31.4087384 72.5772496,30.9907121 72.0558014,30.9907121 L57.3570119,30.9907121 L15.6429881,30.9907121 L0.944198643,30.9907121 C0.422597645,30.9907121 0,31.4088895 0,31.9246971 L0,55.8460496 C0,56.3620083 0.422750428,56.7801858 0.944198643,56.7801858 L15.6429881,56.7801858 L57.3570119,56.7801858 L57.3570119,56.7801858 Z"/>
      <rect width="39.123" height="6.502" x="17.048" y="4.334" fill="#8F97AC"/>
      <rect width="3.06" height="6.502" x="52.892" y="4.334" fill="#929CB4"/>
      <path fill="#29829D" d="M56.5369786,10.1857585 L16.6814313,10.1857585 C16.1594405,10.1857585 15.7365269,10.6059224 15.7365269,11.1241802 L15.7365269,69.7832817 L57.4820359,69.7832817 L57.4820359,11.1241802 C57.4820359,10.6057706 57.0589695,10.1857585 56.5369786,10.1857585 Z"/>
      <path fill="#BFC5D3" d="M58.7934132,0.941800564 L58.7934132,4.25943783 C58.7934132,4.77971406 58.3702145,5.20123839 57.8482133,5.20123839 L15.3703496,5.20123839 C14.8481955,5.20123839 14.4251497,4.77956167 14.4251497,4.25943783 L14.4251497,0.941800564 C14.4251497,0.42152433 14.8483484,0 15.3703496,0 L57.8482133,0 C58.3700615,0 58.7934132,0.421676725 58.7934132,0.941800564 Z"/>
      <path fill="#A7AFC3" d="M57.8351348,0 L54.6407186,0 C55.1700976,0 55.5989969,0.421676725 55.5989969,0.941800564 L55.5989969,4.25943783 C55.5989969,4.77971406 55.1699425,5.20123839 54.6407186,5.20123839 L57.8351348,5.20123839 C58.3645138,5.20123839 58.7934132,4.77956167 58.7934132,4.25943783 L58.7934132,0.941800564 C58.7934132,0.421676725 58.3642037,0 57.8351348,0 Z"/>
      <path fill="#307084" d="M0.956911393,0.968838876 L0.956911393,59.623296 L4.12675149,59.623296 L4.12675149,0.968838876 C4.12675149,0.450470255 3.700998,0.0304914599 3.17584562,0.0304914599 L0.00600552495,0.0304914599 C0.531157908,0.0304914599 0.956911393,0.450470255 0.956911393,0.968838876 Z" transform="translate(53.33 10.186)"/>
      <rect width="15.737" height="17.554" x="28.632" y="52.229" fill="#BDD7DB"/>
      <path fill="#5D828D" d="M1.29341662.0122701215C.637014611.0122701215.104784287.529710121.104784287 1.16820534L.104784287 2.44504615C.104784287 3.08339174.637014611 3.60098138 1.29341662 3.60098138 1.94981863 3.60098138 2.48204896 3.08339174 2.48204896 2.44504615L2.48204896 1.16820534C2.48204896.529710121 1.94981863.0122701215 1.29341662.0122701215zM9.16993303.0122701215C8.51353102.0122701215 7.98130069.529710121 7.98130069 1.16820534L7.98130069 2.44504615C7.98130069 3.08339174 8.51353102 3.60098138 9.16993303 3.60098138 9.82633504 3.60098138 10.3585654 3.08339174 10.3585654 2.44504615L10.3585654 1.16820534C10.3587192.529710121 9.82664278.0122701215 9.16993303.0122701215z" transform="translate(31.254 60.898)"/>
      <rect width="2.404" height="17.554" x="35.189" y="52.229" fill="#8EB8C1"/>
      <path fill="#7FC8D6" d="M19.92749 25.9280315L16.6050969 25.9280315C16.084027 25.9280315 15.6618597 25.5091954 15.6618597 24.9925753L15.6618597 21.6975896C15.6618597 21.1808181 16.0841797 20.7621334 16.6050969 20.7621334L19.92749 20.7621334C20.4485599 20.7621334 20.8707272 21.1809695 20.8707272 21.6975896L20.8707272 24.9925753C20.8707272 25.5091954 20.4484073 25.9280315 19.92749 25.9280315zM45.9724384 25.9280315L42.6498927 25.9280315C42.1288228 25.9280315 41.7066554 25.5091954 41.7066554 24.9925753L41.7066554 21.6975896C41.7066554 21.1808181 42.1289754 20.7621334 42.6498927 20.7621334L45.9722857 20.7621334C46.4933557 20.7621334 46.9155231 21.1809695 46.9155231 21.6975896L46.9155231 24.9925753C46.9156756 25.5091954 46.493203 25.9280315 45.9724384 25.9280315zM32.9093653 25.9280315L29.5869723 25.9280315C29.0659023 25.9280315 28.643735 25.5091954 28.643735 24.9925753L28.643735 21.6975896C28.643735 21.1808181 29.066055 20.7621334 29.5869723 20.7621334L32.9093653 20.7621334C33.4304352 20.7621334 33.8526026 21.1809695 33.8526026 21.6975896L33.8526026 24.9925753C33.8526026 25.5091954 33.4302826 25.9280315 32.9093653 25.9280315zM19.92749 15.5959325L16.6050969 15.5959325C16.084027 15.5959325 15.6618597 15.1770963 15.6618597 14.6604762L15.6618597 11.3654906C15.6618597 10.8487191 16.0841797 10.4300343 16.6050969 10.4300343L19.92749 10.4300343C20.4485599 10.4300343 20.8707272 10.8488705 20.8707272 11.3654906L20.8707272 14.6604762C20.8707272 15.1770963 20.4484073 15.5959325 19.92749 15.5959325zM45.9724384 15.5959325L42.6498927 15.5959325C42.1288228 15.5959325 41.7066554 15.1770963 41.7066554 14.6604762L41.7066554 11.3654906C41.7066554 10.8487191 42.1289754 10.4300343 42.6498927 10.4300343L45.9722857 10.4300343C46.4933557 10.4300343 46.9155231 10.8488705 46.9155231 11.3654906L46.9155231 14.6604762C46.9156756 15.1770963 46.493203 15.5959325 45.9724384 15.5959325zM32.9093653 15.5959325L29.5869723 15.5959325C29.0659023 15.5959325 28.643735 15.1770963 28.643735 14.6604762L28.643735 11.3654906C28.643735 10.8487191 29.066055 10.4300343 29.5869723 10.4300343L32.9093653 10.4300343C33.4304352 10.4300343 33.8526026 10.8488705 33.8526026 11.3654906L33.8526026 14.6604762C33.8526026 15.1770963 33.4302826 15.5959325 32.9093653 15.5959325zM19.92749 5.26398482L16.6050969 5.26398482C16.084027 5.26398482 15.6618597 4.84514867 15.6618597 4.32852858L15.6618597 1.03354291C15.6618597.516771457 16.0841797.0980866737 16.6050969.0980866737L19.92749.0980866737C20.4485599.0980866737 20.8707272.516922825 20.8707272 1.03354291L20.8707272 4.32852858C20.8707272 4.84514867 20.4484073 5.26398482 19.92749 5.26398482zM45.9724384 5.26398482L42.6498927 5.26398482C42.1288228 5.26398482 41.7066554 4.84514867 41.7066554 4.32852858L41.7066554 1.03354291C41.7066554.516771457 42.1289754.0980866737 42.6498927.0980866737L45.9722857.0980866737C46.4933557.0980866737 46.9155231.516922825 46.9155231 1.03354291L46.9155231 4.32852858C46.9156756 4.84514867 46.493203 5.26398482 45.9724384 5.26398482zM32.9093653 5.26398482L29.5869723 5.26398482C29.0659023 5.26398482 28.643735 4.84514867 28.643735 4.32852858L28.643735 1.03354291C28.643735.516771457 29.066055.0980866737 29.5869723.0980866737L32.9093653.0980866737C33.4304352.0980866737 33.8526026.516922825 33.8526026 1.03354291L33.8526026 4.32852858C33.8526026 4.84514867 33.4302826 5.26398482 32.9093653 5.26398482zM4.30058198 25.9280315L.978036318 25.9280315C.456966407 25.9280315.034799045 25.5091954.034799045 24.9925753L.034799045 21.6975896C.034799045 21.1808181.457119034 20.7621334.978036318 20.7621334L4.30058198 20.7621334C4.82165189 20.7621334 5.24381925 21.1809695 5.24381925 21.6975896L5.24381925 24.9925753C5.24381925 25.5091954 4.82149926 25.9280315 4.30058198 25.9280315zM61.599499 25.9280315L58.277106 25.9280315C57.756036 25.9280315 57.3338687 25.5091954 57.3338687 24.9925753L57.3338687 21.6975896C57.3338687 21.1808181 57.7561887 20.7621334 58.277106 20.7621334L61.599499 20.7621334C62.1205689 20.7621334 62.5427363 21.1809695 62.5427363 21.6975896L62.5427363 24.9925753C62.5427363 25.5091954 62.1202636 25.9280315 61.599499 25.9280315zM4.30058198 36.2599792L.978036318 36.2599792C.456966407 36.2599792.034799045 35.841143.034799045 35.3245229L.034799045 32.0295373C.034799045 31.5127658.457119034 31.094081.978036318 31.094081L4.30058198 31.094081C4.82165189 31.094081 5.24381925 31.5129172 5.24381925 32.0295373L5.24381925 35.3245229C5.24381925 35.8412944 4.82149926 36.2599792 4.30058198 36.2599792zM61.599499 36.2599792L58.277106 36.2599792C57.756036 36.2599792 57.3338687 35.841143 57.3338687 35.3245229L57.3338687 32.0295373C57.3338687 31.5127658 57.7561887 31.094081 58.277106 31.094081L61.599499 31.094081C62.1205689 31.094081 62.5427363 31.5129172 62.5427363 32.0295373L62.5427363 35.3245229C62.5427363 35.8412944 62.1202636 36.2599792 61.599499 36.2599792z" transform="translate(5.246 15.387)"/>
      <path fill="#A9AEBA" d="M27.1675091,49.1950464 L46.0510538,49.1950464 C46.5703156,49.1950464 46.991018,49.6167355 46.991018,50.1368746 L46.991018,53.4544567 C46.991018,53.9747481 46.5701635,54.3962848 46.0510538,54.3962848 L27.1675091,54.3962848 C26.6482473,54.3962848 26.2275449,53.9745957 26.2275449,53.4544567 L26.2275449,50.1368746 C26.2275449,49.6165831 26.6482473,49.1950464 27.1675091,49.1950464 Z"/>
      <path fill="#7E869A" d="M46.0327396,49.1950464 L42.8383234,49.1950464 C43.3677024,49.1950464 43.7966017,49.6167232 43.7966017,50.136847 L43.7966017,53.4544843 C43.7966017,53.9747605 43.3675473,54.3962848 42.8383234,54.3962848 L46.0327396,54.3962848 C46.5621186,54.3962848 46.991018,53.9746081 46.991018,53.4544843 L46.991018,50.136847 C46.991173,49.6165708 46.5621186,49.1950464 46.0327396,49.1950464 Z"/>
      <rect width="3.06" height="25.789" x="57.482" y="30.991" fill="#307084"/>
    </g>
    <g transform="translate(28 73)">
      <g fill="#C3CACA" transform="translate(14.416 3.947)">
        <rect width="3.036" height="17.077" x=".047" y=".085"/>
        <rect width="3.036" height="17.077" x="12.191" y=".085"/>
      </g>
      <g fill="#21958F" transform="translate(14.416 4.605)">
        <rect width="3.036" height="4.547" x=".047" y=".083"/>
        <rect width="3.036" height="4.547" x="12.191" y=".083"/>
      </g>
      <path fill="#29B0A9" d="M13.0265199 0L30.3952677 0C31.9945613 0 33.2900317 1.33375995 33.2900317 2.98032298L33.2900317 2.98032298C33.2900317 4.62688602 31.9945613 5.96064597 30.3952677 5.96064597L13.0265199 5.96064597C11.4272263 5.96064597 10.1317559 4.62688602 10.1317559 2.98032298L10.1317559 2.98032298C10.1317559 1.33375995 11.4272263 0 13.0265199 0zM5.78952795 19.3723526L37.6322596 19.3723526C40.829535 19.3723526 43.4217876 22.041223 43.4217876 25.3329986L43.4217876 73.0186727C43.4217876 76.3104483 40.829535 78.9793187 37.6322596 78.9793187L5.78952795 78.9793187C2.59225253 78.9793187 0 76.3104483 0 73.0186727L0 25.3329986C0 22.041223 2.59225253 19.3723526 5.78952795 19.3723526z"/>
      <ellipse cx="3.463" cy="3.455" fill="#29B0A9" rx="3.463" ry="3.455" transform="translate(1.33 78.721)"/>
      <g fill="#21958F" transform="translate(5.988 26.533)">
        <rect width="2.972" height="42.91" x="8.94" y=".15"/>
        <rect width="2.972" height="42.91" x=".023" y=".15"/>
        <rect width="2.972" height="42.91" x="17.856" y=".15"/>
        <rect width="2.972" height="42.91" x="26.773" y=".15"/>
      </g>
      <ellipse cx="38.591" cy="82.23" fill="#279C96" rx="3.549" ry="3.508"/>
      <polygon fill="#E8DFC7" points="12.864 40.104 0 46.049 0 37.131 10.005 32.673"/>
      <g transform="translate(29.55 29.873)">
        <path fill="#2B6577" d="M45.4668615,12.2796158 L45.4668615,6.13980791 C45.4668615,2.74908986 42.7797683,0 39.4655167,0 L25.9624059,0 C22.6481544,0 19.9610611,2.74908986 19.9610611,6.13980791 L19.9610611,12.2796158 L25.9624059,12.2796158 L25.9624059,6.13980791 L39.4655167,6.13980791 L39.4655167,12.2796158 L45.4668615,12.2796158 Z"/>
        <path fill="#29829D" d="M65.4279227,18.0518917 L65.4279227,49.0642872 C65.4279227,52.4895767 62.7028078,55.266696 59.3416604,55.266696 L6.08626227,55.266696 C2.72511488,55.266696 0,52.4895767 0,49.0642872 L0,18.0518917 C0,14.6266022 2.72511488,11.8494829 6.08626227,11.8494829 L59.3416604,11.8494829 C62.7028078,11.8494829 65.4279227,14.6266022 65.4279227,18.0518917 Z"/>
        <g fill="#29829D" transform="translate(2.44 54.828)">
          <ellipse cx="3.549" cy="3.508" rx="3.549" ry="3.508"/>
          <ellipse cx="58.109" cy="3.508" rx="3.549" ry="3.508"/>
        </g>
        <g fill="#2B6577" transform="translate(7.984 11.85)">
          <rect width="6.091" height="43.432"/>
          <rect width="6.091" height="43.432" x="44.358"/>
        </g>
        <polygon fill="#E8DFC7" points="23.288 29.83 30.829 19.086 38.37 29.83"/>
        <ellipse cx="51.971" cy="40.235" fill="#E8DFC7" rx="7.594" ry="6.209" transform="rotate(-161.875 51.971 40.235)"/>
        <polygon fill="#E8DFC7" points="0 25.664 0 33.837 15.34 43.645 18.409 37.106"/>
      </g>
    </g>
  </g>
</svg>
