<svg xmlns="http://www.w3.org/2000/svg" width="24" height="24" viewBox="0 0 24 24">
  <path fill="#FFF" fill-rule="evenodd" d="M11.9090909,21.4111772 C11.5984775,21.4111772 11.2990168,21.2986506 11.0656405,21.0942383 C10.1842374,20.3235307 9.33446155,19.5992654 8.58472788,18.9603937 L8.58089935,18.9570645 C6.38280139,17.0838956 4.48466355,15.466242 3.16397372,13.872725 C1.68764428,12.0912753 1,10.4022106 1,8.55700685 C1,6.76423783 1.61473499,5.11029607 2.73084608,3.89963601 C3.86027389,2.67466041 5.41001197,2 7.09508168,2 C8.3545144,2 9.50791239,2.39817116 10.5231489,3.1833607 C11.0355114,3.5797008 11.4999334,4.06476385 11.9090909,4.63055976 C12.3184149,4.06476385 12.7826705,3.5797008 13.2951993,3.1833607 C14.3104359,2.39817116 15.4638339,2 16.7232666,2 C18.4081698,2 19.9580744,2.67466041 21.0875022,3.89963601 C22.2036133,5.11029607 22.8181818,6.76423783 22.8181818,8.55700685 C22.8181818,10.4022106 22.130704,12.0912753 20.6543745,13.8725586 C19.3336848,15.466242 17.4357133,17.0837291 15.2379484,18.9567316 C14.486883,19.596602 13.6357755,20.3220326 12.7523748,21.0945712 C12.519165,21.2986506 12.2195379,21.4111772 11.9090909,21.4111772 L11.9090909,21.4111772 Z M7.09508168,3.27807619 C5.77122915,3.27807619 4.55507589,3.80641868 3.67034355,4.76589134 C2.77246094,5.73984598 2.2779097,7.08617055 2.2779097,8.55700685 C2.2779097,10.1089089 2.85469196,11.4968484 4.14791594,13.0572399 C5.39786044,14.5655296 7.25704678,16.1498912 9.40970125,17.9844416 L9.41369628,17.9877708 C10.1662597,18.6291393 11.0193648,19.3562345 11.9072598,20.1326017 C12.8004816,19.3547363 13.6549183,18.626476 14.4089799,17.9841087 C16.5614679,16.1495583 18.4204878,14.5655296 19.6704323,13.0572399 C20.9634899,11.4968484 21.5402721,10.1089089 21.5402721,8.55700685 C21.5402721,7.08617055 21.0457209,5.73984598 20.1478383,4.76589134 C19.2632724,3.80641868 18.0469527,3.27807619 16.7232666,3.27807619 C15.7534735,3.27807619 14.8630815,3.58635918 14.0768932,4.19426938 C13.3762651,4.73626156 12.8882058,5.42140889 12.6020619,5.9008123 C12.4549117,6.14733888 12.1959007,6.29448909 11.9090909,6.29448909 C11.6222812,6.29448909 11.3632701,6.14733888 11.2161199,5.9008123 C10.9301425,5.42140889 10.4420832,4.73626156 9.74128861,4.19426938 C8.95510034,3.58635918 8.06470835,3.27807619 7.09508168,3.27807619 Z"/>
</svg>
