<svg xmlns="http://www.w3.org/2000/svg" xmlns:xlink="http://www.w3.org/1999/xlink" width="40" height="24" viewBox="0 0 40 24">
  <defs>
    <path id="visa-a" d="M20.5645455,13.8821848 C20.5457931,12.3977695 21.8821474,11.5693508 22.8888545,11.0768578 C23.9231967,10.5714828 24.2706094,10.2474482 24.2666615,9.79558342 C24.2587658,9.10391325 23.4415565,8.79870636 22.6766565,8.78681518 C21.3422761,8.76600562 20.5665194,9.14850517 19.9496646,9.43785716 L19.4690113,7.17952433 C20.0878401,6.89314513 21.2337096,6.6434304 22.4220188,6.63253015 C25.2111896,6.63253015 27.036093,8.01487956 27.0459627,10.1582643 C27.0568193,12.8783712 23.2984462,13.0289928 23.3241073,14.2448657 C23.33299,14.6134922 23.6833636,15.006892 24.4512245,15.1069761 C24.8312071,15.1575136 25.8803538,15.19616 27.0696499,14.646193 L27.5364857,16.8311969 C26.8969306,17.0650567 26.0747864,17.2890072 25.0513009,17.2890072 C22.4259667,17.2890072 20.57935,15.8878301 20.5645455,13.8821848 M32.0222541,17.1007303 C31.5129787,17.1007303 31.0836478,16.8024599 30.892176,16.3446495 L26.9077872,6.79306105 L29.6949841,6.79306105 L30.24966,8.33197763 L33.6556857,8.33197763 L33.9774372,6.79306105 L36.4339999,6.79306105 L34.290306,17.1007303 L32.0222541,17.1007303 M32.4121063,14.3162128 L33.2164851,10.4456345 L31.013573,10.4456345 L32.4121063,14.3162128 M17.1851679,17.1007303 L14.9881777,6.79306105 L17.6441079,6.79306105 L19.8401112,17.1007303 L17.1851679,17.1007303 M13.2560493,17.1007303 L10.4915526,10.0849354 L9.37331818,16.0503429 C9.24205147,16.7162488 8.72389341,17.1007303 8.14849121,17.1007303 L3.62916589,17.1007303 L3.56599995,16.8014689 C4.49374963,16.5993189 5.54783119,16.2733025 6.18639932,15.9244946 C6.57723855,15.7114443 6.68876591,15.5251492 6.81707171,15.0187832 L8.9351045,6.79306105 L11.7420408,6.79306105 L16.0452202,17.1007303 L13.2560493,17.1007303"/>
    <linearGradient id="visa-b" x1="16.148%" x2="85.832%" y1="39.854%" y2="60.634%">
      <stop offset="0%" stop-color="#222357"/>
      <stop offset="100%" stop-color="#254AA5"/>
    </linearGradient>
  </defs>
  <g fill="none" fill-rule="evenodd">
    <rect width="39" height="23" x=".5" y=".5" fill="#FFF" stroke="#CCC"/>
    <mask id="visa-c" fill="#fff">
      <use xlink:href="#visa-a"/>
    </mask>
    <polyline fill="url(#visa-b)" fill-rule="nonzero" points=".124 16.017 32.509 27.991 39.876 7.905 7.492 -4.069" mask="url(#visa-c)" transform="matrix(1 0 0 -1 0 23.922)"/>
  </g>
</svg>
