<svg xmlns="http://www.w3.org/2000/svg" width="76" height="64" viewBox="0 0 76 64">
  <g fill="none" fill-rule="evenodd">
    <rect width="76" height="64"/>
    <g transform="translate(16.4 10.4)">
      <path fill="#037092" d="M42.8292563,0.37074375 C42.3350719,-0.123525 41.5335938,-0.123525 41.039325,0.37074375 L37.3529813,4.0570875 C37.12635,3.9490875 36.8872313,3.86209687 36.6375656,3.79974375 L25.1818875,0.969553125 C23.8955063,0.648 22.5137813,1.03064062 21.5761219,1.9683 L1.110375,22.4003812 C-0.369984375,23.880825 -0.369984375,26.2897312 1.110375,27.7702594 L15.4299094,42.0897094 C16.9103531,43.5701531 19.3192594,43.5702375 20.7997875,42.0897094 L41.2318688,21.6238781 C42.1695281,20.6862187 42.5522531,19.3044937 42.2305313,18.0180281 L39.400425,6.56243437 C39.3379875,6.31285312 39.2510813,6.07365 39.1430813,5.84701875 L42.829425,2.160675 C43.323525,1.66640625 43.323525,0.8650125 42.8292563,0.37074375 Z M39.7746281,18.6321094 C39.8818688,19.0609031 39.7542937,19.5214219 39.4417688,19.8340313 L19.0096875,40.2997781 C18.5161781,40.7932875 17.7131813,40.7932875 17.2196719,40.2997781 L2.90022188,25.9802438 C2.4067125,25.4867344 2.4067125,24.6837375 2.90022188,24.1902281 L23.3660531,3.75823125 C23.605425,3.51885937 23.9316187,3.38799375 24.2638875,3.38799375 C24.365475,3.38799375 24.4676531,3.40022812 24.567975,3.4252875 L35.3283188,6.08166563 L32.2802719,9.1297125 C30.8691,8.45758125 29.1259969,8.704125 27.9594281,9.87069375 C26.4789,11.3512219 26.4789,13.7600438 27.9594281,15.2405719 C28.6995656,15.9807938 29.6719875,16.3509469 30.644325,16.3509469 C31.6165781,16.3509469 32.589,15.9808781 33.3291375,15.2405719 C34.4959594,14.0738344 34.7424188,12.3308156 34.0701188,10.9196438 L37.1181656,7.87159688 L39.7746281,18.6321094 Z M31.5392906,13.450725 C31.0458656,13.94415 30.2428688,13.9442344 29.7493594,13.450725 C29.2559344,12.9573 29.2559344,12.1542188 29.7493594,11.6607938 C29.9961563,11.4139969 30.3201563,11.290725 30.644325,11.290725 C30.968325,11.290725 31.2924938,11.4140813 31.5391219,11.6607094 L31.5392063,11.6607938 L31.5392906,11.6608781 C32.0328,12.1543031 32.0327156,12.9573 31.5392906,13.450725 Z"/>
      <path fill="#5CD999" d="M20.7996187 15.2406562C19.319175 13.7602125 16.9102687 13.7602125 15.4297406 15.2406562 13.9493812 16.7211 13.9493812 19.1300062 15.4297406 20.6105344 16.9101844 22.0909781 19.319175 22.0909781 20.7996187 20.6105344 22.2801469 19.1300062 22.2801469 16.7211844 20.7996187 15.2406562zM19.0097719 18.8205187C18.5162625 19.3140281 17.7132656 19.3140281 17.2198406 18.8205187 16.7264156 18.3270094 16.7262469 17.5240125 17.2197562 17.0305875 17.7132656 16.5371625 18.5161781 16.5370781 19.0097719 17.0305875 19.5031969 17.5240125 19.5031969 18.3270094 19.0097719 18.8205187zM22.58955 27.770175C21.1056469 26.2862719 18.7039125 26.2861031 17.2197563 27.770175 15.7392281 29.2507031 15.7392281 31.659525 17.2197563 33.1400531 18.7037438 34.6239562 21.1054781 34.6242094 22.58955 33.1400531 24.0700781 31.659525 24.0700781 29.2507031 22.58955 27.770175zM20.7996188 31.3501219C20.3050969 31.8447281 19.5042938 31.8448125 19.0096875 31.3501219 18.5162625 30.8566969 18.5162625 30.0536156 19.0096875 29.5601906 19.5042938 29.0655844 20.3050125 29.0655 20.7996188 29.5601906 21.2930438 30.0536156 21.2930438 30.8565281 20.7996188 31.3501219zM28.3224094 23.1556219C28.2452063 22.4608781 27.6193125 21.9601969 26.9246531 22.0374L10.8152719 23.8273313C10.1205281 23.9045344 9.61984688 24.5302594 9.69705 25.2250875 9.76902188 25.8723281 10.3169531 26.3511563 10.9534781 26.3511563 11.0001375 26.3511563 11.0473875 26.3485406 11.0948063 26.3433094L27.2042719 24.5533781C27.8990156 24.4760906 28.3996969 23.8503656 28.3224094 23.1556219z"/>
    </g>
  </g>
</svg>
