<svg xmlns="http://www.w3.org/2000/svg" width="76" height="64" viewBox="0 0 76 64">
  <g fill="none" fill-rule="evenodd" transform="translate(13 8)">
    <path fill="#037092" d="M50.1321869,28.3061114 C50.1321869,39.2221947 41.3125163,48.0714286 30.4329012,48.0714286 C21.9587128,48.0714286 14.7342787,42.7026579 11.9539518,35.1701767 L11.9871164,35.2593615 L5.27281193,35.2591099 C4.73663559,35.2591099 4.30182979,34.8229441 4.30182979,34.284873 C4.30182979,33.7571495 4.72007309,33.3274495 5.24199352,33.3111177 L5.27281193,33.3106362 L11.370593,33.3107939 L11.376563,33.3336927 C11.0379919,32.0382482 10.8271593,30.690904 10.7583864,29.3060295 C10.7626952,29.3927997 10.7675648,29.4794715 10.7729891,29.5659922 L6.63218693,29.565962 C6.09601059,29.565962 5.66120479,29.1297962 5.66120479,28.5917252 C5.66120479,28.0640017 6.07944809,27.6343016 6.60136852,27.6179699 L6.63218693,27.6174883 L10.7453489,27.6174479 L10.7447762,27.6344379 C10.7859981,26.3958344 10.9408006,25.1861023 11.1990665,24.015393 L11.2310753,23.8728145 L1.38888336,23.8728145 C0.852707019,23.8728145 0.417901215,23.4366483 0.417901215,22.8985773 C0.417901215,22.3708538 0.83614452,21.9411538 1.35806495,21.924822 L1.38888336,21.9243405 L11.7831196,21.924075 L11.7533137,22.012472 C12.1898105,20.7077104 12.7582958,19.4637294 13.442852,18.2964999 L13.5119265,18.179643 L8.00777733,18.1797637 C7.47160099,18.1797637 7.03679519,17.7435979 7.03679519,17.2055269 C7.03679519,16.6778034 7.45503849,16.2481033 7.97695892,16.2317715 L8.00777733,16.23129 L14.8360036,16.2309784 L14.8867179,16.1654129 C17.6484004,12.6104026 21.5948585,10.0273415 26.1307871,9.01353795 L26.2110062,8.99578571 L26.2112651,6.59813349 C24.774697,6.23941948 23.7068108,4.93462407 23.7068108,3.38383385 C23.7068108,1.5755996 25.158282,0.101180752 26.9536412,0.0714285714 L27.0081501,0.0714285714 L33.9992215,0.0714285714 C35.8196188,0.0714285714 37.3005608,1.55733461 37.3005608,3.38383385 C37.3005608,4.91786402 36.2557634,6.21112271 34.8427256,6.586105 L34.7960095,6.59813349 L34.7961982,9.02731586 C34.7242977,9.01100299 34.6522481,8.99508467 34.5800517,8.97956328 C41.4232319,10.4507825 46.9478806,15.4881473 49.1279043,22.0587425 L49.2258955,22.3627159 L49.3078584,22.6301111 L49.2685255,22.5000131 L49.2809982,22.5403268 C49.6538044,23.7656983 49.9081906,25.0302531 50.0355742,26.3158105 C50.0832417,26.7969857 50.1130193,27.2788011 50.1251609,27.7602041 L50.1260133,27.808311 C50.1221241,27.6502833 50.1163859,27.4927157 50.1088197,27.3356292 L50.1216574,27.6536809 C50.1286591,27.8702948 50.1321869,28.0877897 50.1321869,28.3061114 Z M30.4329012,10.2866267 C25.4735814,10.2866267 20.98376,12.3035262 17.7337685,15.5644116 C14.483777,18.8252969 12.4736155,23.3301681 12.4736155,28.3061114 C12.4736155,33.2820547 14.483777,37.7869259 17.7337685,41.0478113 C20.98376,44.3086966 25.4735814,46.3255961 30.4329012,46.3255961 C35.392221,46.3255961 39.8820425,44.3086966 43.1320339,41.0478113 C46.3820254,37.7869259 48.3921869,33.2820547 48.3921869,28.3061114 C48.3921869,23.3301681 46.3820254,18.8252969 43.1320339,15.5644116 C39.8820425,12.3035262 35.392221,10.2866267 30.4329012,10.2866267 Z M32.8540452,6.69633656 L28.1532293,6.69633656 L28.1531256,8.67172958 L27.8898793,8.70396804 C28.7223768,8.59630979 29.5711775,8.54079423 30.4329012,8.54079423 C31.292485,8.54079423 32.1392098,8.59603441 32.9697418,8.70316967 L32.8542633,8.68862096 L32.8540452,6.69633656 Z M33.9992215,2.01999969 L27.0081501,2.01999969 C26.2585519,2.01999969 25.6487751,2.63182043 25.6487751,3.38393128 C25.6487751,4.12400798 26.2393475,4.72840159 26.9725625,4.74740223 L27.0081501,4.74786286 L33.9992215,4.74786286 C34.7488197,4.74786286 35.3585965,4.13604212 35.3585965,3.38393128 C35.3585965,2.6437587 34.7680241,2.03945792 34.0348091,2.02046025 L33.9992215,2.01999969 Z"/>
    <path fill="#5CD999" d="M30.2014397,41.3665837 C22.9423035,41.3665837 17.0366746,35.4608573 17.0366746,28.2018186 C17.0366746,20.9427798 22.9423035,15.0370535 30.2014397,15.0370535 C37.4605759,15.0370535 43.3662048,20.9427798 43.3662048,28.2018186 C43.3662048,35.4608573 37.4605759,41.3665837 30.2014397,41.3665837 Z"/>
    <path fill="#037092" d="M36.4855623,20.9358079 L31.7079561,25.8899893 C31.3084237,25.6851363 30.8590219,25.5694064 30.3839622,25.5694064 C29.908806,25.5694064 29.4595007,25.6851363 29.0599682,25.8899893 L26.9217652,23.6727158 C26.544997,23.2821148 25.9344126,23.2821148 25.5575479,23.6727158 C25.1808761,24.0633169 25.1808761,24.6966807 25.5575479,25.0872817 L27.6957509,27.3045552 C27.4981067,27.7188624 27.3866003,28.1848829 27.3866003,28.6775103 C27.3866003,30.3913536 28.73114,31.7857143 30.3839622,31.7857143 C32.0367843,31.7857143 33.381324,30.3913536 33.381324,28.6775103 C33.381324,28.1848829 33.2697212,27.7188624 33.0721735,27.3045552 L37.7095284,22.4957114 L37.7095284,22.4957114 L37.8496831,22.3503738 C38.2263549,21.9597728 38.2263549,21.3264089 37.8496831,20.9358079 C37.4730114,20.5452069 36.8624269,20.5452069 36.4855623,20.9358079 Z M30.8464726,29.2142857 C30.1375534,29.2142857 29.5607584,28.6374906 29.5607584,27.9285714 C29.5607584,27.2196522 30.1375534,26.6428571 30.8464726,26.6428571 C31.5553919,26.6428571 32.1321869,27.2196522 32.1321869,27.9285714 C32.1321869,28.6374906 31.5553919,29.2142857 30.8464726,29.2142857 Z"/>
  </g>
</svg>
