<svg xmlns="http://www.w3.org/2000/svg" xmlns:xlink="http://www.w3.org/1999/xlink" width="76" height="65" viewBox="0 0 76 65">
  <defs>
    <path id="favorite-search-a" d="M8.00975401,1.66809349 C7.13967914,0.652240261 5.80663102,0.00937320935 4.41779679,0.00937320935 L4.41779679,0.00937320935 C1.95918717,0.00937320935 0.0275508021,1.93012114 0.0275508021,4.37458658 L0.0275508021,4.37458658 C0.0275508021,7.374858 2.74147594,9.81932345 6.85236364,13.5258789 L6.85236364,13.5258789 L8.00975401,14.5735672 L9.16722995,13.5338165 C13.2781176,9.81932345 15.9920428,7.374858 15.9920428,4.37458658 L15.9920428,4.37458658 C15.9920428,1.93012114 14.0603209,0.00937320935 11.6017968,0.00937320935 L11.6017968,0.00937320935 C10.212877,0.00937320935 8.87982888,0.652240261 8.00975401,1.66809349 L8.00975401,1.66809349 Z"/>
  </defs>
  <g fill="none" fill-rule="evenodd" transform="translate(0 1)">
    <rect width="76" height="64"/>
    <g transform="translate(14 8)">
      <g fill="#037092" fill-rule="nonzero" transform="matrix(-1 0 0 1 48 0)">
        <path d="M42.3350526,5.65935789 C34.7936842,-1.88048842 22.5233053,-1.88048842 14.9820632,5.65935789 C11.3288211,9.31184211 9.31692632,14.1681158 9.31692632,19.3334526 C9.31692632,22.9439368 10.2999789,26.4034105 12.1392632,29.4063158 L10.6699263,30.8750211 C9.09625263,32.4483158 7.08644211,33.6533684 4.85797895,34.3597895 C3.71958947,34.7204211 2.68393263,35.3766316 1.86268105,36.2570526 C0.641962105,37.566 -0.01935,39.282 -1.51755249e-09,41.0892632 C0.0201187579,42.8955789 0.718275789,44.5973684 1.96636737,45.8801053 C3.28035789,47.2310526 5.04107368,47.9823158 6.92434737,47.9955789 C6.94111579,47.9955789 6.95763158,47.9955789 6.9744,47.9955789 C8.83916842,47.9955789 10.5904421,47.2705263 11.9103474,45.9508421 C12.6992526,45.162 13.2935368,44.1865263 13.6286842,43.1292632 C14.3350737,40.9010526 15.5403474,38.8916842 17.1139263,37.3184211 L18.5874,35.8458947 C21.6673579,37.7235789 25.1629263,38.6627368 28.6584947,38.6627368 C33.6113684,38.6627368 38.5642105,36.7777895 42.3350526,33.0078947 C45.9881053,29.3551263 48,24.4988842 48,19.3334526 C48,14.1680211 45.9881053,9.31184211 42.3350526,5.65935789 L42.3350526,5.65935789 Z M15.7884,35.9924211 C14.0031158,37.7772632 12.6383053,40.0490526 11.8414421,42.5624211 C11.5931684,43.3452632 11.1702632,44.0390526 10.5847263,44.6248421 C9.61916842,45.5902105 8.33816842,46.1204211 6.97402105,46.1204211 C6.96173684,46.1204211 6.94945263,46.1204211 6.93726316,46.1204211 C5.55982105,46.1109474 4.27168421,45.5611579 3.31035789,44.5730526 C1.44136737,42.6514737 1.40705684,39.4948421 3.23406316,37.536 C3.83564211,36.8908421 4.59306316,36.4105263 5.42463158,36.1471579 C7.93825263,35.3504211 10.2105474,33.9858947 11.9956421,32.2010526 L13.2153474,30.9819789 C13.7526316,31.6910526 14.3421158,32.3677895 14.9821579,33.0075789 C15.6253579,33.6505263 16.3029789,34.2388421 17.0091158,34.7722105 L15.7884,35.9924211 Z M41.0093684,31.6815789 C34.1990526,38.4906316 23.1179684,38.4906316 16.3077789,31.6815789 C13.0089158,28.3833158 11.1920211,23.9979789 11.1920211,19.3334526 C11.1920211,14.6690211 13.0089158,10.2835579 16.3077789,6.98526316 C19.7128737,3.58083158 24.1856842,1.87860316 28.6584947,1.87860316 C33.1313684,1.87860316 37.6042105,3.58083158 41.0093684,6.98535789 C44.3081053,10.2835579 46.1251579,14.6690211 46.1251579,19.3334526 C46.1251579,23.9979789 44.3081053,28.3833158 41.0093684,31.6815789 L41.0093684,31.6815789 Z"/>
        <path d="M38.9422105,9.05115789 C33.2715789,3.38182105 24.0451263,3.38172632 18.3743684,9.05125263 C15.6315474,11.7936316 14.1209368,15.4452947 14.1209368,19.3334842 C14.1209368,23.2216737 15.6315474,26.8733368 18.3743684,29.6157158 C21.2096526,32.4505263 24.9340737,33.8677895 28.6582737,33.8677895 C32.3826316,33.8677895 36.1070526,32.4505263 38.9422105,29.6157158 C41.6851579,26.8733368 43.1955789,23.2216737 43.1955789,19.3334842 C43.1955789,15.4452 41.6851579,11.7935368 38.9422105,9.05115789 L38.9422105,9.05115789 Z M37.6165263,28.2896842 C32.6769474,33.2283158 24.6397895,33.2283158 19.7001789,28.2896842 C17.3115474,25.9015263 15.9960316,22.7207684 15.9960316,19.3334842 C15.9960316,15.9461053 17.3115474,12.7654421 19.7001789,10.3771579 C24.6397895,5.43852632 32.6769474,5.43852632 37.6165263,10.3770632 C40.0051579,12.7653474 41.3207368,15.9460105 41.3207368,19.3333895 C41.3207368,22.7207684 40.0051579,25.9015263 37.6165263,28.2896842 Z"/>
      </g>
      <g transform="translate(11 13)">
        <mask id="favorite-search-b" fill="#fff">
          <use xlink:href="#favorite-search-a"/>
        </mask>
        <polygon fill="#FA5454" points="-1.339 14.54 15.967 14.54 15.967 -1.348 -1.339 -1.348" mask="url(#favorite-search-b)"/>
      </g>
    </g>
  </g>
</svg>
