<svg xmlns="http://www.w3.org/2000/svg" width="76" height="64" viewBox="0 0 76 64">
  <defs>
    <filter id="on-going-search-a">
      <feColorMatrix in="SourceGraphic" values="0 0 0 0 0.360784 0 0 0 0 0.850980 0 0 0 0 0.600000 0 0 0 1.000000 0"/>
    </filter>
  </defs>
  <g fill="none" fill-rule="evenodd">
    <rect width="76" height="64"/>
    <g transform="translate(14 8)">
      <path fill="#037092" fill-rule="nonzero" d="M42.3350526,5.65935789 C34.7936842,-1.88048842 22.5233053,-1.88048842 14.9820632,5.65935789 C11.3288211,9.31184211 9.31692632,14.1681158 9.31692632,19.3334526 C9.31692632,22.9439368 10.2999789,26.4034105 12.1392632,29.4063158 L10.6699263,30.8750211 C9.09625263,32.4483158 7.08644211,33.6533684 4.85797895,34.3597895 C3.71958947,34.7204211 2.68393263,35.3766316 1.86268105,36.2570526 C0.641962105,37.566 -0.01935,39.282 -1.51755249e-09,41.0892632 C0.0201187579,42.8955789 0.718275789,44.5973684 1.96636737,45.8801053 C3.28035789,47.2310526 5.04107368,47.9823158 6.92434737,47.9955789 C6.94111579,47.9955789 6.95763158,47.9955789 6.9744,47.9955789 C8.83916842,47.9955789 10.5904421,47.2705263 11.9103474,45.9508421 C12.6992526,45.162 13.2935368,44.1865263 13.6286842,43.1292632 C14.3350737,40.9010526 15.5403474,38.8916842 17.1139263,37.3184211 L18.5874,35.8458947 C21.6673579,37.7235789 25.1629263,38.6627368 28.6584947,38.6627368 C33.6113684,38.6627368 38.5642105,36.7777895 42.3350526,33.0078947 C45.9881053,29.3551263 48,24.4988842 48,19.3334526 C48,14.1680211 45.9881053,9.31184211 42.3350526,5.65935789 L42.3350526,5.65935789 Z M15.7884,35.9924211 C14.0031158,37.7772632 12.6383053,40.0490526 11.8414421,42.5624211 C11.5931684,43.3452632 11.1702632,44.0390526 10.5847263,44.6248421 C9.61916842,45.5902105 8.33816842,46.1204211 6.97402105,46.1204211 C6.96173684,46.1204211 6.94945263,46.1204211 6.93726316,46.1204211 C5.55982105,46.1109474 4.27168421,45.5611579 3.31035789,44.5730526 C1.44136737,42.6514737 1.40705684,39.4948421 3.23406316,37.536 C3.83564211,36.8908421 4.59306316,36.4105263 5.42463158,36.1471579 C7.93825263,35.3504211 10.2105474,33.9858947 11.9956421,32.2010526 L13.2153474,30.9819789 C13.7526316,31.6910526 14.3421158,32.3677895 14.9821579,33.0075789 C15.6253579,33.6505263 16.3029789,34.2388421 17.0091158,34.7722105 L15.7884,35.9924211 Z M41.0093684,31.6815789 C34.1990526,38.4906316 23.1179684,38.4906316 16.3077789,31.6815789 C13.0089158,28.3833158 11.1920211,23.9979789 11.1920211,19.3334526 C11.1920211,14.6690211 13.0089158,10.2835579 16.3077789,6.98526316 C19.7128737,3.58083158 24.1856842,1.87860316 28.6584947,1.87860316 C33.1313684,1.87860316 37.6042105,3.58083158 41.0093684,6.98535789 C44.3081053,10.2835579 46.1251579,14.6690211 46.1251579,19.3334526 C46.1251579,23.9979789 44.3081053,28.3833158 41.0093684,31.6815789 L41.0093684,31.6815789 Z"/>
      <path fill="#037092" fill-rule="nonzero" d="M38.9422105,9.05115789 C33.2715789,3.38182105 24.0451263,3.38172632 18.3743684,9.05125263 C15.6315474,11.7936316 14.1209368,15.4452947 14.1209368,19.3334842 C14.1209368,23.2216737 15.6315474,26.8733368 18.3743684,29.6157158 C21.2096526,32.4505263 24.9340737,33.8677895 28.6582737,33.8677895 C32.3826316,33.8677895 36.1070526,32.4505263 38.9422105,29.6157158 C41.6851579,26.8733368 43.1955789,23.2216737 43.1955789,19.3334842 C43.1955789,15.4452 41.6851579,11.7935368 38.9422105,9.05115789 L38.9422105,9.05115789 Z M37.6165263,28.2896842 C32.6769474,33.2283158 24.6397895,33.2283158 19.7001789,28.2896842 C17.3115474,25.9015263 15.9960316,22.7207684 15.9960316,19.3334842 C15.9960316,15.9461053 17.3115474,12.7654421 19.7001789,10.3771579 C24.6397895,5.43852632 32.6769474,5.43852632 37.6165263,10.3770632 C40.0051579,12.7653474 41.3207368,15.9460105 41.3207368,19.3333895 C41.3207368,22.7207684 40.0051579,25.9015263 37.6165263,28.2896842 Z"/>
      <g filter="url(#on-going-search-a)">
        <g transform="translate(22.105 11.053)">
          <path fill="#5CD999" d="M6.37320574,9.07177033 C4.88520574,9.07177033 3.67464115,7.86120574 3.67464115,6.37320574 C3.67464115,4.88520574 4.88520574,3.67464115 6.37320574,3.67464115 C7.86120574,3.67464115 9.07177033,4.88520574 9.07177033,6.37320574 C9.07177033,7.86120574 7.86120574,9.07177033 6.37320574,9.07177033 Z M6.37320574,5.39712919 C5.83498565,5.39712919 5.39712919,5.83498565 5.39712919,6.37320574 C5.39712919,6.91142584 5.83498565,7.3492823 6.37320574,7.3492823 C6.91142584,7.3492823 7.3492823,6.91142584 7.3492823,6.37320574 C7.3492823,5.83498565 6.91142584,5.39712919 6.37320574,5.39712919 Z"/>
          <path fill="#5CD999" d="M6.37320574,16.4210526 C6.12861244,16.4210526 5.89555981,16.3170144 5.73221053,16.1350622 C5.67467943,16.0709282 4.30719617,14.542622 2.91800957,12.6109091 C0.954488038,9.88053589 0,7.84019139 0,6.37320574 C0,2.85898565 2.85898565,0 6.37320574,0 C9.88742584,0 12.7464115,2.85898565 12.7464115,6.37320574 C12.7464115,7.84019139 11.7919234,9.88053589 9.82840191,12.6109091 C8.43927273,14.542622 7.07173206,16.0709282 7.01420096,16.1350622 C6.85085167,16.3170144 6.61779904,16.4210526 6.37320574,16.4210526 Z M6.37320574,1.72248804 C3.80876555,1.72248804 1.72248804,3.80876555 1.72248804,6.37320574 C1.72248804,8.15414354 4.35525359,11.8627177 6.37303349,14.2477321 C8.39092823,11.8616842 11.0239234,8.15207656 11.0239234,6.37320574 C11.0239234,3.80876555 8.93758852,1.72248804 6.37320574,1.72248804 Z"/>
        </g>
      </g>
    </g>
  </g>
</svg>
