<svg xmlns="http://www.w3.org/2000/svg" xmlns:xlink="http://www.w3.org/1999/xlink" width="312" height="64" viewBox="0 0 312 64">
  <defs>
    <rect id="other-a" width="312" height="64" x="0" y="0"/>
  </defs>
  <g fill="none" fill-rule="evenodd">
    <mask id="other-b" fill="#fff">
      <use xlink:href="#other-a"/>
    </mask>
    <path fill="#B3E8F8" d="M80.5956772,25 L52.4765479,25 C49.4539021,25 47,22.542252 47,19.5106629 C47,16.4775033 49.4520219,14.0197553 52.4765479,14.0197553 L55.5631186,14.0197553 C55.5631186,14.0141017 55.5624919,14.0065636 55.5624919,14.0005959 C55.5624919,7.58061244 61.037473,2.48263046 67.4998433,3.04202332 C72.1049442,3.44374344 75.8937489,6.69582316 77.1042486,11.0283697 C78.1445953,10.4702332 79.3319066,10.153003 80.5941104,10.153003 C84.6846783,10.153003 88,13.4766951 88,17.5768157 C88,21.6995506 84.6571029,25 80.5956772,25 Z" mask="url(#other-b)" transform="matrix(-1 0 0 1 135 0)"/>
    <path fill="#B3E8F8" d="M225.164406,80 L184.01446,80 C179.591076,80 176,76.4250938 176,72.0155097 C176,67.6036412 179.588325,64.028735 184.01446,64.028735 L188.531393,64.028735 C188.531393,64.0205116 188.530476,64.0095471 188.530476,64.0008667 C188.530476,54.662709 196.542643,47.2474625 205.999771,48.0611248 C212.738943,48.645445 218.283535,53.3757428 220.054998,59.6776286 C221.577457,58.8657937 223.314985,58.404368 225.162113,58.404368 C231.14831,58.404368 236,63.2388292 236,69.202641 C236,75.1993463 231.107955,80 225.164406,80 Z" mask="url(#other-b)" transform="matrix(-1 0 0 1 412 0)"/>
    <path fill="#B3E8F8" d="M296.956864,32 L270.209399,32 C267.3342,32 265,29.6539678 265,26.7601782 C265,23.8648896 267.332411,21.5188573 270.209399,21.5188573 L273.145406,21.5188573 C273.145406,21.5134608 273.144809,21.5062653 273.144809,21.5005688 C273.144809,15.3724028 278.352718,10.5061473 284.499851,11.0401132 C288.880313,11.4235733 292.484298,14.5278312 293.635749,18.6634438 C294.625347,18.1306771 295.75474,17.8278665 296.955373,17.8278665 C300.846401,17.8278665 304,21.0004817 304,24.9142331 C304,28.849571 300.820171,32 296.956864,32 Z" mask="url(#other-b)" transform="matrix(-1 0 0 1 569 0)"/>
    <path fill="#037092" d="M78.2409528,78.4604672 L57.9621879,78.4604672 C56.1565846,75.6474826 53.9079359,73.1991878 51.258928,71.1617147 C52.3985561,60.9444995 57.9218937,34.4403292 53.487101,27.5457914 C59.8004388,30.1869907 64.6031069,38.5019431 72.7258007,36.1358834 C74.0766317,35.7425233 74.4446244,33.9853813 73.3641003,33.0776091 C65.7678307,26.6952416 65.8098133,15.6178019 53.3952788,15.6178019 C51.6664872,15.6178019 50.2050707,16.2228261 49.0388224,17.1685892 C47.7723084,10.9460906 43.9002936,7.95589336 38.3096897,8 C32.2333542,8.04379175 24.2289857,12.8996767 15.5457421,13.7314669 C14.1648901,13.8638455 13.4726463,15.4822378 14.3257843,16.5820886 C17.6750102,20.8997287 21.5560547,22.3432681 25.4552761,22.7772148 C21.7348912,28.0848622 18.6700446,35.411931 14.3342277,40.9133088 C13.4319537,42.0579937 14.2243459,43.7533119 15.6776707,43.782336 C22.9123974,43.9274569 28.9951828,39.4322503 34.467696,34.7967602 C36.4435751,38.7414515 41.5260489,40.0111998 45.0403908,37.1092549 C44.861437,40.9219216 38.9973134,59.5119326 37.9723752,65.5125025 C26.3346359,63.7948852 14.2209924,69.2857624 8.25172421,79.3213996 C7.55091979,80.4995921 8.3966697,82 9.76110401,82 L78.2409528,82 C79.2124159,82 80,81.2076166 80,80.2302336 C80,79.2528506 79.2124159,78.4604672 78.2409528,78.4604672 Z M42,66.290193 C43.3772312,57.6628049 49.0540364,37.4536813 48.8491392,33.1478139 C49.8771089,32.699161 50.7756298,31.9482677 51.4418178,31 C53.5529555,35.8828076 49.0667749,57.991056 48.0665675,69 C46.1540125,67.8258758 44.1245289,66.9203314 42,66.290193 Z M68,33 C63.0510571,31.4940385 58.7017474,24.3862263 51.5703298,23.3050606 C51.1377506,22.6758416 50.6041512,22.1267361 50,21.6840425 C50.5857313,20.3826259 51.7022816,19 53.4836879,19 C62.066111,19 62.5695897,26.1031856 68,33 Z M20,17.0416055 C27.4757412,15.5802222 34.1491215,12.0314588 38.570937,12.000239 C42.6927274,11.9746227 45.5950349,14.0027653 46,20.7792887 C45.5316121,20.8003306 45.067009,20.8746634 44.6157097,21 C42.5290669,18.1649461 40.814359,15.9526868 36.7163091,15.9526868 C33.7977159,15.9526868 31.1593068,17.1548201 28.6854756,19.6179812 C24.8255191,19.543191 22.1851602,18.791972 20,17.0416055 Z M34.3238147,30.7664861 C30.1350274,34.3800281 25.4478231,38.5983677 20,40 C26.0706689,30.5556051 29.7637313,19 36.9484057,19 C39.2096602,19 40.0501099,19.8730496 42,22.577295 C41.4374371,23.1936148 40.9942697,23.9125544 40.6936743,24.692706 C37.4381608,24.9302322 34.7807946,27.5432598 34.3238147,30.7664861 Z M37,31.5 C37,29.602806 38.602755,28 40.49994,28 C42.3971251,28 44,29.602806 44,31.5 C44,33.397194 42.3971251,35 40.49994,35 C38.602755,35 37,33.397194 37,31.5 Z M47.1275367,23.1659892 C48.2005079,23.595587 49,24.7932046 49,26.1288316 C49,27.3915927 48.2812493,28.5116112 47.3220107,29 C46.8115165,26.9685964 45.554164,25.3238184 44,24.4200312 C44.6792481,23.2633929 45.9494064,22.6944156 47.1275367,23.1659892 Z M13,78 C23.2846727,64.6745603 43.7188859,64.6587753 54,78 C52.0904621,78 15.0593544,78 13,78 Z"/>
  </g>
</svg>
