<svg xmlns="http://www.w3.org/2000/svg" width="76" height="64" viewBox="0 0 76 64">
  <defs>
    <filter id="radius-search-a">
      <feColorMatrix in="SourceGraphic" values="0 0 0 0 0.360784 0 0 0 0 0.850980 0 0 0 0 0.600000 0 0 0 1.000000 0"/>
    </filter>
  </defs>
  <g fill="none" fill-rule="evenodd">
    <rect width="76" height="64"/>
    <g transform="translate(16.4 10.4)">
      <path fill="#037092" d="M3.5589825,2.0847735 L13.494645,12.020535 C13.90176,12.42756 13.901805,13.08762 13.494645,13.494735 C13.291065,13.69836 13.02516,13.800015 12.75759,13.800015 C12.490065,13.800015 12.224115,13.69836 12.020535,13.494735 L2.084769,3.5589825 L2.084769,10.51902 C2.084769,11.09475 1.618101,11.5614 1.0423845,11.5614 C0.466668,11.5614 0,11.09475 0,10.51902 L0,4.027158 C0,1.8069795 1.8069795,0 4.0271535,0 L10.51902,0 C11.09475,0 11.5614,0.466668 11.5614,1.0423845 C11.5614,1.618101 11.09475,2.0847735 10.51902,2.0847735 L3.5589825,2.0847735 Z M2.084769,32.68098 L2.084769,39.64104 L12.020535,29.70522 C12.427515,29.29824 13.08753,29.29824 13.49469,29.705355 C13.90176,30.11238 13.901805,30.772395 13.494645,31.17951 L3.558978,41.11524 L10.51902,41.11524 C11.09475,41.11524 11.5614,41.58189 11.5614,42.15762 C11.5614,42.73335 11.09475,43.2 10.51902,43.2 L4.0271535,43.2 C1.8069795,43.2 0,41.393025 0,39.17286 L0,32.68098 C0,32.10525 0.466668,31.6386 1.0423845,31.6386 C1.6180965,31.6386 2.084769,32.10525 2.084769,32.68098 Z M31.17942,29.705355 L41.11524,39.64104 L41.11524,32.681025 C41.11524,32.10534 41.58189,31.638645 42.15762,31.638645 C42.733305,31.638645 43.2,32.10534 43.2,32.681025 L43.2,39.17286 C43.2,41.393025 41.393025,43.2 39.172815,43.2 L32.680935,43.2 C32.10525,43.2 31.638555,42.73335 31.638555,42.15762 C31.638555,41.581935 32.10525,41.11524 32.680935,41.11524 L39.640995,41.11524 L29.705265,31.17951 C29.29824,30.77253 29.298195,30.11247 29.70531,29.70531 C30.112335,29.29824 30.772305,29.298195 31.17942,29.705355 Z M29.70531,12.02049 L39.640995,2.0847735 L32.68098,2.0847735 C32.10525,2.0847735 31.6386,1.6181055 31.6386,1.0423845 C31.6386,0.466668 32.10525,0 32.68098,0 L39.17286,0 C41.393025,0 43.2,1.8069795 43.2,4.027158 L43.2,10.51902 C43.2,11.09475 42.733305,11.5614 42.15762,11.5614 C41.58189,11.5614 41.11524,11.09475 41.11524,10.51902 L41.11524,3.5589825 L31.179465,13.494735 C30.975885,13.69836 30.709935,13.800015 30.44241,13.800015 C30.17484,13.800015 29.90889,13.69827 29.70531,13.494645 C29.29824,13.08762 29.298195,12.427605 29.70531,12.02049 Z"/>
      <g filter="url(#radius-search-a)">
        <g transform="translate(13.5 12.6)">
          <path fill="#5CD999" d="M7.97427938,11.4356643 C6.11246475,11.4356643 4.59778271,9.90965455 4.59778271,8.03391608 C4.59778271,6.15817762 6.11246475,4.63216783 7.97427938,4.63216783 C9.83609401,4.63216783 11.3507761,6.15817762 11.3507761,8.03391608 C11.3507761,9.90965455 9.83609401,11.4356643 7.97427938,11.4356643 Z M7.97427938,6.8034965 C7.30084789,6.8034965 6.75299335,7.35544825 6.75299335,8.03391608 C6.75299335,8.71238392 7.30084789,9.26433566 7.97427938,9.26433566 C8.64771086,9.26433566 9.19556541,8.71238392 9.19556541,8.03391608 C9.19556541,7.35544825 8.64771086,6.8034965 7.97427938,6.8034965 Z"/>
          <path fill="#5CD999" d="M7.97427938,20.7 C7.66823947,20.7 7.37663947,20.5688517 7.17225366,20.3394871 C7.10026962,20.2586413 5.38924789,18.3320937 3.65107051,15.897021 C1.19427406,12.4551755 0,9.88316434 0,8.03391608 C0,3.60397133 3.57721863,0 7.97427938,0 C12.3713401,0 15.9485588,3.60397133 15.9485588,8.03391608 C15.9485588,9.88316434 14.7542847,12.4551755 12.2974882,15.897021 C10.5593827,18.3320937 8.84828914,20.2586413 8.7763051,20.3394871 C8.57191929,20.5688517 8.28031929,20.7 7.97427938,20.7 Z M7.97427938,2.17132867 C4.76560177,2.17132867 2.15521064,4.80124196 2.15521064,8.03391608 C2.15521064,10.2789252 5.44937827,14.9538682 7.97406386,17.9603622 C10.4988931,14.9525654 13.7933481,10.2763196 13.7933481,8.03391608 C13.7933481,4.80124196 11.1828851,2.17132867 7.97427938,2.17132867 Z"/>
        </g>
      </g>
    </g>
  </g>
</svg>
