<svg xmlns="http://www.w3.org/2000/svg" width="40" height="24" viewBox="0 0 40 24">
  <g fill="none" fill-rule="evenodd">
    <rect width="39" height="23" x=".5" y=".5" fill="#FFF" stroke="#CCC"/>
    <polygon fill="#016FD0" fill-rule="nonzero" points="11 3 28.955 3 28.955 12.712 28.067 14.104 28.955 15.342 28.955 20.991 11 20.991 11 11.836 11.555 11.196 11 10.583"/>
    <path fill="#FFF" fill-rule="nonzero" d="M14.4855227 15.5368539L14.4855227 12.7122355 17.4702876 12.7122355 17.7905205 13.1305353 18.1213427 12.7122355 28.9553024 12.7122355 28.9553024 15.3420535C28.9553024 15.3420535 28.6719752 15.5340295 28.3442942 15.5368539L22.3453071 15.5368539 21.984257 15.0915938 21.984257 15.5368539 20.8011233 15.5368539 20.8011233 14.7767814C20.8011233 14.7767814 20.6395054 14.8828786 20.2900986 14.8828786L19.8873888 14.8828786 19.8873888 15.5368539 18.0960244 15.5368539 17.776249 15.109583 17.4515638 15.5368539 14.4855227 15.5368539zM11 10.5833369L11.6730762 9.01101343 12.8370913 9.01101343 13.2190699 9.89176533 13.2190699 9.01101343 14.6660479 9.01101343 14.89344 9.64759479 15.1138888 9.01101343 21.6093202 9.01101343 21.6093202 9.33104369C21.6093202 9.33104369 21.9507793 9.01101343 22.5119457 9.01101343L24.6194755 9.01839379 24.99486 9.88761884 24.99486 9.01101343 26.2057666 9.01101343 26.5390438 9.51031323 26.5390438 9.01101343 27.7610596 9.01101343 27.7610596 11.8356301 26.5390438 11.8356301 26.2196532 11.3347124 26.2196532 11.8356301 24.4405629 11.8356301 24.2616503 11.3903699 23.7833709 11.3903699 23.6073703 11.8356301 22.4008533 11.8356301C21.9179873 11.8356301 21.6093202 11.5221343 21.6093202 11.5221343L21.6093202 11.8356301 19.790183 11.8356301 19.4291327 11.3903699 19.4291327 11.8356301 12.6646495 11.8356301 12.4858602 11.3903699 12.0091059 11.3903699 11.8315802 11.8356301 11 11.8356301 11 10.5833369z"/>
    <path fill="#016FD0" fill-rule="nonzero" d="M11.9113045,9.35922866 L11.0034716,11.4742124 L11.5945177,11.4742124 L11.7620242,11.0506966 L12.7358181,11.0506966 L12.9024567,11.4742124 L13.5065214,11.4742124 L12.5995563,9.35922866 L11.9113045,9.35922866 Z M12.2471853,9.8514493 L12.5440103,10.5915216 L11.9494924,10.5915216 L12.2471853,9.8514493 L12.2471853,9.8514493 Z"/>
    <polygon fill="#016FD0" fill-rule="nonzero" points="13.569 11.474 13.569 9.359 14.409 9.362 14.897 10.726 15.374 9.359 16.207 9.359 16.207 11.474 15.68 11.474 15.68 9.915 15.12 11.474 14.658 11.474 14.097 9.915 14.097 11.474"/>
    <polygon fill="#016FD0" fill-rule="nonzero" points="16.569 11.474 16.569 9.359 18.29 9.359 18.29 9.832 17.102 9.832 17.102 10.194 18.263 10.194 18.263 10.639 17.102 10.639 17.102 11.015 18.29 11.015 18.29 11.474"/>
    <path fill="#016FD0" fill-rule="nonzero" d="M18.5959401,9.35922866 L18.5959401,11.4742124 L19.1236288,11.4742124 L19.1236288,10.7228369 L19.3458134,10.7228369 L19.9785192,11.4742124 L20.6233756,11.4742124 L19.9290483,10.695009 C20.2140045,10.6709146 20.5079436,10.4258513 20.5079436,10.0453822 C20.5079436,9.60031503 20.1593148,9.35922866 19.770221,9.35922866 L18.5959401,9.35922866 L18.5959401,9.35922866 Z M19.1236288,9.83231663 L19.7268255,9.83231663 C19.8715241,9.83231663 19.9767834,9.94573106 19.9767834,10.0549467 C19.9767834,10.1954567 19.8404023,10.2775768 19.7346368,10.2775768 L19.1236288,10.2775768 L19.1236288,9.83231663 L19.1236288,9.83231663 Z"/>
    <polygon fill="#016FD0" fill-rule="nonzero" points="21.262 11.474 20.723 11.474 20.723 9.359 21.262 9.359"/>
    <path fill="#016FD0" fill-rule="nonzero" d="M22.5397188 11.4738571L22.423419 11.4738571C21.8607081 11.4738571 21.5190578 11.0296431 21.5190578 10.4250613 21.5190578 9.80554389 21.8568829 9.35887154 22.5674919 9.35887154L23.1507268 9.35887154 23.1507268 9.85978918 22.5461686 9.85978918C22.2577006 9.85978918 22.0536897 10.0853609 22.0536897 10.4302792 22.0536897 10.8398711 22.2869673 11.0118992 22.6230381 11.0118992L22.7619034 11.0118992 22.5397188 11.4738571zM23.6879624 9.35922866L22.7801297 11.4742124 23.3711757 11.4742124 23.5386821 11.0506966 24.5124762 11.0506966 24.6791146 11.4742124 25.2831793 11.4742124 24.3762144 9.35922866 23.6879624 9.35922866zM24.0238433 9.8514493L24.3206682 10.5915216 23.7261505 10.5915216 24.0238433 9.8514493z"/>
    <polygon fill="#016FD0" fill-rule="nonzero" points="25.345 11.474 25.345 9.359 26.016 9.359 26.872 10.688 26.872 9.359 27.4 9.359 27.4 11.474 26.751 11.474 25.872 10.11 25.872 11.474"/>
    <polygon fill="#016FD0" fill-rule="nonzero" points="14.847 15.175 14.847 13.06 16.569 13.06 16.569 13.533 15.38 13.533 15.38 13.895 16.541 13.895 16.541 14.34 15.38 14.34 15.38 14.716 16.569 14.716 16.569 15.175"/>
    <polygon fill="#016FD0" fill-rule="nonzero" points="23.284 15.175 23.284 13.06 25.006 13.06 25.006 13.533 23.817 13.533 23.817 13.895 24.973 13.895 24.973 14.34 23.817 14.34 23.817 14.716 25.006 14.716 25.006 15.175"/>
    <polygon fill="#016FD0" fill-rule="nonzero" points="16.635 15.175 17.474 14.131 16.615 13.06 17.28 13.06 17.791 13.722 18.304 13.06 18.943 13.06 18.096 14.118 18.936 15.175 18.271 15.175 17.775 14.524 17.291 15.175"/>
    <path fill="#016FD0" fill-rule="nonzero" d="M18.9986499 13.0604525L18.9986499 15.1754363 19.5402251 15.1754363 19.5402251 14.5075461 20.0956869 14.5075461C20.5656862 14.5075461 20.9219362 14.2577032 20.9219362 13.771824 20.9219362 13.3693238 20.6425275 13.0604525 20.1642518 13.0604525L18.9986499 13.0604525 18.9986499 13.0604525zM19.5402251 13.5387583L20.1251958 13.5387583C20.277034 13.5387583 20.3855685 13.6320066 20.3855685 13.7822597 20.3855685 13.9234136 20.277582 14.0257611 20.12346 14.0257611L19.5402251 14.0257611 19.5402251 13.5387583zM21.1510644 13.0600954L21.1510644 15.175081 21.6787531 15.175081 21.6787531 14.4237036 21.9009377 14.4237036 22.5336435 15.175081 23.1784999 15.175081 22.4841726 14.3958758C22.7691286 14.3717778 23.0630679 14.126718 23.0630679 13.7462471 23.0630679 13.3011818 22.7144391 13.0600954 22.3253453 13.0600954L21.1510644 13.0600954 21.1510644 13.0600954zM21.6787531 13.5331852L22.2819498 13.5331852C22.4266484 13.5331852 22.5319075 13.6465978 22.5319075 13.7558134 22.5319075 13.8963253 22.3955264 13.9784435 22.2897609 13.9784435L21.6787531 13.9784435 21.6787531 13.5331852 21.6787531 13.5331852zM25.2503723 15.175081L25.2503723 14.715906 26.3064442 14.715906C26.4627049 14.715906 26.5303647 14.6312952 26.5303647 14.5384978 26.5303647 14.4495872 26.4629182 14.359699 26.3064442 14.359699L25.8292174 14.359699C25.4143946 14.359699 25.1833698 14.1064563 25.1833698 13.7262469 25.1833698 13.3871273 25.3949325 13.0600954 26.0113551 13.0600954L27.0389594 13.0600954 26.8167746 13.5359663 25.9280358 13.5359663C25.758148 13.5359663 25.705851 13.6252918 25.705851 13.7105934 25.705851 13.7982703 25.7704774 13.8949581 25.9002627 13.8949581L26.4001783 13.8949581C26.8626035 13.8949581 27.0632608 14.157787 27.0632608 14.5019729 27.0632608 14.8720064 26.8396627 15.175081 26.3750046 15.175081L25.2503723 15.175081zM27.1871116 15.175081L27.1871116 14.715906 28.2431828 14.715906C28.3994444 14.715906 28.4671046 14.6312952 28.4671046 14.5384978 28.4671046 14.4495872 28.3996568 14.359699 28.2431828 14.359699L27.7659567 14.359699C27.3511339 14.359699 27.120109 14.1064563 27.120109 13.7262469 27.120109 13.3871273 27.3316716 13.0600954 27.9480942 13.0600954L28.9756982 13.0600954 28.7535134 13.5359663 27.8647749 13.5359663C27.6948873 13.5359663 27.6425903 13.6252918 27.6425903 13.7105934 27.6425903 13.7982703 27.7072166 13.8949581 27.8370018 13.8949581L28.3369178 13.8949581C28.7993432 13.8949581 29 14.157787 29 14.5019729 29 14.8720064 28.7764022 15.175081 28.311743 15.175081L27.1871116 15.175081z"/>
  </g>
</svg>
