<svg xmlns="http://www.w3.org/2000/svg" width="40" height="24" viewBox="0 0 40 24">
  <defs>
    <linearGradient id="discover-a" x1="75.379%" x2="41.061%" y1="90.119%" y2="35.869%">
      <stop offset="0%" stop-color="#F89F20"/>
      <stop offset="25.02%" stop-color="#F79A20"/>
      <stop offset="53.31%" stop-color="#F68D20"/>
      <stop offset="61.96%" stop-color="#F58720"/>
      <stop offset="72.32%" stop-color="#F48120"/>
      <stop offset="100%" stop-color="#F37521"/>
    </linearGradient>
    <linearGradient id="discover-b" x1="69.955%" x2="19.798%" y1="89.379%" y2="-9.6%">
      <stop offset="0%" stop-color="#F58720"/>
      <stop offset="35.87%" stop-color="#E16F27"/>
      <stop offset="70.3%" stop-color="#D4602C"/>
      <stop offset="98.16%" stop-color="#D05B2E"/>
    </linearGradient>
  </defs>
  <g fill="none" fill-rule="evenodd">
    <rect width="39" height="23" x=".5" y=".5" fill="#FFF" stroke="#CCC"/>
    <path fill="#231F20" fill-rule="nonzero" d="M3.63729508,9.18387097 L2.04815574,9.18387097 L2.04815574,14.7774194 L3.63729508,14.7774194 C4.47520492,14.7774194 5.09159836,14.5741935 5.62131148,14.1290323 C6.25696721,13.5967742 6.63258197,12.8032258 6.63258197,11.9806452 C6.62295082,10.3354839 5.39979508,9.18387097 3.63729508,9.18387097 Z M4.90860656,13.383871 C4.57151639,13.6935484 4.12848361,13.8290323 3.42540984,13.8290323 L3.13647541,13.8290323 L3.13647541,10.1322581 L3.42540984,10.1322581 C4.12848361,10.1322581 4.5522541,10.2580645 4.90860656,10.5870968 C5.28422131,10.9258065 5.5057377,11.4387097 5.5057377,11.9806452 C5.5057377,12.5129032 5.28422131,13.0451613 4.90860656,13.383871 Z"/>
    <rect width="1.088" height="5.594" x="7.124" y="9.184" fill="#231F20" fill-rule="nonzero"/>
    <path fill="#231F20" fill-rule="nonzero" d="M10.8606557 11.3322581C10.2057377 11.0903226 10.0227459 10.9258065 10.0227459 10.6258065 10.0227459 10.2774194 10.3598361 10.0064516 10.8317623 10.0064516 11.1592213 10.0064516 11.4192623 10.1419355 11.7081967 10.4612903L12.2764344 9.71612903C11.8141393 9.30967742 11.2555328 9.09677419 10.6391393 9.09677419 9.6567623 9.09677419 8.90553279 9.78387097 8.90553279 10.6935484 8.90553279 11.4677419 9.2522541 11.8548387 10.2731557 12.2225806 10.6969262 12.3774194 10.9184426 12.4741935 11.0243852 12.5419355 11.2459016 12.6870968 11.3518443 12.8903226 11.3518443 13.1225806 11.3518443 13.5774194 10.9954918 13.9064516 10.5139344 13.9064516 9.99385246 13.9064516 9.57971311 13.6451613 9.32930328 13.1612903L8.62622951 13.8387097C9.12704918 14.5741935 9.72418033 14.9032258 10.552459 14.9032258 11.6793033 14.9032258 12.4690574 14.1483871 12.4690574 13.0645161 12.4690574 12.183871 12.1030738 11.7870968 10.8606557 11.3322581zM12.8061475 11.9806452C12.8061475 13.6258065 14.0870902 14.8935484 15.7436475 14.8935484 16.2059426 14.8935484 16.6104508 14.7967742 17.1016393 14.5645161L17.1016393 13.2774194C16.6682377 13.7129032 16.2829918 13.8870968 15.7918033 13.8870968 14.7034836 13.8870968 13.9233607 13.0935484 13.9233607 11.9612903 13.9233607 10.8870968 14.7227459 10.0451613 15.7436475 10.0451613 16.2637295 10.0451613 16.6489754 10.2290323 17.1016393 10.6741935L17.1016393 9.38709677C16.6297131 9.14516129 16.2348361 9.0483871 15.7629098 9.0483871 14.1256148 9.05806452 12.8061475 10.3548387 12.8061475 11.9806452z"/>
    <polygon fill="#231F20" fill-rule="nonzero" points="25.702 12.939 24.219 9.184 23.034 9.184 25.404 14.923 25.982 14.923 28.389 9.184 27.214 9.184"/>
    <polygon fill="#231F20" fill-rule="nonzero" points="28.881 14.777 31.953 14.777 31.953 13.829 29.959 13.829 29.959 12.319 31.876 12.319 31.876 11.371 29.959 11.371 29.959 10.132 31.953 10.132 31.953 9.184 28.881 9.184"/>
    <path fill="#231F20" fill-rule="nonzero" d="M36.2483607,10.8387097 C36.2483607,9.79354839 35.5356557,9.18387097 34.2836066,9.18387097 L32.6752049,9.18387097 L32.6752049,14.7774194 L33.7635246,14.7774194 L33.7635246,12.5322581 L33.9079918,12.5322581 L35.4104508,14.7774194 L36.7491803,14.7774194 L34.9963115,12.4258065 C35.7956967,12.2516129 36.2483607,11.6903226 36.2483607,10.8387097 Z M34.0717213,11.7580645 L33.7538934,11.7580645 L33.7538934,10.0645161 L34.0909836,10.0645161 C34.7651639,10.0645161 35.1311475,10.3451613 35.1311475,10.8967742 C35.1311475,11.4580645 34.7651639,11.7580645 34.0717213,11.7580645 Z"/>
    <ellipse cx="20.415" cy="12" fill="url(#discover-a)" fill-rule="nonzero" rx="2.957" ry="2.971"/>
    <ellipse cx="20.415" cy="12" fill="url(#discover-b)" fill-rule="nonzero" opacity=".65" rx="2.957" ry="2.971"/>
    <path fill="#231F20" fill-rule="nonzero" d="M36.8578747,9.05806452 C37.13255,9.05806452 37.3614461,9.28696062 37.3614461,9.56163594 C37.3614461,9.83631127 37.13255,10.0652074 36.8578747,10.0652074 C36.5831994,10.0652074 36.3543033,9.84775607 36.3543033,9.56163594 C36.3543033,9.28696062 36.5717546,9.05806452 36.8578747,9.05806452 Z M36.8578747,9.16106776 C36.6404234,9.16106776 36.4573065,9.34418465 36.4573065,9.57308075 C36.4573065,9.80197685 36.6404234,9.98509374 36.8578747,9.98509374 C37.075326,9.98509374 37.2584429,9.80197685 37.2584429,9.57308075 C37.2584429,9.35562945 37.075326,9.16106776 36.8578747,9.16106776 Z M36.8349851,9.27551581 C36.9723228,9.27551581 37.0524364,9.34418465 37.0524364,9.4586327 C37.0524364,9.52873213 37.0173867,9.5813067 36.9549544,9.60868929 L36.9265435,9.61885997 L37.1211052,9.85920088 L36.9494331,9.85920088 L36.7892059,9.63030478 L36.7892059,9.85920088 L36.6518682,9.85920088 L36.6518682,9.27551581 L36.8349851,9.27551581 Z M36.8120955,9.38996387 L36.7892059,9.38996387 L36.7892059,9.53874633 L36.8120955,9.53874633 C36.8807643,9.53874633 36.9150987,9.51585672 36.9150987,9.4700775 C36.9150987,9.42000648 36.8888114,9.39622274 36.8362369,9.39105917 L36.8120955,9.38996387 Z"/>
  </g>
</svg>
