<svg xmlns="http://www.w3.org/2000/svg" width="40" height="24" viewBox="0 0 40 24">
  <g fill="none" fill-rule="evenodd">
    <rect width="39" height="23" x=".5" y=".5" fill="#FFF" stroke="#CCC"/>
    <rect width="26.875" height="17.979" fill="#FFF" fill-rule="nonzero" opacity="0" transform="translate(7 3)"/>
    <rect width="7.09" height="11.712" x="16.894" y="6.132" fill="#FF5F00" fill-rule="nonzero"/>
    <path fill="#EB001B" fill-rule="nonzero" d="M17.6240909,11.9896552 C17.6223108,9.70448306 18.65942,7.5453887 20.4365909,6.13448276 C17.4174571,3.73449347 13.0818599,4.08407267 10.4767405,6.93754548 C7.87162105,9.79101829 7.87162105,14.190361 10.4767405,17.0438338 C13.0818599,19.8973066 17.4174571,20.2468858 20.4365909,17.8468966 C18.6588544,16.4355426 17.6216819,14.2755533 17.6240909,11.9896552 Z"/>
    <path fill="#F79E1B" fill-rule="nonzero" d="M31.7454371 17.3543236L31.7454371 16.493884 31.918514 16.493884 31.918514 16.3158621 31.5065909 16.3158621 31.5065909 16.493884 31.6692832 16.493884 31.6692832 17.3543236 31.7454371 17.3543236zM32.5450524 17.3543236L32.5450524 16.3158621 32.4204371 16.3158621 32.2750524 17.0576203 32.1296678 16.3158621 32.0050524 16.3158621 32.0050524 17.3543236 32.0950524 17.3543236 32.0950524 16.5680599 32.2300524 17.2430599 32.323514 17.2430599 32.458514 16.5680599 32.458514 17.3543236 32.5450524 17.3543236zM32.3513636 11.9896552C32.3513636 14.841389 30.7414725 17.4427552 28.2055863 18.6889436 25.6697002 19.9351319 22.6529615 19.6073576 20.4365909 17.8448276 22.2129864 16.4327238 23.2501736 14.2739165 23.2501736 11.9886207 23.2501736 9.70332486 22.2129864 7.54451755 20.4365909 6.13241379 22.6529615 4.36988383 25.6697002 4.0421095 28.2055863 5.28829782 30.7414725 6.53448614 32.3513636 9.13585233 32.3513636 11.9875862L32.3513636 11.9896552z"/>
  </g>
</svg>
