<svg xmlns="http://www.w3.org/2000/svg" width="400" height="400" viewBox="0 0 400 400">
  <g fill="none" fill-rule="evenodd" transform="translate(0 33)">
    <g transform="translate(74.185 83.248)">
      <g fill="#BAE8F1" transform="translate(13.589 178.531)">
        <ellipse cx="14.883" cy="15.215" rx="14.236" ry="14.285"/>
        <ellipse cx="171.474" cy="15.215" rx="14.236" ry="14.285"/>
      </g>
      <path fill="#EBF6F8" d="M213.533835,58.1621413 L213.533835,161.477103 C213.533835,172.888141 204.640014,182.139861 193.670405,182.139861 L19.8634294,182.139861 C8.89382096,182.139861 0,172.888141 0,161.477103 L0,58.1621413 C0,46.7511023 8.89382096,37.4993831 19.8634294,37.4993831 L193.670405,37.4993831 C204.640014,37.4993831 213.533835,46.7511023 213.533835,58.1621413 Z"/>
      <path fill="#EBF6F8" d="M149.473684,42.8564378 L149.473684,21.4282189 C149.473684,9.59445315 141.888202,0 130.789474,0 L82.7443609,0 C71.6456329,0 64.0601504,9.59445315 64.0601504,21.4282189 L64.0601504,42.8564378 L82.7443609,42.8564378 L82.7443609,18.7496915 L130.789474,18.7496915 L130.789474,42.8564378 L149.473684,42.8564378 Z"/>
      <rect width="21.353" height="144.64" x="28.471" y="37.499" fill="#BAE8F1"/>
      <rect width="21.353" height="144.64" x="163.709" y="37.499" fill="#BAE8F1"/>
      <ellipse cx="172.162" cy="132.587" fill="#FCE6A4" rx="25.366" ry="20.083" transform="rotate(-161.875 172.162 132.587)"/>
      <ellipse cx="145.47" cy="117.186" fill="#FCE6A4" rx="25.366" ry="20.083" transform="rotate(-161.875 145.47 117.186)"/>
      <polygon fill="#FCE6A4" points="0 91.07 0 116.638 51.159 147.319 61.391 126.865"/>
      <polygon fill="#FCE6A4" points="88.083 50.892 64.06 80.356 112.105 80.356"/>
    </g>
    <g fill-rule="nonzero" transform="rotate(5 -1694.165 2466.125)">
      <g transform="rotate(5 4.162 158.792)">
        <path fill="#BAE8F1" d="M59.4731163,25.3008922 C39.7649027,25.3008922 23.7892465,40.8344936 23.7892465,59.9973704 C23.7892465,79.1587415 39.7649027,94.6938487 59.4731163,94.6938487 C79.1813298,94.6938487 95.156986,79.1587415 95.156986,59.9973704 C95.156986,40.8344936 79.1813298,25.3008922 59.4731163,25.3008922 Z"/>
        <path fill="#13A0BF" d="M59.4731163,25.3008922 C79.1813298,25.3008922 95.156986,40.8344936 95.156986,59.9973704 C95.156986,79.1587415 79.1813298,94.6938487 59.4731163,94.6938487 C39.7649027,94.6938487 23.7892465,79.1587415 23.7892465,59.9973704 C23.7892465,40.8344936 39.7649027,25.3008922 59.4731163,25.3008922 Z M103.086735,0.24232461 L-1.83365867e-13,0.24232461 L-1.83365867e-13,154.448894 L103.086735,154.448894 C111.809459,154.448894 118.946233,147.509599 118.946233,139.028238 L118.946233,15.6629816 C118.946233,7.18162025 111.809459,0.24232461 103.086735,0.24232461 Z"/>
      </g>
      <path fill="#00667F" d="M68.0722546,27.0720697 C45.8817508,27.0720697 27.8287793,44.3932719 27.8287793,65.6842933 C27.8287793,86.9753148 45.8817508,104.296517 68.0722546,104.296517 C90.2627584,104.296517 108.31573,86.9753148 108.31573,65.6842933 C108.31573,44.3932719 90.2627584,27.0720697 68.0722546,27.0720697 Z M100.006081,61.823071 L90.9135707,61.823071 C90.4105272,53.079514 88.2128564,45.2861796 84.8566133,39.3359757 C93.0074894,44.133846 98.7641926,52.3133027 100.006081,61.823071 Z M64.0479071,36.4385503 L64.0479071,61.823071 L53.2953535,61.823071 C54.1096553,49.1609765 58.8508397,39.7507555 64.0479071,36.4385503 Z M64.0479071,69.5455157 L64.0479071,94.9285278 C58.8508397,91.6178312 54.1112272,82.2061017 53.2953535,69.5455157 L64.0479071,69.5455157 Z M72.0966021,94.9285278 L72.0966021,69.5455157 L82.8491557,69.5455157 C82.033282,82.2061017 77.2936695,91.6178312 72.0966021,94.9285278 Z M72.0966021,61.823071 L72.0966021,36.4385503 C77.2936695,39.749247 82.033282,49.1609765 82.8491557,61.823071 L72.0966021,61.823071 Z M51.2878959,39.3359757 C47.9316528,45.2861796 45.733982,53.079514 45.2309385,61.823071 L36.1384283,61.823071 C37.3803166,52.3133027 43.1370198,44.133846 51.2878959,39.3359757 Z M36.1384283,69.5455157 L45.2309385,69.5455157 C45.733982,78.2875645 47.9316528,86.0824071 51.2878959,92.032611 C43.1370198,87.2347407 37.3803166,79.055284 36.1384283,69.5455157 Z M84.8566133,92.032611 C88.2128564,86.0824071 90.4105272,78.2875645 90.9135707,69.5455157 L100.006081,69.5455157 C98.7641926,79.055284 93.0074894,87.2347407 84.8566133,92.032611 Z" transform="rotate(5 68.072 65.684)"/>
      <path fill="#00667F" d="M98.742596,115.059751 L26.3173993,115.20883 C24.0949766,115.213404 22.2899421,117.036917 22.2852007,119.282297 C22.2804779,121.527677 24.0778421,123.343775 26.3002648,123.33921 L98.7254615,123.190131 C100.946312,123.18556 102.752919,121.362044 102.75766,119.116664 C102.762383,116.871284 100.965019,115.055186 98.742596,115.059751 Z" transform="rotate(5 62.521 119.2)"/>
      <path fill="#00667F" d="M57.2539086,128.650451 L26.1749053,128.714427 C24.0291185,128.718844 22.2861914,130.543817 22.281453,132.787609 C22.2767306,135.03299 24.011984,136.849216 26.1577708,136.844808 L57.2367742,136.780831 C59.3810432,136.776417 61.1254848,134.953029 61.1302265,132.707649 C61.1349455,130.463857 59.3981777,128.646045 57.2539086,128.650451 Z" transform="rotate(5 41.706 132.748)"/>
      <path fill="#00667F" d="M97.5688833,132.739026 L89.9378841,132.754741 C87.8304165,132.759078 86.118546,134.583988 86.1138074,136.82778 C86.1090852,139.073161 87.8132821,140.889451 89.9207496,140.885121 L97.5517488,140.869407 C99.6577257,140.865072 101.371084,139.041748 101.375825,136.796367 C101.380544,134.552575 99.6763508,132.734696 97.5688833,132.739026 Z" transform="rotate(5 93.745 136.812)"/>
      <path fill="#00667F" d="M73.6324589,131.392063 L73.6292079,131.392063 C71.3306034,131.39681 69.4654481,133.222035 69.4607104,135.465826 C69.4559874,137.711206 71.3167203,139.527173 73.6153245,139.522451 C75.9123035,139.517714 77.7807064,137.694071 77.7854475,135.448692 C77.7901672,133.2049 75.929438,131.387345 73.6324589,131.392063 Z" transform="rotate(5 73.623 135.457)"/>
    </g>
    <path fill="#FFD863" fill-rule="nonzero" d="M74.8626895 69.7108277L79.5589152 82.4500772C79.7354543 82.9296928 80.1918723 83.2477612 80.7021132 83.2477612 81.2123541 83.2477612 81.6687721 82.9296928 81.8453112 82.4500772L86.5415369 69.7108277C90.3428675 59.3976574 98.4686872 51.2678867 108.776128 47.4654257L121.509186 42.7669165C121.987851 42.5902916 122.305764 42.1336516 122.305764 41.6231626 122.305764 41.1126736 121.987851 40.6560337 121.509186 40.4794088L108.77541 35.7808995C98.4679695 31.9777206 90.3421499 23.8486678 86.5415369 13.5362155L81.8453112.796965958C81.6687721.318068396 81.2123541 0 80.7021132 0 80.1918723 0 79.7354543.318068396 79.5589152.796965958L74.8626895 13.5362155C71.0613589 23.8486678 62.9362569 31.9777206 52.6280988 35.7808995L39.894323 40.4794088C39.4156582 40.6560337 39.0977444 41.1126736 39.0977444 41.6231626 39.0977444 42.1336516 39.4156582 42.5902916 39.894323 42.7669165L52.6273812 47.4654257C62.9355392 51.2678867 71.0613589 59.3969394 74.8626895 69.7108277zM367.418611 219.384149L370.64373 228.13279C370.764968 228.462165 371.078411 228.680597 371.428818 228.680597 371.779224 228.680597 372.092668 228.462165 372.213906 228.13279L375.439024 219.384149C378.049577 212.30161 383.629959 206.718515 390.708563 204.107186L399.452952 200.880499C399.781674 200.759202 400 200.445606 400 200.095029 400 199.744453 399.781674 199.430856 399.452952 199.30956L390.70807 196.082873C383.629466 193.471051 378.049084 187.888449 375.439024 180.806403L372.213906 172.057762C372.092668 171.72888 371.779224 171.510448 371.428818 171.510448 371.078411 171.510448 370.764968 171.72888 370.64373 172.057762L367.418611 180.806403C364.808059 187.888449 359.22817 193.471051 352.149073 196.082873L343.404191 199.30956C343.075469 199.430856 342.857143 199.744453 342.857143 200.095029 342.857143 200.445606 343.075469 200.759202 343.404191 200.880499L352.14858 204.107186C359.227677 206.718515 364.808059 212.301117 367.418611 219.384149zM253.132897 82.9781786L256.358016 91.7268198C256.479253 92.0561944 256.792697 92.2746269 257.143104 92.2746269 257.49351 92.2746269 257.806954 92.0561944 257.928191 91.7268198L261.15331 82.9781786C263.763863 75.8956399 269.344245 70.3125444 276.422848 67.7012157L285.167238 64.4745287C285.495959 64.3532321 285.714286 64.0396359 285.714286 63.6890592 285.714286 63.3384824 285.495959 63.0248863 285.167238 62.9035897L276.422356 59.6769026C269.343752 57.0650809 263.76337 51.4824784 261.15331 44.4004328L257.928191 35.6517916C257.806954 35.3229101 257.49351 35.1044776 257.143104 35.1044776 256.792697 35.1044776 256.479253 35.3229101 256.358016 35.6517916L253.132897 44.4004328C250.522345 51.4824784 244.942455 57.0650809 237.863359 59.6769026L229.118477 62.9035897C228.789755 63.0248863 228.571429 63.3384824 228.571429 63.6890592 228.571429 64.0396359 228.789755 64.3532321 229.118477 64.4745287L237.862866 67.7012157C244.941962 70.3125444 250.522345 75.8951469 253.132897 82.9781786zM24.5614684 155.193104L27.7865872 163.941745C27.9078249 164.27112 28.2212686 164.489552 28.571675 164.489552 28.9220814 164.489552 29.2355251 164.27112 29.3567628 163.941745L32.5818816 155.193104C35.192434 148.110565 40.7728162 142.52747 47.8514198 139.916141L56.5958092 136.689454C56.9245308 136.568157 57.1428571 136.254561 57.1428571 135.903985 57.1428571 135.553408 56.9245308 135.239812 56.5958092 135.118515L47.850927 131.891828C40.7723233 129.280006 35.1919411 123.697404 32.5818816 116.615358L29.3567628 107.866717C29.2355251 107.537835 28.9220814 107.319403 28.571675 107.319403 28.2212686 107.319403 27.9078249 107.537835 27.7865872 107.866717L24.5614684 116.615358C21.950916 123.697404 16.3710267 129.280006 9.29193018 131.891828L.547047974 135.118515C.218326354 135.239812 0 135.553408 0 135.903985 0 136.254561.218326354 136.568157.547047974 136.689454L9.29143734 139.916141C16.3705338 142.52747 21.950916 148.110072 24.5614684 155.193104z"/>
  </g>
</svg>
