<svg xmlns="http://www.w3.org/2000/svg" width="400" height="400" viewBox="0 0 400 400">
  <g fill="none" fill-rule="evenodd">
    <circle cx="72.727" cy="354.545" r="27.273" fill="#91DAE9"/>
    <circle cx="327.273" cy="354.545" r="27.273" fill="#91DAE9"/>
    <path fill="#56BACF" d="M272.727273,95.4545455 L272.727273,59.0909091 C272.727273,39.0090368 259.809614,22.7272727 240.909091,22.7272727 L159.090909,22.7272727 C140.190386,22.7272727 127.272727,39.0090368 127.272727,59.0909091 L127.272727,95.4545455 L159.090909,95.4545455 L159.090909,54.5454545 L240.909091,54.5454545 L240.909091,95.4545455 L272.727273,95.4545455 Z"/>
    <path fill="#91DAE9" d="M381.818182,109.73996 L381.818182,294.805494 C381.818182,315.245806 366.672494,331.818182 347.991855,331.818182 L52.0081448,331.818182 C33.3275056,331.818182 18.1818182,315.245806 18.1818182,294.805494 L18.1818182,109.73996 C18.1818182,89.2996485 33.3275056,72.7272727 52.0081448,72.7272727 L347.991855,72.7272727 C366.672494,72.7272727 381.818182,89.2996485 381.818182,109.73996 Z"/>
    <rect width="36.364" height="259.091" x="66.667" y="72.727" fill="#56BACF"/>
    <rect width="36.364" height="259.091" x="296.97" y="72.727" fill="#56BACF"/>
    <ellipse cx="311.364" cy="252.273" fill="#FCE6A4" rx="43.182" ry="34.091" transform="rotate(-161.875 311.364 252.273)"/>
    <polygon fill="#FCE6A4" points="18.182 181.818 18.182 225.207 105.303 277.273 122.727 242.562"/>
  </g>
</svg>
