<svg xmlns="http://www.w3.org/2000/svg" width="1200" height="900" viewBox="0 0 1200 900">
  <defs>
    <linearGradient id="image-a" x1="50%" x2="50%" y1="0%" y2="100%">
      <stop offset="0%" stop-color="#BBEDFF"/>
      <stop offset="100%" stop-color="#EAFCFF"/>
    </linearGradient>
  </defs>
  <g fill="none" fill-rule="evenodd">
    <polygon fill="url(#image-a)" points="0 900 1200 900 1200 0 0 0"/>
    <path fill="#FFF" fill-rule="nonzero" d="M1119.37209,166.07281 C1119.37209,194.376225 1095.85994,217.034483 1067.29404,217.034483 L869.519111,217.034483 C848.259436,217.034483 831,200.161542 831,179.349065 C831,158.525807 848.246212,141.652866 869.519111,141.652866 L891.228401,141.652866 C891.228401,141.614053 891.223993,141.562302 891.223993,141.521332 C891.223993,97.4468378 929.732084,62.4481527 975.184945,66.2884987 C1007.57476,69.0463892 1034.22319,91.372579 1042.7372,121.116394 C1050.05444,117.284673 1058.40536,115.106823 1067.28302,115.106823 C1096.05389,115.106823 1119.37209,137.924646 1119.37209,166.07281 L1119.37209,166.07281 Z" transform="matrix(-1 0 0 1 1950.372 0)"/>
    <path fill="#FFF" fill-rule="nonzero" d="M261,416.258253 C261,434.997957 245.426992,450 226.506691,450 L95.5126985,450 C81.4315926,450 70,438.828418 70,425.048468 C70,411.261379 81.4228337,400.089797 95.5126985,400.089797 L109.891601,400.089797 C109.891601,400.064099 109.888682,400.029835 109.888682,400.002709 C109.888682,370.820966 135.394081,347.64832 165.49927,350.191015 C186.952301,352.017016 204.602587,366.799196 210.241744,386.492589 C215.088237,383.955605 220.61937,382.51365 226.499393,382.51365 C245.555453,382.51365 261,397.621341 261,416.258253 L261,416.258253 Z" transform="matrix(-1 0 0 1 331 0)"/>
    <path fill="#FFF" fill-rule="nonzero" d="M356,154.356272 C356,168.598447 344.096025,180 329.633387,180 L229.501853,180 C218.738285,180 210,171.509598 210,161.036835 C210,150.558648 218.73159,142.068246 229.501853,142.068246 L240.493057,142.068246 C240.493057,142.048715 240.490825,142.022674 240.490825,142.002059 C240.490825,119.823934 259.987099,102.212723 282.999442,104.145171 C299.398094,105.532932 312.889935,116.767389 317.200495,131.734368 C320.905144,129.80626 325.133131,128.710374 329.627808,128.710374 C344.19422,128.710374 356,140.192219 356,154.356272 L356,154.356272 Z" transform="matrix(-1 0 0 1 566 0)"/>
    <path fill="#FFF" fill-rule="nonzero" d="M949.870801,446.226402 C949.870801,461.153545 937.398405,473.103448 922.245169,473.103448 L817.332302,473.103448 C806.054768,473.103448 796.899225,464.204705 796.899225,453.228262 C796.899225,442.246133 806.047753,433.34739 817.332302,433.34739 L828.848341,433.34739 C828.848341,433.32692 828.846002,433.299627 828.846002,433.27802 C828.846002,410.033252 849.273234,391.575041 873.384428,393.600429 C890.566124,395.054933 904.702208,406.829705 909.2186,422.516511 C913.100148,420.495672 917.530023,419.34708 922.239323,419.34708 C937.501289,419.34708 949.870801,431.381137 949.870801,446.226402 L949.870801,446.226402 Z" transform="matrix(-1 0 0 1 1746.77 0)"/>
    <g fill-rule="nonzero" transform="translate(368 236)">
      <g transform="translate(-.001 -.001)">
        <path fill="#1198C0" d="M375.962104,50.1456971 C374.911322,229.65351 229.65351,374.911322 50.1456971,375.962104 C105.555854,446.024604 196.274604,478.040228 283.383978,458.282416 C370.49726,438.520697 438.520697,370.49726 458.282416,283.383978 C478.040228,196.274604 446.024604,105.555854 375.962104,50.1456971 Z"/>
        <path fill="#18ADCE" d="M375.962104,50.1456971 C283.661322,-22.9871149 151.200385,-15.3386779 67.9308541,67.9308541 C-15.3386779,151.200385 -22.9871149,283.661322 50.1456971,375.962104 C229.65351,374.911322 374.911322,229.65351 375.962104,50.1456971 L375.962104,50.1456971 Z"/>
        <path fill="#72E1D9" d="M344.016791,96.0167911 C326.337104,104.016791 316.579291,94.5792911 304.016791,104.016791 C288.49726,115.696478 282.258978,145.938666 296.016791,168.016791 C305.755072,183.571478 323.21601,187.473822 342.930854,191.77851 C362.883978,150.844916 374.055854,106.196478 375.731635,60.6886661 C369.915228,75.9972601 358.610541,88.5910101 344.016791,96.0167911 Z"/>
        <path fill="#59C4BC" d="M378.489447 52.1300721C377.766791 55.0480411 376.833197 57.9074161 375.696478 60.6886661 374.024604 106.196478 362.848822 150.844916 342.899604 191.77851L344.016791 192.016791C371.458197 198.016791 382.098822 185.298041 408.016791 192.016791 419.579291 195.333197 430.426947 200.758978 440.016791 208.016791 451.130072 217.18476 459.344916 229.383978 463.657416 243.130072 463.833197 239.442572 464.016884 235.755072 464.016884 232.016791 464.079291 162.227728 432.65351 96.1378851 378.489447 52.1300721L378.489447 52.1300721zM224.016791 328.016791C239.856635 345.536322 244.016791 375.137885 232.016791 392.016791 222.258978 405.77851 208.899604 401.055854 200.016791 416.016791 193.298041 428.505072 193.298041 443.532416 200.016791 456.016791 201.251166 458.274604 202.723822 460.387885 204.411322 462.329291 213.571478 463.43476 222.790228 463.99726 232.016791 464.0168 316.618354 464.040228 394.516791 417.993354 435.290228 343.864447 420.739447 334.130072 398.008978 321.251166 376.016791 320.016791 353.477729 317.813666 330.868354 323.46601 312.016791 336.016791 288.419135 353.298041 283.77851 377.77851 272.016791 376.016791 263.696478 374.817572 259.137885 361.376166 256.016791 352.016791 248.87226 330.704291 252.74726 316.282416 252.680854 304.329291 242.911322 312.145697 232.704291 319.395697 222.106635 326.040228 222.930854 326.848822 223.610541 327.563666 224.016791 328.016791z"/>
        <path fill="#72E1D9" d="M248.016791,288.016791 C239.77851,276.49726 224.419135,274.337104 208.016791,272.016791 C173.618354,267.21601 160.098822,282.016791 144.016791,272.016791 C130.911322,263.290228 124.544135,247.380072 128.016791,232.016791 C134.739447,211.938666 164.098822,218.739447 200.016791,192.016791 C211.618354,183.458197 239.21601,162.899604 240.016791,136.016791 C240.817572,109.696478 215.137885,102.176947 208.016791,72.0167911 C204.923041,59.0246041 210.696478,29.1456971 225.329291,0.258978051 C139.208197,2.69257205 61.5363221,52.6652281 23.6183541,130.024604 L23.6183541,130.098822 C18.4855411,158.520697 18.6222601,187.645697 24.0167911,216.016791 C28.8996041,248.258978 33.3761661,277.536322 56.0167911,304.016791 C65.9386661,315.696478 81.2160101,333.458197 104.016791,336.016791 C129.298041,338.817572 162.657416,322.657416 168.016791,320.016791 C175.18476,315.30976 183.458197,312.551947 192.016791,312.016791 C203.454291,312.74726 214.196478,317.751166 222.106635,326.040228 C232.704291,319.395697 242.911322,312.145697 252.680854,304.329291 C252.950385,298.52851 251.313666,292.798041 248.016791,288.016791 Z"/>
      </g>
      <g transform="translate(62)">
        <path fill="#EFC75E" d="M79.984375,40.6365489 C79.984375,62.5439878 40.484375,114.984375 40.484375,114.984375 C40.484375,114.984375 15.8475035,82.2708476 5.47827148,57.7375173 C2.92514023,52.3695652 1.40145859,46.568402 0.984375,40.6365489 C0.984375,18.7387908 18.6706543,0.984375 40.484375,0.984375 C62.3005064,0.984375 79.984375,18.7387908 79.984375,40.6365489 Z"/>
        <path fill="#F1F2F2" d="M55.984375,35.984375 C55.984375,44.2680663 49.2680663,50.984375 40.984375,50.984375 C32.7006837,50.984375 25.984375,44.2680663 25.984375,35.984375 C25.984375,27.7006837 32.7006837,20.984375 40.984375,20.984375 C49.2680663,20.984375 55.984375,27.7006837 55.984375,35.984375 Z"/>
      </g>
      <g transform="translate(288 168)">
        <path fill="#EFC75E" d="M79.984375,40.6365489 C78.8994748,49.9324472 75.888275,58.8967814 71.1460568,66.9559699 C62.0859375,83.6818108 51.8396603,99.7324222 40.484375,114.984375 C40.484375,114.984375 27.5475467,97.7865996 16.4381717,78.9503653 C12.3444824,72.1182065 8.68234237,65.0319293 5.47827148,57.7375173 C2.92514023,52.3695652 1.40145859,46.568402 0.984375,40.6365489 C0.984375,18.7387908 18.6706543,0.984375 40.484375,0.984375 C62.3005064,0.984375 79.984375,18.7387908 79.984375,40.6365489 L79.984375,40.6365489 Z"/>
        <path fill="#F1F2F2" d="M55.984375,35.984375 C55.984375,44.2680663 49.2680663,50.984375 40.984375,50.984375 C32.7006837,50.984375 25.984375,44.2680663 25.984375,35.984375 C25.984375,27.7006837 32.7006837,20.984375 40.984375,20.984375 C49.2680663,20.984375 55.984375,27.7006837 55.984375,35.984375 Z"/>
      </g>
    </g>
    <g fill-rule="nonzero" transform="scale(-1 1) rotate(-50 -250.02 988.025)">
      <path fill="#097992" d="M166.780744,173.528218 L166.751518,173.511364 C161.368176,176.199782 155.008381,176.012845 149.81531,173.01355 L7.54224688,90.969999 C1.08577913,87.2467899 -1.11189457,78.9757228 2.63360347,72.496047 L43.3245981,2.10113023 C44.2609737,0.481211878 46.3285569,-0.0774279117 47.9426744,0.853373331 L57.1781484,6.1791259 C58.6003526,7.00334045 59.2259482,8.73048714 58.6643104,10.2821279 L39.5782178,62.5139942 L160.574617,132.288094 C168.292225,136.741746 173.912886,144.090995 176.199113,152.717777 C178.403202,160.994731 174.461913,169.703242 166.780744,173.528218 Z"/>
      <path fill="#F0DFB2" d="M39.8453836,61.9389494 L27.9012586,55.1350934 C26.2521197,54.1956757 25.6656425,52.1517287 26.5913244,50.5698086 C27.5170084,48.9878897 29.6043145,48.467038 31.2534539,49.4064546 L42.1524675,55.6149742 L39.8453836,61.9389494 Z"/>
      <path fill="#0C9AC5" d="M68.6637621 109.674061L38.2711212 162.226946C36.4060798 165.451853 37.5226485 169.581156 40.765048 171.450004L48.7993564 176.080795C51.0637899 177.386477 53.87577 177.280346 56.0256335 175.808058L112.905766 136.848056C113.86067 136.194117 114.411472 135.097424 114.365359 133.941883 114.319247 132.786342 113.682642 131.732888 112.678393 131.150291L73.287685 108.446379C71.7288386 107.547895 69.7548658 108.021522 68.7763194 109.492749L68.6637621 109.674061zM83.3835819 88.8464167L110.172728 42.3661944C112.029286 39.1668393 116.086234 38.0523078 119.253719 39.8714497L127.107049 44.4133653C129.317581 45.6860821 130.584637 48.1401655 130.357422 50.708858L125.143737 112.998254 83.3835819 88.8464167z"/>
      <path fill="#D7ECF0" d="M36.9823543 84.2068101L30.8966807 80.7598901C29.2161693 79.808048 28.5879475 77.7890429 29.4935076 76.2503147 30.3990697 74.7115875 32.4954965 74.2358216 34.1760086 75.1876626L40.2616822 78.6345826C41.9421935 79.5864247 42.5704155 81.6054298 41.6648553 83.1441581 40.7592932 84.6828852 38.6628663 85.158651 36.9823543 84.2068101zM55.2004176 95.0281857L49.114744 91.5812657C47.4342327 90.6294237 46.8060107 88.6104185 47.7115709 87.0716902 48.617133 85.5329631 50.7135599 85.0571973 52.3940719 86.0090382L58.4797455 89.4559582C60.1602568 90.4078002 60.7884788 92.4268054 59.8829186 93.9655336 58.9773565 95.5042608 56.8809296 95.9800266 55.2004176 95.0281857zM90.350969 115.138848L84.2652954 111.691928C82.584784 110.740086 81.9565621 108.721081 82.8621223 107.182353 83.7676844 105.643625 85.8641113 105.16786 87.5446233 106.1197L93.6302969 109.56662C95.3108082 110.518463 95.9390301 112.537468 95.03347 114.076196 94.1279079 115.614923 92.031481 116.090689 90.350969 115.138848zM107.1602 125.836967L101.074527 122.390047C99.3940153 121.438205 98.7657933 119.4192 99.6713535 117.880471 100.576916 116.341744 102.673343 115.865978 104.353855 116.817819L110.439528 120.264739C112.120039 121.216581 112.748261 123.235586 111.842701 124.774315 110.937139 126.313042 108.840712 126.788808 107.1602 125.836967zM143.076796 145.304841L136.991122 141.857921C135.310611 140.906079 134.682389 138.887074 135.587949 137.348346 136.493511 135.809619 138.589938 135.333853 140.27045 136.285694L146.356124 139.732614C148.036635 140.684456 148.664857 142.703461 147.759297 144.242189 146.853735 145.780917 144.757308 146.256682 143.076796 145.304841zM175.433039 163.927335L155.446578 152.194281C153.858346 151.261908 153.309532 149.205105 154.220766 147.600281 155.132002 145.995459 157.158222 145.45033 158.746454 146.382702L176.777405 156.967775C176.819487 159.176728 176.432209 161.368278 175.639617 163.417946L175.433039 163.927335z"/>
    </g>
    <g fill-rule="nonzero" transform="translate(722 378)">
      <path fill="#7E869A" d="M322,258 L322,317.661303 C322,320.058117 320.066662,322 317.681955,322 L262.385126,322 L71.6155727,322 L16.318045,322 C13.9326396,322 12,320.057415 12,317.661303 L12,258 L322,258 Z"/>
      <rect width="310" height="19" x="12" y="258" fill="#595F6C"/>
      <path fill="#1A81A1" d="M262.427972,262 L329.679968,262 C332.066471,262 334,260.07041 334,257.690326 L334,147.309674 C334,144.928893 332.065772,143 329.679968,143 L262.427972,143 L71.5720277,143 L4.32003215,143 C1.93352895,143 0,144.92959 0,147.309674 L0,257.689629 C0,260.07041 1.93422799,262 4.32003215,262 L71.5720277,262 L262.427972,262 L262.427972,262 Z"/>
      <rect width="179" height="30" x="78" y="20" fill="#7E869A"/>
      <rect width="14" height="30" x="242" y="20" fill="#595F6C"/>
      <path fill="#1A81A1" d="M258.676039,47 L76.3232612,47 C73.9349742,47 72,48.9387563 72,51.3301459 L72,322 L263,322 L263,51.3301459 C263,48.9380556 261.064326,47 258.676039,47 Z"/>
      <path fill="#A9AEBA" d="M269,4.34573689 L269,19.6542631 C269,22.0549663 267.063721,24 264.675387,24 L70.3246131,24 C67.9355793,24 66,22.0542631 66,19.6542631 L66,4.34573689 C66,1.94503369 67.9362791,0 70.3246131,0 L264.675387,0 C267.063021,0 269,1.94573689 269,4.34573689 Z"/>
      <path fill="#7E869A" d="M264.615548,0 L250,0 C252.42209,0 254.384452,1.94573689 254.384452,4.34573689 L254.384452,19.6542631 C254.384452,22.0549663 252.421381,24 250,24 L264.615548,24 C267.037639,24 269,22.0542631 269,19.6542631 L269,4.34573689 C269,1.94573689 267.03622,0 264.615548,0 Z"/>
      <path fill="#056F90" d="M4.37819733,4.47049938 L4.37819733,275.118923 L18.8813013,275.118923 L18.8813013,4.47049938 C18.8813013,2.07859846 16.9333333,0.140696308 14.5305813,0.140696308 L0.0274773333,0.140696308 C2.43022933,0.140696308 4.37819733,2.07859846 4.37819733,4.47049938 Z" transform="translate(244 47)"/>
      <rect width="72" height="81" x="131" y="241" fill="#D7ECF0"/>
      <path fill="#005A76" d="M5.917824.0566178462C2.91456.0566178462.479424 2.44423385.479424 5.39043323L.479424 11.2821415C.479424 14.2276505 2.91456 16.6159569 5.917824 16.6159569 8.921088 16.6159569 11.356224 14.2276505 11.356224 11.2821415L11.356224 5.39043323C11.356224 2.44423385 8.921088.0566178462 5.917824.0566178462zM41.955584.0566178462C38.95232.0566178462 36.517184 2.44423385 36.517184 5.39043323L36.517184 11.2821415C36.517184 14.2276505 38.95232 16.6159569 41.955584 16.6159569 44.958848 16.6159569 47.3939842 14.2276505 47.3939842 11.2821415L47.3939842 5.39043323C47.394688 2.44423385 44.960256.0566178462 41.955584.0566178462z" transform="translate(143 281)"/>
      <rect width="11" height="81" x="161" y="241" fill="#B0DFE9"/>
      <path fill="#D7ECF0" d="M91.1750911 119.639345L75.9740052 119.639345C73.5899319 119.639345 71.6583716 117.706716 71.6583716 115.322883L71.6583716 100.118878C71.6583716 97.7343466 73.5906302 95.8024154 75.9740052 95.8024154L91.1750911 95.8024154C93.5591644 95.8024154 95.4907246 97.735045 95.4907246 100.118878L95.4907246 115.322883C95.4907246 117.706716 93.5584661 119.639345 91.1750911 119.639345zM210.33965 119.639345L195.137865 119.639345C192.753792 119.639345 190.822232 117.706716 190.822232 115.322883L190.822232 100.118878C190.822232 97.7343466 192.75449 95.8024154 195.137865 95.8024154L210.338951 95.8024154C212.723025 95.8024154 214.654585 97.735045 214.654585 100.118878L214.654585 115.322883C214.655283 117.706716 212.722326 119.639345 210.33965 119.639345zM150.571617 119.639345L135.370531 119.639345C132.986457 119.639345 131.054897 117.706716 131.054897 115.322883L131.054897 100.118878C131.054897 97.7343466 132.987156 95.8024154 135.370531 95.8024154L150.571617 95.8024154C152.95569 95.8024154 154.88725 97.735045 154.88725 100.118878L154.88725 115.322883C154.88725 117.706716 152.954991 119.639345 150.571617 119.639345zM91.1750911 71.9640884L75.9740052 71.9640884C73.5899319 71.9640884 71.6583716 70.0314588 71.6583716 67.6476261L71.6583716 52.4436208C71.6583716 50.0590896 73.5906302 48.1271584 75.9740052 48.1271584L91.1750911 48.1271584C93.5591644 48.1271584 95.4907246 50.0597881 95.4907246 52.4436208L95.4907246 67.6476261C95.4907246 70.0314588 93.5584661 71.9640884 91.1750911 71.9640884zM210.33965 71.9640884L195.137865 71.9640884C192.753792 71.9640884 190.822232 70.0314588 190.822232 67.6476261L190.822232 52.4436208C190.822232 50.0590896 192.75449 48.1271584 195.137865 48.1271584L210.338951 48.1271584C212.723025 48.1271584 214.654585 50.0597881 214.654585 52.4436208L214.654585 67.6476261C214.655283 70.0314588 212.722326 71.9640884 210.33965 71.9640884zM150.571617 71.9640884L135.370531 71.9640884C132.986457 71.9640884 131.054897 70.0314588 131.054897 67.6476261L131.054897 52.4436208C131.054897 50.0590896 132.987156 48.1271584 135.370531 48.1271584L150.571617 48.1271584C152.95569 48.1271584 154.88725 50.0597881 154.88725 52.4436208L154.88725 67.6476261C154.88725 70.0314588 152.954991 71.9640884 150.571617 71.9640884zM91.1750911 24.28953L75.9740052 24.28953C73.5899319 24.28953 71.6583716 22.3569003 71.6583716 19.9730676L71.6583716 4.7690623C71.6583716 2.38453115 73.5906302.452599937 75.9740052.452599937L91.1750911.452599937C93.5591644.452599937 95.4907246 2.38522961 95.4907246 4.7690623L95.4907246 19.9730676C95.4907246 22.3569003 93.5584661 24.28953 91.1750911 24.28953zM210.33965 24.28953L195.137865 24.28953C192.753792 24.28953 190.822232 22.3569003 190.822232 19.9730676L190.822232 4.7690623C190.822232 2.38453115 192.75449.452599937 195.137865.452599937L210.338951.452599937C212.723025.452599937 214.654585 2.38522961 214.654585 4.7690623L214.654585 19.9730676C214.655283 22.3569003 212.722326 24.28953 210.33965 24.28953zM150.571617 24.28953L135.370531 24.28953C132.986457 24.28953 131.054897 22.3569003 131.054897 19.9730676L131.054897 4.7690623C131.054897 2.38453115 132.987156.452599937 135.370531.452599937L150.571617.452599937C152.95569.452599937 154.88725 2.38522961 154.88725 4.7690623L154.88725 19.9730676C154.88725 22.3569003 152.954991 24.28953 150.571617 24.28953zM19.6766354 119.639345L4.4748511 119.639345C2.09077781 119.639345.159217548 117.706716.159217548 115.322883L.159217548 100.118878C.159217548 97.7343466 2.09147613 95.8024154 4.4748511 95.8024154L19.6766354 95.8024154C22.0607086 95.8024154 23.9922689 97.735045 23.9922689 100.118878L23.9922689 115.322883C23.9922689 117.706716 22.0600103 119.639345 19.6766354 119.639345zM281.838804 119.639345L266.637718 119.639345C264.253644 119.639345 262.322084 117.706716 262.322084 115.322883L262.322084 100.118878C262.322084 97.7343466 264.254343 95.8024154 266.637718 95.8024154L281.838804 95.8024154C284.222877 95.8024154 286.154437 97.735045 286.154437 100.118878L286.154437 115.322883C286.154437 117.706716 284.22148 119.639345 281.838804 119.639345zM19.6766354 167.313904L4.4748511 167.313904C2.09077781 167.313904.159217548 165.381274.159217548 162.997442L.159217548 147.793436C.159217548 145.408905 2.09147613 143.476974 4.4748511 143.476974L19.6766354 143.476974C22.0607086 143.476974 23.9922689 145.409604 23.9922689 147.793436L23.9922689 162.997442C23.9922689 165.381973 22.0600103 167.313904 19.6766354 167.313904zM281.838804 167.313904L266.637718 167.313904C264.253644 167.313904 262.322084 165.381274 262.322084 162.997442L262.322084 147.793436C262.322084 145.408905 264.254343 143.476974 266.637718 143.476974L281.838804 143.476974C284.222877 143.476974 286.154437 145.409604 286.154437 147.793436L286.154437 162.997442C286.154437 165.381973 284.22148 167.313904 281.838804 167.313904z" transform="translate(24 71)"/>
      <path fill="#A9AEBA" d="M124.300658,227 L210.699342,227 C213.075142,227 215,228.945794 215,231.345864 L215,246.654136 C215,249.054909 213.074447,251 210.699342,251 L124.300658,251 C121.924858,251 120,249.054206 120,246.654136 L120,231.345864 C120,228.945091 121.924858,227 124.300658,227 Z"/>
      <path fill="#7E869A" d="M210.615548,227 L196,227 C198.42209,227 200.384452,228.945737 200.384452,231.345737 L200.384452,246.654263 C200.384452,249.054966 198.421381,251 196,251 L210.615548,251 C213.037638,251 215,249.054263 215,246.654263 L215,231.345737 C215.000709,228.945034 213.037638,227 210.615548,227 Z"/>
      <rect width="14" height="119" x="263" y="143" fill="#056F90"/>
    </g>
    <g transform="translate(163 359)">
      <g fill="#C3CACA" transform="translate(65.86 18.234)">
        <rect width="13.869" height="78.886" x=".217" y=".392"/>
        <rect width="13.869" height="78.886" x="55.692" y=".392"/>
      </g>
      <g fill="#21958F" transform="translate(65.86 21.272)">
        <rect width="13.869" height="21.005" x=".217" y=".383"/>
        <rect width="13.869" height="21.005" x="55.692" y=".383"/>
      </g>
      <path fill="#29B0A9" d="M59.5106276 0L138.858381 0C146.164627 0 152.082882 6.16139107 152.082882 13.7677964L152.082882 13.7677964C152.082882 21.3742017 146.164627 27.5355928 138.858381 27.5355928L59.5106276 27.5355928C52.2043813 27.5355928 46.2861269 21.3742017 46.2861269 13.7677964L46.2861269 13.7677964C46.2861269 6.16139107 52.2043813 0 59.5106276 0zM26.4490014 89.4918463L171.920007 89.4918463C186.526507 89.4918463 198.369008 101.820867 198.369008 117.027439L198.369008 337.314521C198.369008 352.521093 186.526507 364.850114 171.920007 364.850114L26.4490014 364.850114C11.842501 364.850114 0 352.521093 0 337.314521L0 117.027439C0 101.820867 11.842501 89.4918463 26.4490014 89.4918463z"/>
      <ellipse cx="15.819" cy="15.962" fill="#29B0A9" rx="15.819" ry="15.962" transform="translate(6.08 363.657)"/>
      <g fill="#21958F" transform="translate(27.357 122.57)">
        <rect width="13.578" height="198.227" x="40.84" y=".695"/>
        <rect width="13.578" height="198.227" x=".106" y=".695"/>
        <rect width="13.578" height="198.227" x="81.575" y=".695"/>
        <rect width="13.578" height="198.227" x="122.308" y=".695"/>
      </g>
      <ellipse cx="176.302" cy="379.865" fill="#279C96" rx="16.212" ry="16.208"/>
      <polygon fill="#F0DFB2" points="58.767 185.262 0 212.724 0 171.53 45.708 150.933"/>
      <g transform="translate(135 138)">
        <path fill="#22657A" d="M207.711767,56.7264861 L207.711767,28.3632431 C207.711767,12.6995999 195.435994,0 180.295097,0 L118.607202,0 C103.466305,0 91.190532,12.6995999 91.190532,28.3632431 L91.190532,56.7264861 L118.607202,56.7264861 L118.607202,28.3632431 L180.295097,28.3632431 L180.295097,56.7264861 L207.711767,56.7264861 Z"/>
        <path fill="#1A81A1" d="M298.902299,83.3918912 L298.902299,226.655674 C298.902299,242.479023 286.452827,255.308106 271.097691,255.308106 L27.8046087,255.308106 C12.4494722,255.308106 0,242.479023 0,226.655674 L0,83.3918912 C0,67.5685429 12.4494722,54.7394591 27.8046087,54.7394591 L271.097691,54.7394591 C286.452827,54.7394591 298.902299,67.5685429 298.902299,83.3918912 Z"/>
        <g fill="#1A81A1" transform="translate(11.146 253.282)">
          <ellipse cx="16.212" cy="16.208" rx="16.212" ry="16.208"/>
          <ellipse cx="265.466" cy="16.208" rx="16.212" ry="16.208"/>
        </g>
        <g fill="#22657A" transform="translate(36.476 54.74)">
          <rect width="27.825" height="200.637"/>
          <rect width="27.825" height="200.637" x="202.646"/>
        </g>
        <polygon fill="#F0DFB2" points="106.389 137.803 140.839 88.168 175.288 137.803"/>
        <ellipse cx="237.426" cy="185.868" fill="#F0DFB2" rx="34.734" ry="28.652" transform="rotate(-161.875 237.426 185.868)"/>
        <polygon fill="#F0DFB2" points="0 118.557 0 156.313 70.082 201.621 84.098 171.416"/>
      </g>
    </g>
  </g>
</svg>
