<svg xmlns="http://www.w3.org/2000/svg" width="400" height="400" viewBox="0 0 400 400">
  <g fill="none" fill-rule="evenodd">
    <circle cx="200" cy="200" r="200" fill="#E6F8FC"/>
    <g transform="matrix(-1 0 0 1 315 100)">
      <path fill="#037092" d="M216.288945,12.378777 L202.238281,12.378777 L202.238281,4.54476928 C202.238281,2.05757539 200.22668,0.0414307148 197.746094,0.0414307148 L171.539121,0.0414307148 C169.058535,0.0414307148 167.046934,2.05757539 167.046934,4.54476928 L167.046934,12.378777 L132.595898,12.378777 L132.595898,4.54476928 C132.595898,2.05757539 130.584746,0.0414307148 128.103711,0.0414307148 L101.896738,0.0414307148 C99.4157031,0.0414307148 97.4045508,2.05757539 97.4045508,4.54476928 L97.4045508,12.378777 L67.4457031,12.378777 L67.4457031,4.54476928 C67.4457031,2.05757539 65.4345508,0.0414307148 62.9535156,0.0414307148 L36.7460938,0.0414307148 C34.2650586,0.0414307148 32.2539062,2.05757539 32.2539062,4.54476928 L32.2539062,12.378777 L13.7110547,12.378777 C6.15070312,12.378777 0,18.5447482 0,26.123867 L0,184.539159 C0,193.01264 6.88697266,199.906801 15.3520508,199.906801 L211.70332,199.906801 C221.792324,199.906801 230,191.678301 230,181.564703 L230,26.123867 C230,18.5447482 223.849297,12.378777 216.288945,12.378777 Z M191.33724,10.9663787 L191.33724,23.1306492 L177.947975,23.1306492 L177.947975,10.9663787 L191.33724,10.9663787 Z M121.694857,10.9663787 L121.694857,23.1306492 L108.305592,23.1306492 L108.305592,10.9663787 L121.694857,10.9663787 Z M56.5442122,10.9663787 L56.5442122,23.1306492 L43.1549479,23.1306492 L43.1549479,10.9663787 L56.5442122,10.9663787 Z M30.3372396,23.303725 L30.3372396,29.5518083 C30.3372396,31.3247748 31.0543055,32.9297007 32.2132112,34.0914831 C33.3732554,35.2544069 34.975929,35.9734177 36.7460937,35.9734177 L36.7460937,35.9734177 L62.9530664,35.9734177 C64.7232312,35.9734177 66.3259048,35.2544069 67.485949,34.0914831 C68.6448547,32.9297007 69.3619206,31.3247748 69.3619206,29.5518083 L69.3619206,29.5518083 L69.3619206,23.303725 L95.4874349,23.303725 L95.4874349,29.5518083 C95.4874349,31.3247748 96.2045008,32.9297007 97.3634065,34.0914831 C98.5234507,35.2544069 100.126124,35.9734177 101.896289,35.9734177 L101.896289,35.9734177 L128.103262,35.9734177 C129.873426,35.9734177 131.4761,35.2544069 132.636144,34.0914831 C133.79505,32.9297007 134.512116,31.3247748 134.512116,29.5518083 L134.512116,29.5518083 L134.512116,23.303725 L165.129818,23.303725 L165.129818,29.5518083 C165.129818,31.3247008 165.846942,32.9295904 167.005847,34.0913724 C168.16599,35.2543954 169.768754,35.9734177 171.538672,35.9734177 L171.538672,35.9734177 L197.746094,35.9734177 C199.516012,35.9734177 201.118775,35.2543954 202.278918,34.0913724 C203.437824,32.9295904 204.154948,31.3247008 204.154948,29.5518083 L204.154948,29.5518083 L204.154948,23.303725 L216.288945,23.303725 C217.06333,23.303725 217.7649,23.6205201 218.273272,24.1301545 C218.782784,24.6409315 219.098958,25.3459714 219.098958,26.123867 L219.098958,26.123867 L219.098958,43.1614991 L10.9010417,43.1614991 L10.9010417,26.123867 C10.9010417,25.3459714 11.2172156,24.6409315 11.7267278,24.1301545 C12.2351003,23.6205201 12.93667,23.303725 13.7110547,23.303725 L13.7110547,23.303725 L30.3372396,23.303725 Z M219.098958,54.0864471 L219.098958,181.564703 C219.098958,183.610009 218.268474,185.464255 216.928647,186.807408 C215.589898,188.149479 213.741894,188.981853 211.70332,188.981853 L15.3520508,188.981853 C14.1244837,188.981853 13.0116384,188.482536 12.2054955,187.677243 C11.4006988,186.873294 10.9010417,185.763646 10.9010417,184.539159 L10.9010417,54.0864471 L219.098958,54.0864471 Z"/>
      <path fill="#5CD999" d="M82.4166667,143.870314 L82.4166667,170.726106 L51.75,170.726106 L51.75,143.870314 L82.4166667,143.870314 Z M130.333333,143.870314 L130.333333,170.726106 L99.6666667,170.726106 L99.6666667,143.870314 L130.333333,143.870314 Z M178.25,143.870314 L178.25,170.726106 L147.583333,170.726106 L147.583333,143.870314 L178.25,143.870314 Z M82.4166667,107.423168 L82.4166667,134.27896 L51.75,134.27896 L51.75,107.423168 L82.4166667,107.423168 Z M130.333333,107.423168 L130.333333,134.27896 L99.6666667,134.27896 L99.6666667,107.423168 L130.333333,107.423168 Z M178.25,107.423168 L178.25,134.27896 L147.583333,134.27896 L147.583333,107.423168 L178.25,107.423168 Z M82.4166667,70.9760216 L82.4166667,97.8318136 L51.75,97.8318136 L51.75,70.9760216 L82.4166667,70.9760216 Z M130.333333,70.9760216 L130.333333,97.8318136 L99.6666667,97.8318136 L99.6666667,70.9760216 L130.333333,70.9760216 Z M178.25,70.9760216 L178.25,97.8318136 L147.583333,97.8318136 L147.583333,70.9760216 L178.25,70.9760216 Z"/>
    </g>
    <g transform="translate(235 69)">
      <path fill="#E6F8FC" d="M56.7638536,1 L56.901195,7.44602014 C30.3332656,8.02358354 8.86477121,29.6409567 8.0254627,56.6600947 C7.62615531,69.4928316 11.9346057,81.8923959 20.1547424,91.5691614 C25.6229645,98.0022894 27.255801,107.021561 24.4199556,115.10487 L23.7535955,117 L29.6287551,112.531619 C34.9494624,108.486097 41.7758383,106.928738 48.352965,108.241148 C52.8852309,109.148747 57.5395781,109.406588 62.1913819,109.019827 C87.3808107,106.897797 107.05878,85.9069773 107.966759,60.1925137 C108.465258,45.9829069 103.342933,32.6061259 93.5408265,22.5245504 C83.7895876,12.4971215 70.8260862,7.11598391 56.901195,7.44602014 L56.7638536,1 Z"/>
      <path fill="#037092" d="M56.764974,1.78995166 L56.9023154,8.12483352 C30.334386,8.69243893 8.86589166,29.9370987 8.02658315,56.4903895 C7.62727576,69.1018723 11.9357261,81.2876511 20.1558628,90.7975757 C25.6240849,97.1197878 27.2569215,105.983555 24.4210761,113.927496 L23.754716,115.789952 L29.6298755,111.398612 C34.9505828,107.42284 41.7769587,105.892332 48.3540854,107.182114 C52.8863514,108.074066 57.5406986,108.327461 62.1925024,107.947368 C87.3819312,105.861925 107.059901,85.2330155 107.96788,59.9619048 C108.466378,45.9972912 103.344053,32.8511444 93.541947,22.9433892 C83.7907081,13.0888469 70.8272066,7.80048757 56.9023154,8.12483352 L56.764974,1.78995166 Z M21.1298105,128 C19.2175676,128 17.3053247,127.397979 15.6659234,126.193938 C12.3565436,123.759987 11.0581942,119.524676 12.4365144,115.651519 L15.8658504,106.019187 C17.0771728,102.61871 16.397421,98.8443221 14.0923804,96.1681516 C4.56409509,85.1036682 -0.431727647,70.9397186 0.0292804773,56.286627 C1.00304254,25.3930844 25.9092417,0.67495804 56.7309277,0.011794532 C72.7932975,-0.30567736 87.931299,5.79448626 99.2448147,17.2681556 C110.605372,28.7912095 116.542028,44.0721899 115.961063,60.2961794 C114.912035,89.6987799 92.0803721,113.702007 62.8510458,116.126551 C57.4600732,116.573364 52.0643965,116.274705 46.8027884,115.235278 C43.9732335,114.675587 41.073116,115.329344 38.8221733,117.017824 L26.6642601,126.142202 C25.0130983,127.381518 23.0726304,128 21.1298105,128 L21.1298105,128 Z"/>
      <path fill="#5CD999" d="M55.5042581,29 C60.0186733,29 63.7572467,30.33576 66.4035472,32.46684 C69.3428393,34.8292 71,38.1686 71,41.96584 C71,48.87828 65.1237597,54.02072 63.1923588,55.57832 C60.5718416,57.70704 60.5999687,59.21744 60.5999687,61.76388 C60.5999687,63.15864 60.1335261,64.62892 58.6966951,65.66496 C57.8739745,66.25968 56.6223142,66.76 54.6370029,66.76 C52.389171,66.76 51.0625049,66.09212 50.1741542,64.96404 C49.4217517,64.01296 48.9248379,62.53796 48.9248379,60.093 C48.9248379,53.54636 51.7399016,50.44532 53.8752246,48.53372 C54.2736933,48.18444 54.7213845,47.82572 55.1878272,47.45284 C56.5660598,46.35544 58.5818423,45.17544 58.5818423,43.06088 C58.5818423,42.49212 58.3849519,42.04372 58.0052348,41.74636 C57.3395578,41.22244 56.3644816,41.0478 55.3190874,41.0478 C52.9118681,41.0478 52.1899367,42.13104 51.5875459,43.0538 C50.4413626,44.80728 49.3279944,45.99908 47.0215642,45.99908 C45.5519181,45.99908 43.9111649,45.42088 42.7274787,44.25268 C41.7195875,43.26148 41,41.85492 41,39.974 C41,37.45824 42.4133917,34.16368 45.7534964,31.80604 C48.043519,30.18708 51.2617392,29 55.5042581,29 M65.3769044,78.56 C65.3769044,83.5868 61.2093914,88 55.9402297,88 C50.6687241,88 46.6254395,83.5868 46.6254395,78.56 C46.6254395,73.41048 50.7906086,69.12 55.9402297,69.12 C61.0851629,69.12 65.3769044,73.41048 65.3769044,78.56"/>
    </g>
  </g>
</svg>
