<svg xmlns="http://www.w3.org/2000/svg" width="400" height="400" viewBox="0 0 400 400">
  <g fill="none" fill-rule="evenodd">
    <circle cx="201" cy="200" r="200" fill="#E6F8FC"/>
    <path fill="#FA5454" d="M200.499268,102.700353 C185.620597,85.123341 162.824873,74 139.075183,74 L139.075183,74 C97.0318514,74 64,107.234141 64,149.530013 L64,149.530013 C64,201.442835 110.409342,243.738707 180.707372,307.872154 L180.707372,307.872154 L200.499268,326 L220.292628,308.009497 C290.590658,243.738707 337,201.442835 337,149.530013 L337,149.530013 C337,107.234141 303.966685,74 261.924817,74 L261.924817,74 C238.173663,74 215.37794,85.123341 200.499268,102.700353 L200.499268,102.700353 Z"/>
    <g transform="translate(34 101)">
      <path fill="#E6F8FC" d="M38.1702711,8.00863178 C54.376708,8.35653516 67.4724896,21.3780615 67.9844678,37.6534162 C68.2231737,45.2287947 65.703868,52.5535785 60.8835969,58.3296864 L60.5856072,58.6813795 C57.2499917,62.556464 56.2539614,67.9893479 57.9838271,72.8584421 L58.3903067,74 L54.8064594,71.3084083 C51.6562877,68.9432044 47.6408906,67.9899136 43.7390629,68.6587092 L43.3846914,68.7239832 C40.6200091,69.2706885 37.7808574,69.4260025 34.943257,69.1930315 C19.5777055,67.9147972 7.57414405,55.270684 7.02027674,39.7812181 C6.71619272,31.2218632 9.84081114,23.1641725 15.8200958,17.0913949 C21.7683516,11.0512332 29.6760874,7.80982985 38.1702711,8.00863178 Z"/>
      <path fill="#037092" d="M38.6650311,7.72407088 C54.7625199,8.06976249 67.7702648,21.0085058 68.2788012,37.1803918 C68.5159024,44.7076106 66.0135329,51.9858278 61.2256661,57.7252147 L60.9296796,58.0746721 C57.6164879,61.9251211 56.6271534,67.3234661 58.34539,72.1616054 L58.7491371,73.295906 L55.1893823,70.6214258 C52.0603877,68.2712584 48.0719841,67.3240281 44.1963866,67.9885719 L43.8443973,68.0534309 C41.0983007,68.5966606 38.2782352,68.7509872 35.4597107,68.5194973 C20.1974544,67.2493893 8.27458716,54.6856596 7.72444323,39.2946664 C7.42240342,30.7897267 10.5260165,22.7832619 16.4651054,16.7490913 C22.3733738,10.7473293 30.2279498,7.52653281 38.6650311,7.72407088 Z M62.1563311,84 C63.4091798,84 64.6620286,83.6049239 65.7361192,82.8147716 C67.9043335,81.2174911 68.7549762,78.4380688 67.8519388,75.8963095 L65.6051325,69.5750914 C64.8115075,67.3435285 65.2568621,64.8665864 66.7670611,63.1103495 C73.0097308,55.8492823 76.282856,46.5541903 75.9808162,36.938099 C75.3428342,16.6642116 59.0249796,0.442941214 38.8314612,0.00774016161 C28.3078396,-0.200600768 18.3898386,3.80263161 10.9775352,11.3322271 C3.53441143,18.8942312 -0.355121575,28.9223746 0.0255102207,39.5693677 C0.71280488,58.8648243 15.6714804,74.6169418 34.8217286,76.2080492 C38.3537451,76.5012698 41.8888437,76.305275 45.3361041,75.6231514 C47.1899505,75.255854 49.0900274,75.684882 50.564783,76.7929471 L58.5303124,82.7808197 C59.5399883,83.5399009 60.7147793,83.944072 61.9018309,83.9945878 L62.1563311,84 Z"/>
      <path fill="#5CD999" d="M37.1860302,20 C40.0451598,20 42.4129229,20.86032 44.0889132,22.23288 C45.9504649,23.7544 47,25.9052 47,28.35088 C47,32.80296 43.2783811,36.11504 42.0551606,37.11824 C40.3954996,38.48928 40.4133135,39.46208 40.4133135,41.10216 C40.4133135,42.00048 40.1178998,42.94744 39.2079069,43.61472 C38.6868505,43.99776 37.8941324,44.32 36.6367685,44.32 C35.2131417,44.32 34.3729198,43.88984 33.8102977,43.16328 C33.3337761,42.55072 33.019064,41.60072 33.019064,40.026 C33.019064,35.80952 34.8019377,33.81224 36.1543089,32.58104 C36.4066724,32.35608 36.6902102,32.12504 36.9856239,31.88488 C37.8585046,31.17808 39.1351668,30.41808 39.1351668,29.05616 C39.1351668,28.68984 39.0104696,28.40104 38.769982,28.20952 C38.3483866,27.87208 37.7308383,27.7596 37.0687554,27.7596 C35.5441831,27.7596 35.0869599,28.45728 34.7054457,29.0516 C33.9795297,30.18096 33.2743964,30.94856 31.8136573,30.94856 C30.8828815,30.94856 29.8437378,30.57616 29.0940698,29.82376 C28.4557387,29.18536 28,28.27944 28,27.068 C28,25.44768 28.8951481,23.32576 31.0105477,21.80728 C32.4608954,20.76456 34.4991015,20 37.1860302,20 M43.4387061,51.92 C43.4387061,55.1576 40.7992812,58 37.4621455,58 C34.1235253,58 31.5627783,55.1576 31.5627783,51.92 C31.5627783,48.60336 34.2007188,45.84 37.4621455,45.84 C40.7206032,45.84 43.4387061,48.60336 43.4387061,51.92"/>
    </g>
    <g transform="translate(257 107)">
      <path fill="#E6F8FC" d="M56.7638536,1 L56.901195,7.44602014 C30.3332656,8.02358354 8.86477121,29.6409567 8.0254627,56.6600947 C7.62615531,69.4928316 11.9346057,81.8923959 20.1547424,91.5691614 C25.6229645,98.0022894 27.255801,107.021561 24.4199556,115.10487 L23.7535955,117 L29.6287551,112.531619 C34.9494624,108.486097 41.7758383,106.928738 48.352965,108.241148 C52.8852309,109.148747 57.5395781,109.406588 62.1913819,109.019827 C87.3808107,106.897797 107.05878,85.9069773 107.966759,60.1925137 C108.465258,45.9829069 103.342933,32.6061259 93.5408265,22.5245504 C83.7895876,12.4971215 70.8260862,7.11598391 56.901195,7.44602014 L56.7638536,1 Z"/>
      <path fill="#037092" d="M56.764974,1.78995166 L56.9023154,8.12483352 C30.334386,8.69243893 8.86589166,29.9370987 8.02658315,56.4903895 C7.62727576,69.1018723 11.9357261,81.2876511 20.1558628,90.7975757 C25.6240849,97.1197878 27.2569215,105.983555 24.4210761,113.927496 L23.754716,115.789952 L29.6298755,111.398612 C34.9505828,107.42284 41.7769587,105.892332 48.3540854,107.182114 C52.8863514,108.074066 57.5406986,108.327461 62.1925024,107.947368 C87.3819312,105.861925 107.059901,85.2330155 107.96788,59.9619048 C108.466378,45.9972912 103.344053,32.8511444 93.541947,22.9433892 C83.7907081,13.0888469 70.8272066,7.80048757 56.9023154,8.12483352 L56.764974,1.78995166 Z M21.1298105,128 C19.2175676,128 17.3053247,127.397979 15.6659234,126.193938 C12.3565436,123.759987 11.0581942,119.524676 12.4365144,115.651519 L15.8658504,106.019187 C17.0771728,102.61871 16.397421,98.8443221 14.0923804,96.1681516 C4.56409509,85.1036682 -0.431727647,70.9397186 0.0292804773,56.286627 C1.00304254,25.3930844 25.9092417,0.67495804 56.7309277,0.011794532 C72.7932975,-0.30567736 87.931299,5.79448626 99.2448147,17.2681556 C110.605372,28.7912095 116.542028,44.0721899 115.961063,60.2961794 C114.912035,89.6987799 92.0803721,113.702007 62.8510458,116.126551 C57.4600732,116.573364 52.0643965,116.274705 46.8027884,115.235278 C43.9732335,114.675587 41.073116,115.329344 38.8221733,117.017824 L26.6642601,126.142202 C25.0130983,127.381518 23.0726304,128 21.1298105,128 L21.1298105,128 Z"/>
      <path fill="#5CD999" d="M55.5042581,29 C60.0186733,29 63.7572467,30.33576 66.4035472,32.46684 C69.3428393,34.8292 71,38.1686 71,41.96584 C71,48.87828 65.1237597,54.02072 63.1923588,55.57832 C60.5718416,57.70704 60.5999687,59.21744 60.5999687,61.76388 C60.5999687,63.15864 60.1335261,64.62892 58.6966951,65.66496 C57.8739745,66.25968 56.6223142,66.76 54.6370029,66.76 C52.389171,66.76 51.0625049,66.09212 50.1741542,64.96404 C49.4217517,64.01296 48.9248379,62.53796 48.9248379,60.093 C48.9248379,53.54636 51.7399016,50.44532 53.8752246,48.53372 C54.2736933,48.18444 54.7213845,47.82572 55.1878272,47.45284 C56.5660598,46.35544 58.5818423,45.17544 58.5818423,43.06088 C58.5818423,42.49212 58.3849519,42.04372 58.0052348,41.74636 C57.3395578,41.22244 56.3644816,41.0478 55.3190874,41.0478 C52.9118681,41.0478 52.1899367,42.13104 51.5875459,43.0538 C50.4413626,44.80728 49.3279944,45.99908 47.0215642,45.99908 C45.5519181,45.99908 43.9111649,45.42088 42.7274787,44.25268 C41.7195875,43.26148 41,41.85492 41,39.974 C41,37.45824 42.4133917,34.16368 45.7534964,31.80604 C48.043519,30.18708 51.2617392,29 55.5042581,29 M65.3769044,78.56 C65.3769044,83.5868 61.2093914,88 55.9402297,88 C50.6687241,88 46.6254395,83.5868 46.6254395,78.56 C46.6254395,73.41048 50.7906086,69.12 55.9402297,69.12 C61.0851629,69.12 65.3769044,73.41048 65.3769044,78.56"/>
    </g>
  </g>
</svg>
