<svg xmlns="http://www.w3.org/2000/svg" width="400" height="400" viewBox="0 0 400 400">
  <g fill="none" fill-rule="evenodd">
    <circle cx="200" cy="200" r="200" fill="#E6F8FC"/>
    <g transform="translate(72 63)">
      <path fill="#037092" fill-rule="nonzero" d="M150.171632,0 C154.064776,0 157.494284,2.43391905 158.84497,6.02395661 L158.969138,6.37494582 L159.202286,7.07796364 L159.445269,8.59016654 L159.444041,12.0377909 C212.909442,18.6195535 254.282179,64.1332921 255.949633,119.51589 L255.98798,121.197141 L256.0019,122.992137 C256.0019,184.692185 206.822129,234.763214 146.089278,234.763214 C124.42211,234.763214 104.225408,228.390221 87.2077353,217.389821 L82.1640973,222.457279 C74.6096891,230.052021 68.8234339,239.752011 65.4322126,250.508434 C63.8232435,255.612247 60.970215,260.321232 57.1828535,264.129274 C51.0087534,270.336545 42.8685868,273.81862 34.1739918,273.993107 L33.2461585,274 C24.2049737,273.935974 15.7521625,270.309339 9.44398148,263.7878 C3.45216692,257.595539 0.100467788,249.380351 0.00189972128,240.660575 C-0.0890130817,231.936225 3.08580162,223.652437 8.94620617,217.333648 C12.7174358,213.268308 17.4304184,210.193245 22.6159701,208.409972 L23.3259759,208.174834 C33.690016,204.871237 43.068934,199.308648 50.5134927,192.059319 L51.2278634,191.352525 L55.8033434,186.752022 C43.4291613,168.664983 36.1766564,146.686022 36.1766564,122.992137 C36.1766564,83.5109211 56.540901,47.2080948 89.727842,27.0174419 C97.3781015,22.363089 107.319911,24.8536915 111.919552,32.563506 C116.505436,40.2502632 114.053299,50.2320666 106.425989,54.8724572 C82.9131623,69.177461 68.4775085,94.9209927 68.4775085,122.992137 C68.4775085,166.781215 103.257117,202.222763 146.089278,202.222763 C188.921439,202.222763 223.701048,166.781215 223.701048,122.992137 C223.701048,84.4304153 196.659489,52.150216 160.706868,45.1627221 L159.614685,44.9587414 L159.444041,44.9290319 L159.445343,47.041542 C159.445343,49.0988706 158.769046,51.0892962 157.535558,52.7094922 L157.262754,53.0508997 L156.973153,53.3803104 C154.512016,56.0502876 150.775723,57.0032713 147.400624,55.9403914 L147.027182,55.8139827 L146.165485,55.501707 L144.546259,54.5109978 L121.012906,32.6495476 L120.534622,32.0196761 C118.332278,29.1193224 118.038694,25.2429913 119.669024,22.0755415 L119.85809,21.7266055 L120.31406,20.9260564 L121.56646,19.4935869 L144.555955,1.90403962 C146.170623,0.66863732 148.143355,0 150.171632,0 Z M61.2718987,194.084304 L57.5923348,197.753786 C49.0224856,206.369901 38.1136958,212.956991 26.0463512,216.803144 C22.0541732,218.074524 18.4179604,220.393192 15.5299116,223.507616 C6.75885403,232.963695 6.92357136,248.201962 15.8961859,257.478158 C20.3670808,262.099058 26.3103945,264.734219 32.6895054,264.935982 L33.3081644,264.947896 L33.484631,264.947896 C40.033604,264.947896 46.1834047,262.388368 50.8188369,257.728165 C53.6298711,254.900336 55.6601468,251.551149 56.8520544,247.772071 C60.5651034,235.995934 66.8467144,225.3184 75.0495487,216.822486 L75.8005355,216.05617 L79.7447837,212.113642 C73.3210399,207.160508 67.4496647,201.50576 62.2407751,195.261903 L61.2718987,194.084304 Z M150.171632,9.14661872 L150.11485,9.15598197 L150.11485,9.15598197 L150.064036,9.18308759 L127.797891,26.21919 L127.7514,26.272366 C127.728512,26.3125498 127.722078,26.360415 127.733537,26.4052509 L127.764325,26.468894 L150.051087,47.1723163 L150.111271,47.2091392 C150.17633,47.2327164 150.251981,47.2167135 150.301912,47.162545 C150.322148,47.1405923 150.336387,47.1140697 150.343631,47.0855345 L150.349126,47.041542 L150.350031,34.7197488 C196.24621,36.9837537 232.797265,75.6259964 232.797265,122.992137 C232.797265,171.815165 193.963158,211.369382 146.089278,211.369382 C98.2153983,211.369382 59.3812915,171.815165 59.3812915,122.992137 C59.3812915,91.4966692 75.671142,62.8929597 101.71722,47.0467472 C105.05432,45.0164838 106.129755,40.6387622 104.11927,37.2688325 C102.108785,33.8989027 97.7737109,32.8128885 94.4366107,34.8431519 C64.1879157,53.2462008 45.2728734,86.459543 45.2728734,122.992137 C45.2728734,179.656437 90.3962963,225.616595 146.089278,225.616595 C201.78226,225.616595 246.905683,179.656437 246.905683,122.992137 C246.905683,68.3323133 204.918239,23.6327173 151.958419,20.5386566 L150.350249,20.4576648 L150.349126,9.32478618 L150.340077,9.26847149 C150.316597,9.19767043 150.250054,9.14661872 150.171632,9.14661872 Z" transform="matrix(-1 0 0 1 256.002 0)"/>
      <path fill="#5CD999" d="M109.5,62 C142.913227,62 170,89.3106303 170,123 C170,156.68937 142.913227,184 109.5,184 C76.4209049,184 49.5423681,157.232851 49.0081053,124.008747 L49,122.82188 C49,89.6200619 75.5193282,62.5463191 108.320682,62.0081644 L109.5,62 Z M133.906958,144.301504 C139.420391,145.151938 144.009218,147.741224 147.643279,150.093184 L148.494598,150.650935 L149.298159,151.187733 L151.030225,152.3593 L150.963572,152.533395 C149.891513,155.115866 148.130451,157.257959 146.211312,159.232904 L145.825534,159.625745 C144.377903,161.085339 142.844311,162.458261 141.233425,163.735984 C140.975873,163.900478 140.71633,164.067316 140.450663,164.238865 L136.972737,166.500443 C128.722996,171.824604 119.159446,174.63711 109.316564,174.63711 C108.324378,174.63711 107.338689,174.608619 106.360692,174.551643 C111.571959,169.995567 115.37843,164.931196 117.770362,159.436856 C120.34678,153.519851 122.944489,149.309098 125.855777,146.764605 C128.284977,144.641462 130.916694,143.840278 133.906958,144.301504 Z M85.772616,76.8297363 L85.5961931,77.8072152 L85.3969083,78.9744683 L85.2029826,80.1790389 C84.4443182,85.0668602 83.9280415,90.758572 85.019401,96.153412 C86.841419,105.161038 92.638892,111.00191 102.251253,113.514012 C105.059619,114.247767 107.502741,113.455623 109.704762,112.296395 L110.050464,112.110478 L110.934219,111.604088 L111.509602,111.256147 L113.451783,110.052348 L114.232549,109.591059 C116.211072,108.459731 118.208476,107.648735 120.55456,108.00376 C123.164085,108.398749 124.79637,109.654874 126.731674,111.902439 L127.05725,112.286236 L127.753045,113.137547 L128.489994,114.068918 L129.189875,114.965046 L130.010033,116.00424 C130.857616,117.065134 131.791386,118.18466 132.846587,119.30462 C137.459349,124.19377 143.799749,125.728286 149.94425,125.728042 C153.879822,125.727759 157.735152,125.097801 161.003444,124.316137 C160.827095,131.458201 159.22134,138.241998 156.463685,144.388049 C151.087209,140.614369 142.269489,136.478684 135.257391,135.397762 C127.012382,134.126794 121.033243,138.249349 116.855891,143.273525 L116.580065,143.609757 L116.105049,144.210262 L115.646479,144.816565 L115.204186,145.427029 L114.778001,146.040016 L114.367754,146.653887 L113.973276,147.267005 L113.410755,148.181686 L113.05496,148.785755 L112.714341,149.383338 L112.388729,149.972796 L111.928082,150.838168 L111.639249,151.400151 L111.232975,152.216631 L110.858565,152.996406 L110.626379,153.493133 L110.303805,154.199446 L109.371877,156.306036 C106.553002,162.469695 101.514172,167.819433 94.0416884,172.564635 C88.2217634,170.723002 82.847943,167.867006 78.1223401,164.203059 L80.6588205,162.747103 L81.9930984,161.962876 L82.6510461,161.563882 L83.2999985,161.158998 L83.9378046,160.747247 L84.5623135,160.327652 L84.8689094,160.114607 L85.4694396,159.681414 C88.7229728,157.271461 91.1291541,154.394757 91.077629,150.319826 C91.0498998,148.120945 89.9843693,146.147814 88.4857974,144.100947 L88.1804883,143.690501 L87.670658,143.02837 L87.1384214,142.357661 L85.6429982,140.510496 L84.9709895,139.669007 C82.95262,137.111084 80.952019,134.244895 80.01835,130.87693 C78.9766529,127.11933 78.3856653,122.821 78.2595534,118.086487 L78.23965,117.06531 C78.1253623,107.90424 73.7810647,99.5352479 66.6019105,94.1436627 C68.4070922,91.4172367 70.4630129,88.8727319 72.7351145,86.543444 C76.5291823,82.6538839 80.9264814,79.3637078 85.772616,76.8297363 Z M62.2117281,102.125863 C66.6020461,105.856756 69.2337032,111.278942 69.3073045,117.178562 C69.3812055,123.12385 70.0968339,128.547353 71.4151387,133.302006 C73.0148465,139.071765 76.5244874,143.502134 79.3969031,147.03802 C80.4283478,148.307619 82.1358349,149.681245 82.1455727,150.434434 C82.1517203,150.928168 81.586446,151.248926 81.1677519,151.628064 C79.6352997,153.015737 77.2987364,154.316342 74.9060501,155.68574 C73.7381344,156.354043 72.5539249,157.033102 71.3901261,157.74332 C63.0364891,148.525757 57.933188,136.263787 57.933188,122.82188 C57.933188,115.468222 59.4600076,108.467436 62.2117281,102.125863 Z M109.316564,70.5463389 C122.68932,70.5463389 134.895105,75.6796748 144.099173,84.0938731 C152.896053,92.1358268 158.952938,103.174638 160.662906,115.594734 C157.05005,116.595692 152.294524,117.522014 147.791803,117.135623 C144.492214,116.852476 141.300488,115.865172 138.990643,113.417019 C137.660779,112.005599 136.54841,110.574058 135.47033,109.19187 C131.928797,104.650836 128.504323,100.564691 121.811939,99.5519337 C115.86887,98.6533415 111.439433,101.249165 107.888936,103.467251 C106.376763,104.412076 105.369804,105.500381 104.377016,105.240824 C101.159934,104.400062 98.6354031,103.142822 96.7905859,101.317953 C95.0089852,99.555617 93.896775,97.2728884 93.3248209,94.445482 C92.1636139,88.7049976 93.4427215,82.0198365 94.3287751,77.1420197 C94.64915,75.3800454 94.9192144,73.8651088 95.0866359,72.5484695 C99.6098509,71.2445362 104.383837,70.5463389 109.316564,70.5463389 Z"/>
      <path fill="#FA5454" d="M152,109 C158.614652,109 164.611496,111.73959 168.955487,116.159054 C173.306211,120.585368 176,126.69678 176,133.436023 C176,137.533502 173.353021,143.520697 169.5973,150.033341 L169.5973,150.033341 L168.825299,151.352071 L168.033577,152.667049 L167.205415,154.007124 C166.926484,154.452945 166.643512,154.899867 166.361004,155.341101 L166.361004,155.341101 L165.489728,156.687099 L164.598231,158.035827 L163.688839,159.384861 L162.76034,160.73687 C162.605017,160.961026 162.449155,161.184975 162.296284,161.403707 L162.296284,161.403707 L161.352323,162.742962 L160.398599,164.074106 L159.437432,165.394747 L158.471145,166.702496 L157.502058,167.994968 L156.53404,169.267779 L155.083885,171.141708 L153.64419,172.964417 L152.69598,174.144751 L151.998808,175 L151.778525,174.732366 L150.835569,173.566989 L149.882657,172.373267 L148.922119,171.153582 L147.956282,169.910316 L146.989063,168.647963 L145.533752,166.714607 L144.567661,165.407559 L143.60672,164.087652 L142.653252,162.757276 L141.709578,161.418825 L140.778019,160.0747 L139.860901,158.727307 L138.960548,157.379065 L138.079287,156.032399 L137.215096,154.682838 C136.932355,154.236242 136.653461,153.790549 136.383359,153.353572 L136.383359,153.353572 L135.568561,152.018321 L134.407186,150.048669 C130.646679,143.527331 128,137.538327 128,133.436023 C128,126.696742 130.693741,120.585296 135.044473,116.158975 C139.388422,111.739554 145.385238,109 152,109 Z M152,125.943513 C153.935566,125.943513 155.691037,126.734019 156.962374,128.011518 C158.23371,129.289018 159.020402,131.052999 159.020402,132.997949 C159.020402,134.942898 158.23371,136.706879 156.962374,137.984379 C155.691037,139.261878 153.935566,140.052384 152,140.052384 C150.064434,140.052384 148.308963,139.261878 147.037626,137.984379 C145.76629,136.706879 144.979598,134.942898 144.979598,132.997949 C144.979598,131.052999 145.76629,129.289018 147.037626,128.011518 C148.308963,126.734019 150.064434,125.943513 152,125.943513 L152,125.943513 Z"/>
    </g>
    <g transform="translate(235 69)">
      <path fill="#E6F8FC" d="M56.7638536,1 L56.901195,7.44602014 C30.3332656,8.02358354 8.86477121,29.6409567 8.0254627,56.6600947 C7.62615531,69.4928316 11.9346057,81.8923959 20.1547424,91.5691614 C25.6229645,98.0022894 27.255801,107.021561 24.4199556,115.10487 L23.7535955,117 L29.6287551,112.531619 C34.9494624,108.486097 41.7758383,106.928738 48.352965,108.241148 C52.8852309,109.148747 57.5395781,109.406588 62.1913819,109.019827 C87.3808107,106.897797 107.05878,85.9069773 107.966759,60.1925137 C108.465258,45.9829069 103.342933,32.6061259 93.5408265,22.5245504 C83.7895876,12.4971215 70.8260862,7.11598391 56.901195,7.44602014 L56.7638536,1 Z"/>
      <path fill="#037092" d="M56.764974,1.78995166 L56.9023154,8.12483352 C30.334386,8.69243893 8.86589166,29.9370987 8.02658315,56.4903895 C7.62727576,69.1018723 11.9357261,81.2876511 20.1558628,90.7975757 C25.6240849,97.1197878 27.2569215,105.983555 24.4210761,113.927496 L23.754716,115.789952 L29.6298755,111.398612 C34.9505828,107.42284 41.7769587,105.892332 48.3540854,107.182114 C52.8863514,108.074066 57.5406986,108.327461 62.1925024,107.947368 C87.3819312,105.861925 107.059901,85.2330155 107.96788,59.9619048 C108.466378,45.9972912 103.344053,32.8511444 93.541947,22.9433892 C83.7907081,13.0888469 70.8272066,7.80048757 56.9023154,8.12483352 L56.764974,1.78995166 Z M21.1298105,128 C19.2175676,128 17.3053247,127.397979 15.6659234,126.193938 C12.3565436,123.759987 11.0581942,119.524676 12.4365144,115.651519 L15.8658504,106.019187 C17.0771728,102.61871 16.397421,98.8443221 14.0923804,96.1681516 C4.56409509,85.1036682 -0.431727647,70.9397186 0.0292804773,56.286627 C1.00304254,25.3930844 25.9092417,0.67495804 56.7309277,0.011794532 C72.7932975,-0.30567736 87.931299,5.79448626 99.2448147,17.2681556 C110.605372,28.7912095 116.542028,44.0721899 115.961063,60.2961794 C114.912035,89.6987799 92.0803721,113.702007 62.8510458,116.126551 C57.4600732,116.573364 52.0643965,116.274705 46.8027884,115.235278 C43.9732335,114.675587 41.073116,115.329344 38.8221733,117.017824 L26.6642601,126.142202 C25.0130983,127.381518 23.0726304,128 21.1298105,128 L21.1298105,128 Z"/>
      <path fill="#5CD999" d="M55.5042581,29 C60.0186733,29 63.7572467,30.33576 66.4035472,32.46684 C69.3428393,34.8292 71,38.1686 71,41.96584 C71,48.87828 65.1237597,54.02072 63.1923588,55.57832 C60.5718416,57.70704 60.5999687,59.21744 60.5999687,61.76388 C60.5999687,63.15864 60.1335261,64.62892 58.6966951,65.66496 C57.8739745,66.25968 56.6223142,66.76 54.6370029,66.76 C52.389171,66.76 51.0625049,66.09212 50.1741542,64.96404 C49.4217517,64.01296 48.9248379,62.53796 48.9248379,60.093 C48.9248379,53.54636 51.7399016,50.44532 53.8752246,48.53372 C54.2736933,48.18444 54.7213845,47.82572 55.1878272,47.45284 C56.5660598,46.35544 58.5818423,45.17544 58.5818423,43.06088 C58.5818423,42.49212 58.3849519,42.04372 58.0052348,41.74636 C57.3395578,41.22244 56.3644816,41.0478 55.3190874,41.0478 C52.9118681,41.0478 52.1899367,42.13104 51.5875459,43.0538 C50.4413626,44.80728 49.3279944,45.99908 47.0215642,45.99908 C45.5519181,45.99908 43.9111649,45.42088 42.7274787,44.25268 C41.7195875,43.26148 41,41.85492 41,39.974 C41,37.45824 42.4133917,34.16368 45.7534964,31.80604 C48.043519,30.18708 51.2617392,29 55.5042581,29 M65.3769044,78.56 C65.3769044,83.5868 61.2093914,88 55.9402297,88 C50.6687241,88 46.6254395,83.5868 46.6254395,78.56 C46.6254395,73.41048 50.7906086,69.12 55.9402297,69.12 C61.0851629,69.12 65.3769044,73.41048 65.3769044,78.56"/>
    </g>
  </g>
</svg>
