<svg xmlns="http://www.w3.org/2000/svg" width="400" height="400" viewBox="0 0 400 400">
  <g fill="none" fill-rule="evenodd">
    <circle cx="200" cy="200" r="200" fill="#E6F8FC"/>
    <g transform="translate(81 84)">
      <rect width="220" height="219" x="13" stroke="#037092" stroke-width="10" rx="8"/>
      <rect width="179" height="182" x="35" y="18" stroke="#037092" stroke-width="5" rx="8"/>
      <ellipse cx="123.5" cy="109.5" stroke="#037092" stroke-width="5" rx="72.5" ry="73.5"/>
      <ellipse cx="124" cy="109" fill="#5CD999" rx="62" ry="63"/>
      <g stroke="#037092" stroke-width="5" transform="translate(0 36)">
        <g fill="#FFF" transform="translate(0 29.485)">
          <path d="M13.1612703,87.4015152 C15.5228845,87.4015152 17.9649171,87.4015152 20.4873681,87.4015152 L20.4873681,43.7007576 L20.4873681,0 C17.5892893,0 15.1472568,0 13.1612703,0 C5.89250144,0 0,19.5654956 0,43.7007576 C0,67.8360195 5.89250144,87.4015152 13.1612703,87.4015152 Z"/>
          <ellipse cx="20.177" cy="43.701" rx="13.348" ry="43.701"/>
        </g>
        <g fill="#E6F8FC" transform="translate(7.334)">
          <path d="M21.5377247,139 C25.4023817,139 29.3986392,139 33.5264972,139 L33.5264972,69.5 L33.5264972,0 C28.7839442,0 24.7876867,0 21.5377247,0 C9.6427678,0 2.25051086e-14,31.1162099 2.25051086e-14,69.5 C2.25051086e-14,107.88379 9.6427678,139 21.5377247,139 Z"/>
          <ellipse cx="32.94" cy="69.5" rx="21.538" ry="69.5"/>
        </g>
      </g>
      <path stroke="#037092" stroke-width="9" d="M33 219L97 219 91.6472575 226.331414C86.7521945 233.035964 78.9498652 237 70.6485014 237L59.0774506 237C50.5393997 237 42.5454873 232.808083 37.6903429 225.784844L33 219 33 219zM157 219L221 219 215.647258 226.331414C210.752194 233.035964 202.949865 237 194.648501 237L183.077451 237C174.5394 237 166.545487 232.808083 161.690343 225.784844L157 219 157 219z"/>
    </g>
    <g transform="translate(225 54)">
      <path fill="#E6F8FC" d="M56.7638536,1 L56.901195,7.44602014 C30.3332656,8.02358354 8.86477121,29.6409567 8.0254627,56.6600947 C7.62615531,69.4928316 11.9346057,81.8923959 20.1547424,91.5691614 C25.6229645,98.0022894 27.255801,107.021561 24.4199556,115.10487 L23.7535955,117 L29.6287551,112.531619 C34.9494624,108.486097 41.7758383,106.928738 48.352965,108.241148 C52.8852309,109.148747 57.5395781,109.406588 62.1913819,109.019827 C87.3808107,106.897797 107.05878,85.9069773 107.966759,60.1925137 C108.465258,45.9829069 103.342933,32.6061259 93.5408265,22.5245504 C83.7895876,12.4971215 70.8260862,7.11598391 56.901195,7.44602014 L56.7638536,1 Z"/>
      <path fill="#037092" d="M56.764974,1.78995166 L56.9023154,8.12483352 C30.334386,8.69243893 8.86589166,29.9370987 8.02658315,56.4903895 C7.62727576,69.1018723 11.9357261,81.2876511 20.1558628,90.7975757 C25.6240849,97.1197878 27.2569215,105.983555 24.4210761,113.927496 L23.754716,115.789952 L29.6298755,111.398612 C34.9505828,107.42284 41.7769587,105.892332 48.3540854,107.182114 C52.8863514,108.074066 57.5406986,108.327461 62.1925024,107.947368 C87.3819312,105.861925 107.059901,85.2330155 107.96788,59.9619048 C108.466378,45.9972912 103.344053,32.8511444 93.541947,22.9433892 C83.7907081,13.0888469 70.8272066,7.80048757 56.9023154,8.12483352 L56.764974,1.78995166 Z M21.1298105,128 C19.2175676,128 17.3053247,127.397979 15.6659234,126.193938 C12.3565436,123.759987 11.0581942,119.524676 12.4365144,115.651519 L15.8658504,106.019187 C17.0771728,102.61871 16.397421,98.8443221 14.0923804,96.1681516 C4.56409509,85.1036682 -0.431727647,70.9397186 0.0292804773,56.286627 C1.00304254,25.3930844 25.9092417,0.67495804 56.7309277,0.011794532 C72.7932975,-0.30567736 87.931299,5.79448626 99.2448147,17.2681556 C110.605372,28.7912095 116.542028,44.0721899 115.961063,60.2961794 C114.912035,89.6987799 92.0803721,113.702007 62.8510458,116.126551 C57.4600732,116.573364 52.0643965,116.274705 46.8027884,115.235278 C43.9732335,114.675587 41.073116,115.329344 38.8221733,117.017824 L26.6642601,126.142202 C25.0130983,127.381518 23.0726304,128 21.1298105,128 L21.1298105,128 Z"/>
      <path fill="#5CD999" d="M55.5042581,29 C60.0186733,29 63.7572467,30.33576 66.4035472,32.46684 C69.3428393,34.8292 71,38.1686 71,41.96584 C71,48.87828 65.1237597,54.02072 63.1923588,55.57832 C60.5718416,57.70704 60.5999687,59.21744 60.5999687,61.76388 C60.5999687,63.15864 60.1335261,64.62892 58.6966951,65.66496 C57.8739745,66.25968 56.6223142,66.76 54.6370029,66.76 C52.389171,66.76 51.0625049,66.09212 50.1741542,64.96404 C49.4217517,64.01296 48.9248379,62.53796 48.9248379,60.093 C48.9248379,53.54636 51.7399016,50.44532 53.8752246,48.53372 C54.2736933,48.18444 54.7213845,47.82572 55.1878272,47.45284 C56.5660598,46.35544 58.5818423,45.17544 58.5818423,43.06088 C58.5818423,42.49212 58.3849519,42.04372 58.0052348,41.74636 C57.3395578,41.22244 56.3644816,41.0478 55.3190874,41.0478 C52.9118681,41.0478 52.1899367,42.13104 51.5875459,43.0538 C50.4413626,44.80728 49.3279944,45.99908 47.0215642,45.99908 C45.5519181,45.99908 43.9111649,45.42088 42.7274787,44.25268 C41.7195875,43.26148 41,41.85492 41,39.974 C41,37.45824 42.4133917,34.16368 45.7534964,31.80604 C48.043519,30.18708 51.2617392,29 55.5042581,29 M65.3769044,78.56 C65.3769044,83.5868 61.2093914,88 55.9402297,88 C50.6687241,88 46.6254395,83.5868 46.6254395,78.56 C46.6254395,73.41048 50.7906086,69.12 55.9402297,69.12 C61.0851629,69.12 65.3769044,73.41048 65.3769044,78.56"/>
    </g>
  </g>
</svg>
