<svg xmlns="http://www.w3.org/2000/svg" width="400" height="400" viewBox="0 0 400 400">
  <g fill="none" fill-rule="evenodd">
    <circle cx="200" cy="200" r="200" fill="#E6F8FC"/>
    <g transform="translate(90 127)">
      <path fill="#037092" d="M81.6321839,198.860332 L81.6321839,198.71954 C82.0456245,198.808889 82.4962937,198.860332 82.9859515,198.860332 L150.632363,198.860332 L150.632363,13.1400064 L61.367908,13.1400064 L61.367908,198.860332 L81.6321839,198.860332 Z M154.630038,0 C157.154652,0 159.440121,1.02331587 161.094467,2.67772929 C162.748823,4.33215185 163.772031,6.61770941 163.772031,9.14215479 L163.772031,80.3799489 L202.858008,80.3799489 C205.382627,80.3799489 207.668093,81.403255 209.322435,83.0576525 C210.976784,84.7120577 212,86.997597 212,89.5220766 L212,202.858008 C212,205.382659 210.976743,207.668107 209.322425,209.322425 C207.668107,210.976743 205.382659,212 202.858008,212 L9.14215479,212 C6.61770941,212 4.33215185,210.976792 2.67772929,209.322437 C1.02331587,207.668091 0,205.382621 0,202.858008 L0,89.5220766 C0,86.9976347 1.02327486,84.7120739 2.67771934,83.0576406 C4.33216534,81.4032058 6.61774086,80.3799489 9.14215479,80.3799489 L48.2279693,80.3799489 L48.2279693,9.14215479 C48.2279693,6.61774086 49.2512262,4.33216534 50.905661,2.67771934 C52.5600943,1.02327486 54.8456551,0 57.3700971,0 L154.630038,0 Z M49.5154023,93.5198876 L13.1400064,93.5198876 L13.1400064,198.860332 L49.5154023,198.860332 L49.5154023,93.5198876 Z M162.484598,198.860332 L198.860332,198.860332 L198.860332,93.5198876 L162.484598,93.5198876 L162.484598,198.860332 Z"/>
      <path fill="#5CD999" d="M78,199 L78,174.72093 C78,172.113628 80.1020732,170 82.695122,170 L128.304878,170 C130.897927,170 133,172.113628 133,174.72093 L133,199 L78,199 Z"/>
      <rect width="59" height="23" x="75" y="25" fill="#5CD999" rx="2"/>
      <rect width="59" height="23" x="75" y="62" fill="#5CD999" rx="2"/>
      <rect width="59" height="23" x="75" y="97" fill="#5CD999" rx="2"/>
      <rect width="26" height="23" x="18" y="109" fill="#5CD999" rx="2"/>
      <rect width="26" height="23" x="167" y="109" fill="#5CD999" rx="2"/>
      <rect width="59" height="23" x="75" y="134" fill="#5CD999" rx="2"/>
      <rect width="26" height="23" x="18" y="144" fill="#5CD999" rx="2"/>
      <rect width="26" height="23" x="167" y="144" fill="#5CD999" rx="2"/>
    </g>
    <g transform="translate(259 73)">
      <path fill="#037092" d="M53.9170122,5.56874486 L54.037455,11.1263402 C30.738458,11.6243007 11.9114589,30.2622525 11.1754193,53.5574691 C10.8252429,64.6215299 14.6035792,75.3121203 21.8123058,83.6551824 C26.6077149,89.2016625 28.0396464,96.9778499 25.5527249,103.947074 L24.9683542,105.581007 L30.1206309,101.728482 C34.7866755,98.2405356 40.7731304,96.8978205 46.5410039,98.029347 C50.5156174,98.8118564 54.5972912,99.0341602 58.6767345,98.7007045 C80.7668423,96.8711441 98.0236239,78.7733906 98.8198848,56.6030313 C99.2570477,44.3518682 94.7649761,32.8187463 86.1689265,24.1266672 C77.6174853,15.4812719 66.2490201,10.8417913 54.037455,11.1263402 L53.9170122,5.56874486 Z M20.0368893,121 C18.2235555,121 16.4102217,120.430902 14.855617,119.292707 C11.7174121,116.991862 10.4862187,112.988171 11.7932464,109.326827 L15.0452029,100.221263 C16.1938707,97.0067494 15.5492785,93.4387732 13.3634641,90.9089558 C4.3280212,80.4495614 -0.409396907,67.0602027 0.0277659699,53.2084521 C0.951161026,24.0044001 24.5691085,0.638046272 53.7965694,0.0111495185 C69.0281269,-0.28896063 83.3831283,5.47760029 94.1114622,16.3238034 C104.884405,27.2166902 110.513992,41.661992 109.963077,56.9987321 C108.968309,84.7933779 87.3175942,107.483928 59.6001296,109.77588 C54.4880004,110.198258 49.3714105,109.915932 44.3819546,108.933349 C41.6987559,108.404266 38.9486445,109.022271 36.8141299,110.618412 L25.2850742,119.2438 C23.7193174,120.415341 21.8792185,121 20.0368893,121 L20.0368893,121 Z"/>
      <path fill="#5CD999" d="M53.5373076,28 C57.7507618,28 61.2400969,29.2452 63.7099773,31.2318 C66.4533167,33.434 68,36.547 68,40.0868 C68,46.5306 62.515509,51.3244 60.7128682,52.7764 C58.2670521,54.7608 58.2933042,56.1688 58.2933042,58.5426 C58.2933042,59.8428 57.8579577,61.2134 56.5169154,62.1792 C55.7490429,62.7336 54.5808266,63.2 52.7278694,63.2 C50.629893,63.2 49.3916712,62.5774 48.5625439,61.5258 C47.8603016,60.6392 47.3965154,59.2642 47.3965154,56.985 C47.3965154,50.8822 50.0239081,47.9914 52.0168763,46.2094 C52.3887804,45.8838 52.8066255,45.5494 53.241972,45.2018 C54.5283225,44.1788 56.4097195,43.0788 56.4097195,41.1076 C56.4097195,40.5774 56.2259552,40.1594 55.8715525,39.8822 C55.2502539,39.3938 54.3401828,39.231 53.3644816,39.231 C51.1177436,39.231 50.4439409,40.2408 49.8817095,41.101 C48.8119384,42.7356 47.7727947,43.8466 45.6201266,43.8466 C44.2484569,43.8466 42.7170873,43.3076 41.6123135,42.2186 C40.671615,41.2946 40,39.9834 40,38.23 C40,35.8848 41.3191656,32.8136 44.4365966,30.6158 C46.5739511,29.1066 49.5776233,28 53.5373076,28 M62.7517775,74.2 C62.7517775,78.886 58.8620986,83 53.9442144,83 C49.0241425,83 45.2504102,78.886 45.2504102,74.2 C45.2504102,69.3996 49.1379014,65.4 53.9442144,65.4 C58.746152,65.4 62.7517775,69.3996 62.7517775,74.2"/>
    </g>
    <g transform="translate(35 91)">
      <path fill="#037092" d="M45.7875368,9.10336925 C64.8503525,9.51079151 80.2542609,24.7600247 80.8564751,43.8197474 C81.1372529,52.6911125 78.1739205,61.2690114 72.5040783,68.0332888 L72.1535679,68.4451492 C68.2300514,72.9831784 67.0584711,79.3455136 69.093225,85.0476064 L69.5713466,86.3844607 L65.3558474,83.2323947 C61.6504591,80.4625546 56.9273496,79.346176 52.3378262,80.1293883 L51.9209968,80.2058293 C48.6690403,80.8460643 45.329489,81.0279492 41.9917627,80.7551218 C23.9180381,79.2582088 9.79885321,64.450956 9.14736698,46.3115711 C8.78968826,36.2878921 12.4650196,26.8517015 19.4981511,19.7400004 C26.4947848,12.6664952 35.7962563,8.87055653 45.7875368,9.10336925 Z M73.6061815,99 C75.0898182,99 76.573455,98.5343746 77.8454043,97.6031237 C80.4130265,95.7206146 81.4203665,92.4448668 80.3509802,89.4492219 L77.6902885,81.9992148 C76.7504694,79.3691586 77.277863,76.4499054 79.0662566,74.3800548 C86.4588917,65.8223684 90.3349611,54.8674386 89.9772824,43.5341881 C89.2217773,19.6399637 69.8980022,0.522037859 45.9846251,0.00912233333 C33.5224416,-0.236422333 21.7774405,4.48167297 12.9997128,13.3558391 C4.18548722,22.2682011 -0.420538707,34.0870844 0.0302094719,46.6353263 C0.844111043,69.3764001 18.558332,87.9413958 41.2362576,89.8166295 C45.4189087,90.1622108 49.6052096,89.931217 53.6874917,89.1272855 C55.8828361,88.6943994 58.1329272,89.2000395 59.8793483,90.5059734 L69.312212,97.563109 C70.5078809,98.4577404 71.8990808,98.9340849 73.3047997,98.9936214 L73.6061815,99 Z"/>
      <path fill="#5CD999" d="M44.1199312,23 C47.5809829,23 50.4472224,24.0188 52.4760528,25.6442 C54.7295101,27.446 56,29.993 56,32.8892 C56,38.1614 51.4948824,42.0836 50.0141417,43.2716 C48.0050785,44.8952 48.0266427,46.0472 48.0266427,47.9894 C48.0266427,49.0532 47.6690366,50.1746 46.5674662,50.9648 C45.9367138,51.4184 44.9771076,51.8 43.4550355,51.8 C41.7316978,51.8 40.7145871,51.2906 40.0335182,50.4302 C39.4566763,49.7048 39.075709,48.5798 39.075709,46.715 C39.075709,41.7218 41.2339245,39.3566 42.8710055,37.8986 C43.1764982,37.6322 43.5197281,37.3586 43.8773342,37.0742 C44.9339792,36.2372 46.4794125,35.3372 46.4794125,33.7244 C46.4794125,33.2906 46.3284632,32.9486 46.0373467,32.7218 C45.5269943,32.3222 44.7794359,32.189 43.977967,32.189 C42.1324322,32.189 41.5789515,33.0152 41.1171185,33.719 C40.238378,35.0564 39.3847957,35.9654 37.6165325,35.9654 C36.4898039,35.9654 35.2318931,35.5244 34.3244003,34.6334 C33.5516837,33.8774 33,32.8046 33,31.37 C33,29.4512 34.0836003,26.9384 36.6443472,25.1402 C38.4000313,23.9054 40.8673334,23 44.1199312,23 M51.6889601,60.8 C51.6889601,64.634 48.4938667,68 44.4541761,68 C40.4126885,68 37.3128369,64.634 37.3128369,60.8 C37.3128369,56.8724 40.5061333,53.6 44.4541761,53.6 C48.3986249,53.6 51.6889601,56.8724 51.6889601,60.8"/>
    </g>
  </g>
</svg>
