<svg xmlns="http://www.w3.org/2000/svg" width="400" height="400" viewBox="0 0 400 400">
  <g fill="none" fill-rule="evenodd">
    <circle cx="200" cy="200" r="200" fill="#E6F8FC"/>
    <g transform="translate(77 61)">
      <path fill="#FBF3EC" d="M42.3695098,0.0842230152 C55.5403645,-1.02133913 66.7267865,8.89882091 67.0349797,21.5127954 L67.0402079,22.0857594 L73.4195001,22.0857594 C79.6705588,22.0857594 84.7383721,27.0115704 84.7383721,33.0906194 C84.7383721,39.0284321 79.894585,43.8678372 73.8435765,44.0847431 L73.4195001,44.0923318 L15.3031771,44.0923318 C6.90906485,44.0923318 0,37.4775813 0,29.2148087 C0,20.9973598 6.85207219,14.3360265 15.3064152,14.3360265 C17.9151249,14.3360265 20.3690475,14.9718181 22.5192252,16.0904336 C25.0210734,7.40715731 32.8517355,0.889349232 42.3695098,0.0842230152 Z M211.075994,4.59811902 C227.881826,3.15238864 242.149065,16.1617856 242.471151,32.6748994 L242.475064,33.2957752 L250.594163,33.2957752 C258.550056,33.2957752 265,39.7207461 265,47.6499404 C265,55.4226236 258.790988,61.752331 251.051176,61.9929067 L250.594163,62 L176.627934,62 C165.944518,62 157.151163,53.3720646 157.151163,42.5945352 C157.151163,31.8761235 165.871982,23.1874279 176.632055,23.1874279 C179.952231,23.1874279 183.075405,24.0167214 185.811995,25.475785 C188.996165,14.1497724 198.962462,5.64828365 211.075994,4.59811902 Z"/>
      <g fill="#037092" fill-rule="nonzero" transform="matrix(-1 0 0 1 143 56)">
        <path d="M91.3123129,64.5217391 C94.3641968,64.5217391 97.2179166,66.0345848 98.9322907,68.5613265 C103.672414,75.5475893 107.992719,83.8010964 111.902694,93.3282301 L111.902694,93.3282301 L112.764827,95.4663386 C114.333035,99.4246495 115.833253,103.594437 117.266122,107.976131 L117.266122,107.976131 L118.041012,110.387165 L118.802567,112.840245 C118.928383,113.252596 119.053644,113.666701 119.178351,114.082558 L119.178351,114.082558 L119.919946,116.598737 L120.648264,119.157003 C120.768545,119.586888 120.888274,120.018528 121.007451,120.451923 L121.007451,120.451923 L121.715896,123.073346 L122.411122,125.736894 C122.525893,126.18433 122.640114,126.633521 122.753785,127.084469 L122.753785,127.084469 L123.429225,129.811233 L124.091503,132.580161 L124.740643,135.391268 L125.376667,138.244569 C125.48158,138.723637 125.585946,139.204463 125.689768,139.687048 L125.689768,139.687048 L126.306163,142.603671 L126.9095,145.562527 L127.499803,148.563633 L128.077095,151.607003 C128.172227,152.117754 128.266818,152.630267 128.360869,153.144542 L128.360869,153.144542 L128.918687,156.251339 C129.010576,156.772663 129.101926,157.29575 129.192737,157.8206 L129.192737,157.8206 L129.731134,160.990857 L130.256612,164.203442 C130.343116,164.742401 130.429083,165.283124 130.514514,165.825612 L130.514514,165.825612 L131.020657,169.101717 C131.270512,170.750359 131.515544,172.414889 131.755766,174.095314 L131.755766,174.095314 L132.229801,177.477363 L132.691033,180.901816 L133.139485,184.36869 L133.575181,187.877999 L133.998143,191.42976 L134.408394,195.023988 L134.805959,198.660699 C134.847776,199.051689 134.868729,199.444633 134.868729,199.837856 C134.868729,205.946833 129.919928,210.898725 123.816022,210.898725 L123.816022,210.898725 L95.9083267,210.898725 C95.5401892,210.898725 95.1722815,210.880319 94.8059795,210.843575 C88.7322958,210.234318 84.3021438,204.813121 84.9108048,198.734711 L84.9108048,198.734711 L85.2448084,195.282284 L85.5513944,191.868218 L85.8305892,188.492524 L86.0824193,185.155211 C86.1618048,184.049171 86.236634,182.949529 86.3069113,181.856287 L86.3069113,181.856287 L86.5040917,178.595763 C86.5346806,178.055542 86.5641326,177.516923 86.5924483,176.979903 L86.5924483,176.979903 L86.7487111,173.776996 L86.8777286,170.612511 L86.9795274,167.486458 C87.405819,152.470094 86.8792508,138.800783 85.4133034,126.483279 L85.4133034,126.483279 L85.0966047,123.95412 C82.9509958,107.639982 79.1081437,93.7712634 73.6008364,82.3595277 C72.389097,79.8486727 72.3782468,76.9238378 73.5713242,74.4040485 C75.5168731,70.2950332 85.9333051,64.5217391 91.3123129,64.5217391 Z M122.54021,174.737739 L95.8422105,176.405739 L95.79067,177.460859 C95.7762004,177.735275 95.7614416,178.01008 95.7463935,178.285274 L95.7003813,179.112022 L95.4989766,182.44235 L95.2698021,185.810013 L95.0128579,189.215012 L94.7281438,192.657346 L94.41566,196.137016 L94.0754064,199.654021 C93.9739661,200.667057 94.7123253,201.5706 95.7246044,201.672142 C95.785654,201.678266 95.8469712,201.681334 95.9083267,201.681334 L95.9083267,201.681334 L123.816022,201.681334 L124.030859,201.668946 C124.947047,201.562514 125.658203,200.783297 125.658203,199.837856 L125.658203,199.837856 L125.647741,199.641656 C125.520271,198.449824 125.390773,197.265041 125.259246,196.087308 L125.259246,196.087308 L124.858579,192.575257 L124.445739,189.105504 L124.020728,185.67805 L123.583545,182.292893 L123.13419,178.950034 C123.058283,178.396415 122.981869,177.844559 122.904948,177.294466 L122.904948,177.294466 L122.54021,174.737739 Z M116.97721,143.015739 L96.1321632,146.220578 C96.3281745,151.628113 96.3810728,157.228059 96.2908582,163.020416 L96.2908582,163.020416 L96.2452105,165.298739 L120.85021,163.761739 L120.445163,161.320383 L119.91669,158.25246 C119.827597,157.744664 119.737997,157.238631 119.647889,156.73436 L119.647889,156.73436 L119.101158,153.729884 L118.542256,150.767706 C118.353926,149.787363 118.163568,148.81407 117.971181,147.847826 L117.971181,147.847826 L117.387934,144.970243 L116.97721,143.015739 Z M109.28421,113.251739 L93.4227397,117.215587 C94.3301856,122.9007 95.0254561,128.871074 95.5085514,135.126711 L114.52821,132.201739 L113.962503,129.899614 C113.907813,129.680965 113.852996,129.462756 113.798053,129.244987 L113.632842,128.593004 L112.964391,126.011507 C112.851968,125.584782 112.739038,125.15982 112.625601,124.73662 L112.625601,124.73662 L111.938893,122.218569 L111.240012,119.742816 C111.005023,118.924615 110.768006,118.113464 110.52896,117.309362 L110.52896,117.309362 L109.805735,114.918205 L109.28421,113.251739 Z M91.3123129,73.7391304 C90.5135266,73.7391304 89.3068938,74.1628951 88.0213884,74.7538856 L88.0213884,74.7538856 L87.2432523,75.1264948 C87.1128627,75.1912567 86.9823424,75.2571779 86.8520202,75.3240016 L86.8520202,75.3240016 L86.0750976,75.7337236 L85.3187224,76.1527952 L84.5986854,76.5689025 L83.9307773,76.9697317 L83.3307889,77.3429688 L82.592698,77.824153 L82.2315934,78.0745371 C82.1812363,78.1107189 82.136012,78.1439553 82.0962494,78.1739898 L82.0962494,78.1739898 L81.9258473,78.3137204 L81.8947368,78.3509198 C85.864962,86.5776552 89.0164184,95.9051963 91.3491061,106.333543 L105.69321,102.748739 L105.610427,102.522916 C102.027273,92.9047531 98.074396,84.5713878 93.7517952,77.5228204 L93.2699847,76.7449334 L92.2972348,75.220883 C91.9709561,74.7199158 91.6426488,74.2259983 91.3123129,73.7391304 Z"/>
        <path d="M128.091474,0.00151986711 C131.005081,0.0185534851 133.790163,1.19538184 135.834871,3.26926746 C139.722216,7.21208577 140.059228,13.4149231 136.677682,17.7529148 L136.497397,17.9768972 L136.162951,18.3615237 L135.970434,18.5723566 L135.771483,18.7771195 L114.599546,39.9025869 C114.34007,40.161493 114.068721,40.4018785 113.787197,40.6236707 C115.234083,43.5624862 116.046976,46.8668695 116.046976,50.3652336 C116.046976,62.7245567 105.901025,72.6627515 93.4828857,72.6627515 C90.1061362,72.6627515 86.8973943,71.9279126 84.0149704,70.6093734 C82.1083134,81.045588 72.8598603,88.909417 61.8134844,88.909417 C57.3649182,88.909417 53.2079413,87.6340519 49.7045238,85.4288939 C49.3936041,85.7522033 49.0549011,86.055905 48.689688,86.3368911 L48.342743,86.5913299 L17.4818421,108.15266 C15.1136057,109.807236 12.1885869,110.460768 9.34096381,109.969261 C3.36542171,108.937868 -0.628703946,103.255638 0.388506029,97.2884767 C3.49259402,79.0882103 11.7648309,65.0278127 25.1361636,55.6867301 C28.4919913,53.3412615 32.0003476,51.2836936 35.6161298,49.5261655 L36.9769956,48.8811806 L37.6319478,48.5813485 C38.9813066,47.9636226 40.33591,47.6948206 41.6350296,47.7126955 L5.65902869,25.989086 C3.16837364,24.4848779 1.37818287,22.0534385 0.677100287,19.2313001 C-0.781651922,13.3592378 2.77517465,7.39664885 8.65356966,5.91842921 C26.2262951,1.50047937 42.1559276,3.21680775 55.9259561,11.2327064 L56.733463,11.711497 L57.7156102,12.3148301 C64.2886869,16.4204527 70.1011055,21.4234612 74.7682997,26.8476314 C75.0639127,26.1842095 75.451451,25.5296497 75.9367874,24.8929926 C78.0126172,22.1699503 80.2973789,19.5563956 82.7712103,17.0880571 C94.3104802,5.57535104 109.608907,-0.106533469 128.091474,0.00151986711 Z M41.2582582,75.8266221 L41.2052414,75.7104126 C41.1772747,75.6486375 41.149584,75.5867123 41.1221707,75.5246385 C41.1044669,75.4845523 41.0867237,75.4440472 41.0690988,75.4034795 L41.0287326,75.3099758 C40.9267489,75.0722305 40.8288182,74.8323538 40.7350275,74.5904286 C40.7186567,74.5482035 40.7022881,74.5055903 40.686048,74.4629142 C40.6523119,74.3742578 40.619235,74.2856157 40.5867135,74.1967078 C40.5696996,74.1501982 40.5526692,74.1031451 40.5357944,74.0560185 C40.4964146,73.9460327 40.458058,73.8361611 40.4205492,73.7258996 C40.4013863,73.6695633 40.3826171,73.6136458 40.3640662,73.5576293 C40.2908522,73.3365697 40.2208864,73.1134583 40.154398,72.8888584 C40.1322552,72.8140649 40.1103839,72.7387048 40.0889047,72.6631802 C40.060534,72.5634084 40.0330761,72.4641988 40.0062962,72.3647118 L40.0889047,72.6631802 C40.0281342,72.4495001 39.9705022,72.2345024 39.9160619,72.0182376 C39.9086825,71.988921 39.9014513,71.9599428 39.8942774,71.930942 C39.8298511,71.6705023 39.7700226,71.4081132 39.7149152,71.1439883 C39.6697241,70.9273911 39.6277103,70.7096402 39.5889218,70.4907707 C39.5798652,70.4396586 39.5710949,70.389135 39.5624966,70.3385526 C39.5494657,70.2618974 39.5367984,70.1849089 39.5245306,70.1077866 C39.5160686,70.0545907 39.5077834,70.0012449 39.4996897,69.9478358 C39.4566369,69.6637293 39.4190113,69.3779425 39.3869052,69.0904728 C39.3821114,69.0475509 39.3774407,69.0045915 39.3728935,68.961595 C39.327315,68.5306609 39.2941251,68.0958279 39.2737044,67.6576048 C39.2703343,67.5853025 39.2673015,67.5126275 39.2646206,67.4398611 C39.2619781,67.3681192 39.2596839,67.2965123 39.2577312,67.2248186 C39.2559735,67.1602565 39.2544976,67.0958826 39.2532975,67.03144 C39.2507026,66.8922675 39.2493945,66.7522394 39.2493945,66.6118991 C39.2493945,66.4443094 39.25126,66.2771648 39.2549714,66.1104842 L39.2493945,66.6118991 C39.2493945,66.3834913 39.2528596,66.1559103 39.2597403,65.9292036 C39.269134,65.6196549 39.2849017,65.3116506 39.3069139,65.0053981 C39.3110044,64.9484938 39.315299,64.891793 39.3198074,64.8351532 C39.3454033,64.51359 39.3778824,64.1940314 39.4171005,63.8765777 C39.4207019,63.8474234 39.4243793,63.8181377 39.428114,63.7888701 C39.496167,63.2555851 39.5832165,62.7284343 39.68858,62.2079406 C39.6953643,62.1744245 39.7022747,62.1406938 39.7092619,62.1069913 C39.7369932,61.973237 39.7658975,61.8400913 39.7959974,61.7073998 C39.8026165,61.6782191 39.809335,61.6488804 39.816112,61.6195639 C39.890642,61.29714 39.9722957,60.9772092 40.0608513,60.6601512 C40.0715014,60.6220186 40.0823308,60.5836486 40.0932613,60.5453209 C40.1318229,60.4101018 40.1716784,60.2752909 40.2127797,60.1410223 C40.2260541,60.0976572 40.2394885,60.0542529 40.2530529,60.0109058 C40.2952004,59.8762093 40.3387226,59.7417102 40.3834938,59.60778 C40.3872701,59.5964848 40.390838,59.5858398 40.3944139,59.5751984 C40.4432094,59.4299715 40.4937147,59.2847466 40.545685,59.140216 C40.5641377,59.0888977 40.5828195,59.0375462 40.6016861,58.9862835 C40.7044078,58.7071833 40.812538,58.4308779 40.9260083,58.1573236 C40.9510983,58.0968363 40.9764644,58.0364481 41.0020906,57.9761959 C41.1474502,57.63441 41.301345,57.2966528 41.4633657,56.9635272 L40.8084983,57.2631849 C37.3257918,58.8720118 33.8197217,60.8604102 30.4099596,63.2435749 C19.1547375,71.1063634 12.1739966,82.9715935 9.46773683,98.8392649 C9.30326293,99.8041024 9.9473509,100.720442 10.9064261,100.885981 C10.9823387,100.899084 11.0585977,100.907099 11.1347362,100.91013 L11.3623234,100.904376 C11.5886154,100.883879 11.8096213,100.819469 12.0127357,100.71396 L12.2094195,100.594856 L43.0702777,79.0335553 C42.9478854,78.8536379 42.828074,78.6718512 42.7108969,78.4882461 C42.6719434,78.4272065 42.6335694,78.3664276 42.595484,78.3054524 C42.5614757,78.2510042 42.5277416,78.1964716 42.4942386,78.1417843 C42.4560582,78.0794602 42.4183415,78.0172085 42.3809241,77.9547595 C42.3517589,77.9060845 42.3226447,77.8570675 42.293715,77.8079305 C41.988145,77.2888998 41.70333,76.7568377 41.440189,76.212472 C41.4083887,76.1466842 41.3769959,76.0809099 41.3459198,76.014959 L41.440189,76.212472 C41.3973276,76.1238034 41.3550411,76.0348085 41.3133346,75.9454917 L41.2582582,75.8266221 L41.2582582,75.8266221 Z M61.8134844,53.5317726 L61.4230178,53.5372572 C61.3651873,53.5388838 61.307449,53.5408705 61.2498051,53.5432152 C61.1290727,53.547993 61.0088912,53.5544168 60.8890375,53.5623911 L61.2498051,53.5432152 C61.1151076,53.5486941 60.9809254,53.5561274 60.8472873,53.565487 C60.7345529,53.5730711 60.6214021,53.5823494 60.5085621,53.5930108 L60.8472873,53.565487 C60.6691785,53.5779612 60.4920361,53.5938569 60.3159282,53.6131075 L60.5085621,53.5930108 C60.3824767,53.6049237 60.2567794,53.6185635 60.1314908,53.6339206 L60.3159282,53.6131075 C60.1325727,53.6331503 59.9503386,53.6568298 59.7693029,53.6840706 C59.7065242,53.6926771 59.6435754,53.7025709 59.5807394,53.7129017 L59.7693029,53.6840706 C59.6420458,53.7032192 59.5153809,53.7241276 59.3893348,53.7467695 L59.5807394,53.7129017 C59.4502079,53.7343622 59.320163,53.7577086 59.190629,53.7829293 L59.3893348,53.7467695 C59.2023133,53.7803646 59.0166543,53.8177762 58.832445,53.8589188 C58.7965242,53.8657451 58.7608245,53.8738623 58.7251665,53.8821232 L58.832445,53.8589188 C58.720671,53.8838832 58.6094308,53.9102213 58.4987437,53.937914 L58.0533445,54.057483 C52.7509273,55.5787303 48.8160452,60.2354805 48.4828259,65.8393534 C48.4775433,65.9233121 48.4734183,66.0076032 48.4701015,66.0920631 L48.4828259,65.8393534 C48.4748961,65.972712 48.469006,66.1066071 48.4651857,66.2410089 L48.4701015,66.0920631 C48.4633237,66.2646552 48.4599208,66.4379521 48.4599208,66.6118991 L48.4649325,66.9737731 C48.4664513,67.0285431 48.4683139,67.083229 48.4705181,67.1378289 C48.4726714,67.1956498 48.475346,67.2532417 48.4783968,67.3107541 L48.4705181,67.1378289 C48.7523083,74.117959 54.6183419,79.6920257 61.8134844,79.6920257 C69.188454,79.6920257 75.1670481,73.8358536 75.1670481,66.6118991 C75.1670481,65.1057839 74.9071725,63.659123 74.4289478,62.3125925 C73.7522144,61.2660205 73.1639907,60.1588204 72.6717029,59.0014329 C71.0610024,56.7972071 68.7679625,55.1045895 66.0950786,54.2186981 C66.0867677,54.2144809 66.0781039,54.2116183 66.0694369,54.2087644 L66.0950786,54.2186981 C65.4397478,54.0014975 64.7615838,53.8327908 64.0650449,53.7169275 C64.0361759,53.711229 64.0070886,53.7065031 63.9779767,53.7018706 L64.0650449,53.7169275 C63.9628419,53.6999269 63.8602434,53.684064 63.7572633,53.6693526 L63.9779767,53.7018706 C63.8481744,53.6812158 63.7178831,53.6624193 63.5871298,53.6454935 L63.7572633,53.6693526 C63.6255411,53.6505351 63.4931946,53.6336015 63.3602535,53.6185805 L63.5871298,53.6454935 C63.4599776,53.629034 63.3323885,53.6143435 63.204387,53.6014337 L63.3602535,53.6185805 C63.2354676,53.604481 63.1101577,53.5920667 62.9843481,53.5813613 L63.204387,53.6014337 C63.0677255,53.5876505 62.930594,53.575897 62.7930226,53.5661872 L62.9843481,53.5813613 C62.860647,53.5708353 62.7364628,53.5619615 62.6118188,53.5547624 L62.7930226,53.5661872 C62.6164746,53.5537264 62.439202,53.5446313 62.2612683,53.5389316 L62.6118188,53.5547624 C62.4857816,53.5474828 62.3592742,53.5419157 62.2323205,53.5380843 L62.2322461,53.5380322 L61.8134844,53.5317726 L61.8134844,53.5317726 Z M91.1542283,37.482381 L90.9567626,37.5188248 C90.8900155,37.5313429 90.8234448,37.5443477 90.7570547,37.5578354 L90.9561897,37.517911 C90.8361492,37.5403711 90.716558,37.5644322 90.5974387,37.5900841 L90.7570547,37.5578354 C90.5611913,37.5976265 90.366899,37.6416199 90.1742803,37.689715 C90.1552718,37.6931279 90.1359614,37.6979894 90.1166644,37.7028932 L90.1742803,37.689715 C90.0763906,37.7141571 89.9789332,37.7396586 89.8819215,37.7662063 L90.1166644,37.7028932 C90.001481,37.732164 89.8867774,37.7629421 89.7725746,37.7952176 L89.8819215,37.7662063 C89.6992592,37.8161926 89.5181771,37.8698879 89.3387653,37.9272039 C89.3058217,37.9363115 89.2732125,37.9468704 89.240648,37.9575532 L89.3387653,37.9272039 C89.2453672,37.9570415 89.1524217,37.9878603 89.0599416,38.0196479 L89.240648,37.9575532 C89.1232018,37.9960818 89.006336,38.0362232 88.8900743,38.0779664 L89.0599416,38.0196479 C88.9389361,38.0612404 88.8187274,38.1044915 88.6993437,38.1493734 L88.4033094,38.2646815 C88.3520848,38.2853352 88.3010201,38.3062919 88.2501176,38.3275494 L88.4036859,38.2633642 C88.286566,38.3106367 88.1701128,38.3595683 88.0543516,38.4101471 L88.2501176,38.3275494 C88.1425158,38.3724852 88.0356391,38.4187649 87.9295096,38.4663667 L87.4478231,38.6940073 C84.8638405,39.9785396 82.7637589,42.0622034 81.4865937,44.6129252 L81.481797,44.6221677 L81.338547,44.9185802 C80.9602964,45.7264539 80.6635924,46.5785826 80.4587563,47.4648561 L80.3499612,47.9846007 C80.2050457,48.7565557 80.1293221,49.5522326 80.1293221,50.3652336 C80.1293221,51.8713488 80.3891977,53.3180098 80.8674223,54.6645402 C81.5442889,55.7113192 82.132612,56.8187499 82.6249591,57.9763861 C85.0452611,61.2882558 89.006898,63.4453602 93.4828857,63.4453602 C100.857855,63.4453602 106.836449,57.589188 106.836449,50.3652336 C106.836449,46.3767182 105.013932,42.8051581 102.140129,40.4059924 L102.173886,40.4345678 C101.886647,40.1932268 101.590334,39.9646345 101.285695,39.749185 C101.262947,39.7331778 101.239973,39.7170555 101.216946,39.701003 L101.285695,39.749185 C101.210982,39.6963453 101.135767,39.6442962 101.060064,39.5930435 L101.216946,39.701003 C101.119314,39.6329444 101.020707,39.56614 100.92115,39.5006138 L101.060064,39.5930435 C100.957355,39.523508 100.853745,39.4554383 100.749261,39.388849 L100.92115,39.5006138 C100.811201,39.4282475 100.700093,39.3574402 100.587859,39.2882243 C100.519285,39.2452432 100.449924,39.2032747 100.380202,39.1619482 L100.587859,39.2882243 C100.458374,39.208369 100.32739,39.1306318 100.194959,39.0550624 L100.380202,39.1619482 C100.288558,39.1076276 100.196291,39.054416 100.103418,39.0023228 L100.194959,39.0550624 C99.6707714,38.7559457 99.1239013,38.4907916 98.557491,38.2626783 C98.5457679,38.2565274 98.5330872,38.2514423 98.5203981,38.2463764 L98.557491,38.2626783 C98.1032538,38.0797411 97.6364496,37.9206262 97.1586992,37.7869213 C97.1269281,37.776948 97.0949397,37.768135 97.0629105,37.7594383 L97.1586992,37.7869213 C96.8995717,37.714401 96.637224,37.649356 96.3719146,37.5920396 C96.3097939,37.5778817 96.2473922,37.5648879 96.1848593,37.5523279 L96.3719146,37.5920396 C96.2756708,37.5712475 96.1790372,37.5514724 96.0820262,37.5327265 L96.1848593,37.5523279 C96.0816002,37.5315878 95.9779832,37.5120305 95.8740247,37.4936645 L96.0820262,37.5327265 C95.9473986,37.5067117 95.8120442,37.4826789 95.675996,37.4606605 L95.8740247,37.4936645 C95.7757006,37.4762939 95.677071,37.459989 95.5781498,37.4447571 L95.675996,37.4606605 C95.5686487,37.4432871 95.4608696,37.4271678 95.3526746,37.4123184 L95.5781498,37.4447571 C95.479472,37.4295626 95.380504,37.4154359 95.2812596,37.4023842 L95.3526746,37.4123184 C95.1953638,37.3907281 95.037174,37.3718225 94.8781553,37.3556504 C94.812819,37.3488236 94.7470634,37.3426323 94.6812005,37.3369108 L94.8781553,37.3556504 C94.760592,37.3436942 94.6425755,37.3332321 94.524126,37.3242838 L94.6812005,37.3369108 C94.5766977,37.3278326 94.4719248,37.3199371 94.3668975,37.3132327 L94.524126,37.3242838 C94.4070843,37.3154419 94.2896198,37.3080779 94.171752,37.302211 L94.3668975,37.3132327 C94.2309649,37.3045555 94.094606,37.2978732 93.9578546,37.2932038 L94.171752,37.302211 C94.0635414,37.2968248 93.954991,37.2927003 93.8461155,37.2898523 L93.8457893,37.2898305 L93.4828857,37.285107 L93.4828857,37.285107 L93.0666739,37.2913397 C93.0406954,37.2921188 93.0147356,37.2929705 92.9887947,37.2938948 C92.8914846,37.2972741 92.7945603,37.3017239 92.6978454,37.3071811 L92.9887947,37.2938948 C92.8391322,37.299227 92.6900981,37.3069717 92.5417317,37.3170905 L92.6978454,37.3071811 C92.5334934,37.3164546 92.3697463,37.3286372 92.2066561,37.3437044 L92.5417317,37.3170905 C92.367388,37.3289809 92.1939663,37.3441494 92.0215304,37.3625336 L92.2066561,37.3437044 C92.0791121,37.3554876 91.9519698,37.369035 91.8252544,37.3843348 L92.0215304,37.3625336 C91.9021781,37.3752582 91.7832981,37.3895234 91.6649115,37.4053084 L91.8252544,37.3843348 C91.662931,37.4039341 91.5013079,37.4264091 91.3404376,37.4517353 L91.6649115,37.4053084 C91.4937506,37.4281301 91.3236212,37.4541285 91.1545872,37.4832411 L91.1542283,37.482381 Z M27.1010231,12.7563411 C21.9540641,12.7356897 16.5529647,13.4362545 10.8977249,14.8580354 C9.95366767,15.0954342 9.37961011,16.05775 9.61554402,17.0074786 C9.70993947,17.3874581 9.92612628,17.7230452 10.2273714,17.964349 L10.4180316,18.0974182 L55.3621347,45.240162 L55.3744656,45.2365343 C55.813271,45.1075737 56.2575958,44.9914564 56.7069844,44.8886174 L56.1348257,45.0274031 C56.3460789,44.9732421 56.5585172,44.9220319 56.7720917,44.8738191 C56.9497529,44.8337128 57.1282773,44.7956652 57.3075605,44.7597202 C57.3346944,44.7542803 57.3617077,44.7489156 57.3887381,44.7435987 C57.5555711,44.7107815 57.7231892,44.6797609 57.8914376,44.6505844 C57.9501473,44.6404028 58.0091481,44.6304103 58.0682252,44.6206449 C58.2360401,44.5929091 58.4039591,44.5670789 58.5724682,44.5430912 C58.6059833,44.5383206 58.6392748,44.5336569 58.672589,44.5290652 C59.0453169,44.4776898 59.4210644,44.4353105 59.7994344,44.4021765 C59.834134,44.3991378 59.8688516,44.3961772 59.903591,44.3932946 C60.082735,44.3784296 60.2624397,44.3656377 60.4427006,44.3549412 C60.4963638,44.3517563 60.550338,44.3487434 60.6043613,44.3459187 C60.7758093,44.3369583 60.947186,44.3299101 61.1190326,44.3247648 C61.1575174,44.3236112 61.1968232,44.3225332 61.2361533,44.3215549 C61.4284338,44.3167768 61.6206853,44.3143813 61.8134844,44.3143813 C62.1815434,44.3143813 62.5476064,44.3231116 62.9114683,44.3403765 C63.2024111,44.3541842 63.4917255,44.3734297 63.7795302,44.3980235 C63.8608858,44.4049754 63.9421923,44.4123615 64.0233755,44.4201734 C64.0598494,44.4236827 64.0965982,44.4273082 64.1333215,44.4310209 C64.4458195,44.462616 64.7563465,44.5005055 65.0648929,44.544573 C65.1914327,44.5626444 65.3178611,44.5817905 65.4439457,44.6019703 C65.5001761,44.6109699 65.5563854,44.620183 65.6125255,44.6296012 C65.7006011,44.6443777 65.7883634,44.6596334 65.8759525,44.6753894 C65.9723596,44.6927326 66.0683444,44.7106408 66.164116,44.7291483 C66.2585977,44.7474039 66.3534699,44.7663663 66.4481278,44.7859154 C66.5175752,44.8002594 66.5864887,44.8148286 66.6552867,44.8297083 C66.7892281,44.8586756 66.922986,44.8888798 67.0562922,44.9202538 C67.0917197,44.928592 67.1269734,44.9369787 67.1621951,44.9454472 C67.2647597,44.9701064 67.3671819,44.9954915 67.4693277,45.0215664 C67.5600551,45.0447263 67.6505883,45.0684368 67.7408995,45.0926881 C67.790826,45.1060951 67.8405961,45.1196429 67.8902979,45.1333548 C68.0097156,45.1662989 68.1289456,45.2002506 68.2477711,45.2351441 C68.3027734,45.251297 68.3572059,45.2675059 68.4115523,45.2839121 C68.530731,45.3198869 68.6500185,45.3569783 68.7688793,45.3950184 C68.8121942,45.4088821 68.8549314,45.4227015 68.8976129,45.4366435 C69.0141125,45.4746952 69.1307159,45.513839 69.2468913,45.5538956 C69.3347855,45.5842037 69.4218416,45.6148216 69.5086523,45.6459513 C69.5710657,45.6683301 69.634,45.6912123 69.6968033,45.7143631 C69.8037292,45.7537815 69.9097586,45.7937794 70.0154047,45.8345417 C70.0839901,45.861005 70.1523156,45.8877513 70.220478,45.9148171 C70.283654,45.9399016 70.3470257,45.9653974 70.4102544,45.9911691 C70.4773009,46.0184976 70.5439835,46.0460513 70.6105044,46.0739114 L70.7143674,46.1177159 C70.9047319,46.1985623 71.0937573,46.281924 71.2813997,46.3677594 C71.3639568,45.9158778 71.4602785,45.4688191 71.5699148,45.0270127 L71.4375254,45.592483 C71.484264,45.3802475 71.5340616,45.1691614 71.5868722,44.9592725 C71.632196,44.7789648 71.6797181,44.5997301 71.7294241,44.4214034 C71.7356915,44.3992475 71.741976,44.3768501 71.748295,44.354467 C72.1291052,43.0044926 72.6352594,41.70691 73.2533351,40.4744243 C69.0574747,33.2446911 61.7336546,25.498441 51.9753082,19.603677 C44.72532,15.2261781 36.7357746,12.9474432 28.0066719,12.7674721 L27.1010231,12.7563411 Z M83.8788388,30.1839246 L83.9241916,30.1628743 L83.9539826,30.1491131 C84.0986334,30.0824229 84.2441117,30.0172048 84.3903974,29.9534779 L83.9241916,30.1628743 C84.0980639,30.0824055 84.2731356,30.0040651 84.4493717,29.9278864 C84.5609018,29.8796771 84.6729091,29.832329 84.7853739,29.7858553 C84.8714206,29.750298 84.9577981,29.7152274 85.0444399,29.6806733 C85.147831,29.6394392 85.2515967,29.5989411 85.355732,29.5591848 C85.3968533,29.5434861 85.4378248,29.527981 85.4788529,29.5125907 C85.6107659,29.4631062 85.7435361,29.4147133 85.8768804,29.3675261 C85.8910413,29.362515 85.905075,29.3575645 85.9191151,29.3526274 C86.0728485,29.2985668 86.2274346,29.2460775 86.3827603,29.1952117 C86.4141167,29.1849428 86.4457383,29.1746641 86.4773904,29.1644529 C86.5935827,29.1269701 86.7098409,29.0904995 86.826498,29.0549392 C86.8771144,29.0395089 86.9281859,29.024137 86.9793329,29.0089398 C87.1287288,28.9645517 87.2785611,28.9217105 87.4290177,28.8803724 C87.4514176,28.8742173 87.4744041,28.8679401 87.4974052,28.861698 C87.6504611,28.8201654 87.8035914,28.7803281 87.9573399,28.7420514 C87.9659094,28.7399181 87.974281,28.7378391 87.9826545,28.7357647 L88.0183415,28.7269546 C88.1555754,28.6931936 88.2932989,28.6606752 88.4314986,28.6294119 C88.4925503,28.6156003 88.5539049,28.601988 88.6153521,28.5886234 C88.9193487,28.5225084 89.2253555,28.462501 89.5334822,28.4086798 C89.5751864,28.4013948 89.6171667,28.3941831 89.6591859,28.3870862 C89.9928589,28.330736 90.328627,28.2816789 90.6666694,28.2400222 C90.6794975,28.2384413 90.6924971,28.2368506 90.7055001,28.2352709 C91.0565621,28.1926225 91.4099293,28.1579645 91.765542,28.131467 C91.7834037,28.1301362 91.8010672,28.1288408 91.8187363,28.1275655 C92.1672058,28.1024124 92.5179043,28.0850921 92.8705642,28.0757861 C92.9026639,28.0749393 92.934657,28.0741615 92.966666,28.0734498 C93.1382928,28.0696337 93.31037,28.0677157 93.4828857,28.0677157 C93.8049497,28.0677157 94.1254853,28.0744004 94.4443552,28.0876385 C94.4628682,28.0884064 94.4821994,28.0892326 94.5015246,28.0900829 C94.8046836,28.1034321 95.1055469,28.1226397 95.4047857,28.1476285 C95.4514214,28.1515241 95.4974398,28.1555084 95.5434193,28.1596292 C95.6424925,28.1685064 95.7418306,28.1780633 95.8409821,28.1882558 C95.9005591,28.1943808 95.9598214,28.2007079 96.0190159,28.2072617 C96.1269358,28.2192085 96.2349455,28.2319483 96.342723,28.2454404 C96.4045352,28.2531785 96.4662101,28.261156 96.5278076,28.2693794 C96.6422101,28.2846527 96.7563056,28.3007683 96.8701279,28.3177254 C96.9121043,28.3239787 96.9541612,28.3303647 96.9961803,28.3368653 C97.0845075,28.3505309 97.1725216,28.3646789 97.2603665,28.3793293 C97.3244399,28.3900152 97.3884018,28.4009646 97.4522724,28.4121798 C97.5859864,28.4356575 97.7195371,28.4603463 97.852675,28.4861935 C97.8773985,28.4909936 97.9017901,28.4957709 97.9261677,28.5005871 C98.0475026,28.5245565 98.1688743,28.5495706 98.2898897,28.5755451 C98.3287981,28.5838973 98.3671501,28.5922343 98.405466,28.6006677 C98.495492,28.6204816 98.5855792,28.6408882 98.675462,28.6618264 C98.743863,28.6777605 98.8121351,28.6939998 98.8802872,28.7105454 C99.1479115,28.7755158 99.4138326,28.8452496 99.6778049,28.9196173 C99.7164945,28.9305185 99.7544817,28.9413292 99.7924281,28.9522359 C99.8920466,28.9808664 99.9918187,29.0102891 100.091302,29.0403733 C100.142061,29.0557223 100.192982,29.0713174 100.243827,29.0870856 C100.295335,29.1030602 100.346409,29.1190999 100.397406,29.1353141 C100.515626,29.1729008 100.633637,29.2114964 100.751217,29.2510246 C100.991438,29.3317831 101.229823,29.4164208 101.46633,29.5048752 C101.495606,29.5158239 101.525214,29.5269678 101.554792,29.5381714 C101.684175,29.5871813 101.81264,29.6371949 101.940529,29.688334 C101.963204,29.6974021 101.98522,29.7062467 102.007219,29.7151247 C102.124245,29.7623489 102.241302,29.810736 102.357859,29.8600655 C102.395933,29.8761802 102.433634,29.8922579 102.471282,29.9084341 C102.729841,30.0195252 102.986192,30.1354005 103.239934,30.2558293 C103.260241,30.2654673 103.280586,30.2751604 103.300914,30.2848827 C103.405062,30.3346952 103.508689,30.3852364 103.611866,30.4365373 C103.675091,30.4679736 103.738197,30.4997201 103.801132,30.5317507 C104.018947,30.6426081 104.234671,30.7568435 104.448276,30.8744099 L104.508773,30.9078278 C104.531611,30.9204887 104.554425,30.9331877 104.577214,30.9459248 C104.807585,31.0746832 105.035345,31.2072646 105.260512,31.343643 C105.285751,31.3589283 105.31167,31.3746967 105.337554,31.3905153 C105.5784,31.5377183 105.815473,31.6887588 106.049457,31.8440178 C106.073537,31.8599958 106.097486,31.8759532 106.121402,31.8919548 C106.364824,32.0548188 106.604786,32.2221985 106.84125,32.3940306 C106.861813,32.4089722 106.882862,32.4243225 106.903882,32.4397081 C106.995117,32.5064873 107.085406,32.5736141 107.175167,32.6413925 C107.212302,32.6694321 107.249626,32.6977965 107.286858,32.7262737 C107.488988,32.880882 107.688104,33.0385685 107.884424,33.1994854 L108.096309,33.3753255 L129.268246,12.249858 L129.415512,12.0834759 C129.955827,11.3903368 129.911061,10.3846644 129.278478,9.74305463 C128.950124,9.41001453 128.503938,9.22147981 128.037668,9.21875389 C111.90988,9.12446714 98.98869,13.9234385 89.2740971,23.6156681 C87.371938,25.5136035 85.626556,27.4792197 84.039806,29.480327 L83.2596589,30.4836892 L83.3462092,30.4403822 C83.5224519,30.3526669 83.7000078,30.2671689 83.8788388,30.1839246 Z"/>
      </g>
      <g fill="#037092" fill-rule="nonzero" transform="matrix(-1 0 0 1 219 185)">
        <path d="M14.6579114,89.8195384 L14.4966229,90.0914075 C13.1990155,92.1187009 10.5245084,92.8260956 8.37164707,91.658268 C6.21878578,90.4904403 5.36884658,87.8711965 6.38022526,85.6886373 L6.52274579,85.4065874 L13.7167706,72.2869011 L9.55638001,72.2873903 C6.12977987,72.2873903 3.33026807,69.6171176 3.14744129,66.2545097 L3.13794394,65.9042652 L3.13794394,55.206889 C3.13794394,51.7991275 5.82322329,49.0150291 9.20422141,48.8332089 L9.55638001,48.8237639 L126.686015,48.8237639 C130.112628,48.8237639 132.912128,51.4942702 133.094954,54.8566678 L133.104451,55.206889 L133.104451,65.9042652 C133.104451,69.3122555 130.419394,72.0961404 127.038196,72.277946 L126.686015,72.2873903 L119.575464,72.2869011 L126.770588,85.4065874 C127.995932,87.6406924 127.16815,90.4396652 124.921686,91.658268 C122.768825,92.8260956 120.094318,92.1187009 118.79671,90.0914075 L118.635422,89.8195384 L109.018877,72.2869011 L24.2733573,72.2869011 L14.6579114,89.8195384 Z M123.836827,58.038549 L12.4033067,58.038549 L12.4033067,63.0703137 L123.836827,63.0703137 L123.836827,58.038549 Z"/>
        <path d="M110.523154,3.97862216 L86.3902267,24.991098 L16.4181598,24.9926935 C7.50403529,24.9926935 0.266708904,32.1903756 0.266708904,41.0552875 C0.266708904,49.9204036 7.50400264,57.1178815 16.4181598,57.1178815 L92.4618704,57.1178815 C96.3763003,57.1178815 100.155998,55.7046898 103.101328,53.140247 L131.803478,28.1475519 C135.035987,25.3326619 136.995078,21.3898606 137.27979,17.1266415 C137.5635,12.861214 136.14524,8.69595295 133.315467,5.48185161 L132.922698,5.05139248 C130.264972,2.24150223 126.703375,0.487227012 122.834124,0.0885094051 L122.222537,0.0344984942 C117.93904,-0.243419193 113.753687,1.16496983 110.523154,3.97862216 Z M121.619263,9.23063502 C123.454348,9.3518276 125.132345,10.1765053 126.343596,11.5527039 C127.55461,12.9281924 128.154881,14.6909291 128.033494,16.5159191 C127.921005,18.2003067 127.205983,19.7515796 126.008428,20.9278975 L125.699055,21.2140254 L96.9972215,46.2064459 C95.8458897,47.2088884 94.3965615,47.7984202 92.8776674,47.889714 L92.4618704,47.9021953 L16.4181598,47.9021953 C12.6218413,47.9021953 9.53337557,44.8307206 9.53337557,41.0552875 C9.53337557,37.4018716 12.4257993,34.4072867 16.0530638,34.2178894 L16.4181598,34.2083798 L89.8737095,34.2083798 L116.628353,10.911472 C117.905278,9.79932613 119.513789,9.20673069 121.197041,9.21558625 L121.619263,9.23063502 Z"/>
      </g>
    </g>
    <g transform="translate(232 140)">
      <path fill="#037092" d="M53.9170122,5.56874486 L54.037455,11.1263402 C30.738458,11.6243007 11.9114589,30.2622525 11.1754193,53.5574691 C10.8252429,64.6215299 14.6035792,75.3121203 21.8123058,83.6551824 C26.6077149,89.2016625 28.0396464,96.9778499 25.5527249,103.947074 L24.9683542,105.581007 L30.1206309,101.728482 C34.7866755,98.2405356 40.7731304,96.8978205 46.5410039,98.029347 C50.5156174,98.8118564 54.5972912,99.0341602 58.6767345,98.7007045 C80.7668423,96.8711441 98.0236239,78.7733906 98.8198848,56.6030313 C99.2570477,44.3518682 94.7649761,32.8187463 86.1689265,24.1266672 C77.6174853,15.4812719 66.2490201,10.8417913 54.037455,11.1263402 L53.9170122,5.56874486 Z M20.0368893,121 C18.2235555,121 16.4102217,120.430902 14.855617,119.292707 C11.7174121,116.991862 10.4862187,112.988171 11.7932464,109.326827 L15.0452029,100.221263 C16.1938707,97.0067494 15.5492785,93.4387732 13.3634641,90.9089558 C4.3280212,80.4495614 -0.409396907,67.0602027 0.0277659699,53.2084521 C0.951161026,24.0044001 24.5691085,0.638046272 53.7965694,0.0111495185 C69.0281269,-0.28896063 83.3831283,5.47760029 94.1114622,16.3238034 C104.884405,27.2166902 110.513992,41.661992 109.963077,56.9987321 C108.968309,84.7933779 87.3175942,107.483928 59.6001296,109.77588 C54.4880004,110.198258 49.3714105,109.915932 44.3819546,108.933349 C41.6987559,108.404266 38.9486445,109.022271 36.8141299,110.618412 L25.2850742,119.2438 C23.7193174,120.415341 21.8792185,121 20.0368893,121 L20.0368893,121 Z"/>
      <path fill="#5CD999" d="M53.5373076,28 C57.7507618,28 61.2400969,29.2452 63.7099773,31.2318 C66.4533167,33.434 68,36.547 68,40.0868 C68,46.5306 62.515509,51.3244 60.7128682,52.7764 C58.2670521,54.7608 58.2933042,56.1688 58.2933042,58.5426 C58.2933042,59.8428 57.8579577,61.2134 56.5169154,62.1792 C55.7490429,62.7336 54.5808266,63.2 52.7278694,63.2 C50.629893,63.2 49.3916712,62.5774 48.5625439,61.5258 C47.8603016,60.6392 47.3965154,59.2642 47.3965154,56.985 C47.3965154,50.8822 50.0239081,47.9914 52.0168763,46.2094 C52.3887804,45.8838 52.8066255,45.5494 53.241972,45.2018 C54.5283225,44.1788 56.4097195,43.0788 56.4097195,41.1076 C56.4097195,40.5774 56.2259552,40.1594 55.8715525,39.8822 C55.2502539,39.3938 54.3401828,39.231 53.3644816,39.231 C51.1177436,39.231 50.4439409,40.2408 49.8817095,41.101 C48.8119384,42.7356 47.7727947,43.8466 45.6201266,43.8466 C44.2484569,43.8466 42.7170873,43.3076 41.6123135,42.2186 C40.671615,41.2946 40,39.9834 40,38.23 C40,35.8848 41.3191656,32.8136 44.4365966,30.6158 C46.5739511,29.1066 49.5776233,28 53.5373076,28 M62.7517775,74.2 C62.7517775,78.886 58.8620986,83 53.9442144,83 C49.0241425,83 45.2504102,78.886 45.2504102,74.2 C45.2504102,69.3996 49.1379014,65.4 53.9442144,65.4 C58.746152,65.4 62.7517775,69.3996 62.7517775,74.2"/>
    </g>
  </g>
</svg>
