<svg xmlns="http://www.w3.org/2000/svg" width="32" height="32" viewBox="0 0 32 32">
  <g fill="none" fill-rule="evenodd">
    <path fill="#8DDFF8" fill-rule="nonzero" d="M32,6.67751479 L32,25.3224852 C32,26.5269231 31.0137931,27.5 29.7931034,27.5 L2.20689655,27.5 C0.986206897,27.5 0,26.5269231 0,25.3224852 L0,6.67751479 C0,5.47307692 0.986206897,4.5 2.20689655,4.5 L29.7931034,4.5 C31.0137931,4.5 32,5.47307692 32,6.67751479 Z"/>
    <path fill="#96E3FA" fill-rule="nonzero" d="M32,6.67687075 L32,8.36394558 C32,9.00340136 31.4482759,9.45238095 30.9517241,9.45238095 C19.3655172,10.0170068 10.3172414,16.8605442 6.53103448,26.792517 C6.37241379,27.2142857 5.95862069,27.5 5.49655172,27.5 L2.20689655,27.5 C0.986206897,27.5 0,26.5272109 0,25.3231293 L0,6.67687075 C0,5.47278912 0.986206897,4.5 2.20689655,4.5 L29.7931034,4.5 C31.0137931,4.5 32,5.47278912 32,6.67687075 Z"/>
    <polygon fill="#025B76" fill-rule="nonzero" points="0 9.5 32 9.5 32 14 0 14"/>
    <path fill="#006683" fill-rule="nonzero" d="M32,9.5 C31.3006623,9.71171489 24.3284768,9.38752646 17.0737307,13.9857092 C17.0454746,14.0055575 17.8437086,13.9989414 0,13.9989414 L0,9.5 L32,9.5 Z"/>
    <path fill="#FFF" fill-rule="nonzero" d="M5.42168675 1L.578313253 1C.260240964 1 0 .775 0 .5 0 .225.260240964 0 .578313253 0L5.42168675 0C5.73975904 0 6 .225 6 .5 6 .775 5.73975904 1 5.42168675 1zM5.42168675 4L.578313253 4C.260240964 4 0 3.775 0 3.5 0 3.225.260240964 3 .578313253 3L5.42168675 3C5.73975904 3 6 3.225 6 3.5 6 3.775 5.73975904 4 5.42168675 4z" transform="translate(4 18.5)"/>
  </g>
</svg>
