<svg xmlns="http://www.w3.org/2000/svg" width="32" height="32" viewBox="0 0 32 32">
  <g fill="none" fill-rule="evenodd">
    <path fill="#2890C3" d="M26.206,8.7342 C26.5768,6.3706 26.2034,4.7622 24.925,3.3054 C23.5174,1.7016 20.9746,1.0144 17.7212,1.0144 L8.2772,1.0144 C7.6122,1.0144 7.0462,1.4982 6.9426,2.155 L3.01,27.0916 C2.9324,27.5836 3.3128,28.0286 3.8108,28.0286 L9.641,28.0286 L9.2386,30.5804 C9.1708,31.0108 9.5034,31.4 9.9392,31.4 L14.8534,31.4 C15.435,31.4 15.9302,30.9768 16.0208,30.4022 L16.0692,30.1524 L16.9948,24.282 L17.0546,23.9576 C17.1452,23.383 17.6404,22.9598 18.2222,22.9598 L18.9572,22.9598 C23.718,22.9598 27.4458,21.0256 28.535,15.432 C28.9902,13.0946 28.7548,11.1436 27.5512,9.772 C27.1872,9.3572 26.7342,9.014 26.206,8.7342"/>
    <path fill="#20274F" d="M26.206,8.7342 C26.5768,6.3706 26.2034,4.7622 24.925,3.3054 C23.5174,1.7016 20.9746,1.0144 17.7212,1.0144 L8.2772,1.0144 C7.6122,1.0144 7.0462,1.4982 6.9426,2.155 L3.01,27.0916 C2.9324,27.5836 3.3128,28.0286 3.8108,28.0286 L9.641,28.0286 L11.1056,18.7418 L11.0602,19.033 C11.1638,18.3762 11.7252,17.8924 12.39,17.8924 L15.161,17.8924 C20.6032,17.8924 24.8644,15.6816 26.1094,9.2874 C26.1464,9.098 26.1778,8.9146 26.206,8.7342"/>
    <path fill="#28346A" d="M12.6788,8.7656 C12.7412,8.3706 12.9948,8.047 13.336,7.8834 C13.4912,7.8092 13.6646,7.7678 13.8464,7.7678 L21.2492,7.7678 C22.1262,7.7678 22.9438,7.8252 23.6914,7.9456 C23.905,7.98 24.113,8.0196 24.315,8.0644 C24.5168,8.1092 24.7128,8.1592 24.9026,8.2148 C24.9976,8.2424 25.091,8.2716 25.1826,8.302 C25.5498,8.4238 25.8916,8.5676 26.206,8.7342 C26.5768,6.3706 26.2034,4.7622 24.925,3.3054 C23.5174,1.7016 20.9746,1.0144 17.7212,1.0144 L8.2772,1.0144 C7.6122,1.0144 7.0462,1.4982 6.9426,2.155 L3.01,27.0916 C2.9326,27.5836 3.3128,28.0286 3.8108,28.0286 L9.641,28.0286 L12.6788,8.7656"/>
  </g>
</svg>
