<svg xmlns="http://www.w3.org/2000/svg" width="64" height="64" viewBox="0 0 64 64">
  <g fill="none" fill-rule="evenodd" transform="translate(14 14)">
    <path fill="#037092" d="M9,18.5 C9,23.7383 13.2617,28 18.5,28 C23.7383,28 28,23.7383 28,18.5 C28,13.2617 23.7383,9 18.5,9 C13.2617,9 9,13.2617 9,18.5 Z M18.5,11.1111111 C22.5742333,11.1111111 25.8888889,14.4257667 25.8888889,18.5 C25.8888889,22.5742333 22.5742333,25.8888889 18.5,25.8888889 C14.4257667,25.8888889 11.1111111,22.5742333 11.1111111,18.5 C11.1111111,14.4257667 14.4257667,11.1111111 18.5,11.1111111 Z"/>
    <path fill="#5CD999" d="M26.3002607 26.3003086C25.8999131 26.7006518 25.8999131 27.3496889 26.3002607 27.750032L31.25 32.699717C31.6502792 33.1000602 32.2993918 33.1001285 32.6997393 32.699717 33.1000869 32.2993738 33.1000869 31.6503368 32.6997393 31.2499936L27.75 26.3003086C27.3496524 25.8998971 26.7005399 25.8998971 26.3002607 26.3003086zM4.75 3.30025958C4.34972077 2.89991347 3.70060824 2.89991347 3.30026068 3.30025958 2.89991311 3.70060568 2.89991311 4.34964749 3.30026068 4.74999359L8.25 9.69971479C8.65027923 10.1000609 9.29939176 10.1001292 9.69973932 9.69971479 10.1000869 9.29936869 10.1000869 8.65032688 9.69973932 8.24998078L4.75 3.30025958zM3.30026068 32.6997148C3.7005399 33.1000609 4.34965243 33.1001292 4.75 32.6997148L9.69973932 27.7499936C10.1000869 27.3496475 10.1000869 26.7006057 9.69973932 26.3002596 9.2994601 25.8999135 8.65034757 25.8999135 8.25 26.3002596L3.30026068 31.2499808C2.89991311 31.6503269 2.89991311 32.2993687 3.30026068 32.6997148zM32.6997393 3.30025958C32.2994601 2.89991347 31.6503476 2.89991347 31.25 3.30025958L26.3002607 8.24998078C25.8999131 8.65032688 25.8999131 9.29936869 26.3002607 9.69971479 26.7005399 10.1000609 27.3496524 10.1001292 27.75 9.69971479L32.6997393 4.74999359C33.1000869 4.34964749 33.1000869 3.70060568 32.6997393 3.30025958zM22.6698508 29.0793595C22.1163939 29.2990241 21.8536212 29.9070861 22.0828423 30.4374687L22.9129553 32.3580441C23.1418872 32.8875951 23.7758969 33.1405905 24.3301492 32.9205795 24.8836061 32.7009149 25.1463788 32.0928528 24.9171577 31.5624702L24.0870447 29.6418948C23.8577512 29.1115123 23.2233077 28.8597642 22.6698508 29.0793595zM13.3301492 6.92057947C13.8836061 6.70091488 14.1463788 6.09285279 13.9171577 5.5624702L13.0870447 3.64189484C12.8577512 3.11151226 12.2233077 2.85976416 11.6698508 3.07935946 11.1163939 3.29902405 10.8536212 3.90708614 11.0828423 4.43746873L11.9129553 6.35804409C12.1419595 6.88759514 12.7758969 7.14059054 13.3301492 6.92057947zM5.56250116 22.0827729L3.64192437 22.9128962C3.11154138 23.1421201 2.8597238 23.7766438 3.07938856 24.3301075 3.29877614 24.8827035 3.90635361 25.1467087 4.43749884 24.9171233L6.35807563 24.087C6.88845862 23.857776 7.1402762 23.2232524 6.92061144 22.6697886 6.70094668 22.1163972 6.09295344 21.8536935 5.56250116 22.0827729zM30.4374988 13.9171538L32.3580756 13.0870333C32.8884586 12.8578101 33.1402762 12.2232885 32.9206114 11.6698266 32.7009467 11.1163647 32.0929534 10.8536619 31.5625012 11.0828127L29.6419244 11.9129333C29.1115414 12.1421565 28.8597238 12.7766781 29.0793886 13.33014 29.2987761 13.8827342 29.9063536 14.1466663 30.4374988 13.9171538zM11.9129553 29.6418909L11.0828423 31.5624546C10.8536212 32.092834 11.1163939 32.700823 11.6698508 32.9205556 12.2255493 33.1410504 12.8586913 32.8862549 13.0870447 32.3580236L13.9171577 30.43746C14.1463788 29.9070806 13.8836061 29.2990915 13.3301492 29.079359 12.77662 28.859765 12.1421764 29.1115116 11.9129553 29.6418909zM24.0870447 6.35802363L24.9171577 4.43745997C25.1463788 3.90708061 24.8836061 3.29909153 24.3301492 3.07935897 23.7766923 2.85976501 23.1422488 3.11151158 22.9129553 3.64189093L22.0828423 5.5624546C21.8536212 6.09283395 22.1163939 6.70082304 22.6698508 6.92055559 23.2255493 7.14105038 23.8587636 6.88625486 24.0870447 6.35802363L24.0870447 6.35802363zM6.35807563 11.9129374L4.43749884 11.0828407C3.90711586 10.8536241 3.29912261 11.1163916 3.07938856 11.6698377 2.8597238 12.2232837 3.11154138 12.8577148 3.64192437 13.0870037L5.56250116 13.9171005C6.09503228 14.1471848 6.70177822 13.881308 6.92061144 13.3301035 7.1402762 12.7766574 6.88845862 12.142154 6.35807563 11.9129374L6.35807563 11.9129374zM32.3580756 22.9129163L30.4374988 22.0828112C29.9071159 21.8536646 29.2991226 22.1163625 29.0793886 22.6698141 28.8597238 23.2232658 29.1115414 23.8577033 29.6419244 24.0869945L31.5625012 24.9170996C32.0950323 25.1471863 32.7017782 24.8813068 32.9206114 24.3300967 33.1402762 23.7766451 32.8884586 23.1421353 32.3580756 22.9129163zM17 30.989011L17 35.010989C17 35.5571868 17.4477333 36 18 36 18.5522667 36 19 35.5571868 19 35.010989L19 30.989011C19 30.4428132 18.5522667 30 18 30 17.4477333 30 17 30.4428132 17 30.989011zM19 5.01098901L19 .989010989C19 .442813187 18.5522667 0 18 0 17.4477333 0 17 .442813187 17 .989010989L17 5.01098901C17 5.55718681 17.4477333 6 18 6 18.5522667 6 19 5.55718681 19 5.01098901zM0 18C0 18.5522667.442813187 19 .989010989 19L5.01098901 19C5.55718681 19 6 18.5522667 6 18 6 17.4477333 5.55718681 17 5.01098901 17L.989010989 17C.442813187 17 0 17.4477333 0 18zM35.010989 17L30.989011 17C30.4428132 17 30 17.4477333 30 18 30 18.5522667 30.4428132 19 30.989011 19L35.010989 19C35.5571868 19 36 18.5522667 36 18 36 17.4477333 35.5571868 17 35.010989 17z"/>
  </g>
</svg>
