<svg xmlns="http://www.w3.org/2000/svg" width="64" height="64" viewBox="0 0 64 64">
  <path fill-rule="evenodd" d="M9 18.5C9 23.7383 13.2617 28 18.5 28 23.7383 28 28 23.7383 28 18.5 28 13.2617 23.7383 9 18.5 9 13.2617 9 9 13.2617 9 18.5zM18.5 11.1111111C22.5742333 11.1111111 25.8888889 14.4257667 25.8888889 18.5 25.8888889 22.5742333 22.5742333 25.8888889 18.5 25.8888889 14.4257667 25.8888889 11.1111111 22.5742333 11.1111111 18.5 11.1111111 14.4257667 14.4257667 11.1111111 18.5 11.1111111zM18 30C18.5522667 30 19 30.4428132 19 30.989011L19 30.989011 19 35.010989C19 35.5571868 18.5522667 36 18 36 17.4477333 36 17 35.5571868 17 35.010989L17 35.010989 17 30.989011C17 30.4428132 17.4477333 30 18 30zM22.6698508 29.0793595C23.2233077 28.8597642 23.8577512 29.1115123 24.0870447 29.6418948L24.0870447 29.6418948 24.9171577 31.5624702C25.1463788 32.0928528 24.8836061 32.7009149 24.3301492 32.9205795 23.7758969 33.1405905 23.1418872 32.8875951 22.9129553 32.3580441L22.9129553 32.3580441 22.0828423 30.4374687C21.8536212 29.9070861 22.1163939 29.2990241 22.6698508 29.0793595zM11.9129553 29.6418909C12.1421764 29.1115116 12.77662 28.859765 13.3301492 29.079359 13.8836061 29.2990915 14.1463788 29.9070806 13.9171577 30.43746L13.9171577 30.43746 13.0870447 32.3580236C12.8586913 32.8862549 12.2255493 33.1410504 11.6698508 32.9205556 11.1163939 32.700823 10.8536212 32.092834 11.0828423 31.5624546L11.0828423 31.5624546zM26.3002607 26.3003086C26.7005399 25.8998971 27.3496524 25.8998971 27.75 26.3003086L27.75 26.3003086 32.6997393 31.2499936C33.1000869 31.6503368 33.1000869 32.2993738 32.6997393 32.699717 32.2993918 33.1001285 31.6502792 33.1000602 31.25 32.699717L31.25 32.699717 26.3002607 27.750032C25.8999131 27.3496889 25.8999131 26.7006518 26.3002607 26.3003086zM8.25 26.3002596C8.65034757 25.8999135 9.2994601 25.8999135 9.69973932 26.3002596 10.1000869 26.7006057 10.1000869 27.3496475 9.69973932 27.7499936L9.69973932 27.7499936 4.75 32.6997148C4.34965243 33.1001292 3.7005399 33.1000609 3.30026068 32.6997148 2.89991311 32.2993687 2.89991311 31.6503269 3.30026068 31.2499808L3.30026068 31.2499808zM5.56250116 22.0827729C6.09295344 21.8536935 6.70094668 22.1163972 6.92061144 22.6697886 7.1402762 23.2232524 6.88845862 23.857776 6.35807563 24.087L6.35807563 24.087 4.43749884 24.9171233C3.90635361 25.1467087 3.29877614 24.8827035 3.07938856 24.3301075 2.8597238 23.7766438 3.11154138 23.1421201 3.64192437 22.9128962L3.64192437 22.9128962zM29.0793886 22.6698141C29.2991226 22.1163625 29.9071159 21.8536646 30.4374988 22.0828112L30.4374988 22.0828112 32.3580756 22.9129163C32.8884586 23.1421353 33.1402762 23.7766451 32.9206114 24.3300967 32.7017782 24.8813068 32.0950323 25.1471863 31.5625012 24.9170996L31.5625012 24.9170996 29.6419244 24.0869945C29.1115414 23.8577033 28.8597238 23.2232658 29.0793886 22.6698141zM5.01098901 17C5.55718681 17 6 17.4477333 6 18 6 18.5522667 5.55718681 19 5.01098901 19L5.01098901 19 .989010989 19C.442813187 19 0 18.5522667 0 18 0 17.4477333.442813187 17 .989010989 17L.989010989 17zM35.010989 17C35.5571868 17 36 17.4477333 36 18 36 18.5522667 35.5571868 19 35.010989 19L35.010989 19 30.989011 19C30.4428132 19 30 18.5522667 30 18 30 17.4477333 30.4428132 17 30.989011 17L30.989011 17zM31.5625012 11.0828127C32.0929534 10.8536619 32.7009467 11.1163647 32.9206114 11.6698266 33.1402762 12.2232885 32.8884586 12.8578101 32.3580756 13.0870333L32.3580756 13.0870333 30.4374988 13.9171538C29.9063536 14.1466663 29.2987761 13.8827342 29.0793886 13.33014 28.8597238 12.7766781 29.1115414 12.1421565 29.6419244 11.9129333L29.6419244 11.9129333zM3.07938856 11.6698377C3.29912261 11.1163916 3.90711586 10.8536241 4.43749884 11.0828407L4.43749884 11.0828407 6.35807563 11.9129374C6.88845862 12.142154 7.1402762 12.7766574 6.92061144 13.3301035 6.70177822 13.881308 6.09503228 14.1471848 5.56250116 13.9171005L5.56250116 13.9171005 3.64192437 13.0870037C3.11154138 12.8577148 2.8597238 12.2232837 3.07938856 11.6698377zM3.30026068 3.30025958C3.70060824 2.89991347 4.34972077 2.89991347 4.75 3.30025958L4.75 3.30025958 9.69973932 8.24998078C10.1000869 8.65032688 10.1000869 9.29936869 9.69973932 9.69971479 9.29939176 10.1001292 8.65027923 10.1000609 8.25 9.69971479L8.25 9.69971479 3.30026068 4.74999359C2.89991311 4.34964749 2.89991311 3.70060568 3.30026068 3.30025958zM31.25 3.30025958C31.6503476 2.89991347 32.2994601 2.89991347 32.6997393 3.30025958 33.1000869 3.70060568 33.1000869 4.34964749 32.6997393 4.74999359L32.6997393 4.74999359 27.75 9.69971479C27.3496524 10.1001292 26.7005399 10.1000609 26.3002607 9.69971479 25.8999131 9.29936869 25.8999131 8.65032688 26.3002607 8.24998078L26.3002607 8.24998078zM11.6698508 3.07935946C12.2233077 2.85976416 12.8577512 3.11151226 13.0870447 3.64189484L13.0870447 3.64189484 13.9171577 5.5624702C14.1463788 6.09285279 13.8836061 6.70091488 13.3301492 6.92057947 12.7758969 7.14059054 12.1419595 6.88759514 11.9129553 6.35804409L11.9129553 6.35804409 11.0828423 4.43746873C10.8536212 3.90708614 11.1163939 3.29902405 11.6698508 3.07935946zM22.9129553 3.64189093C23.1422488 3.11151158 23.7766923 2.85976501 24.3301492 3.07935897 24.8836061 3.29909153 25.1463788 3.90708061 24.9171577 4.43745997L24.9171577 4.43745997 24.0870447 6.35802363C23.8587636 6.88625486 23.2255493 7.14105038 22.6698508 6.92055559 22.1163939 6.70082304 21.8536212 6.09283395 22.0828423 5.5624546L22.0828423 5.5624546zM18 0C18.5522667 0 19 .442813187 19 .989010989L19 .989010989 19 5.01098901C19 5.55718681 18.5522667 6 18 6 17.4477333 6 17 5.55718681 17 5.01098901L17 5.01098901 17 .989010989C17 .442813187 17.4477333 0 18 0z" transform="translate(14 14)"/>
</svg>
