<svg xmlns="http://www.w3.org/2000/svg" width="64" height="64" viewBox="0 0 64 64">
  <g fill-rule="evenodd" transform="translate(14 14)">
    <path d="M35.6910635,0.308917742 C35.279242,-0.102972581 34.6113416,-0.102972581 34.1994498,0.308917742 L31.1274877,3.38086862 C30.9386277,3.29086868 30.7393615,3.21837655 30.5313062,3.16641565 L20.9848798,0.80792519 C19.9128923,0.539964448 18.7614514,0.858831402 17.9800663,1.64021364 L0.92522732,18.6669355 C-0.308409107,19.9006378 -0.308409107,21.9080582 0.92522732,23.1418307 L12.8582076,35.074697 C14.0919143,36.3083992 16.0993421,36.3084695 17.3331191,35.074697 L34.3599034,18.0198501 C35.1412885,17.2384678 35.4602269,16.0870312 35.1921246,15.0149773 L32.8336958,5.46865615 C32.7816644,5.26067193 32.7092423,5.06133614 32.619242,4.8724769 L35.6912042,1.80052602 C36.1029554,1.3886357 36.1029554,0.720808066 35.6910635,0.308917742 Z M33.1455327,15.5267113 C33.2349001,15.8840391 33.1285873,16.2678045 32.868149,16.5283121 L15.8413648,33.5830887 C15.4301058,33.9943462 14.7609397,33.9943462 14.3496807,33.5830887 L2.41677075,21.6501521 C2.00551173,21.2388946 2.00551173,20.569731 2.41677075,20.1584735 L19.4716801,3.13182192 C19.6711572,2.93234551 19.9429862,2.8232909 20.2198776,2.8232909 C20.3045341,2.8232909 20.3896828,2.83348621 20.4732846,2.854369 L29.440264,5.06801582 L26.9002175,7.60805302 C25.7242375,7.04794406 24.2716473,7.25339703 23.2995038,8.22553694 C22.0657268,9.45930948 22.0657268,11.4666596 23.2995038,12.7004321 C23.9162869,13.3172832 24.7266408,13.6257439 25.5369244,13.6257439 C26.3471377,13.6257439 27.1574917,13.3173535 27.7742747,12.7004321 C28.7466291,11.7281516 28.9520126,10.275637 28.3917609,9.0996613 L30.9318074,6.5596241 L33.1455327,15.5267113 Z M26.2827313,11.2088941 C25.8715426,11.6200813 25.2023766,11.6201516 24.7911176,11.2088941 C24.3799288,10.7977069 24.3799288,10.1284731 24.7911176,9.71728585 C24.9967822,9.51162194 25.266783,9.40889545 25.5369244,9.40889545 C25.8069252,9.40889545 26.0770666,9.51169225 26.2825907,9.71721554 L26.282661,9.71728585 L26.2827313,9.71735616 C26.6939903,10.1285434 26.69392,10.7977069 26.2827313,11.2088941 Z"/>
    <path d="M19,16.105568 C19,13.8417622 17.2055822,12 14.99997,12 C12.7943577,12 11,13.8417622 11,16.105568 C11,18.0514076 12.3262748,19.6842752 14.0994271,20.104839 L14.0994271,29 L15.9005729,29 L15.9005729,28.4533473 L16.8067026,28.4533473 L16.8067026,26.6046794 L15.9005729,26.6046794 L15.9005729,26.0809015 L17.3718622,26.0809015 L17.3718622,24.2322337 L15.9005729,24.2322337 L15.9005729,20.1049007 C17.6737252,19.6843369 19,18.0514693 19,16.105568 Z M15.00003,18.3623449 C13.7875921,18.3623449 12.801206,17.3499336 12.801206,16.1055064 C12.801206,14.8610791 13.7875921,13.8486678 15.00003,13.8486678 C16.212468,13.8486678 17.1989142,14.8610791 17.1989142,16.1055064 C17.1989142,17.3499336 16.212468,18.3623449 15.00003,18.3623449 Z"/>
  </g>
</svg>
