<svg xmlns="http://www.w3.org/2000/svg" width="24" height="24" viewBox="0 0 24 24">
  <path fill="#FFF" fill-rule="evenodd" d="M16.3486122,18.3333333 C16.6247546,18.3333333 16.8486122,18.557191 16.8486122,18.8333333 C16.8486122,19.0005099 16.7650616,19.1566256 16.6259623,19.2493585 L12.5547002,21.9635332 C12.2188008,22.1874661 11.7811992,22.1874661 11.4452998,21.9635332 L7.37403772,19.2493585 C7.14427338,19.0961823 7.08218644,18.7857476 7.23536267,18.5559832 C7.32809556,18.4168839 7.48421122,18.3333333 7.65138782,18.3333333 L16.3486122,18.3333333 Z M11.2129932,5.33333333 C11.7339208,5.33333333 12.2189222,5.41416691 12.6410532,5.57583408 C13.0721656,5.73750124 13.4404075,6.00694651 13.7457788,6.36620687 C14.0511501,6.72546723 14.2846693,7.20148721 14.4463365,7.7942668 C14.5956541,8.30509012 14.676207,8.91906047 14.6940121,9.63016092 L14.6978187,9.94084745 L14.6978187,11.6652972 C14.6978187,12.509559 14.6080036,13.2280797 14.4463365,13.8118778 C14.2846693,14.4046574 14.0511501,14.8806774 13.7457788,15.2489193 C13.4404075,15.6171611 13.0811471,15.8866064 12.6500347,16.0482736 C12.2279037,16.2189222 11.7518838,16.2997558 11.2219747,16.2997558 C10.7010472,16.2997558 10.2250272,16.2099407 9.79391481,16.0482736 C9.36280238,15.8866064 8.99456051,15.6171611 8.6891892,15.2489193 C8.37483639,14.8806774 8.14131715,14.4046574 7.97066848,13.8118778 C7.8213509,13.3010545 7.74079799,12.6870842 7.72299285,11.9759837 L7.71918623,11.6652972 L7.71918623,9.94084745 C7.71918623,9.0965856 7.80900132,8.37806488 7.97066848,7.7942668 C8.14131715,7.20148721 8.37483639,6.73444874 8.68020769,6.36620687 C8.985579,5.997965 9.35382087,5.73750124 9.7849333,5.57583408 C10.2160457,5.41416691 10.6920657,5.33333333 11.2129932,5.33333333 Z M17.9302842,7.06118134 L17.9302842,12.5389106 L20.4426262,9.58725197 L22.5842948,9.58725197 L19.9621236,12.5938252 L22.6666667,16.2181874 L20.4838122,16.2181874 L18.7265456,13.6646595 L17.9302842,14.5158354 L17.9302842,16.2181874 L16.1867463,16.2181874 L16.1867463,7.06118134 L17.9302842,7.06118134 Z M5.82408783,5.42314842 L5.82408783,16.2009592 L4.02778603,16.2009592 L4.02778603,7.57871058 L1.33333333,8.47686148 L1.33333333,6.96796797 L5.59955011,5.42314842 L5.82408783,5.42314842 Z M11.2129932,6.75241176 C10.943548,6.75241176 10.7010472,6.80630081 10.485491,6.90509741 C10.2699348,7.01287552 10.0903046,7.17454268 9.94660046,7.3990804 C9.79391481,7.63259964 9.6861367,7.92898943 9.60530312,8.2972313 C9.5379418,8.60409953 9.50176628,8.97333934 9.49157892,9.39975311 L9.4885435,9.66242067 L9.4885435,11.9077979 C9.4885435,12.4466885 9.52446954,12.9047454 9.60530312,13.2819688 C9.6861367,13.6591922 9.80289632,13.9645635 9.94660046,14.1980827 C10.0903046,14.4316019 10.2699348,14.6022506 10.485491,14.7100287 C10.7010472,14.8178068 10.9525295,14.8716959 11.2219747,14.8716959 C11.5004015,14.8716959 11.7518838,14.8178068 11.9584585,14.7100287 C12.1650332,14.6022506 12.3446634,14.4316019 12.4883675,14.1980827 C12.6320717,13.9645635 12.7398498,13.6591922 12.8117018,13.2819688 C12.8691835,12.9801901 12.9036725,12.6266779 12.9151688,12.2214322 L12.9194799,11.9077979 L12.9284615,11.9077979 L12.9284615,9.65343916 C12.9284615,9.11454862 12.8835539,8.65649166 12.8117018,8.28824979 C12.7398498,7.92000793 12.6230901,7.62361813 12.479386,7.3990804 C12.3356819,7.16556117 12.1560517,7.00389401 11.9404955,6.90509741 C11.7339208,6.80630081 11.49142,6.75241176 11.2129932,6.75241176 Z"/>
</svg>
