<svg xmlns="http://www.w3.org/2000/svg" width="24" height="24" viewBox="0 0 24 24">
  <path fill="#FFF" d="M12,0 C5.60747727,0 0,5.60747727 0,12 C0,18.3762273 5.57713636,24 12,24 C18.4826591,24 24,18.3124091 24,12 C24,5.60747727 18.3925227,0 12,0 Z M12,22.6363636 C9.86011364,22.6363636 7.69690909,21.9008182 5.87147727,20.5596136 C6.02890909,17.3118409 8.70804545,14.7272727 12,14.7272727 C15.2905227,14.7272727 17.9710909,17.3106136 18.1285227,20.5596136 C16.3031591,21.9008182 14.1398864,22.6363636 12,22.6363636 Z M8.59090909,9.95454545 C8.59090909,8.07477273 10.1202273,6.54545455 12,6.54545455 C13.8797727,6.54545455 15.4090909,8.07477273 15.4090909,9.95454545 C15.4090909,11.8343182 13.8797727,13.3636364 12,13.3636364 C10.1202273,13.3636364 8.59090909,11.8343182 8.59090909,9.95454545 Z M19.3759091,19.4963182 C18.8982273,16.8887045 17.0718409,14.7848864 14.7228409,13.8710455 C15.9606136,13.0078636 16.7727273,11.5746136 16.7727273,9.95454545 C16.7727273,7.32286364 14.6316818,5.18181818 12,5.18181818 C9.36831818,5.18181818 7.22727273,7.32286364 7.22727273,9.95454545 C7.22727273,11.5746136 8.03938636,13.0078636 9.27715909,13.8710455 C6.93184091,14.7834545 5.10259091,16.8842045 4.62409091,19.4963182 C2.56384091,17.4676364 1.36363636,14.7461591 1.36363636,12 C1.36363636,6.33388636 6.33388636,1.36363636 12,1.36363636 C17.6661136,1.36363636 22.6363636,6.33388636 22.6363636,12 C22.6363636,14.7461591 21.4361591,17.4677045 19.3759091,19.4963182 Z"/>
</svg>
