<svg xmlns="http://www.w3.org/2000/svg" width="24" height="24" viewBox="0 0 24 24">
  <path fill="#FFF" fill-rule="evenodd" d="M12,5.71875 C16.1292188,5.71875 19.4765625,9.06609375 19.4765625,13.1953125 L19.4765625,18.65625 C19.4765625,19.0704636 19.1407761,19.40625 18.7265625,19.40625 L5.2734375,19.40625 C4.85922394,19.40625 4.5234375,19.0704636 4.5234375,18.65625 L4.5234375,13.1953125 C4.5234375,9.06609375 7.87078125,5.71875 12,5.71875 Z M11.34375,1.59375 L12.65625,1.59375 C12.7598034,1.59375 12.84375,1.67769661 12.84375,1.78125 L12.84375,4.03125 C12.84375,4.13480339 12.7598034,4.21875 12.65625,4.21875 L11.34375,4.21875 C11.2401966,4.21875 11.15625,4.13480339 11.15625,4.03125 L11.15625,1.78125 C11.15625,1.67769661 11.2401966,1.59375 11.34375,1.59375 Z M4.15429688,4.49203125 C4.18946592,4.45682305 4.23718889,4.43704 4.28695313,4.43704 C4.33671736,4.43704 4.38444033,4.45682305 4.41960938,4.49203125 L6.01054688,6.08296875 C6.08371225,6.1561821 6.08371225,6.27483352 6.01054688,6.34804687 L5.08242188,7.27617188 C5.00920852,7.34933725 4.8905571,7.34933725 4.81734375,7.27617188 L3.22640625,5.68523438 C3.15324087,5.61202102 3.15324087,5.4933696 3.22640625,5.42015625 L4.15453125,4.49203125 L4.15429688,4.49203125 Z M19.8480469,4.49203125 L20.7761719,5.42015625 C20.8491812,5.49334265 20.8491812,5.6118136 20.7761719,5.685 L19.1852344,7.27640625 C19.1500653,7.31161445 19.1023424,7.3313975 19.0525781,7.3313975 C19.0028139,7.3313975 18.9550909,7.31161445 18.9199219,7.27640625 L17.9917969,6.34828125 C17.9565887,6.3131122 17.9368056,6.26538923 17.9368056,6.215625 C17.9368056,6.16586077 17.9565887,6.1181378 17.9917969,6.08296875 L19.5829688,4.49203125 C19.6561821,4.41886587 19.7748335,4.41886587 19.8480469,4.49203125 L19.8480469,4.49203125 Z M4.5,20.90625 L19.5,20.90625 C19.9142136,20.90625 20.25,21.2420364 20.25,21.65625 L20.25,22.21875 C20.25,22.3223034 20.1660534,22.40625 20.0625,22.40625 L3.9375,22.40625 C3.83394661,22.40625 3.75,22.3223034 3.75,22.21875 L3.75,21.65625 C3.75,21.2420364 4.08578644,20.90625 4.5,20.90625 Z M7.96875,13.4765625 L7.96875,19.40625 L9.46875,19.40625 L9.46875,13.4765625 L7.96875,13.4765625 Z"/>
</svg>
