<svg xmlns="http://www.w3.org/2000/svg" width="24" height="24" viewBox="0 0 24 24">
  <path fill="#FFF" fill-rule="evenodd" d="M14.000069,7 C14.07856,7 14.1504274,7.03912408 14.1934153,7.10189925 L14.2198936,7.15317343 L15.1229269,9.60160246 C15.8219689,11.4974372 17.2819525,13.009329 19.1421495,13.7769121 L19.3982595,13.8769352 L21.8468266,14.7799684 C21.9388686,14.813915 22,14.9016792 22,14.999793 C22,15.078284 21.9608759,15.1501514 21.8981008,15.1931393 L21.8468266,15.2196176 L19.3983975,16.1226509 C17.5025628,16.8216929 15.9905447,18.2816766 15.2229507,20.1419943 L15.1229269,20.3981216 L14.2198936,22.8465506 C14.185947,22.9387306 14.0981828,22.999862 14.000069,22.999862 C13.921578,22.999862 13.8497106,22.9607379 13.8067227,22.8978921 L13.7802444,22.8465506 L12.8772111,20.3981216 C12.1780371,18.5020229 10.7180477,16.9901195 8.85772971,16.2226567 L8.60160246,16.1226509 L6.15317343,15.2196176 C6.06113138,15.185671 6,15.0979068 6,14.999793 C6,14.921302 6.03912408,14.8494347 6.10189925,14.8064467 L6.15317343,14.7799684 L8.60174045,13.8769352 C10.4977072,13.1777611 12.0096048,11.717898 12.777188,9.85771172 L12.8772111,9.60160246 L13.7802444,7.15317343 C13.814191,7.06113138 13.9019552,7 14.000069,7 Z M7.00004744,1 C7.0506378,1 7.09722576,1.02364085 7.12720375,1.0621573 L7.15117813,1.10530764 L7.77201887,2.78861711 C8.24490432,4.0711046 9.22429068,5.09803057 10.4739206,5.63337496 L10.7113354,5.72793369 L12.3947398,6.34877443 C12.4580193,6.37211288 12.5000474,6.43245131 12.5000474,6.49990513 C12.5000474,6.55049549 12.4764066,6.59708345 12.4378901,6.62706144 L12.3947398,6.65103583 L10.7114303,7.27187656 C9.42894283,7.74476201 8.40193283,8.72414837 7.86657855,9.97385739 L7.77201887,10.211288 L7.15117813,11.8945975 C7.12783968,11.9579718 7.06750125,12 7.00004744,12 C6.94945707,12 6.90286912,11.9763591 6.87289112,11.9378027 L6.84891674,11.8945975 L6.228076,10.211288 C5.75510126,8.92862194 4.77570965,7.90168547 3.52600032,7.36641956 L3.28856968,7.27187656 L1.60526021,6.65103583 C1.54198075,6.62769738 1.49995256,6.56735894 1.49995256,6.49990513 C1.49995256,6.44931477 1.52359342,6.40272681 1.56210987,6.37274882 L1.60526021,6.34877443 L3.28866455,5.72793369 C4.57124133,5.25495895 5.59817255,4.27565138 6.13351725,3.02603103 L6.228076,2.78861711 L6.84891674,1.10530764 C6.87225519,1.04202819 6.93259362,1 7.00004744,1 Z"/>
</svg>
