<svg xmlns="http://www.w3.org/2000/svg" width="24" height="24" viewBox="0 0 24 24">
  <path fill="#FFF" fill-rule="evenodd" d="M20.8333333,19.9333333 C21.4776655,19.9333333 22,20.4556678 22,21.1 C22,21.7443322 21.4776655,22.2666667 20.8333333,22.2666667 L3.16666667,22.2666667 C2.52233446,22.2666667 2,21.7443322 2,21.1 C2,20.4556678 2.52233446,19.9333333 3.16666667,19.9333333 L20.8333333,19.9333333 Z M6,9.8 C6.73637967,9.8 7.33333333,10.3969537 7.33333333,11.1333333 L7.33333333,17.1333333 C7.33333333,17.869713 6.73637967,18.4666667 6,18.4666667 C5.26362033,18.4666667 4.66666667,17.869713 4.66666667,17.1333333 L4.66666667,11.1333333 C4.66666667,10.3969537 5.26362033,9.8 6,9.8 Z M12,9.8 C12.7363797,9.8 13.3333333,10.3969537 13.3333333,11.1333333 L13.3333333,17.1333333 C13.3333333,17.869713 12.7363797,18.4666667 12,18.4666667 C11.2636203,18.4666667 10.6666667,17.869713 10.6666667,17.1333333 L10.6666667,11.1333333 C10.6666667,10.3969537 11.2636203,9.8 12,9.8 Z M18,9.8 C18.7363797,9.8 19.3333333,10.3969537 19.3333333,11.1333333 L19.3333333,17.1333333 C19.3333333,17.869713 18.7363797,18.4666667 18,18.4666667 C17.2636203,18.4666667 16.6666667,17.869713 16.6666667,17.1333333 L16.6666667,11.1333333 C16.6666667,10.3969537 17.2636203,9.8 18,9.8 Z M12.9933163,2.03506431 L20.4091907,6.27859245 C20.9364795,6.58031884 21.119334,7.25236845 20.8176076,7.77965728 C20.6216723,8.12206846 20.2573741,8.33333333 19.8628668,8.33333333 L4.13713325,8.33333333 C3.52962002,8.33333333 3.03713325,7.84084656 3.03713325,7.23333333 C3.03713325,6.83882597 3.24839812,6.47452774 3.5908093,6.27859245 L11.0066837,2.03506431 C11.6220798,1.68292098 12.3779202,1.68292098 12.9933163,2.03506431 Z"/>
</svg>
