<svg xmlns="http://www.w3.org/2000/svg" width="24" height="24" viewBox="0 0 24 24">
  <path fill="#FFF" fill-rule="evenodd" d="M17.17,2 C18.6722222,2 19.9055281,3.17766804 19.9948235,4.65790987 L20,4.83 L20,13 L22,13 L22,19 C22,20.1 21.1,21 20,21 C20,21.5107143 19.6119898,21.9352041 19.116199,21.9932398 L19,22 L5,22 C4.45,22 4,21.55 4,21 C2.95,21 2.0822314,20.1799587 2.00551277,19.1486946 L2,19 L2,13 L5,13 L5,12.25 C5.00072331,11.4737349 5.40136367,10.7526182 6.0600919,10.3419296 C6.71882014,9.931241 7.54267244,9.88893946 8.24,10.23 C8.448,10.326 8.6432,10.454 8.81024,10.60888 L8.93,10.73 L10.33,12.28 C10.5175,12.4825 10.71625,12.668125 10.9304688,12.836875 L11.15,13 L18,13 L18,4.83 C18.0004248,4.4958079 17.7999067,4.19412269 17.4916158,4.06512155 C17.2175795,3.95045387 16.9061493,3.99221256 16.6733762,4.16788823 L16.59,4.24 L15.34,5.49 C15.38,5.66 15.41,5.82 15.41,6 C15.41,6.34285714 15.3218367,6.66367347 15.1706997,6.94355685 L15.09,7.08 L12.33,4.32 C12.64,4.12 13.01,4 13.41,4 C13.53,4 13.6455556,4.01333333 13.7566667,4.03703704 L13.92,4.08 L15.17,2.83 C15.7,2.3 16.42,2 17.17,2 Z M7,5 C8.1045695,5 9,5.8954305 9,7 C9,8.1045695 8.1045695,9 7,9 C5.8954305,9 5,8.1045695 5,7 C5,5.8954305 5.8954305,5 7,5 Z"/>
</svg>
