<svg xmlns="http://www.w3.org/2000/svg" width="24" height="24" viewBox="0 0 24 24">
  <path fill="#FFF" d="M11.0109032,14.3466907 L12.4065618,14.5078453 L12.0741395,16.9345748 L12.1944202,16.9517578 C12.413023,16.9829868 12.6024101,17.1264434 12.6824255,17.3322643 C12.8935371,17.8755172 12.5066631,18.3413766 12.0398673,18.3413766 L11.9900215,18.3396033 L11.9900215,18.3396033 L11.8834883,18.3261601 L11.4847689,21.2369153 C12.4339235,21.3532912 13.3533586,21.4864623 14.2435285,21.6257246 L15.5568914,21.8378483 L15.5568914,21.8378483 L18.0532871,22.2573932 C20.061779,22.5910211 21.8916233,22.8623666 23.5499189,22.9041769 C23.7654576,22.9096289 23.9416351,23.0682714 23.9781246,23.2738258 L23.9850644,23.3529002 L23.9850644,23.5510426 C23.9850644,23.7714506 23.8262508,23.9547539 23.6168094,23.9927669 L23.536107,24 L0.463846149,24 C0.243438204,24 0.0601348518,23.8411864 0.0221218593,23.631745 L0.0148887731,23.5510426 L0.0148887731,22.1599724 C0.0148887731,21.9477839 0.163214664,21.7648112 0.370767907,21.7207536 L0.723873878,21.6489867 L0.723873878,21.6489867 L1.18894422,21.5627059 L1.18894422,21.5627059 L1.5583201,21.4998272 L1.5583201,21.4998272 L2.19706727,21.4015296 L2.19706727,21.4015296 L2.67684001,21.3357118 L2.67684001,21.3357118 L3.19775438,21.2715587 L3.19775438,21.2715587 L3.75808633,21.2106934 L3.75808633,21.2106934 L4.35611178,21.1547389 L4.35611178,21.1547389 L4.99010669,21.1053184 C5.09867418,21.0977163 5.20866856,21.0904541 5.32005391,21.0835656 L6.00477037,21.0469892 C6.12157595,21.0417307 6.23970066,21.0369135 6.35910859,21.0325714 L7.09066747,21.0124911 C7.33946174,21.0078785 7.59310155,21.005437 7.85129955,21.005437 C8.42269133,21.005437 8.98449671,21.0238987 9.53699222,21.0573458 L10.0863947,21.0956592 L10.4929799,18.1275963 L10.4624533,18.1232421 C9.95450262,18.0507178 9.65153014,17.4516086 10.0270737,16.9570953 C10.1424516,16.8051576 10.3229802,16.7199183 10.5109879,16.7184785 L10.605348,16.7248211 L10.6836311,16.736011 L11.0109032,14.3466907 Z M14.893221,3.62012559 C16.9275518,4.11697987 18.8365922,5.27226439 20.2580955,6.89350196 C21.7857398,8.6359098 22.5933387,10.7018909 22.5802759,12.7919376 C22.5793529,12.9376549 22.4818735,13.0615981 22.3473373,13.102705 L22.2772566,13.1160727 L17.3221511,13.5184442 L17.3261339,13.1371857 C17.3261804,13.0685008 17.3258757,12.9973181 17.3251557,12.9237474 L17.3153401,12.4545445 L17.3153401,12.4545445 L17.2924858,11.9332958 C17.2620882,11.3877799 17.2075249,10.7720958 17.1149725,10.1099452 C16.7682701,7.62974711 16.0084276,5.41956024 14.893221,3.62012559 Z M13.0730919,3.67696512 C13.1333025,3.63318839 13.2184213,3.64681302 13.2620576,3.70711723 C14.8171385,5.85662533 15.4574962,8.42259769 15.7190329,10.2695547 C15.7941011,10.7996551 15.8428492,11.3001028 15.8735412,11.7552437 L15.9022337,12.2786637 C15.9057476,12.3619419 15.9086714,12.4431573 15.9110714,12.5221848 L15.9197132,12.9690921 C15.9208507,13.1086414 15.9203606,13.2384369 15.9189545,13.3574769 C15.9181679,13.418268 15.8754006,13.4676426 15.8196586,13.480502 L15.7758725,13.4829078 L8.07795537,12.5940761 C8.0035115,12.5854612 7.95205628,12.5151375 7.96680459,12.44163 L8.0495549,12.0533519 C8.20681713,11.3557159 8.46411927,10.4159922 8.87118051,9.39078933 C9.56730088,7.63747242 10.8482036,5.29253747 13.0730919,3.67696512 Z M11.3811561,3.23727812 C9.77349635,4.65999871 8.46632761,6.58889077 7.55019986,8.91144574 C7.21565986,9.75959439 6.97645766,10.5473524 6.80747571,11.2064158 L6.69351309,11.6755158 C6.67658288,11.7493217 6.66065175,11.8208499 6.64567063,11.889967 L6.56679172,12.2746698 L1.79007064,10.7499283 C1.62671552,10.6977708 1.52914255,10.5287036 1.56903322,10.3619306 C2.05048371,8.35002663 3.37586544,6.53645233 5.37114832,5.18691146 C7.17100435,3.9696372 9.30023937,3.28784376 11.3811561,3.23727812 Z M13.5953072,5.78747732e-05 L13.6906951,0.00641434566 C14.0430978,0.0537962275 14.2990737,0.354814954 14.2994752,0.700735833 L14.2931286,0.796034343 L14.1251851,2.04495894 L13.880644,2.01363634 L12.8256246,1.89258312 L12.8256246,1.89258312 L12.7297138,1.88314888 L12.9010751,0.608847817 C12.9484141,0.256445071 13.2491145,0.00042983399 13.5953072,5.78747732e-05 L13.5953072,5.78747732e-05 Z"/>
</svg>
