<svg xmlns="http://www.w3.org/2000/svg" width="24" height="24" viewBox="0 0 24 24">
  <path fill="#FFF" fill-rule="evenodd" d="M20.01,15.38 C18.78,15.38 17.59,15.18 16.48,14.82 C16.559696,14.8101367 16.640304,14.8101367 16.72,14.82 L15.15,16.79 C12.32,15.44 9.67,12.89 8.26,9.96 L10.21,8.3 C10.48,8.02 10.56,7.63 10.45,7.28 C10.08,6.17 9.89,4.98 9.89,3.75 C9.89,3.21 9.44,2.76 8.9,2.76 L4.19,2.76 C3.65,3 3,3.24 3,3.99 C3,13.28 10.73,21 20.01,21 C20.72,21 21,20.37 21,19.82 L21,16.37 C21,15.83 20.55,15.38 20.01,15.38 Z"/>
</svg>
