<svg xmlns="http://www.w3.org/2000/svg" width="24" height="24" viewBox="0 0 24 24">
  <path fill="#FFF" d="M13.1696757,2 C13.4602481,2 13.701478,2.21204932 13.7468182,2.48993383 L13.7544755,2.58479977 L13.7544755,4.3391991 L15.5088748,4.3391991 C15.7994472,4.3391991 16.0406771,4.55124842 16.0860173,4.82913293 L16.0936746,4.92399887 L16.0936746,7.8869844 L17.8480739,7.8869844 C18.1386463,7.8869844 18.3798762,8.09903372 18.4252164,8.37691823 L18.4328737,8.47178417 L18.4328737,12.9316439 L20.4175379,13.7821926 C20.6583617,13.8854801 20.7975073,14.1337643 20.7682322,14.3866076 L20.749229,14.4813633 L18.9368066,20.7842561 C18.9728997,20.7889771 19.009602,20.7915661 19.0467611,20.7915661 C19.3260639,20.7915661 19.5749084,20.6583109 19.729789,20.4260662 C20.0554773,19.9376036 20.6152177,19.6116594 21.2183923,19.5501701 L21.3960115,19.5398814 L21.3960115,19.5398814 C21.7133872,19.5398814 21.9739581,19.7939038 21.9807477,20.1128024 C21.9864126,20.4033748 21.7793825,20.6487988 21.502444,20.6998628 L21.407738,20.7094809 C21.1237141,20.715268 20.8471525,20.8587267 20.7029324,21.0748285 C20.333016,21.6297791 19.7137984,21.9611656 19.0469134,21.9611656 C18.3710433,21.9611656 17.7536531,21.619271 17.3907422,21.0748285 C17.2358616,20.8425838 16.9868648,20.7093286 16.7077143,20.7093286 C16.4284115,20.7093286 16.179567,20.8425838 16.0245342,21.0748285 C15.6546179,21.6297791 15.0354002,21.9611656 14.3685152,21.9611656 C13.7013257,21.9611656 13.0822603,21.6297791 12.712344,21.0748285 C12.5574634,20.8425838 12.3084666,20.7093286 12.0293161,20.7093286 C11.7500133,20.7093286 11.5011688,20.8425838 11.346136,21.0748285 C10.9762197,21.6297791 10.357002,21.9611656 9.69011704,21.9611656 C9.02292751,21.9611656 8.4038621,21.6297791 8.03394579,21.0748285 C7.87906523,20.8425838 7.63006845,20.7093286 7.35091794,20.7093286 C7.07161515,20.7093286 6.82277064,20.8425838 6.66773776,21.0748285 C6.30193334,21.6235352 5.68454314,21.9611656 5.01171884,21.9611656 C4.34452931,21.9611656 3.7254639,21.6297791 3.35554759,21.0748285 C3.1939091,20.8324373 2.923018,20.7307803 2.70570385,20.7124182 L2.60414082,20.7096332 C2.28661279,20.7096332 2.02619416,20.4556108 2.01940464,20.1367122 C2.0130971,19.813854 2.26940384,19.5467345 2.59226205,19.5400337 C3.28914845,19.5264797 3.95481508,19.8653286 4.32869099,20.4260662 C4.48357154,20.6583109 4.73241605,20.7915661 5.01171884,20.7915661 L5.06471632,20.7898909 L3.25077097,14.4813633 C3.17834787,14.2295745 3.28268829,13.9647902 3.4970497,13.8275548 L3.58246211,13.7823448 L5.56727863,12.9316439 L5.56727863,8.47178417 C5.56727863,8.18107473 5.77932795,7.93995447 6.05721246,7.89463751 L6.1520784,7.8869844 L7.90647772,7.8869844 L7.90647772,4.92399887 C7.90647772,4.63328943 8.11852704,4.39216917 8.39641156,4.34685221 L8.4912775,4.3391991 L10.2456768,4.3391991 L10.2456768,2.58479977 C10.2456768,2.29409033 10.4577261,2.05297007 10.7356107,2.00765311 L10.8304766,2 L13.1696757,2 Z M12.5848759,11.6977773 L12.5848759,19.6193776 C13.0297197,19.7483686 13.4212614,20.0298035 13.6853351,20.4260662 C13.8403679,20.6584632 14.0892124,20.7915661 14.3685152,20.7915661 C14.6476657,20.7915661 14.8966625,20.6583109 15.0515431,20.4260662 C15.4214594,19.8711156 16.0406771,19.5397291 16.7077143,19.5397291 C17.1097451,19.5397291 17.4944028,19.6601751 17.8176132,19.8773976 L17.9522414,19.9763491 L19.4826197,14.654062 L12.5848759,11.6977773 Z M11.4152764,19.6365865 L11.4152764,11.6977773 L4.51738026,14.654062 L6.05933282,20.0162495 C6.41493373,19.7124277 6.87013334,19.5397291 7.35091794,19.5397291 C8.0178029,19.5397291 8.63702056,19.8709633 9.00693686,20.4260662 C9.16196974,20.6583109 9.41081425,20.7915661 9.69011704,20.7915661 C9.96926754,20.7915661 10.2182643,20.6583109 10.3731449,20.4260662 C10.594082,20.0945274 10.9041001,19.842975 11.2600433,19.6940582 L11.4152764,19.6365865 Z M14.3392752,13.7349821 C14.6622857,13.7349821 14.924075,13.9967714 14.924075,14.3197819 C14.924075,14.6427924 14.6622857,14.9045817 14.3392752,14.9045817 C14.0162648,14.9045817 13.7544755,14.6427924 13.7544755,14.3197819 C13.7544755,13.9967714 14.0162648,13.7349821 14.3392752,13.7349821 Z M9.66087705,13.7349821 C9.98388754,13.7349821 10.2456768,13.9967714 10.2456768,14.3197819 C10.2456768,14.6427924 9.98388754,14.9045817 9.66087705,14.9045817 C9.33786656,14.9045817 9.07607727,14.6427924 9.07607727,14.3197819 C9.07607727,13.9967714 9.33786656,13.7349821 9.66087705,13.7349821 Z M17.2632741,9.05658395 L6.73687817,9.05658395 L6.73687817,12.4304522 L11.769659,10.2735462 C11.8895429,10.2220107 12.0203431,10.2133605 12.1416306,10.2436191 L12.2304933,10.2735462 L17.2632741,12.4304522 L17.2632741,9.05658395 Z M14.924075,5.50879865 L9.07607727,5.50879865 L9.07607727,7.8869844 L14.924075,7.8869844 L14.924075,5.50879865 Z M12.5848759,3.16959955 L11.4152764,3.16959955 L11.4152764,4.3391991 L12.5848759,4.3391991 L12.5848759,3.16959955 Z"/>
</svg>
