<svg xmlns="http://www.w3.org/2000/svg" width="24" height="24" viewBox="0 0 24 24">
  <path fill="#FFF" fill-rule="evenodd" d="M21.8276144,11.3872549 L12.2687908,1.82843137 C11.8864379,1.44607843 11.3553922,1.2124183 10.7712418,1.2124183 L3.33660131,1.2124183 C2.16830065,1.2124183 1.2124183,2.16830065 1.2124183,3.33660131 L1.2124183,10.7712418 C1.2124183,11.3553922 1.44607843,11.8864379 1.83905229,12.2794118 L11.3978758,21.8382353 C11.7802288,22.2205882 12.3112745,22.4542484 12.8954248,22.4542484 C13.4795752,22.4542484 14.0106209,22.2205882 14.3929739,21.8276144 L21.8276144,14.3929739 C22.2205882,14.0106209 22.4542484,13.4795752 22.4542484,12.8954248 C22.4542484,12.3112745 22.2099673,11.7696078 21.8276144,11.3872549 Z M4.92973856,6.52287582 C4.04820261,6.52287582 3.33660131,5.81127451 3.33660131,4.92973856 C3.33660131,4.04820261 4.04820261,3.33660131 4.92973856,3.33660131 C5.81127451,3.33660131 6.52287582,4.04820261 6.52287582,4.92973856 C6.52287582,5.81127451 5.81127451,6.52287582 4.92973856,6.52287582 Z"/>
</svg>
