<svg xmlns="http://www.w3.org/2000/svg" width="24" height="24" viewBox="0 0 24 24">
  <path fill="#FFF" d="M20.7593052,11.9330025 C21.2146959,11.9330025 21.5905206,12.2737971 21.6456451,12.7142522 L21.6526055,12.8263027 L21.6526055,20.5682382 C21.6526055,21.0236289 21.3118109,21.3994536 20.8713557,21.4545781 L20.7593052,21.4615385 L2.89330025,21.4615385 C2.43790952,21.4615385 2.0620849,21.1207439 2.00696034,20.6802887 L2,20.5682382 L2,12.8263027 C2,12.3329628 2.3999603,11.9330025 2.89330025,11.9330025 C3.34869097,11.9330025 3.7245156,12.2737971 3.77964015,12.7142522 L3.7866005,12.8263027 L3.7866005,19.674938 L19.866005,19.674938 L19.866005,12.8263027 C19.866005,12.3329628 20.2659653,11.9330025 20.7593052,11.9330025 Z M11.8261241,3 C12.2815148,3 12.6573394,3.34079457 12.712464,3.78124974 L12.7194243,3.89330025 L12.7194243,14.8383722 L15.3633548,12.1946203 C15.7122184,11.8458164 16.2778561,11.8458759 16.62666,12.1946799 C16.9464516,12.5144715 16.9731009,13.0163635 16.7066079,13.3665052 L16.62666,13.4579851 L12.4243226,17.6581935 L12.4243226,17.6581935 L12.3221439,17.737727 L12.227268,17.7926055 L12.227268,17.7926055 L12.1070298,17.8423995 L12.1070298,17.8423995 L12.0654839,17.8550323 L12.0654839,17.8550323 L11.9341315,17.8811166 L11.9341315,17.8811166 L11.8702308,17.8870794 L11.8702308,17.8870794 L11.7820099,17.8870794 L11.7820099,17.8870794 L11.6515136,17.8708883 L11.5455459,17.8425112 L11.5455459,17.8425112 L11.4456973,17.8022233 L11.368933,17.7613102 L11.3104591,17.723665 L11.3104591,17.723665 L11.2600695,17.6858561 L11.2600695,17.6858561 L11.1943821,17.6264218 L7.0258263,13.4579851 C6.67696278,13.1091216 6.67696278,12.5435434 7.0258263,12.1946799 C7.34561787,11.8748883 7.84755997,11.848239 8.19766408,12.114732 L8.28913151,12.1946799 L10.9328238,14.8383127 L10.9328238,3.89330025 C10.9328238,3.3999603 11.3327841,3 11.8261241,3 Z"/>
</svg>
