<svg xmlns="http://www.w3.org/2000/svg" width="24" height="24" viewBox="0 0 24 24">
  <path fill="#FFF" d="M2.15625,22.59375 C2.54457521,22.59375 2.859375,22.9085498 2.859375,23.296875 C2.859375,23.6852002 2.54457521,24 2.15625,24 C1.76792479,24 1.453125,23.6852002 1.453125,23.296875 C1.453125,22.9085498 1.76792479,22.59375 2.15625,22.59375 Z M6.375,18.375 C7.53810937,18.375 8.484375,19.3212656 8.484375,20.484375 C8.484375,21.6474844 7.53810937,22.59375 6.375,22.59375 C5.21189062,22.59375 4.265625,21.6474844 4.265625,20.484375 C4.265625,19.3212656 5.21189063,18.375 6.375,18.375 Z M6.375,19.78125 C5.98729688,19.78125 5.671875,20.0966719 5.671875,20.484375 C5.671875,20.8720781 5.98729688,21.1875 6.375,21.1875 C6.76270312,21.1875 7.078125,20.8720781 7.078125,20.484375 C7.078125,20.0966719 6.76270313,19.78125 6.375,19.78125 Z M12,0 C13.3562344,0 14.6255625,0.66984375 15.4108125,1.75565625 C15.8818125,1.52559375 16.3935469,1.40625 16.921875,1.40625 C18.6922969,1.40625 20.1611719,2.7215625 20.4027187,4.4263125 C22.4887031,5.03404688 24,6.9883125 24,9.1875 C24,11.4000469 22.4878125,13.2999375 20.4032812,13.9022812 C20.1685781,15.589125 18.7224375,16.96875 16.921875,16.96875 C16.3935469,16.96875 15.8818125,16.8494062 15.4108125,16.6193437 C14.6255625,17.7051562 13.3562344,18.375 12,18.375 C10.6437656,18.375 9.3744375,17.7051562 8.5891875,16.6193437 C8.1181875,16.8494062 7.60645313,16.96875 7.078125,16.96875 C5.27770313,16.96875 3.83142188,15.5892656 3.59671875,13.9022812 C1.51265625,13.3000781 0,11.4005156 0,9.1875 C0,6.9883125 1.51129688,5.03404688 3.59728125,4.4263125 C3.83882813,2.7215625 5.30770312,1.40625 7.078125,1.40625 C7.60645312,1.40625 8.1181875,1.52559375 8.5891875,1.75565625 C9.3744375,0.66984375 10.6437656,0 12,0 Z M12,1.40625 C10.9223906,1.40625 9.92596875,2.0446875 9.46157812,3.0328125 C9.37003125,3.227625 9.19420312,3.36979688 8.98448437,3.41854688 C8.7748125,3.46729688 8.5543125,3.41732813 8.386125,3.28284375 C8.00128125,2.97515625 7.54898437,2.8125 7.078125,2.8125 C5.92654687,2.8125 4.98745312,3.74010938 4.96903125,4.88742188 C5.02035937,5.302875 4.74220312,5.62654688 4.38848437,5.68560938 C2.688375,5.96953125 1.40625,7.47501563 1.40625,9.1875 C1.40625,10.8732656 2.688375,12.3585938 4.38853125,12.6425156 C4.734,12.7002188 4.98435937,13.0034063 4.97559375,13.3535625 C4.94446875,14.5872188 5.94989062,15.5625 7.078125,15.5625 C7.54898437,15.5625 8.00128125,15.3998438 8.38617187,15.0921094 C8.742375,14.8072031 9.26925,14.932875 9.46157812,15.3421875 C9.92596875,16.3303125 10.9223906,16.96875 12,16.96875 C13.0776094,16.96875 14.0740312,16.3303125 14.5384687,15.3422344 C14.7170409,14.9621575 15.1803911,14.8292743 15.5292709,15.0339127 L15.613875,15.0921563 C15.9987187,15.3998438 16.4510156,15.5625 16.921875,15.5625 C18.0434531,15.5625 19.0545469,14.5957031 19.0244531,13.3535625 C19.0156875,13.0034063 19.2660469,12.7002188 19.6115156,12.6425156 C21.311625,12.3585938 22.59375,10.8732656 22.59375,9.1875 C22.59375,7.47501563 21.311625,5.96953125 19.6115156,5.68560938 C19.2565312,5.62635938 18.979875,5.30151563 19.0309687,4.88728125 C19.0124062,3.7400625 18.0734062,2.8125 16.921875,2.8125 C16.4510156,2.8125 15.9987187,2.97515625 15.613875,3.28284375 C15.4457344,3.41732813 15.2251406,3.46729688 15.0155156,3.41854688 C14.8057969,3.36979688 14.6299687,3.22767188 14.5384219,3.0328125 C14.0740312,2.0446875 13.0776094,1.40625 12,1.40625 Z"/>
</svg>
