<svg xmlns="http://www.w3.org/2000/svg" width="24" height="24" viewBox="0 0 24 24">
  <path fill="#FFF" d="M19.6296258,0.377166441 C20.018908,0.288177206 20.4065423,0.531707456 20.4953485,0.920806566 C20.5769219,1.27764863 20.3790867,1.63310593 20.0458422,1.75827408 L19.9517083,1.78652922 L18.7314935,2.06539886 C22.402575,4.55068938 24.4213128,8.86575288 23.9236322,13.3293149 C23.5684076,16.5146176 21.9942498,19.3706967 19.491015,21.3718564 C17.3433709,23.0888364 14.7321038,23.9999692 12.022326,23.9999692 C11.5735345,23.9999692 11.1223626,23.9750668 10.6697259,23.9245297 C10.2729363,23.8804013 9.98729182,23.5227963 10.0314202,23.1260068 C10.0757318,22.7294003 10.4327874,22.4432065 10.8299432,22.4877011 C16.612597,23.1318662 21.8420892,18.9521176 22.4868035,13.1692807 C22.9122417,9.35405557 21.2473531,5.66224966 18.1897021,3.45070628 L17.9316888,3.26986661 L18.2220941,4.54061861 C18.3110833,4.92971772 18.067553,5.31735199 17.6784539,5.40615813 C17.6242547,5.4186093 17.5700555,5.42446868 17.5167718,5.42446868 C17.2236403,5.42446868 16.9558271,5.24521519 16.8461768,4.9700416 L16.8127313,4.862518 L16.1396356,1.9159848 C16.0580621,1.55931062 16.2557435,1.20386731 16.5891033,1.07870028 L16.6832757,1.05044524 L19.6296258,0.377166441 Z M4.50731135,2.62808196 C7.01054622,0.6269223 10.1436639,-0.279999075 13.3286004,0.075591722 C13.7252069,0.119720175 14.0110345,0.47714205 13.966723,0.873931566 C13.9225946,1.27072113 13.5651727,1.55673189 13.1683831,1.51223725 C7.38572932,0.867706003 2.15605403,5.04782074 1.51152278,10.8308408 C1.09121945,14.6000414 2.71111507,18.2487824 5.6984798,20.4686226 L5.95787285,20.6553647 L5.65190364,19.3166806 C5.56291436,18.9275815 5.80644466,18.5399472 6.19554377,18.450958 C6.55238579,18.3697202 6.90784312,18.5672757 7.03301128,18.9006122 L7.06126643,18.9947812 L7.73436213,21.9411313 C7.77702569,22.128082 7.74388361,22.3241879 7.64189388,22.4866025 C7.56030205,22.6165341 7.44015558,22.7162314 7.29964192,22.7727568 L7.190722,22.8068539 L4.2441888,23.4799496 C4.18998958,23.4924008 4.13579036,23.4982602 4.08250666,23.4982602 C3.75291682,23.4982602 3.45500421,23.2713925 3.37864924,22.9363095 C3.29707577,22.5794675 3.49475719,22.224164 3.828117,22.0988805 L3.92228936,22.0705869 L5.08061458,21.8059994 C1.52763607,19.3020322 -0.414563653,15.0581967 0.0746941599,10.6706235 C0.429735675,7.48550383 2.00389338,4.62924161 4.50731135,2.62808196 Z"/>
</svg>
