<svg xmlns="http://www.w3.org/2000/svg" width="24" height="24" viewBox="0 0 24 24">
  <path fill="#FFF" fill-rule="evenodd" d="M11.9397,-0.0004 C14.3617,-0.0004 16.6967,0.7196 18.6887,2.0806 C18.8437,2.1876 18.9487,2.3476 18.9837,2.5326 C19.0177,2.7176 18.9777,2.9046 18.8717,3.0606 C18.6517,3.3796 18.2117,3.4626 17.8907,3.2426 C16.1347,2.0426 14.0767,1.4076 11.9397,1.4076 C6.1347,1.4076 1.4117,6.1116 1.4117,11.8916 C1.4117,17.6716 6.1347,22.3746 11.9397,22.3746 C12.9607,22.3746 13.9677,22.2296 14.9377,21.9416 C14.3177,21.0916 13.9797,20.0636 13.9797,19.0086 C13.9797,18.7221 14.0038875,18.4372875 14.0522625,18.1571156 L14.1087,17.8786 L8.3097,17.8786 C7.95311667,17.8786 7.65703333,17.6130722 7.61016238,17.2699588 L7.6037,17.1746 L7.6037,16.9156 L4.4947,16.9156 C4.13811667,16.9156 3.84203333,16.6500722 3.79516238,16.3069588 L3.7887,16.2116 L3.7887,15.3256 C3.7887,13.6426 4.6397,12.0376 6.0277,11.0726 C5.5847,10.4586 5.3437,9.7176 5.3437,8.9586 C5.3437,6.9536 6.9817,5.3216 8.9947,5.3216 C10.1587,5.3216 11.2557,5.8846 11.9387,6.8136 C12.6227,5.8846 13.7187,5.3216 14.8827,5.3216 C16.8947,5.3216 18.5327,6.9536 18.5327,8.9586 C18.5327,9.7176 18.2917,10.4586 17.8497,11.0726 C18.8897,11.7986 19.6397,12.8846 19.9407,14.1076 C20.6837,14.2496 21.3837,14.5596 21.9907,15.0146 C22.3067,14.0066 22.4667,12.9576 22.4667,11.8916 C22.4667,9.7636 21.8297,7.7146 20.6237,5.9646 C20.5167,5.8086 20.4777,5.6216 20.5117,5.4366 C20.5467,5.2516 20.6507,5.0916 20.8057,4.9856 C21.1277,4.7666 21.5667,4.8466 21.7877,5.1676 C23.1557,7.1526 23.8787,9.4776 23.8787,11.8916 C23.8787,13.3566 23.6137,14.7866 23.0917,16.1446 C23.6867,16.9876 23.9997,17.9736 23.9997,19.0086 C23.9997,21.7606 21.7517,23.9996 18.9887,23.9996 C17.9257,23.9996 16.9157,23.6736 16.0577,23.0536 C14.7397,23.5376 13.3547,23.7826 11.9397,23.7826 C8.7497,23.7826 5.7517,22.5456 3.4977,20.2996 C1.2417,18.0546 -0.0003,15.0676 -0.0003,11.8916 C-0.0003,8.7146 1.2417,5.7286 3.4977,3.4826 C5.7517,1.2376 8.7497,-0.0004 11.9397,-0.0004 Z M18.9887,15.4246 C17.0047,15.4246 15.3907,17.0316 15.3907,19.0086 C15.3907,20.9846 17.0047,22.5916 18.9887,22.5916 C20.9727,22.5916 22.5877,20.9846 22.5877,19.0086 C22.5877,17.1566 21.1367,15.5896 19.2837,15.4386 C19.1827,15.4306 19.0857,15.4246 18.9887,15.4246 Z M21.1057,17.5672 C21.7297,18.2090824 21.7664059,19.2318644 21.2158176,19.9210596 L21.0937,20.0582 L19.3087,21.7732 C19.2197,21.8592 19.1047,21.9022 18.9887,21.9022 C18.8737,21.9022 18.7587,21.8592 18.6687,21.7732 L16.8717,20.0462 C16.2107,19.3612 16.2107,18.2492 16.8717,17.5672 C17.4177,17.0032 18.3397,16.9772 18.9897,17.4852 C19.6387,16.9782 20.5597,17.0032 21.1057,17.5672 Z M19.5037,18.2552 L19.4877,18.2702 C19.3607,18.3882 19.2177,18.5222 18.9897,18.5222 C18.7997,18.5222 18.6680333,18.4291444 18.5565056,18.3298389 L18.4747,18.2552 C18.2257,18.0222 17.7947,17.9362 17.5347,18.2042 C17.2217,18.5282 17.2197,19.0752 17.5307,19.4032 L18.9887,20.8042 L20.4477,19.4032 C20.7587,19.0752 20.7577,18.5282 20.4427,18.2042 C20.1827,17.9372 19.7537,18.0222 19.5037,18.2552 Z M13.4697,13.9866 C12.5347,14.5196 11.3407,14.5186 10.4067,13.9866 C9.6031,14.4812667 9.08783778,15.3304756 9.0227077,16.2610462 L9.0157,16.4706 L14.6767,16.4706 C14.7317,16.3786 14.7887,16.2886 14.8497,16.1996 C14.7657,15.2966 14.2467,14.4656 13.4697,13.9866 Z M7.0947,12.0626 C5.98781111,12.7029333 5.28141914,13.8427728 5.20634746,15.1021866 L5.1997,15.3256 L5.1997,15.5076 L7.7117,15.5076 C7.9427,14.5076 8.5297,13.6126 9.3577,12.9966 C9.2727,12.8676 9.1967,12.7316 9.1337,12.5916 C8.4157,12.6236 7.7057,12.4346 7.0947,12.0626 Z M16.7817,12.0616 C16.1707,12.4346 15.4627,12.6236 14.7437,12.5916 C14.6797,12.7316 14.6047,12.8666 14.5207,12.9976 C15.2047,13.5046 15.7227,14.1986 16.0137,14.9956 C16.7257,14.4706 17.5717,14.1416 18.4487,14.0466 C18.1437,13.2166 17.5517,12.5086 16.7817,12.0616 Z M11.9397,9.6626 C11.0187,9.6626 10.2687,10.4076 10.2687,11.3236 C10.2687,12.2396 11.0187,12.9846 11.9397,12.9846 C12.8597,12.9846 13.6087,12.2396 13.6087,11.3236 C13.6087,10.4076 12.8597,9.6626 11.9397,9.6626 Z M8.9947,6.7306 C7.7597,6.7306 6.7557,7.7296 6.7557,8.9586 C6.7557,10.1416 7.6877,11.1126 8.8607,11.1816 C8.9227,9.8386 9.8527,8.6976 11.1497,8.3576 C10.8837,7.4016 10.0107,6.7306 8.9947,6.7306 Z M14.8827,6.7306 C13.8667,6.7306 12.9947,7.4016 12.7277,8.3576 C14.0247,8.6976 14.9547,9.8386 15.0167,11.1816 C16.1887,11.1126 17.1207,10.1426 17.1207,8.9586 C17.1207,7.7296 16.1167,6.7306 14.8827,6.7306 Z M20,3 C20.5522847,3 21,3.44771525 21,4 C21,4.55228475 20.5522847,5 20,5 C19.4477153,5 19,4.55228475 19,4 C19,3.44771525 19.4477153,3 20,3 Z"/>
</svg>
