<svg xmlns="http://www.w3.org/2000/svg" width="24" height="24" viewBox="0 0 24 24">
  <path fill="#FFF" d="M12,1 C16.6294531,1 20.6394258,4.35220703 21.5282344,8.87647266 C22.3224586,9.07192486 22.9253819,9.75906565 22.9935658,10.595424 L23,10.7539062 L23,15.9101562 C23,16.7626133 22.4452305,17.4874961 21.6779375,17.7440625 C21.4165264,19.9060741 19.6200975,21.6020074 17.4139574,21.7058919 L17.1992188,21.7109375 L13.8227344,21.7109375 C13.5566719,22.4610859 12.8402539,23 12,23 C10.9338164,23 10.0664062,22.1325898 10.0664062,21.0664062 C10.0664062,20.0002227 10.9338164,19.1328125 12,19.1328125 C12.784237,19.1328125 13.4605991,19.6022665 13.7636139,20.2747589 L13.8227344,20.421875 L17.1992188,20.421875 C18.6932937,20.421875 19.9530555,19.3998782 20.3163415,18.0182754 L20.3570352,17.84375 L19.7773438,17.84375 C19.45375,17.84375 19.1858381,17.6052557 19.1398011,17.2944602 L19.1328125,17.1992188 L19.1328125,9.46484375 C19.1328125,9.14125 19.3713068,8.87333807 19.6821023,8.82730114 L19.7773438,8.8203125 L20.1978789,8.8203125 C19.3109609,5.04890234 15.9101133,2.2890625 12,2.2890625 C8.17875293,2.2890625 4.8438861,4.92488062 3.86646479,8.56475894 L3.80212109,8.8203125 L4.22265625,8.8203125 C4.54625,8.8203125 4.81416193,9.05880682 4.86019886,9.36960227 L4.8671875,9.46484375 L4.8671875,17.1992188 C4.8671875,17.5228125 4.62869318,17.7907244 4.31789773,17.8367614 L4.22265625,17.84375 L2.93359375,17.84375 C1.9181808,17.84375 1.08306122,17.0569834 1.00582855,16.0610438 L1,15.9101562 L1,10.7539062 C1,9.84687891 1.62790234,9.08414062 2.47176563,8.87647266 C3.36057422,4.35220703 7.37054687,1 12,1 Z M12,20.421875 C11.6446055,20.421875 11.3554688,20.7110117 11.3554688,21.0664062 C11.3554688,21.4218008 11.6446055,21.7109375 12,21.7109375 C12.3553945,21.7109375 12.6445312,21.4218008 12.6445312,21.0664062 C12.6445312,20.7110117 12.3553945,20.421875 12,20.421875 Z M12,6.2421875 C15.2222266,6.2421875 17.84375,8.84441797 17.84375,12.0429687 C17.84375,15.2415195 15.2222266,17.8437643 12,17.8437643 C11.1081492,17.8437643 10.2055786,17.6308873 9.40286262,17.2371047 L9.13914062,17.0991875 L7.004625,17.8106641 C6.77336719,17.887793 6.51791797,17.8278086 6.34505469,17.6549453 C6.19707031,17.5069978 6.13163855,17.2982486 6.16456189,17.0958041 L6.18929297,16.995418 L6.90055469,14.8617617 C6.41273047,13.9920742 6.15622071,13.0239453 6.15622071,12.0429687 C6.15622071,8.84441797 8.77777344,6.2421875 12,6.2421875 Z M3.578125,10.109375 L2.93359375,10.109375 C2.61050781,10.109375 2.3421804,10.348331 2.29606373,10.6587907 L2.2890625,10.7539062 L2.2890625,15.9101562 C2.2890625,16.2332422 2.52801847,16.5015696 2.83847818,16.5476863 L2.93359375,16.5546875 L3.578125,16.5546875 L3.578125,10.109375 Z M21.0664062,10.109375 L20.421875,10.109375 L20.421875,16.5546875 L21.0664062,16.5546875 C21.3894922,16.5546875 21.6578196,16.3157315 21.7039363,16.0052718 L21.7109375,15.9101562 L21.7109375,10.7539062 C21.7109375,10.4308203 21.4719815,10.1624929 21.1615218,10.1163762 L21.0664062,10.109375 Z M12,7.53125 C9.4885625,7.53125 7.4453125,9.55520703 7.4453125,12.0429687 C7.4453125,12.8819766 7.68907422,13.7114023 8.15021484,14.4416133 C8.23278359,14.5723414 8.26494484,14.727242 8.24320059,14.8778692 L8.21673047,14.9895937 L7.81987109,16.1801289 L9.01053516,15.7832695 C9.19766406,15.7208789 9.3985,15.7487227 9.55855859,15.8498281 C10.2781562,16.3043516 11.1451797,16.5546875 12,16.5546875 C14.5114375,16.5546875 16.5546875,14.5307305 16.5546875,12.0429687 C16.5546875,9.55520703 14.5114375,7.53125 12,7.53125 Z M12,11.3984375 C12.3235937,11.3984375 12.5915057,11.6369318 12.6375426,11.9477273 L12.6445312,12.0429688 L12.6445312,14.6210938 C12.6445312,14.9770469 12.3559531,15.265625 12,15.265625 C11.6764063,15.265625 11.4084943,15.0271307 11.3624574,14.7163352 L11.3554688,14.6210938 L11.3554688,12.0429688 C11.3554688,11.6870156 11.6440469,11.3984375 12,11.3984375 Z M12,8.8203125 C12.3559648,8.8203125 12.6445312,9.10887897 12.6445312,9.46484375 C12.6445312,9.82080853 12.3559648,10.109375 12,10.109375 C11.6440352,10.109375 11.3554688,9.82080853 11.3554688,9.46484375 C11.3554688,9.10887897 11.6440352,8.8203125 12,8.8203125 Z"/>
</svg>
