<svg xmlns="http://www.w3.org/2000/svg" width="24" height="24" viewBox="0 0 24 24">
  <path fill="#FFF" d="M12,1 C18.0654,1 23,5.93466667 23,12.0000667 C23,18.0654667 18.0654,23 12,23 C5.9346,23 1,18.0654667 1,12.0000667 C1,5.93466667 5.9346,1 12,1 Z M12,3 C7.03733333,3 3,7.03746667 3,12.0000667 C3,16.9626667 7.03733333,21 12,21 C16.9626,21 21,16.9626667 21,12.0000667 C21,7.03746667 16.9626667,3 12,3 Z M12,10.3333333 C12.512819,10.3333333 12.9355048,10.7193891 12.993272,11.2167155 L13,11.3333333 L13,17.3333333 C13,17.8856 12.5522667,18.3333333 12,18.3333333 C11.487181,18.3333333 11.0644952,17.9472776 11.006728,17.4499511 L11,17.3333333 L11,11.3333333 C11,10.7810667 11.4477333,10.3333333 12,10.3333333 Z M11.9998667,5.66666667 C12.7349333,5.66666667 13.3329333,6.26506667 13.3329333,7.0006 C13.3329333,7.73546667 12.7349333,8.33333333 11.9998667,8.33333333 C11.2648,8.33333333 10.6668,7.73546667 10.6668,7.0006 C10.6668,6.26506667 11.2648,5.66666667 11.9998667,5.66666667 Z"/>
</svg>
