<svg xmlns="http://www.w3.org/2000/svg" width="24" height="24" viewBox="0 0 24 24">
  <path fill="#FFF" fill-rule="evenodd" d="M2.30017391,16.9868696 C3.01824014,16.9868696 3.60034783,17.5689773 3.60034783,18.2870435 C3.60034783,19.0051097 3.01824014,19.5872174 2.30017391,19.5872174 C1.58210769,19.5872174 1,19.0051097 1,18.2870435 C1,17.5689773 1.58210769,16.9868696 2.30017391,16.9868696 Z M22.0910435,16.9884348 C22.5440909,16.9885677 22.918049,17.3275635 22.9729002,17.7657445 L22.9798261,17.8772174 L22.9798261,18.6971304 C22.9798261,19.150233 22.6407687,19.5241444 22.2025305,19.5789882 L22.0910435,19.585913 L5.79634783,19.585913 C5.34324529,19.585913 4.96933385,19.2468556 4.9144901,18.8086174 L4.90756522,18.6971304 L4.90756522,17.8772174 C4.90756522,17.4241149 5.24662261,17.0502034 5.68486082,16.9953597 L5.79634783,16.9884348 L22.0910435,16.9884348 Z M22.0910435,10.4951304 C22.544146,10.4951304 22.9180575,10.8341878 22.9729012,11.272426 L22.9798261,11.383913 L22.9798261,12.2038261 C22.9798261,12.6569286 22.6407687,13.0308401 22.2025305,13.0856838 L22.0910435,13.0926087 L5.79634783,13.0926087 C5.56062802,13.0926087 5.33456269,12.9989694 5.16788362,12.8322903 C5.02898439,12.6933911 4.94080721,12.5132514 4.91527313,12.3206512 L4.90756522,12.2038261 L4.90756522,11.383913 C4.90756522,10.9308105 5.24662261,10.5568991 5.68486082,10.5020553 L5.79634783,10.4951304 L22.0910435,10.4951304 Z M2.30017391,10.2332174 C3.01824014,10.2332174 3.60034783,10.8153251 3.60034783,11.5333913 C3.60034783,12.2514575 3.01824014,12.8335652 2.30017391,12.8335652 C1.58210769,12.8335652 1,12.2514575 1,11.5333913 C1,10.8153251 1.58210769,10.2332174 2.30017391,10.2332174 Z M2.30017391,4 C3.01824014,4 3.60034783,4.58210769 3.60034783,5.30017391 C3.60034783,6.01824014 3.01824014,6.60034783 2.30017391,6.60034783 C1.58210769,6.60034783 1,6.01824014 1,5.30017391 C1,4.58210769 1.58210769,4 2.30017391,4 Z M22.0910435,4.00156522 C22.544146,4.00156522 22.9180575,4.34062261 22.9729012,4.77886082 L22.9798261,4.89034783 L22.9798261,5.71026087 C22.9798261,6.16336341 22.6407687,6.53727484 22.2025305,6.5921186 L22.0910435,6.59904348 L5.79634783,6.59904348 C5.34324529,6.59904348 4.96933385,6.25998608 4.9144901,5.82174787 L4.90756522,5.71026087 L4.90756522,4.89034783 C4.90756522,4.43724529 5.24662261,4.06333385 5.68486082,4.0084901 L5.79634783,4.00156522 L22.0910435,4.00156522 Z"/>
</svg>
