<svg xmlns="http://www.w3.org/2000/svg" width="24" height="24" viewBox="0 0 24 24">
  <path fill="#FFF" d="M3.70589844,16.0223047 C3.98960938,15.8664844 4.34574219,15.9701172 4.5015625,16.2537109 C4.65738281,16.5373438 4.55378906,16.8935938 4.27015625,17.049375 C3.5721875,17.4328516 3.171875,17.8579297 3.171875,18.2156641 C3.171875,18.6532031 3.79179688,19.3313672 5.53175781,19.9224609 C7.25070313,20.5065234 9.54785156,20.828125 12,20.828125 C14.4521484,20.828125 16.7492969,20.5065234 18.4682422,19.9224609 C20.2082031,19.3313281 20.828125,18.6532031 20.828125,18.2156641 C20.828125,17.8579297 20.4278125,17.4328516 19.7298438,17.0494141 C19.4462109,16.8936328 19.3426172,16.5373828 19.4984375,16.25375 C19.6541797,15.9701563 20.0103906,15.8665234 20.2941016,16.0223438 C21.0723047,16.4498438 22,17.1774219 22,18.2156641 C22,19.0115234 21.4526563,20.1462109 18.8452344,21.0320703 C17.0080469,21.65625 14.5770312,22 12,22 C9.42296875,22 6.99195313,21.65625 5.15476562,21.0320703 C2.54734375,20.1462109 2,19.0115234 2,18.2156641 C2,17.1774219 2.92769531,16.4498438 3.70589844,16.0223047 Z M12,2 C15.0034375,2 17.446875,4.4434375 17.446875,7.44683594 C17.446875,8.32767645 16.9430106,9.7051876 16.2107435,11.2420042 L15.9259751,11.8251189 L15.9259751,11.8251189 L15.6230219,12.419215 L15.6230219,12.419215 L15.3051121,13.0203391 L15.3051121,13.0203391 L14.9754739,13.6245374 L14.9754739,13.6245374 L14.6373351,14.2278567 L14.6373351,14.2278567 L14.12125,15.1225391 L14.12125,15.1225391 C14.9742188,15.2100781 15.7587891,15.3504688 16.42375,15.5383203 C17.8789453,15.949375 18.6167969,16.544375 18.6167969,17.3068359 C18.6167969,18.0692578 17.8789453,18.6643359 16.42375,19.0753906 C15.2342969,19.4114453 13.6632422,19.5964844 12,19.5964844 C10.3367578,19.5964844 8.76570313,19.4114063 7.57625,19.0753906 C6.12105469,18.6642969 5.38324219,18.0692578 5.38324219,17.3068359 C5.38324219,16.5444141 6.12109375,15.949375 7.57628906,15.5383203 C8.24128906,15.3504297 9.02574219,15.2099609 9.87871094,15.1224219 L9.53387465,14.5278351 L9.53387465,14.5278351 L9.19269768,13.926441 L9.19269768,13.926441 L8.85840795,13.3221929 C8.80344626,13.2214666 8.74890603,13.1207862 8.69485452,13.0202339 L8.37694798,12.4191169 L8.37694798,12.4191169 L8.07399847,11.8250291 L8.07399847,11.8250291 L7.7892339,11.2419235 C7.05697756,9.70513261 6.553125,8.3276549 6.553125,7.44683594 C6.553125,4.4434375 8.9965625,2 12,2 Z M13.4543359,16.2410938 L13.2674609,16.548125 L13.2674609,16.548125 C12.9953516,16.9933203 12.5215625,17.2591016 11.9999609,17.2591016 C11.4783984,17.2591016 11.0045703,16.9933594 10.7324609,16.548125 L10.545625,16.2411328 L10.545625,16.2411328 C9.64332031,16.3060938 8.80625,16.4309766 8.10761719,16.6089063 C7.50521484,16.7623633 7.11788223,16.9266473 6.87994806,17.0620331 L6.74273771,17.147573 L6.74273771,17.147573 L6.64546953,17.2219349 L6.64546953,17.2219349 L6.58381948,17.2825029 C6.57627243,17.2913028 6.5700293,17.2994189 6.565,17.3067969 L6.58381261,17.3310917 L6.58381261,17.3310917 L6.64545142,17.3916656 C6.67169435,17.4143018 6.70387412,17.4392376 6.74271134,17.4660365 L6.87991595,17.5515859 C7.11784317,17.6869849 7.50517578,17.8512744 8.10757813,18.0046875 C9.17054688,18.2754688 10.5529297,18.4245703 11.9999609,18.4245703 C13.4469922,18.4245703 14.829375,18.2754688 15.8923828,18.0046875 C16.4947852,17.8512744 16.8821054,17.6869972 17.1200288,17.5516021 L17.2572323,17.4660538 C17.2960697,17.4392547 17.3282504,17.4143181 17.354495,17.3916801 L17.4161419,17.3310981 C17.4236887,17.3222958 17.4299316,17.3141772 17.4349609,17.3067969 L17.4161479,17.2825025 L17.4161479,17.2825025 L17.3545059,17.2219315 L17.3545059,17.2219315 L17.2572405,17.1475652 L17.2572405,17.1475652 L17.1200291,17.0620204 C16.8820911,16.9266281 16.4947461,16.7623413 15.8923438,16.6089063 C15.1936719,16.4309766 14.3566406,16.3060547 13.4543359,16.2410938 Z M12,3.171875 C9.64273438,3.171875 7.72492188,5.08960938 7.72492188,7.44683594 C7.72492188,7.86197433 7.901028,8.50787089 8.23361447,9.3429582 L8.41285688,9.77607531 L8.41285688,9.77607531 L8.61763418,10.2395696 L8.61763418,10.2395696 L8.84740122,10.7322863 L8.84740122,10.7322863 L9.10161284,11.2530709 L9.10161284,11.2530709 L9.37972387,11.8007687 L9.37972387,11.8007687 L9.68118916,12.374225 L9.68118916,12.374225 L10.0054636,12.9722852 C10.0613798,13.0739481 10.1182236,13.176588 10.1759838,13.280181 L10.5334497,13.9129821 L10.5334497,13.9129821 L10.9123617,14.5675004 L10.9123617,14.5675004 L11.3121748,15.2425814 L11.3121748,15.2425814 L11.7323438,15.9370703 L11.7323438,15.9370703 C11.8152344,16.0726953 11.9471484,16.0873047 11.9999609,16.0873047 C12.0528125,16.0873047 12.1846875,16.0726953 12.2675781,15.9370703 L12.6877471,15.242581 L12.6877471,15.242581 L13.0875602,14.5674991 L13.0875602,14.5674991 L13.4664722,13.9129792 L13.4664722,13.9129792 L13.8239381,13.2801762 L13.8239381,13.2801762 L14.1594126,12.670245 L14.1594126,12.670245 L14.4723506,12.0843401 L14.4723506,12.0843401 L14.7622069,11.5236166 L14.7622069,11.5236166 L15.0284363,10.989229 L15.0284363,10.989229 L15.2704938,10.4823322 C15.3087921,10.4002045 15.3460605,10.3192703 15.3822877,10.2395538 L15.587065,9.77605844 L15.587065,9.77605844 L15.7663074,9.34294085 C16.0988939,8.50785328 16.275,7.86196094 16.275,7.44683594 C16.275,5.08960938 14.3572656,3.171875 12,3.171875 Z M12,4.88359375 C13.2071875,4.88359375 14.1893359,5.86570313 14.1893359,7.07285156 C14.1893359,8.28007813 13.2071875,9.26214844 12,9.26214844 C10.7928125,9.26214844 9.81066406,8.28003906 9.81066406,7.07285156 C9.81066406,5.86570313 10.7928125,4.88359375 12,4.88359375 Z M12,6.05546875 C11.4389844,6.05546875 10.9825391,6.511875 10.9825391,7.07285156 C10.9825391,7.63386719 11.4389844,8.09027344 12,8.09027344 C12.5610156,8.09027344 13.0174609,7.63382813 13.0174609,7.07285156 C13.0174609,6.511875 12.5610156,6.05546875 12,6.05546875 Z"/>
</svg>
