<svg xmlns="http://www.w3.org/2000/svg" width="24" height="24" viewBox="0 0 24 24">
  <path fill="#FFF" d="M19.3933105,5.13796996 L16.7948914,5.13796996 C16.5130615,3.36199953 14.9713135,2 13.117218,2 C12.7935791,2 12.5312805,2.26229859 12.5312805,2.5859375 L12.5312805,5.13796996 L5.5859375,5.13796996 C5.26229859,5.13796996 5,5.40042113 5,5.72390746 L5,21.4140625 C5,21.7377014 5.26229859,22 5.5859375,22 L19.3933105,22 C19.7167969,22 19.979248,21.7377014 19.979248,21.4140625 L19.979248,5.72390746 C19.979248,5.40042113 19.7169495,5.13796996 19.3933105,5.13796996 Z M13.117218,15.7239075 C14.3226623,15.7239075 15.335083,16.5645141 15.6005859,17.690155 L9.30999758,17.690155 L9.30999758,12.5859375 L12.5312805,12.5859375 L12.5312805,15.13797 C12.5312805,15.4616089 12.7935791,15.7239075 13.117218,15.7239075 Z M15.6692505,5.72390746 L15.6692505,15.5664368 C15.1370239,15.0647278 14.4573975,14.7177429 13.7031555,14.598114 L13.7031555,8.86737063 C13.7031555,8.86553953 13.7034607,8.86386109 13.7034607,8.86203004 C13.7034607,8.86019898 13.7031555,8.85852051 13.7031555,8.85668945 L13.7031555,5.72924805 C13.7031555,5.72741699 13.7034607,5.72573852 13.7034607,5.72390746 C13.7034607,5.72207641 13.7031555,5.72039797 13.7031555,5.71856688 L13.7031555,3.2397766 C14.8287964,3.50527953 15.6692505,4.51831055 15.6692505,5.72390746 Z M6.171875,6.30984496 L12.5312805,6.30984496 L12.5312805,8.27609254 L8.72406008,8.27609254 C8.40042113,8.27609254 8.13812258,8.53839109 8.13812258,8.86203004 C8.13812258,9.18551637 8.40042113,9.44796754 8.72406008,9.44796754 L12.5312805,9.44796754 L12.5312805,11.4140625 L8.72406008,11.4140625 C8.40042113,11.4140625 8.13812258,11.6763611 8.13812258,12 L8.13812258,18.2760925 C8.13812258,18.5995789 8.40042113,18.86203 8.72406008,18.86203 L15.6005859,18.86203 C15.335083,19.9875183 14.3228149,20.828125 13.117218,20.828125 L6.171875,20.828125 L6.171875,6.30984496 Z M18.807373,20.828125 L15.826416,20.828125 C16.4552307,20.1611633 16.8411255,19.2628784 16.8411255,18.2760925 L16.8411255,6.30984496 L18.807373,6.30984496 L18.807373,20.828125 Z"/>
</svg>
