<svg xmlns="http://www.w3.org/2000/svg" width="24" height="24" viewBox="0 0 24 24">
  <path fill="#FFF" d="M20.9996387,2.17162109 C21.2284668,1.94279297 21.5995215,1.94279297 21.8283105,2.17162109 C22.0317133,2.37502387 22.0543136,2.69077233 21.8961663,2.91914081 L21.8283887,3.00029297 L20.121748,4.70693359 C20.1550814,4.77688151 20.1840744,4.84941623 20.2082643,4.92423683 L20.2408887,5.03814453 L21.551123,10.3416602 C21.6876562,10.8876139 21.5501473,11.4706253 21.1919123,11.8983712 L21.0887793,12.0110352 L11.6294824,21.485957 C10.9843721,22.1310673 9.95853519,22.1689804 9.26866609,21.5997939 L9.14342773,21.485957 L2.51401367,14.856582 C1.86897691,14.2114717 1.83103357,13.1856348 2.40018365,12.4957657 L2.51401367,12.3705273 L11.9888965,2.91123047 C12.3868229,2.51330404 12.9574986,2.33128961 13.5085706,2.41838288 L13.6582324,2.44884766 L18.9617871,3.75912109 C19.0388444,3.77836589 19.1137316,3.80268012 19.1861824,3.83156612 L19.292998,3.87826172 L20.9996387,2.17162109 Z M13.2332324,3.56849609 C13.1101699,3.56849609 12.9889074,3.60727109 12.8885849,3.67952109 L12.8175684,3.73990234 L3.34264648,13.1991602 C3.13955621,13.4022504 3.11699062,13.7185506 3.27494973,13.9467986 L3.34264648,14.0278711 L9.97202148,20.6572852 C10.1751118,20.8603754 10.4914119,20.882941 10.7196599,20.7249819 L10.8007324,20.6572852 L20.2600293,11.1824023 C20.3806022,11.0617969 20.4417133,10.8936382 20.4300027,10.7260538 L20.4141309,10.625957 L19.1842871,5.64423828 L17.7731543,7.05537109 C18.0844043,7.70869141 17.9703027,8.51564453 17.4301074,9.05580078 C17.0874512,9.39853516 16.6372559,9.56986328 16.1871387,9.56986328 C15.7369824,9.56986328 15.2867871,9.39849609 14.9441309,9.05580078 C14.2587012,8.37037109 14.2587012,7.25517578 14.9441309,6.56974609 C15.445632,6.06824498 16.1772784,5.9340063 16.8023254,6.16652964 L16.9445215,6.22669922 L18.3556543,4.81556641 L13.3740137,3.58576172 C13.3275684,3.57416016 13.2802637,3.56849609 13.2332324,3.56849609 Z M9.97206055,14.856543 C10.6591699,14.1694727 11.771084,14.1695508 12.4580762,14.856543 C13.1435059,15.5419727 13.1435059,16.657168 12.4580762,17.3425977 C11.7710059,18.029707 10.6590918,18.0295898 9.97206055,17.3425977 C9.28663086,16.657168 9.28663086,15.5419727 9.97206055,14.856543 Z M11.6294043,15.6852539 C11.4004199,15.4562305 11.0297168,15.4562695 10.8007324,15.6852539 C10.5722949,15.9136914 10.5722949,16.2854883 10.8007324,16.5139258 C11.0297168,16.7429492 11.400459,16.7429102 11.6294043,16.5139258 C11.8578418,16.2854102 11.8578418,15.9136914 11.6294043,15.6852539 Z M14.4650684,12.2024805 C14.7866699,12.1667383 15.0764355,12.3985352 15.1121777,12.7201758 C15.1443809,13.0096523 14.9598457,13.2732469 14.6881406,13.3491555 L14.5945215,13.3672852 L7.13643555,14.195957 C7.11448242,14.1983789 7.09260742,14.1995898 7.07100586,14.1995898 C6.77631836,14.1995898 6.52264648,13.9779102 6.48932617,13.6782617 C6.4571582,13.38875 6.64169688,13.125152 6.9134023,13.0492714 L7.00702148,13.0311523 L14.4650684,12.2024805 Z M9.14334961,9.05583984 C9.8287793,8.37044922 10.9440137,8.37044922 11.6294043,9.05583984 C12.314834,9.74126953 12.314834,10.8564648 11.6294043,11.5418945 C10.9440137,12.2272852 9.82874023,12.2272852 9.14334961,11.5418945 C8.45799805,10.8564648 8.45799805,9.74123047 9.14334961,9.05583984 Z M10.8007715,9.88451172 C10.5722559,9.65603516 10.2005371,9.65607422 9.97206055,9.88451172 C9.74358398,10.1129492 9.74366211,10.484707 9.97209961,10.7131836 C10.2005371,10.9416602 10.5722949,10.9416602 10.8007715,10.7131836 C11.029209,10.484707 11.029209,10.1129492 10.8007715,9.88451172 Z M16.1871387,7.22716797 C16.0370605,7.22716797 15.8870605,7.28423828 15.7728027,7.39849609 C15.5443652,7.62693359 15.5443652,7.99873047 15.7728027,8.22716797 C16.0012793,8.45564453 16.3730371,8.45560547 16.6014746,8.22716797 C16.8045302,8.02411241 16.8271228,7.70781612 16.6691701,7.47959595 L16.6014746,7.39853516 L16.5288687,7.33679797 C16.4271887,7.26371797 16.3071387,7.22716797 16.1871387,7.22716797 Z"/>
</svg>
