<svg xmlns="http://www.w3.org/2000/svg" width="24" height="24" viewBox="0 0 24 24">
  <path fill="#FFF" d="M11.9387891,2.00128906 C14.5163281,2.0421875 16.9358203,3.08273437 18.7514844,4.93136719 C20.566875,6.77964844 21.5644141,9.2175 21.5604297,11.7957031 C21.5582812,13.168125 21.2646286,14.5327677 20.7070325,15.7789072 L20.5484375,16.1157422 L21.9214453,20.1115625 C22.0997266,20.6304297 21.9694531,21.1937109 21.5816016,21.5815625 C21.3086328,21.8546094 20.9486328,22 20.5785547,22 C20.4747005,22 20.3700825,21.988559 20.266344,21.9652836 L20.1116016,21.9214453 L16.1157812,20.5484375 C14.8920671,21.1537956 13.5398166,21.4977157 12.169724,21.5526371 L11.7803125,21.5604297 C9.20765625,21.5604687 6.77609375,20.5632422 4.93140625,18.7514062 C3.08277344,16.9357031 2.0421875,14.5162109 2.00136719,11.9386719 C1.98,10.5889062 2.22855469,9.27785156 2.74015625,8.04191406 C3.23359375,6.84984375 3.94839844,5.78082031 4.8646875,4.86457031 C5.7809375,3.94832031 6.84996094,3.23351562 8.04203125,2.74003906 C9.27796875,2.2284375 10.5883594,1.97960937 11.9387891,2.00128906 Z M11.9199609,3.18699219 C9.57011719,3.14984375 7.36292969,4.04328125 5.703125,5.70304687 C4.04332031,7.36285156 3.14972656,9.57070312 3.18695312,11.9198828 C3.2609375,16.5890625 7.12390625,20.3821484 11.7938281,20.3746094 C13.1862891,20.3725 14.5691016,20.0291406 15.7928125,19.3817578 C15.8791016,19.3360937 15.974375,19.3129297 16.0700781,19.3129297 L16.1672705,19.3209668 L16.1672705,19.3209668 L16.2627344,19.3451172 L20.496875,20.8000391 C20.6195703,20.8421484 20.7037891,20.7824609 20.743125,20.743125 C20.774625,20.7116875 20.819125,20.651425 20.814085,20.5657975 L20.8000391,20.496875 L19.3451172,16.2627344 C19.291875,16.1077734 19.3051172,15.9376562 19.3817578,15.7928125 C20.0291016,14.5691797 20.3724219,13.1863672 20.3746094,11.7938672 C20.381875,7.12207031 16.5891016,3.26101562 11.9199609,3.18699219 Z M11.6839844,16.1698437 C12.0163672,16.1698437 12.2625,16.4414844 12.276875,16.7627344 C12.2912109,17.0829297 11.9941016,17.355625 11.6839844,17.355625 C11.3516016,17.355625 11.1054688,17.0839453 11.0910938,16.7627344 C11.0767578,16.4425391 11.3738672,16.1698437 11.6839844,16.1698437 Z M11.6839844,6.98726562 C13.3105078,6.98726562 14.6337891,8.31054687 14.6337891,9.93707031 C14.6337891,11.298694 13.7064178,12.4477742 12.4501646,12.7859585 L12.276875,12.8269922 L12.276875,14.7121094 C12.276875,15.0396094 12.0114062,15.3050391 11.6839844,15.3050391 C11.3893047,15.3050391 11.144807,15.0900094 11.0988543,14.8083129 L11.0910937,14.7121484 L11.0910937,12.2939844 C11.0910937,11.9665625 11.3565625,11.7010937 11.6839844,11.7010937 C12.6566406,11.7010937 13.4480078,10.9097266 13.4480078,9.93707031 C13.4480078,8.96441406 12.6566406,8.17304687 11.6839844,8.17304687 C10.7113281,8.17304687 9.91996094,8.96441406 9.91996094,9.93707031 C9.91996094,10.2644922 9.65449219,10.5299609 9.32707031,10.5299609 C8.99964844,10.5299609 8.73417969,10.2644922 8.73417969,9.93707031 C8.73417969,8.31054687 10.0574609,6.98726562 11.6839844,6.98726562 Z"/>
</svg>
