<svg xmlns="http://www.w3.org/2000/svg" width="24" height="24" viewBox="0 0 24 24">
  <path fill="#FFF" d="M17.1278438,0.205921875 C17.4024375,-0.068671875 17.8476562,-0.068671875 18.1222031,0.205921875 C18.3693375,0.45305625 18.3940509,0.838358906 18.1963434,1.11312694 L18.1222031,1.20028125 L13.6974844,5.625 L21.890625,5.625 C23.0031644,5.625 23.9173061,6.49077044 23.9946936,7.58395477 L24,7.734375 L24,21.890625 C24,23.0031644 23.1342296,23.9173061 22.0410452,23.9946936 L21.890625,24 L2.109375,24 C0.996835598,24 0.08269388,23.1342296 0.00530639486,22.0410452 L0,21.890625 L0,7.734375 C0,6.6218356 0.86577044,5.70769388 1.95895477,5.63030639 L2.109375,5.625 L10.3025156,5.625 L5.87784375,1.20032812 C5.60325,0.925734375 5.60325,0.4805625 5.87784375,0.20596875 C6.12497813,-0.041165625 6.51031875,-0.0658790625 6.7850602,0.131828437 L6.87220313,0.20596875 L12,5.33376562 L17.1278438,0.205921875 Z M21.890625,7.03125 L2.109375,7.03125 C1.75398047,7.03125 1.45932227,7.29629199 1.41268058,7.63909578 L1.40625,7.734375 L1.40625,21.890625 C1.40625,22.2460195 1.67129199,22.5406777 2.01409578,22.5873194 L2.109375,22.59375 L21.890625,22.59375 C22.2460195,22.59375 22.5406777,22.328708 22.5873194,21.9859042 L22.59375,21.890625 L22.59375,7.734375 C22.59375,7.37898047 22.328708,7.08432227 21.9859042,7.03768058 L21.890625,7.03125 Z M20.484375,8.4375 C20.8403281,8.4375 21.1345208,8.70202995 21.1810811,9.04521777 L21.1875,9.140625 L21.1875,20.484375 C21.1875,20.8403281 20.9229701,21.1345208 20.5797822,21.1810811 L20.484375,21.1875 L3.515625,21.1875 C3.15967187,21.1875 2.86547917,20.9229701 2.81891895,20.5797822 L2.8125,20.484375 L2.8125,9.140625 C2.8125,8.78467187 3.07702995,8.49047917 3.42021777,8.44391895 L3.515625,8.4375 L20.484375,8.4375 Z M19.78125,9.84375 L4.21875,9.84375 L4.21875,19.78125 L19.78125,19.78125 L19.78125,9.84375 Z M10.2619687,11.3800781 C10.4579598,11.2751719 10.6897328,11.2700692 10.8878295,11.3613164 L10.98375,11.4149531 L15.2025,14.2274531 C15.3981563,14.3578594 15.515625,14.5774219 15.515625,14.8125 C15.515625,15.0139955 15.429287,15.2040918 15.2814364,15.3364146 L15.2025,15.3975469 L10.98375,18.2100469 C10.8661406,18.2884687 10.7301094,18.328125 10.5937031,18.328125 C10.4799375,18.328125 10.3659375,18.3005625 10.2619687,18.2449219 C10.0660179,18.1400558 9.9331588,17.9500226 9.89919807,17.7345687 L9.890625,17.625 L9.890625,12 C9.890625,11.7407344 10.0333594,11.5024219 10.2619687,11.3800781 Z M11.296875,13.3138125 L11.296875,16.3111875 L13.5449531,14.8125 L11.296875,13.3138125 Z"/>
</svg>
