<svg xmlns="http://www.w3.org/2000/svg" width="24" height="24" viewBox="0 0 24 24">
  <path fill="#FFF" d="M18.0550313,5.14295313 C18.0550313,4.31853906 18.9088566,3.78899819 19.636255,4.11775947 L19.7392031,4.170625 L23.439375,6.30690625 C24.148125,6.716125 24.1843759,7.70840071 23.5511168,8.17835617 L23.439375,8.25165625 L19.7392031,10.3878906 C19.0251286,10.8002095 18.1397422,10.3252608 18.0607279,9.53112106 L18.0550313,9.4155625 L18.0550313,8.14646875 L16.3838906,8.14646875 C14.395142,8.14646875 13.4018434,9.27895046 12.709736,10.5018276 L12.5355621,10.8222043 L12.5355621,10.8222043 L12.293931,11.301466 L12.293931,11.301466 L11.9940192,11.9164649 C11.9695541,11.9657718 11.9451449,12.0144787 11.9207344,12.0625 L12.40383,13.0389881 L12.40383,13.0389881 L12.577095,13.3731902 C13.2606831,14.6519243 14.1895217,15.8725469 16.1255858,15.9720454 L16.3838906,15.9785781 L18.0550313,15.9785781 L18.0550313,14.7094844 C18.0550313,13.8848466 18.9090701,13.3556799 19.6362841,13.6843126 L19.7392031,13.7371563 L23.439375,15.8734375 C24.148125,16.2826563 24.1842917,17.2748899 23.5511035,17.7447612 L23.439375,17.8180469 L19.7392031,19.9543281 C19.025218,20.3666023 18.1397504,19.8919078 18.0607285,19.0975874 L18.0550313,18.982 L18.0550313,17.7134688 L16.3838906,17.7134688 C14.2831267,17.7134688 12.3791818,16.5932787 11.3583043,14.7737725 L11.2444688,14.56075 L10.9476094,13.9767344 L10.6509375,14.5604688 C9.66239063,16.5051719 7.69307813,17.7132344 5.51151563,17.7132344 C5.03240625,17.7132344 4.644,17.3248281 4.644,16.8457188 C4.644,16.3666094 5.03240625,15.9782031 5.51151563,15.9782031 C7.56395881,15.9782031 8.54684001,14.7819717 9.25376403,13.4931843 L9.42520519,13.1696979 L9.42520519,13.1696979 L9.97448438,12.0624531 L9.97448438,12.0624531 L9.49163237,11.0864827 L9.49163237,11.0864827 L9.31841016,10.7523679 L9.31841016,10.7523679 L9.13404561,10.420855 C8.46576601,9.27001113 7.53754869,8.24412337 5.7698216,8.15323863 L5.51151563,8.14670313 L0.867515625,8.14670313 C0.38840625,8.14670313 1.02140518e-14,7.75825 1.02140518e-14,7.2791875 C1.02140518e-14,6.83697596 0.330949704,6.47200999 0.758697542,6.41847801 L0.867515625,6.41171875 L5.51151563,6.41171875 C7.61227951,6.41171875 9.51622447,7.53195229 10.5371019,9.35146164 L10.6509375,9.56448438 L10.9476094,10.1482188 L11.2444688,9.56420313 C12.1964028,7.69157118 14.0577985,6.5019809 16.1424073,6.41643187 L16.3838906,6.41148438 L18.0550313,6.41148438 L18.0550313,5.14295313 Z M2.507625,15.9783438 C2.98678125,15.9783438 3.3751875,16.36675 3.3751875,16.8458594 C3.3751875,17.2881142 3.0442378,17.6530835 2.61648996,17.7066157 L2.50767188,17.713375 L0.867515625,17.713375 C0.38840625,17.713375 1.02140518e-14,17.3249688 1.02140518e-14,16.8458594 C1.02140518e-14,16.4036046 0.330949704,16.0386353 0.758660674,15.985103 L0.86746875,15.9783438 L2.507625,15.9783438 Z"/>
</svg>
