<svg xmlns="http://www.w3.org/2000/svg" width="24" height="24" viewBox="0 0 24 24">
  <path fill="#FFF" d="M20.9996875,2.17164062 C21.2285156,1.9428125 21.5995703,1.9428125 21.8283594,2.17164062 C22.0317622,2.3750434 22.0543625,2.69079186 21.8962152,2.91916034 L21.8284375,3.0003125 L20.1217969,4.70695312 C20.1551302,4.77690104 20.1841233,4.84943576 20.2083131,4.92425637 L20.2409375,5.03816406 L21.5511719,10.3416797 C21.6877051,10.8876335 21.5501961,11.4706448 21.1919611,11.8983908 L21.0888281,12.0110547 L11.6295312,21.4859766 C10.984421,22.1310869 9.95858402,22.1689999 9.26871492,21.5998134 L9.14347656,21.4859766 L2.5140625,14.8566016 C1.86902574,14.2114913 1.8310824,13.1856543 2.40023248,12.4957852 L2.5140625,12.3705469 L11.9889453,2.91125 C12.3868717,2.51332357 12.9575475,2.33130914 13.5086195,2.41840242 L13.6582812,2.44886719 L18.9618359,3.75914062 C19.0388932,3.77838542 19.1137804,3.80269965 19.1862312,3.83158565 L19.2930469,3.87828125 L20.9996875,2.17164062 Z M13.2332812,3.56851562 C13.1102187,3.56851562 12.9889562,3.60729062 12.8886337,3.67954062 L12.8176172,3.73992187 L3.34269531,13.1991797 C3.13960503,13.40227 3.11703945,13.7185701 3.27499855,13.9468181 L3.34269531,14.0278906 L9.97207031,20.6573047 C10.1751606,20.860395 10.4914607,20.8829606 10.7197088,20.7250014 L10.8007812,20.6573047 L20.2600781,11.1824219 C20.380651,11.0618164 20.4417622,10.8936578 20.4300515,10.7260733 L20.4141797,10.6259766 L19.1843359,5.64425781 L17.7732031,7.05539062 C18.0844531,7.70871094 17.9703516,8.51566406 17.4301562,9.05582031 C17.0875,9.39855469 16.6373047,9.56988281 16.1871875,9.56988281 C15.7370312,9.56988281 15.2868359,9.39851562 14.9441797,9.05582031 C14.25875,8.37039062 14.25875,7.25519531 14.9441797,6.56976562 C15.4456808,6.06826451 16.1773272,5.93402583 16.8023743,6.16654918 L16.9445703,6.22671875 L18.3557031,4.81558594 L13.3740625,3.58578125 C13.3276172,3.57417969 13.2803125,3.56851562 13.2332812,3.56851562 Z M9.97210938,14.8565625 C10.6592188,14.1694922 11.7711328,14.1695703 12.458125,14.8565625 C13.1435547,15.5419922 13.1435547,16.6571875 12.458125,17.3426172 C11.7710547,18.0297266 10.6591406,18.0296094 9.97210938,17.3426172 C9.28667969,16.6571875 9.28667969,15.5419922 9.97210938,14.8565625 Z M11.6294531,15.6852734 C11.4004688,15.45625 11.0297656,15.4562891 10.8007813,15.6852734 C10.5723438,15.9137109 10.5723438,16.2855078 10.8007813,16.5139453 C11.0297656,16.7429687 11.4005078,16.7429297 11.6294531,16.5139453 C11.8578906,16.2854297 11.8578906,15.9137109 11.6294531,15.6852734 Z M14.4651172,12.2025 C14.7867187,12.1667578 15.0764844,12.3985547 15.1122266,12.7201953 C15.1444297,13.0096719 14.9598945,13.2732664 14.6881895,13.3491751 L14.5945703,13.3673047 L7.13648437,14.1959766 C7.11453125,14.1983984 7.09265625,14.1996094 7.07105469,14.1996094 C6.77636719,14.1996094 6.52269531,13.9779297 6.489375,13.6782812 C6.45720703,13.3887695 6.6417457,13.1251715 6.91345113,13.0492909 L7.00707031,13.0311719 L14.4651172,12.2025 Z M9.14339844,9.05585938 C9.82882812,8.37046875 10.9440625,8.37046875 11.6294531,9.05585938 C12.3148828,9.74128906 12.3148828,10.8564844 11.6294531,11.5419141 C10.9440625,12.2273047 9.82878906,12.2273047 9.14339844,11.5419141 C8.45804687,10.8564844 8.45804687,9.74125 9.14339844,9.05585938 Z M10.8008203,9.88453125 C10.5723047,9.65605469 10.2005859,9.65609375 9.97210937,9.88453125 C9.74363281,10.1129688 9.74371094,10.4847266 9.97214844,10.7132031 C10.2005859,10.9416797 10.5723437,10.9416797 10.8008203,10.7132031 C11.0292578,10.4847266 11.0292578,10.1129688 10.8008203,9.88453125 Z M16.1871875,7.2271875 C16.0371094,7.2271875 15.8871094,7.28425781 15.7728516,7.39851562 C15.5444141,7.62695312 15.5444141,7.99875 15.7728516,8.2271875 C16.0013281,8.45566406 16.3730859,8.455625 16.6015234,8.2271875 C16.804579,8.02413194 16.8271716,7.70783565 16.6692189,7.47961548 L16.6015234,7.39855469 L16.5289175,7.3368175 C16.4272375,7.2637375 16.3071875,7.2271875 16.1871875,7.2271875 Z"/>
</svg>
