<svg xmlns="http://www.w3.org/2000/svg" width="24" height="24" viewBox="0 0 24 24">
  <path fill="#FFF" d="M17.671875,20.7578125 C18.0601875,20.7578125 18.375,21.072625 18.375,21.4609375 C18.375,21.8168906 18.1104701,22.1110833 17.7672822,22.1576436 L17.671875,22.1640625 L6.328125,22.1640625 C5.9398125,22.1640625 5.625,21.84925 5.625,21.4609375 C5.625,21.1049844 5.88952995,20.8107917 6.23271777,20.7642314 L6.328125,20.7578125 L17.671875,20.7578125 Z M20.484375,17.9453125 C20.8726875,17.9453125 21.1875,18.260125 21.1875,18.6484375 C21.1875,19.0043906 20.9229701,19.2985833 20.5797822,19.3451436 L20.484375,19.3515625 L3.515625,19.3515625 C3.1273125,19.3515625 2.8125,19.03675 2.8125,18.6484375 C2.8125,18.2924844 3.07702995,17.9982917 3.42021777,17.9517314 L3.515625,17.9453125 L20.484375,17.9453125 Z M12,6.6953125 C15.4893281,6.6953125 18.328125,9.75036956 18.328125,13.5055155 C18.328125,14.1711426 18.2370344,14.8305432 18.0612294,15.4621788 L17.9662969,15.7755832 L23.296875,15.7755832 C23.6851875,15.7755832 24,16.1143782 24,16.5322724 C24,16.9153421 23.7354701,17.2320313 23.3922822,17.2821526 L23.296875,17.2890625 L0.703125,17.2890625 C0.3148125,17.2890625 0,16.9501666 0,16.5322724 C0,16.1492027 0.264529948,15.8325983 0.607717773,15.7824911 L0.703125,15.7755832 L6.03370312,15.7755832 C5.79585938,15.0501704 5.671875,14.2820804 5.671875,13.5055155 C5.671875,9.75036956 8.51067187,6.6953125 12,6.6953125 Z M12,8.20869094 C9.28607812,8.20869094 7.078125,10.5848464 7.078125,13.5055155 C7.078125,14.1950738 7.20330469,14.8757488 7.44289297,15.5077979 L7.55254688,15.7755832 L16.4474531,15.7755832 C16.758375,15.0700461 16.921875,14.2935821 16.921875,13.5055155 C16.921875,10.5848464 14.7139219,8.20869094 12,8.20869094 Z M3.5625,12.3203125 C3.9508125,12.3203125 4.265625,12.635125 4.265625,13.0234375 C4.265625,13.3793906 4.00109505,13.6735833 3.65790723,13.7201436 L3.5625,13.7265625 L0.703125,13.7265625 C0.3148125,13.7265625 0,13.41175 0,13.0234375 C0,12.6674844 0.264529948,12.3732917 0.607717773,12.3267314 L0.703125,12.3203125 L3.5625,12.3203125 Z M23.296875,12.3203125 C23.6851875,12.3203125 24,12.635125 24,13.0234375 C24,13.3793906 23.7354701,13.6735833 23.3922822,13.7201436 L23.296875,13.7265625 L20.4375,13.7265625 C20.0491875,13.7265625 19.734375,13.41175 19.734375,13.0234375 C19.734375,12.6674844 19.9989049,12.3732917 20.3420928,12.3267314 L20.4375,12.3203125 L23.296875,12.3203125 Z M20.8252969,8.60682812 C21.1840781,8.4581875 21.5953594,8.62857812 21.744,8.98735937 C21.8790852,9.31348153 21.750547,9.6830696 21.4565376,9.85921289 L21.3634687,9.90601562 L20.0642812,10.4441406 C19.9762969,10.4806094 19.8851719,10.4978594 19.7955,10.4978594 C19.5195937,10.4978594 19.2577969,10.3344062 19.145625,10.0636094 C19.0105824,9.73748722 19.1390857,9.36789915 19.4330533,9.19175586 L19.5261094,9.14495312 L20.8252969,8.60682812 Z M2.25590625,8.9873125 C2.39099148,8.66114773 2.74313507,8.49071643 3.07567287,8.57406518 L3.17460937,8.60678125 L4.47384375,9.14490625 C4.83257812,9.29354688 5.00296875,9.70482813 4.854375,10.0636094 C4.74225,10.3344063 4.48040625,10.4978594 4.2045,10.4978594 C4.14471875,10.4978594 4.0843125,10.4901719 4.02460069,10.4742552 L3.93571875,10.4441406 L2.63648437,9.90601563 C2.27775,9.75742188 2.1073125,9.34609375 2.25590625,8.9873125 Z M3.54782813,4.5713125 C3.7949625,4.32417813 4.18030313,4.29946469 4.45504458,4.49717219 L4.5421875,4.5713125 L6.53090625,6.56003125 C6.8055,6.834625 6.8055,7.27979688 6.53090625,7.55439063 C6.39365625,7.69173438 6.21365625,7.76035938 6.03375,7.76035938 C5.889825,7.76035938 5.74587,7.71640938 5.623749,7.62853338 L5.53659375,7.55439063 L3.54782813,5.56567188 C3.27323438,5.29107813 3.27323438,4.84590625 3.54782813,4.5713125 Z M19.4577656,4.5713125 C19.7324063,4.29671875 20.177625,4.29671875 20.452125,4.5713125 C20.6992594,4.81844688 20.7239728,5.2037875 20.5262653,5.47852895 L20.452125,5.56567188 L18.4633594,7.55439063 C18.3261094,7.6916875 18.1461094,7.76035938 17.9662031,7.76035938 C17.78625,7.76035938 17.6063438,7.6916875 17.469,7.55439063 C17.2218656,7.30725625 17.1971522,6.92191563 17.3948597,6.64717417 L17.469,6.56003125 L19.4577656,4.5713125 Z M7.963875,3.27939062 C8.28999716,3.14434801 8.65962397,3.27281263 8.8357743,3.56684355 L8.88257812,3.65992187 L9.42070312,4.95910937 C9.56929687,5.31789062 9.39890625,5.72921875 9.04017187,5.8778125 C8.9521875,5.91428125 8.8610625,5.93153125 8.77139062,5.93153125 C8.52997266,5.93153125 8.29935718,5.80638745 8.17032907,5.59368875 L8.12151562,5.49728125 L7.58334375,4.19809375 C7.43475,3.8393125 7.60514063,3.42798437 7.963875,3.27939062 Z M15.117375,3.65992187 C15.2659687,3.30114062 15.6773906,3.13084375 16.0360781,3.27939062 C16.3622003,3.41451847 16.5326665,3.76670467 16.4493244,4.09917944 L16.4166094,4.19809375 L15.8784844,5.49728125 C15.7663594,5.76807812 15.5045156,5.93153125 15.2286094,5.93153125 C15.1389375,5.93153125 15.0478125,5.91423437 14.9598281,5.8778125 C14.6336634,5.74272727 14.4631933,5.3905062 14.546535,5.05802475 L14.57925,4.95910937 L15.117375,3.65992187 Z M12,1.0234375 C12.3559531,1.0234375 12.6501458,1.28796745 12.6967061,1.63115527 L12.703125,1.7265625 L12.703125,4.5859375 C12.703125,4.97425 12.3883125,5.2890625 12,5.2890625 C11.6440469,5.2890625 11.3498542,5.02453255 11.3032939,4.68134473 L11.296875,4.5859375 L11.296875,1.7265625 C11.296875,1.33825 11.6116875,1.0234375 12,1.0234375 Z"/>
</svg>
