<svg xmlns="http://www.w3.org/2000/svg" width="24" height="24" viewBox="0 0 24 24">
  <path fill="#FFF" d="M14.7799227,0.380112283 C14.9953515,0.189516989 15.311885,0.186235733 15.53016,0.358074935 L15.6070179,0.430699591 L17.6777055,2.77118622 C17.8921252,3.01354361 17.8694756,3.38386169 17.6271182,3.5982814 C16.739869,4.3832532 16.6566596,5.74371449 17.4416314,6.63096371 C18.2266032,7.51821294 19.5870645,7.60142231 20.4743137,6.81645051 C20.6897425,6.62585521 21.0062761,6.62257396 21.224551,6.79441316 L21.3014089,6.86703782 L23.3720966,9.20752444 C23.5626918,9.42295324 23.5659731,9.73948677 23.3941339,9.95776175 L23.3215092,10.0346196 L9.22007731,22.5105127 C9.00464852,22.701108 8.68811499,22.7043893 8.46984001,22.5325501 L8.39298214,22.4599254 L6.32229449,20.1194388 C6.10787478,19.8770814 6.1305244,19.5067633 6.37288179,19.2923436 C7.26013102,18.5073718 7.3433404,17.1469105 6.55836859,16.2596613 C5.77339679,15.3724121 4.4129355,15.2892027 3.52568628,16.0741745 C3.31025748,16.2647698 2.99372395,16.268051 2.77544897,16.0962118 L2.6985911,16.0235872 L0.627903447,13.6831006 C0.437308153,13.4676718 0.434026897,13.1511382 0.605866099,12.9328632 L0.678490755,12.8560054 L14.7799227,0.380112283 Z M11.2850425,5.03679973 L1.89383987,13.3454339 L3.22231541,14.8470024 C4.56885172,14.0263079 6.35535919,14.2616534 7.43605108,15.4831534 C8.47171413,16.6537576 8.52944257,18.3573775 7.67108494,19.5855857 L7.55393514,19.7430078 L8.88241069,21.2445763 L18.2736133,12.9359421 L11.2850425,5.03679973 Z M15.1175893,1.6460487 L12.1627249,4.26029186 L19.1512958,12.1594342 L22.1061601,9.54519107 L20.7776846,8.04362262 C19.4311483,8.8643171 17.6446408,8.62897155 16.5639489,7.40747158 C15.5282859,6.23686744 15.4705574,4.53324754 16.3289151,3.30503926 L16.4460649,3.14761715 L15.1175893,1.6460487 Z M8.66337593,9.4424925 C9.87326124,8.3720764 11.7284357,8.48554373 12.7988518,9.69542904 C13.8895555,10.9282453 14.0015807,12.5439173 13.9262681,13.6047955 L13.9016781,13.8796662 C13.8970039,13.9229507 13.8920912,13.9649127 13.8870143,14.0054643 L13.8551788,14.2311441 L13.8551788,14.2311441 L13.793961,14.5640443 L13.793961,14.5640443 L13.7597963,14.71082 L13.7597963,14.71082 C13.7071367,14.9118431 13.552854,15.0676451 13.357412,15.1247323 L13.2527717,15.1453777 L13.2527717,15.1453777 L13.042186,15.1654367 L13.042186,15.1654367 L12.8638664,15.1760154 L12.8638664,15.1760154 L12.6435965,15.1825595 C12.6036696,15.1831307 12.5622053,15.1833962 12.5193087,15.1833112 L12.2455837,15.1775912 C12.1491742,15.1738283 12.0478776,15.1680177 11.9425355,15.1596094 L11.6152147,15.1260414 C10.6018944,14.9986575 9.32908017,14.6163029 8.41043939,13.5779684 C7.34002329,12.3680831 7.45349062,10.5129086 8.66337593,9.4424925 Z M9.4398838,10.320175 C8.71395262,10.9624246 8.64587222,12.0755293 9.28812187,12.8014605 C10.1286249,13.7514764 11.4319606,13.9725279 12.2794473,14.0062696 L12.5740926,14.0112005 C12.6190407,14.0109116 12.6617596,14.0101555 12.702025,14.0090644 L12.7341658,13.7561734 L12.7341658,13.7561734 L12.7591044,13.4579261 C12.8102401,12.6097754 12.7153816,11.3696306 11.9211693,10.4719369 C11.2789197,9.74600573 10.165815,9.67792533 9.4398838,10.320175 Z M10.0352065,10.9930649 C10.3583603,10.7071626 10.8520978,10.7373609 11.1380001,11.0605146 C11.4239024,11.3836684 11.3937041,11.8774059 11.0705503,12.1633082 C10.7473966,12.4492105 10.2536591,12.4190122 9.96775675,12.0958585 C9.68185445,11.7727047 9.71205273,11.2789672 10.0352065,10.9930649 Z"/>
</svg>
