<svg xmlns="http://www.w3.org/2000/svg" width="24" height="24" viewBox="0 0 24 24">
  <path fill="#FFF" fill-rule="evenodd" d="M14.25,2 C15.215,2 16,2.785 16,3.75 L16,5 L21.25,5 C22.767,5 24,6.233 24,7.75 L24,19.25 C24,20.767 22.767,22 21.25,22 L2.75,22 C1.233,22 0,20.767 0,19.25 L0,7.75 C0,6.233 1.233,5 2.75,5 L7.999,5 L8,3.75 C8,2.785 8.785,2 9.75,2 L14.25,2 Z M5.75,6.5 L2.75,6.5 C2.061,6.5 1.5,7.061 1.5,7.75 L1.5,19.25 C1.5,19.939 2.061,20.5 2.75,20.5 L5.75,20.5 L5.75,17 C4.785,17 4,16.215 4,15.25 L4,12.75 C4,11.83325 4.7084625,11.07895 5.60667562,11.0058119 L5.75,11 L5.75,6.5 Z M16.75,6.5 L7.25,6.5 L7.25,11 C8.215,11 9,11.785 9,12.75 L9,15.25 C9,16.215 8.215,17 7.25,17 L7.25,20.5 L16.75,20.5 L16.75,17 C15.785,17 15,16.215 15,15.25 L15,12.75 C15,11.785 15.785,11 16.75,11 L16.75,6.5 Z M21.25,6.5 L18.25,6.5 L18.25,11 C19.215,11 20,11.785 20,12.75 L20,15.25 C20,16.215 19.215,17 18.25,17 L18.25,20.5 L21.25,20.5 C21.939,20.5 22.5,19.939 22.5,19.25 L22.5,7.75 C22.5,7.061 21.939,6.5 21.25,6.5 Z M7.25,12.5 L5.75,12.5 C5.612,12.5 5.5,12.612 5.5,12.75 L5.5,15.25 C5.5,15.388 5.612,15.5 5.75,15.5 L7.25,15.5 C7.388,15.5 7.5,15.388 7.5,15.25 L7.5,12.75 C7.5,12.612 7.388,12.5 7.25,12.5 Z M18.25,12.5 L16.75,12.5 C16.612,12.5 16.5,12.612 16.5,12.75 L16.5,15.25 C16.5,15.388 16.612,15.5 16.75,15.5 L18.25,15.5 C18.388,15.5 18.5,15.388 18.5,15.25 L18.5,12.75 C18.5,12.612 18.388,12.5 18.25,12.5 Z M14.25,3.5 L9.75,3.5 C9.612,3.5 9.5,3.612 9.5,3.75 L9.5,5 L14.5,5 L14.5,3.75 C14.5,3.612 14.388,3.5 14.25,3.5 Z"/>
</svg>
