<svg xmlns="http://www.w3.org/2000/svg" width="64" height="64" viewBox="0 0 64 64">
  <path fill-rule="evenodd" d="M27.8776042,3.33333333 C28.3629948,3.33333333 28.7656979,3.6874974 28.8413846,4.15149661 L28.8541667,4.30989583 L28.8541667,16.3541667 L35.6901042,16.3541667 C36.1754948,16.3541667 36.5781979,16.7083307 36.6538846,17.1723299 L36.6666667,17.3307292 L36.6666667,35.6901042 C36.6666667,36.1754948 36.3125026,36.5781979 35.8485034,36.6538846 L35.6901042,36.6666667 L4.30989583,36.6666667 C3.82450521,36.6666667 3.42180208,36.3125026 3.34611536,35.8485034 L3.33333333,35.6901042 L3.33333333,17.3307292 C3.33333333,16.8453385 3.6874974,16.4426354 4.15149661,16.3669487 L4.30989583,16.3541667 L11.1458333,16.3541667 L11.1458333,4.30989583 C11.1458333,3.82450521 11.4999974,3.42180208 11.9639966,3.34611536 L12.1223958,3.33333333 L27.8776042,3.33333333 Z M11.1458333,18.3072917 L5.28645833,18.3072917 L5.28645833,34.7135417 L11.1458333,34.7135417 L11.1458333,18.3072917 Z M26.9010417,5.28645833 L13.0989583,5.28645833 L13.0989583,34.7135417 L15.1171875,34.7135417 L15.1171875,31.328125 C15.1171875,30.8427344 15.4713516,30.4400313 15.9353508,30.3643445 L16.09375,30.3515625 L23.90625,30.3515625 C24.3916406,30.3515625 24.7943437,30.7057266 24.8700305,31.1697258 L24.8828125,31.328125 L24.8828125,34.7135417 L26.9010417,34.7135417 L26.9010417,5.28645833 Z M19.0234375,32.3046875 L17.0703125,32.3046875 L17.0703125,34.7135417 L19.0234375,34.7135417 L19.0234375,32.3046875 Z M22.9296875,32.3046875 L20.9765625,32.3046875 L20.9765625,34.7135417 L22.9296875,34.7135417 L22.9296875,32.3046875 Z M34.7135417,18.3072917 L28.8541667,18.3072917 L28.8541667,34.7135417 L34.7135417,34.7135417 L34.7135417,18.3072917 Z M31.7838542,26.1197917 C32.2692448,26.1197917 32.6719479,26.4739557 32.7476346,26.9379549 L32.7604167,27.0963542 L32.7604167,29.0494792 C32.7604167,29.5888021 32.3231771,30.0260417 31.7838542,30.0260417 C31.2984635,30.0260417 30.8957604,29.6718776 30.8200737,29.2078784 L30.8072917,29.0494792 L30.8072917,27.0963542 C30.8072917,26.5570312 31.2445312,26.1197917 31.7838542,26.1197917 Z M8.21614583,26.1197917 C8.70153646,26.1197917 9.10423958,26.4739557 9.1799263,26.9379549 L9.19270833,27.0963542 L9.19270833,29.0494792 C9.19270833,29.5888021 8.75546875,30.0260417 8.21614583,30.0260417 C7.73075521,30.0260417 7.32805208,29.6718776 7.25236536,29.2078784 L7.23958333,29.0494792 L7.23958333,27.0963542 C7.23958333,26.5570312 7.67682292,26.1197917 8.21614583,26.1197917 Z M16.09375,24.4921875 C16.5791406,24.4921875 16.9818437,24.8463516 17.0575305,25.3103508 L17.0703125,25.46875 L17.0703125,27.421875 C17.0703125,27.9611979 16.6330729,28.3984375 16.09375,28.3984375 C15.6083594,28.3984375 15.2056563,28.0442734 15.1299695,27.5802742 L15.1171875,27.421875 L15.1171875,25.46875 C15.1171875,24.9294271 15.5544271,24.4921875 16.09375,24.4921875 Z M20,24.4921875 C20.4853906,24.4921875 20.8880937,24.8463516 20.9637805,25.3103508 L20.9765625,25.46875 L20.9765625,27.421875 C20.9765625,27.9611979 20.5393229,28.3984375 20,28.3984375 C19.5146094,28.3984375 19.1119063,28.0442734 19.0362195,27.5802742 L19.0234375,27.421875 L19.0234375,25.46875 C19.0234375,24.9294271 19.4606771,24.4921875 20,24.4921875 Z M23.90625,24.4921875 C24.3916406,24.4921875 24.7943437,24.8463516 24.8700305,25.3103508 L24.8828125,25.46875 L24.8828125,27.421875 C24.8828125,27.9611979 24.4455729,28.3984375 23.90625,28.3984375 C23.4208594,28.3984375 23.0181562,28.0442734 22.9424695,27.5802742 L22.9296875,27.421875 L22.9296875,25.46875 C22.9296875,24.9294271 23.3669271,24.4921875 23.90625,24.4921875 Z M31.7838542,20.2604167 C32.2692448,20.2604167 32.6719479,20.6145807 32.7476346,21.0785799 L32.7604167,21.2369792 L32.7604167,23.1901042 C32.7604167,23.7294271 32.3231771,24.1666667 31.7838542,24.1666667 C31.2984635,24.1666667 30.8957604,23.8125026 30.8200737,23.3485034 L30.8072917,23.1901042 L30.8072917,21.2369792 C30.8072917,20.6976562 31.2445312,20.2604167 31.7838542,20.2604167 Z M8.21614583,20.2604167 C8.70153646,20.2604167 9.10423958,20.6145807 9.1799263,21.0785799 L9.19270833,21.2369792 L9.19270833,23.1901042 C9.19270833,23.7294271 8.75546875,24.1666667 8.21614583,24.1666667 C7.73075521,24.1666667 7.32805208,23.8125026 7.25236536,23.3485034 L7.23958333,23.1901042 L7.23958333,21.2369792 C7.23958333,20.6976562 7.67682292,20.2604167 8.21614583,20.2604167 Z M16.09375,18.6328125 C16.5791406,18.6328125 16.9818437,18.9869766 17.0575305,19.4509758 L17.0703125,19.609375 L17.0703125,21.5625 C17.0703125,22.1018229 16.6330729,22.5390625 16.09375,22.5390625 C15.6083594,22.5390625 15.2056563,22.1848984 15.1299695,21.7208992 L15.1171875,21.5625 L15.1171875,19.609375 C15.1171875,19.0700521 15.5544271,18.6328125 16.09375,18.6328125 Z M20,18.6328125 C20.4853906,18.6328125 20.8880937,18.9869766 20.9637805,19.4509758 L20.9765625,19.609375 L20.9765625,21.5625 C20.9765625,22.1018229 20.5393229,22.5390625 20,22.5390625 C19.5146094,22.5390625 19.1119063,22.1848984 19.0362195,21.7208992 L19.0234375,21.5625 L19.0234375,19.609375 C19.0234375,19.0700521 19.4606771,18.6328125 20,18.6328125 Z M23.90625,18.6328125 C24.3916406,18.6328125 24.7943437,18.9869766 24.8700305,19.4509758 L24.8828125,19.609375 L24.8828125,21.5625 C24.8828125,22.1018229 24.4455729,22.5390625 23.90625,22.5390625 C23.4208594,22.5390625 23.0181562,22.1848984 22.9424695,21.7208992 L22.9296875,21.5625 L22.9296875,19.609375 C22.9296875,19.0700521 23.3669271,18.6328125 23.90625,18.6328125 Z M16.09375,12.7734375 C16.5791406,12.7734375 16.9818437,13.1276016 17.0575305,13.5916008 L17.0703125,13.75 L17.0703125,15.703125 C17.0703125,16.2424479 16.6330729,16.6796875 16.09375,16.6796875 C15.6083594,16.6796875 15.2056563,16.3255234 15.1299695,15.8615242 L15.1171875,15.703125 L15.1171875,13.75 C15.1171875,13.2106771 15.5544271,12.7734375 16.09375,12.7734375 Z M20,12.7734375 C20.4853906,12.7734375 20.8880937,13.1276016 20.9637805,13.5916008 L20.9765625,13.75 L20.9765625,15.703125 C20.9765625,16.2424479 20.5393229,16.6796875 20,16.6796875 C19.5146094,16.6796875 19.1119063,16.3255234 19.0362195,15.8615242 L19.0234375,15.703125 L19.0234375,13.75 C19.0234375,13.2106771 19.4606771,12.7734375 20,12.7734375 Z M23.90625,12.7734375 C24.3916406,12.7734375 24.7943437,13.1276016 24.8700305,13.5916008 L24.8828125,13.75 L24.8828125,15.703125 C24.8828125,16.2424479 24.4455729,16.6796875 23.90625,16.6796875 C23.4208594,16.6796875 23.0181562,16.3255234 22.9424695,15.8615242 L22.9296875,15.703125 L22.9296875,13.75 C22.9296875,13.2106771 23.3669271,12.7734375 23.90625,12.7734375 Z M16.09375,6.9140625 C16.5791406,6.9140625 16.9818437,7.26822656 17.0575305,7.73222578 L17.0703125,7.890625 L17.0703125,9.84375 C17.0703125,10.3830729 16.6330729,10.8203125 16.09375,10.8203125 C15.6083594,10.8203125 15.2056563,10.4661484 15.1299695,10.0021492 L15.1171875,9.84375 L15.1171875,7.890625 C15.1171875,7.35130208 15.5544271,6.9140625 16.09375,6.9140625 Z M20,6.9140625 C20.4853906,6.9140625 20.8880937,7.26822656 20.9637805,7.73222578 L20.9765625,7.890625 L20.9765625,9.84375 C20.9765625,10.3830729 20.5393229,10.8203125 20,10.8203125 C19.5146094,10.8203125 19.1119063,10.4661484 19.0362195,10.0021492 L19.0234375,9.84375 L19.0234375,7.890625 C19.0234375,7.35130208 19.4606771,6.9140625 20,6.9140625 Z M23.90625,6.9140625 C24.3916406,6.9140625 24.7943437,7.26822656 24.8700305,7.73222578 L24.8828125,7.890625 L24.8828125,9.84375 C24.8828125,10.3830729 24.4455729,10.8203125 23.90625,10.8203125 C23.4208594,10.8203125 23.0181562,10.4661484 22.9424695,10.0021492 L22.9296875,9.84375 L22.9296875,7.890625 C22.9296875,7.35130208 23.3669271,6.9140625 23.90625,6.9140625 Z" transform="translate(12 12)"/>
</svg>
