<svg xmlns="http://www.w3.org/2000/svg" xmlns:xlink="http://www.w3.org/1999/xlink" width="64" height="64" viewBox="0 0 64 64">
  <defs>
    <rect id="hover@3x-b" width="60" height="60" x="0" y="0" rx="30"/>
    <filter id="hover@3x-a" width="126.7%" height="126.7%" x="-13.3%" y="-11.7%" filterUnits="objectBoundingBox">
      <feOffset dy="1" in="SourceAlpha" result="shadowOffsetOuter1"/>
      <feGaussianBlur in="shadowOffsetOuter1" result="shadowBlurOuter1" stdDeviation="2.5"/>
      <feComposite in="shadowBlurOuter1" in2="SourceAlpha" operator="out" result="shadowBlurOuter1"/>
      <feColorMatrix in="shadowBlurOuter1" result="shadowMatrixOuter1" values="0 0 0 0 0   0 0 0 0 0   0 0 0 0 0  0 0 0 0.2 0"/>
      <feMorphology in="SourceAlpha" radius="1" result="shadowSpreadOuter2"/>
      <feOffset dy="3" in="shadowSpreadOuter2" result="shadowOffsetOuter2"/>
      <feGaussianBlur in="shadowOffsetOuter2" result="shadowBlurOuter2" stdDeviation=".5"/>
      <feComposite in="shadowBlurOuter2" in2="SourceAlpha" operator="out" result="shadowBlurOuter2"/>
      <feColorMatrix in="shadowBlurOuter2" result="shadowMatrixOuter2" values="0 0 0 0 0   0 0 0 0 0   0 0 0 0 0  0 0 0 0.12 0"/>
      <feOffset dy="2" in="SourceAlpha" result="shadowOffsetOuter3"/>
      <feGaussianBlur in="shadowOffsetOuter3" result="shadowBlurOuter3" stdDeviation="1"/>
      <feComposite in="shadowBlurOuter3" in2="SourceAlpha" operator="out" result="shadowBlurOuter3"/>
      <feColorMatrix in="shadowBlurOuter3" result="shadowMatrixOuter3" values="0 0 0 0 0   0 0 0 0 0   0 0 0 0 0  0 0 0 0.14 0"/>
      <feMerge>
        <feMergeNode in="shadowMatrixOuter1"/>
        <feMergeNode in="shadowMatrixOuter2"/>
        <feMergeNode in="shadowMatrixOuter3"/>
      </feMerge>
    </filter>
  </defs>
  <g fill="none" fill-rule="evenodd">
    <g transform="translate(2 2)">
      <use fill="#000" filter="url(#hover@3x-a)" xlink:href="#hover@3x-b"/>
      <use fill="#FF00B9" fill-opacity="0" xlink:href="#hover@3x-b"/>
      <rect width="60" height="60" fill="#FFF" rx="30"/>
      <rect width="59" height="59" x=".5" y=".5" stroke="#000" opacity="0" rx="29.5"/>
    </g>
    <g transform="translate(15 15)">
      <path fill="#5CD999" d="M23.9010417,2.28645833 L10.0989583,2.28645833 L10.0989583,31.7135417 L12.1171875,31.7135417 L12.1171875,28.328125 C12.1171875,27.8427344 12.4713516,27.4400312 12.9353508,27.3643445 L13.09375,27.3515625 L20.90625,27.3515625 C21.3916406,27.3515625 21.7943437,27.7057266 21.8700305,28.1697258 L21.8828125,28.328125 L21.8828125,31.7135417 L23.9010417,31.7135417 L23.9010417,2.28645833 Z"/>
      <path fill="#037092" d="M24.8776042,0.333333333 C25.3629948,0.333333333 25.7656979,0.687497396 25.8413846,1.15149661 L25.8541667,1.30989583 L25.8541667,13.3541667 L32.6901042,13.3541667 C33.1754948,13.3541667 33.5781979,13.7083307 33.6538846,14.1723299 L33.6666667,14.3307292 L33.6666667,32.6901042 C33.6666667,33.1754948 33.3125026,33.5781979 32.8485034,33.6538846 L32.6901042,33.6666667 L1.30989583,33.6666667 C0.824505208,33.6666667 0.421802083,33.3125026 0.346115365,32.8485034 L0.333333333,32.6901042 L0.333333333,14.3307292 C0.333333333,13.8453385 0.687497396,13.4426354 1.15149661,13.3669487 L1.30989583,13.3541667 L8.14583333,13.3541667 L8.14583333,1.30989583 C8.14583333,0.824505208 8.4999974,0.421802083 8.96399661,0.346115365 L9.12239583,0.333333333 L24.8776042,0.333333333 Z M8.14583333,15.3072917 L2.28645833,15.3072917 L2.28645833,31.7135417 L8.14583333,31.7135417 L8.14583333,15.3072917 Z M23.9010417,2.28645833 L10.0989583,2.28645833 L10.0989583,31.7135417 L12.1171875,31.7135417 L12.1171875,28.328125 C12.1171875,27.8427344 12.4713516,27.4400312 12.9353508,27.3643445 L13.09375,27.3515625 L20.90625,27.3515625 C21.3916406,27.3515625 21.7943437,27.7057266 21.8700305,28.1697258 L21.8828125,28.328125 L21.8828125,31.7135417 L23.9010417,31.7135417 L23.9010417,2.28645833 Z M16.0234375,29.3046875 L14.0703125,29.3046875 L14.0703125,31.7135417 L16.0234375,31.7135417 L16.0234375,29.3046875 Z M19.9296875,29.3046875 L17.9765625,29.3046875 L17.9765625,31.7135417 L19.9296875,31.7135417 L19.9296875,29.3046875 Z M31.7135417,15.3072917 L25.8541667,15.3072917 L25.8541667,31.7135417 L31.7135417,31.7135417 L31.7135417,15.3072917 Z M28.7838542,23.1197917 C29.2692448,23.1197917 29.6719479,23.4739557 29.7476346,23.9379549 L29.7604167,24.0963542 L29.7604167,26.0494792 C29.7604167,26.5888021 29.3231771,27.0260417 28.7838542,27.0260417 C28.2984635,27.0260417 27.8957604,26.6718776 27.8200737,26.2078784 L27.8072917,26.0494792 L27.8072917,24.0963542 C27.8072917,23.5570312 28.2445312,23.1197917 28.7838542,23.1197917 Z M5.21614583,23.1197917 C5.70153646,23.1197917 6.10423958,23.4739557 6.1799263,23.9379549 L6.19270833,24.0963542 L6.19270833,26.0494792 C6.19270833,26.5888021 5.75546875,27.0260417 5.21614583,27.0260417 C4.73075521,27.0260417 4.32805208,26.6718776 4.25236536,26.2078784 L4.23958333,26.0494792 L4.23958333,24.0963542 C4.23958333,23.5570312 4.67682292,23.1197917 5.21614583,23.1197917 Z M13.09375,21.4921875 C13.5791406,21.4921875 13.9818437,21.8463516 14.0575305,22.3103508 L14.0703125,22.46875 L14.0703125,24.421875 C14.0703125,24.9611979 13.6330729,25.3984375 13.09375,25.3984375 C12.6083594,25.3984375 12.2056562,25.0442734 12.1299695,24.5802742 L12.1171875,24.421875 L12.1171875,22.46875 C12.1171875,21.9294271 12.5544271,21.4921875 13.09375,21.4921875 Z M17,21.4921875 C17.4853906,21.4921875 17.8880937,21.8463516 17.9637805,22.3103508 L17.9765625,22.46875 L17.9765625,24.421875 C17.9765625,24.9611979 17.5393229,25.3984375 17,25.3984375 C16.5146094,25.3984375 16.1119062,25.0442734 16.0362195,24.5802742 L16.0234375,24.421875 L16.0234375,22.46875 C16.0234375,21.9294271 16.4606771,21.4921875 17,21.4921875 Z M20.90625,21.4921875 C21.3916406,21.4921875 21.7943437,21.8463516 21.8700305,22.3103508 L21.8828125,22.46875 L21.8828125,24.421875 C21.8828125,24.9611979 21.4455729,25.3984375 20.90625,25.3984375 C20.4208594,25.3984375 20.0181562,25.0442734 19.9424695,24.5802742 L19.9296875,24.421875 L19.9296875,22.46875 C19.9296875,21.9294271 20.3669271,21.4921875 20.90625,21.4921875 Z M28.7838542,17.2604167 C29.2692448,17.2604167 29.6719479,17.6145807 29.7476346,18.0785799 L29.7604167,18.2369792 L29.7604167,20.1901042 C29.7604167,20.7294271 29.3231771,21.1666667 28.7838542,21.1666667 C28.2984635,21.1666667 27.8957604,20.8125026 27.8200737,20.3485034 L27.8072917,20.1901042 L27.8072917,18.2369792 C27.8072917,17.6976562 28.2445312,17.2604167 28.7838542,17.2604167 Z M5.21614583,17.2604167 C5.70153646,17.2604167 6.10423958,17.6145807 6.1799263,18.0785799 L6.19270833,18.2369792 L6.19270833,20.1901042 C6.19270833,20.7294271 5.75546875,21.1666667 5.21614583,21.1666667 C4.73075521,21.1666667 4.32805208,20.8125026 4.25236536,20.3485034 L4.23958333,20.1901042 L4.23958333,18.2369792 C4.23958333,17.6976562 4.67682292,17.2604167 5.21614583,17.2604167 Z M13.09375,15.6328125 C13.5791406,15.6328125 13.9818437,15.9869766 14.0575305,16.4509758 L14.0703125,16.609375 L14.0703125,18.5625 C14.0703125,19.1018229 13.6330729,19.5390625 13.09375,19.5390625 C12.6083594,19.5390625 12.2056562,19.1848984 12.1299695,18.7208992 L12.1171875,18.5625 L12.1171875,16.609375 C12.1171875,16.0700521 12.5544271,15.6328125 13.09375,15.6328125 Z M17,15.6328125 C17.4853906,15.6328125 17.8880937,15.9869766 17.9637805,16.4509758 L17.9765625,16.609375 L17.9765625,18.5625 C17.9765625,19.1018229 17.5393229,19.5390625 17,19.5390625 C16.5146094,19.5390625 16.1119062,19.1848984 16.0362195,18.7208992 L16.0234375,18.5625 L16.0234375,16.609375 C16.0234375,16.0700521 16.4606771,15.6328125 17,15.6328125 Z M20.90625,15.6328125 C21.3916406,15.6328125 21.7943437,15.9869766 21.8700305,16.4509758 L21.8828125,16.609375 L21.8828125,18.5625 C21.8828125,19.1018229 21.4455729,19.5390625 20.90625,19.5390625 C20.4208594,19.5390625 20.0181562,19.1848984 19.9424695,18.7208992 L19.9296875,18.5625 L19.9296875,16.609375 C19.9296875,16.0700521 20.3669271,15.6328125 20.90625,15.6328125 Z M13.09375,9.7734375 C13.5791406,9.7734375 13.9818437,10.1276016 14.0575305,10.5916008 L14.0703125,10.75 L14.0703125,12.703125 C14.0703125,13.2424479 13.6330729,13.6796875 13.09375,13.6796875 C12.6083594,13.6796875 12.2056562,13.3255234 12.1299695,12.8615242 L12.1171875,12.703125 L12.1171875,10.75 C12.1171875,10.2106771 12.5544271,9.7734375 13.09375,9.7734375 Z M17,9.7734375 C17.4853906,9.7734375 17.8880937,10.1276016 17.9637805,10.5916008 L17.9765625,10.75 L17.9765625,12.703125 C17.9765625,13.2424479 17.5393229,13.6796875 17,13.6796875 C16.5146094,13.6796875 16.1119062,13.3255234 16.0362195,12.8615242 L16.0234375,12.703125 L16.0234375,10.75 C16.0234375,10.2106771 16.4606771,9.7734375 17,9.7734375 Z M20.90625,9.7734375 C21.3916406,9.7734375 21.7943437,10.1276016 21.8700305,10.5916008 L21.8828125,10.75 L21.8828125,12.703125 C21.8828125,13.2424479 21.4455729,13.6796875 20.90625,13.6796875 C20.4208594,13.6796875 20.0181562,13.3255234 19.9424695,12.8615242 L19.9296875,12.703125 L19.9296875,10.75 C19.9296875,10.2106771 20.3669271,9.7734375 20.90625,9.7734375 Z M13.09375,3.9140625 C13.5791406,3.9140625 13.9818437,4.26822656 14.0575305,4.73222578 L14.0703125,4.890625 L14.0703125,6.84375 C14.0703125,7.38307292 13.6330729,7.8203125 13.09375,7.8203125 C12.6083594,7.8203125 12.2056562,7.46614844 12.1299695,7.00214922 L12.1171875,6.84375 L12.1171875,4.890625 C12.1171875,4.35130208 12.5544271,3.9140625 13.09375,3.9140625 Z M17,3.9140625 C17.4853906,3.9140625 17.8880937,4.26822656 17.9637805,4.73222578 L17.9765625,4.890625 L17.9765625,6.84375 C17.9765625,7.38307292 17.5393229,7.8203125 17,7.8203125 C16.5146094,7.8203125 16.1119062,7.46614844 16.0362195,7.00214922 L16.0234375,6.84375 L16.0234375,4.890625 C16.0234375,4.35130208 16.4606771,3.9140625 17,3.9140625 Z M20.90625,3.9140625 C21.3916406,3.9140625 21.7943437,4.26822656 21.8700305,4.73222578 L21.8828125,4.890625 L21.8828125,6.84375 C21.8828125,7.38307292 21.4455729,7.8203125 20.90625,7.8203125 C20.4208594,7.8203125 20.0181562,7.46614844 19.9424695,7.00214922 L19.9296875,6.84375 L19.9296875,4.890625 C19.9296875,4.35130208 20.3669271,3.9140625 20.90625,3.9140625 Z"/>
    </g>
  </g>
</svg>
