<svg xmlns="http://www.w3.org/2000/svg" width="24" height="24" viewBox="0 0 24 24">
  <path fill="#FFF" fill-rule="evenodd" d="M20.4,1.2 L3.6,1.2 C2.28,1.2 1.2,2.28 1.2,3.6 L1.2,20.4 C1.2,21.7212 2.28,22.8 3.6,22.8 L12,22.8 L12,14.4 L9.6,14.4 L9.6,11.43 L12,11.43 L12,8.97 C12,6.3732 13.4544,4.5492 16.5192,4.5492 L18.6828,4.5516 L18.6828,7.6776 L17.2464,7.6776 C16.0536,7.6776 15.6,8.5728 15.6,9.4032 L15.6,11.4312 L18.6816,11.4312 L18,14.4 L15.6,14.4 L15.6,22.8 L20.4,22.8 C21.72,22.8 22.8,21.7212 22.8,20.4 L22.8,3.6 C22.8,2.28 21.72,1.2 20.4,1.2 Z"/>
</svg>
