<svg xmlns="http://www.w3.org/2000/svg" width="24" height="24" viewBox="0 0 24 24">
  <path fill="#FFF" fill-rule="evenodd" d="M12,0.48 C5.6376,0.48 0.48,5.6376 0.48,12 C0.48,18.3624 5.6376,23.52 12,23.52 C18.3624,23.52 23.52,18.3624 23.52,12 C23.52,5.6376 18.3624,0.48 12,0.48 Z M12.7884,14.73 C12.0492,14.6736 11.7396,14.3076 11.1612,13.9572 C10.8432,15.6264 10.4544,17.2272 9.3024,18.0636 C8.946,15.5388 9.8232,13.6452 10.2312,11.6328 C9.5364,10.4628 10.314,8.1096 11.7804,8.688 C13.584,9.4032 10.218,13.038 12.4776,13.4928 C14.8368,13.9656 15.8004,9.3984 14.3376,7.9152 C12.2232,5.7708 8.1852,7.866 8.682,10.9356 C8.802,11.6856 9.5784,11.9136 8.9916,12.9492 C7.6392,12.6492 7.2348,11.5824 7.2876,10.1604 C7.3704,7.8324 9.3792,6.2016 11.3928,5.9772 C13.9404,5.694 16.3308,6.912 16.662,9.3096 C17.0328,12.0144 15.5112,14.9412 12.7884,14.73 Z"/>
</svg>
