<svg xmlns="http://www.w3.org/2000/svg" width="24" height="24" viewBox="0 0 24 24">
  <path fill="#FFF" fill-rule="evenodd" d="M20.7792,7.4952 C20.7888,7.6896 20.7924,7.8864 20.7924,8.0808 C20.7924,14.0688 16.236,20.9712 7.9044,20.9712 C5.3448,20.9712 2.9652,20.2212 0.96,18.9348 C3.35536307,19.224468 5.76763901,18.5501704 7.6656,17.0604 C5.72804666,17.0237746 4.02788493,15.7599845 3.4344,13.9152 C4.11367396,14.0422266 4.81276891,14.0155749 5.4804,13.8372 C3.36659241,13.4085742 1.84715686,11.5504269 1.8468,9.3936 L1.8468,9.3372 C2.4758357,9.68712 3.17935769,9.88171994 3.8988,9.9048 C1.90574607,8.57609874 1.29158659,5.92543267 2.4972,3.8556 C4.79734493,6.68642859 8.19146037,8.40725951 11.8344,8.5896 C11.7564691,8.25074137 11.717417,7.90410399 11.718,7.5564 C11.718,6.35539788 12.1951783,5.20360321 13.0445276,4.354479 C13.8938768,3.50535479 15.0457979,3.02848169 16.2468,3.02879397 C17.4995304,3.02675701 18.6970266,3.54425263 19.554,4.458 C20.5681591,4.25723795 21.5408129,3.88554381 22.4304,3.3588 C22.0920601,4.40784494 21.3841591,5.29826496 20.4384,5.8644 C21.3363105,5.75795249 22.2132277,5.51769011 23.04,5.1516 C22.4326283,6.06172431 21.6668984,6.85549841 20.7792,7.4952 L20.7792,7.4952 Z"/>
</svg>
