<?xml version="1.0" encoding="UTF-8"?>
<svg width="40px" height="40px" viewBox="0 0 40 40" version="1.1" xmlns="http://www.w3.org/2000/svg" xmlns:xlink="http://www.w3.org/1999/xlink">
    <title>general/feedback/happy-on</title>
    <defs>
        <path d="M3,19.668 C3,28.856 10.476,36.334 19.666,36.334 L19.666,36.334 C28.856,36.334 36.333,28.856 36.333,19.668 L36.333,19.668 C36.333,10.477 28.856,3 19.666,3 L19.666,3 C10.476,3 3,10.477 3,19.668 L3,19.668 Z M5.665,19.668 C5.665,11.947 11.946,5.667 19.666,5.667 L19.666,5.667 C27.385,5.667 33.665,11.947 33.665,19.668 L33.665,19.668 C33.665,27.386 27.385,33.667 19.666,33.667 L19.666,33.667 C11.946,33.667 5.665,27.386 5.665,19.668 L5.665,19.668 Z M25.501,14.215 C24.682,13.471 23.419,13.512 22.648,14.308 L22.648,14.308 C21.839,15.136 21.849,16.419 22.674,17.228 L22.674,17.228 L25.547,20.06 L28.377,17.185 L28.462,17.093 C28.797,16.715 28.981,16.226 28.976,15.718 L28.976,15.718 C28.972,15.168 28.747,14.644 28.351,14.262 L28.351,14.262 C27.95,13.864 27.426,13.664 26.902,13.664 L26.902,13.664 C26.4,13.664 25.897,13.847 25.501,14.215 L25.501,14.215 Z M13.841,14.215 C13.021,13.473 11.759,13.514 10.989,14.309 L10.989,14.309 C10.18,15.137 10.19,16.42 11.015,17.231 L11.015,17.231 L13.887,20.06 L16.716,17.185 L16.803,17.093 C17.137,16.715 17.32,16.226 17.3170363,15.718 L17.3170363,15.718 C17.312,15.168 17.086,14.644 16.691,14.262 L16.691,14.262 C16.291,13.864 15.766,13.664 15.241,13.664 L15.241,13.664 C14.739,13.664 14.237,13.847 13.841,14.215 L13.841,14.215 Z M11.333,24 L11.401,24.235 C11.772,25.418 13.75,29.667 19.666,29.667 L19.666,29.667 C25.581,29.667 27.56,25.418 27.931,24.235 L27.931,24.235 L28,24 L11.333,24 Z" id="path-1"></path>
    </defs>
    <g id="general/feedback/happy-on" stroke="none" stroke-width="1" fill="none" fill-rule="evenodd">
        <path d="M3,19.668 C3,28.856 10.476,36.334 19.666,36.334 L19.666,36.334 C28.856,36.334 36.333,28.856 36.333,19.668 L36.333,19.668 C36.333,10.477 28.856,3 19.666,3 L19.666,3 C10.476,3 3,10.477 3,19.668 L3,19.668 Z" id="Path" fill="#A1E9FF"></path>
        <mask id="mask-2" fill="white">
            <use xlink:href="#path-1"></use>
        </mask>
        <use id="Clip-11" fill="#000000" xlink:href="#path-1"></use>
    </g>
</svg>