<?xml version="1.0" encoding="UTF-8"?>
<svg width="40px" height="40px" viewBox="0 0 40 40" version="1.1" xmlns="http://www.w3.org/2000/svg" xmlns:xlink="http://www.w3.org/1999/xlink">
    <title>general/feedback/little-unhappy</title>
    <defs>
        <path d="M3,19.668 C3,28.856 10.478,36.334 19.667,36.334 L19.667,36.334 C28.857,36.334 36.334,28.856 36.334,19.668 L36.334,19.668 C36.334,10.477 28.857,3 19.667,3 L19.667,3 C10.478,3 3,10.477 3,19.668 L3,19.668 Z M5.667,19.668 C5.667,11.947 11.948,5.667 19.667,5.667 L19.667,5.667 C27.387,5.667 33.667,11.947 33.667,19.668 L33.667,19.668 C33.667,27.386 27.387,33.667 19.667,33.667 L19.667,33.667 C11.948,33.667 5.667,27.386 5.667,19.668 L5.667,19.668 Z M23,17.156 C23,18.53 24.114,19.644 25.489,19.644 L25.489,19.644 C26.863,19.644 27.977,18.53 27.977,17.156 L27.977,17.156 C27.977,15.78 26.863,14.667 25.489,14.667 L25.489,14.667 C24.114,14.667 23,15.78 23,17.156 L23,17.156 Z M11.333,17.167 C11.333,18.547 12.453,19.668 13.834,19.668 L13.834,19.668 C15.214,19.668 16.334,18.547 16.334,17.167 L16.334,17.167 C16.334,15.787 15.214,14.667 13.834,14.667 L13.834,14.667 C12.453,14.667 11.333,15.787 11.333,17.167 L11.333,17.167 Z M17.716,22.517 C16.499,22.765 15.343,23.251 14.315,23.947 L14.315,23.947 C13.304,24.63 12.433,25.501 11.748,26.511 L11.748,26.511 L13.322,28.563 C15.355,25.548 19.236,24.394 22.585,25.808 L22.585,25.808 C23.487,26.192 24.308,26.745 25.002,27.438 L25.002,27.438 C25.347,27.783 25.659,28.16 25.931,28.563 L25.931,28.563 L27.506,26.511 C27.167,26.008 26.774,25.533 26.344,25.103 L26.344,25.103 C25.91,24.672 25.436,24.283 24.94,23.947 L24.94,23.947 C23.912,23.251 22.756,22.765 21.539,22.517 L21.539,22.517 C20.909,22.388 20.268,22.324 19.628,22.324 L19.628,22.324 C18.987,22.324 18.347,22.388 17.716,22.517 L17.716,22.517 Z" id="path-1"></path>
    </defs>
    <g id="general/feedback/little-unhappy" stroke="none" stroke-width="1" fill="none" fill-rule="evenodd">
        <mask id="mask-2" fill="white">
            <use xlink:href="#path-1"></use>
        </mask>
        <use id="Clip-5" fill="#000000" xlink:href="#path-1"></use>
    </g>
</svg>