<?xml version="1.0" encoding="UTF-8"?>
<svg width="40px" height="40px" viewBox="0 0 40 40" version="1.1" xmlns="http://www.w3.org/2000/svg" xmlns:xlink="http://www.w3.org/1999/xlink">
    <title>general/feedback/okay</title>
    <defs>
        <path d="M3,19.668 C3,28.856 10.477,36.334 19.667,36.334 L19.667,36.334 C28.857,36.334 36.333,28.856 36.333,19.668 L36.333,19.668 C36.333,10.477 28.857,3 19.667,3 L19.667,3 C10.477,3 3,10.477 3,19.668 L3,19.668 Z M5.667,19.668 C5.667,11.947 11.948,5.667 19.667,5.667 L19.667,5.667 C27.386,5.667 33.667,11.947 33.667,19.668 L33.667,19.668 C33.667,27.386 27.386,33.667 19.667,33.667 L19.667,33.667 C11.948,33.667 5.667,27.386 5.667,19.668 L5.667,19.668 Z M23.001,17.156 C23.001,18.53 24.115,19.644 25.488,19.644 L25.488,19.644 C26.863,19.644 27.977,18.53 27.977,17.156 L27.977,17.156 C27.977,15.78 26.863,14.667 25.488,14.667 L25.488,14.667 C24.115,14.667 23.001,15.78 23.001,17.156 L23.001,17.156 Z M11.333,17.167 C11.333,18.547 12.453,19.668 13.833,19.668 L13.833,19.668 C15.214,19.668 16.334,18.547 16.334,17.167 L16.334,17.167 C16.334,15.787 15.214,14.667 13.833,14.667 L13.833,14.667 C12.453,14.667 11.333,15.787 11.333,17.167 L11.333,17.167 Z M12.957,27.724 L26.334,27.724 L26.334,24.974 L12.957,24.974 L12.957,27.724 Z" id="path-1"></path>
    </defs>
    <g id="general/feedback/okay" stroke="none" stroke-width="1" fill="none" fill-rule="evenodd">
        <mask id="mask-2" fill="white">
            <use xlink:href="#path-1"></use>
        </mask>
        <use id="Clip-2" fill="#000000" xlink:href="#path-1"></use>
    </g>
</svg>