<?xml version="1.0" encoding="UTF-8"?>
<svg width="40px" height="40px" viewBox="0 0 40 40" version="1.1" xmlns="http://www.w3.org/2000/svg" xmlns:xlink="http://www.w3.org/1999/xlink">
    <title>general/feedback/unhappy</title>
    <g id="general/feedback/unhappy" stroke="none" stroke-width="1" fill="none" fill-rule="evenodd">
        <path d="M19.667,3 C28.857,3 36.334,10.477 36.334,19.667 C36.334,28.856 28.857,36.333 19.667,36.333 C10.477,36.333 3,28.856 3,19.667 C3,10.477 10.477,3 19.667,3 Z M19.667,5.667 C11.948,5.667 5.667,11.947 5.667,19.667 C5.667,27.386 11.948,33.667 19.667,33.667 C27.386,33.667 33.667,27.386 33.667,19.667 C33.667,17.584 33.197,15.613 32.378,13.835 C32.247,13.551 32.119,13.266 31.971,12.992 C29.596,8.633 24.971,5.667 19.667,5.667 Z M19.6328,23 C23.6349429,23 25.5021673,26.204102 26.0871721,27.4825033 L26.1998,27.741 L26.2998,28 L12.9658,28 L13.0418,27.799 C13.4168,26.866 15.2368,23 19.6328,23 Z M9.9641,13.1614 L18.3291,16.4824 L17.3701,18.8994 L15.9931,18.3524 C15.6521,19.3274 14.7351,20.0304 13.6441,20.0304 C12.2631,20.0304 11.1441,18.9114 11.1441,17.5304 C11.1441,17.24 11.20874,16.9688 11.3073,16.712704 L11.3871,16.5234 L9.0051,15.5784 L9.9641,13.1614 Z M29.3699,13.1614 L30.3289,15.5784 L27.9469,16.5234 C28.0879,16.8344 28.1899,17.1674 28.1899,17.5304 C28.1899,18.9114 27.0699,20.0304 25.6899,20.0304 C24.5989,20.0304 23.6819,19.3274 23.3409,18.3524 L21.9639,18.8984 L21.0049,16.4824 L29.3699,13.1614 Z" id="Shape" fill="#000000"></path>
    </g>
</svg>