<svg xmlns="http://www.w3.org/2000/svg" xmlns:xlink="http://www.w3.org/1999/xlink" width="400" height="400" viewBox="0 0 400 400">
  <defs>
    <circle id="maintenance-a" cx="200" cy="200" r="200"/>
  </defs>
  <g fill="none" fill-rule="evenodd">
    <mask id="maintenance-b" fill="#fff">
      <use xlink:href="#maintenance-a"/>
    </mask>
    <use fill="#E6F8FC" xlink:href="#maintenance-a"/>
    <path fill="#037092" fill-rule="nonzero" d="M125.28023,72 C128.19262,72 130.935144,73.3304957 132.734946,75.5943503 L133.026052,75.9802335 L150.701377,100.690157 C151.941375,102.423661 152.497629,104.342984 152.490792,106.214058 L253.37037,106.21374 L253.37037,102.412214 C253.37037,97.3015273 257.410614,93.1330327 262.475995,92.9171775 L262.888889,92.9083969 L281.925926,92.9083969 C287.044518,92.9083969 291.219461,96.9423998 291.43565,101.999958 L291.444444,102.412214 L310.481481,102.412214 C315.600074,102.412214 319.775017,106.446217 319.991206,111.503775 L320,111.916031 L320,129.022901 C320,134.133587 315.959757,138.302082 310.894375,138.517937 L310.481481,138.526718 L291.444444,138.526718 C291.444444,143.637404 287.404201,147.805899 282.33882,148.021754 L281.925926,148.030534 L278.118519,148.030534 L278.118519,167.98855 C278.118519,170.612956 275.987726,172.740458 273.359259,172.740458 C270.835932,172.740458 268.77126,170.779752 268.610123,168.300989 L268.6,167.98855 L268.6,148.030534 L262.888889,148.030534 C257.770297,148.030534 253.595354,143.996532 253.379165,138.938973 L253.37037,138.526718 L137.244444,138.526718 L137.244444,179.701053 L137.284449,179.735092 L137.244444,179.780885 L137.244444,233.872809 L137.284449,233.906848 L137.244444,233.952641 L137.244444,288.687023 L145.119653,288.687023 C148.841738,288.687023 152.207938,290.851149 153.758861,294.201095 L153.929674,294.592834 L159.380391,307.898177 C161.892493,314.030284 157.51047,320.736779 150.958262,320.992454 L150.57037,321 L87.7481481,321 C81.1126513,321 76.5547125,314.41143 78.7982728,308.259499 L78.9381274,307.898177 L84.3888443,294.592834 C85.7979709,291.153119 89.0785064,288.861595 92.7710562,288.696571 L93.198865,288.687023 L95.362963,288.687023 L95.362963,269.371466 L95.3229582,269.337427 L95.362963,269.287832 L95.362963,215.19971 L95.3229582,215.165671 L95.362963,215.116076 L95.362963,138.526718 L72.5185185,138.526718 C67.3999262,138.526718 63.2249833,134.492715 63.0087942,129.435157 L63,129.022901 L63,115.717557 C63,110.606871 67.0402431,106.438376 72.1056249,106.222521 L72.5185185,106.21374 L83.9407407,106.21374 L83.9407407,81.5038168 C83.9407407,76.3931304 87.9809839,72.2246358 93.0463657,72.0087806 L93.4592593,72 L125.28023,72 Z M145.119653,298.19084 L93.198865,298.19084 L87.7481481,311.496183 L150.57037,311.496183 L145.119653,298.19084 Z M127.725926,245.357221 L104.881481,272.730115 L104.881481,288.687023 L127.725926,288.687023 L127.725926,245.357221 Z M127.725926,191.185466 L104.881481,218.558359 L104.881481,257.881351 L127.725926,230.510359 L127.725926,191.185466 Z M127.725926,138.526718 L104.881481,138.526718 L104.881481,203.709595 L127.725926,176.338603 L127.725926,138.526718 Z M281.925926,102.412214 L262.888889,102.412214 L262.888889,138.526718 L281.925926,138.526718 L281.925926,102.412214 Z M253.37037,115.717557 L72.5185185,115.717557 L72.5185185,129.022901 L253.37037,129.022901 L253.37037,115.717557 Z M310.481481,111.916031 L291.444444,111.916031 L291.444444,129.022901 L310.481481,129.022901 L310.481481,111.916031 Z M125.28023,81.5038168 L93.4592593,81.5038168 L93.4592593,106.21374 L142.955556,106.21374 L125.28023,81.5038168 Z" mask="url(#maintenance-b)"/>
    <g mask="url(#maintenance-b)">
      <g transform="rotate(5 -1700.809 2141.15)">
        <path fill="#037092" d="M60.6421924,147.536863 L60.6421924,147.43252 C60.9485325,147.498738 61.2824573,147.536863 61.6452706,147.536863 L111.768084,147.536863 L111.768084,9.89590233 L45.6273158,9.89590233 L45.6273158,147.536863 L60.6421924,147.536863 Z M114.730174,0.15758695 C116.600794,0.15758695 118.29422,0.915986328 119.520013,2.14210442 C120.745812,3.3682293 121.503961,5.06210065 121.503961,6.93301643 L121.503961,59.728737 L150.464834,59.728737 C152.335459,59.728737 154.028882,60.4871292 155.254671,61.7132355 C156.480466,62.9393475 157.238621,64.6332053 157.238621,66.5041465 L157.238621,150.499619 C157.238621,152.370687 156.480436,154.064477 155.254664,155.290524 C154.028892,156.516572 152.335482,157.274928 150.464834,157.274928 L6.93048539,157.274928 C5.05998993,157.274928 3.36649912,156.516608 2.1406497,155.290533 C0.914807057,154.064465 0.156578058,152.370659 0.156578058,150.499619 L0.156578058,66.5041465 C0.156578058,64.6332332 0.914776674,62.9393595 2.14064233,61.7132266 C3.36650911,60.4870927 5.06001323,59.728737 6.93048539,59.728737 L35.8912383,59.728737 L35.8912383,6.93301643 C35.8912383,5.06212395 36.6494236,3.3682393 37.8752821,2.14209705 C39.1011394,0.915955938 40.7946327,0.15758695 42.6651256,0.15758695 L114.730174,0.15758695 Z M36.8451657,69.4670023 L9.89270566,69.4670023 L9.89270566,147.536863 L36.8451657,147.536863 L36.8451657,69.4670023 Z M120.550034,147.536863 L147.502745,147.536863 L147.502745,69.4670023 L120.550034,69.4670023 L120.550034,147.536863 Z"/>
        <path fill="#5CD999" d="M58.134497,147.944204 L58.134497,129.88474 C58.134497,127.945354 59.7063205,126.373177 61.6452706,126.373177 L95.7499288,126.373177 C97.688879,126.373177 99.2607025,127.945354 99.2607025,129.88474 L99.2607025,147.944204 L58.134497,147.944204 Z"/>
        <rect width="43.835" height="17.156" x="55.827" y="19.622" fill="#5CD999" rx="2"/>
        <rect width="43.835" height="17.156" x="55.827" y="46.31" fill="#5CD999" rx="2"/>
        <rect width="43.835" height="17.156" x="55.827" y="72.997" fill="#5CD999" rx="2"/>
        <rect width="19.058" height="17.156" x="13.899" y="80.623" fill="#5CD999" rx="2"/>
        <rect width="19.058" height="17.156" x="124.438" y="80.623" fill="#5CD999" rx="2"/>
        <rect width="43.835" height="17.156" x="55.827" y="99.685" fill="#5CD999" rx="2"/>
        <rect width="19.058" height="17.156" x="13.899" y="107.31" fill="#5CD999" rx="2"/>
        <rect width="19.058" height="17.156" x="124.438" y="107.31" fill="#5CD999" rx="2"/>
      </g>
    </g>
  </g>
</svg>
