<svg xmlns="http://www.w3.org/2000/svg" width="400" height="400" viewBox="0 0 400 400">
  <g fill="none" fill-rule="evenodd">
    <path fill="#E6F8FC" d="M399.999273,199.999818 C399.999273,310.456182 310.457455,399.999818 199.999273,399.999818 C89.5429091,399.999818 -0.000727272727,310.456182 -0.000727272727,199.999818 C-0.000727272727,89.5434545 89.5429091,-0.000181818182 199.999273,-0.000181818182 C310.457455,-0.000181818182 399.999273,89.5434545 399.999273,199.999818"/>
    <g transform="translate(105 167)">
      <polygon fill="#5CD999" points="24 155 49 155 49 33 24 33"/>
      <polygon fill="#5CD999" points="129 155 154 155 154 33 129 33"/>
      <path fill="#037092" d="M161.10998,27.2727907 L146.305102,27.2727907 L146.305102,17.5300465 C146.305102,15.6235814 144.746694,14.0762791 142.826837,14.0762791 L121.599429,14.0762791 L121.599429,9.78083721 C121.599429,4.38795349 117.180306,0 111.751306,0 L66.2468776,0 C60.8160612,0 56.4005714,4.38795349 56.4005714,9.78083721 L56.4005714,14.0762791 L35.1713469,14.0762791 C33.2514898,14.0762791 31.694898,15.6235814 31.694898,17.5300465 L31.694898,27.2727907 L16.8882041,27.2727907 C7.57589796,27.2727907 0,34.7970698 0,44.0482326 L0,139.224558 C0,148.473907 7.57589796,156 16.8882041,156 L161.10998,156 C170.422286,156 178,148.473907 178,139.224558 L178,44.0482326 C178,34.7970698 170.422286,27.2727907 161.10998,27.2727907 L161.10998,27.2727907 Z M123.116061,25.7635814 L137.831939,25.7635814 L137.831939,22.4893953 L123.116061,22.4893953 L123.116061,25.7635814 Z M111.751306,9.2584186 L112.276224,24.920093 L65.7219592,24.920093 L65.7219592,9.78083721 L111.751306,9.2584186 Z M40.1662449,25.7635814 L54.8821224,25.7635814 L54.8821224,22.4893953 L40.1662449,22.4893953 L40.1662449,25.7635814 Z M161.10998,36.3062791 C163.258694,36.3062791 165.205796,37.1751628 166.617082,38.5773488 C168.028367,39.9777209 168.90202,41.9132093 168.90202,44.0482326 L168.90202,139.224558 C168.90202,141.359581 168.028367,143.293256 166.617082,144.693628 C165.207612,146.095814 163.258694,146.964698 161.10998,146.964698 L16.8882041,146.964698 C14.7394898,146.964698 12.7923878,146.095814 11.3792857,144.693628 C9.96981633,143.293256 9.09616327,141.359581 9.09616327,139.224558 L9.09616327,44.0482326 C9.09616327,41.9132093 9.96981633,39.9777209 11.3792857,38.5773488 C12.7923878,37.1751628 14.7394898,36.3062791 16.8882041,36.3062791 L161.10998,36.3062791 Z"/>
      <path fill="#5CD999" d="M103.5 89C107.496562 89 111.123375 90.6258125 113.747875 93.252125 116.376 95.876625 118 99.501625 118 103.5 118 107.498375 116.374187 111.123375 113.747875 113.747875 111.121562 116.374188 107.496562 118 103.5 118 99.501625 118 95.876625 116.374188 93.252125 113.747875 90.624 111.123375 89 107.498375 89 103.5 89 99.501625 90.624 95.876625 93.252125 93.252125 95.876625 90.6258125 99.501625 89 103.5 89M103.5 97.787C100.349875 97.787 97.787 100.349875 97.787 103.5 97.787 106.650125 100.349875 109.213 103.5 109.213 106.650125 109.213 109.211187 106.650125 109.211187 103.5 109.211187 100.349875 106.650125 97.787 103.5 97.787M76.8426677 79.7893953C77.5590715 79.9369986 78.4734763 80 79.5192818 80 85.248712 80 94.8805627 78.0973577 97.0459741 77.6545479 98.3689811 77.3845419 99.4003865 76.3495189 99.6721879 75.0282896 100.195991 72.4776329 102.750204 59.513745 101.783599 54.8408412 101.362397 52.8031959 100.467792 49.7935291 97.5625768 47.1834711 92.7223513 42.8345745 85.4017128 42.9551772 80.8980891 47.4606773 78.5364766 49.8205297 77.7930727 53.0246009 77.6292719 55.5734575 75.0912585 55.7174607 71.8998417 56.4590771 69.4590288 58.8999313 64.9554051 63.4036314 64.8348045 70.724394 69.1836274 75.5665015 71.7990412 78.4771662 74.806857 79.371786 76.8426677 79.7893953M89.2915333 52.3639579C90.2473383 52.3603861 91.2247435 52.7005937 91.9897475 53.3882089 92.8735521 54.1820266 93.3235545 55.1072471 93.6169561 56.5274787 94.0183582 58.4643217 93.0841532 64.829263 92.1247482 70.1087803L90.9835422 70.3085847C85.6141139 71.2410055 80.1618852 71.9556213 78.5238766 71.6190139 77.1054691 71.3274074 76.1838642 70.8791974 75.38646 69.9917777 74.7006564 69.2267607 74.3586546 68.251139 74.3622265 67.2935178 74.3658547 66.3736973 74.6880564 65.4646772 75.3558599 64.7968623 76.1730642 63.9796442 77.5860716 63.8878421 78.6516772 63.8878421 79.2870806 63.8878421 79.8360835 63.9472435 80.1672852 64.0102449 81.7620936 64.3270519 83.4109023 63.8338409 84.5827085 62.7052159 85.7581147 61.5711907 86.3017175 59.9241541 86.0335161 58.3113183 85.8913154 57.445499 85.5547136 54.5960358 86.7931201 53.3576082 87.4609236 52.6879934 88.3717284 52.3675863 89.2915333 52.3639579M83.8628 115C85.2812 115 86.5664 115.5742 87.497 116.5048 88.3484 117.3562 88.9028 118.5064 88.9892 119.7862L89 120.1372 89 136.8646C89 138.283 88.4258 139.5664 87.497 140.497 86.6438 141.3484 85.4936 141.901 84.2156 141.9892L83.8628 142 67.1372 142C65.7188 142 64.4336 141.4258 63.5048 140.497 62.6534 139.6438 62.099 138.4936 62.0108 137.2156L62 136.8646 62 120.1372C62 118.7188 62.576 117.4354 63.5048 116.5048 64.3562 115.6516 65.5082 115.099 66.7862 115.0126L67.1372 115 83.8628 115zM70.6202 133.3798L80.378 133.3798 80.378 123.622 70.6202 123.622 70.6202 133.3798z"/>
    </g>
    <g transform="translate(259 95)">
      <path fill="#037092" d="M44.1139191,4.55624579 L44.2124632,9.10336925 C25.1496475,9.51079151 9.74573907,24.7600247 9.1435249,43.8197474 C8.85701695,52.8721608 11.948383,61.6190075 17.8464321,68.4451492 C21.7699486,72.9831784 22.9415289,79.3455136 20.906775,85.0476064 L20.4286534,86.3844607 L24.6441526,83.2323947 C28.4618254,80.37862 33.359834,79.280035 38.0790032,80.2058293 C41.3309597,80.8460643 44.670511,81.0279492 48.0082373,80.7551218 C66.0819619,79.2582088 80.2011468,64.450956 80.852633,46.3115711 C81.2103117,36.2878921 77.5349804,26.8517015 70.5018489,19.7400004 C63.5052152,12.6664952 54.2037437,8.87055653 44.2124632,9.10336925 L44.1139191,4.55624579 Z M16.3938185,99 C14.9101818,99 13.426545,98.5343746 12.1545957,97.6031237 C9.58697351,95.7206146 8.57963345,92.4448668 9.64901982,89.4492219 L12.3097115,81.9992148 C13.2495306,79.3691586 12.722137,76.4499054 10.9337434,74.3800548 C3.54110826,65.8223684 -0.334961105,54.8674386 0.0227176117,43.5341881 C0.778222657,19.6399637 20.1019978,0.522037859 44.0153749,0.00912233333 C56.4775584,-0.236422333 68.2225595,4.48167297 77.0002872,13.3558391 C85.8145128,22.2682011 90.4205387,34.0870844 89.9697905,46.6353263 C89.155889,69.3764001 71.441668,87.9413958 48.7637424,89.8166295 C44.5810913,90.1622108 40.3947904,89.931217 36.3125083,89.1272855 C34.1171639,88.6943994 31.8670728,89.2000395 30.1206517,90.5059734 L20.687788,97.563109 C19.4067142,98.5216426 17.9011788,99 16.3938185,99 L16.3938185,99 Z"/>
      <path fill="#5CD999" d="M44.1199312,23 C47.5809829,23 50.4472224,24.0188 52.4760528,25.6442 C54.7295101,27.446 56,29.993 56,32.8892 C56,38.1614 51.4948824,42.0836 50.0141417,43.2716 C48.0050785,44.8952 48.0266427,46.0472 48.0266427,47.9894 C48.0266427,49.0532 47.6690366,50.1746 46.5674662,50.9648 C45.9367138,51.4184 44.9771076,51.8 43.4550355,51.8 C41.7316978,51.8 40.7145871,51.2906 40.0335182,50.4302 C39.4566763,49.7048 39.075709,48.5798 39.075709,46.715 C39.075709,41.7218 41.2339245,39.3566 42.8710055,37.8986 C43.1764982,37.6322 43.5197281,37.3586 43.8773342,37.0742 C44.9339792,36.2372 46.4794125,35.3372 46.4794125,33.7244 C46.4794125,33.2906 46.3284632,32.9486 46.0373467,32.7218 C45.5269943,32.3222 44.7794359,32.189 43.977967,32.189 C42.1324322,32.189 41.5789515,33.0152 41.1171185,33.719 C40.238378,35.0564 39.3847957,35.9654 37.6165325,35.9654 C36.4898039,35.9654 35.2318931,35.5244 34.3244003,34.6334 C33.5516837,33.8774 33,32.8046 33,31.37 C33,29.4512 34.0836003,26.9384 36.6443472,25.1402 C38.4000313,23.9054 40.8673334,23 44.1199312,23 M51.6889601,60.8 C51.6889601,64.634 48.4938667,68 44.4541761,68 C40.4126885,68 37.3128369,64.634 37.3128369,60.8 C37.3128369,56.8724 40.5061333,53.6 44.4541761,53.6 C48.3986249,53.6 51.6889601,56.8724 51.6889601,60.8"/>
    </g>
    <g transform="translate(52 74)">
      <path fill="#037092" d="M74.1233439,95.6820151 C76.9706077,97.5391436 78.8766573,98.3498237 80.0849728,98.6907809 C80.0213772,98.5529471 79.9505136,98.4078589 79.8741989,98.2537028 L79.6579741,97.7477078 C77.2613302,91.0283123 78.6513473,83.3749118 83.2883717,77.7763224 C89.4952977,70.2788917 92.9149214,60.7774307 92.9149214,51.0238791 C92.9149214,27.8895718 74.1106248,9.06801008 50.9981837,9.06801008 C39.8144514,9.06801008 29.2939298,13.4333501 21.3717409,21.3624181 C13.4477349,29.2914861 9.08507998,39.8267003 9.08507998,51.0238791 C9.08507998,74.1563728 27.8875596,92.9779345 50.9981837,92.9779345 C52.1429036,92.9779345 54.3487608,92.8201511 58.3552807,92.0711335 C63.8717407,91.0428212 69.6044256,92.3613098 74.1233439,95.6820151 M81.4713558,108 C77.9990386,108 73.9688976,106.431234 69.0284316,103.192141 L68.8031216,103.034358 C66.2920058,101.160907 63.097692,100.410076 60.0251182,100.983174 C56.2638955,101.688665 53.2240281,102.045945 50.9981837,102.045945 C22.878047,102.045945 4.66305373e-07,79.1582872 4.66305373e-07,51.0238791 C-0.00181608296,37.4091688 5.30387008,24.5996977 14.9395049,14.9567758 C24.5769568,5.3120403 37.3832842,0 50.9981837,0 C79.1201374,0 102,22.889471 102,51.0238791 C102,62.8812091 97.8426683,74.4338539 90.2893336,83.5544584 C87.694635,86.6883627 86.8969651,90.756272 88.1398039,94.4814106 C89.9350155,98.1811587 90.2548103,101.193552 89.1191754,103.678186 C88.2124845,105.65864 86.429992,107.07869 84.1042117,107.675365 C83.2611164,107.88937 82.3853148,108 81.4713558,108"/>
      <path fill="#5CD999" d="M60.0000005,69.8333333 C60.0000005,74.7155 55.8816005,79 51.0576005,79 C45.8808005,79 42.0000005,74.7155 42.0000005,69.8333333 C42.0000005,64.832 45.8808005,60.6666667 51.0576005,60.6666667 C55.8816005,60.6666667 60.0000005,64.8338333 60.0000005,69.8333333 M56.8104005,55.8523333 C56.8104005,57.9533333 53.4318005,58.8333333 51.0486005,58.8333333 C47.8716005,58.8333333 45.1878005,57.9533333 45.1878005,55.8523333 C45.1878005,47.7875 43.8000005,36.199 43.8000005,28.1341667 C43.8000005,25.4905 46.9788005,24 51.0486005,24 C54.9222005,24 58.2000005,25.4905 58.2000005,28.1341667 C58.1982005,36.199 56.8104005,47.7875 56.8104005,55.8523333"/>
    </g>
  </g>
</svg>
