<svg xmlns="http://www.w3.org/2000/svg" width="64" height="64" viewBox="0 0 64 64">
  <path fill-rule="evenodd" d="M31.6621928,12.7055881 L31.6621928,3.62907628 C31.6621928,1.62802139 30.2681582,0 28.5547042,0 L6.34558071,0 C4.63212668,0 3.23809206,1.62802139 3.23809206,3.62907628 L3.23809206,12.7055881 C1.37338074,13.308444 0,15.3065534 0,17.6733977 L0,24.5699004 C0,25.2381128 0.463928397,25.7799109 1.03610221,25.7799109 L3.23809206,25.7799109 L3.23809206,27.9566561 C3.23809206,28.6248685 3.70202045,29.1666667 4.27419427,29.1666667 C4.84636808,29.1666667 5.31029647,28.6248685 5.31029647,27.9566561 L5.31029647,25.7799109 L29.5899884,25.7799109 L29.5899884,27.9566561 C29.5899884,28.6248685 30.0539168,29.1666667 30.6260906,29.1666667 C31.1982644,29.1666667 31.6621928,28.6248685 31.6621928,27.9566561 L31.6621928,25.7799109 L33.8641827,25.7799109 C34.4363565,25.7799109 34.9002849,25.2381128 34.9002849,24.5699004 L34.9002849,17.6733977 C34.9002849,15.3065534 33.526836,13.308444 31.6621928,12.7055881 Z M5.31029647,3.62907628 C5.31029647,2.96245601 5.77477019,2.42002103 6.34558071,2.42002103 L28.5547724,2.42002103 C29.1255829,2.42002103 29.5900566,2.96245601 29.5900566,3.62907628 L29.5900566,12.5183549 L27.1623737,12.5183549 L27.1623737,10.0894976 C27.1623737,7.97747197 25.6911086,6.25925704 23.882633,6.25925704 L19.693849,6.25925704 C18.8265224,6.25925704 18.0373125,6.65513745 17.4502106,7.29954766 C16.8631088,6.65521706 16.0738988,6.25925704 15.2065722,6.25925704 L11.0177882,6.25925704 C9.20931268,6.25925704 7.73804754,7.97755158 7.73804754,10.0894976 L7.73804754,12.5183549 L5.31029647,12.5183549 L5.31029647,3.62907628 Z M25.0901693,10.0894976 L25.0901693,12.5183549 L18.4862447,12.5183549 L18.4862447,10.0894976 C18.4862447,9.31182699 19.028017,8.67927807 19.6937809,8.67927807 L23.8825649,8.67927807 C24.548465,8.67927807 25.0901693,9.31190659 25.0901693,10.0894976 Z M16.4139721,10.0894976 L16.4139721,12.5183549 L9.81004746,12.5183549 L9.81004746,10.0894976 C9.81004746,9.31182699 10.3518199,8.67927807 11.0175837,8.67927807 L15.2063677,8.67927807 C15.8722679,8.67927807 16.4139721,9.31190659 16.4139721,10.0894976 Z M32.8280805,23.3598899 L2.07220442,23.3598899 L2.07220442,17.6733977 C2.07220442,16.1653425 3.12275752,14.9383759 4.41413623,14.9383759 L30.4861487,14.9383759 C31.7774592,14.9383759 32.8280805,16.1652629 32.8280805,17.6733977 L32.8280805,23.3598899 Z" transform="translate(15 17)"/>
</svg>
