<svg xmlns="http://www.w3.org/2000/svg" width="24" height="24" viewBox="0 0 24 24">
  <path fill="#FFF" fill-rule="evenodd" d="M12,0 C18.627417,0 24,5.372583 24,12 C24,18.627417 18.627417,24 12,24 C5.372583,24 0,18.627417 0,12 C0,5.372583 5.372583,0 12,0 Z M12,1 C5.92486775,1 1,5.92486775 1,12 C1,18.0751322 5.92486775,23 12,23 C18.0751322,23 23,18.0751322 23,12 C23,5.92486775 18.0751322,1 12,1 Z M12.5733333,8 C12.7721558,8 12.9333333,8.16117749 12.9333333,8.36 L12.933,11.066 L15.64,11.0666667 C15.8388225,11.0666667 16,11.2278442 16,11.4266667 L16,12.5733333 C16,12.7721558 15.8388225,12.9333333 15.64,12.9333333 L12.933,12.933 L12.9333333,15.64 C12.9333333,15.8388225 12.7721558,16 12.5733333,16 L11.4266667,16 C11.2278442,16 11.0666667,15.8388225 11.0666667,15.64 L11.066,12.933 L8.36,12.9333333 C8.16117749,12.9333333 8,12.7721558 8,12.5733333 L8,11.4266667 C8,11.2278442 8.16117749,11.0666667 8.36,11.0666667 L11.066,11.066 L11.0666667,8.36 C11.0666667,8.16117749 11.2278442,8 11.4266667,8 L12.5733333,8 Z"/>
</svg>
