<svg xmlns="http://www.w3.org/2000/svg" width="24" height="24" viewBox="0 0 24 24">
  <path fill="#FFF" d="M19.0500975,4.92717349 C15.1475634,1.0245614 8.83037037,1.02393762 4.92721248,4.92717349 C1.0245614,8.82978558 1.02397661,15.1469006 4.92721248,19.0500975 C8.82974659,22.9527096 15.1469396,22.9532943 19.0500975,19.0500975 C22.9527485,15.1474854 22.9532943,8.83037037 19.0500975,4.92717349 Z M18.6327096,17.6265497 C18.1661209,17.2093177 17.6670175,16.840078 17.1409357,16.5218713 C17.488655,15.3207407 17.6946589,13.9989864 17.7433528,12.6250292 L20.6793762,12.6250292 C20.5466277,14.4769981 19.8350487,16.214269 18.6327096,17.6265497 Z M3.29789474,12.6250292 L6.23391813,12.6250292 C6.28261209,13.9989864 6.48861598,15.3207407 6.83633528,16.5218713 C6.31025341,16.840078 5.8111501,17.2093177 5.3445614,17.6265497 C4.14222222,16.214269 3.43068226,14.4769981 3.29789474,12.6250292 Z M5.34460039,6.35072125 C5.81118908,6.76795322 6.3102924,7.13719298 6.83637427,7.45539961 C6.48865497,8.65653021 6.28265107,9.9782846 6.23395712,11.3522417 L3.29789474,11.3522417 C3.43068226,9.50031189 4.14222222,7.76304094 5.34460039,6.35072125 Z M11.3522807,7.58693957 C10.314386,7.51270955 9.31364522,7.25707602 8.38588694,6.83536062 C8.92545809,5.44592593 9.92015595,3.77945419 11.3522807,3.36647173 L11.3522807,7.58693957 Z M11.3522807,8.86210526 L11.3522807,11.3522807 L7.50725146,11.3522807 C7.55130604,10.1900195 7.71598441,9.07395712 7.98986355,8.05278752 C9.04417154,8.51368421 10.1780507,8.78892788 11.3522807,8.86210526 Z M11.3522807,12.6250292 L11.3522807,15.1152047 C10.1780507,15.1883821 9.04417154,15.4636257 7.98986355,15.9245224 C7.71598441,14.9033528 7.55130604,13.7872904 7.50725146,12.6250292 L11.3522807,12.6250292 Z M11.3522807,16.3903704 L11.3522807,20.6107992 C9.92023392,20.1978168 8.92553606,18.53154 8.38588694,17.1419493 C9.31364522,16.7202339 10.314386,16.4646004 11.3522807,16.3903704 Z M12.6250292,16.3903704 C13.662924,16.4646004 14.6636647,16.7202339 15.591423,17.1419493 C15.0518129,18.531423 14.057154,20.1978168 12.6250292,20.6107992 L12.6250292,16.3903704 Z M12.6250292,15.1152047 L12.6250292,12.6250292 L16.4700585,12.6250292 C16.4260039,13.7872904 16.2613255,14.9033528 15.9874464,15.9245224 C14.9331384,15.4636257 13.7992593,15.1883821 12.6250292,15.1152047 Z M12.6250292,11.3522807 L12.6250292,8.86210526 C13.7992593,8.78892788 14.9331384,8.51368421 15.9874464,8.05278752 C16.2613255,9.07395712 16.4260039,10.1900195 16.4700585,11.3522807 L12.6250292,11.3522807 Z M12.6250292,7.58693957 L12.6250292,3.36651072 C14.057154,3.77949318 15.0518519,5.44596491 15.591423,6.83539961 C14.6636647,7.25707602 13.662924,7.51270955 12.6250292,7.58693957 Z M15.4835088,4.00187135 C16.2981287,4.35859649 17.0581287,4.84230019 17.7394152,5.44245614 C17.4151267,5.72838207 17.0729435,5.98764133 16.7156335,6.21949318 C16.3983236,5.43384016 15.9929825,4.67033138 15.4835088,4.00187135 Z M7.26163743,6.21949318 C6.90432749,5.98764133 6.56218324,5.72838207 6.23785575,5.44245614 C6.9191423,4.84230019 7.6791423,4.35859649 8.49376218,4.00187135 C7.9842885,4.67040936 7.57894737,5.43391813 7.26163743,6.21949318 Z M7.26167641,17.7578168 C7.57894737,18.5434308 7.98436647,19.3069786 8.49380117,19.9754386 C7.67918129,19.6187135 6.91918129,19.1350097 6.23789474,18.5348538 C6.56218324,18.2489279 6.90436647,17.9896686 7.26167641,17.7578168 L7.26167641,17.7578168 Z M16.7156335,17.7578168 C17.0729435,17.9896686 17.4151267,18.2489279 17.7394152,18.5348148 C17.0581287,19.1349708 16.2981287,19.6186745 15.4835088,19.9753996 C15.9929435,19.3070175 16.3983236,18.5434698 16.7156335,17.7578168 Z M17.7433918,11.3522807 C17.6946979,9.97832359 17.488694,8.65653021 17.1409747,7.4554386 C17.6670565,7.13723197 18.1661209,6.7679922 18.6327485,6.35076023 C19.8350877,7.76304094 20.5466277,9.50031189 20.6794152,11.3522807 L17.7433918,11.3522807 Z"/>
</svg>
