<svg xmlns="http://www.w3.org/2000/svg" width="24" height="24" viewBox="0 0 24 24">
  <path fill="#FFF" fill-rule="evenodd" d="M12.2682816,18.8888729 L12.8942212,18.2629024 C13.0423547,18.1147689 13.0423547,17.8745691 12.8942212,17.7263739 L7.98979256,12.8219761 L18.7841174,12.8219761 C18.9936284,12.8219761 19.1634972,12.6521073 19.1634972,12.4425963 L19.1634972,11.5573767 C19.1634972,11.3478657 18.9936284,11.1779969 18.7841174,11.1779969 L7.98979256,11.1779969 L12.8942212,6.27356824 C13.0423547,6.12540388 13.0423547,5.8852041 12.8942212,5.73703974 L12.2682816,5.11110012 C12.1201173,4.96296663 11.8799175,4.96296663 11.7317222,5.11110012 L5.11110012,11.7317222 C4.96296663,11.8798866 4.96296663,12.1200864 5.11110012,12.2682816 L11.7317222,18.8889037 C11.8798866,19.0370372 12.1200864,19.0370372 12.2682816,18.8888729 Z"/>
</svg>
