<svg xmlns="http://www.w3.org/2000/svg" width="24" height="24" viewBox="0 0 24 24">
  <path fill="#FFF" fill-rule="evenodd" d="M9.09989119,2 C12.1409115,2 14.6608703,4.08830413 15.118246,6.80656844 C17.4450282,7.12969445 19.2887176,8.49906755 19.7647019,10.2486107 L20.2216115,10.2484024 C20.6518904,10.2484024 21,10.7101535 21,11.2794211 C21,11.8051323 20.7033859,12.2388547 20.319327,12.3024705 L20.2216115,12.310503 L8.27535587,12.310503 C7.84507696,12.310503 7.49701513,11.8489416 7.49701513,11.2794211 C7.49701513,10.753885 7.79358853,10.3200682 8.17764122,10.2564369 L8.27535587,10.2484024 L8.36105286,10.2485191 C8.82255152,8.55350413 10.569388,7.21598844 12.7936212,6.84039065 C12.3695296,5.26778836 10.8812342,4.12073875 9.0998447,4.12073875 C7.06017906,4.12073875 5.38839468,5.61674777 5.27920869,7.49434221 L5.27353664,7.68989161 L5.27353664,21.5606366 C5.27353664,22.1185584 3.21137189,22.1451261 3.01497524,21.6403397 L3,21.5606366 L3,7.68989161 C3,4.55262225 5.73616518,2 9.09989119,2 Z M13.8772937,16.6548257 C14.0586936,16.3613625 14.4456138,16.3612661 14.6267548,16.654922 L15.0325975,17.2919932 C15.2239176,17.604943 15.3737563,17.9058625 15.3737563,18.1783194 C15.3737563,18.872494 14.8702034,19.4347042 14.2485076,19.4347042 C13.6268117,19.4347042 13.1232588,18.872494 13.1232588,18.1783194 C13.1232588,17.9064407 13.2756606,17.6050066 13.4690125,17.2917712 L13.8772937,16.6548257 L13.8772937,16.6548257 Z M17.2530399,13.5616748 C17.4344398,13.2682116 17.82136,13.2681152 18.002501,13.5617711 L18.4083437,14.1988423 C18.5996638,14.5117921 18.7495025,14.8127116 18.7495025,15.0851685 C18.7495025,15.7793431 18.2459496,16.3415533 17.6242538,16.3415533 C17.002558,16.3415533 16.499005,15.7793431 16.499005,15.0851685 C16.499005,14.8132898 16.6514068,14.5118557 16.8447587,14.1986203 L17.2530399,13.5616748 L17.2530399,13.5616748 Z M10.5015475,13.5616748 C10.6829474,13.2682116 11.0698676,13.2681152 11.2510085,13.5617711 L11.5582361,14.041441 C11.794063,14.410695 11.9980101,14.7673022 11.9980101,15.0851685 C11.9980101,15.7793431 11.4944572,16.3415533 10.8727613,16.3415533 C10.2510655,16.3415533 9.74751261,15.7793431 9.74751261,15.0851685 C9.74751261,14.7679767 9.95494836,14.4105567 10.1928388,14.0411013 L10.4000752,13.7221354 C10.4344818,13.6687024 10.4684778,13.6151881 10.5015475,13.5616748 Z"/>
</svg>
