<svg xmlns="http://www.w3.org/2000/svg" width="24" height="24" viewBox="0 0 24 24">
  <path fill="#FFF" fill-rule="evenodd" d="M7.83333333,12.8333333 C9.21666667,12.8333333 10.3333333,11.7166667 10.3333333,10.3333333 C10.3333333,8.95 9.21666667,7.83333333 7.83333333,7.83333333 C6.45,7.83333333 5.33333333,8.95 5.33333333,10.3333333 C5.33333333,11.7166667 6.45,12.8333333 7.83333333,12.8333333 Z M17.8333333,7.83333333 L11.1666667,7.83333333 L11.1666667,13.6666667 L4.5,13.6666667 L4.5,6.16666667 L2.83333333,6.16666667 L2.83333333,18.6666667 L4.5,18.6666667 L4.5,16.1666667 L19.5,16.1666667 L19.5,18.6666667 L21.1666667,18.6666667 L21.1666667,11.1666667 C21.1666667,9.325 19.675,7.83333333 17.8333333,7.83333333 Z"/>
</svg>
