<svg xmlns="http://www.w3.org/2000/svg" width="24" height="24" viewBox="0 0 24 24">
  <path fill="#FFF" d="M18.7145542,11.2496084 C18.4925361,11.2496084 18.2749036,11.2686687 18.0629639,11.3047651 L16.3191627,6.27210241 L19.2290964,6.27210241 C19.5833133,6.27210241 19.8715361,6.5603253 19.8715361,6.91454217 C19.8715361,7.26875904 19.5833133,7.55698193 19.2290964,7.55698193 L18.8442229,7.55698193 C18.4948976,7.55698193 18.2116928,7.84018675 18.2116928,8.18951205 C18.2116928,8.53883735 18.4948976,8.82204217 18.8442229,8.82204217 L19.2290964,8.82204217 C20.2808675,8.82204217 21.1365964,7.96631325 21.1365964,6.91454217 C21.1365964,5.86277108 20.2808675,5.00704217 19.2290964,5.00704217 L15.4305843,5.00704217 C15.4293193,5.00704217 15.4281807,5.00742169 15.4269157,5.00746386 C15.3594036,5.00784337 15.2908373,5.01855422 15.223494,5.04191566 C14.8934398,5.15627711 14.7185241,5.51656627 14.8329277,5.84666265 L15.7036687,8.35970482 L9.15913253,8.35970482 L8.59892169,6.84956024 L9.62231325,6.84956024 C9.97163855,6.84956024 10.2548434,6.56635542 10.2548434,6.21703012 C10.2548434,5.86770482 9.97163855,5.5845 9.62231325,5.5845 L5.7416988,5.5845 C5.39237349,5.5845 5.10916867,5.86770482 5.10916867,6.21703012 C5.10916867,6.56635542 5.39237349,6.84956024 5.7416988,6.84956024 L7.25428916,6.84956024 C7.25998193,6.87262651 7.26672892,6.8956506 7.27520482,6.91846386 L8.01758434,8.91966265 L6.36313855,11.5505663 C5.9028253,11.3568434 5.3974759,11.2496084 4.86754217,11.2496084 C2.73498795,11.2496084 1,12.9845542 1,15.1171506 C1,17.249747 2.73498795,18.9847349 4.86754217,18.9847349 C6.78474096,18.9847349 8.38031928,17.5824157 8.68309036,15.7496807 L10.551247,15.7496807 L11.2166687,17.5434518 C11.3086807,17.7914458 11.5452048,17.955988 11.8097289,17.955988 L13.1581566,17.955988 C13.5074819,17.955988 13.7906867,17.6727831 13.7906867,17.3234578 C13.7906867,16.9741325 13.5074819,16.6909277 13.1581566,16.6909277 L12.249759,16.6909277 L11.7182229,15.2581205 L16.3357349,10.1838373 L16.8679036,11.7196627 C15.6649157,12.3761024 14.8469699,13.6528855 14.8469699,15.1171506 C14.8469699,17.249747 16.5819157,18.9847349 18.7145542,18.9847349 C20.8471506,18.9847349 22.5821386,17.249747 22.5821386,15.1171506 C22.5821386,12.9845542 20.8471506,11.2496084 18.7145542,11.2496084 Z M6.74577711,13.3185301 C7.05369277,13.6399398 7.2803494,14.0395301 7.39192771,14.4846205 L6.01250602,14.4846205 L6.74577711,13.3185301 Z M4.86754217,17.7196325 C3.43254217,17.7196325 2.26506024,16.5521928 2.26506024,15.1171084 C2.26506024,13.6821084 3.43254217,12.5146265 4.86754217,12.5146265 C5.14960843,12.5146265 5.42109036,12.5603373 5.67566265,12.6437048 L4.33204217,14.7803494 C4.2095,14.9752952 4.2025,15.2213916 4.3138253,15.4229578 C4.42519277,15.6244819 4.63721687,15.7495964 4.8675,15.7495964 L7.39188554,15.7495964 C7.10863855,16.8799699 6.08444578,17.7196325 4.86754217,17.7196325 L4.86754217,17.7196325 Z M8.68313253,14.4846205 C8.53566867,13.5920783 8.08163855,12.801753 7.43304217,12.2256446 L8.57206024,10.4143313 L10.081994,14.4845783 L8.68313253,14.4845783 L8.68313253,14.4846205 Z M11.2228675,13.9228072 L9.62842771,9.62476506 L15.1340964,9.62476506 L11.2228675,13.9228072 Z M18.7145542,17.7196325 C17.279512,17.7196325 16.1120301,16.5521928 16.1120301,15.1171084 C16.1120301,14.2073193 16.5816205,13.4055663 17.2908133,12.9401928 L18.1168554,15.3241988 C18.2074337,15.5857289 18.4524337,15.7498072 18.7144699,15.7498072 C18.7831627,15.7498072 18.8530361,15.738506 18.9216024,15.7147651 C19.2516566,15.6004036 19.4265723,15.2401145 19.3121687,14.9100181 L18.4858735,12.5252952 C18.5613133,12.5187169 18.6374277,12.5146687 18.7145542,12.5146687 C20.1495964,12.5146687 21.3170783,13.6821084 21.3170783,15.1171506 C21.3170783,16.5521928 20.1495964,17.7196325 18.7145542,17.7196325 L18.7145542,17.7196325 Z"/>
</svg>
