<svg xmlns="http://www.w3.org/2000/svg" width="24" height="24" viewBox="0 0 24 24">
  <path fill="#FFF" fill-rule="evenodd" d="M15.3457799,4 C16.4932518,4 17.4950768,4.56125781 18.0942331,5.53991406 L20.5808174,9.5980375 L20.5808174,9.5980375 C21.8285127,10.0244031 22.7418561,11.1483975 22.8223095,12.4869994 L22.8280831,12.6796359 L22.8280831,16.2030563 C22.8280831,16.7696656 22.5772308,17.2798403 22.1785738,17.6337612 L22.0546456,17.73515 L22.0546456,18.8190625 C22.0546456,19.6970362 21.3779113,20.4199796 20.5186887,20.4936468 L20.3738799,20.4998281 L18.4504268,20.4998281 C17.5723391,20.4998281 16.8493589,19.8230939 16.7756881,18.9638712 L16.7695065,18.8190625 L16.7695065,18.13665 L7.05858619,18.13665 L7.05858619,18.8190625 C7.05858619,19.6970362 6.38180566,20.4199796 5.52254892,20.4936468 L5.37773463,20.4998281 L3.45424712,20.4998281 C2.57622948,20.4998281 1.85328532,19.8230939 1.77961812,18.9638712 L1.77343681,18.8190625 L1.77343681,17.73515 C1.34628838,17.4135094 1.05656948,16.9255761 1.00742347,16.371247 L1,16.2030563 L1,12.6796359 C1,11.322675 1.85533579,10.1570072 3.06877693,9.66465243 L3.24450806,9.59894844 L5.73188306,5.53960469 L5.73188306,5.53960469 C6.29362427,4.62232393 7.20916782,4.07177641 8.26676253,4.0065411 L8.48011275,4 L15.3457799,4 Z M5.76952369,18.13665 L3.06249244,18.13665 L3.06249244,18.8190625 C3.06249244,19.0313281 3.24189556,19.2107656 3.45424712,19.2107656 L5.37773463,19.2107656 C5.59008619,19.2107656 5.76952369,19.0313281 5.76952369,18.8190625 L5.76952369,18.13665 Z M20.7655831,18.13665 L18.058569,18.13665 L18.058569,18.8190625 C18.058569,19.0313281 18.2379893,19.2107656 18.4504268,19.2107656 L20.3738799,19.2107656 C20.5861456,19.2107656 20.7655831,19.0315 20.7655831,18.8190625 L20.7655831,18.13665 Z M19.4717081,10.7030734 L4.356419,10.7030734 C3.51383619,10.7030734 2.78788775,11.1877094 2.46622025,11.8805375 C2.62778275,11.8475375 2.79591431,11.8359016 2.96912994,11.8473312 C4.61173931,11.9556125 5.89842994,13.3303891 5.89842994,14.9772094 L5.89842994,15.0631469 C5.89842994,15.4191 5.60985181,15.7076781 5.25389869,15.7076781 L2.28906009,15.7076781 L2.28906009,16.2030563 C2.28906009,16.5584594 2.59817728,16.8475875 2.97818775,16.8475875 L20.8498018,16.8475875 C21.2298174,16.8475875 21.5390206,16.5584594 21.5390206,16.2030563 L21.5390206,15.7076781 L18.5741768,15.7076781 C18.2182237,15.7076781 17.9296628,15.4191 17.9296628,15.0631469 L17.9296628,14.9772094 C17.9296628,13.3303891 19.2163018,11.9556125 20.8589112,11.8473312 C21.0319893,11.83585 21.2002549,11.8474516 21.3618174,11.8805031 C21.0402393,11.1877094 20.3142393,10.7030734 19.4717081,10.7030734 Z M16.8984299,11.8203125 C17.1181721,11.8203125 17.3227549,11.9322375 17.4412112,12.1173125 C17.5596846,12.3023703 17.5757549,12.5350547 17.4837502,12.7346016 L16.6251487,14.6023156 L16.6251487,14.6023156 C16.329094,15.248449 15.7271579,15.6673202 15.0298192,15.7238624 L14.8672971,15.7304172 L8.95871587,15.7304172 C8.24829634,15.7304172 7.61691099,15.3579651 7.27492841,14.7480178 L7.20124244,14.6031063 L6.34380962,12.7334844 C6.25228619,12.5339375 6.26864869,12.3015625 6.38720806,12.1167969 C6.48881565,11.9584263 6.65353574,11.8537229 6.83674257,11.8270397 L6.92967994,11.8203125 L16.8984299,11.8203125 Z M15.8921018,13.109375 L7.93434087,13.109375 L8.37287994,14.0656016 C8.46875396,14.2745693 8.64420154,14.4055295 8.86259575,14.4350044 L8.95871587,14.4413547 L14.8672971,14.4413547 C15.1301799,14.4413547 15.3437862,14.3043359 15.4532706,14.0653438 L15.8921018,13.109375 Z M2.884344,13.1335922 C2.71767681,13.1227984 2.58820853,13.1686891 2.4658765,13.2832094 C2.34354447,13.3976781 2.28906009,13.5234391 2.28906009,13.6909828 L2.28906009,14.41865 L4.5226565,14.41865 C4.29758619,13.7128969 3.65800494,13.1845875 2.884344,13.1335922 Z M20.9436456,13.1335406 C20.1700362,13.1845531 19.5304893,13.7128453 19.3055049,14.4186156 L21.5390206,14.4186156 L21.5390206,13.6909313 C21.5390206,13.5234391 21.4845362,13.3976781 21.3621612,13.2831578 C21.2399581,13.1686547 21.1107081,13.1225922 20.9436456,13.1335406 Z M15.3457799,5.28901094 L8.48011275,5.28901094 C7.78161275,5.28901094 7.19600025,5.61708594 6.83119556,6.21280469 L4.8697065,9.41401094 L4.8697065,9.41401094 L18.9562549,9.41401094 L16.9948346,6.21297656 C16.6300643,5.61717187 16.0444003,5.28901094 15.3457799,5.28901094 Z"/>
</svg>
