<svg xmlns="http://www.w3.org/2000/svg" width="24" height="24" viewBox="0 0 24 24">
  <path fill="#FFF" d="M12,2 C17.514,2 22,6.486 22,12 C22,17.514 17.514,22 12,22 C6.486,22 2,17.514 2,12 C2,6.486 6.486,2 12,2 Z M12,3.81818182 C7.48848485,3.81818182 3.81818182,7.48854545 3.81818182,12 C3.81818182,16.5114545 7.48848485,20.1818182 12,20.1818182 C16.5114545,20.1818182 20.1818182,16.5114545 20.1818182,12 C20.1818182,7.48854545 16.5115152,3.81818182 12,3.81818182 Z M15.7498182,8.46448485 C16.1048485,8.10945455 16.6804242,8.10951515 17.0354545,8.46454545 C17.360899,8.7899899 17.3880194,9.30075379 17.1168157,9.65708481 L17.0354545,9.75018182 L11.2499394,15.5355758 C11.1078687,15.677596 10.9236263,15.7678064 10.7266383,15.7939315 L10.6071515,15.8018182 L10.4876041,15.7939313 C10.3300137,15.77303 10.1805805,15.7111097 10.0543707,15.6144374 L9.96430303,15.5355152 L6.96454545,12.5356364 C6.60951515,12.1806061 6.60951515,11.6050303 6.96454545,11.25 C7.2899899,10.9246111 7.80080471,10.8975463 8.15709754,11.1687122 L8.25018182,11.2500606 L10.6071515,13.6070909 L15.7498182,8.46448485 Z"/>
</svg>
