<svg xmlns="http://www.w3.org/2000/svg" width="24" height="24" viewBox="0 0 24 24">
  <path fill="#FFF" d="M16.7265625,2 C17.0177969,2 17.2594187,2.21249844 17.3048308,2.49089797 L17.3125,2.5859375 L17.3125,9.8125 L21.4140625,9.8125 C21.7052969,9.8125 21.9469187,10.0249984 21.9923308,10.303398 L22,10.3984375 L22,21.4140625 C22,21.7052969 21.7875016,21.9469187 21.509102,21.9923308 L21.4140625,22 L2.5859375,22 C2.29470312,22 2.05308125,21.7875016 2.00766922,21.509102 L2,21.4140625 L2,10.3984375 C2,10.1072031 2.21249844,9.86558125 2.49089797,9.82016922 L2.5859375,9.8125 L6.6875,9.8125 L6.6875,2.5859375 C6.6875,2.29470312 6.89999844,2.05308125 7.17839797,2.00766922 L7.2734375,2 L16.7265625,2 Z M6.6875,10.984375 L3.171875,10.984375 L3.171875,20.828125 L6.6875,20.828125 L6.6875,10.984375 Z M16.140625,3.171875 L7.859375,3.171875 L7.859375,20.828125 L9.0703125,20.828125 L9.0703125,18.796875 C9.0703125,18.5056406 9.28281094,18.2640188 9.56121047,18.2186067 L9.65625,18.2109375 L14.34375,18.2109375 C14.6349844,18.2109375 14.8766063,18.4234359 14.9220183,18.7018355 L14.9296875,18.796875 L14.9296875,20.828125 L16.140625,20.828125 L16.140625,3.171875 Z M11.4140625,19.3828125 L10.2421875,19.3828125 L10.2421875,20.828125 L11.4140625,20.828125 L11.4140625,19.3828125 Z M13.7578125,19.3828125 L12.5859375,19.3828125 L12.5859375,20.828125 L13.7578125,20.828125 L13.7578125,19.3828125 Z M20.828125,10.984375 L17.3125,10.984375 L17.3125,20.828125 L20.828125,20.828125 L20.828125,10.984375 Z M19.0703125,15.671875 C19.3615469,15.671875 19.6031687,15.8843734 19.6485808,16.162773 L19.65625,16.2578125 L19.65625,17.4296875 C19.65625,17.7532813 19.3939063,18.015625 19.0703125,18.015625 C18.7790781,18.015625 18.5374563,17.8031266 18.4920442,17.524727 L18.484375,17.4296875 L18.484375,16.2578125 C18.484375,15.9342187 18.7467187,15.671875 19.0703125,15.671875 Z M4.9296875,15.671875 C5.22092188,15.671875 5.46254375,15.8843734 5.50795578,16.162773 L5.515625,16.2578125 L5.515625,17.4296875 C5.515625,17.7532813 5.25328125,18.015625 4.9296875,18.015625 C4.63845312,18.015625 4.39683125,17.8031266 4.35141922,17.524727 L4.34375,17.4296875 L4.34375,16.2578125 C4.34375,15.9342187 4.60609375,15.671875 4.9296875,15.671875 Z M9.65625,14.6953125 C9.94748438,14.6953125 10.1891063,14.9078109 10.2345183,15.1862105 L10.2421875,15.28125 L10.2421875,16.453125 C10.2421875,16.7767188 9.97984375,17.0390625 9.65625,17.0390625 C9.36501562,17.0390625 9.12339375,16.8265641 9.07798172,16.5481645 L9.0703125,16.453125 L9.0703125,15.28125 C9.0703125,14.9576562 9.33265625,14.6953125 9.65625,14.6953125 Z M12,14.6953125 C12.2912344,14.6953125 12.5328563,14.9078109 12.5782683,15.1862105 L12.5859375,15.28125 L12.5859375,16.453125 C12.5859375,16.7767188 12.3235937,17.0390625 12,17.0390625 C11.7087656,17.0390625 11.4671438,16.8265641 11.4217317,16.5481645 L11.4140625,16.453125 L11.4140625,15.28125 C11.4140625,14.9576562 11.6764062,14.6953125 12,14.6953125 Z M14.34375,14.6953125 C14.6349844,14.6953125 14.8766063,14.9078109 14.9220183,15.1862105 L14.9296875,15.28125 L14.9296875,16.453125 C14.9296875,16.7767188 14.6673437,17.0390625 14.34375,17.0390625 C14.0525156,17.0390625 13.8108937,16.8265641 13.7654817,16.5481645 L13.7578125,16.453125 L13.7578125,15.28125 C13.7578125,14.9576562 14.0201562,14.6953125 14.34375,14.6953125 Z M19.0703125,12.15625 C19.3615469,12.15625 19.6031687,12.3687484 19.6485808,12.647148 L19.65625,12.7421875 L19.65625,13.9140625 C19.65625,14.2376563 19.3939063,14.5 19.0703125,14.5 C18.7790781,14.5 18.5374563,14.2875016 18.4920442,14.009102 L18.484375,13.9140625 L18.484375,12.7421875 C18.484375,12.4185937 18.7467187,12.15625 19.0703125,12.15625 Z M4.9296875,12.15625 C5.22092188,12.15625 5.46254375,12.3687484 5.50795578,12.647148 L5.515625,12.7421875 L5.515625,13.9140625 C5.515625,14.2376563 5.25328125,14.5 4.9296875,14.5 C4.63845312,14.5 4.39683125,14.2875016 4.35141922,14.009102 L4.34375,13.9140625 L4.34375,12.7421875 C4.34375,12.4185937 4.60609375,12.15625 4.9296875,12.15625 Z M9.65625,11.1796875 C9.94748438,11.1796875 10.1891063,11.3921859 10.2345183,11.6705855 L10.2421875,11.765625 L10.2421875,12.9375 C10.2421875,13.2610938 9.97984375,13.5234375 9.65625,13.5234375 C9.36501562,13.5234375 9.12339375,13.3109391 9.07798172,13.0325395 L9.0703125,12.9375 L9.0703125,11.765625 C9.0703125,11.4420312 9.33265625,11.1796875 9.65625,11.1796875 Z M12,11.1796875 C12.2912344,11.1796875 12.5328563,11.3921859 12.5782683,11.6705855 L12.5859375,11.765625 L12.5859375,12.9375 C12.5859375,13.2610938 12.3235937,13.5234375 12,13.5234375 C11.7087656,13.5234375 11.4671438,13.3109391 11.4217317,13.0325395 L11.4140625,12.9375 L11.4140625,11.765625 C11.4140625,11.4420312 11.6764062,11.1796875 12,11.1796875 Z M14.34375,11.1796875 C14.6349844,11.1796875 14.8766063,11.3921859 14.9220183,11.6705855 L14.9296875,11.765625 L14.9296875,12.9375 C14.9296875,13.2610938 14.6673437,13.5234375 14.34375,13.5234375 C14.0525156,13.5234375 13.8108937,13.3109391 13.7654817,13.0325395 L13.7578125,12.9375 L13.7578125,11.765625 C13.7578125,11.4420312 14.0201562,11.1796875 14.34375,11.1796875 Z M9.65625,7.6640625 C9.94748438,7.6640625 10.1891063,7.87656094 10.2345183,8.15496047 L10.2421875,8.25 L10.2421875,9.421875 C10.2421875,9.74546875 9.97984375,10.0078125 9.65625,10.0078125 C9.36501562,10.0078125 9.12339375,9.79531406 9.07798172,9.51691453 L9.0703125,9.421875 L9.0703125,8.25 C9.0703125,7.92640625 9.33265625,7.6640625 9.65625,7.6640625 Z M12,7.6640625 C12.2912344,7.6640625 12.5328563,7.87656094 12.5782683,8.15496047 L12.5859375,8.25 L12.5859375,9.421875 C12.5859375,9.74546875 12.3235937,10.0078125 12,10.0078125 C11.7087656,10.0078125 11.4671438,9.79531406 11.4217317,9.51691453 L11.4140625,9.421875 L11.4140625,8.25 C11.4140625,7.92640625 11.6764062,7.6640625 12,7.6640625 Z M14.34375,7.6640625 C14.6349844,7.6640625 14.8766063,7.87656094 14.9220183,8.15496047 L14.9296875,8.25 L14.9296875,9.421875 C14.9296875,9.74546875 14.6673437,10.0078125 14.34375,10.0078125 C14.0525156,10.0078125 13.8108937,9.79531406 13.7654817,9.51691453 L13.7578125,9.421875 L13.7578125,8.25 C13.7578125,7.92640625 14.0201562,7.6640625 14.34375,7.6640625 Z M9.65625,4.1484375 C9.94748438,4.1484375 10.1891063,4.36093594 10.2345183,4.63933547 L10.2421875,4.734375 L10.2421875,5.90625 C10.2421875,6.22984375 9.97984375,6.4921875 9.65625,6.4921875 C9.36501562,6.4921875 9.12339375,6.27968906 9.07798172,6.00128953 L9.0703125,5.90625 L9.0703125,4.734375 C9.0703125,4.41078125 9.33265625,4.1484375 9.65625,4.1484375 Z M12,4.1484375 C12.2912344,4.1484375 12.5328563,4.36093594 12.5782683,4.63933547 L12.5859375,4.734375 L12.5859375,5.90625 C12.5859375,6.22984375 12.3235937,6.4921875 12,6.4921875 C11.7087656,6.4921875 11.4671438,6.27968906 11.4217317,6.00128953 L11.4140625,5.90625 L11.4140625,4.734375 C11.4140625,4.41078125 11.6764062,4.1484375 12,4.1484375 Z M14.34375,4.1484375 C14.6349844,4.1484375 14.8766063,4.36093594 14.9220183,4.63933547 L14.9296875,4.734375 L14.9296875,5.90625 C14.9296875,6.22984375 14.6673437,6.4921875 14.34375,6.4921875 C14.0525156,6.4921875 13.8108937,6.27968906 13.7654817,6.00128953 L13.7578125,5.90625 L13.7578125,4.734375 C13.7578125,4.41078125 14.0201562,4.1484375 14.34375,4.1484375 Z"/>
</svg>
