<svg xmlns="http://www.w3.org/2000/svg" width="24" height="24" viewBox="0 0 24 24">
  <path fill="#FFF" fill-rule="evenodd" d="M23.553125,1.85625 L22.14375,0.446875 C22.0459568,0.350041535 21.8884182,0.350041535 21.790625,0.446875 L16.86875,5.371875 L15.159375,3.6625 C15.0920784,3.59523765 14.9922449,3.57238196 14.9023873,3.60366571 C14.8125297,3.63494946 14.748475,3.71486253 14.7375,3.809375 L14.003125,9.71875 C13.984375,9.88125 14.11875,10.015625 14.28125,9.996875 L20.19375,9.2625 C20.4,9.2375 20.484375,8.9875 20.340625,8.840625 L18.63125,7.13125 L23.55625,2.20625 C23.65,2.1125 23.65,1.953125 23.553125,1.85625 Z M9.71875,14.003125 L3.80625,14.7375 C3.6,14.7625 3.515625,15.015625 3.659375,15.159375 L5.36875,16.86875 L0.446875,21.790625 C0.350041535,21.8884182 0.350041535,22.0459568 0.446875,22.14375 L1.85625,23.553125 C1.953125,23.65 2.1125,23.65 2.209375,23.553125 L7.134375,18.628125 L8.84375,20.3375 C8.91104662,20.4047623 9.01088009,20.427618 9.10073768,20.3963343 C9.19059526,20.3650505 9.25464999,20.2851375 9.265625,20.190625 L9.996875,14.28125 C10.0073652,14.2047485 9.98145673,14.1277452 9.92685577,14.0731442 C9.87225482,14.0185433 9.79525153,13.9926348 9.71875,14.003125 Z"/>
</svg>
