<svg xmlns="http://www.w3.org/2000/svg" width="24" height="24" viewBox="0 0 24 24">
  <path fill="#FFF" fill-rule="evenodd" d="M22.0611648,12.0103018 C22.4547648,12.0679018 22.7235648,12.4423018 22.6563648,12.8359018 C22.0803648,16.4935018 19.8147648,19.5655018 16.6659648,21.2359018 C15.1587648,22.0327018 13.2579648,22.6087018 11.0979648,22.5607018 C10.9251648,22.5607018 10.8483648,22.3495018 10.9635648,22.2247018 L14.3043648,18.8743018 L15.5811648,20.1511018 C18.5475648,18.7495018 20.7075648,15.9559018 21.2355648,12.6055018 C21.2931648,12.2119018 21.6579648,11.9431018 22.0611648,12.0103018 Z M11.8280904,5.56649831 C13.6505371,3.74405162 16.605307,3.74405162 18.4277537,5.56649831 C20.2502004,7.38894501 20.2502004,10.3437149 18.4277537,12.1661616 C16.9904252,13.6034901 14.8487721,13.9072254 13.1137688,13.0773674 L12.9075915,12.9723432 L9.47036071,16.4080952 L10.1781746,17.1159091 C10.5686989,17.5064334 10.5686989,18.1395983 10.1781746,18.5301226 C9.81769063,18.8906066 9.25045958,18.9183361 8.85816837,18.6133112 L8.76396103,18.5301226 L8.05614714,17.8223087 L7.58544973,18.2944204 C7.06475067,18.8151194 6.2205307,18.8151194 5.69983165,18.2944204 C5.21384586,17.8084346 5.18144681,17.0406261 5.60263449,16.517064 L5.69983165,16.4088023 L11.0216467,11.0861763 C10.0645906,9.31752717 10.3334052,7.06118355 11.8280904,5.56649831 Z M12.8108231,1.33612594 C12.9836231,1.33612594 13.0604231,1.54732594 12.9452231,1.67212594 L9.60442314,5.01292594 L8.32762314,3.73612594 C5.36122314,5.13772594 3.20122314,7.93132594 2.67322314,11.2817259 C2.61562314,11.6753259 2.25082314,11.9441259 1.84762314,11.8769259 C1.45402314,11.8193259 1.18522314,11.4449259 1.25242314,11.0513259 C1.82842314,7.40332594 4.09402314,4.33132594 7.24282314,2.66092594 C8.75002314,1.86412594 10.6508231,1.28812594 12.8108231,1.33612594 Z M16.7778379,7.21641413 C15.8666145,6.30519079 14.3892296,6.30519079 13.4780062,7.21641413 C12.5667829,8.12763748 12.5667829,9.60502243 13.4780062,10.5162458 C14.3892296,11.4274691 15.8666145,11.4274691 16.7778379,10.5162458 C17.6890612,9.60502243 17.6890612,8.12763748 16.7778379,7.21641413 Z"/>
</svg>
