<svg xmlns="http://www.w3.org/2000/svg" width="24" height="24" viewBox="0 0 24 24">
  <path fill="#FFF" fill-rule="evenodd" d="M10.3333333,2 C11.9901876,2 13.3333333,3.34314575 13.3333333,5 L13.3333333,19 C13.3333333,19.350972 13.2730636,19.6878673 13.1623091,20.0009007 L17.3323333,20 L17.332891,17.1382082 C16.5973775,16.7942157 16.059432,15.8974551 16.0046141,14.8254993 L16,14.6444444 C16,13.1839581 16.8954305,12 18,12 C19.1045695,12 20,13.1839581 20,14.6444444 C20,15.7956748 19.443633,16.775087 18.6670256,17.1382472 L18.6663333,20 L21.6666667,20 C22.2189514,20 22.6666667,20.4477153 22.6666667,21 C22.6666667,21.5522847 22.2189514,22 21.6666667,22 L4.33333333,22 C2.67647908,22 1.33333333,20.6568542 1.33333333,19 L1.33333333,5 C1.33333333,3.34314575 2.67647908,2 4.33333333,2 L10.3333333,2 Z M7.33333333,14.6666667 C6.09836327,14.6666667 5.08747935,15.6260935 5.00538306,16.8402457 L5,17 L5,20 L9.66666667,20 L9.66666667,17 C9.66666667,15.7113356 8.62199775,14.6666667 7.33333333,14.6666667 Z M6.33333333,8.66666667 L3.66666667,8.66666667 L3.66666667,11.3333333 L6.33333333,11.3333333 L6.33333333,8.66666667 Z M11,8.66666667 L8.33333333,8.66666667 L8.33333333,11.3333333 L11,11.3333333 L11,8.66666667 Z M18,2 C18.5522847,2 19,2.44771525 19,3 L18.9993333,5 L21,5 C21.5522847,5 22,5.44771525 22,6 C22,6.55228475 21.5522847,7 21,7 L18.9993333,7 L19,9 C19,9.55228475 18.5522847,10 18,10 C17.4477153,10 17,9.55228475 17,9 L16.9993333,7 L15,7 C14.4477153,7 14,6.55228475 14,6 C14,5.44771525 14.4477153,5 15,5 L16.9993333,5 L17,3 C17,2.44771525 17.4477153,2 18,2 Z M6.33333333,4 L3.66666667,4 L3.66666667,6.66666667 L6.33333333,6.66666667 L6.33333333,4 Z M11,4 L8.33333333,4 L8.33333333,6.66666667 L11,6.66666667 L11,4 Z"/>
</svg>
