<svg xmlns="http://www.w3.org/2000/svg" width="24" height="24" viewBox="0 0 24 24">
  <path fill="#FFF" d="M20.3643359,13.7355078 L18.8888672,10.046875 L20.3643359,6.35824219 C20.4365625,6.17769531 20.4144922,5.973125 20.3055078,5.81214844 C20.1964844,5.65113281 20.0147266,5.5546875 19.8203125,5.5546875 L12.984375,5.5546875 L12.984375,4.1875 C12.984375,3.86390625 12.7220313,3.6015625 12.3984375,3.6015625 L5.171875,3.6015625 L5.171875,2.5859375 C5.171875,2.26234375 4.90953125,2 4.5859375,2 C4.26234375,2 4,2.26234375 4,2.5859375 C4,5.03582031 4,19.3346094 4,21.4140625 C4,21.7376563 4.26234375,22 4.5859375,22 C4.90953125,22 5.171875,21.7376563 5.171875,21.4140625 L5.171875,12.5859375 L9.859375,12.5859375 L9.859375,13.953125 C9.859375,14.2730078 10.1200391,14.5390625 10.4453125,14.5390625 L19.8203125,14.5390625 C20.0147656,14.5390625 20.1964844,14.4426172 20.3055078,14.2816016 C20.4145312,14.120625 20.4365625,13.9160547 20.3643359,13.7355078 Z M11.8125,11.4140625 C11.1414844,11.4140625 5.89597656,11.4140625 5.171875,11.4140625 L5.171875,4.7734375 L11.8125,4.7734375 C11.8125,5.44445312 11.8125,10.6899609 11.8125,11.4140625 Z M11.8598828,13.3671875 L12.8126562,12.4144141 C12.9246094,12.3025391 12.984375,12.1485937 12.984375,12 L12.984375,6.7265625 L18.9548828,6.7265625 L17.7137891,9.82925781 C17.6579297,9.96894531 17.6579297,10.1248047 17.7137891,10.2645313 L18.9548828,13.3671875 L11.8598828,13.3671875 Z"/>
</svg>
