<svg xmlns="http://www.w3.org/2000/svg" width="24" height="24" viewBox="0 0 24 24">
  <path fill="#FFF" d="M12,0 C18.6169471,0 24,5.38305286 24,12 C24,18.6169471 18.6169471,24 12,24 C5.38305286,24 0,18.6169471 0,12 C0,9.94615385 0.513461538,7.97668265 1.52596154,6.14675483 C1.77259615,5.70072111 2.33437495,5.53918265 2.78040868,5.78581735 C3.22644231,6.03281252 3.38798077,6.59423077 3.14134615,7.0402644 C2.28209132,8.59399034 1.84615385,10.2623798 1.84615385,12 C1.84615385,17.5986779 6.40132209,22.1538462 12,22.1538462 C17.5986779,22.1538462 22.1538462,17.5986779 22.1538462,12 C22.1538462,6.40132209 17.5986779,1.84615385 12,1.84615385 C10.6489182,1.84615385 9.44819714,2.08557692 8.10685098,2.62211538 C7.63341342,2.81141825 7.0965144,2.58100966 6.90685098,2.10793274 C6.71754812,1.63449517 6.94795671,1.0972356 7.42103363,0.907932738 C8.96971154,0.288461538 10.4246394,0 12,0 Z M12,10.1538462 C12.4734375,10.1538462 12.8635523,10.5101439 12.9168675,10.9692627 L12.9230769,11.0769231 L12.9230769,16.6153846 C12.9230769,17.1252404 12.5098558,17.5384615 12,17.5384615 C11.5265625,17.5384615 11.1364477,17.1821637 11.0831325,16.723045 L11.0769231,16.6153846 L11.0769231,11.0769231 C11.0769231,10.5670673 11.4901442,10.1538462 12,10.1538462 Z M12,6.46153846 C12.5094952,6.46153846 12.9230769,6.87512022 12.9230769,7.38461538 C12.9230769,7.89411055 12.5094952,8.30769231 12,8.30769231 C11.4905048,8.30769231 11.0769231,7.89411055 11.0769231,7.38461538 C11.0769231,6.87512022 11.4905048,6.46153846 12,6.46153846 Z M4.61538462,2.76923077 C5.12992791,2.76923077 5.53846154,3.18966351 5.53846154,3.69230769 C5.53846154,4.20180286 5.12487978,4.61538462 4.61538462,4.61538462 C4.11129803,4.61538462 3.69230769,4.20576923 3.69230769,3.69230769 C3.69230769,3.18281252 4.10588945,2.76923077 4.61538462,2.76923077 Z"/>
</svg>
