<svg xmlns="http://www.w3.org/2000/svg" width="24" height="24" viewBox="0 0 24 24">
  <path fill="#FFF" fill-rule="evenodd" d="M12,3.20327297 C17.2170484,3.20327297 21.4473714,7.43359594 21.4473714,12.6506444 C21.4473714,15.4567696 20.2234941,17.9774246 18.2804862,19.7078628 L19.3289659,21.5241111 C19.5964788,21.987457 19.4377248,22.5799353 18.9743788,22.8474482 C18.5110328,23.1149611 17.9185546,22.956207 17.6510417,22.4928611 L17.6510417,22.4928611 L16.7004402,20.8472495 C15.3160662,21.6429466 13.7111057,22.0980158 12,22.0980158 C10.3084683,22.0980158 8.72066721,21.6532984 7.34715537,20.8744224 L6.41229922,22.4928611 C6.14478629,22.956207 5.55230809,23.1149611 5.08896211,22.8474482 C4.62561613,22.5799353 4.46686207,21.987457 4.734375,21.5241111 L5.76136657,19.7449167 C3.79409732,18.0135114 2.5526286,15.4768646 2.5526286,12.6506444 C2.5526286,7.43359594 6.78295157,3.20327297 12,3.20327297 Z M12.0187722,7.4021047 L11.9557897,7.4021047 C11.5359065,7.4021047 11.2,7.73801124 11.2,8.15789441 L11.2,13.1125159 C11.2,13.4799136 11.3889474,13.8263173 11.7143569,14.0152647 L15.5457908,16.3141251 C15.9026915,16.5240666 16.364563,16.4190959 16.5745046,16.0621952 C16.7949433,15.6947974 16.6794754,15.2224288 16.3120776,15.0124872 L12.7745619,12.9130714 L12.7745619,8.15789441 C12.7745619,7.73801124 12.4386554,7.4021047 12.0187722,7.4021047 Z M21.6363188,4.26347798 L18.4032184,1.57622567 C17.9623411,1.20882789 17.3010251,1.26131329 16.9231302,1.7126877 C16.5557324,2.15356503 16.6187149,2.81488103 17.0595922,3.19277589 L20.2821956,5.8800282 C20.7230729,6.24742597 21.3843889,6.19494058 21.7622838,5.74356617 C22.1401786,5.30268883 22.0771962,4.64137284 21.6363188,4.26347798 L21.6363188,4.26347798 Z M3.70730733,5.8800282 L6.92991068,3.19277589 C7.38128509,2.81488103 7.44426757,2.15356503 7.06637271,1.7126877 C6.69897494,1.26131329 6.03765894,1.20882789 5.59678161,1.57622567 L2.36368117,4.26347798 C1.92280384,4.64137284 1.85982136,5.30268883 2.23771622,5.74356617 C2.605114,6.19494058 3.26642999,6.24742597 3.70730733,5.8800282 Z"/>
</svg>
