<svg xmlns="http://www.w3.org/2000/svg" width="24" height="24" viewBox="0 0 24 24">
  <path fill="#FFF" fill-rule="evenodd" d="M19.56,15.4530256 C19.95375,14.5052522 20.1675,13.4905771 20.1675,12.3755495 C20.1675,11.5727296 20.04375,10.8033606 19.83,10.0897429 C19.09875,10.2569971 18.33375,10.3461993 17.535,10.3461993 C14.2154461,10.34973 11.1016411,8.75255744 9.1875,6.06449331 C8.17848266,8.48429694 6.27501484,10.4307203 3.86625,11.505828 C3.82125,11.7845849 3.82125,12.0856423 3.82125,12.3755495 C3.82125,14.5254608 4.68293726,16.5873174 6.21675041,18.1075342 C7.75056357,19.6277511 9.83086063,20.4818001 12,20.4818001 C13.18125,20.4818001 14.3175,20.2253437 15.34125,19.7681824 C15.9825,20.9835625 16.275,21.5856774 16.2525,21.5856774 C14.4075,22.1989426 12.97875,22.5 12,22.5 C9.2775,22.5 6.67875,21.4407238 4.76625,19.5340266 C3.60299689,18.3846335 2.73829143,16.9728125 2.24625,15.4195748 L0.75,15.4195748 L0.75,10.3461993 L1.97625,10.3461993 C2.73317028,6.69446636 5.45157458,3.74933135 9.05422011,2.67788531 C12.6568656,1.60643928 16.5621514,2.58165348 19.2225,5.21707234 C20.6402508,6.61671473 21.6072835,8.4017022 22.00125,10.3461993 L23.25,10.3461993 L23.25,15.4195748 L23.1825,15.4195748 L19.1775,19.065715 L13.215,18.3966985 L13.215,16.5346024 L18.64875,16.5346024 L19.56,15.4530256 M8.63022149,12 C8.92764819,12 9.21516068,12.1189427 9.42335937,12.3370044 C9.85888021,12.7759788 9.85888021,13.4839331 9.42335937,13.9229075 C9.21516068,14.1310573 8.92764819,14.25 8.63022149,14.25 C8.0056254,14.25 7.5,13.7544053 7.5,13.1299559 C7.5,12.5055066 8.0056254,12 8.63022149,12 M14.6299559,12 C15.2544053,12 15.75,12.5055066 15.75,13.1299559 C15.75,13.7544053 15.2544053,14.25 14.6299559,14.25 C14.0055066,14.25 13.5,13.7544053 13.5,13.1299559 C13.5,12.5058985 14.0058985,12 14.6299559,12 L14.6299559,12 Z"/>
</svg>
