<svg xmlns="http://www.w3.org/2000/svg" width="24" height="24" viewBox="0 0 24 24">
  <path fill="#FFF" d="M12.140625,-1.66977543e-13 C12.6559125,-1.66977543e-13 13.08372,0.24942 13.4430075,0.509556 L13.9181094,0.867647569 C14.0613177,0.971911458 14.1961094,1.05826562 14.2989844,1.08576562 C14.4129844,1.11629687 14.581401,1.10957812 14.7651094,1.09085937 L15.04725,1.0569375 C15.5747344,0.988828125 16.1725312,0.911578125 16.7125781,1.22404687 C17.1499781,1.47713437 17.3927081,1.90239187 17.5720721,2.30316337 L17.8060781,2.85365451 C17.8799948,3.01951562 17.9562031,3.16582812 18.0359531,3.24557812 C18.1157031,3.32532812 18.2620156,3.40151562 18.4278767,3.47543229 L18.6854531,3.58476562 C19.15575,3.779625 19.7410312,4.02220312 20.0573906,4.56885937 C20.3073281,5.00089687 20.3078756,5.46989437 20.2632011,5.91025987 L20.190441,6.51624826 C20.1717188,6.69994271 20.1650313,6.86835937 20.1955312,6.98235937 C20.2230312,7.08523437 20.3093646,7.22000521 20.4136285,7.36319965 L20.5783594,7.581375 C20.8915312,7.98914062 21.28125,8.49651562 21.28125,9.140625 C21.28125,9.6559125 21.03183,10.08372 20.771718,10.4430075 L20.4136267,10.9181111 C20.3093594,11.0613229 20.2230156,11.196125 20.1954844,11.2990312 C20.1649844,11.4130937 20.1716719,11.5815104 20.1903802,11.765184 L20.2631066,12.371154 C20.3077781,12.811545 20.3072156,13.28055 20.0572031,13.712625 C19.8041531,14.1499875 19.3789031,14.39271 18.9781091,14.5720725 L18.4275955,14.8060781 C18.2617344,14.8799948 18.1154219,14.9562031 18.0356719,15.0359531 C17.9559219,15.1156719 17.8797344,15.261974 17.8058177,15.4278316 L17.6964844,15.6854062 C17.6384531,15.8254375 17.5760885,15.9756354 17.5027656,16.1259028 L17.3837344,16.3500937 L18.9362813,22.1442656 C19.0099219,22.4189531 18.9107813,22.7109844 18.6851719,22.8840937 C18.4877637,23.0355645 18.2274785,23.0699304 18.0005339,22.9809111 L17.9055938,22.9351875 L16.2180938,21.9609375 L15.2438438,23.6484375 C15.1171875,23.8678594 14.8838906,24 14.635125,24 C14.6046563,24 14.5739531,23.9980312 14.5431563,23.994 C14.2964473,23.9615156 14.0881033,23.80177 13.99057,23.578322 L13.9557656,23.4788437 L12.5488125,18.2280469 C12.4190625,18.2612812 12.2834062,18.28125 12.140625,18.28125 C12.0454375,18.28125 11.9534167,18.272375 11.8641875,18.2565972 L11.7323906,18.228 L10.3254375,23.4787969 C10.2517969,23.7534844 10.02,23.9568281 9.73804687,23.9939531 C9.70729688,23.9979844 9.67654687,24 9.64607812,24 C9.43285045,24 9.23098756,23.9028827 9.09790384,23.7369566 L9.03735938,23.6483906 L8.06310937,21.9608906 L6.37560937,22.9351406 C6.12928125,23.0773594 5.82159375,23.0571094 5.59603125,22.8840469 C5.39862305,22.7325762 5.29807837,22.4900559 5.32532877,22.2478048 L5.34492187,22.1442656 L6.89742188,16.3501875 C6.81142188,16.2023125 6.73971354,16.0494375 6.67565799,15.9016875 L6.47517188,15.4275955 C6.40125521,15.2617344 6.32504688,15.1154219 6.24529688,15.0356719 C6.16554688,14.9559219 6.01923438,14.8797344 5.85337326,14.8058177 L5.59579688,14.6964844 C5.1255,14.501625 4.54021875,14.2590469 4.22385937,13.7123906 C3.97392187,13.2803531 3.97337438,12.8113556 4.01804888,12.3709901 L4.09080903,11.7650017 C4.10953125,11.5813073 4.11621875,11.4128906 4.08571875,11.2988906 C4.05821875,11.1960156 3.97188542,11.0612448 3.86762153,10.9180503 L3.509532,10.4429655 C3.24942,10.08369 3,9.6559125 3,9.140625 C3,8.6253375 3.24942,8.19753 3.509532,7.8382185 L3.86760069,7.36309375 C3.97186458,7.21988542 4.05821875,7.08509375 4.08571875,6.98221875 C4.11621875,6.86815625 4.10953125,6.69973958 4.09082292,6.51606597 L4.0180965,5.910096 C3.973425,5.469705 3.9739875,5.0007 4.224,4.568625 C4.50868125,4.07659219 5.01130312,3.83090062 5.45186128,3.64463016 L5.59603125,3.58448437 C5.85651563,3.47657812 6.12590625,3.36492187 6.24553125,3.24529687 C6.32528125,3.16557812 6.40146875,3.01927604 6.47538542,2.8534184 L6.58471875,2.59584375 C6.779625,2.1255 7.02215625,1.54017187 7.56890625,1.22385937 C8.00098125,0.973846875 8.46998625,0.973314375 8.91032925,1.01802187 L9.51626389,1.09074653 C9.69994792,1.10944792 9.868375,1.11615625 9.98240625,1.08571875 C10.08525,1.05821875 10.2200104,0.971885417 10.3632014,0.867621528 L10.8382665,0.509532 C11.19753,0.24942 11.6253375,-1.66977543e-13 12.140625,-1.66977543e-13 Z M9.9823125,17.1955312 C9.86821875,17.165 9.69977083,17.1716771 9.51607986,17.1903958 L9.234,17.2243594 C8.9497875,17.2610719 8.645175,17.3000944 8.3401785,17.2795789 L8.11167187,17.2520625 L7.142625,20.8686562 L7.9689375,20.3915625 C8.13042187,20.2983281 8.32232812,20.2730625 8.50246875,20.3212969 C8.64658125,20.3599219 8.77368375,20.4430669 8.86649625,20.5574599 L8.92940625,20.6489062 L9.4065,21.4752187 L10.4729531,17.4954375 C10.2900937,17.3567812 10.1111719,17.2299844 9.9823125,17.1955312 Z M15.2636978,17.2514344 L14.7649392,17.1905035 C14.5812552,17.1718021 14.4128281,17.1650937 14.2987969,17.1955312 C14.2215375,17.216175 14.1262387,17.2700794 14.0228737,17.3398496 L13.8083437,17.4953906 L14.87475,21.4752187 L15.3518437,20.6489062 C15.4450781,20.4874219 15.5986406,20.3695781 15.7787812,20.3212969 C15.9228187,20.2827469 16.0745062,20.2911769 16.2120998,20.3438269 L16.3123125,20.3915625 L17.1385781,20.8686094 L16.1695312,17.2521094 C15.8655187,17.3063344 15.5568862,17.2854694 15.2636978,17.2514344 L15.2636978,17.2514344 Z M12.140625,1.40625 C12.0366504,1.40625 11.8814978,1.49545898 11.7214357,1.60718079 L11.5299658,1.74778455 L11.5299658,1.74778455 L11.4380156,1.8181875 C11.1252656,2.058375 10.7708438,2.33057812 10.3455469,2.44429687 C10.0318192,2.5280692 9.71113202,2.52215721 9.40789655,2.49314937 L8.82720264,2.42360742 L8.82720264,2.42360742 L8.60239453,2.40445312 C8.45953125,2.39730469 8.33704688,2.40410156 8.27310938,2.4410625 C8.18920313,2.48960742 8.10251367,2.64109424 8.02155542,2.81483066 L7.92770142,3.02882986 L7.92770142,3.02882986 L7.88385938,3.13415625 C7.73076563,3.50357812 7.55723438,3.9223125 7.23989063,4.23965625 C6.9754375,4.50410937 6.64057422,4.66866016 6.32248611,4.80478754 L5.92130347,4.97350928 C5.70601758,5.0675127 5.49949219,5.17223437 5.44120313,5.27292187 C5.40419531,5.33688281 5.39738672,5.45937891 5.4045293,5.60224805 L5.42367554,5.82706128 L5.42367554,5.82706128 L5.4515625,6.0538125 C5.50317188,6.453375 5.56167188,6.90623437 5.44429688,7.34540625 C5.34957031,7.69985937 5.14472005,8.00509375 4.9400434,8.27795508 L4.7477666,8.5298876 L4.7477666,8.5298876 L4.60718994,8.72137985 C4.49547729,8.88145752 4.40625,9.03662109 4.40625,9.140625 C4.40625,9.24459961 4.49545898,9.3997522 4.60718079,9.55983719 L4.74778455,9.75134702 L4.74778455,9.75134702 L4.8181875,9.84332812 C5.058375,10.1560312 5.330625,10.5105 5.44429688,10.9357969 C5.52813616,11.2494911 5.5222433,11.5701926 5.49320677,11.873439 L5.42362793,12.4541338 L5.42362793,12.4541338 L5.40447656,12.6789258 C5.39732812,12.8217773 5.404125,12.94425 5.44110937,13.0081875 C5.4896543,13.0920937 5.64114111,13.1787832 5.81486609,13.2597415 L6.02884534,13.3535955 L6.02884534,13.3535955 L6.13415625,13.3974375 C6.50357812,13.5504844 6.9223125,13.7240156 7.23970313,14.0414062 C7.50415625,14.3058984 7.66870703,14.6407357 7.80480729,14.958814 L7.97350269,15.36 C8.06749512,15.5752969 8.17219922,15.7818398 8.27292188,15.8400937 C8.35287305,15.8863535 8.5242854,15.885427 8.71261212,15.8690487 L8.94195209,15.8440088 L8.94195209,15.8440088 L9.05376563,15.8297344 C9.28167188,15.8002969 9.52692188,15.7685625 9.77709375,15.7685625 C9.96553125,15.7685625 10.1567813,15.7865625 10.3454531,15.837 C10.6998672,15.9317266 11.0050951,16.1365768 11.2779553,16.3412263 L11.6251135,16.6048879 C11.8173457,16.7465391 12.0158203,16.875 12.140625,16.875 C12.2445996,16.875 12.3997522,16.785791 12.5598143,16.6740692 L12.8432344,16.4630625 L12.8432344,16.4630625 C13.1559844,16.222875 13.5104063,15.9506719 13.9357031,15.8369531 C14.3121362,15.7363058 14.6986598,15.7649761 15.0530028,15.807722 L15.4540408,15.8576426 C15.6845801,15.8832012 15.9121992,15.8956289 16.0081406,15.8401875 C16.0920469,15.7916426 16.1787363,15.6401558 16.2596946,15.4664193 L16.3973906,15.1470937 L16.3973906,15.1470937 C16.5504844,14.7776719 16.7240156,14.3589375 17.0413594,14.0415937 C17.3058125,13.7771406 17.6406758,13.6125898 17.9587639,13.4764625 L18.3599465,13.3077407 C18.5752324,13.2137373 18.7817578,13.1090156 18.8400469,13.0083281 C18.8863066,12.928377 18.8853801,12.7569646 18.8690018,12.5686264 L18.8296875,12.2274375 C18.7780781,11.827875 18.7195781,11.3750156 18.8369531,10.9358437 C18.9316797,10.5813906 19.1365299,10.2761562 19.3412066,10.0032949 L19.6048682,9.65613647 C19.7465127,9.4639043 19.875,9.26542969 19.875,9.140625 C19.875,9.03665039 19.785791,8.8814978 19.6740578,8.72141281 L19.4630156,8.43792187 L19.4630156,8.43792187 C19.2228281,8.12521875 18.9505781,7.77075 18.8369063,7.34545312 C18.753067,7.03175893 18.7589598,6.7110574 18.7879964,6.407811 L18.8575752,5.82711621 C18.883125,5.5965791 18.8955703,5.36896875 18.8400938,5.2730625 C18.7915488,5.18915625 18.640062,5.1024668 18.466337,5.02150854 L18.1470469,4.8838125 L18.1470469,4.8838125 C17.777625,4.73076562 17.3588906,4.55723437 17.0415,4.23984375 C16.7770469,3.97535156 16.6124961,3.64051432 16.4763958,3.32243598 L16.3077004,2.92125 C16.213708,2.70595312 16.1090039,2.49941016 16.0082813,2.44115625 C15.9443203,2.404125 15.8218359,2.39732812 15.6789727,2.40448242 L15.4541616,2.42364185 L15.4541616,2.42364185 L15.2273906,2.45151562 C14.827875,2.50317187 14.3750625,2.56171875 13.9358438,2.44425 C13.5813906,2.34952344 13.2761563,2.14467318 13.0032949,1.94002365 L12.6561365,1.67636206 C12.4639043,1.53471094 12.2654297,1.40625 12.140625,1.40625 Z M12.140625,2.8125 C15.6299531,2.8125 18.46875,5.65129687 18.46875,9.140625 C18.46875,12.6299531 15.6299531,15.46875 12.140625,15.46875 C8.65129687,15.46875 5.8125,12.6299531 5.8125,9.140625 C5.8125,5.65129687 8.65129687,2.8125 12.140625,2.8125 Z M12.140625,4.21875 C9.42670312,4.21875 7.21875,6.42670312 7.21875,9.140625 C7.21875,11.8545469 9.42670312,14.0625 12.140625,14.0625 C14.8545469,14.0625 17.0625,11.8545469 17.0625,9.140625 C17.0625,6.42670312 14.8545469,4.21875 12.140625,4.21875 Z M12.140625,5.15625 C12.3747832,5.15625 12.5912124,5.27256519 12.7210153,5.46242523 L12.7711406,5.54817187 L13.521375,7.068375 L15.1989844,7.312125 C15.4638281,7.3505625 15.6838594,7.53614062 15.7665469,7.790625 C15.8389395,8.01338086 15.7951604,8.25515771 15.6547107,8.43726068 L15.5886563,8.51142187 L14.3747344,9.6946875 L14.6612813,11.3655469 C14.7065625,11.6293125 14.5980938,11.8959375 14.3815781,12.05325 C14.2590938,12.1422187 14.1140156,12.1875 13.9682344,12.1875 C13.8936094,12.1875 13.8188177,12.175625 13.7467622,12.1516944 L13.6410938,12.1067344 L12.140625,11.317875 L10.6401094,12.1067812 C10.4032031,12.2312344 10.1161875,12.2105156 9.899625,12.05325 C9.71017383,11.9155605 9.60348193,11.6942505 9.61007263,11.464372 L9.61992188,11.3655469 L9.90646875,9.6946875 L8.69254688,8.51142187 C8.50092188,8.324625 8.43192188,8.04520312 8.51465625,7.790625 C8.58700781,7.56791016 8.76454907,7.39802344 8.98522852,7.33328156 L9.08226563,7.312125 L10.759875,7.068375 L11.5101094,5.54817187 C11.6285625,5.30817187 11.8730156,5.15625 12.140625,5.15625 Z M12.140625,7.44815625 L11.8573594,8.02223437 C11.7695692,8.20010491 11.6115928,8.33117315 11.4240187,8.38594966 L11.3279531,8.40684375 L10.6944375,8.49890625 L11.152875,8.94576562 C11.2949063,9.08422098 11.3707462,9.27498884 11.3648973,9.47030753 L11.3550938,9.568125 L11.2468594,10.1990625 L11.8134844,9.90117187 C11.9159063,9.8473125 12.0283125,9.82040625 12.1406719,9.82040625 C12.2155781,9.82040625 12.2905052,9.83238542 12.3624809,9.85631597 L12.4678594,9.90117187 L13.0344844,10.1990625 L12.92625,9.568125 C12.8927411,9.37261607 12.9435038,9.1736977 13.0630408,9.01913156 L13.1284688,8.94576562 L13.5868594,8.49890625 L12.9533438,8.40684375 C12.7570714,8.37831696 12.5835631,8.26858355 12.473496,8.10713293 L12.4239375,8.02223437 L12.140625,7.44815625 Z"/>
</svg>
