<svg xmlns="http://www.w3.org/2000/svg" width="24" height="24" viewBox="0 0 24 24">
  <path fill="#FFF" d="M14.1328125,6.7265625 C14.4564514,6.7265625 14.71875,6.98886109 14.71875,7.3125 C14.71875,7.60377502 14.5062881,7.84536438 14.227863,7.8907695 L14.1328125,7.8984375 L12.375,7.8984375 L12.375,9.08450316 C17.0242004,9.30361938 20.578125,12.0730896 20.578125,16.6875 C20.578125,16.978775 20.3656631,17.2203644 20.087238,17.2657695 L19.9921875,17.2734375 L14.71875,17.2734375 L14.71875,18.484375 L18.8203125,18.484375 C19.7410889,18.484375 20.4988159,19.1960632 20.5722867,20.0982327 L20.578125,20.2421875 L20.578125,21.4140625 C20.578125,21.7053375 20.3656631,21.9469269 20.087238,21.992332 L19.9921875,22 L3.5859375,22 C3.29466248,22 3.05307312,21.7875381 3.007668,21.509113 L3,21.4140625 L3,20.2421875 C3,19.3214111 3.71168823,18.5636841 4.61385773,18.4902133 L4.7578125,18.484375 L8.859375,18.484375 L8.859375,17.2734375 L3.5859375,17.2734375 C3.26229859,17.2734375 3,17.0111389 3,16.6875 C3,12.1607259 6.41929456,9.41267725 10.9311229,9.10031671 L11.203125,9.08450316 L11.203125,7.8984375 L9.4453125,7.8984375 C9.12167359,7.8984375 8.859375,7.63613891 8.859375,7.3125 C8.859375,7.02122498 9.07183686,6.77963562 9.350262,6.7342305 L9.4453125,6.7265625 L14.1328125,6.7265625 Z M18.8203125,19.65625 L4.7578125,19.65625 C4.4670868,19.65625 4.22505799,19.8692062 4.17955948,20.1472853 L4.171875,20.2421875 L4.171875,20.828125 L19.40625,20.828125 L19.40625,20.2421875 C19.40625,19.9514618 19.1932938,19.709433 18.9152147,19.6639345 L18.8203125,19.65625 Z M13.546875,17.2734375 L10.03125,17.2734375 L10.03125,18.484375 L13.546875,18.484375 L13.546875,17.2734375 Z M11.7890625,10.2421875 C8.24686732,10.2421875 4.67473684,11.9816462 4.2203989,15.8411194 L4.1947632,16.1015625 L19.3833618,16.1015625 C19.0621643,12.0598145 15.4099731,10.2421875 11.7890625,10.2421875 Z M14.8904114,3.55410766 C15.1191406,3.32537844 15.4902344,3.32537844 15.7189636,3.55410766 C15.9224142,3.75755818 15.9450198,4.07325311 15.7867805,4.30164684 L15.7189636,4.3828125 L14.8904114,5.21151734 C14.6615295,5.44024656 14.2904358,5.44024656 14.0617066,5.21151734 C13.8583917,5.00806682 13.8358011,4.69237189 13.9939349,4.46397816 L14.0617066,4.3828125 L14.8904114,3.55410766 Z M7.85916137,3.55410766 C8.06247626,3.3507928 8.37827668,3.32820226 8.60658836,3.48633604 L8.68771363,3.55410766 L9.51641844,4.3828125 C9.7451477,4.61169434 9.7451477,4.98263551 9.51641844,5.21151734 C9.31296795,5.4148322 8.99727302,5.43742274 8.7688793,5.27928896 L8.68771363,5.21151734 L7.85916137,4.3828125 C7.63027953,4.15393066 7.63027953,3.78298949 7.85916137,3.55410766 Z M11.7890625,2 C12.0803375,2 12.3219269,2.21246186 12.367332,2.490887 L12.375,2.5859375 L12.375,3.796875 C12.375,4.12051391 12.1127014,4.3828125 11.7890625,4.3828125 C11.4977875,4.3828125 11.2561981,4.17035064 11.210793,3.8919255 L11.203125,3.796875 L11.203125,2.5859375 C11.203125,2.26229859 11.4654236,2 11.7890625,2 Z"/>
</svg>
