<svg xmlns="http://www.w3.org/2000/svg" width="24" height="24" viewBox="0 0 24 24">
  <path fill="#FFF" d="M2.45519531,12.2660547 C2.73917969,12.1999219 3.02824219,12.3525 3.13402344,12.6240625 C5.32519531,18.2487109 13.0140234,18.5596094 15.8864453,13.5844531 C18.2170703,9.54769531 16.1055859,4.31347656 11.4964063,3.16253906 C11.2140234,3.09203125 11.0262109,2.82492188 11.0553516,2.53535156 C11.0844922,2.24578125 11.3217969,2.02148438 11.6125781,2.00867188 L12.1236719,2.00363281 C19.7519922,2.03996094 24.4441406,10.4808594 20.6678125,17.0215625 C15.859375,25.3501172 2.85023437,22.7071094 2.00421875,12.8869922 C1.97925781,12.5967188 2.17136719,12.3321094 2.45519531,12.2660547 Z M19.6529687,16.435625 C22.3635156,11.7407812 20.2323828,5.60085937 15.0842187,3.70820312 C18.0220703,6.18617187 18.9545703,10.6140234 16.9013281,14.1703906 C14.299375,18.6771094 8.05109375,19.6775781 4.15152344,16.133125 C7.35230469,22.2257031 16.1660937,22.4750781 19.6529687,16.435625 Z"/>
</svg>
