<svg xmlns="http://www.w3.org/2000/svg" width="24" height="24" viewBox="0 0 24 24">
  <path fill="#FFF" fill-rule="evenodd" d="M18.6096028,7.44528819 L4.33861225,21.7162788 C3.96031726,22.0945737 3.3469799,22.0945737 2.96868491,21.7162788 L2.28372124,21.0313151 C1.90542625,20.6530201 1.90542625,20.0396827 2.28372124,19.6613878 L16.5547118,5.39039718 L9.40709617,5.39039718 C8.87210627,5.39039718 8.43841126,4.95670218 8.43841126,4.42171227 L8.43841126,2.96868491 C8.43841126,2.43369501 8.87210627,2 9.40709617,2 L21.0313151,2 C21.566305,2 22,2.43369501 22,2.96868491 L22,14.5929038 C22,15.1278937 21.566305,15.5615887 21.0313151,15.5615887 L19.5782877,15.5615887 C19.0432978,15.5615887 18.6096028,15.1278937 18.6096028,14.5929038 L18.6096028,7.44528819 Z"/>
</svg>
