<svg xmlns="http://www.w3.org/2000/svg" width="24" height="24" viewBox="0 0 24 24">
  <path fill="#FFF" d="M21.3080139,2.68679809 C20.3927918,1.77157594 18.910553,1.77066039 17.9947205,2.68649293 L15.0259705,5.65005492 L13.6983032,5.34838867 L14.1287537,4.91778563 C14.3576355,4.68920898 14.3576355,4.31826781 14.1287537,4.08938598 C13.9000244,3.86065672 13.5292359,3.86080934 13.300354,4.08938598 L12.3482055,5.04168703 L10.9979553,4.73498535 L11.4364929,4.29660035 C11.6652222,4.06771852 11.6652222,3.69692992 11.4364929,3.4682007 C11.2077637,3.23931883 10.8368225,3.23931883 10.6080933,3.4682007 L9.64785766,4.42828367 L8.29776,4.12158203 L8.74407961,3.67526246 C8.97296141,3.4465332 8.97296141,3.07559203 8.74407961,2.84686281 C8.51535035,2.61813355 8.14456176,2.61813355 7.91567992,2.84686281 L6.94766234,3.81488039 L5.23791504,3.4263916 C5.04168703,3.38198852 4.83615113,3.44119262 4.69393922,3.58340453 L3.03713988,5.24020387 C2.76766969,5.50967406 2.82336426,5.96163941 3.15081789,6.15725707 L10.2615662,10.4063721 L8.11984254,12.5444336 L4.24243164,12.5444336 C4.08709719,12.5444336 3.93817141,12.6060791 3.82830812,12.7159424 L2.17150879,14.3727417 C1.88739016,14.6567078 1.96765137,15.1367493 2.32836914,15.3131409 L6.09469605,17.1545715 L5.0180359,18.2312317 C4.78915406,18.4599609 4.78915406,18.8309021 5.0180359,19.0596313 C5.24676516,19.2883606 5.61755371,19.2885132 5.84643555,19.0596313 L6.91851805,17.9873963 L8.68487547,21.6676636 C8.85897828,22.030365 9.34085082,22.1147461 9.6271057,21.8284912 L11.2788696,20.1716919 C11.3885803,20.0618286 11.4503784,19.9127502 11.4503784,19.7574158 L11.4503784,15.8360596 L13.5835571,13.7117309 L17.8598328,20.866272 C18.0562134,21.1947937 18.5080261,21.2488098 18.776886,20.97995 L20.4336853,19.3231506 C20.5760498,19.1807861 20.6352539,18.9754028 20.5906982,18.7791748 L20.2020569,17.0695801 L21.170227,16.1014099 C21.3991089,15.8726807 21.3991089,15.5017395 21.170227,15.2730102 C20.9414978,15.044281 20.5707092,15.044281 20.3418274,15.2730102 L19.89505,15.7197876 L19.5881958,14.3698425 L20.5490418,13.4089966 C20.777771,13.1802673 20.777771,12.8094788 20.5490418,12.5805969 C20.3203125,12.3518677 19.9493713,12.3518677 19.7206421,12.5805969 L19.281189,13.02005 L18.9743347,11.670105 L19.9277039,10.7167359 C20.1564331,10.487854 20.1564331,10.1170654 19.9277039,9.88833617 C19.6989746,9.65960695 19.3280334,9.65945434 19.0993042,9.88833617 L18.6673279,10.3201599 L18.3552856,8.94808961 L21.3080139,6.00039672 C22.2215576,5.08685305 22.2215576,3.6003418 21.3080139,2.68679809 Z M4.39700316,5.53713988 L5.29376219,4.64053344 L14.0457459,6.62875367 L11.1168213,9.55264281 L4.39700316,5.53713988 Z M19.3765564,18.7234802 L18.4797973,19.6200867 L14.4383545,12.8583069 L17.3761291,9.92556762 L19.3765564,18.7234802 Z M20.4799195,5.17169188 L10.4507752,15.1785584 C10.3407593,15.2884216 10.2788086,15.4375 10.2788086,15.5931396 L10.2788086,19.514801 L9.38342285,20.4155273 L7.79666137,17.1094055 L9.16003418,15.7460327 C9.38876344,15.5173035 9.38876344,15.1463623 9.16003418,14.917633 C8.93130492,14.6889038 8.56036375,14.6889038 8.33163453,14.917633 L6.97055055,16.278717 L3.58004762,14.6210022 L4.48519898,13.7158508 L8.36215211,13.7158508 C8.51733398,13.7158508 8.66625977,13.6543579 8.77612305,13.5446472 C9.11502074,13.2063598 18.2477112,4.0892334 18.8228149,3.51519773 C19.2805786,3.05743406 20.021698,3.05728148 20.4796143,3.51519773 C20.9363098,3.97189332 20.9363098,4.71514891 20.4799195,5.17169188 Z"/>
</svg>
