<svg xmlns="http://www.w3.org/2000/svg" width="24" height="24" viewBox="0 0 24 24">
  <path fill="#FFF" fill-rule="evenodd" d="M17.64,6.35000089 C16.145144,4.84494946 14.1112669,3.99900061 11.99,4 C7.57,4 4,7.58000089 4,12 C4,16.4200009 7.57,20 11.99,20 C15.72,20 18.83,17.4500009 19.72,14 L17.64,14 C16.7957828,16.3968051 14.5311362,18.0000947 11.99,18 C8.68,18 5.99,15.3100009 5.99,12 C5.99,8.69000089 8.68,6 11.99,6 C13.65,6 15.13,6.69000089 16.21,7.78000089 L12.99,11 L19.99,11 L19.99,4 L17.64,6.35000089 Z"/>
</svg>
