<svg xmlns="http://www.w3.org/2000/svg" width="24" height="24" viewBox="0 0 24 24">
  <path fill="#FFF" d="M23.2366594,-0.000101078345 C23.4325658,-0.00383771696 23.6233553,0.0747441404 23.7626096,0.214181287 C23.8740132,0.325584814 23.9456506,0.469269013 23.9685711,0.623058476 L23.9762426,0.755000865 L23.9762426,0.755000865 L23.9671427,1.01597076 L23.9671427,1.01597076 L23.942378,1.43014945 L23.942378,1.43014945 L23.9212224,1.69930848 L23.9212224,1.69930848 L23.8755103,2.17409082 L23.8755103,2.17409082 L23.8341546,2.53458209 L23.8341546,2.53458209 L23.7531225,3.13545727 L23.7531225,3.13545727 L23.6460793,3.80151886 L23.6460793,3.80151886 L23.5584815,4.27789707 L23.5584815,4.27789707 L23.4566459,4.77743073 C23.4384273,4.86248672 23.4195709,4.94841057 23.4000542,5.03515383 L23.2748538,5.56505848 L23.2748538,5.56505848 C22.6551535,8.0674342 21.345943,11.6209796 18.6268275,14.3399123 C18.3108553,14.6558845 17.9830044,14.9523026 17.6474781,15.2313596 C17.9466374,17.436038 17.3273026,19.5546418 15.8280336,21.4115497 C15.4702047,21.8547295 15.0976614,22.2389661 14.7453417,22.5632845 L14.4491209,22.8265752 C14.4008478,22.8680037 14.3531912,22.9082038 14.3062529,22.9471725 L14.0340576,23.1661859 L14.0340576,23.1661859 L13.7839909,23.3555106 L13.7839909,23.3555106 L13.560942,23.5150102 L13.560942,23.5150102 L13.2877223,23.698039 L13.2877223,23.698039 L13.0226608,23.8600146 L13.0226608,23.8600146 C12.9117324,23.9221491 12.78856,23.9532164 12.6655702,23.9532164 C12.5451389,23.9532164 12.4248903,23.9236111 12.3159722,23.8640351 C12.1267492,23.7609649 11.9943199,23.5808271 11.9505625,23.3735678 L11.9362208,23.2679093 L11.6772661,19.1204313 L10.5409357,20.2569445 C10.4038742,20.3940058 10.218019,20.470943 10.0241228,20.470943 C9.86915205,20.470943 9.71921053,20.4217032 9.59525731,20.3318319 L9.50749268,20.2569445 L8.93293127,19.6823831 L8.90953946,19.7065058 C8.06848613,20.5476216 7.06960458,21.1104338 6.11231985,21.4870117 L5.70518313,21.6372685 C5.43623169,21.7301963 5.17300157,21.8089949 4.92014407,21.8758118 L4.54921871,21.9673193 L4.54921871,21.9673193 L4.19734078,22.0424647 C4.14047555,22.0537149 4.08454931,22.0643505 4.02963475,22.0744049 L3.71286885,22.128027 L3.71286885,22.128027 L3.4238716,22.1693135 L3.4238716,22.1693135 L3.05007296,22.2116367 L3.05007296,22.2116367 L2.75837648,22.2352639 L2.75837648,22.2352639 L2.46838451,22.2481725 C2.26535088,22.2481725 2.07949563,22.1712354 1.9424342,22.034174 C1.83103071,21.9227705 1.75927632,21.7790863 1.73634063,21.6252032 L1.72874903,21.4899655 L1.72874903,21.4899655 L1.74747729,21.1308479 L1.74747729,21.1308479 L1.76496955,20.9265333 L1.76496955,20.9265333 L1.79077059,20.6857283 L1.79077059,20.6857283 L1.82649081,20.4119212 L1.82649081,20.4119212 L1.87374064,20.1086005 L1.87374064,20.1086005 L1.93413048,19.7792544 C1.94537992,19.7223884 1.95724396,19.6645833 1.96975615,19.6059119 L2.05287553,19.2440685 C2.35765553,18.0071449 2.94853625,16.4818137 4.09391974,15.2494678 L4.29404239,15.0434942 L3.71966372,14.4691155 C3.58260234,14.3320541 3.50566522,14.1461988 3.50566522,13.9524854 C3.50566522,13.7973684 3.55490497,13.6473977 3.64477631,13.5234386 L3.71966372,13.4356725 L4.85599415,12.2993421 L0.708698854,12.0403874 C0.457785076,12.0246711 0.232638877,11.8813962 0.112390363,11.6608187 C0.00947683876,11.4715957 -0.00415097936,11.248538 0.071391832,11.0505686 L0.124559133,10.9398983 L0.124559133,10.9398983 L0.278493163,10.6888859 L0.278493163,10.6888859 L0.392994144,10.5155311 L0.392994144,10.5155311 L0.537532177,10.3078246 L0.537532177,10.3078246 L0.711969158,10.0706556 L0.711969158,10.0706556 L0.916166981,9.8089134 L0.916166981,9.8089134 L1.14998754,9.5274873 C1.19141852,9.47921425 1.23407803,9.43032475 1.27796319,9.38092067 L1.55595891,9.07913604 C1.84861638,8.77280614 2.18519006,8.45528508 2.56505848,8.14857455 C4.42178363,6.64930554 6.5405702,6.0301535 8.74524856,6.32931284 C9.02448833,5.99360379 9.3207237,5.66593567 9.63669591,5.34978068 C12.3556286,2.63084795 15.9093567,1.32145469 18.4115497,0.701754386 L18.6886442,0.634791813 L18.6886442,0.634791813 L19.2275429,0.513912928 L19.2275429,0.513912928 L19.7438934,0.409433592 C19.8279287,0.393320634 19.9109164,0.377841217 19.9928025,0.362970455 L20.4704676,0.280850644 C20.5477311,0.268314953 20.623785,0.256338144 20.6985751,0.24489533 L21.1317191,0.182447288 L21.1317191,0.182447288 L21.5319404,0.13162056 L21.5319404,0.13162056 L22.0648687,0.0745573353 L22.0648687,0.0745573353 L22.5091317,0.0369226765 L22.5091317,0.0369226765 L22.9484293,0.00999708676 L22.9484293,0.00999708676 L23.2366594,-0.000101078345 Z M16.2616959,16.2587719 C15.3597535,16.8551065 14.4296157,17.3442982 13.5204231,17.7451058 L13.0677997,17.938231 L13.313231,21.8704313 C13.7410453,21.5210161 14.2489035,21.0471491 14.720212,20.4572369 C15.7604167,19.1546053 16.2755848,17.7479898 16.2616959,16.2587719 Z M7.8998538,18.6494883 L5.32730264,16.0767544 L5.30336257,16.1005117 C3.88322367,17.5208333 3.41611841,19.5836988 3.26334063,20.7134503 C4.3360837,20.5683114 6.25178684,20.1396569 7.65858024,18.8792493 L7.87627925,18.6732456 L7.8998538,18.6494883 Z M6.51790933,12.7043129 L5.26973684,13.9524854 L10.0241228,18.7068713 L11.2722953,17.4586989 L6.51790933,12.7043129 Z M17.376462,2.51169591 C15.247807,3.1878655 12.691155,4.36220763 10.6701389,6.38322367 C9.26099103,7.79237154 8.25507498,9.46104379 7.53694538,11.1146002 L7.37627925,11.4957968 L12.4806287,16.6001462 C14.212171,15.8890716 16.0575658,14.842288 17.5933845,13.3064693 C19.5022945,11.3977319 20.6556662,9.01122042 21.3475465,6.95887367 L21.4649123,6.60032894 L17.376462,2.51169591 Z M15.3731725,5.6597222 C16.1593567,5.6597222 16.8987573,5.96582601 17.4546784,6.52192982 C18.0107822,7.07785085 18.316886,7.81725146 18.316886,8.60361843 C18.316886,9.38980262 18.0107822,10.1292032 17.4546784,10.6851243 C16.8985745,11.2412281 16.1593567,11.5475146 15.3731725,11.5475146 C14.5868056,11.5475146 13.847405,11.2412281 13.2914839,10.6851243 C12.1436403,9.5372807 12.1436403,7.66977338 13.2914839,6.52192982 C13.847405,5.96582601 14.5868056,5.6597222 15.3731725,5.6597222 Z M7.71783626,7.71491228 C6.22880117,7.70120613 4.82218568,8.21637427 3.51937132,9.25657895 C3.01373226,9.66040102 2.59348522,10.0912102 2.26369391,10.475468 L2.10635967,10.6633772 L6.03837717,10.9088085 C6.47203949,9.85782166 7.02211256,8.76717839 7.71783626,7.71491228 Z M15.3731725,7.12116229 C14.9771564,7.12116229 14.6048977,7.27540206 14.3247441,7.55537282 C13.7468933,8.13340641 13.7468933,9.07383041 14.3247441,9.65186405 C14.6048977,9.93183481 14.9771564,10.0858918 15.3731725,10.0858918 C15.7690058,10.0858918 16.1412646,9.93183481 16.4212354,9.65168131 C16.7012061,9.3717105 16.8554459,8.99963453 16.8554459,8.60361843 C16.8554459,8.20760234 16.7012061,7.83534358 16.4212354,7.55537282 C16.1412646,7.27540206 15.7690058,7.12116229 15.3731725,7.12116229 Z M22.4366614,1.86585299 L22.469481,1.5071272 L22.469481,1.5071272 L22.1108223,1.53994681 L22.1108223,1.53994681 L21.6960764,1.58540643 L21.6960764,1.58540643 L21.2302461,1.64553922 C21.1486286,1.65689707 21.0650911,1.66895102 20.9797378,1.68174342 L20.4466615,1.7676981 C20.0778624,1.83136065 19.6833453,1.90819389 19.2697809,2.00090866 L18.9561404,2.07346489 L21.9031433,5.02046784 C22.0039683,4.59784878 22.088234,4.19259457 22.1586513,3.81137579 L22.2542299,3.25840802 L22.2542299,3.25840802 L22.331069,2.74649634 L22.331069,2.74649634 L22.3912018,2.28064368 L22.3912018,2.28064368 L22.4366614,1.86585299 L22.4366614,1.86585299 Z"/>
</svg>
