<svg xmlns="http://www.w3.org/2000/svg" width="24" height="24" viewBox="0 0 24 24">
  <path fill="#FFF" d="M21.7337142,20.4481281 L15.5350804,14.2494552 C16.5476196,12.9612128 17.152151,11.3379313 17.152151,9.57613408 C17.15219,5.39863338 13.7535957,2 9.57605596,2 C5.39859432,2 2,5.39863338 2,9.57613408 C2,13.7535957 5.39859432,17.152151 9.57605596,17.152151 C11.3378922,17.152151 12.9612128,16.5476196 14.2494552,15.5351195 L20.44805,21.7337142 C20.62555,21.9112143 20.8582453,22 21.0909016,22 C21.3235579,22 21.5562533,21.9112143 21.7336752,21.7337142 C22.0887924,21.3787532 22.0887924,20.8030891 21.7337142,20.4481281 Z M9.57605596,15.3339475 C6.40113355,15.3339475 3.81816437,12.7510565 3.81816437,9.57613408 C3.81816437,6.40117261 6.40113355,3.81820343 9.57605596,3.81820343 C12.7510174,3.81820343 15.3339866,6.40117261 15.3339866,9.57613408 C15.3339866,12.7510565 12.7510174,15.3339475 9.57605596,15.3339475 Z"/>
</svg>
