<svg xmlns="http://www.w3.org/2000/svg" width="24" height="24" viewBox="0 0 24 24">
  <path fill="#FFF" d="M11.9701172,3.02988281 C12.3834844,3.02988281 12.7176094,3.36407812 12.7176094,3.77744531 C12.7176094,4.15636523 12.4368516,4.46869971 12.0716606,4.51812406 L11.9701172,4.5249375 L5.24251172,4.5249375 C4.86430078,4.5249375 4.55137549,4.80631567 4.50184774,5.17104136 L4.49501953,5.27242969 L4.49501953,18.7276055 C4.49501953,19.1058164 4.77639771,19.4187417 5.14112339,19.4682694 L5.24251172,19.4750977 L11.9701172,19.4750977 C12.3834844,19.4750977 12.7176094,19.8092227 12.7176094,20.2225898 C12.7176094,20.6015098 12.4368516,20.9138442 12.0716606,20.9632686 L11.9701172,20.970082 L5.24251172,20.970082 C4.05765234,20.970082 3.08424445,20.0460433 3.00518417,18.8808619 L3,18.7275703 L3,5.27242969 C3,4.08757031 3.92403876,3.11413013 5.08922013,3.03506716 L5.24251172,3.02988281 L11.9701172,3.02988281 Z M15.175418,6.99019922 C15.4390898,6.72313956 15.8547181,6.69575255 16.1482635,6.91089084 L16.2323906,6.98271094 L20.77725,11.4677695 C20.9200195,11.6090625 21,11.7996797 21,11.9999297 C21,12.1601859 20.94834,12.3147272 20.854956,12.4420794 L20.77725,12.5321602 L16.2323906,17.0172188 C16.0873711,17.1607617 15.8975273,17.2325156 15.7076484,17.2325156 C15.5147812,17.2325156 15.3219141,17.1577734 15.175418,17.0097656 C14.9124492,16.742706 14.8904025,16.3273799 15.1098324,16.0361625 L15.1829062,15.952793 L18.4308164,12.7474922 L9.72757031,12.7474922 C9.31420312,12.7474922 8.98007812,12.413332 8.98007812,11.9999648 C8.98007812,11.6210449 9.26083594,11.3087104 9.6260269,11.2592861 L9.72757031,11.2524727 L18.4308164,11.2524727 L15.1829062,8.04717188 C14.8883672,7.75713281 14.8853789,7.28396484 15.175418,6.99019922 Z"/>
</svg>
