<svg xmlns="http://www.w3.org/2000/svg" width="24" height="24" viewBox="0 0 24 24">
  <path fill="#FFF" d="M20.144375,10.4055428 L20.144375,5.11523303 C20.144375,3.94890389 19.3455078,3 18.3635937,3 L5.63640625,3 C4.65449219,3 3.855625,3.94890389 3.855625,5.11523303 L3.855625,10.4055428 C2.78703125,10.7569216 2,11.921534 2,13.3010661 L2,17.3207419 C2,17.7102143 2.26585937,18.0260052 2.59375,18.0260052 L3.855625,18.0260052 L3.855625,19.2947367 C3.855625,19.6842091 4.12148437,20 4.449375,20 C4.77726563,20 5.043125,19.6842091 5.043125,19.2947367 L5.043125,18.0260052 L18.956875,18.0260052 L18.956875,19.2947367 C18.956875,19.6842091 19.2227344,20 19.550625,20 C19.8785156,20 20.144375,19.6842091 20.144375,19.2947367 L20.144375,18.0260052 L21.40625,18.0260052 C21.7341406,18.0260052 22,17.7102143 22,17.3207419 L22,13.3010661 C22,11.921534 21.2129297,10.7569216 20.144375,10.4055428 Z M5.043125,5.11523303 C5.043125,4.72668865 5.30929688,4.41052655 5.63640625,4.41052655 L18.3636328,4.41052655 C18.6907422,4.41052655 18.9569141,4.72668865 18.9569141,5.11523303 L18.9569141,10.2964125 L17.5657031,10.2964125 L17.5657031,8.88073572 C17.5657031,7.64972652 16.7225781,6.64825267 15.6862109,6.64825267 L13.2857812,6.64825267 C12.78875,6.64825267 12.3364844,6.8789944 12.0000391,7.25459349 C11.6635937,6.8790408 11.2113281,6.64825267 10.7142969,6.64825267 L8.31386719,6.64825267 C7.2775,6.64825267 6.434375,7.64977292 6.434375,8.88073572 L6.434375,10.2964125 L5.043125,10.2964125 L5.043125,5.11523303 Z M16.3782031,8.88073572 L16.3782031,10.2964125 L12.59375,10.2964125 L12.59375,8.88073572 C12.59375,8.42746487 12.9042188,8.05877922 13.2857422,8.05877922 L15.6861719,8.05877922 C16.0677734,8.05877922 16.3782031,8.42751127 16.3782031,8.88073572 Z M11.4062109,8.88073572 L11.4062109,10.2964125 L7.62175781,10.2964125 L7.62175781,8.88073572 C7.62175781,8.42746487 7.93222656,8.05877922 8.31375,8.05877922 L10.7141797,8.05877922 C11.0957813,8.05877922 11.4062109,8.42751127 11.4062109,8.88073572 Z M20.8125,16.6154787 L3.1875,16.6154787 L3.1875,13.3010661 C3.1875,12.4220853 3.78953125,11.7069391 4.52957031,11.7069391 L19.4704297,11.7069391 C20.2104297,11.7069391 20.8125,12.4220389 20.8125,13.3010661 L20.8125,16.6154787 Z"/>
</svg>
