<svg xmlns="http://www.w3.org/2000/svg" width="24" height="24" viewBox="0 0 24 24">
  <path fill="#FFF" fill-rule="evenodd" d="M11.999,2.999 C17.526,2.999 22.001,7.478 22.001,13 C22.001,17.307 18.929,23 11.999,23 C5.085,23 1.998,17.316 1.998,13 C1.998,7.478 6.476,2.999 11.999,2.999 Z M11.999,4.999 C7.588,4.999 3.998,8.587 3.998,13 C3.998,17.41 7.588,21 11.999,21 C16.411,21 20.001,17.41 20.001,13 C20.001,8.587 16.411,4.999 11.999,4.999 Z M12,16 C12.5522847,16 13,16.4477153 13,17 C13,17.5522847 12.5522847,18 12,18 C11.4477153,18 11,17.5522847 11,17 C11,16.4477153 11.4477153,16 12,16 Z M12,8 C12.5522847,8 13,8.44771525 13,9 L13,14 C13,14.5522847 12.5522847,15 12,15 C11.4477153,15 11,14.5522847 11,14 L11,9 C11,8.44771525 11.4477153,8 12,8 Z M4.991,1.002 C5.939,1.002 6.887,1.27 7.712,1.805 C4.54,3.022 2.02,5.544 0.802,8.715 C0.267,7.891 -3.55271368e-15,6.943 -3.55271368e-15,5.997 C-3.55271368e-15,3.24 2.233,1.002 4.991,1.002 Z M19.003,1 C21.763,1 23.999,3.234 23.999,5.995 C23.999,6.942 23.732,7.889 23.198,8.712 C21.978,5.542 19.454,3.021 16.284,1.803 C17.108,1.268 18.056,1 19.003,1 Z"/>
</svg>
