<svg xmlns="http://www.w3.org/2000/svg" width="24" height="24" viewBox="0 0 24 24">
  <g fill="none" fill-rule="evenodd">
    <path data-transparent="true" fill="#000" d="M12,2 C6.48,2 2,6.48 2,12 C2,17.52 6.48,22 12,22 C17.52,22 22,17.52 22,12 C22,6.48 17.52,2 12,2 Z" opacity=".405"/>
    <path fill="#FFF" d="M8.75,16 L11,16 L11,8 L8.75,8 L8.75,16 Z M13,8 L13,16 L15.25,16 L15.25,8 L13,8 Z M12,2 C6.48,2 2,6.48 2,12 C2,17.52 6.48,22 12,22 C17.52,22 22,17.52 22,12 C22,6.48 17.52,2 12,2 Z M12,20.25 C7.4521875,20.25 3.75,16.5478125 3.75,12 C3.75,7.4521875 7.4521875,3.75 12,3.75 C16.5478125,3.75 20.25,7.4521875 20.25,12 C20.25,16.5478125 16.5478125,20.25 12,20.25 Z"/>
  </g>
</svg>
