<svg xmlns="http://www.w3.org/2000/svg" width="24" height="24" viewBox="0 0 24 24">
  <path fill="#FFF" d="M21.8901562,3.99976563 C23.0027405,3.99976563 23.9168413,4.86553606 23.9942251,5.9587204 L23.9995312,6.10914063 L23.9995312,18.7653906 C23.9995312,19.8779749 23.1338037,20.7920756 22.0405821,20.8694595 L21.8901562,20.8747656 L2.109375,20.8747656 C0.996835598,20.8747656 0.08269388,20.0090381 0.00530639485,18.9158164 L-4.07496259e-12,18.7653906 L-4.07496259e-12,6.10914063 C-4.07496259e-12,4.99660122 0.86577044,4.0824595 1.95895477,4.00507202 L2.109375,3.99976563 L21.8901562,3.99976563 Z M22.5932812,9.15601563 L1.40625,9.15601563 L1.40625,18.7653906 C1.40625,19.1208281 1.67129199,19.4154505 2.01409578,19.4620859 L2.109375,19.4685156 L21.8901562,19.4685156 C22.2455508,19.4685156 22.540209,19.203513 22.5868507,18.8606797 L22.5932812,18.7653906 L22.5932812,9.15601563 Z M20.277375,16.641625 C20.6656875,16.641625 20.9805,16.9563906 20.9805,17.34475 C20.9805,17.7007031 20.7159701,17.9948958 20.3727822,18.0414561 L20.277375,18.047875 L19.2350156,18.047875 C18.8467031,18.047875 18.5318906,17.7330625 18.5318906,17.34475 C18.5318906,16.9887969 18.7964206,16.6946042 19.1396084,16.6480439 L19.2350156,16.641625 L20.277375,16.641625 Z M9.29596875,11.045125 C9.6789375,11.045125 10.1866406,11.2855938 10.1866406,11.615125 L10.1810566,11.660752 L10.1810566,11.660752 L10.1688281,11.7130938 L8.51221875,17.1459531 C8.41425,17.4577188 8.01346875,17.6090781 7.60378125,17.6090781 C7.2350625,17.6090781 6.87355781,17.4864391 6.73352484,17.2346683 L6.69534375,17.1459531 L5.02982812,11.7130938 C5.02092187,11.6774688 5.01201562,11.6417969 5.01201562,11.615125 C5.01201562,11.2855938 5.51967187,11.045125 5.90264062,11.045125 C6.09352902,11.045125 6.2516317,11.0974719 6.32655981,11.2302088 L6.35685937,11.3034063 L7.60378125,15.8724063 L8.84175,11.3034063 C8.8951875,11.116375 9.0733125,11.045125 9.29596875,11.045125 Z M12.065625,11.045125 C12.3782344,11.045125 12.6908817,11.1461219 12.7502509,11.3805447 L12.7603125,11.4636719 L12.7603125,17.1281875 C12.7603125,17.4131875 12.4129688,17.5556875 12.065625,17.5556875 C11.7530156,17.5556875 11.4404063,17.4402625 11.3810105,17.2094125 L11.3709375,17.1281875 L11.3709375,11.4637187 C11.3709375,11.1698125 11.7182813,11.045125 12.065625,11.045125 Z M16.7503125,11.045125 C17.8769531,11.045125 18.7745671,11.5522555 18.8474122,12.9114199 L18.8521875,13.1381406 C18.8521875,14.5720918 17.9688419,15.1553293 16.8134463,15.201443 L16.66125,15.2044375 L15.7794844,15.2044375 L15.7794844,17.1281875 C15.7794844,17.4131875 15.4321406,17.5556875 15.0847969,17.5556875 C14.7721875,17.5556875 14.4595781,17.4402625 14.4001823,17.2094125 L14.3901094,17.1281875 L14.3901094,11.4637187 C14.3901094,11.2658021 14.5519983,11.0889965 14.8069036,11.0521498 L14.9067187,11.045125 L16.7503125,11.045125 Z M16.6612031,12.256375 L15.7794375,12.256375 L15.7794375,14.1356406 L16.6612031,14.1356406 C17.121631,14.1356406 17.4150263,13.8928004 17.4574397,13.3790999 L17.4627656,13.2450156 L17.4627656,13.1470469 C17.4627656,12.5879651 17.2047878,12.3021186 16.7727817,12.2614504 L16.6612031,12.256375 Z M21.8901562,5.40601563 L2.109375,5.40601563 C1.75398047,5.40601563 1.45932227,5.67105762 1.41268058,6.01386141 L1.40625,6.10914063 L1.40625,7.74976563 L22.5932812,7.74976563 L22.5932812,6.10914063 C22.5932812,5.75374609 22.3282393,5.45908789 21.9854355,5.41244621 L21.8901562,5.40601563 Z"/>
</svg>
