<svg xmlns="http://www.w3.org/2000/svg" width="400" height="400" viewBox="0 0 400 400">
  <path fill-rule="evenodd" d="M200.755485,93.238498 C224.001519,92.5359246 238.001614,92.5359246 253.701807,105.769299 C257.816961,109.570961 261.221389,114.082375 263.749618,119.088713 L263.749618,119.088713 L290.838561,173.399727 L353.355261,173.399727 C379.117697,173.399727 400,194.333343 400,220.159084 L400,220.159084 L400,266.92116 C400,270.60861 397.018751,273.599903 393.337628,273.599903 L393.337628,273.599903 L372.748296,273.599903 C369.924384,290.427289 356.773253,303.610736 339.987115,306.438868 C318.23675,310.107281 297.639279,295.403714 293.982571,273.599903 L293.982571,273.599903 L106.199179,273.599903 C103.375267,290.427289 90.2241361,303.610736 73.4407105,306.438868 C51.6903464,310.107281 31.0928761,295.403714 27.4334541,273.599903 L27.4334541,273.599903 L6.66237157,273.599903 C2.98396121,273.599903 0,270.60861 0,266.92116 L0,266.92116 L0,240.200751 C0.0352649614,239.896183 0.0976569122,239.594334 0.179037325,239.297924 L0.179037325,239.297924 L0.179037325,206.798879 C0.214302842,192.089872 7.12081634,178.245623 18.8369333,169.391394 L18.8369333,169.391394 L27.9868433,162.511418 L43.7530092,122.289397 C50.9009528,104.695152 67.9773492,93.2031466 86.9282152,93.238498 L86.9282152,93.238498 Z M66.816317,240.200751 C59.432369,240.369351 52.4146346,243.477577 47.3201994,248.837432 C46.5497948,249.658677 45.8309316,250.528872 45.1744598,251.442576 C44.8733515,251.855918 44.6075074,252.291016 44.3280999,252.717955 C41.5882813,257.022698 40.1424167,262.026316 40.1638774,267.133271 C40.2210846,281.831399 52.1542162,293.698677 66.816317,293.641775 C81.538096,293.641775 93.4712283,281.676395 93.4712283,266.92116 C93.4712283,252.163206 81.538096,240.200751 66.816317,240.200751 Z M333.365434,240.200751 C318.643654,240.200751 306.710522,252.163206 306.710522,266.92116 C306.710522,281.676395 318.643654,293.641928 333.365434,293.641928 C335.451494,293.652448 337.532128,293.415864 339.563935,292.939976 C353.805567,289.589727 362.643518,275.299502 359.301482,261.022874 C359.187548,260.514354 358.981384,260.033027 358.840324,259.532666 C358.455122,258.140354 357.955986,256.780675 357.348343,255.472665 C357.169305,255.02397 356.914313,254.610628 356.681022,254.17553 C355.929605,252.785938 355.053406,251.46705 354.063273,250.235181 C353.876098,250.025791 353.688922,249.791926 353.490896,249.566219 C352.205079,248.078731 350.76464,246.735367 349.191278,245.557886 L349.191278,245.557886 L349.123461,245.489902 C344.579702,242.068949 339.051236,240.214348 333.365434,240.200751 Z M66.816317,253.560956 C74.1785627,253.560956 80.1437726,259.540824 80.1437726,266.92116 C80.1437726,274.298778 74.1785627,280.281365 66.816317,280.281365 C59.4567837,280.281365 53.4888613,274.298778 53.4888613,266.92116 C53.4888613,259.540824 59.4567837,253.560956 66.816317,253.560956 Z M333.365434,253.560956 C340.724967,253.560956 346.692889,259.540824 346.692889,266.92116 C346.692889,274.298778 340.724967,280.281365 333.365434,280.281365 C326.0059,280.281365 320.037977,274.298778 320.037977,266.92116 C320.037977,259.540824 326.0059,253.560956 333.365434,253.560956 Z M32.0396055,246.879494 L13.5064937,246.879494 L13.5064937,260.239699 L27.2083012,260.239699 C27.9949815,255.529771 29.630735,251.00204 32.0396055,246.879494 L32.0396055,246.879494 Z M298.767759,246.879494 L101.416703,246.879494 C101.495372,247.012742 101.563189,247.154149 101.641857,247.292836 C102.640127,249.079454 103.50005,250.939495 104.208064,252.859361 C104.332847,253.172087 104.454918,253.506569 104.566139,253.84105 C105.244312,255.788109 105.770574,257.786837 106.134075,259.818198 C106.158489,259.965043 106.245295,260.092853 106.245295,260.239699 L106.245295,260.239699 L293.936455,260.239699 C293.963582,260.092853 294.050388,259.965043 294.050388,259.818198 C294.413889,257.786837 294.937438,255.788109 295.615612,253.84105 C295.729544,253.525604 295.848903,253.185684 295.976399,252.859361 C296.684412,250.939495 297.541623,249.079454 298.539893,247.292836 C298.621274,247.154149 298.713506,247.012742 298.767759,246.879494 L298.767759,246.879494 Z M386.675257,246.901249 L367.97667,246.901249 C368.058051,247.034497 368.123156,247.173184 368.204537,247.314591 C369.202808,249.09849 370.060018,250.95853 370.768031,252.878397 C370.82771,253.038839 370.922654,253.180246 370.982334,253.337968 C371.042013,253.49841 371.061002,253.680608 371.115256,253.84105 C371.788003,255.782671 372.311553,257.77596 372.680479,259.799162 C372.707605,259.946008 372.794411,260.087415 372.794411,260.239699 L372.794411,260.239699 L386.675257,260.239699 L386.675257,246.901249 Z M123.557696,173.3996 L35.7180158,173.3996 L26.8339493,180.078469 C18.4652947,186.403696 13.5336202,196.294 13.5064937,206.798879 L13.5064937,206.798879 L13.5064937,233.519289 L44.7458548,233.519289 C45.158184,233.244634 45.586789,233.010768 46.0045439,232.75243 L46.0045439,232.75243 L46.8726054,232.224874 C48.619579,231.215993 50.4397948,230.340359 52.3169784,229.606133 L52.3169784,229.606133 L53.3016851,229.23902 C55.2548233,228.529267 57.2622154,227.971799 59.2994473,227.574773 C59.5652914,227.520386 59.8338474,227.493192 60.0996916,227.446963 C64.5376557,226.636594 69.0841275,226.636594 73.5193791,227.446963 C73.7879351,227.493192 74.0537793,227.520386 74.3196227,227.574773 C76.3595671,227.971799 78.3642467,228.529267 80.3173849,229.23902 L80.3173849,229.23902 L81.3048048,229.606133 C83.1819877,230.340359 84.9994917,231.215993 86.7491779,232.224874 L86.7491779,232.224874 L87.6145261,232.75243 C88.0349935,233.010768 88.460886,233.244634 88.8732152,233.519289 L88.8732152,233.519289 L311.294971,233.519289 C311.707301,233.244634 312.133193,233.010768 312.55366,232.75243 L312.55366,232.75243 L313.421722,232.224874 C315.168696,231.215993 316.988912,230.340359 318.866094,229.606133 L318.866094,229.606133 L319.850802,229.23902 C321.80394,228.529267 323.808619,227.971799 325.848564,227.574773 C326.114407,227.520386 326.382964,227.493192 326.648808,227.446963 C331.086772,226.636594 335.630532,226.636594 340.068495,227.446963 C340.334339,227.493192 340.602896,227.520386 340.868739,227.574773 C342.908684,227.971799 344.913363,228.529267 346.866501,229.23902 L346.866501,229.23902 L347.851209,229.606133 C349.731104,230.340359 351.548608,231.215993 353.295582,232.224874 L353.295582,232.224874 L354.163643,232.75243 C354.581398,233.010768 355.010003,233.244634 355.422332,233.519289 L355.422332,233.519289 L386.675257,233.519289 L386.675257,220.161803 C386.661693,212.93647 384.326065,205.90693 380.012885,200.120137 C373.703163,191.730918 363.837103,186.787125 353.357973,186.759931 L353.357973,186.759931 L153.446136,186.759931 C151.677461,186.759931 149.984741,186.055618 148.73419,184.801994 L148.73419,184.801994 L147.114713,183.178537 C140.880947,176.896821 132.398359,173.375253 123.557696,173.3996 L123.557696,173.3996 Z M327.365393,200.120137 C330.679124,200.120137 333.365434,202.813047 333.365434,206.134921 L333.365434,207.465557 C333.365434,210.787431 330.679124,213.480341 327.365393,213.480341 L319.372934,213.480341 C316.059203,213.480341 313.372893,210.787431 313.372893,207.465557 L313.372893,206.134921 C313.372893,202.813047 316.059203,200.120137 319.372934,200.120137 L327.365393,200.120137 Z M220.745746,200.120137 C224.059477,200.120137 226.745787,202.813047 226.745787,206.134921 L226.745787,207.465557 C226.745787,210.787431 224.059477,213.480341 220.745746,213.480341 L206.090916,213.480341 C202.777185,213.480341 200.090875,210.787431 200.090875,207.465557 L200.090875,206.134921 C200.090875,202.813047 202.777185,200.120137 206.090916,200.120137 L220.745746,200.120137 Z M180.763379,200.120137 C184.07711,200.120137 186.763419,202.813047 186.763419,206.134921 L186.763419,207.465557 C186.763419,210.787431 184.07711,213.480341 180.763379,213.480341 L166.108549,213.480341 C162.794818,213.480341 160.108508,210.787431 160.108508,207.465557 L160.108508,206.134921 C160.108508,202.813047 162.794818,200.120137 166.108549,200.120137 L180.763379,200.120137 Z M255.945204,133.319113 L200.090875,133.319113 L200.090875,173.399727 L275.937743,173.399727 L255.945204,133.319113 Z M186.763419,133.319113 L113.463769,133.319113 L113.463769,160.039522 L123.55227,160.039522 C135.767522,160.00417 147.502628,164.806556 156.204944,173.399727 L156.204944,173.399727 L186.763419,173.399727 L186.763419,133.319113 Z M100.136312,133.319113 L53.7492798,133.319113 L43.2728629,160.039522 L100.136312,160.039522 L100.136312,133.319113 Z M222.028415,106.598648 L86.9282152,106.598648 C76.4626498,106.593264 66.6101524,111.547934 60.3519718,119.958907 L60.3519718,119.958907 L248.610084,119.958907 C242.360042,111.534337 232.499406,106.579667 222.028415,106.598648 L222.028415,106.598648 Z"/>
</svg>
