<svg xmlns="http://www.w3.org/2000/svg" width="400" height="400" viewBox="0 0 400 400">
  <g fill="none" fill-rule="evenodd">
    <path fill="#037092" d="M116.45622,247.480434 C135.597063,249.871916 154.014544,258.048483 168.947332,271.665378 L169.576214,272.243977 L249.733016,272.243977 C259.891934,272.243977 269.403837,277.220946 275.187818,285.575202 C280.424825,293.135604 282.004166,302.582787 279.606014,311.36334 L279.471259,311.841603 L354.352682,276.369321 C364.375886,271.593742 376.14943,272.310492 385.516013,278.270108 C395.077898,284.323155 400.788164,294.937517 400.565949,306.256718 C400.343518,317.410508 394.392048,327.657153 384.838111,333.380359 L384.420459,333.626332 L298.078745,383.611444 C278.938908,394.686119 257.258045,400.593778 235.156781,400.76913 L234.18146,400.773146 L-1,400.773146 L-1,385.455165 L52.2769332,385.455165 L52.2769332,274.243977 L-1,274.243977 L-1,258.924326 L57.950677,258.924326 L58.525142,258.602789 C76.6318842,248.624933 96.9207982,245.039654 116.45622,247.480434 Z M116.212455,263.902358 C100.280964,261.542406 83.6303214,264.035161 68.5965839,271.725955 L68.5965839,271.725955 L68.5965839,384.455165 L234.18146,384.455165 C253.749405,384.448605 272.968743,379.286323 289.903729,369.484792 L289.903729,369.484792 L376.224448,319.473529 C379.954876,317.319785 382.501154,313.887717 383.615533,310.04101 C384.729932,306.194234 384.412401,301.932737 382.412275,298.121736 C380.410306,294.309981 377.082344,291.628232 373.282896,290.361482 C369.483211,289.094653 365.211999,289.243001 361.323764,291.091007 L361.323764,291.091007 L270.08556,334.319561 C268.938782,334.870389 267.675691,335.166555 266.38903,335.179901 L266.38903,335.179901 L166.486451,335.179901 C164.095894,335.179901 161.930574,334.210357 160.363154,332.642151 C158.796743,331.074954 157.827461,328.909911 157.827461,326.517571 C157.827461,324.126781 158.796897,321.962169 160.363876,320.39519 C161.931195,318.827871 164.096236,317.858581 166.486451,317.858581 L166.486451,317.858581 L249.733016,317.858581 C253.777273,317.858581 257.437916,316.218843 260.087779,313.568715 C262.73859,310.917638 264.377988,307.255445 264.377988,303.211939 C264.377988,299.165889 262.73915,295.503158 260.088825,292.852035 C257.438879,290.201293 253.777778,288.561958 249.733016,288.561958 L249.733016,288.561958 L166.486451,288.561958 C164.193504,288.561958 161.993108,287.649943 160.365871,286.029216 C148.072888,273.817629 132.519402,266.317926 116.212455,263.902358 Z M199.786412,53.4805923 C251.275484,53.4805923 293.018959,95.2223974 293.018959,146.71147 C293.018959,198.202211 251.275484,239.944016 199.786412,239.944016 C148.315704,239.890597 106.607285,198.182178 106.550528,146.71147 C106.550528,95.2223974 148.292333,53.4805923 199.786412,53.4805923 Z M199.786412,68.7985738 C178.281262,68.8213584 158.814459,77.546767 144.718295,91.6426364 C130.621194,105.739443 121.895447,125.207405 121.871846,146.713664 C121.871846,168.227611 130.592545,187.706093 144.69207,201.805618 C158.791862,215.90541 178.270675,224.626035 199.786412,224.626035 C221.300932,224.626035 240.780064,215.905057 254.880324,201.804797 C268.97978,187.705341 277.700977,168.227202 277.700977,146.71147 C277.700977,125.197085 268.979528,105.719138 254.879745,91.6196492 C240.779531,77.5197297 221.30064,68.7985738 199.786412,68.7985738 Z"/>
    <path fill="#5CD999" d="M332.974572,166.700127 C336.224774,166.700127 339.000883,169.050555 339.54008,172.254015 C341.352981,183.101376 349.854921,191.608324 360.70562,193.421226 C363.907411,193.962091 366.252832,196.736531 366.252832,199.988402 C366.252832,203.236935 363.907411,206.009706 360.70562,206.55558 C349.854921,208.366812 341.352981,216.870421 339.54008,227.724459 C339.000883,230.927919 336.224774,233.27167 332.974572,233.27167 C329.72604,233.27167 326.94993,230.927919 326.407395,227.724459 C324.597832,216.870421 316.095892,208.366812 305.243523,206.55558 C302.043402,206.009706 299.696312,203.236935 299.696312,199.988402 C299.696312,196.736531 302.043402,193.962091 305.243523,193.421226 C316.095892,191.608324 324.597832,183.101376 326.407395,172.254015 C326.94993,169.050555 329.72604,166.700127 332.974572,166.700127 Z M200,96 C228.718807,96 252,119.281193 252,148 C252,176.718807 228.718807,200 200,200 C171.281193,200 148,176.718807 148,148 C148,119.281193 171.281193,96 200,96 Z M93.2325461,0.213675307 C96.4827479,0.213675307 99.2588577,2.56243446 99.7963848,5.76255595 C101.610955,16.6149244 110.114565,25.1218726 120.963595,26.933105 C124.165386,27.4756398 126.510806,30.2500799 126.510806,33.501951 C126.510806,36.7504837 124.165386,39.5249238 120.963595,40.0691283 C110.114565,41.8803603 101.610955,50.3823003 99.7963848,61.2380077 C99.2588577,64.441468 96.4827479,66.7852191 93.2325461,66.7852191 C89.9856831,66.7852191 87.2079041,64.441468 86.6670385,61.2380077 C84.8574757,50.3823003 76.3538664,41.8803603 65.501498,40.0691283 C62.2980376,39.5249238 59.9542866,36.7504837 59.9542866,33.501951 C59.9542866,30.2500799 62.2980376,27.4756398 65.501498,26.933105 C76.3538664,25.1218726 84.8574757,16.6149244 86.6670385,5.76255595 C87.2079041,2.56243446 89.9856831,0.213675307 93.2325461,0.213675307 Z"/>
  </g>
</svg>
