<svg xmlns="http://www.w3.org/2000/svg" width="400" height="400" viewBox="0 0 400 400">
  <g fill="none" fill-rule="evenodd">
    <path fill="#037092" d="M400,234.75 C400,322.287133 329.037133,393.25 241.5,393.25 C173.316874,393.25 115.189244,350.197306 92.818798,289.793607 L93.0856394,290.508789 L39.0625,290.506771 C34.7484375,290.506771 31.25,287.009115 31.25,282.694271 C31.25,278.462405 34.615176,275.016598 38.8145358,274.885632 L39.0625,274.881771 L88.125106,274.883035 L88.1731406,275.066663 C85.4490054,264.678368 83.7526514,253.873884 83.1993062,242.76844 C83.2339747,243.464259 83.2731549,244.159288 83.3167991,244.853106 L50,244.852865 C45.6859375,244.852865 42.1875,241.355208 42.1875,237.040365 C42.1875,232.808499 45.552676,229.362692 49.7520358,229.231726 L50,229.227865 L83.0944064,229.227541 L83.089799,229.363785 C83.4214689,219.431303 84.6670067,209.730344 86.7450077,200.342312 L87.0025498,199.198961 L7.8125,199.198961 C3.4984375,199.198961 1.80079951e-10,195.701302 1.80079951e-10,191.386458 C1.80079951e-10,187.154592 3.36517601,183.708786 7.56453577,183.57782 L7.8125,183.573958 L91.4442861,183.57183 L91.2044685,184.280694 C94.7165117,173.817684 99.2905313,163.842079 104.798454,154.481952 L105.354226,153.544865 L61.0679688,153.545833 C56.7539063,153.545833 53.2554688,150.048177 53.2554688,145.733333 C53.2554688,141.501467 56.6206448,138.055661 60.8200045,137.924695 L61.0679688,137.920833 L116.00772,137.918334 L116.415766,137.392558 C138.6362,108.884585 170.389312,88.1707669 206.885289,80.0409778 L207.53073,79.8986209 L207.532813,60.6716146 C195.974219,57.7950521 187.382031,47.3317708 187.382031,34.8958333 C187.382031,20.3954271 199.060535,8.57191896 213.505954,8.33333333 L213.944531,8.33333333 L270.194531,8.33333333 C284.841406,8.33333333 296.757031,20.2489583 296.757031,34.8958333 C296.757031,47.1973704 288.350615,57.5681375 276.981346,60.575157 L276.605469,60.6716146 L276.606987,80.1514642 C276.028477,80.0206497 275.448768,79.8929992 274.867878,79.7685317 C329.927948,91.5663816 374.379145,131.9615 391.919565,184.651741 L392.708,187.089333 L393.367471,189.233602 L393.051,188.190333 L393.151355,188.513613 C396.150945,198.339986 398.19773,208.480573 399.222656,218.789583 C399.606188,222.648174 399.845778,226.511899 399.943469,230.372316 L399.950327,230.75809 C399.919035,229.49085 399.872865,228.227301 399.811988,226.967609 L399.91528,229.518096 C399.971615,231.255144 400,232.999257 400,234.75 Z M241.5,90.25 C201.597427,90.25 165.472427,106.423713 139.32307,132.57307 C113.173713,158.722427 97,194.847427 97,234.75 C97,274.652573 113.173713,310.777573 139.32307,336.92693 C165.472427,363.076287 201.597427,379.25 241.5,379.25 C281.402573,379.25 317.527573,363.076287 343.67693,336.92693 C369.826287,310.777573 386,274.652573 386,234.75 C386,194.847427 369.826287,158.722427 343.67693,132.57307 C317.527573,106.423713 281.402573,90.25 241.5,90.25 Z M260.980469,61.4591146 L223.157813,61.4591146 L223.156978,77.2999833 L221.038904,77.5585066 C227.73716,76.6951847 234.566591,76.25 241.5,76.25 C248.416191,76.25 255.22892,76.6929763 261.911361,77.5521044 L260.982224,77.4354369 L260.980469,61.4591146 Z M270.194531,23.9591146 L213.944531,23.9591146 C207.913281,23.9591146 203.007031,28.8653646 203.007031,34.8966146 C203.007031,40.8313616 207.758763,45.6780528 213.658194,45.8304207 L213.944531,45.8341146 L270.194531,45.8341146 C276.225781,45.8341146 281.132031,40.9278646 281.132031,34.8966146 C281.132031,28.9610987 276.380299,24.115152 270.480868,23.9628079 L270.194531,23.9591146 Z"/>
    <path fill="#5CD999" d="M242.188281,340.05599 C183.976563,340.05599 136.61875,292.697396 136.61875,234.486458 C136.61875,176.275521 183.976563,128.916927 242.188281,128.916927 C300.4,128.916927 347.757813,176.275521 347.757813,234.486458 C347.757813,292.697396 300.4,340.05599 242.188281,340.05599 Z"/>
    <path fill="#037092" d="M291.607031,174.019271 L252.911719,212.713802 C249.675781,211.113802 246.035938,210.209896 242.188281,210.209896 C238.339844,210.209896 234.700781,211.113802 231.464844,212.713802 L214.146875,195.395833 C211.095313,192.345052 206.15,192.345052 203.097656,195.395833 C200.046875,198.446615 200.046875,203.39349 203.097656,206.444271 L220.415625,223.76224 C218.814844,226.998177 217.911719,230.638021 217.911719,234.485677 C217.911719,247.871615 228.801563,258.76224 242.188281,258.76224 C255.575,258.76224 266.464844,247.871615 266.464844,234.485677 C266.464844,230.638021 265.560938,226.998177 263.960938,223.76224 L301.520313,186.202865 L301.520313,186.202865 L302.655469,185.067708 C305.70625,182.016927 305.70625,177.070052 302.655469,174.019271 C299.604688,170.96849 294.659375,170.96849 291.607031,174.019271 Z M242.188281,243.138021 C237.417969,243.138021 233.536719,239.256771 233.536719,234.486458 C233.536719,229.716146 237.417969,225.834896 242.188281,225.834896 C246.958594,225.834896 250.839844,229.716146 250.839844,234.486458 C250.839844,239.256771 246.958594,243.138021 242.188281,243.138021 Z"/>
  </g>
</svg>
