<svg xmlns="http://www.w3.org/2000/svg" width="400" height="400" viewBox="0 0 400 400">
  <g fill="none" fill-rule="evenodd">
    <ellipse cx="229.155" cy="145.259" fill="#5CD999" rx="61.5" ry="137.447"/>
    <path fill="#037092" d="M230.202344,0 C198.342187,0 168.845312,10.3101562 144.872656,27.7695312 C140.991406,11.8507812 126.610156,0 109.510156,0 C101.922656,0 94.625,2.33828125 88.5164062,6.66015625 C85.4609375,5.80703125 82.3007812,5.37578125 79.0734375,5.37578125 C69.853125,5.37578125 61.14375,8.9234375 54.5484375,15.3640625 C49.496875,20.2976562 46.1132812,26.5101562 44.7085937,33.2851562 C32.3578125,37.1859375 23.6640625,48.65 23.6640625,62.1414062 C23.6640625,78.8351562 37.2453125,92.4164062 53.9390625,92.4164062 L94.890625,92.4164062 C88.4695313,108.800781 84.9421875,126.625781 84.9421875,145.259375 C84.9421875,203.338281 119.204688,253.564844 168.578906,276.789844 L175.144531,314.09375 L167.885156,314.09375 C165.515625,314.09375 163.274219,315.169531 161.790625,317.017969 C160.308594,318.866406 159.744531,321.288281 160.258594,323.601562 L175.883594,393.882812 C176.678906,397.457031 179.848437,400 183.510156,400 L276.89375,400 C280.555469,400 283.725,397.457031 284.520312,393.882812 L300.145312,323.601562 C300.659375,321.288281 300.096094,318.866406 298.613281,317.017969 C297.130469,315.169531 294.888281,314.09375 292.51875,314.09375 L285.259375,314.09375 L291.824219,276.790625 C341.198438,253.565625 375.460938,203.338281 375.460938,145.259375 C375.460938,65.1632812 310.298437,0 230.202344,0 Z M230.164062,275 C301.684938,275 359.664062,217.020875 359.664062,145.5 C359.664062,73.9791249 301.684938,16 230.164062,16 C158.643187,16 100.664062,73.9791249 100.664062,145.5 C100.664062,217.020875 158.643187,275 230.164062,275 Z M53.9390625,76.7914062 C45.8609375,76.7914062 39.2890625,70.2195312 39.2890625,62.1414063 C39.2890625,54.5414063 44.9828125,48.271875 52.5328125,47.5578125 C56.4703125,47.1851563 59.5085938,43.928125 59.6070313,39.9734375 C59.8664063,29.5125 68.6,21.0015625 79.0742188,21.0015625 C81.7960938,21.0015625 84.4273438,21.55 86.8921875,22.6320313 C89.7476563,23.8851563 93.075,23.3195313 95.3570313,21.19375 C99.2109375,17.6023438 104.236719,15.625 109.510156,15.625 C120.961719,15.625 130.278125,24.9390625 130.278125,36.3875 C130.278125,37.2398438 130.226563,38.0976562 130.123438,38.9375 C130.074219,39.3367188 130.057031,39.7320313 130.067969,40.121875 C118.920313,50.74375 109.453906,63.115625 102.114063,76.7914062 L53.9390625,76.7914062 Z M185.629687,283.524219 C197.310937,287.298437 209.634375,289.63125 222.389844,290.310156 L222.389844,314.092969 L191.010156,314.092969 L185.629687,283.524219 Z M270.628125,384.375 L189.776562,384.375 L177.625781,329.71875 L282.778906,329.71875 L270.628125,384.375 Z M269.394531,314.09375 L238.014844,314.09375 L238.014844,290.310937 C250.769531,289.632031 263.092969,287.299219 274.774219,283.525 L269.394531,314.09375 Z"/>
  </g>
</svg>
