<svg xmlns="http://www.w3.org/2000/svg" width="400" height="400" viewBox="0 0 400 400">
  <g fill="none" fill-rule="evenodd">
    <path fill="#037092" d="M124.850526,47.4363158 C187.694211,-15.3957368 289.947368,-15.3957368 352.792105,47.4363158 C383.234211,77.8736842 400,118.341842 400,161.387105 C400,204.432368 383.234211,244.901053 352.792105,275.340789 C321.368421,306.756579 280.094737,322.464474 238.820789,322.464474 C209.691053,322.464474 180.561316,314.638158 154.895,298.990789 L154.895,298.990789 L142.616053,311.261842 C129.502895,324.372368 119.458947,341.117105 113.572368,359.685526 C110.779474,368.496053 105.827105,376.625 99.2528947,383.198684 C88.2536842,394.196053 73.6597368,400.238158 58.12,400.238158 L58.12,400.238158 L57.7028947,400.238158 C42.0089474,400.127632 27.3363158,393.867105 16.3863947,382.609211 C5.98563158,371.919737 0.167656316,357.738158 -1.26456428e-08,342.685526 C-0.16125,327.625 5.34968421,313.325 15.5223421,302.417105 C22.3661053,295.080263 30.9965789,289.611842 40.4831579,286.606579 C59.0536842,280.719737 75.8021053,270.677632 88.9160526,257.566842 L88.9160526,257.566842 L101.160526,245.327632 C85.8331579,220.303421 77.6410526,191.474474 77.6410526,161.387105 C77.6410526,118.342632 94.4068421,77.8736842 124.850526,47.4363158 Z M110.127895,258.458158 L99.9636842,268.617105 C85.0878947,283.490789 66.1521053,294.861842 45.2052632,301.501316 C38.2755263,303.696053 31.9636842,307.698684 26.9505263,313.075 C11.7254737,329.398684 12.0113947,355.703947 27.5863158,371.717105 C35.5973684,379.951316 46.3318421,384.532895 57.8105263,384.611842 L57.8105263,384.611842 L58.1168421,384.611842 C69.4847368,384.611842 80.1597368,380.193421 88.2060526,372.148684 C93.0855263,367.267105 96.6097368,361.485526 98.6786842,354.961842 C105.319211,334.017105 116.692632,315.085526 131.57,300.211842 L131.57,300.211842 L141.742632,290.043421 C135.858158,285.598684 130.211316,280.696053 124.851316,275.338158 C119.517632,270.006579 114.605263,264.367105 110.127895,258.458158 L110.127895,258.458158 Z M238.820789,15.9300263 C201.547368,15.9300263 164.273947,30.1152632 135.898158,58.4855263 C108.407632,85.9713158 93.2668421,122.516842 93.2668421,161.387105 C93.2668421,200.258158 108.407632,236.802632 135.898158,264.288158 C192.649737,321.030263 284.992105,321.030263 341.744737,264.288158 C369.234211,236.802632 384.376316,200.258158 384.376316,161.387105 C384.376316,122.516842 369.234211,85.9713158 341.744737,58.4863158 C313.368421,30.1152632 276.094737,15.9300263 238.820789,15.9300263 Z M153.119737,75.7021053 C200.376053,28.4560526 277.263158,28.4568421 324.518421,75.7013158 C347.376316,98.5544737 359.963158,128.985 359.963158,161.387368 C359.963158,193.788947 347.376316,224.219474 324.518421,247.072632 C300.892105,270.696053 269.855263,282.506579 238.818947,282.506579 C207.783947,282.506579 176.747105,270.696053 153.119737,247.072632 C130.262895,224.219474 117.674474,193.788947 117.674474,161.387368 C117.674474,128.985789 130.262895,98.5552632 153.119737,75.7021053 Z M313.471053,86.7505263 C272.307895,45.5960526 205.331579,45.5960526 164.168158,86.7513158 C144.262895,106.653684 133.300263,133.159211 133.300263,161.387368 C133.300263,189.614737 144.262895,216.121053 164.168158,236.022368 C205.331579,277.177632 272.307895,277.177632 313.471053,236.022368 C333.376316,216.121053 344.339474,189.614737 344.339474,161.386579 C344.339474,133.158421 333.376316,106.652895 313.471053,86.7505263 Z"/>
    <path fill="#5CD999" d="M237.320574,92.3802632 C266.605742,92.3802632 290.430622,116.205144 290.430622,145.490311 C290.430622,157.715191 282.476555,174.718062 266.113876,197.471172 C254.537799,213.56878 243.141627,226.304665 242.662201,226.839115 C241.300957,228.355383 239.358852,229.222368 237.320574,229.222368 C235.282297,229.222368 233.340191,228.355383 231.978947,226.839115 C231.499522,226.304665 220.103828,213.56878 208.527273,197.471172 C192.164593,174.718062 184.210526,157.715191 184.210526,145.490311 C184.210526,116.205144 208.035407,92.3802632 237.320574,92.3802632 Z M237.320574,123.002273 C224.920574,123.002273 214.832536,133.090311 214.832536,145.490311 C214.832536,157.890311 224.920574,167.978349 237.320574,167.978349 C249.720574,167.978349 259.808612,157.890311 259.808612,145.490311 C259.808612,133.090311 249.720574,123.002273 237.320574,123.002273 Z"/>
  </g>
</svg>
