<svg xmlns="http://www.w3.org/2000/svg" width="400" height="400" viewBox="0 0 400 400">
  <g fill="none" fill-rule="evenodd">
    <path fill="#037092" d="M178.460938,1.7265625 C180.99375,-0.5734375 184.860938,-0.56640625 187.400781,1.7265625 L187.400781,1.7265625 L219.39375,30.6398438 L261.520313,21.5601563 C264.866406,20.846875 268.220313,22.7734375 269.273438,26.0335938 L269.273438,26.0335938 L282.4875,67.1132813 L323.500781,80.3335938 C326.753906,81.3804688 328.6875,84.7265625 327.974219,88.0734375 L327.974219,88.0734375 L318.953906,130.2 L347.867188,162.207031 C350.160156,164.746875 350.160156,168.607031 347.867188,171.146094 L347.867188,171.146094 L318.953906,203.146094 L327.974219,245.279688 C328.6875,248.626563 326.753906,251.966406 323.500781,253.019531 L323.500781,253.019531 L284.124742,265.704198 L323.368826,363.81464 C323.91284,365.171754 324.045403,366.624511 323.796751,368.009328 C323.548005,369.394662 322.917719,370.711996 321.93622,371.797307 C320.956182,372.881003 319.713876,373.637635 318.364302,374.025182 C317.117586,374.383193 315.779161,374.426199 314.467433,374.119061 L314.140125,374.034962 L273.591242,362.449676 L256.438484,396.755153 C255.798196,398.055051 254.813484,399.115791 253.626236,399.851815 C252.437548,400.588733 251.045885,401 249.594531,401 C248.054695,400.977162 246.634825,400.537251 245.440294,399.773749 C244.316736,399.055611 243.391624,398.050729 242.765542,396.830903 L242.626416,396.545622 L205.223742,315.508198 L187.400781,331.6125 C186.206934,332.687695 184.726068,333.258893 183.227264,333.326093 L182.927344,333.332813 C181.327344,333.332813 179.727344,332.759375 178.460938,331.6125 L178.460938,331.6125 L158.706742,313.768198 L123.314034,396.352459 C122.726904,397.725874 121.767459,398.866885 120.580755,399.674843 C119.395486,400.481825 117.983503,400.956612 116.489171,400.99882 C114.918733,400.99882 113.492497,400.595083 112.288307,399.875131 C111.145415,399.191829 110.20103,398.223536 109.54607,397.037299 L109.400104,396.759714 L92.2446948,362.448895 L51.6913851,374.035435 C50.2844865,374.430409 48.8256382,374.41238 47.4734237,374.024074 C46.1235792,373.636449 44.8799346,372.879923 43.8998705,371.796695 C42.9191984,370.712794 42.2905282,369.395588 42.041794,368.011186 C41.8117355,366.730729 41.9067642,365.392923 42.3484096,364.128931 L42.4660546,363.814547 L81.7117422,265.700198 L42.2875,253.019531 C39.1031613,251.997765 37.1784394,248.774279 37.7676814,245.500317 L37.8140625,245.266406 L46.89375,203.139844 L17.9804688,171.146875 C15.6875,168.607031 15.6875,164.746875 17.9804688,162.207031 L17.9804688,162.207031 L46.89375,130.207031 L37.8140625,88.0804688 C37.0945313,84.734375 39.0273438,81.3804688 42.2875,80.3273438 L42.2875,80.3273438 L83.3609375,67.1070313 L96.58125,26.0335938 C97.634375,22.7671875 100.98125,20.8398438 104.334375,21.5601563 L104.334375,21.5601563 L146.460938,30.6398438 Z M275.945742,286.536198 L269.274219,307.246094 C268.227344,310.499219 264.88125,312.466406 261.534375,311.719531 L261.534375,311.719531 L219.400781,302.699219 L217.142742,304.740198 L249.864038,375.631475 L262.72618,349.900635 C263.549714,348.249077 264.900169,347.011171 266.489072,346.311098 C267.985144,345.651926 269.692943,345.469585 271.373964,345.869854 L271.688784,345.951757 L303.328342,354.991631 L275.945742,286.536198 Z M89.9027422,286.510198 L62.5196327,355.005045 L94.164691,345.963599 C95.9549955,345.471663 97.7855658,345.636823 99.3726195,346.336081 C100.865586,346.993885 102.143843,348.124208 102.971814,349.62678 L103.121725,349.91285 L115.730887,375.124643 L146.682742,302.906198 L146.453906,302.699219 L104.327344,311.719531 C100.980469,312.459375 97.634375,310.499219 96.5875,307.246094 L96.5875,307.246094 L89.9027422,286.510198 Z M182.927672,18.3483037 L154.201772,44.3034995 L153.977853,44.4997561 C151.936308,46.2277077 149.195366,46.9171812 146.559413,46.3395857 L146.559413,46.3395857 L108.770332,38.1960487 L96.91172,75.0585775 L96.8151206,75.3414429 C95.9042086,77.8666612 93.8794128,79.8294014 91.3146807,80.6565765 L91.3146807,80.6565765 L54.4507367,92.5156446 L62.5957421,130.311485 L62.6537648,130.603412 C63.1295887,133.234534 62.3559254,135.957326 60.5582247,137.947043 L60.5582247,137.947043 L34.6096661,166.666235 L60.564281,195.384774 L60.7599524,195.610035 C62.4827197,197.663075 63.1693749,200.399829 62.6015892,203.022412 L62.6015892,203.022412 L54.4569867,240.816387 L91.319515,252.674999 L91.6023804,252.771598 C94.1275987,253.68251 96.0903389,255.707306 96.917514,258.272038 L96.917514,258.272038 L108.783341,295.085358 L146.596897,286.988745 L146.951312,286.923249 C147.426396,286.84552 147.910777,286.80625 148.394531,286.80625 C150.519278,286.80625 152.600573,287.588424 154.205536,289.046004 L154.205536,289.046004 L182.927344,314.991522 L211.653085,289.042441 L211.877341,288.845748 C213.921392,287.113228 216.650907,286.402499 219.28795,287.00776 L219.28795,287.00776 L257.084316,295.099414 L268.943214,258.286751 L269.039788,258.003965 C269.950479,255.479433 271.975275,253.516692 274.540007,252.689517 L274.540007,252.689517 L311.35332,240.83041 L303.258377,203.018684 L303.201284,202.727696 C302.733461,200.105053 303.505326,197.391264 305.293189,195.402683 L305.293189,195.402683 L331.251681,166.666409 L305.302597,137.940665 L305.107162,137.716652 C303.386354,135.674711 302.697104,132.945076 303.265306,130.311754 L303.265306,130.311754 L311.359577,92.5091219 L274.546593,80.6434035 L274.263839,80.5468401 C271.739589,79.6362398 269.776849,77.611444 268.949674,75.0467119 L268.949674,75.0467119 L257.090605,38.1827679 L219.294765,46.3277733 L219.002795,46.3864701 C216.371889,46.8680861 213.664858,46.0929344 211.659119,44.2958002 L211.659119,44.2958002 L182.927672,18.3483037 Z"/>
    <path fill="#5CD999" d="M192.438394,86 C212.269293,86.0920952 226.351561,89.5853982 234.610099,96.6323818 C242.618721,103.466113 246.724708,112.796704 246.986659,124.596223 L246.996666,125.198326 L247,125.788233 L247,164.186086 L246.996715,164.793362 C246.864783,176.885745 242.750081,186.461391 234.605498,193.496937 C226.453096,200.539237 212.632077,204.079988 193.209415,204.252829 L192.429521,204.257947 L191.658694,204.259587 L170.91411,204.259587 L170.91411,266 L132,266 L132,86 L192.438394,86 Z M187,116 L172,116 L172,175 L187,175 C200.178295,175 206.84406,170.970525 206.997296,162.911575 L207,162.625468 L207,128.153558 C207,120.051186 200.333333,116 187,116 Z M349.59375,7.10542736e-14 C352.853906,7.10542736e-14 355.633594,2.36015625 356.167187,5.5734375 C357.973437,16.4398438 366.480469,24.953125 377.346875,26.753125 C380.573437,27.2929688 382.926562,30.0726563 382.926562,33.3328125 C382.926562,36.5929688 380.567187,39.3796875 377.346875,39.90625 C366.480469,41.70625 357.974219,50.2195313 356.167187,61.0859375 C355.633594,64.3054688 352.853906,66.665625 349.59375,66.665625 C346.333594,66.665625 343.553906,64.3054688 343.020312,61.0921875 C341.214062,50.2257813 332.707031,41.7125 321.840625,39.9125 C318.621094,39.3796875 316.260937,36.5992188 316.260937,33.3328125 C316.260937,30.0664063 318.620312,27.2859375 321.840625,26.759375 C332.707031,24.959375 341.213281,16.4460938 343.020312,5.5796875 C343.553906,2.36015625 346.333594,7.10542736e-14 349.59375,7.10542736e-14 Z"/>
  </g>
</svg>
