<svg xmlns="http://www.w3.org/2000/svg" width="24" height="24" viewBox="0 0 24 24">
  <path fill="#FFC216" d="M19.0978723,17.787234 L19.0978723,18.8085106 L19.7617021,18.8085106 L19.7617021,19.5234043 L3.82978723,19.5234043 L3.82978723,18.8085106 L4.49361702,18.8085106 L4.49361702,17.787234 L19.0978723,17.787234 Z M16.9531915,12.3234043 C17.2085106,12.3234043 17.4638298,12.5276596 17.4638298,12.8340426 C17.4638298,13.0893617 17.2595745,13.293617 17.0553191,13.3446809 C17.5659574,14.9276596 18.9446809,15.7446809 20.0170213,15.7957447 L20.0170213,15.7957447 L19.7106383,16.7659574 L20.4255319,16.7659574 L20.4255319,17.4808511 L3.11489362,17.4808511 L3.11489362,16.7659574 L3.82978723,16.7659574 L3.67659574,15.7957447 C4.74893617,15.7446809 6.12765957,14.8765957 6.63829787,13.3446809 C6.38297872,13.293617 6.22978723,13.0893617 6.22978723,12.8340426 C6.22978723,12.5787234 6.48510638,12.3234043 6.74042553,12.3234043 C6.99574468,12.3234043 7.25106383,12.5276596 7.25106383,12.8340426 C7.25106383,13.0382979 7.09787234,13.1914894 6.94468085,13.293617 C7.81276596,14.8255319 9.90638298,15.8468085 11.8468085,15.8468085 C13.787234,15.8468085 15.8808511,14.8255319 16.7489362,13.293617 C16.5446809,13.2425532 16.4425532,13.0382979 16.4425532,12.8340426 C16.4425532,12.5787234 16.6468085,12.3234043 16.9531915,12.3234043 Z M-4.30766534e-14,7.93191489 C0.868085106,8.13617021 2.09361702,8.85106383 2.24680851,9.71914894 C2.50212766,10.5361702 1.8893617,11.4553191 2.4,12.5276596 L2.4,12.5276596 L2.55319149,12.4765957 C2.04255319,11.1489362 2.45106383,10.1787234 3.47234043,9.56595745 C4.59574468,8.90212766 5.97446809,9.97446809 4.95319149,11.3021277 C4.69787234,10.6893617 4.13617021,10.587234 3.72765957,10.893617 C3.37021277,11.1489362 3.11489362,11.6085106 3.21702128,12.1191489 L3.21702128,12.1191489 L3.4212766,12.0170213 C3.57446809,11.9659574 3.7787234,12.0170213 3.82978723,12.1702128 C3.88085106,12.3234043 3.82978723,12.5276596 3.67659574,12.5787234 L3.67659574,12.5787234 L3.47234043,12.6808511 C3.67659574,12.987234 4.03404255,13.0893617 4.34042553,12.987234 C4.8,12.8340426 4.95319149,12.4765957 4.90212766,12.2212766 C5.51489362,12.4255319 5.66808511,13.4978723 4.95319149,13.8553191 C4.34042553,14.212766 3.52340426,14.0595745 2.85957447,12.9361702 L2.85957447,12.9361702 L2.75744681,12.987234 C3.21702128,13.7021277 3.67659574,13.9574468 3.82978723,14.3148936 C3.98297872,14.7234043 3.82978723,15.4382979 3.57446809,15.5914894 L3.57446809,15.5914894 Z M23.5914894,7.88085106 L20.0170213,15.5404255 C19.7106383,15.387234 19.5574468,14.6723404 19.7106383,14.2638298 C19.8638298,13.906383 20.3234043,13.6510638 20.7829787,12.9361702 L20.7829787,12.9361702 L20.6808511,12.8851064 C20.0680851,14.0085106 19.2,14.1617021 18.587234,13.8042553 C17.8723404,13.4468085 18.0255319,12.3744681 18.6382979,12.1702128 C18.587234,12.4765957 18.7914894,12.7829787 19.2,12.9361702 C19.506383,13.0382979 19.8638298,12.9361702 20.0170213,12.6297872 L20.0170213,12.6297872 L19.812766,12.5276596 C19.6595745,12.4255319 19.6085106,12.2723404 19.6595745,12.1191489 C19.7617021,11.9659574 19.9148936,11.9148936 20.0680851,11.9659574 L20.0680851,11.9659574 L20.2723404,12.0680851 C20.3744681,11.5574468 20.1191489,11.0978723 19.7617021,10.8425532 C19.4042553,10.587234 18.7914894,10.6382979 18.5361702,11.2510638 C17.5148936,9.97446809 18.9446809,8.85106383 20.0170213,9.51489362 C21.0382979,10.1276596 21.4468085,11.0978723 20.9361702,12.4255319 L20.9361702,12.4255319 L21.1404255,12.4255319 C21.6510638,11.3531915 21.0382979,10.4340426 21.293617,9.61702128 C21.4978723,8.8 22.7234043,8.08510638 23.5914894,7.88085106 L23.5914894,7.88085106 Z M11.7957447,4 C12.7659574,4.76595745 13.787234,6.29787234 13.787234,7.4212766 C13.6340426,8.54468085 12.4085106,9.25957447 12.4085106,10.893617 L12.4085106,10.893617 L12.6638298,10.893617 C12.7659574,9.00425532 13.8382979,8.03404255 15.4212766,7.88085106 C17.106383,7.72765957 18.1787234,9.8212766 16.187234,10.8425532 C16.2382979,9.97446809 15.5744681,9.56595745 14.9106383,9.66808511 C14.2978723,9.77021277 13.7361702,10.1787234 13.5829787,10.893617 L13.5829787,10.893617 L13.8893617,10.893617 C14.1446809,10.893617 14.2978723,11.0978723 14.2978723,11.3021277 C14.2978723,11.506383 14.093617,11.7106383 13.8893617,11.7106383 L13.8893617,11.7106383 L13.5829787,11.7106383 C13.6851064,12.2212766 14.0425532,12.5276596 14.4510638,12.5787234 C15.012766,12.6297872 15.4212766,12.3234043 15.5234043,11.9659574 C16.1361702,12.5276596 15.7276596,13.906383 14.6553191,13.9574468 C13.6851064,14.0085106 12.7659574,13.3957447 12.612766,11.6595745 L12.612766,11.6595745 L12.4085106,11.6595745 C12.5617021,12.7319149 12.9702128,13.3446809 12.9702128,13.8553191 C12.9191489,14.4170213 12.306383,15.1829787 11.8978723,15.2340426 C11.4893617,15.1829787 10.8255319,14.4680851 10.8255319,13.8553191 C10.7744681,13.3446809 11.2340426,12.7319149 11.387234,11.6595745 L11.387234,11.6595745 L11.1829787,11.6595745 C11.0297872,13.3957447 10.1106383,14.0085106 9.14042553,13.9574468 C8.06808511,13.906383 7.65957447,12.5787234 8.27234043,11.9659574 C8.32340426,12.3234043 8.73191489,12.6808511 9.34468085,12.5787234 C9.75319149,12.5276596 10.1106383,12.1702128 10.212766,11.7106383 L10.212766,11.7106383 L9.85531915,11.7106383 C9.6,11.7106383 9.44680851,11.506383 9.44680851,11.3021277 C9.44680851,11.0468085 9.65106383,10.893617 9.85531915,10.893617 L9.85531915,10.893617 L10.1617021,10.893617 C10.0085106,10.1787234 9.44680851,9.77021277 8.83404255,9.66808511 C8.2212766,9.56595745 7.55744681,9.97446809 7.55744681,10.8425532 C5.61702128,9.8212766 6.6893617,7.72765957 8.32340426,7.88085106 C9.90638298,8.03404255 10.9787234,9.00425532 11.0808511,10.893617 L11.0808511,10.893617 L11.3361702,10.893617 C11.3361702,9.3106383 10.1106383,8.54468085 9.95744681,7.4212766 C9.80425532,6.29787234 10.8255319,4.76595745 11.7957447,4 Z"/>
</svg>
