<svg xmlns="http://www.w3.org/2000/svg" width="80" height="80" viewBox="0 0 80 80">
  <g fill="none" fill-rule="evenodd">
    <circle cx="40" cy="40" r="40" fill="#008094"/>
    <path fill="#FFF" d="M41.5862069,39.8341336 C44.704851,37.4998705 50.2228056,43.8044753 55.6503907,45.6111949 L55.9310345,45.7005674 C59.6125392,46.8189992 60.8988904,50.4250945 61.5112488,53.3649483 L64.2068966,51.7066783 L64.2068966,60.7856831 L49.4482759,60.7856831 L53.8327627,58.0882013 C52.5508071,56.1168444 49.8031477,55.0964356 48.5056084,54.6895198 L48.3448276,54.6398952 C47.0086207,54.233959 42.1773976,53.3036883 41.3751515,52.4840195 L41.3103448,52.4050633 C40.7586207,51.5670013 27.5172414,47.7957224 26.9655172,47.2370144 L26.8584333,47.1381985 C26.2744688,46.640341 25.2810867,46.3142997 26.9655172,45.0021825 C28.7586207,43.6054125 40.6206897,46.9576604 43.2413793,47.6560454 C45.0457556,48.2972497 47.0264048,48.1969636 48.7586207,47.3766914 C48.2068966,46.8179834 38.4137931,42.2086425 41.5862069,39.8341336 Z M35.3793103,42.6276735 C39.2413793,42.7673505 45.4482759,47.2370144 45.862069,47.5163684 L31.1034483,44.4434745 L31.1509589,44.1583446 C31.3293401,43.2855929 31.8940286,42.5016235 35.3793103,42.6276735 Z M66.2758621,36.3422086 L66.2758621,38.4233959 L14,38.4233959 L14,36.3422086 L66.2758621,36.3422086 Z M40.7586207,20 L42.5517241,25.4474029 L48.0689655,25.4474029 L43.5172414,28.7996508 L45.3103448,34.1073767 L40.7586207,30.7551288 L36.2068966,34.1073767 L38,28.7996508 L33.4482759,25.4474029 L38.9655172,25.4474029 L40.7586207,20 Z M55.1034483,23.6316019 L56.3448276,27.2632038 L60.0689655,27.2632038 L57.0344828,29.4980358 L58.2758621,33.2693147 L55.1034483,30.8948058 L52.0689655,33.2693147 L53.3103448,29.4980358 L50.137931,27.2632038 L54,27.2632038 L55.1034483,23.6316019 Z M24.7586207,23.6316019 L26,27.2632038 L29.7241379,27.2632038 L26.6896552,29.4980358 L27.9310345,33.2693147 L24.7586207,30.8948058 L21.7241379,33.2693147 L22.8275862,29.4980358 L19.7931034,27.2632038 L23.6551724,27.2632038 L24.7586207,23.6316019 Z"/>
  </g>
</svg>
