<svg xmlns="http://www.w3.org/2000/svg" width="24" height="24" viewBox="0 0 24 24">
  <path fill="#007089" d="M12.4307692,11.8 C13.8461538,10.7538462 16.3692308,13.6461538 18.8307692,14.3846154 C20.4923077,14.8769231 21.0461538,16.5384615 21.4153846,17.8307692 L21.4153846,17.8307692 L22.6461538,17.0923077 L22.6461538,21.0923077 L16,21.0923077 L17.9692308,19.9230769 C17.3538462,19 16.0615385,18.5692308 15.5076923,18.3846154 C14.8307692,18.1384615 12.5538462,17.7076923 12.3076923,17.3384615 C12.0615385,16.9076923 6.09230769,15.1846154 5.84615385,15 C5.6,14.7538462 5.04615385,14.5692308 5.84615385,14.0153846 C6.70769231,13.4615385 12,14.9384615 13.1692308,15.2461538 C14.3384615,15.6153846 15.1384615,15.3692308 15.6307692,15.1230769 C15.3846154,14.8769231 11.0153846,12.8461538 12.4307692,11.8 Z M9.40081231,13.0259998 L9.6,13.0307692 C10.8307692,13.0307692 14.0923077,15.0615385 14.3384615,15.1230769 L14.3384615,15.1230769 L7.69230769,13.8307692 C7.75384615,13.4615385 7.87692308,12.9692308 9.6,13.0307692 Z M23.5076923,10.2 L23.5076923,11.1230769 L-5.68434189e-14,11.1230769 L-5.68434189e-14,10.2 L23.5076923,10.2 Z M12,3 L12.8,5.4 L15.3230769,5.4 L13.2923077,6.87692308 L14.0923077,9.27692308 L12,7.8 L9.96923077,9.27692308 L10.7692308,6.87692308 L8.73846154,5.4 L11.2615385,5.4 L12,3 Z M18.4615385,4.6 L19.0153846,6.26153846 L20.7384615,6.26153846 L19.3230769,7.24615385 L19.8769231,8.84615385 L18.4615385,7.86153846 L17.1076923,8.84615385 L17.6615385,7.24615385 L16.2461538,6.26153846 L17.9692308,6.26153846 L18.4615385,4.6 Z M4.86153846,4.6 L5.41538462,6.26153846 L7.07692308,6.26153846 L5.72307692,7.24615385 L6.21538462,8.84615385 L4.86153846,7.86153846 L3.50769231,8.84615385 L4,7.24615385 L2.64615385,6.26153846 L4.36923077,6.26153846 L4.86153846,4.6 Z"/>
</svg>
