<svg xmlns="http://www.w3.org/2000/svg" width="80" height="80" viewBox="0 0 80 80">
  <path fill-rule="evenodd" d="M35.1908124,72.6544985 C37.205892,72.9549152 38.5922597,74.8287313 38.2961337,76.8469613 C38.0293535,78.6797709 36.4553505,80 34.6599199,80 C34.4811772,80 34.3033237,79.9812797 34.1192454,79.9581021 C32.1112799,79.6603597 30.7169088,77.7838693 31.0148134,75.7709879 C31.3144964,73.750975 33.186404,72.3638876 35.1908124,72.6544985 Z M49.1434157,75.7344387 C49.4502129,77.7464287 48.062956,79.6255934 46.0549905,79.9322502 C45.8726908,79.9581021 45.6850554,79.9723652 45.4991985,79.9723652 C43.7117713,79.9723652 42.1404361,78.6681821 41.8656525,76.8389383 C41.5588553,74.8198168 42.9470015,72.9451093 44.9522991,72.6357781 C46.9664895,72.3317956 48.8383971,73.7215574 49.1434157,75.7344387 Z M25.8730701,69.8036594 C27.7014036,70.6817321 28.4786231,72.8871654 27.5973593,74.7226494 C26.9686473,76.0491186 25.6471962,76.8175436 24.2768353,76.8175436 C23.743275,76.8175436 23.2034898,76.7016559 22.6894933,76.45116 C20.8602705,75.570413 20.0874973,73.3712197 20.9660933,71.5312786 C21.8438001,69.6975775 24.0438473,68.9220209 25.8730701,69.8036594 Z M59.1787968,71.4510486 C60.0653962,73.2847496 59.3068513,75.4990974 57.4696251,76.3860846 C56.9556286,76.6383633 56.4051722,76.7515767 55.8733904,76.7515767 C54.5048081,76.7515767 53.190471,75.9902833 52.5528664,74.6736199 C51.6653777,72.8399189 52.4310368,70.6344855 54.2620381,69.7448241 C56.0921501,68.8498139 58.2913081,69.6155646 59.1787968,71.4510486 Z M17.8065268,64.3087963 C19.2951601,65.6878608 19.3840869,68.0225535 18.0048334,69.5201801 C17.2827483,70.3099998 16.2992187,70.707584 15.3041287,70.707584 C14.4873367,70.707584 13.6660613,70.4356749 12.9889394,69.8849903 L12.8079555,69.7278866 C11.3184328,68.3488222 11.2188349,66.0123465 12.5989777,64.5200686 C13.9773419,63.0153106 16.3045544,62.9270576 17.8065268,64.3087963 Z M67.511231,64.3997237 C68.9002665,65.8920015 68.8077827,68.2266943 67.3262634,69.6155646 C66.6157389,70.2805821 65.7149111,70.6023935 64.8185297,70.6023935 C63.827886,70.6023935 62.8443564,70.2083751 62.1196036,69.4310356 C60.7350145,67.9360834 60.8221627,65.6013907 62.3036819,64.2169776 C63.7967617,62.8218671 66.1257526,62.9083372 67.511231,64.3997237 Z M11.6945929,56.6798155 C12.7181395,58.4413095 12.1223304,60.6993381 10.3642491,61.7218248 C9.78533607,62.063248 9.15039924,62.223708 8.51990875,62.223708 C7.24736731,62.223708 6.01217508,61.5684964 5.33455343,60.3900069 L5.33455343,60.3953556 C4.30478194,58.634753 4.90059101,56.3740501 6.65778311,55.348889 C8.41764302,54.3219451 10.6719355,54.9192129 11.6945929,56.6798155 Z M73.4124085,55.2080408 C75.1767148,56.2269617 75.7743024,58.482316 74.7667626,60.2491587 C74.079359,61.4312139 72.8388312,62.0944485 71.5645112,62.0944485 C70.9438026,62.0944485 70.3168692,61.9304228 69.7361777,61.6032627 C67.9692036,60.5834503 67.3636126,58.3280961 68.3809344,56.5594705 C69.3982561,54.7988679 71.6454345,54.1909028 73.4124085,55.2080408 Z M36.923956,24.843956 C43.7178022,24.843956 47.2246154,27.5410989 47.2246154,31.9059341 C47.2246154,36.7191209 42.9081319,39.9120879 36.8808791,39.9120879 C35.44,39.9120879 33.687033,39.7318681 32.6523077,39.5982418 L32.6523077,51.6518681 C32.6523077,51.8865552 32.8218168,52.0182073 33.9602592,52.1080962 L37.3758242,52.327033 L37.5094505,52.9564835 L25.5454945,52.9564835 L25.6791209,52.327033 L28.2892308,52.101978 C29.4584615,52.0105495 29.8654945,51.8303297 29.8654945,51.5613187 L29.8654945,26.1485714 C29.8654945,25.8786813 29.6835165,25.7881319 28.0175824,25.6527473 L25.7257143,25.4742857 L25.5912088,24.843956 L36.923956,24.843956 Z M51.6272527,40.0668132 C52.6145055,40.0668132 53.1085714,40.7367033 53.1085714,41.3749451 C53.1085714,41.9832967 52.6725275,42.5934066 51.9753846,42.5934066 C51.3661538,42.5934066 50.8149451,42.1002198 50.727033,41.170989 C49.4206593,41.578022 48.4931868,43.0575824 47.709011,45.6984615 L47.7107675,52.2711521 C47.7221849,52.4085517 47.8078155,52.4588251 48.4500449,52.4856304 L50.0026374,52.5494505 L50.0905495,52.9564835 L44.2250549,52.9564835 L44.3120879,52.5494505 L45.2703297,52.4914286 L45.5484792,52.4770945 C46.00438,52.4473529 46.1705495,52.3890448 46.1705495,52.1450549 L46.1705495,43.0575824 C46.1705495,41.7512088 45.9964835,41.4602198 45.2993407,41.4030769 L44.1371429,41.2589011 L44.1969231,40.9687912 L47.738022,40.1556044 L47.6501099,44.887033 L47.6791209,44.887033 C48.8123077,41.7512088 50.0606593,40.0668132 51.6272527,40.0668132 Z M8.10995655,47.6004546 L8.10284241,47.6004546 C8.55992578,49.5785697 7.32473356,51.5655992 5.34700317,52.01667 C5.06866252,52.0835283 4.78765406,52.1174032 4.51464901,52.1174032 C2.83749096,52.1174032 1.32040101,50.959417 0.935348291,49.2540839 C0.476486385,47.2670544 1.70723227,45.2871565 3.69118753,44.8271712 C5.67514279,44.3743175 7.65020537,45.6098594 8.10995655,47.6004546 Z M76.3389871,44.6729513 C78.3220531,45.1249136 79.5608024,47.0985715 79.1197258,49.0847095 L79.1197258,49.0936239 C78.7320053,50.8051971 77.210469,51.9694235 75.5315324,51.9694235 C75.2558596,51.9694235 74.9837438,51.9373315 74.7169636,51.8740389 C72.7374547,51.4274253 71.4862557,49.4484188 71.9380034,47.4604979 C72.3826371,45.4716855 74.3532533,44.2281206 76.3389871,44.6729513 Z M3.94373943,33.9025206 C5.96504392,34.0415859 7.49725141,35.8111029 7.35141157,37.8382474 C7.21357515,39.7851619 5.60222287,41.2729825 3.68496266,41.2729825 C3.59247887,41.2729825 3.50888774,41.2622852 3.41729321,41.2622852 C1.39332093,41.1223285 -0.136218758,39.3572686 0.00962107291,37.3212097 C0.155460904,35.2940652 1.91176374,33.7581066 3.94373943,33.9025206 Z M79.9894292,37.1518353 C80.1423832,39.1870027 78.6172898,40.9556284 76.5942068,41.1107397 C76.4981659,41.1223285 76.4101285,41.1223285 76.3140876,41.1223285 C74.4128342,41.1223285 72.7934785,39.6398565 72.6458602,37.7018564 C72.4937955,35.6711462 74.016221,33.9025206 76.049086,33.7483007 C78.0703905,33.5976466 79.8329182,35.1229079 79.9894292,37.1518353 Z M36.3035972,25.5592518 L32.6523077,25.6079121 L32.6523077,38.7428571 C33.687033,39.0127473 35.170989,39.2817582 36.8808791,39.2817582 C41.7389011,39.2817582 44.3006593,36.8087912 44.3006593,32.356044 C44.3006593,28.0720391 41.9616256,25.5249488 36.3035972,25.5592518 Z M56.7947253,27.1006593 L57.7547253,32.2268132 L62.8817582,33.1868132 L57.7547253,34.1468132 L56.7947253,39.2738462 L55.8356044,34.1468132 L50.7103297,33.1868132 L55.8356044,32.2268132 L56.7947253,27.1006593 Z M7.38253593,23.5287825 C9.27756446,24.2704642 10.2201878,26.4036906 9.47853886,28.30425 L9.47853886,28.3104901 C8.91474342,29.7635444 7.51948309,30.6639032 6.05397064,30.6639032 C5.60933701,30.6639032 5.15936778,30.5827818 4.71473415,30.4125159 C2.82504122,29.6699427 1.88686426,27.5278019 2.61784195,25.6308083 L2.61784195,25.636157 C3.35949084,23.7302489 5.49106447,22.7942324 7.38253593,23.5287825 Z M77.3287416,25.475697 C78.0703905,27.3682334 77.1428847,29.5166143 75.2478562,30.258296 C74.8067796,30.4374763 74.3532533,30.5159234 73.9041733,30.5159234 C72.4377716,30.5159234 71.0505147,29.6289363 70.4778266,28.1740991 C69.7361777,26.2833456 70.6645727,24.1438791 72.5596012,23.3923915 C74.4404015,22.6480355 76.5799785,23.5778119 77.3287416,25.475697 Z M13.7372398,14.6491052 C15.3299174,15.9096075 15.5975869,18.2291458 14.340163,19.8292884 C13.6074068,20.7501504 12.5340612,21.2252903 11.4464873,21.2252903 C10.6479253,21.2252903 9.8413599,20.9685543 9.16284898,20.4247732 C7.56839279,19.1660538 7.30428041,16.8376011 8.57059699,15.2463729 C9.83513503,13.6444474 12.1445621,13.3814713 13.7372398,14.6491052 Z M71.3404158,15.1108734 C72.6049539,16.7003187 72.3488449,19.026097 70.7597243,20.2972967 C70.0829919,20.8392949 69.2684231,21.1049453 68.4618577,21.1049453 C67.3831765,21.1049453 66.3187236,20.6280226 65.5850781,19.7249894 C64.3214293,18.1319783 64.5802061,15.8035257 66.1657696,14.5358918 C67.754001,13.2593435 70.0652066,13.5178623 71.3404158,15.1108734 Z M22.4075956,8.01497627 C23.5574181,9.69624033 23.1412411,11.9899267 21.4649723,13.1470215 C20.8291462,13.5891779 20.1035041,13.7995587 19.3787513,13.7995587 C18.2102541,13.7995587 17.0550959,13.242406 16.3481284,12.201199 C15.1929703,10.5208264 15.6135937,8.22446569 17.2907517,7.07182813 C18.9687991,5.9138419 21.2542159,6.33549509 22.4075956,8.01497627 Z M62.5811333,6.97287781 C64.2645162,8.1201667 64.6931431,10.4129616 63.5468776,12.104923 C62.8345745,13.1470215 61.6776378,13.7113057 60.5082513,13.7113057 C59.7897234,13.7113057 59.0649706,13.5035992 58.4371479,13.0650086 C56.7519864,11.9177197 56.3251381,9.62492478 57.4696251,7.94276927 C58.6123335,6.25526509 60.9048645,5.82648035 62.5811333,6.97287781 Z M32.6448403,4.24238372 C33.2477635,6.18929821 32.1673037,8.25923202 30.2269226,8.86184841 L30.2269226,8.87076285 C29.8641015,8.98397629 29.4941664,9.03211428 29.1331239,9.03211428 C27.5591208,9.03211428 26.1060581,8.02299926 25.6160718,6.44870852 C25.0113701,4.50001114 26.0900513,2.43096878 28.0331002,1.8265695 C29.9770385,1.21147289 32.0401385,2.30170934 32.6448403,4.24238372 Z M51.8201102,1.76951706 C53.7596021,2.37391634 54.850733,4.43582715 54.2531454,6.38274164 C53.7596021,7.96683827 52.3109857,8.99378218 50.7378719,8.99378218 C50.4497493,8.99378218 50.1587811,8.95669809 49.8681543,8.8843556 L49.6502981,8.8235163 C47.7099169,8.22446569 46.6196753,6.16522921 47.2172629,4.21920617 C47.8130719,2.2607029 49.8743934,1.17135789 51.8201102,1.76951706 Z M40.0017483,3.55271368e-14 C42.0346133,3.55271368e-14 43.6868718,1.64828063 43.6868718,3.69325399 C43.6868718,5.72753003 42.0346133,7.37673142 40.0017483,7.37673142 L39.8648011,7.37673142 C37.8337147,7.3847251 36.1832347,5.74535892 36.1742985,3.70840855 C36.1645601,1.66432663 37.8034796,0.00802299926 39.8318983,3.55271368e-14 L40.0017483,3.55271368e-14 Z"/>
</svg>
