<svg xmlns="http://www.w3.org/2000/svg" width="80" height="80" viewBox="0 0 80 80">
  <g fill="none" fill-rule="evenodd">
    <path fill="#7F7F7F" d="M35.1905251,72.6539031 C37.2049587,72.9534143 38.5941307,74.8302919 38.2953648,76.8488544 C38.0296957,78.6817917 36.4571494,80 34.6600815,80 C34.4829687,80 34.3049615,79.9820652 34.1197982,79.9596467 C32.1125207,79.6619289 30.7197707,77.7859481 31.0167475,75.772766 C31.3155135,73.7533067 33.1850366,72.3651527 35.1905251,72.6539031 Z M49.1448608,75.7351029 C49.4507827,77.744698 48.0633998,79.6278528 46.0579113,79.9336412 C45.872748,79.9596467 45.6857956,79.975788 45.5006323,79.975788 C43.713404,79.975788 42.1408577,78.6665471 41.8662435,76.8416805 C41.5585325,74.8213245 42.9441265,72.9462404 44.953193,72.6377617 C46.9676266,72.3319733 48.8389388,73.7219208 49.1448608,75.7351029 Z M25.8733225,69.8022688 C27.7025928,70.6828678 28.4781319,72.8897458 27.5979353,74.7253733 C26.9708847,76.0498588 25.6496954,76.8174685 24.2784135,76.8174685 C23.7452864,76.8174685 23.2058976,76.7026857 22.6933441,76.4524952 C20.8613903,75.5718962 20.0867458,73.3739856 20.9660478,71.5320809 C21.8426664,69.6991436 24.0458413,68.9216697 25.8733225,69.8022688 Z M59.1785648,71.4513743 C60.0659174,73.2852083 59.3073741,75.5010537 57.4700532,76.3879299 C56.9539217,76.6390172 56.4037988,76.7520065 55.8742497,76.7520065 C54.5047569,76.7520065 53.1889346,75.9915706 52.5529389,74.6751558 C51.6655863,72.8404251 52.4312857,70.6362373 54.262345,69.7457741 C56.0907208,68.8508272 58.2903177,69.6166435 59.1785648,71.4513743 Z M17.8084321,64.3079406 C19.2986836,65.6898175 19.3845565,68.0249294 18.0061186,69.521589 C17.2833555,70.3116173 16.299396,70.7079765 15.3100694,70.7079765 C14.4901031,70.7079765 13.6678818,70.435959 12.9915406,69.8850169 L12.8108121,69.7278393 C11.3187716,68.3477559 11.2221646,66.0135408 12.5988135,64.5195714 C13.9790404,63.0139443 16.3083411,62.9260638 17.8084321,64.3079406 Z M67.5118078,64.3994082 C68.8991908,65.8906874 68.8079509,68.2257992 67.3284335,69.6166435 C66.6172991,70.2784379 65.7138453,70.6039546 64.8193366,70.6039546 C63.8291155,70.6039546 62.846945,70.2084921 62.1206039,69.431915 C60.7350099,67.9352553 60.8226718,65.6010402 62.3057672,64.2182666 C63.7978077,62.8229386 66.1280029,62.9099224 67.5118078,64.3994082 Z M39.8426667,11 C55.7706667,11 68.6808889,23.9102222 68.6808889,39.8408889 C68.6808889,55.7706667 55.7706667,68.6773333 39.8426667,68.6773333 C23.9146667,68.6773333 11,55.7706667 11,39.8408889 C11,23.9102222 23.9146667,11 39.8426667,11 Z M11.6971487,56.6793705 C12.7213612,58.442362 12.1238294,60.697664 10.3679088,61.723535 C9.78826718,62.0642963 9.15048248,62.2239161 8.52164287,62.2239161 C7.24786249,62.2239161 6.014335,61.5701924 5.33629741,60.3900821 L5.33629741,60.397256 C4.30582339,58.6342644 4.90156618,56.3744788 6.65927577,55.3486078 C8.41787986,54.3218401 10.6738308,54.9199659 11.6971487,56.6793705 Z M73.4119872,55.2114065 C75.1777473,56.2274134 75.7752792,58.4836121 74.7689569,60.2492938 C74.0810797,61.4311976 72.8403961,62.0956822 71.5648267,62.0956822 C70.9449322,62.0956822 70.3178816,61.930682 69.7355564,61.6033717 C67.9697963,60.5846747 67.3668974,58.3293727 68.3821648,56.5610008 C69.3983267,54.798906 71.6471215,54.190916 73.4119872,55.2114065 Z M8.10927436,47.6007712 L8.10390731,47.6007712 C8.56189576,49.5780837 7.32836827,51.566157 5.34524249,52.0181142 C5.07062832,52.0835762 4.78975259,52.1149621 4.51692744,52.1149621 C2.83972364,52.1149621 1.3235314,50.9599605 0.935314624,49.2552571 C0.479115189,47.2689773 1.71085366,45.2889746 3.69219042,44.8262566 C5.6753162,44.3751962 7.64949689,45.6118011 8.10927436,47.6007712 Z M76.3379251,44.6747074 C78.3210509,45.1257678 79.5635235,47.0968031 79.1198472,49.0857732 L79.1198472,49.0947406 C78.7316304,50.8066179 77.2100711,51.9687934 75.5328673,51.9687934 C75.2564641,51.9687934 74.9845335,51.939201 74.7170754,51.8755324 C72.7357386,51.428059 71.4843209,49.4489531 71.9369423,47.459983 C72.3824077,45.4737031 74.3547993,44.2290275 76.3379251,44.6747074 Z M3.94533638,33.9030624 C5.96692604,34.0420571 7.49743042,35.8095323 7.35252001,37.837959 C7.21655468,39.7838856 5.60196649,41.2724746 3.68503435,41.2724746 C3.59647799,41.2724746 3.50881614,41.2626104 3.41847076,41.2626104 C1.39509209,41.1182352 -0.135412284,39.3561404 0.00949812428,37.3205398 C0.154408533,35.2930099 1.91211812,33.7577904 3.94533638,33.9030624 Z M79.9893096,37.1501592 C80.1431651,39.1875532 78.6180278,40.9559252 76.5946491,41.1101646 C76.4989367,41.1182352 76.4112748,41.1182352 76.3155624,41.1182352 C74.4111534,41.1182352 72.7929872,39.6395104 72.6480768,37.7007577 C72.4942213,35.6723311 74.0184641,33.9030624 76.0481043,33.748823 C78.069694,33.5954804 79.8354541,35.123526 79.9893096,37.1501592 Z M7.38561683,23.52957 C9.27929174,24.272071 10.2212094,26.4036228 9.47876718,28.3029189 L9.47876718,28.3118863 C8.91612121,29.7663991 7.52337117,30.6631395 6.05458789,30.6631395 C5.61091158,30.6631395 5.16007919,30.5815361 4.71461386,30.4129489 C2.82362248,29.6695512 1.8897554,27.5272385 2.62146352,25.6297359 L2.62146352,25.6360131 C3.36211672,23.7295431 5.49194192,22.7951397 7.38561683,23.52957 Z M77.3290408,25.4754966 C78.069694,27.3658252 77.1420884,29.5153118 75.2484135,30.2587096 C74.8056317,30.4362642 74.3547993,30.5178676 73.9030725,30.5178676 C72.4369727,30.5178676 71.0513787,29.6300946 70.4779987,28.174685 C69.7355564,26.2825629 70.664951,24.1429404 72.5577314,23.391472 C74.4424612,22.6462808 76.5812315,23.577994 77.3290408,25.4754966 Z M13.7366286,14.6482536 C15.3315376,15.9090705 15.5989957,18.2280411 14.342211,19.8278259 C13.6051358,20.7487782 12.5361979,21.2240506 11.4475808,21.2240506 C10.64789,21.2240506 9.84193771,20.9675828 9.16658364,20.4250549 C7.56899111,19.1651347 7.30332203,16.8371968 8.57084085,15.2481729 C9.83657065,13.6456979 12.1488756,13.379366 13.7366286,14.6482536 Z M71.3411995,15.1082814 C72.6060348,16.7008923 72.3475218,19.0270367 70.7615579,20.2959243 C70.0835203,20.8384522 69.2695174,21.1047841 68.4626706,21.1047841 C67.3847876,21.1047841 66.3203222,20.6268215 65.5868251,19.7229072 C64.3219898,18.1293996 64.5787138,15.8032552 66.1664667,14.5343676 C67.7551142,13.2592028 70.0683137,13.517464 71.3411995,15.1082814 Z M22.4071014,8.0141685 C23.5601231,9.69465991 23.1423875,11.9894185 21.4660782,13.1453168 C20.830977,13.5901 20.102847,13.7990405 19.3791894,13.7990405 C18.2109611,13.7990405 17.0579394,13.2421647 16.3468049,12.1992557 C15.1955722,10.5205578 15.6150968,8.22400574 17.2914061,7.06900417 C18.9686099,5.91310586 21.2558687,6.33278034 22.4071014,8.0141685 Z M62.5794869,6.97215621 C64.2638467,8.11908712 64.6923164,10.4147424 63.5455563,12.1024077 C62.8353164,13.1453168 61.6787166,13.7111599 60.5095938,13.7111599 C59.7895143,13.7111599 59.0667512,13.5022194 58.4361226,13.0637134 C56.7517627,11.9176792 56.3250821,9.62381742 57.4700532,7.93973905 C58.6141298,6.25386719 60.9040721,5.82432857 62.5794869,6.97215621 Z M32.6447534,4.23978837 C33.2494413,6.18750841 32.1679802,8.25808187 30.2286854,8.86158813 L30.2286854,8.87145227 C29.8655149,8.9853383 29.4933992,9.03196879 29.1320177,9.03196879 C27.5594714,9.03196879 26.1094728,8.02223916 25.6148095,6.44845985 C25.0119107,4.50073981 26.0915827,2.43016635 28.0344556,1.82576335 C29.9755394,1.21059947 32.04096,2.30103574 32.6447534,4.23978837 Z M51.8194418,1.76837197 C53.7623147,2.37277496 54.8509317,4.43617451 54.2533999,6.38210106 C53.7623147,7.96574452 52.3123161,8.99340896 50.7397698,8.99340896 C50.4492334,8.99340896 50.1598419,8.95610456 49.8702215,8.88379142 L49.6529417,8.82302829 C47.7082798,8.22400574 46.6205572,6.1650899 47.2163,4.21736986 C47.8156209,2.25978568 49.8765689,1.17024616 51.8194418,1.76837197 Z M40.0020874,0 C42.0344112,0 43.6883577,1.64731202 43.6883577,3.69277676 C43.6883577,5.72658387 42.0344112,7.37571285 40.0020874,7.37571285 L39.8661221,7.37571285 C37.8355873,7.38286329 36.1843243,5.74541541 36.1744613,3.70622786 C36.1673286,1.66165987 37.8024905,0.00807066314 39.8357088,0 L40.0020874,0 Z"/>
    <path fill="#FFF" d="M38.4693333,28 C44.12,28 47.0382222,30.2453333 47.0382222,33.8764444 C47.0382222,37.88 43.4462222,40.5377778 38.4328889,40.5377778 C37.2328889,40.5377778 35.7742222,40.3884444 34.9155556,40.2755556 L34.9155556,50.3057778 C34.9155556,50.5194222 35.0840222,50.6303822 36.2859517,50.7064857 L38.8435556,50.8675556 L38.9564444,51.3911111 L29,51.3911111 L29.1111111,50.8675556 L31.2853333,50.68 C32.2568889,50.6053333 32.5937778,50.4568889 32.5937778,50.232 L32.5937778,29.0862222 C32.5937778,28.8613333 32.4426667,28.7866667 31.0595556,28.6746667 L29.1493333,28.5235556 L29.0382222,28 L38.4693333,28 Z M50.7022222,40.6684444 C51.5244444,40.6684444 51.9342222,41.224 51.9342222,41.7546667 C51.9342222,42.2622222 51.5715556,42.7697778 50.9937778,42.7697778 C50.4853333,42.7697778 50.0266667,42.3582222 49.9537778,41.5857778 C48.8666667,41.9235556 48.0942222,43.1555556 47.4417778,45.3528889 L47.4435519,50.8252036 C47.4533094,50.9271677 47.5167331,50.9706535 47.9289874,50.9942216 L49.3493333,51.0524444 L49.4222222,51.3911111 L44.544,51.3911111 L44.6168889,51.0524444 L45.6615432,50.9922675 C46.027284,50.9670617 46.16,50.9164444 46.16,50.7164444 L46.16,43.1555556 L46.1542667,42.8236293 C46.1226228,42.017284 45.9516049,41.8221235 45.4364444,41.7786667 L44.4711111,41.6577778 L44.52,41.4168889 L47.4657778,40.7404444 L47.3928889,44.6773333 L47.4168889,44.6773333 C48.36,42.0684444 49.3982222,40.6684444 50.7022222,40.6684444 Z M37.9853654,28.5958613 L34.9155556,28.6364444 L34.9155556,39.5653333 C35.7742222,39.7902222 37.0088889,40.0142222 38.4328889,40.0142222 C42.4746667,40.0142222 44.6062222,37.9555556 44.6062222,34.2506667 C44.6062222,30.6952037 42.669086,28.5766134 37.9853654,28.5958613 L37.9853654,28.5958613 Z"/>
  </g>
</svg>
