<svg xmlns="http://www.w3.org/2000/svg" width="24" height="24" viewBox="0 0 24 24">
  <path fill="#999" d="M19.3129412,19.5458824 L4.8,19.5458824 C4.63058824,19.5458824 4.46117647,19.6588235 4.46117647,19.8847059 C4.46117647,20.0541176 4.63058824,20.2235294 4.8,20.2235294 L19.3129412,20.2235294 C19.4823529,20.2235294 19.6517647,20.1105882 19.6517647,19.8847059 C19.6517647,19.6588235 19.5388235,19.5458824 19.3129412,19.5458824 Z M4.96941176,18.0211765 L19.2,18.0211765 L19.2,19.1505882 L4.96941176,19.1505882 L4.96941176,18.0211765 Z M23.1529412,7.12235294 C22.7011765,7.12235294 22.3058824,7.46117647 22.3058824,7.91294118 C22.3058824,8.13882353 22.4188235,8.36470588 22.5882353,8.53411765 C21.5717647,9.60705882 19.4258824,11.8094118 18.3529412,11.6964706 C17.28,11.5835294 17.4494118,8.36470588 17.6188235,6.84 L17.7317647,6.84 C18.1835294,6.84 18.5788235,6.50117647 18.5788235,6.04941176 C18.5788235,5.59764706 18.1835294,5.25882353 17.7317647,5.25882353 C17.28,5.25882353 16.9411765,5.59764706 16.9411765,5.99294118 C16.9411765,6.33176471 17.1670588,6.55764706 17.4494118,6.72705882 C16.7152941,8.19529412 15.0776471,11.4141176 14.2870588,11.4141176 C13.44,11.3576471 12.48,6.67058824 12.1411765,4.58117647 C12.5364706,4.52470588 12.8752941,4.18588235 12.8752941,3.79058824 C12.8752941,3.33882353 12.48,3 12.0282353,3 C11.5764706,3 11.1811765,3.33882353 11.1811765,3.79058824 C11.1811765,4.18588235 11.52,4.52470588 11.9152941,4.58117647 C11.5764706,6.67058824 10.6164706,11.4141176 9.76941176,11.4141176 C8.97882353,11.4705882 7.00235294,8.08235294 6.21176471,6.55764706 C6.43764706,6.38823529 6.66352941,6.16235294 6.66352941,5.82352941 C6.66352941,5.37176471 6.26823529,5.03294118 5.81647059,5.03294118 C5.36470588,5.08941176 4.96941176,5.42823529 4.96941176,5.82352941 C4.96941176,6.27529412 5.36470588,6.61411765 5.81647059,6.61411765 L5.98588235,6.61411765 C6.26823529,8.13882353 6.72,11.5270588 5.64705882,11.64 C4.51764706,11.7529412 2.37176471,9.60705882 1.35529412,8.47764706 C1.58117647,8.36470588 1.69411765,8.13882353 1.69411765,7.91294118 C1.69411765,7.46117647 1.29882353,7.12235294 0.847058824,7.12235294 C0.395294118,7.12235294 0,7.46117647 0,7.91294118 C0,8.30823529 0.395294118,8.64705882 0.847058824,8.64705882 C0.96,8.64705882 1.07294118,8.64705882 1.12941176,8.59058824 L4.85647059,17.5694118 L19.1435294,17.5694118 L22.8705882,8.59058824 C22.9835294,8.64705882 23.04,8.64705882 23.1529412,8.64705882 C23.6047059,8.64705882 24,8.30823529 24,7.85647059 C24,7.46117647 23.6047059,7.12235294 23.1529412,7.12235294 Z M4.68705882,14.6329412 C4.40470588,14.7458824 3.95294118,14.2376471 3.67058824,13.5035294 C3.38823529,12.8258824 3.38823529,12.1482353 3.67058824,12.0352941 C3.95294118,11.9223529 4.40470588,12.4305882 4.68705882,13.1647059 C4.96941176,13.8988235 4.96941176,14.5764706 4.68705882,14.6329412 Z M7.90588235,14.1247059 C7.62352941,14.1811765 7.28470588,13.6164706 7.17176471,12.8823529 C7.05882353,12.1482353 7.17176471,11.5270588 7.51058824,11.4705882 C7.79294118,11.4141176 8.13176471,11.9788235 8.24470588,12.7129412 C8.35764706,13.4470588 8.24470588,14.0682353 7.90588235,14.1247059 Z M12.0282353,13.8988235 C11.7458824,13.8988235 11.4635294,13.2776471 11.4635294,12.5435294 C11.4635294,11.8094118 11.6894118,11.1882353 12.0282353,11.1882353 C12.3105882,11.1882353 12.5929412,11.8094118 12.5929412,12.5435294 C12.5364706,13.2776471 12.3105882,13.8988235 12.0282353,13.8988235 Z M16.8282353,12.8823529 C16.7152941,13.6164706 16.3764706,14.1811765 16.0941176,14.1247059 C15.8117647,14.0682353 15.6423529,13.4470588 15.7552941,12.7129412 C15.8682353,11.9788235 16.2070588,11.4141176 16.4894118,11.4705882 C16.8282353,11.4705882 16.9411765,12.0917647 16.8282353,12.8823529 Z M20.3294118,13.56 C20.0470588,14.2376471 19.5952941,14.7458824 19.3129412,14.6894118 C19.0305882,14.5764706 19.0305882,13.9552941 19.3129412,13.2211765 C19.5952941,12.5435294 20.0470588,12.0352941 20.3294118,12.0917647 C20.6117647,12.2047059 20.6117647,12.8258824 20.3294118,13.56 Z"/>
</svg>
