<svg xmlns="http://www.w3.org/2000/svg" width="64" height="64" viewBox="0 0 64 64">
  <g fill="none" fill-rule="evenodd" transform="translate(12.526 13.053)">
    <path fill="#5CD999" d="M9.92792105 30.7360526C9.92989474 30.7355263 9.93184211 30.7352632 9.93378947 30.7347368 9.97826316 30.7257895 10.0226579 30.7213158 10.0664474 30.7213158 10.3771053 30.7205263 10.6575263 30.9339474 10.7293158 31.2486842L11.0097632 32.4763158 11.2902368 33.7039474 11.8511579 36.1592105C11.8912895 36.3352632 11.8600526 36.5192105 11.7644474 36.6715789 11.6686842 36.8239474 11.5164737 36.9318421 11.3411053 36.9721053L6.42947368 38.0939474C6.37876316 38.1055263 6.328 38.1110526 6.27784211 38.1110526 5.96842105 38.1110526 5.68934211 37.8973684 5.61792105 37.5839474L5.61784211 37.5836842C5.53431579 37.2181579 5.76255263 36.8547368 6.12802632 36.7710526L9.20989474 36.0671053 8.24455263 35.3868421C2.47886842 31.3234211-.672795 24.4371053.121234211 17.3163947.697507895 12.1465789 3.25115789 7.51302632 7.31447368 4.26492105 11.3775263 1.01680526 16.4602105-.454417895 21.6296053.122734211 22.0016579.164128947 22.2700526.499476316 22.2284737.871821053 22.1870263 1.24445263 21.8515 1.51273947 21.4796316 1.47103947L21.4792632 1.471C11.5526579.364586842 2.57621053 7.5395 1.46980263 17.4667632.727784211 24.1210526 3.69089474 30.5576316 9.10242105 34.3310526L10.2201579 35.1102632 9.40660526 31.5507895C9.33223684 31.2257895 9.50544737 30.9013158 9.80242105 30.7752632 9.83084211 30.7634211 9.86039474 30.7531579 9.891 30.7447368 9.89955263 30.7426316 9.90821053 30.7402632 9.91692105 30.7384211 9.92057895 30.7376316 9.92426316 30.7368421 9.92792105 30.7360526zM29.1468421 7.37518421C29.145 7.37557895 29.1428947 7.376 29.1410526 7.37636842 29.0965789 7.38531579 29.0521053 7.38968421 29.0084211 7.38978947 28.6976316 7.39057895 28.4173684 7.17715789 28.3455263 6.86242105L28.065 5.63476316 27.7844737 4.40710526 27.2236842 1.95178421C27.1836842 1.77594737 27.2147368 1.59193421 27.3105263 1.43965789 27.4060526 1.28717105 27.5584211 1.17916053 27.7336842 1.13913684L32.6452632.0171394737C32.6960526.00548947368 32.7468421-.0000157894737 32.7971053-.0000157894737 33.1063158-.0000157894737 33.3855263.213736842 33.4568421.527186842L33.4571053.527542105C33.5405263.892863158 33.3123684 1.25642895 32.9468421 1.34002368L29.865 2.04399211 30.8302632 2.72431579C36.5960526 6.78768421 39.7476316 13.6740263 38.9536842 20.7947368 38.3773684 25.9644737 35.8236842 30.5981579 31.7602632 33.8463158 27.6973684 37.0942105 22.6146316 38.5655263 17.4452368 37.9884211 17.0731842 37.9471053 16.8047895 37.6115789 16.8463684 37.2392105 16.8877895 36.8665789 17.2233421 36.5984211 17.5952105 36.64L17.5955526 36.64C27.5221053 37.7465789 36.4986842 30.5715789 37.605 20.6443684 38.3471053 13.9900789 35.3839474 7.55342105 29.9723684 3.78010526L28.8547368 3.00073684 29.6681579 6.56023684C29.7426316 6.88531579 29.5694737 7.20971053 29.2723684 7.33573684 29.2439474 7.34781579 29.2144737 7.35805263 29.1839474 7.36631579 29.1752632 7.36863158 29.1665789 7.37078947 29.1578947 7.37276316 29.1542105 7.37360526 29.1505263 7.37439474 29.1468421 7.37518421z"/>
    <path fill="#037092" d="M28.0107895,10.9089474 C23.2851842,6.18313158 15.6354474,6.18239474 10.9089737,10.9089474 C6.18310526,15.6347895 6.18239474,23.2844211 10.9089737,28.0110526 C15.6347105,32.7368421 23.2844211,32.7373684 28.0107895,28.0110526 C32.7368421,23.2851053 32.7373684,15.6354737 28.0107895,10.9089474 Z M27.5055263,26.2871053 C26.9405263,25.7818684 26.3360526,25.3347368 25.6990263,24.9494211 C26.12,23.4949211 26.3694737,21.8943684 26.4284211,20.2305789 L29.9839474,20.2305789 C29.8231579,22.4732105 28.9613158,24.5769211 27.5055263,26.2871053 Z M8.93597368,20.2305789 L12.4913158,20.2305789 C12.5502895,21.8943684 12.7997368,23.4949211 13.2207895,24.9494211 C12.5837632,25.3347368 11.9793684,25.7818684 11.4143684,26.2871053 C9.95839474,24.5769211 9.09676316,22.4732105 8.93597368,20.2305789 Z M11.4143947,12.6327895 C11.9794211,13.1380263 12.5837895,13.5851579 13.2208421,13.9704737 C12.7997895,15.4249737 12.5503158,17.0255263 12.4913684,18.6893158 L8.93597368,18.6893158 C9.09676316,16.4467368 9.95839474,14.3430263 11.4143947,12.6327895 Z M18.6893421,14.1297632 C17.4325,14.0398684 16.2206579,13.7303158 15.0972105,13.2196579 C15.7506053,11.5371316 16.9551053,9.51913158 18.6893421,9.01905263 L18.6893421,14.1297632 Z M18.6893421,15.6739211 L18.6893421,18.6893684 L14.0332368,18.6893684 C14.0865789,17.2819474 14.286,15.9304474 14.6176579,14.6938684 C15.8943421,15.252 17.2674211,15.5852895 18.6893421,15.6739211 Z M18.6893421,20.2305789 L18.6893421,23.2460263 C17.2674211,23.3346316 15.8943421,23.6679474 14.6176579,24.2260526 C14.286,22.9895 14.0865789,21.638 14.0332368,20.2305789 L18.6893421,20.2305789 Z M18.6893421,24.7901842 L18.6893421,29.9007895 C16.9552105,29.4007895 15.7506842,27.3828947 15.0972105,25.7002895 C16.2206579,25.1896053 17.4325,24.8800526 18.6893421,24.7901842 Z M20.2305526,24.7901842 C21.4873684,24.8800526 22.6992105,25.1896053 23.8226579,25.7002895 C23.1692368,27.3828947 21.9647632,29.4007895 20.2305526,29.9007895 L20.2305526,24.7901842 Z M20.2305526,23.2460263 L20.2305526,20.2305789 L24.8866316,20.2305789 C24.8332895,21.638 24.6338684,22.9895 24.3022368,24.2260526 C23.0255263,23.6679474 21.6524737,23.3346316 20.2305526,23.2460263 Z M20.2305526,18.6893684 L20.2305526,15.6739211 C21.6524737,15.5852895 23.0255263,15.252 24.3022368,14.6938684 C24.6338684,15.9304474 24.8332895,17.2819474 24.8866316,18.6893684 L20.2305526,18.6893684 Z M20.2305526,14.1297632 L20.2305526,9.01907895 C21.9647632,9.51918421 23.1692895,11.5371842 23.8226579,13.2197105 C22.6992105,13.7303158 21.4873684,14.0398684 20.2305526,14.1297632 Z M23.692,9.78847368 C24.6784474,10.2204474 25.5987632,10.8061842 26.4236842,11.5329211 C26.0310526,11.8791579 25.6166842,12.1931053 25.1840263,12.4738684 C24.7997632,11.5225 24.3089211,10.5979474 23.692,9.78847368 Z M13.7358158,12.4738684 C13.3031316,12.1931053 12.8888158,11.8791579 12.4960789,11.5329211 C13.3210789,10.8061842 14.2413947,10.2204474 15.2278421,9.78847368 C14.6108947,10.5980263 14.1200526,11.5226053 13.7358158,12.4738684 Z M13.7358684,26.4460526 C14.1200526,27.3973684 14.611,28.3221053 15.2278947,29.1315789 C14.2414474,28.6994737 13.3211316,28.1136842 12.4961316,27.3871053 C12.8888158,27.0407895 13.3031842,26.7268421 13.7358684,26.4460526 Z M25.1840263,26.4460526 C25.6166842,26.7268421 26.0310526,27.0407895 26.4236842,27.3868421 C25.5987632,28.1136842 24.6784474,28.6994737 23.692,29.1313158 C24.3088947,28.3221053 24.7997632,27.3973684 25.1840263,26.4460526 Z M26.4286842,18.6893684 C26.3694737,17.0255789 26.1202632,15.4249737 25.6990789,13.9705263 C26.3360526,13.5852105 26.9405263,13.1380789 27.5055263,12.6328421 C28.9615789,14.3430263 29.8231579,16.4467368 29.9839474,18.6893684 L26.4286842,18.6893684 Z"/>
  </g>
</svg>
